<?xml version="1.0" encoding="UTF-8" standalone="no"?>
<!DOCTYPE svg PUBLIC "-//W3C//DTD SVG 1.1//EN"
 "http://www.w3.org/Graphics/SVG/1.1/DTD/svg11.dtd">
<!-- Generated by graphviz version 2.40.1 (20161225.0304)
 -->
<!-- Title: urn:temp#graph Pages: 1 -->
<svg width="291px" height="279px"
 viewBox="0.00 0.00 290.50 279.00" xmlns="http://www.w3.org/2000/svg" xmlns:xlink="http://www.w3.org/1999/xlink">
<g id="graph0" class="graph" transform="scale(1.0 1.0) rotate(0) translate(4 275)">
<title>urn:temp#graph</title>
<polygon fill="#ffffff" stroke="transparent" points="-4,4 -4,-275 286.5,-275 286.5,4 -4,4"/>
<!-- http://ns.imfid.org/imf#SystemBlock -->
<g id="node1" class="node">
<title>http://ns.imfid.org/imf#SystemBlock</title>
<polygon fill="none" stroke="#000000" points="246,-117 169,-117 169,-81 246,-81 246,-117"/>
<text text-anchor="middle" x="207.5" y="-97.1" font-family="Arial" font-size="8.00" fill="#000000">imf:SystemBlock</text>
</g>
<!-- http://ns.imfid.org/imf#AspectObject -->
<g id="node3" class="node">
<title>http://ns.imfid.org/imf#AspectObject</title>
<polygon fill="none" stroke="#000000" points="185,-271 106,-271 106,-235 185,-235 185,-271"/>
<text text-anchor="middle" x="145.5" y="-251.1" font-family="Arial" font-size="8.00" fill="#000000">imf:AspectObject</text>
</g>
<!-- http://ns.imfid.org/imf#SystemBlock&#45;&gt;http://ns.imfid.org/imf#AspectObject -->
<g id="edge6" class="edge">
<title>http://ns.imfid.org/imf#SystemBlock&#45;&gt;http://ns.imfid.org/imf#AspectObject</title>
<path fill="none" stroke="#000000" d="M206.5633,-117.2978C204.941,-137.7768 200.5206,-171.5516 188.5,-198 183.8635,-208.2016 176.9675,-218.208 170.0489,-226.8298"/>
<polygon fill="none" stroke="#000000" points="167.243,-224.7283 163.4816,-234.6329 172.5987,-229.2357 167.243,-224.7283"/>
</g>
<!-- http://ns.imfid.org/imf#Terminal -->
<g id="node5" class="node">
<title>http://ns.imfid.org/imf#Terminal</title>
<polygon fill="none" stroke="#000000" points="113.5,-198 53.5,-198 53.5,-162 113.5,-162 113.5,-198"/>
<text text-anchor="middle" x="83.5" y="-178.1" font-family="Arial" font-size="8.00" fill="#000000">imf:Terminal</text>
</g>
<!-- http://ns.imfid.org/imf#SystemBlock&#45;&gt;http://ns.imfid.org/imf#Terminal -->
<g id="edge10" class="edge">
<title>http://ns.imfid.org/imf#SystemBlock&#45;&gt;http://ns.imfid.org/imf#Terminal</title>
<path fill="none" stroke="#000000" d="M168.7639,-116.1572C157.7002,-121.6405 145.8457,-128.0954 135.5,-135 126.7116,-140.8653 117.785,-148.0533 109.8661,-154.9484"/>
<polygon fill="#000000" stroke="#000000" points="107.4503,-152.4133 102.3254,-161.6862 112.1144,-157.6331 107.4503,-152.4133"/>
<text text-anchor="middle" x="164.5" y="-137.6" font-family="Arial" font-size="8.00" fill="#000000">imf:hasTerminal</text>
</g>
<!-- http://ns.imfid.org/imf#Connection -->
<g id="node2" class="node">
<title>http://ns.imfid.org/imf#Connection</title>
<polygon fill="none" stroke="#000000" points="254,-36 183,-36 183,0 254,0 254,-36"/>
<text text-anchor="middle" x="218.5" y="-16.1" font-family="Arial" font-size="8.00" fill="#000000">imf:Connection</text>
</g>
<!-- http://ns.imfid.org/imf#Connection&#45;&gt;http://ns.imfid.org/imf#SystemBlock -->
<g id="edge2" class="edge">
<title>http://ns.imfid.org/imf#Connection&#45;&gt;http://ns.imfid.org/imf#SystemBlock</title>
<path fill="none" stroke="#000000" d="M216.0039,-36.3802C214.6159,-46.6009 212.8597,-59.5328 211.3042,-70.9875"/>
<polygon fill="none" stroke="#000000" points="207.8259,-70.5915 209.9483,-80.9716 214.7622,-71.5336 207.8259,-70.5915"/>
</g>
<!-- http://ns.imfid.org/imf#InletTerminal -->
<g id="node4" class="node">
<title>http://ns.imfid.org/imf#InletTerminal</title>
<polygon fill="none" stroke="#000000" points="75,-36 0,-36 0,0 75,0 75,-36"/>
<text text-anchor="middle" x="37.5" y="-16.1" font-family="Arial" font-size="8.00" fill="#000000">imf:InletTerminal</text>
</g>
<!-- http://ns.imfid.org/imf#Connection&#45;&gt;http://ns.imfid.org/imf#InletTerminal -->
<g id="edge11" class="edge">
<title>http://ns.imfid.org/imf#Connection&#45;&gt;http://ns.imfid.org/imf#InletTerminal</title>
<path fill="none" stroke="#000000" d="M182.8921,-18C154.9184,-18 115.6993,-18 85.0429,-18"/>
<polygon fill="#000000" stroke="#000000" points="76.0033,-23 76.0034,-13 78.0034,-13 78.0033,-23 76.0033,-23"/>
<polyline fill="none" stroke="#000000" points="75.0033,-18 80.0033,-18 "/>
<polygon fill="#000000" stroke="#000000" points="81.0033,-23.0001 81.0034,-13.0001 83.0034,-13.0001 83.0033,-23.0001 81.0033,-23.0001"/>
<polyline fill="none" stroke="#000000" points="80.0033,-18 85.0033,-18.0001 "/>
<text text-anchor="middle" x="129" y="-8.6" font-family="Arial" font-size="8.00" fill="#000000">imf:hasInletTerminal 1</text>
</g>
<!-- http://ns.imfid.org/imf#OutletTerminal -->
<g id="node6" class="node">
<title>http://ns.imfid.org/imf#OutletTerminal</title>
<polygon fill="none" stroke="#000000" points="124.5,-117 42.5,-117 42.5,-81 124.5,-81 124.5,-117"/>
<text text-anchor="middle" x="83.5" y="-97.1" font-family="Arial" font-size="8.00" fill="#000000">imf:OutletTerminal</text>
</g>
<!-- http://ns.imfid.org/imf#Connection&#45;&gt;http://ns.imfid.org/imf#OutletTerminal -->
<g id="edge3" class="edge">
<title>http://ns.imfid.org/imf#Connection&#45;&gt;http://ns.imfid.org/imf#OutletTerminal</title>
<path fill="none" stroke="#000000" d="M209.9043,-36.3337C204.8124,-45.4602 197.5737,-56.008 188.5,-63 172.779,-75.1143 152.7131,-83.3079 134.3426,-88.7748"/>
<polygon fill="#000000" stroke="#000000" points="126.9365,-96.0162 124.2652,-86.3796 126.1926,-85.8453 128.8638,-95.482 126.9365,-96.0162"/>
<polyline fill="none" stroke="#000000" points="124.6372,-91.465 129.4555,-90.1294 "/>
<polygon fill="#000000" stroke="#000000" points="131.7548,-94.6806 129.0836,-85.0439 131.0109,-84.5097 133.6821,-94.1463 131.7548,-94.6806"/>
<polyline fill="none" stroke="#000000" points="129.4555,-90.1294 134.2738,-88.7938 "/>
<text text-anchor="middle" x="239.5" y="-56.6" font-family="Arial" font-size="8.00" fill="#000000">imf:hasOutletTerminal 1</text>
</g>
<!-- http://ns.imfid.org/imf#AspectObject&#45;&gt;http://ns.imfid.org/imf#AspectObject -->
<g id="edge1" class="edge">
<title>http://ns.imfid.org/imf#AspectObject&#45;&gt;http://ns.imfid.org/imf#AspectObject</title>
<path fill="none" stroke="#000000" d="M185.0057,-246.3196C195.2644,-246.7302 203,-248.957 203,-253 203,-255.5269 199.9783,-257.3443 195.2074,-258.4522"/>
<polygon fill="#000000" stroke="#000000" points="194.5157,-255.0102 185.0057,-259.6804 195.3524,-261.96 194.5157,-255.0102"/>
<text text-anchor="middle" x="228.5" y="-251.1" font-family="Arial" font-size="8.00" fill="#000000">imf:hasParent</text>
</g>
<!-- http://ns.imfid.org/imf#InletTerminal&#45;&gt;http://ns.imfid.org/imf#Terminal -->
<g id="edge7" class="edge">
<title>http://ns.imfid.org/imf#InletTerminal&#45;&gt;http://ns.imfid.org/imf#Terminal</title>
<path fill="none" stroke="#000000" d="M32.0432,-36.1509C30.5902,-41.8136 29.2242,-48.1174 28.5,-54 26.0128,-74.204 25.5482,-97.1831 33.5,-117 38.9283,-130.5282 48.2436,-143.4991 57.3733,-154.1178"/>
<polygon fill="none" stroke="#000000" points="54.9565,-156.6643 64.2511,-161.7498 60.1565,-151.9781 54.9565,-156.6643"/>
</g>
<!-- http://ns.imfid.org/imf#InletTerminal&#45;&gt;http://ns.imfid.org/imf#OutletTerminal -->
<g id="edge9" class="edge">
<title>http://ns.imfid.org/imf#InletTerminal&#45;&gt;http://ns.imfid.org/imf#OutletTerminal</title>
<path fill="none" stroke="#000000" d="M32.1094,-36.3841C30.6295,-44.8972 30.3981,-54.8964 34.5,-63 36.5395,-67.0292 39.2658,-70.7172 42.3924,-74.0653"/>
<polygon fill="#000000" stroke="#000000" points="40.0375,-76.6548 49.7651,-80.8529 44.7787,-71.5049 40.0375,-76.6548"/>
<text text-anchor="middle" x="72" y="-56.6" font-family="Arial" font-size="8.00" fill="#000000">imf:directlyPrecedes</text>
</g>
<!-- http://ns.imfid.org/imf#Terminal&#45;&gt;http://ns.imfid.org/imf#AspectObject -->
<g id="edge12" class="edge">
<title>http://ns.imfid.org/imf#Terminal&#45;&gt;http://ns.imfid.org/imf#AspectObject</title>
<path fill="none" stroke="#000000" d="M98.8258,-198.0449C106.2779,-206.8191 115.3698,-217.5241 123.5427,-227.147"/>
<polygon fill="none" stroke="#000000" points="120.9944,-229.5534 130.1356,-234.9096 126.3298,-225.0219 120.9944,-229.5534"/>
</g>
<!-- http://ns.imfid.org/imf#Terminal&#45;&gt;http://ns.imfid.org/imf#Terminal -->
<g id="edge8" class="edge">
<title>http://ns.imfid.org/imf#Terminal&#45;&gt;http://ns.imfid.org/imf#Terminal</title>
<path fill="none" stroke="#000000" d="M113.5,-173.25C123.5,-173.25 131.5,-175.5 131.5,-180 131.5,-182.8125 128.375,-184.7461 123.5898,-185.8008"/>
<polygon fill="#000000" stroke="#000000" points="123.1282,-182.3287 113.5,-186.75 123.7839,-189.2979 123.1282,-182.3287"/>
<text text-anchor="middle" x="155.5" y="-178.1" font-family="Arial" font-size="8.00" fill="#000000">imf:precedes</text>
</g>
<!-- http://ns.imfid.org/imf#OutletTerminal&#45;&gt;http://ns.imfid.org/imf#InletTerminal -->
<g id="edge4" class="edge">
<title>http://ns.imfid.org/imf#OutletTerminal&#45;&gt;http://ns.imfid.org/imf#InletTerminal</title>
<path fill="none" stroke="#000000" d="M106.6358,-80.7383C114.0843,-72.6104 119.1235,-62.8863 113.5,-54 106.7235,-43.2918 95.8056,-35.7065 84.3335,-30.3574"/>
<polygon fill="#000000" stroke="#000000" points="85.6613,-27.119 75.0829,-26.5299 82.9851,-33.5873 85.6613,-27.119"/>
<text text-anchor="middle" x="150.5" y="-56.6" font-family="Arial" font-size="8.00" fill="#000000">imf:isConnectedTo</text>
</g>
<!-- http://ns.imfid.org/imf#OutletTerminal&#45;&gt;http://ns.imfid.org/imf#Terminal -->
<g id="edge5" class="edge">
<title>http://ns.imfid.org/imf#OutletTerminal&#45;&gt;http://ns.imfid.org/imf#Terminal</title>
<path fill="none" stroke="#000000" d="M83.5,-117.3802C83.5,-127.4966 83.5,-140.2691 83.5,-151.6363"/>
<polygon fill="none" stroke="#000000" points="80.0001,-151.9716 83.5,-161.9716 87.0001,-151.9716 80.0001,-151.9716"/>
</g>
</g>
</svg>

