<?xml version="1.0" encoding="UTF-8" standalone="no"?>
<!DOCTYPE svg PUBLIC "-//W3C//DTD SVG 1.1//EN"
 "http://www.w3.org/Graphics/SVG/1.1/DTD/svg11.dtd">
<!-- Generated by graphviz version 2.40.1 (20161225.0304)
 -->
<!-- Title: urn:temp#graph Pages: 1 -->
<svg width="2407px" height="125px"
 viewBox="0.00 0.00 2407.00 125.00" xmlns="http://www.w3.org/2000/svg" xmlns:xlink="http://www.w3.org/1999/xlink">
<g id="graph0" class="graph" transform="scale(1.0 1.0) rotate(0) translate(4 121)">
<title>urn:temp#graph</title>
<polygon fill="#ffffff" stroke="transparent" points="-4,4 -4,-121 2403,-121 2403,4 -4,4"/>
<!-- 48a497e7&#45;dd30&#45;44b5&#45;b467&#45;7d861c484fce -->
<g id="node1" class="node">
<title>48a497e7&#45;dd30&#45;44b5&#45;b467&#45;7d861c484fce</title>
<polygon fill="#e5e5e5" stroke="#000000" stroke-dasharray="5,2" points="266,-29 0,-29 0,-7 266,-7 266,-29"/>
<text text-anchor="middle" x="133" y="-16.1" font-family="Arial" font-size="8.00" fill="#000000">48a497e7&#45;dd30&#45;44b5&#45;b467&#45;7d861c484fce,owl:Class, owl:Restriction</text>
</g>
<!-- http://ns.imfid.org/imf#ActivityAspect -->
<g id="node2" class="node">
<title>http://ns.imfid.org/imf#ActivityAspect</title>
<polygon fill="none" stroke="#000000" points="317.5,-117 236.5,-117 236.5,-81 317.5,-81 317.5,-117"/>
<text text-anchor="middle" x="277" y="-97.1" font-family="Arial" font-size="8.00" fill="#000000">imf:ActivityAspect</text>
</g>
<!-- d410685a&#45;ad76&#45;4d7d&#45;9809&#45;f4462a0e3cc8 -->
<g id="node3" class="node">
<title>d410685a&#45;ad76&#45;4d7d&#45;9809&#45;f4462a0e3cc8</title>
<polygon fill="#e5e5e5" stroke="#000000" stroke-dasharray="5,2" points="907,-110 681,-110 681,-88 907,-88 907,-110"/>
<text text-anchor="middle" x="794" y="-97.1" font-family="Arial" font-size="8.00" fill="#000000">d410685a&#45;ad76&#45;4d7d&#45;9809&#45;f4462a0e3cc8,owl:Restriction</text>
</g>
<!-- http://ns.imfid.org/imf#LocationAspectObject -->
<g id="node4" class="node">
<title>http://ns.imfid.org/imf#LocationAspectObject</title>
<polygon fill="none" stroke="#000000" points="945,-36 835,-36 835,0 945,0 945,-36"/>
<text text-anchor="middle" x="890" y="-16.1" font-family="Arial" font-size="8.00" fill="#000000">imf:LocationAspectObject</text>
</g>
<!-- http://ns.imfid.org/imf#LocationAspectObject&#45;&gt;d410685a&#45;ad76&#45;4d7d&#45;9809&#45;f4462a0e3cc8 -->
<g id="edge2" class="edge">
<title>http://ns.imfid.org/imf#LocationAspectObject&#45;&gt;d410685a&#45;ad76&#45;4d7d&#45;9809&#45;f4462a0e3cc8</title>
<path fill="none" stroke="#000000" d="M868.2161,-36.3802C852.1991,-49.8945 830.5643,-68.1489 814.7871,-81.4609"/>
<polygon fill="none" stroke="#000000" points="812.5173,-78.7966 807.1314,-87.9204 817.0314,-84.1466 812.5173,-78.7966"/>
</g>
<!-- http://ns.imfid.org/imf#AspectObject -->
<g id="node9" class="node">
<title>http://ns.imfid.org/imf#AspectObject</title>
<polygon fill="none" stroke="#000000" points="1004.5,-117 925.5,-117 925.5,-81 1004.5,-81 1004.5,-117"/>
<text text-anchor="middle" x="965" y="-97.1" font-family="Arial" font-size="8.00" fill="#000000">imf:AspectObject</text>
</g>
<!-- http://ns.imfid.org/imf#LocationAspectObject&#45;&gt;http://ns.imfid.org/imf#AspectObject -->
<g id="edge8" class="edge">
<title>http://ns.imfid.org/imf#LocationAspectObject&#45;&gt;http://ns.imfid.org/imf#AspectObject</title>
<path fill="none" stroke="#000000" d="M907.0187,-36.3802C917.1583,-47.3309 930.1796,-61.394 941.3129,-73.4179"/>
<polygon fill="none" stroke="#000000" points="938.9448,-76.0119 948.307,-80.9716 944.0811,-71.256 938.9448,-76.0119"/>
</g>
<!-- http://ns.imfid.org/imf#ActivityAspectObject -->
<g id="node5" class="node">
<title>http://ns.imfid.org/imf#ActivityAspectObject</title>
<polygon fill="none" stroke="#000000" points="663.5,-36 558.5,-36 558.5,0 663.5,0 663.5,-36"/>
<text text-anchor="middle" x="611" y="-16.1" font-family="Arial" font-size="8.00" fill="#000000">imf:ActivityAspectObject</text>
</g>
<!-- http://ns.imfid.org/imf#ActivityAspectObject&#45;&gt;http://ns.imfid.org/imf#AspectObject -->
<g id="edge9" class="edge">
<title>http://ns.imfid.org/imf#ActivityAspectObject&#45;&gt;http://ns.imfid.org/imf#AspectObject</title>
<path fill="none" stroke="#000000" d="M663.6506,-26.4284C722.8689,-36.4511 821.927,-54.8467 915.6784,-81.1271"/>
<polygon fill="none" stroke="#000000" points="914.7413,-84.4993 925.317,-83.8627 916.6526,-77.7653 914.7413,-84.4993"/>
</g>
<!-- 190bd4d2&#45;0f06&#45;456d&#45;8b8b&#45;78dc65dc48d7 -->
<g id="node13" class="node">
<title>190bd4d2&#45;0f06&#45;456d&#45;8b8b&#45;78dc65dc48d7</title>
<polygon fill="#e5e5e5" stroke="#000000" stroke-dasharray="5,2" points="663,-110 437,-110 437,-88 663,-88 663,-110"/>
<text text-anchor="middle" x="550" y="-97.1" font-family="Arial" font-size="8.00" fill="#000000">190bd4d2&#45;0f06&#45;456d&#45;8b8b&#45;78dc65dc48d7,owl:Restriction</text>
</g>
<!-- http://ns.imfid.org/imf#ActivityAspectObject&#45;&gt;190bd4d2&#45;0f06&#45;456d&#45;8b8b&#45;78dc65dc48d7 -->
<g id="edge5" class="edge">
<title>http://ns.imfid.org/imf#ActivityAspectObject&#45;&gt;190bd4d2&#45;0f06&#45;456d&#45;8b8b&#45;78dc65dc48d7</title>
<path fill="none" stroke="#000000" d="M597.1582,-36.3802C587.4476,-49.2746 574.4872,-66.4842 564.6109,-79.5987"/>
<polygon fill="none" stroke="#000000" points="561.5639,-77.8267 558.3439,-87.9204 567.1556,-82.0377 561.5639,-77.8267"/>
</g>
<!-- http://ns.imfid.org/imf#FunctionAspectObject -->
<g id="node6" class="node">
<title>http://ns.imfid.org/imf#FunctionAspectObject</title>
<polygon fill="none" stroke="#000000" points="1473,-36 1363,-36 1363,0 1473,0 1473,-36"/>
<text text-anchor="middle" x="1418" y="-16.1" font-family="Arial" font-size="8.00" fill="#000000">imf:FunctionAspectObject</text>
</g>
<!-- http://ns.imfid.org/imf#FunctionAspectObject&#45;&gt;http://ns.imfid.org/imf#AspectObject -->
<g id="edge3" class="edge">
<title>http://ns.imfid.org/imf#FunctionAspectObject&#45;&gt;http://ns.imfid.org/imf#AspectObject</title>
<path fill="none" stroke="#000000" d="M1362.9062,-27.8512C1273.9732,-43.7531 1100.1376,-74.8363 1014.748,-90.1047"/>
<polygon fill="none" stroke="#000000" points="1014.0125,-86.6806 1004.7847,-91.8862 1015.2447,-93.5713 1014.0125,-86.6806"/>
</g>
<!-- 8fd25f48&#45;bd0f&#45;48ac&#45;b09a&#45;03fc70f7891d -->
<g id="node16" class="node">
<title>8fd25f48&#45;bd0f&#45;48ac&#45;b09a&#45;03fc70f7891d</title>
<polygon fill="#e5e5e5" stroke="#000000" stroke-dasharray="5,2" points="1586.5,-110 1369.5,-110 1369.5,-88 1586.5,-88 1586.5,-110"/>
<text text-anchor="middle" x="1478" y="-97.1" font-family="Arial" font-size="8.00" fill="#000000">8fd25f48&#45;bd0f&#45;48ac&#45;b09a&#45;03fc70f7891d,owl:Restriction</text>
</g>
<!-- http://ns.imfid.org/imf#FunctionAspectObject&#45;&gt;8fd25f48&#45;bd0f&#45;48ac&#45;b09a&#45;03fc70f7891d -->
<g id="edge10" class="edge">
<title>http://ns.imfid.org/imf#FunctionAspectObject&#45;&gt;8fd25f48&#45;bd0f&#45;48ac&#45;b09a&#45;03fc70f7891d</title>
<path fill="none" stroke="#000000" d="M1431.6149,-36.3802C1441.1663,-49.2746 1453.9142,-66.4842 1463.6287,-79.5987"/>
<polygon fill="none" stroke="#000000" points="1461.0281,-81.9681 1469.7929,-87.9204 1466.653,-77.8015 1461.0281,-81.9681"/>
</g>
<!-- http://ns.imfid.org/imf#FunctionAspect -->
<g id="node7" class="node">
<title>http://ns.imfid.org/imf#FunctionAspect</title>
<polygon fill="none" stroke="#000000" points="370,-36 284,-36 284,0 370,0 370,-36"/>
<text text-anchor="middle" x="327" y="-16.1" font-family="Arial" font-size="8.00" fill="#000000">imf:FunctionAspect</text>
</g>
<!-- http://ns.imfid.org/imf#FunctionAspect&#45;&gt;http://ns.imfid.org/imf#ActivityAspect -->
<g id="edge7" class="edge">
<title>http://ns.imfid.org/imf#FunctionAspect&#45;&gt;http://ns.imfid.org/imf#ActivityAspect</title>
<path fill="none" stroke="#000000" d="M307.7253,-36.3257C302.7989,-41.6893 297.821,-47.7898 294,-54 290.7478,-59.2858 287.9512,-65.2947 285.6198,-71.1615"/>
<polygon fill="#000000" stroke="#000000" points="282.2621,-70.154 282.137,-80.7481 288.8413,-72.5443 282.2621,-70.154"/>
<text text-anchor="middle" x="320.5" y="-56.6" font-family="Arial" font-size="8.00" fill="#000000">imf:hasActivity</text>
</g>
<!-- http://ns.imfid.org/imf#ProductAspect -->
<g id="node17" class="node">
<title>http://ns.imfid.org/imf#ProductAspect</title>
<polygon fill="none" stroke="#000000" points="418.5,-117 335.5,-117 335.5,-81 418.5,-81 418.5,-117"/>
<text text-anchor="middle" x="377" y="-97.1" font-family="Arial" font-size="8.00" fill="#000000">imf:ProductAspect</text>
</g>
<!-- http://ns.imfid.org/imf#FunctionAspect&#45;&gt;http://ns.imfid.org/imf#ProductAspect -->
<g id="edge6" class="edge">
<title>http://ns.imfid.org/imf#FunctionAspect&#45;&gt;http://ns.imfid.org/imf#ProductAspect</title>
<path fill="none" stroke="#000000" d="M338.3458,-36.3802C344.9124,-47.018 353.2919,-60.593 360.5694,-72.3824"/>
<polygon fill="#000000" stroke="#000000" points="357.6403,-74.3007 365.8714,-80.9716 363.5969,-70.6238 357.6403,-74.3007"/>
<text text-anchor="middle" x="382" y="-56.6" font-family="Arial" font-size="8.00" fill="#000000">imf:isFulfilledBy</text>
</g>
<!-- http://ns.imfid.org/imf#Aspect -->
<g id="node8" class="node">
<title>http://ns.imfid.org/imf#Aspect</title>
<polygon fill="none" stroke="#000000" points="1546.5,-36 1491.5,-36 1491.5,0 1546.5,0 1546.5,-36"/>
<text text-anchor="middle" x="1519" y="-16.1" font-family="Arial" font-size="8.00" fill="#000000">imf:Aspect</text>
</g>
<!-- http://ns.imfid.org/imf#AspectObject&#45;&gt;http://ns.imfid.org/imf#AspectObject -->
<g id="edge4" class="edge">
<title>http://ns.imfid.org/imf#AspectObject&#45;&gt;http://ns.imfid.org/imf#AspectObject</title>
<path fill="none" stroke="#000000" d="M1004.5057,-91.5774C1014.7644,-92.0336 1022.5,-94.5078 1022.5,-99 1022.5,-101.8076 1019.4783,-103.827 1014.7074,-105.058"/>
<polygon fill="#000000" stroke="#000000" points="1013.9534,-101.6276 1004.5057,-106.4226 1014.8815,-108.5658 1013.9534,-101.6276"/>
<text text-anchor="middle" x="1064.5" y="-97.1" font-family="Arial" font-size="8.00" fill="#000000">imf:interAspectRelation</text>
</g>
<!-- caa5b60a&#45;2746&#45;4bad&#45;bfde&#45;07b8669785bd -->
<g id="node10" class="node">
<title>caa5b60a&#45;2746&#45;4bad&#45;bfde&#45;07b8669785bd</title>
<polygon fill="#e5e5e5" stroke="#000000" stroke-dasharray="5,2" points="1351,-110 1125,-110 1125,-88 1351,-88 1351,-110"/>
<text text-anchor="middle" x="1238" y="-97.1" font-family="Arial" font-size="8.00" fill="#000000">caa5b60a&#45;2746&#45;4bad&#45;bfde&#45;07b8669785bd,owl:Restriction</text>
</g>
<!-- f42d1ccc&#45;231d&#45;4a54&#45;a642&#45;06c48cc521d2 -->
<g id="node11" class="node">
<title>f42d1ccc&#45;231d&#45;4a54&#45;a642&#45;06c48cc521d2</title>
<polygon fill="#e5e5e5" stroke="#000000" stroke-dasharray="5,2" points="1831,-29 1565,-29 1565,-7 1831,-7 1831,-29"/>
<text text-anchor="middle" x="1698" y="-16.1" font-family="Arial" font-size="8.00" fill="#000000">f42d1ccc&#45;231d&#45;4a54&#45;a642&#45;06c48cc521d2,owl:Class, owl:Restriction</text>
</g>
<!-- http://ns.imfid.org/imf#ProductAspectObject -->
<g id="node12" class="node">
<title>http://ns.imfid.org/imf#ProductAspectObject</title>
<polygon fill="none" stroke="#000000" points="1092.5,-36 985.5,-36 985.5,0 1092.5,0 1092.5,-36"/>
<text text-anchor="middle" x="1039" y="-16.1" font-family="Arial" font-size="8.00" fill="#000000">imf:ProductAspectObject</text>
</g>
<!-- http://ns.imfid.org/imf#ProductAspectObject&#45;&gt;http://ns.imfid.org/imf#AspectObject -->
<g id="edge1" class="edge">
<title>http://ns.imfid.org/imf#ProductAspectObject&#45;&gt;http://ns.imfid.org/imf#AspectObject</title>
<path fill="none" stroke="#000000" d="M1022.2083,-36.3802C1012.2039,-47.3309 999.3561,-61.394 988.3713,-73.4179"/>
<polygon fill="none" stroke="#000000" points="985.6313,-71.228 981.4704,-80.9716 990.7993,-75.9494 985.6313,-71.228"/>
</g>
<!-- http://ns.imfid.org/imf#ProductAspectObject&#45;&gt;caa5b60a&#45;2746&#45;4bad&#45;bfde&#45;07b8669785bd -->
<g id="edge11" class="edge">
<title>http://ns.imfid.org/imf#ProductAspectObject&#45;&gt;caa5b60a&#45;2746&#45;4bad&#45;bfde&#45;07b8669785bd</title>
<path fill="none" stroke="#000000" d="M1083.6595,-36.178C1119.2251,-50.6544 1168.3852,-70.6643 1201.5898,-84.1798"/>
<polygon fill="none" stroke="#000000" points="1200.3465,-87.4525 1210.9281,-87.9808 1202.9855,-80.969 1200.3465,-87.4525"/>
</g>
<!-- 18761c61&#45;f903&#45;4848&#45;ba7a&#45;cd3e669d82cb -->
<g id="node14" class="node">
<title>18761c61&#45;f903&#45;4848&#45;ba7a&#45;cd3e669d82cb</title>
<polygon fill="#e5e5e5" stroke="#000000" stroke-dasharray="5,2" points="2115,-29 1849,-29 1849,-7 2115,-7 2115,-29"/>
<text text-anchor="middle" x="1982" y="-16.1" font-family="Arial" font-size="8.00" fill="#000000">18761c61&#45;f903&#45;4848&#45;ba7a&#45;cd3e669d82cb,owl:Class, owl:Restriction</text>
</g>
<!-- 6711a54d&#45;0521&#45;43db&#45;a310&#45;912e532811b6 -->
<g id="node15" class="node">
<title>6711a54d&#45;0521&#45;43db&#45;a310&#45;912e532811b6</title>
<polygon fill="#e5e5e5" stroke="#000000" stroke-dasharray="5,2" points="2399,-29 2133,-29 2133,-7 2399,-7 2399,-29"/>
<text text-anchor="middle" x="2266" y="-16.1" font-family="Arial" font-size="8.00" fill="#000000">6711a54d&#45;0521&#45;43db&#45;a310&#45;912e532811b6,owl:Class, owl:Restriction</text>
</g>
</g>
</svg>

