<?xml version="1.0" encoding="UTF-8" standalone="no"?>
<!DOCTYPE svg PUBLIC "-//W3C//DTD SVG 1.1//EN"
 "http://www.w3.org/Graphics/SVG/1.1/DTD/svg11.dtd">
<!-- Generated by graphviz version 2.40.1 (20161225.0304)
 -->
<!-- Title: urn:temp#graph Pages: 1 -->
<svg width="1576px" height="636px"
 viewBox="0.00 0.00 1576.00 635.50" xmlns="http://www.w3.org/2000/svg" xmlns:xlink="http://www.w3.org/1999/xlink">
<g id="graph0" class="graph" transform="scale(1.0 1.0) rotate(0) translate(4 631.5)">
<title>urn:temp#graph</title>
<polygon fill="#ffffff" stroke="transparent" points="-4,4 -4,-631.5 1572,-631.5 1572,4 -4,4"/>
<!-- http://example.com#Steamer -->
<g id="node1" class="node">
<title>http://example.com#Steamer</title>
<g id="a_node1"><a xlink:href="http://example.com#Steamer" xlink:title="imf:SystemBlock&#10;ex:Steamer">
<polygon fill="#87cefa" stroke="#000000" points="92,-580.5 0,-580.5 0,-550.5 92,-550.5 92,-580.5"/>
<text text-anchor="middle" x="46" y="-568.5" font-family="Arial" font-size="10.00" fill="#000000">imf:SystemBlock</text>
<text text-anchor="middle" x="46" y="-557.5" font-family="Arial" font-size="10.00" fill="#000000">ex:Steamer</text>
</a>
</g>
</g>
<!-- http://example.com#SteamerInput -->
<g id="node13" class="node">
<title>http://example.com#SteamerInput</title>
<g id="a_node13"><a xlink:href="http://example.com#SteamerInput" xlink:title="imf:InputTerminal&#10;ex:SteamerInput">
<polygon fill="#87cefa" stroke="#000000" points="364.5,-627.5 272.5,-627.5 272.5,-597.5 364.5,-597.5 364.5,-627.5"/>
<text text-anchor="middle" x="318.5" y="-615.5" font-family="Arial" font-size="10.00" fill="#000000">imf:InputTerminal</text>
<text text-anchor="middle" x="318.5" y="-604.5" font-family="Arial" font-size="10.00" fill="#000000">ex:SteamerInput</text>
</a>
</g>
</g>
<!-- http://example.com#Steamer&#45;&gt;http://example.com#SteamerInput -->
<g id="edge1" class="edge">
<title>http://example.com#Steamer&#45;&gt;http://example.com#SteamerInput</title>
<path fill="none" stroke="#000000" d="M92.2258,-579.0216C95.8576,-579.9167 99.4803,-580.7562 103,-581.5 156.5806,-592.8232 218.5387,-601.259 262.2295,-606.4488"/>
<polygon fill="#000000" stroke="#000000" points="262.0327,-609.9496 272.3714,-607.6342 262.8454,-602.9969 262.0327,-609.9496"/>
<text text-anchor="middle" x="152.5" y="-600.5" font-family="Arial" font-size="10.00" fill="#000000">imf:hasInputTerminal</text>
</g>
<!-- Steams milk with water steam -->
<g id="node21" class="node">
<title>Steams milk with water steam</title>
<path fill="#fffacd" stroke="#000000" d="M405.6667,-575C405.6667,-575 231.3333,-575 231.3333,-575 228.1667,-575 225,-571.8333 225,-568.6667 225,-568.6667 225,-562.3333 225,-562.3333 225,-559.1667 228.1667,-556 231.3333,-556 231.3333,-556 405.6667,-556 405.6667,-556 408.8333,-556 412,-559.1667 412,-562.3333 412,-562.3333 412,-568.6667 412,-568.6667 412,-571.8333 408.8333,-575 405.6667,-575"/>
<text text-anchor="middle" x="318.5" y="-563" font-family="Times" font-size="10.00" fill="#000000">Steams milk with water steam^^xsd:string</text>
</g>
<!-- http://example.com#Steamer&#45;&gt;Steams milk with water steam -->
<g id="edge25" class="edge">
<title>http://example.com#Steamer&#45;&gt;Steams milk with water steam</title>
<path fill="none" stroke="#000000" d="M92.2259,-565.5C125.7535,-565.5 172.4449,-565.5 214.7111,-565.5"/>
<polygon fill="#000000" stroke="#000000" points="214.7821,-569.0001 224.782,-565.5 214.782,-562.0001 214.7821,-569.0001"/>
<text text-anchor="middle" x="152.5" y="-568.5" font-family="Arial" font-size="10.00" fill="#000000">skos:note</text>
</g>
<!-- http://example.com#CoffeeMachine -->
<g id="node23" class="node">
<title>http://example.com#CoffeeMachine</title>
<g id="a_node23"><a xlink:href="http://example.com#CoffeeMachine" xlink:title="imf:SystemBlock&#10;ex:CoffeeMachine">
<polygon fill="#87cefa" stroke="#000000" points="366,-269.5 271,-269.5 271,-239.5 366,-239.5 366,-269.5"/>
<text text-anchor="middle" x="318.5" y="-257.5" font-family="Arial" font-size="10.00" fill="#000000">imf:SystemBlock</text>
<text text-anchor="middle" x="318.5" y="-246.5" font-family="Arial" font-size="10.00" fill="#000000">ex:CoffeeMachine</text>
</a>
</g>
</g>
<!-- http://example.com#Steamer&#45;&gt;http://example.com#CoffeeMachine -->
<g id="edge19" class="edge">
<title>http://example.com#Steamer&#45;&gt;http://example.com#CoffeeMachine</title>
<path fill="none" stroke="#000000" d="M57.3695,-550.3121C68.3686,-534.7024 84.4498,-509.2491 92,-484.5 101.4292,-453.5915 82.1926,-364.2245 103,-339.5 132.2208,-304.7782 159.5514,-330.5492 202,-314.5 230.8032,-303.6099 261.7155,-287.4629 284.455,-274.662"/>
<polygon fill="#000000" stroke="#000000" points="286.4079,-277.5775 293.3617,-269.584 282.9409,-271.4964 286.4079,-277.5775"/>
<text text-anchor="middle" x="152.5" y="-342.5" font-family="Arial" font-size="10.00" fill="#000000">imf:isPartOf</text>
</g>
<!-- http://example.com#WaterHeaterInput -->
<g id="node2" class="node">
<title>http://example.com#WaterHeaterInput</title>
<g id="a_node2"><a xlink:href="http://example.com#WaterHeaterInput" xlink:title="imf:InputTerminal&#10;ex:WaterHeaterInput">
<polygon fill="#87cefa" stroke="#000000" points="371.5,-123.5 265.5,-123.5 265.5,-93.5 371.5,-93.5 371.5,-123.5"/>
<text text-anchor="middle" x="318.5" y="-111.5" font-family="Arial" font-size="10.00" fill="#000000">imf:InputTerminal</text>
<text text-anchor="middle" x="318.5" y="-100.5" font-family="Arial" font-size="10.00" fill="#000000">ex:WaterHeaterInput</text>
</a>
</g>
</g>
<!-- http://example.com#Grinder -->
<g id="node3" class="node">
<title>http://example.com#Grinder</title>
<g id="a_node3"><a xlink:href="http://example.com#Grinder" xlink:title="imf:SystemBlock&#10;ex:Grinder">
<polygon fill="#87cefa" stroke="#000000" points="92,-473.5 0,-473.5 0,-443.5 92,-443.5 92,-473.5"/>
<text text-anchor="middle" x="46" y="-461.5" font-family="Arial" font-size="10.00" fill="#000000">imf:SystemBlock</text>
<text text-anchor="middle" x="46" y="-450.5" font-family="Arial" font-size="10.00" fill="#000000">ex:Grinder</text>
</a>
</g>
</g>
<!-- Grinds coffee beans -->
<g id="node9" class="node">
<title>Grinds coffee beans</title>
<path fill="#fffacd" stroke="#000000" d="M385.1667,-534C385.1667,-534 251.8333,-534 251.8333,-534 248.6667,-534 245.5,-530.8333 245.5,-527.6667 245.5,-527.6667 245.5,-521.3333 245.5,-521.3333 245.5,-518.1667 248.6667,-515 251.8333,-515 251.8333,-515 385.1667,-515 385.1667,-515 388.3333,-515 391.5,-518.1667 391.5,-521.3333 391.5,-521.3333 391.5,-527.6667 391.5,-527.6667 391.5,-530.8333 388.3333,-534 385.1667,-534"/>
<text text-anchor="middle" x="318.5" y="-522" font-family="Times" font-size="10.00" fill="#000000">Grinds coffee beans^^xsd:string</text>
</g>
<!-- http://example.com#Grinder&#45;&gt;Grinds coffee beans -->
<g id="edge28" class="edge">
<title>http://example.com#Grinder&#45;&gt;Grinds coffee beans</title>
<path fill="none" stroke="#000000" d="M75.3371,-473.5377C84.0667,-477.556 93.7687,-481.5863 103,-484.5 145.6521,-497.9624 194.5667,-507.4949 235.0018,-513.8683"/>
<polygon fill="#000000" stroke="#000000" points="234.6742,-517.359 245.0903,-515.421 235.7391,-510.4405 234.6742,-517.359"/>
<text text-anchor="middle" x="152.5" y="-509.5" font-family="Arial" font-size="10.00" fill="#000000">skos:note</text>
</g>
<!-- http://example.com#GrinderInput -->
<g id="node15" class="node">
<title>http://example.com#GrinderInput</title>
<g id="a_node15"><a xlink:href="http://example.com#GrinderInput" xlink:title="imf:InputTerminal&#10;ex:GrinderInput">
<polygon fill="#87cefa" stroke="#000000" points="364.5,-440.5 272.5,-440.5 272.5,-410.5 364.5,-410.5 364.5,-440.5"/>
<text text-anchor="middle" x="318.5" y="-428.5" font-family="Arial" font-size="10.00" fill="#000000">imf:InputTerminal</text>
<text text-anchor="middle" x="318.5" y="-417.5" font-family="Arial" font-size="10.00" fill="#000000">ex:GrinderInput</text>
</a>
</g>
</g>
<!-- http://example.com#Grinder&#45;&gt;http://example.com#GrinderInput -->
<g id="edge11" class="edge">
<title>http://example.com#Grinder&#45;&gt;http://example.com#GrinderInput</title>
<path fill="none" stroke="#000000" d="M92.2732,-448.3123C95.8942,-447.6515 99.5015,-447.037 103,-446.5 156.8322,-438.2363 218.7571,-432.6 262.3717,-429.264"/>
<polygon fill="#000000" stroke="#000000" points="262.784,-432.743 272.4946,-428.5058 262.2611,-425.7625 262.784,-432.743"/>
<text text-anchor="middle" x="152.5" y="-449.5" font-family="Arial" font-size="10.00" fill="#000000">imf:hasInputTerminal</text>
</g>
<!-- http://example.com#GrinderOutput -->
<g id="node22" class="node">
<title>http://example.com#GrinderOutput</title>
<g id="a_node22"><a xlink:href="http://example.com#GrinderOutput" xlink:title="imf:OutputTerminal&#10;ex:GrinderOutput">
<polygon fill="#87cefa" stroke="#000000" points="368,-492.5 269,-492.5 269,-462.5 368,-462.5 368,-492.5"/>
<text text-anchor="middle" x="318.5" y="-480.5" font-family="Arial" font-size="10.00" fill="#000000">imf:OutputTerminal</text>
<text text-anchor="middle" x="318.5" y="-469.5" font-family="Arial" font-size="10.00" fill="#000000">ex:GrinderOutput</text>
</a>
</g>
</g>
<!-- http://example.com#Grinder&#45;&gt;http://example.com#GrinderOutput -->
<g id="edge24" class="edge">
<title>http://example.com#Grinder&#45;&gt;http://example.com#GrinderOutput</title>
<path fill="none" stroke="#000000" d="M92.2259,-461.7231C138.1112,-464.9224 208.6526,-469.8409 258.7628,-473.3348"/>
<polygon fill="#000000" stroke="#000000" points="258.5946,-476.8315 268.8139,-474.0356 259.0816,-469.8485 258.5946,-476.8315"/>
<text text-anchor="middle" x="152.5" y="-471.5" font-family="Arial" font-size="10.00" fill="#000000">imf:hasOutputTerminal</text>
</g>
<!-- http://example.com#Grinder&#45;&gt;http://example.com#CoffeeMachine -->
<g id="edge6" class="edge">
<title>http://example.com#Grinder&#45;&gt;http://example.com#CoffeeMachine</title>
<path fill="none" stroke="#000000" d="M53.157,-443.3374C62.9216,-422.2202 80.515,-382.5907 92,-347.5 98.4043,-327.9325 88.2924,-316.9079 103,-302.5 108.7224,-296.8942 198.8882,-278.1371 260.7574,-265.7978"/>
<polygon fill="#000000" stroke="#000000" points="261.682,-269.1826 270.8077,-263.8 260.3172,-262.3169 261.682,-269.1826"/>
<text text-anchor="middle" x="152.5" y="-305.5" font-family="Arial" font-size="10.00" fill="#000000">imf:isPartOf</text>
</g>
<!-- http://example.com#WaterHeater -->
<g id="node4" class="node">
<title>http://example.com#WaterHeater</title>
<g id="a_node4"><a xlink:href="http://example.com#WaterHeater" xlink:title="imf:SystemBlock&#10;ex:WaterHeater">
<polygon fill="#87cefa" stroke="#000000" points="92,-165.5 0,-165.5 0,-135.5 92,-135.5 92,-165.5"/>
<text text-anchor="middle" x="46" y="-153.5" font-family="Arial" font-size="10.00" fill="#000000">imf:SystemBlock</text>
<text text-anchor="middle" x="46" y="-142.5" font-family="Arial" font-size="10.00" fill="#000000">ex:WaterHeater</text>
</a>
</g>
</g>
<!-- http://example.com#WaterHeater&#45;&gt;http://example.com#WaterHeaterInput -->
<g id="edge13" class="edge">
<title>http://example.com#WaterHeater&#45;&gt;http://example.com#WaterHeaterInput</title>
<path fill="none" stroke="#000000" d="M92.2074,-136.8886C95.8434,-136.0139 99.4721,-135.2036 103,-134.5 153.8074,-124.3666 212.1945,-117.6187 255.3676,-113.5425"/>
<polygon fill="#000000" stroke="#000000" points="255.8095,-117.0167 265.4459,-112.6133 255.1668,-110.0462 255.8095,-117.0167"/>
<text text-anchor="middle" x="152.5" y="-137.5" font-family="Arial" font-size="10.00" fill="#000000">imf:hasInputTerminal</text>
</g>
<!-- Heats water -->
<g id="node19" class="node">
<title>Heats water</title>
<path fill="#fffacd" stroke="#000000" d="M369.1667,-165C369.1667,-165 267.8333,-165 267.8333,-165 264.6667,-165 261.5,-161.8333 261.5,-158.6667 261.5,-158.6667 261.5,-152.3333 261.5,-152.3333 261.5,-149.1667 264.6667,-146 267.8333,-146 267.8333,-146 369.1667,-146 369.1667,-146 372.3333,-146 375.5,-149.1667 375.5,-152.3333 375.5,-152.3333 375.5,-158.6667 375.5,-158.6667 375.5,-161.8333 372.3333,-165 369.1667,-165"/>
<text text-anchor="middle" x="318.5" y="-153" font-family="Times" font-size="10.00" fill="#000000">Heats water^^xsd:string</text>
</g>
<!-- http://example.com#WaterHeater&#45;&gt;Heats water -->
<g id="edge20" class="edge">
<title>http://example.com#WaterHeater&#45;&gt;Heats water</title>
<path fill="none" stroke="#000000" d="M92.081,-149.9818C123.1425,-149.7599 165.0398,-149.7072 202,-150.5 217.8557,-150.8401 234.9169,-151.4403 250.961,-152.1095"/>
<polygon fill="#000000" stroke="#000000" points="251.1929,-155.6227 261.3345,-152.5572 251.4947,-148.6292 251.1929,-155.6227"/>
<text text-anchor="middle" x="152.5" y="-153.5" font-family="Arial" font-size="10.00" fill="#000000">skos:note</text>
</g>
<!-- http://example.com#WaterHeater&#45;&gt;http://example.com#CoffeeMachine -->
<g id="edge12" class="edge">
<title>http://example.com#WaterHeater&#45;&gt;http://example.com#CoffeeMachine</title>
<path fill="none" stroke="#000000" d="M59.5436,-165.7836C70.2745,-176.9794 86.2111,-191.6997 103,-200.5 117.0475,-207.8633 202.008,-228.0572 260.9566,-241.5542"/>
<polygon fill="#000000" stroke="#000000" points="260.3793,-245.0124 270.9074,-243.8257 261.9371,-238.1879 260.3793,-245.0124"/>
<text text-anchor="middle" x="152.5" y="-230.5" font-family="Arial" font-size="10.00" fill="#000000">imf:isPartOf</text>
</g>
<!-- http://example.com#WaterTank -->
<g id="node5" class="node">
<title>http://example.com#WaterTank</title>
<g id="a_node5"><a xlink:href="http://example.com#WaterTank" xlink:title="imf:SystemBlock&#10;ex:WaterTank">
<polygon fill="#87cefa" stroke="#000000" points="92,-71.5 0,-71.5 0,-41.5 92,-41.5 92,-71.5"/>
<text text-anchor="middle" x="46" y="-59.5" font-family="Arial" font-size="10.00" fill="#000000">imf:SystemBlock</text>
<text text-anchor="middle" x="46" y="-48.5" font-family="Arial" font-size="10.00" fill="#000000">ex:WaterTank</text>
</a>
</g>
</g>
<!-- http://example.com#WaterTankOutput -->
<g id="node14" class="node">
<title>http://example.com#WaterTankOutput</title>
<g id="a_node14"><a xlink:href="http://example.com#WaterTankOutput" xlink:title="imf:OutputTerminal&#10;ex:WaterTankOutput">
<polygon fill="#87cefa" stroke="#000000" points="371.5,-71.5 265.5,-71.5 265.5,-41.5 371.5,-41.5 371.5,-71.5"/>
<text text-anchor="middle" x="318.5" y="-59.5" font-family="Arial" font-size="10.00" fill="#000000">imf:OutputTerminal</text>
<text text-anchor="middle" x="318.5" y="-48.5" font-family="Arial" font-size="10.00" fill="#000000">ex:WaterTankOutput</text>
</a>
</g>
</g>
<!-- http://example.com#WaterTank&#45;&gt;http://example.com#WaterTankOutput -->
<g id="edge5" class="edge">
<title>http://example.com#WaterTank&#45;&gt;http://example.com#WaterTankOutput</title>
<path fill="none" stroke="#000000" d="M92.2259,-56.5C136.9747,-56.5 205.1734,-56.5 255.0025,-56.5"/>
<polygon fill="#000000" stroke="#000000" points="255.026,-60.0001 265.026,-56.5 255.0259,-53.0001 255.026,-60.0001"/>
<text text-anchor="middle" x="152.5" y="-59.5" font-family="Arial" font-size="10.00" fill="#000000">imf:hasOutputTerminal</text>
</g>
<!-- Stores water -->
<g id="node16" class="node">
<title>Stores water</title>
<path fill="#fffacd" stroke="#000000" d="M370.1667,-19C370.1667,-19 266.8333,-19 266.8333,-19 263.6667,-19 260.5,-15.8333 260.5,-12.6667 260.5,-12.6667 260.5,-6.3333 260.5,-6.3333 260.5,-3.1667 263.6667,0 266.8333,0 266.8333,0 370.1667,0 370.1667,0 373.3333,0 376.5,-3.1667 376.5,-6.3333 376.5,-6.3333 376.5,-12.6667 376.5,-12.6667 376.5,-15.8333 373.3333,-19 370.1667,-19"/>
<text text-anchor="middle" x="318.5" y="-7" font-family="Times" font-size="10.00" fill="#000000">Stores water^^xsd:string</text>
</g>
<!-- http://example.com#WaterTank&#45;&gt;Stores water -->
<g id="edge15" class="edge">
<title>http://example.com#WaterTank&#45;&gt;Stores water</title>
<path fill="none" stroke="#000000" d="M92.2258,-42.9784C95.8576,-42.0833 99.4803,-41.2438 103,-40.5 151.7875,-30.1898 207.5206,-22.2734 250.0847,-17.0216"/>
<polygon fill="#000000" stroke="#000000" points="250.5524,-20.4906 260.0573,-15.8101 249.7082,-13.5417 250.5524,-20.4906"/>
<text text-anchor="middle" x="152.5" y="-43.5" font-family="Arial" font-size="10.00" fill="#000000">skos:note</text>
</g>
<!-- http://example.com#WaterTank&#45;&gt;http://example.com#CoffeeMachine -->
<g id="edge21" class="edge">
<title>http://example.com#WaterTank&#45;&gt;http://example.com#CoffeeMachine</title>
<path fill="none" stroke="#000000" d="M58.2581,-71.5993C68.5037,-84.8555 82.8667,-105.012 92,-124.5 99.4614,-140.4205 90.3554,-150.2832 103,-162.5 135.6368,-194.0324 159.9345,-170.472 202,-187.5 232.7394,-199.9432 265.257,-219.2223 288.1027,-233.911"/>
<polygon fill="#000000" stroke="#000000" points="286.3739,-236.962 296.6625,-239.4911 290.1967,-231.098 286.3739,-236.962"/>
<text text-anchor="middle" x="152.5" y="-190.5" font-family="Arial" font-size="10.00" fill="#000000">imf:isPartOf</text>
</g>
<!-- http://ns.imfid.org/imf#Function -->
<g id="node6" class="node">
<title>http://ns.imfid.org/imf#Function</title>
<g id="a_node6"><a xlink:href="http://ns.imfid.org/imf#Function" xlink:title="imf:Function">
<polygon fill="#87cefa" stroke="#000000" points="743.5,-176 672.5,-176 672.5,-157 743.5,-157 743.5,-176"/>
<text text-anchor="middle" x="708" y="-164" font-family="Arial" font-size="10.00" fill="#000000">imf:Function</text>
</a>
</g>
</g>
<!-- http://example.com#MilkInput -->
<g id="node7" class="node">
<title>http://example.com#MilkInput</title>
<g id="a_node7"><a xlink:href="http://example.com#MilkInput" xlink:title="imf:InputTerminal&#10;ex:MilkInput">
<polygon fill="#87cefa" stroke="#000000" points="985.5,-182.5 893.5,-182.5 893.5,-152.5 985.5,-152.5 985.5,-182.5"/>
<text text-anchor="middle" x="939.5" y="-170.5" font-family="Arial" font-size="10.00" fill="#000000">imf:InputTerminal</text>
<text text-anchor="middle" x="939.5" y="-159.5" font-family="Arial" font-size="10.00" fill="#000000">ex:MilkInput</text>
</a>
</g>
</g>
<!-- http://example.com#CupTray -->
<g id="node18" class="node">
<title>http://example.com#CupTray</title>
<g id="a_node18"><a xlink:href="http://example.com#CupTray" xlink:title="imf:OutputTerminal&#10;ex:CupTray">
<polygon fill="#87cefa" stroke="#000000" points="1303,-358.5 1204,-358.5 1204,-328.5 1303,-328.5 1303,-358.5"/>
<text text-anchor="middle" x="1253.5" y="-346.5" font-family="Arial" font-size="10.00" fill="#000000">imf:OutputTerminal</text>
<text text-anchor="middle" x="1253.5" y="-335.5" font-family="Arial" font-size="10.00" fill="#000000">ex:CupTray</text>
</a>
</g>
</g>
<!-- http://example.com#MilkInput&#45;&gt;http://example.com#CupTray -->
<g id="edge29" class="edge">
<title>http://example.com#MilkInput&#45;&gt;http://example.com#CupTray</title>
<path fill="none" stroke="#000000" d="M966.2715,-182.5057C1022.6727,-214.1191 1153.7529,-287.5908 1217.4571,-323.2976"/>
<polygon fill="#000000" stroke="#000000" points="1215.9158,-326.446 1226.3503,-328.2823 1219.3384,-320.3398 1215.9158,-326.446"/>
<text text-anchor="middle" x="1046" y="-254.5" font-family="Arial" font-size="10.00" fill="#000000">imf:directlyPrecedes</text>
</g>
<!-- Landing area for produced coffee -->
<g id="node8" class="node">
<title>Landing area for produced coffee</title>
<path fill="#fffacd" stroke="#000000" d="M1561.6667,-353C1561.6667,-353 1374.3333,-353 1374.3333,-353 1371.1667,-353 1368,-349.8333 1368,-346.6667 1368,-346.6667 1368,-340.3333 1368,-340.3333 1368,-337.1667 1371.1667,-334 1374.3333,-334 1374.3333,-334 1561.6667,-334 1561.6667,-334 1564.8333,-334 1568,-337.1667 1568,-340.3333 1568,-340.3333 1568,-346.6667 1568,-346.6667 1568,-349.8333 1564.8333,-353 1561.6667,-353"/>
<text text-anchor="middle" x="1468" y="-341" font-family="Times" font-size="10.00" fill="#000000">Landing area for produced coffee^^xsd:string</text>
</g>
<!-- Coffee machine -->
<g id="node10" class="node">
<title>Coffee machine</title>
<path fill="#fffacd" stroke="#000000" d="M766.6667,-217C766.6667,-217 649.3333,-217 649.3333,-217 646.1667,-217 643,-213.8333 643,-210.6667 643,-210.6667 643,-204.3333 643,-204.3333 643,-201.1667 646.1667,-198 649.3333,-198 649.3333,-198 766.6667,-198 766.6667,-198 769.8333,-198 773,-201.1667 773,-204.3333 773,-204.3333 773,-210.6667 773,-210.6667 773,-213.8333 769.8333,-217 766.6667,-217"/>
<text text-anchor="middle" x="708" y="-205" font-family="Times" font-size="10.00" fill="#000000">Coffee machine^^xsd:string</text>
</g>
<!-- http://example.com#Mixer -->
<g id="node11" class="node">
<title>http://example.com#Mixer</title>
<g id="a_node11"><a xlink:href="http://example.com#Mixer" xlink:title="imf:SystemBlock&#10;ex:Mixer">
<polygon fill="#87cefa" stroke="#000000" points="92,-336.5 0,-336.5 0,-306.5 92,-306.5 92,-336.5"/>
<text text-anchor="middle" x="46" y="-324.5" font-family="Arial" font-size="10.00" fill="#000000">imf:SystemBlock</text>
<text text-anchor="middle" x="46" y="-313.5" font-family="Arial" font-size="10.00" fill="#000000">ex:Mixer</text>
</a>
</g>
</g>
<!-- Mixes coffee and milk to perfection -->
<g id="node17" class="node">
<title>Mixes coffee and milk to perfection</title>
<path fill="#fffacd" stroke="#000000" d="M417.6667,-388C417.6667,-388 219.3333,-388 219.3333,-388 216.1667,-388 213,-384.8333 213,-381.6667 213,-381.6667 213,-375.3333 213,-375.3333 213,-372.1667 216.1667,-369 219.3333,-369 219.3333,-369 417.6667,-369 417.6667,-369 420.8333,-369 424,-372.1667 424,-375.3333 424,-375.3333 424,-381.6667 424,-381.6667 424,-384.8333 420.8333,-388 417.6667,-388"/>
<text text-anchor="middle" x="318.5" y="-376" font-family="Times" font-size="10.00" fill="#000000">Mixes coffee and milk to perfection^^xsd:string</text>
</g>
<!-- http://example.com#Mixer&#45;&gt;Mixes coffee and milk to perfection -->
<g id="edge2" class="edge">
<title>http://example.com#Mixer&#45;&gt;Mixes coffee and milk to perfection</title>
<path fill="none" stroke="#000000" d="M68.9542,-336.57C79.0122,-342.477 91.1961,-348.7307 103,-352.5 134.6385,-362.603 170.034,-368.8313 202.8498,-372.6553"/>
<polygon fill="#000000" stroke="#000000" points="202.6212,-376.1512 212.9441,-373.7665 203.3872,-369.1932 202.6212,-376.1512"/>
<text text-anchor="middle" x="152.5" y="-375.5" font-family="Arial" font-size="10.00" fill="#000000">skos:note</text>
</g>
<!-- http://example.com#Mixer&#45;&gt;http://example.com#CoffeeMachine -->
<g id="edge23" class="edge">
<title>http://example.com#Mixer&#45;&gt;http://example.com#CoffeeMachine</title>
<path fill="none" stroke="#000000" d="M56.1556,-306.2399C66.2314,-292.5569 83.029,-273.3201 103,-264.5 152.9025,-242.4608 215.7809,-242.2634 260.7153,-246.1879"/>
<polygon fill="#000000" stroke="#000000" points="260.5837,-249.6914 270.8746,-247.1717 261.2585,-242.724 260.5837,-249.6914"/>
<text text-anchor="middle" x="152.5" y="-267.5" font-family="Arial" font-size="10.00" fill="#000000">imf:isPartOf</text>
</g>
<!-- Makes different variants of espresso based coffee possibly with milk -->
<g id="node12" class="node">
<title>Makes different variants of espresso based coffee possibly with milk</title>
<path fill="#fffacd" stroke="#000000" d="M872.6667,-88C872.6667,-88 543.3333,-88 543.3333,-88 540.1667,-88 537,-84.8333 537,-81.6667 537,-81.6667 537,-75.3333 537,-75.3333 537,-72.1667 540.1667,-69 543.3333,-69 543.3333,-69 872.6667,-69 872.6667,-69 875.8333,-69 879,-72.1667 879,-75.3333 879,-75.3333 879,-81.6667 879,-81.6667 879,-84.8333 875.8333,-88 872.6667,-88"/>
<text text-anchor="middle" x="708" y="-76" font-family="Times" font-size="10.00" fill="#000000">Makes different variants of espresso based coffee possibly with milk^^xsd:string</text>
</g>
<!-- http://example.com#CoffeeInput -->
<g id="node20" class="node">
<title>http://example.com#CoffeeInput</title>
<g id="a_node20"><a xlink:href="http://example.com#CoffeeInput" xlink:title="imf:InputTerminal&#10;ex:CoffeeInput">
<polygon fill="#87cefa" stroke="#000000" points="754,-429.5 662,-429.5 662,-399.5 754,-399.5 754,-429.5"/>
<text text-anchor="middle" x="708" y="-417.5" font-family="Arial" font-size="10.00" fill="#000000">imf:InputTerminal</text>
<text text-anchor="middle" x="708" y="-406.5" font-family="Arial" font-size="10.00" fill="#000000">ex:CoffeeInput</text>
</a>
</g>
</g>
<!-- http://example.com#GrinderInput&#45;&gt;http://example.com#CoffeeInput -->
<g id="edge27" class="edge">
<title>http://example.com#GrinderInput&#45;&gt;http://example.com#CoffeeInput</title>
<path fill="none" stroke="#000000" d="M364.7103,-424.195C436.452,-422.1689 574.4047,-418.2729 651.8025,-416.0871"/>
<polygon fill="#000000" stroke="#000000" points="651.9527,-419.5843 661.8498,-415.8033 651.755,-412.5871 651.9527,-419.5843"/>
<text text-anchor="middle" x="480.5" y="-424.5" font-family="Arial" font-size="10.00" fill="#000000">imf:isPartOf</text>
</g>
<!-- http://example.com#CupTray&#45;&gt;Landing area for produced coffee -->
<g id="edge7" class="edge">
<title>http://example.com#CupTray&#45;&gt;Landing area for produced coffee</title>
<path fill="none" stroke="#000000" d="M1303.2498,-343.5C1319.6152,-343.5 1338.5166,-343.5 1357.5525,-343.5"/>
<polygon fill="#000000" stroke="#000000" points="1357.8152,-347.0001 1367.8152,-343.5 1357.8151,-340.0001 1357.8152,-347.0001"/>
<text text-anchor="middle" x="1335.5" y="-346.5" font-family="Arial" font-size="10.00" fill="#000000">skos:note</text>
</g>
<!-- http://example.com#CoffeeInput&#45;&gt;http://example.com#CupTray -->
<g id="edge10" class="edge">
<title>http://example.com#CoffeeInput&#45;&gt;http://example.com#CupTray</title>
<path fill="none" stroke="#000000" d="M754.2416,-416.8965C841.8199,-420.1096 1037.0775,-420.9073 1193,-375.5 1202.6525,-372.689 1212.5332,-368.2407 1221.437,-363.5443"/>
<polygon fill="#000000" stroke="#000000" points="1223.2665,-366.5319 1230.3114,-358.6186 1219.8693,-360.4114 1223.2665,-366.5319"/>
<text text-anchor="middle" x="1046" y="-412.5" font-family="Arial" font-size="10.00" fill="#000000">imf:directlyPrecedes</text>
</g>
<!-- http://example.com#CoffeeMachine&#45;&gt;http://ns.imfid.org/imf#Function -->
<g id="edge14" class="edge">
<title>http://example.com#CoffeeMachine&#45;&gt;http://ns.imfid.org/imf#Function</title>
<path fill="none" stroke="#000000" d="M357.2831,-239.4566C379.7939,-230.9928 408.7942,-220.5433 435,-212.5 479.7238,-198.7731 490.9983,-195.014 537,-186.5 579.0838,-178.7111 627.5871,-173.3784 662.163,-170.1909"/>
<polygon fill="#000000" stroke="#000000" points="662.7766,-173.65 672.4237,-169.2703 662.1509,-166.678 662.7766,-173.65"/>
<text text-anchor="middle" x="480.5" y="-215.5" font-family="Arial" font-size="10.00" fill="#000000">imf:hasAspect</text>
</g>
<!-- http://example.com#CoffeeMachine&#45;&gt;http://example.com#MilkInput -->
<g id="edge8" class="edge">
<title>http://example.com#CoffeeMachine&#45;&gt;http://example.com#MilkInput</title>
<path fill="none" stroke="#000000" d="M336.2676,-239.2281C358.1422,-221.146 397.0706,-191.2514 435,-173.5 477.578,-153.573 490.4108,-151.7785 537,-145.5 687.6383,-125.1996 729.3053,-119.1275 879,-145.5 884.1646,-146.4099 889.4685,-147.7253 894.6871,-149.267"/>
<polygon fill="#000000" stroke="#000000" points="893.9666,-152.7126 904.5585,-152.4637 896.1231,-146.0531 893.9666,-152.7126"/>
<text text-anchor="middle" x="480.5" y="-176.5" font-family="Arial" font-size="10.00" fill="#000000">imf:hasInputTerminal</text>
</g>
<!-- http://example.com#CoffeeMachine&#45;&gt;Coffee machine -->
<g id="edge9" class="edge">
<title>http://example.com#CoffeeMachine&#45;&gt;Coffee machine</title>
<path fill="none" stroke="#000000" d="M366.0794,-247.709C387.1776,-244.7639 412.3124,-241.3457 435,-238.5 501.8345,-230.117 578.0018,-221.5499 632.8701,-215.5525"/>
<polygon fill="#000000" stroke="#000000" points="633.2987,-219.0266 642.8603,-214.4632 632.5398,-212.0678 633.2987,-219.0266"/>
<text text-anchor="middle" x="480.5" y="-241.5" font-family="Arial" font-size="10.00" fill="#000000">skos:prefLabel</text>
</g>
<!-- http://example.com#CoffeeMachine&#45;&gt;Makes different variants of espresso based coffee possibly with milk -->
<g id="edge4" class="edge">
<title>http://example.com#CoffeeMachine&#45;&gt;Makes different variants of espresso based coffee possibly with milk</title>
<path fill="none" stroke="#000000" d="M350.935,-239.297C375.3163,-226.0503 407.2795,-204.4222 424,-175.5 434.1949,-157.8654 419.9062,-98.1782 435,-84.5 499.7869,-25.7892 612.9138,-48.5569 671.1064,-65.8771"/>
<polygon fill="#000000" stroke="#000000" points="670.3844,-69.317 680.9718,-68.9191 672.4471,-62.6278 670.3844,-69.317"/>
<text text-anchor="middle" x="480.5" y="-87.5" font-family="Arial" font-size="10.00" fill="#000000">skos:note</text>
</g>
<!-- http://example.com#CoffeeMachine&#45;&gt;http://example.com#CupTray -->
<g id="edge3" class="edge">
<title>http://example.com#CoffeeMachine&#45;&gt;http://example.com#CupTray</title>
<path fill="none" stroke="#000000" d="M358.0429,-269.5883C401.2613,-285.2451 472.9079,-308.7758 537,-318.5 778.185,-355.0932 1070.0312,-350.3089 1193.6033,-346.0552"/>
<polygon fill="#000000" stroke="#000000" points="1193.7521,-349.5522 1203.6212,-345.6986 1193.503,-342.5566 1193.7521,-349.5522"/>
<text text-anchor="middle" x="939.5" y="-351.5" font-family="Arial" font-size="10.00" fill="#000000">imf:hasOutputTerminal</text>
</g>
<!-- http://example.com#CoffeeMachine&#45;&gt;http://example.com#CoffeeInput -->
<g id="edge26" class="edge">
<title>http://example.com#CoffeeMachine&#45;&gt;http://example.com#CoffeeInput</title>
<path fill="none" stroke="#000000" d="M334.6755,-269.5725C355.7743,-289.4273 393.5807,-325.6769 424,-358.5 429.1447,-364.0512 428.4034,-367.7894 435,-371.5 471.0972,-391.8044 582.6611,-404.2787 651.4913,-410.2498"/>
<polygon fill="#000000" stroke="#000000" points="651.4778,-413.7611 661.7376,-411.1181 652.0689,-406.7861 651.4778,-413.7611"/>
<text text-anchor="middle" x="480.5" y="-397.5" font-family="Arial" font-size="10.00" fill="#000000">imf:hasInputTerminal</text>
</g>
<!-- http://example.com#WaterInput -->
<g id="node24" class="node">
<title>http://example.com#WaterInput</title>
<g id="a_node24"><a xlink:href="http://example.com#WaterInput" xlink:title="imf:InputTerminal&#10;ex:WaterInput">
<polygon fill="#87cefa" stroke="#000000" points="1092,-324.5 1000,-324.5 1000,-294.5 1092,-294.5 1092,-324.5"/>
<text text-anchor="middle" x="1046" y="-312.5" font-family="Arial" font-size="10.00" fill="#000000">imf:InputTerminal</text>
<text text-anchor="middle" x="1046" y="-301.5" font-family="Arial" font-size="10.00" fill="#000000">ex:WaterInput</text>
</a>
</g>
</g>
<!-- http://example.com#CoffeeMachine&#45;&gt;http://example.com#WaterInput -->
<g id="edge16" class="edge">
<title>http://example.com#CoffeeMachine&#45;&gt;http://example.com#WaterInput</title>
<path fill="none" stroke="#000000" d="M366.0594,-261.4563C387.1538,-264.432 412.2912,-267.8284 435,-270.5 638.5081,-294.4416 882.0021,-304.441 989.8522,-307.9197"/>
<polygon fill="#000000" stroke="#000000" points="989.7543,-311.4183 999.86,-308.2363 989.9757,-304.4218 989.7543,-311.4183"/>
<text text-anchor="middle" x="708" y="-305.5" font-family="Arial" font-size="10.00" fill="#000000">imf:hasInputTerminal</text>
</g>
<!-- http://example.com#WaterTankInput -->
<g id="node25" class="node">
<title>http://example.com#WaterTankInput</title>
<g id="a_node25"><a xlink:href="http://example.com#WaterTankInput" xlink:title="imf:InputTerminal&#10;ex:WaterTankInput">
<polygon fill="#87cefa" stroke="#000000" points="757,-269.5 659,-269.5 659,-239.5 757,-239.5 757,-269.5"/>
<text text-anchor="middle" x="708" y="-257.5" font-family="Arial" font-size="10.00" fill="#000000">imf:InputTerminal</text>
<text text-anchor="middle" x="708" y="-246.5" font-family="Arial" font-size="10.00" fill="#000000">ex:WaterTankInput</text>
</a>
</g>
</g>
<!-- http://example.com#CoffeeMachine&#45;&gt;http://example.com#WaterTankInput -->
<g id="edge18" class="edge">
<title>http://example.com#CoffeeMachine&#45;&gt;http://example.com#WaterTankInput</title>
<path fill="none" stroke="#000000" d="M366.2603,-254.5C437.5121,-254.5 571.5221,-254.5 648.8645,-254.5"/>
<polygon fill="#000000" stroke="#000000" points="648.9285,-258.0001 658.9285,-254.5 648.9285,-251.0001 648.9285,-258.0001"/>
<text text-anchor="middle" x="480.5" y="-257.5" font-family="Arial" font-size="10.00" fill="#000000">imf:hasInputTerminal</text>
</g>
<!-- http://example.com#WaterInput&#45;&gt;http://example.com#CupTray -->
<g id="edge22" class="edge">
<title>http://example.com#WaterInput&#45;&gt;http://example.com#CupTray</title>
<path fill="none" stroke="#000000" d="M1092.1481,-315.2525C1121.1767,-319.0785 1159.3739,-324.493 1193,-330.5 1193.2181,-330.539 1193.4367,-330.5781 1193.6556,-330.6175"/>
<polygon fill="#000000" stroke="#000000" points="1193.2261,-334.0982 1203.7015,-332.5116 1194.5231,-327.2194 1193.2261,-334.0982"/>
<text text-anchor="middle" x="1148" y="-333.5" font-family="Arial" font-size="10.00" fill="#000000">imf:directlyPrecedes</text>
</g>
<!-- http://example.com#WaterTankInput&#45;&gt;http://example.com#WaterInput -->
<g id="edge17" class="edge">
<title>http://example.com#WaterTankInput&#45;&gt;http://example.com#WaterInput</title>
<path fill="none" stroke="#000000" d="M757.0005,-255.6409C813.6886,-257.935 909.4317,-264.8266 989,-285.5 994.326,-286.8838 999.804,-288.6754 1005.1596,-290.6561"/>
<polygon fill="#000000" stroke="#000000" points="1004.0215,-293.9695 1014.6084,-294.3783 1006.5872,-287.4566 1004.0215,-293.9695"/>
<text text-anchor="middle" x="939.5" y="-288.5" font-family="Arial" font-size="10.00" fill="#000000">imf:isPartOf</text>
</g>
</g>
</svg>

