<?xml version="1.0" encoding="UTF-8" standalone="no"?>
<!DOCTYPE svg PUBLIC "-//W3C//DTD SVG 1.1//EN"
 "http://www.w3.org/Graphics/SVG/1.1/DTD/svg11.dtd">
<!-- Generated by graphviz version 2.40.1 (20161225.0304)
 -->
<!-- Title: urn:temp#graph Pages: 1 -->
<svg width="1562px" height="636px"
 viewBox="0.00 0.00 1562.00 635.50" xmlns="http://www.w3.org/2000/svg" xmlns:xlink="http://www.w3.org/1999/xlink">
<g id="graph0" class="graph" transform="scale(1.0 1.0) rotate(0) translate(4 631.5)">
<title>urn:temp#graph</title>
<polygon fill="#ffffff" stroke="transparent" points="-4,4 -4,-631.5 1558,-631.5 1558,4 -4,4"/>
<!-- http://example.com#Steamer -->
<g id="node1" class="node">
<title>http://example.com#Steamer</title>
<g id="a_node1"><a xlink:href="http://example.com#Steamer" xlink:title="imf:SystemBlock&#10;ex:Steamer">
<polygon fill="#87cefa" stroke="#000000" points="92,-580.5 0,-580.5 0,-550.5 92,-550.5 92,-580.5"/>
<text text-anchor="middle" x="46" y="-568.5" font-family="Arial" font-size="10.00" fill="#000000">imf:SystemBlock</text>
<text text-anchor="middle" x="46" y="-557.5" font-family="Arial" font-size="10.00" fill="#000000">ex:Steamer</text>
</a>
</g>
</g>
<!-- http://example.com#SteamerInput -->
<g id="node13" class="node">
<title>http://example.com#SteamerInput</title>
<g id="a_node13"><a xlink:href="http://example.com#SteamerInput" xlink:title="imf:InletTerminal&#10;ex:SteamerInput">
<polygon fill="#87cefa" stroke="#000000" points="360,-627.5 271,-627.5 271,-597.5 360,-597.5 360,-627.5"/>
<text text-anchor="middle" x="315.5" y="-615.5" font-family="Arial" font-size="10.00" fill="#000000">imf:InletTerminal</text>
<text text-anchor="middle" x="315.5" y="-604.5" font-family="Arial" font-size="10.00" fill="#000000">ex:SteamerInput</text>
</a>
</g>
</g>
<!-- http://example.com#Steamer&#45;&gt;http://example.com#SteamerInput -->
<g id="edge18" class="edge">
<title>http://example.com#Steamer&#45;&gt;http://example.com#SteamerInput</title>
<path fill="none" stroke="#000000" d="M92.2275,-579.0138C95.8589,-579.9106 99.4811,-580.7527 103,-581.5 156.1764,-592.793 217.7149,-601.2784 260.8387,-606.4909"/>
<polygon fill="#000000" stroke="#000000" points="260.4979,-609.975 270.8415,-607.6812 261.3251,-603.024 260.4979,-609.975"/>
<text text-anchor="middle" x="151" y="-600.5" font-family="Arial" font-size="10.00" fill="#000000">imf:hasInletTerminal</text>
</g>
<!-- Steams milk with water steam -->
<g id="node21" class="node">
<title>Steams milk with water steam</title>
<path fill="#fffacd" stroke="#000000" d="M402.6667,-575C402.6667,-575 228.3333,-575 228.3333,-575 225.1667,-575 222,-571.8333 222,-568.6667 222,-568.6667 222,-562.3333 222,-562.3333 222,-559.1667 225.1667,-556 228.3333,-556 228.3333,-556 402.6667,-556 402.6667,-556 405.8333,-556 409,-559.1667 409,-562.3333 409,-562.3333 409,-568.6667 409,-568.6667 409,-571.8333 405.8333,-575 402.6667,-575"/>
<text text-anchor="middle" x="315.5" y="-563" font-family="Times" font-size="10.00" fill="#000000">Steams milk with water steam^^xsd:string</text>
</g>
<!-- http://example.com#Steamer&#45;&gt;Steams milk with water steam -->
<g id="edge23" class="edge">
<title>http://example.com#Steamer&#45;&gt;Steams milk with water steam</title>
<path fill="none" stroke="#000000" d="M92.0225,-565.5C124.8689,-565.5 170.377,-565.5 211.7593,-565.5"/>
<polygon fill="#000000" stroke="#000000" points="211.902,-569.0001 221.902,-565.5 211.902,-562.0001 211.902,-569.0001"/>
<text text-anchor="middle" x="151" y="-568.5" font-family="Arial" font-size="10.00" fill="#000000">skos:note</text>
</g>
<!-- http://example.com#CoffeeMachine -->
<g id="node23" class="node">
<title>http://example.com#CoffeeMachine</title>
<g id="a_node23"><a xlink:href="http://example.com#CoffeeMachine" xlink:title="imf:SystemBlock&#10;ex:CoffeeMachine">
<polygon fill="#87cefa" stroke="#000000" points="363,-269.5 268,-269.5 268,-239.5 363,-239.5 363,-269.5"/>
<text text-anchor="middle" x="315.5" y="-257.5" font-family="Arial" font-size="10.00" fill="#000000">imf:SystemBlock</text>
<text text-anchor="middle" x="315.5" y="-246.5" font-family="Arial" font-size="10.00" fill="#000000">ex:CoffeeMachine</text>
</a>
</g>
</g>
<!-- http://example.com#Steamer&#45;&gt;http://example.com#CoffeeMachine -->
<g id="edge21" class="edge">
<title>http://example.com#Steamer&#45;&gt;http://example.com#CoffeeMachine</title>
<path fill="none" stroke="#000000" d="M57.3695,-550.3121C68.3686,-534.7024 84.4498,-509.2491 92,-484.5 101.4292,-453.5915 82.2843,-364.3013 103,-339.5 131.2641,-305.6615 157.8175,-330.245 199,-314.5 227.7627,-303.5034 258.6774,-287.3624 281.428,-274.591"/>
<polygon fill="#000000" stroke="#000000" points="283.3751,-277.5103 290.3397,-269.5263 279.9163,-271.4244 283.3751,-277.5103"/>
<text text-anchor="middle" x="151" y="-342.5" font-family="Arial" font-size="10.00" fill="#000000">imf:hasParent</text>
</g>
<!-- http://example.com#WaterHeaterInput -->
<g id="node2" class="node">
<title>http://example.com#WaterHeaterInput</title>
<g id="a_node2"><a xlink:href="http://example.com#WaterHeaterInput" xlink:title="imf:InletTerminal&#10;ex:WaterHeaterInput">
<polygon fill="#87cefa" stroke="#000000" points="368.5,-123.5 262.5,-123.5 262.5,-93.5 368.5,-93.5 368.5,-123.5"/>
<text text-anchor="middle" x="315.5" y="-111.5" font-family="Arial" font-size="10.00" fill="#000000">imf:InletTerminal</text>
<text text-anchor="middle" x="315.5" y="-100.5" font-family="Arial" font-size="10.00" fill="#000000">ex:WaterHeaterInput</text>
</a>
</g>
</g>
<!-- http://example.com#Grinder -->
<g id="node3" class="node">
<title>http://example.com#Grinder</title>
<g id="a_node3"><a xlink:href="http://example.com#Grinder" xlink:title="imf:SystemBlock&#10;ex:Grinder">
<polygon fill="#87cefa" stroke="#000000" points="92,-473.5 0,-473.5 0,-443.5 92,-443.5 92,-473.5"/>
<text text-anchor="middle" x="46" y="-461.5" font-family="Arial" font-size="10.00" fill="#000000">imf:SystemBlock</text>
<text text-anchor="middle" x="46" y="-450.5" font-family="Arial" font-size="10.00" fill="#000000">ex:Grinder</text>
</a>
</g>
</g>
<!-- Grinds coffee beans -->
<g id="node9" class="node">
<title>Grinds coffee beans</title>
<path fill="#fffacd" stroke="#000000" d="M382.1667,-534C382.1667,-534 248.8333,-534 248.8333,-534 245.6667,-534 242.5,-530.8333 242.5,-527.6667 242.5,-527.6667 242.5,-521.3333 242.5,-521.3333 242.5,-518.1667 245.6667,-515 248.8333,-515 248.8333,-515 382.1667,-515 382.1667,-515 385.3333,-515 388.5,-518.1667 388.5,-521.3333 388.5,-521.3333 388.5,-527.6667 388.5,-527.6667 388.5,-530.8333 385.3333,-534 382.1667,-534"/>
<text text-anchor="middle" x="315.5" y="-522" font-family="Times" font-size="10.00" fill="#000000">Grinds coffee beans^^xsd:string</text>
</g>
<!-- http://example.com#Grinder&#45;&gt;Grinds coffee beans -->
<g id="edge28" class="edge">
<title>http://example.com#Grinder&#45;&gt;Grinds coffee beans</title>
<path fill="none" stroke="#000000" d="M75.3418,-473.5228C84.0715,-477.5408 93.7723,-481.5746 103,-484.5 144.7315,-497.73 192.5391,-507.207 232.2272,-513.6049"/>
<polygon fill="#000000" stroke="#000000" points="231.711,-517.0667 242.1338,-515.1656 232.8003,-510.152 231.711,-517.0667"/>
<text text-anchor="middle" x="151" y="-509.5" font-family="Arial" font-size="10.00" fill="#000000">skos:note</text>
</g>
<!-- http://example.com#GrinderInput -->
<g id="node15" class="node">
<title>http://example.com#GrinderInput</title>
<g id="a_node15"><a xlink:href="http://example.com#GrinderInput" xlink:title="imf:InletTerminal&#10;ex:GrinderInput">
<polygon fill="#87cefa" stroke="#000000" points="360,-440.5 271,-440.5 271,-410.5 360,-410.5 360,-440.5"/>
<text text-anchor="middle" x="315.5" y="-428.5" font-family="Arial" font-size="10.00" fill="#000000">imf:InletTerminal</text>
<text text-anchor="middle" x="315.5" y="-417.5" font-family="Arial" font-size="10.00" fill="#000000">ex:GrinderInput</text>
</a>
</g>
</g>
<!-- http://example.com#Grinder&#45;&gt;http://example.com#GrinderInput -->
<g id="edge25" class="edge">
<title>http://example.com#Grinder&#45;&gt;http://example.com#GrinderInput</title>
<path fill="none" stroke="#000000" d="M92.274,-448.3176C95.8948,-447.6557 99.5019,-447.0394 103,-446.5 156.4235,-438.2618 217.9276,-432.5955 260.9761,-429.2438"/>
<polygon fill="#000000" stroke="#000000" points="261.2552,-432.7328 270.96,-428.4822 260.7227,-425.753 261.2552,-432.7328"/>
<text text-anchor="middle" x="151" y="-449.5" font-family="Arial" font-size="10.00" fill="#000000">imf:hasInletTerminal</text>
</g>
<!-- http://example.com#GrinderOutput -->
<g id="node22" class="node">
<title>http://example.com#GrinderOutput</title>
<g id="a_node22"><a xlink:href="http://example.com#GrinderOutput" xlink:title="imf:OutletTerminal&#10;ex:GrinderOutput">
<polygon fill="#87cefa" stroke="#000000" points="363.5,-492.5 267.5,-492.5 267.5,-462.5 363.5,-462.5 363.5,-492.5"/>
<text text-anchor="middle" x="315.5" y="-480.5" font-family="Arial" font-size="10.00" fill="#000000">imf:OutletTerminal</text>
<text text-anchor="middle" x="315.5" y="-469.5" font-family="Arial" font-size="10.00" fill="#000000">ex:GrinderOutput</text>
</a>
</g>
</g>
<!-- http://example.com#Grinder&#45;&gt;http://example.com#GrinderOutput -->
<g id="edge24" class="edge">
<title>http://example.com#Grinder&#45;&gt;http://example.com#GrinderOutput</title>
<path fill="none" stroke="#000000" d="M92.0225,-461.7446C137.6374,-464.9605 207.6714,-469.898 257.1629,-473.3872"/>
<polygon fill="#000000" stroke="#000000" points="257.1745,-476.8966 267.3959,-474.1086 257.6668,-469.9139 257.1745,-476.8966"/>
<text text-anchor="middle" x="151" y="-471.5" font-family="Arial" font-size="10.00" fill="#000000">imf:hasOutletTerminal</text>
</g>
<!-- http://example.com#Grinder&#45;&gt;http://example.com#CoffeeMachine -->
<g id="edge15" class="edge">
<title>http://example.com#Grinder&#45;&gt;http://example.com#CoffeeMachine</title>
<path fill="none" stroke="#000000" d="M53.157,-443.3374C62.9216,-422.2202 80.515,-382.5907 92,-347.5 98.4043,-327.9325 88.314,-316.9299 103,-302.5 108.6222,-296.9758 197.0471,-278.2891 258.0405,-265.9268"/>
<polygon fill="#000000" stroke="#000000" points="258.844,-269.3352 267.9529,-263.9243 257.4579,-262.4738 258.844,-269.3352"/>
<text text-anchor="middle" x="151" y="-305.5" font-family="Arial" font-size="10.00" fill="#000000">imf:hasParent</text>
</g>
<!-- http://example.com#WaterHeater -->
<g id="node4" class="node">
<title>http://example.com#WaterHeater</title>
<g id="a_node4"><a xlink:href="http://example.com#WaterHeater" xlink:title="imf:SystemBlock&#10;ex:WaterHeater">
<polygon fill="#87cefa" stroke="#000000" points="92,-165.5 0,-165.5 0,-135.5 92,-135.5 92,-165.5"/>
<text text-anchor="middle" x="46" y="-153.5" font-family="Arial" font-size="10.00" fill="#000000">imf:SystemBlock</text>
<text text-anchor="middle" x="46" y="-142.5" font-family="Arial" font-size="10.00" fill="#000000">ex:WaterHeater</text>
</a>
</g>
</g>
<!-- http://example.com#WaterHeater&#45;&gt;http://example.com#WaterHeaterInput -->
<g id="edge2" class="edge">
<title>http://example.com#WaterHeater&#45;&gt;http://example.com#WaterHeaterInput</title>
<path fill="none" stroke="#000000" d="M92.2087,-136.8952C95.8444,-136.0191 99.4727,-135.2066 103,-134.5 152.6596,-124.5522 209.6599,-117.828 252.1165,-113.7142"/>
<polygon fill="#000000" stroke="#000000" points="252.6838,-117.1762 262.3095,-112.7495 252.0242,-110.2074 252.6838,-117.1762"/>
<text text-anchor="middle" x="151" y="-137.5" font-family="Arial" font-size="10.00" fill="#000000">imf:hasInletTerminal</text>
</g>
<!-- Heats water -->
<g id="node19" class="node">
<title>Heats water</title>
<path fill="#fffacd" stroke="#000000" d="M366.1667,-165C366.1667,-165 264.8333,-165 264.8333,-165 261.6667,-165 258.5,-161.8333 258.5,-158.6667 258.5,-158.6667 258.5,-152.3333 258.5,-152.3333 258.5,-149.1667 261.6667,-146 264.8333,-146 264.8333,-146 366.1667,-146 366.1667,-146 369.3333,-146 372.5,-149.1667 372.5,-152.3333 372.5,-152.3333 372.5,-158.6667 372.5,-158.6667 372.5,-161.8333 369.3333,-165 366.1667,-165"/>
<text text-anchor="middle" x="315.5" y="-153" font-family="Times" font-size="10.00" fill="#000000">Heats water^^xsd:string</text>
</g>
<!-- http://example.com#WaterHeater&#45;&gt;Heats water -->
<g id="edge14" class="edge">
<title>http://example.com#WaterHeater&#45;&gt;Heats water</title>
<path fill="none" stroke="#000000" d="M92.203,-149.9846C122.5615,-149.7731 163.1489,-149.731 199,-150.5 214.8557,-150.8401 231.9169,-151.4403 247.961,-152.1095"/>
<polygon fill="#000000" stroke="#000000" points="248.1929,-155.6227 258.3345,-152.5572 248.4947,-148.6292 248.1929,-155.6227"/>
<text text-anchor="middle" x="151" y="-153.5" font-family="Arial" font-size="10.00" fill="#000000">skos:note</text>
</g>
<!-- http://example.com#WaterHeater&#45;&gt;http://example.com#CoffeeMachine -->
<g id="edge26" class="edge">
<title>http://example.com#WaterHeater&#45;&gt;http://example.com#CoffeeMachine</title>
<path fill="none" stroke="#000000" d="M59.552,-165.7676C70.2874,-176.955 86.2257,-191.6718 103,-200.5 116.7918,-207.7585 199.9084,-227.8308 258.0044,-241.3509"/>
<polygon fill="#000000" stroke="#000000" points="257.2854,-244.777 267.8177,-243.6278 258.8676,-237.9581 257.2854,-244.777"/>
<text text-anchor="middle" x="151" y="-229.5" font-family="Arial" font-size="10.00" fill="#000000">imf:hasParent</text>
</g>
<!-- http://example.com#WaterTank -->
<g id="node5" class="node">
<title>http://example.com#WaterTank</title>
<g id="a_node5"><a xlink:href="http://example.com#WaterTank" xlink:title="imf:SystemBlock&#10;ex:WaterTank">
<polygon fill="#87cefa" stroke="#000000" points="92,-71.5 0,-71.5 0,-41.5 92,-41.5 92,-71.5"/>
<text text-anchor="middle" x="46" y="-59.5" font-family="Arial" font-size="10.00" fill="#000000">imf:SystemBlock</text>
<text text-anchor="middle" x="46" y="-48.5" font-family="Arial" font-size="10.00" fill="#000000">ex:WaterTank</text>
</a>
</g>
</g>
<!-- http://example.com#WaterTankOutput -->
<g id="node14" class="node">
<title>http://example.com#WaterTankOutput</title>
<g id="a_node14"><a xlink:href="http://example.com#WaterTankOutput" xlink:title="imf:OutletTerminal&#10;ex:WaterTankOutput">
<polygon fill="#87cefa" stroke="#000000" points="368.5,-71.5 262.5,-71.5 262.5,-41.5 368.5,-41.5 368.5,-71.5"/>
<text text-anchor="middle" x="315.5" y="-59.5" font-family="Arial" font-size="10.00" fill="#000000">imf:OutletTerminal</text>
<text text-anchor="middle" x="315.5" y="-48.5" font-family="Arial" font-size="10.00" fill="#000000">ex:WaterTankOutput</text>
</a>
</g>
</g>
<!-- http://example.com#WaterTank&#45;&gt;http://example.com#WaterTankOutput -->
<g id="edge19" class="edge">
<title>http://example.com#WaterTank&#45;&gt;http://example.com#WaterTankOutput</title>
<path fill="none" stroke="#000000" d="M92.0225,-56.5C136.0935,-56.5 202.9586,-56.5 252.0688,-56.5"/>
<polygon fill="#000000" stroke="#000000" points="252.2643,-60.0001 262.2643,-56.5 252.2642,-53.0001 252.2643,-60.0001"/>
<text text-anchor="middle" x="151" y="-59.5" font-family="Arial" font-size="10.00" fill="#000000">imf:hasOutletTerminal</text>
</g>
<!-- Stores water -->
<g id="node16" class="node">
<title>Stores water</title>
<path fill="#fffacd" stroke="#000000" d="M367.1667,-19C367.1667,-19 263.8333,-19 263.8333,-19 260.6667,-19 257.5,-15.8333 257.5,-12.6667 257.5,-12.6667 257.5,-6.3333 257.5,-6.3333 257.5,-3.1667 260.6667,0 263.8333,0 263.8333,0 367.1667,0 367.1667,0 370.3333,0 373.5,-3.1667 373.5,-6.3333 373.5,-6.3333 373.5,-12.6667 373.5,-12.6667 373.5,-15.8333 370.3333,-19 367.1667,-19"/>
<text text-anchor="middle" x="315.5" y="-7" font-family="Times" font-size="10.00" fill="#000000">Stores water^^xsd:string</text>
</g>
<!-- http://example.com#WaterTank&#45;&gt;Stores water -->
<g id="edge13" class="edge">
<title>http://example.com#WaterTank&#45;&gt;Stores water</title>
<path fill="none" stroke="#000000" d="M92.2275,-42.9862C95.8589,-42.0894 99.4811,-41.2473 103,-40.5 150.842,-30.3398 205.4526,-22.4522 247.332,-17.1761"/>
<polygon fill="#000000" stroke="#000000" points="247.9276,-20.6291 257.4206,-15.9244 247.0657,-13.6824 247.9276,-20.6291"/>
<text text-anchor="middle" x="151" y="-43.5" font-family="Arial" font-size="10.00" fill="#000000">skos:note</text>
</g>
<!-- http://example.com#WaterTank&#45;&gt;http://example.com#CoffeeMachine -->
<g id="edge22" class="edge">
<title>http://example.com#WaterTank&#45;&gt;http://example.com#CoffeeMachine</title>
<path fill="none" stroke="#000000" d="M58.2581,-71.5993C68.5037,-84.8555 82.8667,-105.012 92,-124.5 99.4614,-140.4205 90.4007,-150.2365 103,-162.5 134.5944,-193.2522 158.1932,-170.8055 199,-187.5 229.5025,-199.9789 261.8119,-219.0844 284.6481,-233.7049"/>
<polygon fill="#000000" stroke="#000000" points="282.9212,-236.7566 293.2151,-239.2642 286.7317,-230.8846 282.9212,-236.7566"/>
<text text-anchor="middle" x="151" y="-190.5" font-family="Arial" font-size="10.00" fill="#000000">imf:hasParent</text>
</g>
<!-- http://ns.imfid.org/imf#Function -->
<g id="node6" class="node">
<title>http://ns.imfid.org/imf#Function</title>
<g id="a_node6"><a xlink:href="http://ns.imfid.org/imf#Function" xlink:title="imf:Function">
<polygon fill="#87cefa" stroke="#000000" points="737.5,-176 666.5,-176 666.5,-157 737.5,-157 737.5,-176"/>
<text text-anchor="middle" x="702" y="-164" font-family="Arial" font-size="10.00" fill="#000000">imf:Function</text>
</a>
</g>
</g>
<!-- http://example.com#MilkInput -->
<g id="node7" class="node">
<title>http://example.com#MilkInput</title>
<g id="a_node7"><a xlink:href="http://example.com#MilkInput" xlink:title="imf:InletTerminal&#10;ex:MilkInput">
<polygon fill="#87cefa" stroke="#000000" points="976.5,-182.5 887.5,-182.5 887.5,-152.5 976.5,-152.5 976.5,-182.5"/>
<text text-anchor="middle" x="932" y="-170.5" font-family="Arial" font-size="10.00" fill="#000000">imf:InletTerminal</text>
<text text-anchor="middle" x="932" y="-159.5" font-family="Arial" font-size="10.00" fill="#000000">ex:MilkInput</text>
</a>
</g>
</g>
<!-- http://example.com#CupTray -->
<g id="node18" class="node">
<title>http://example.com#CupTray</title>
<g id="a_node18"><a xlink:href="http://example.com#CupTray" xlink:title="imf:OutletTerminal&#10;ex:CupTray">
<polygon fill="#87cefa" stroke="#000000" points="1289,-358.5 1193,-358.5 1193,-328.5 1289,-328.5 1289,-358.5"/>
<text text-anchor="middle" x="1241" y="-346.5" font-family="Arial" font-size="10.00" fill="#000000">imf:OutletTerminal</text>
<text text-anchor="middle" x="1241" y="-335.5" font-family="Arial" font-size="10.00" fill="#000000">ex:CupTray</text>
</a>
</g>
</g>
<!-- http://example.com#MilkInput&#45;&gt;http://example.com#CupTray -->
<g id="edge29" class="edge">
<title>http://example.com#MilkInput&#45;&gt;http://example.com#CupTray</title>
<path fill="none" stroke="#000000" d="M958.3452,-182.5057C1013.8483,-214.1191 1142.8412,-287.5908 1205.531,-323.2976"/>
<polygon fill="#000000" stroke="#000000" points="1203.861,-326.3743 1214.2826,-328.2823 1207.3255,-320.2917 1203.861,-326.3743"/>
<text text-anchor="middle" x="1036" y="-254.5" font-family="Arial" font-size="10.00" fill="#000000">imf:directlyPrecedes</text>
</g>
<!-- Landing area for produced coffee -->
<g id="node8" class="node">
<title>Landing area for produced coffee</title>
<path fill="#fffacd" stroke="#000000" d="M1547.6667,-353C1547.6667,-353 1360.3333,-353 1360.3333,-353 1357.1667,-353 1354,-349.8333 1354,-346.6667 1354,-346.6667 1354,-340.3333 1354,-340.3333 1354,-337.1667 1357.1667,-334 1360.3333,-334 1360.3333,-334 1547.6667,-334 1547.6667,-334 1550.8333,-334 1554,-337.1667 1554,-340.3333 1554,-340.3333 1554,-346.6667 1554,-346.6667 1554,-349.8333 1550.8333,-353 1547.6667,-353"/>
<text text-anchor="middle" x="1454" y="-341" font-family="Times" font-size="10.00" fill="#000000">Landing area for produced coffee^^xsd:string</text>
</g>
<!-- Coffee machine -->
<g id="node10" class="node">
<title>Coffee machine</title>
<path fill="#fffacd" stroke="#000000" d="M760.6667,-217C760.6667,-217 643.3333,-217 643.3333,-217 640.1667,-217 637,-213.8333 637,-210.6667 637,-210.6667 637,-204.3333 637,-204.3333 637,-201.1667 640.1667,-198 643.3333,-198 643.3333,-198 760.6667,-198 760.6667,-198 763.8333,-198 767,-201.1667 767,-204.3333 767,-204.3333 767,-210.6667 767,-210.6667 767,-213.8333 763.8333,-217 760.6667,-217"/>
<text text-anchor="middle" x="702" y="-205" font-family="Times" font-size="10.00" fill="#000000">Coffee machine^^xsd:string</text>
</g>
<!-- http://example.com#Mixer -->
<g id="node11" class="node">
<title>http://example.com#Mixer</title>
<g id="a_node11"><a xlink:href="http://example.com#Mixer" xlink:title="imf:SystemBlock&#10;ex:Mixer">
<polygon fill="#87cefa" stroke="#000000" points="92,-336.5 0,-336.5 0,-306.5 92,-306.5 92,-336.5"/>
<text text-anchor="middle" x="46" y="-324.5" font-family="Arial" font-size="10.00" fill="#000000">imf:SystemBlock</text>
<text text-anchor="middle" x="46" y="-313.5" font-family="Arial" font-size="10.00" fill="#000000">ex:Mixer</text>
</a>
</g>
</g>
<!-- Mixes coffee and milk to perfection -->
<g id="node17" class="node">
<title>Mixes coffee and milk to perfection</title>
<path fill="#fffacd" stroke="#000000" d="M414.6667,-388C414.6667,-388 216.3333,-388 216.3333,-388 213.1667,-388 210,-384.8333 210,-381.6667 210,-381.6667 210,-375.3333 210,-375.3333 210,-372.1667 213.1667,-369 216.3333,-369 216.3333,-369 414.6667,-369 414.6667,-369 417.8333,-369 421,-372.1667 421,-375.3333 421,-375.3333 421,-381.6667 421,-381.6667 421,-384.8333 417.8333,-388 414.6667,-388"/>
<text text-anchor="middle" x="315.5" y="-376" font-family="Times" font-size="10.00" fill="#000000">Mixes coffee and milk to perfection^^xsd:string</text>
</g>
<!-- http://example.com#Mixer&#45;&gt;Mixes coffee and milk to perfection -->
<g id="edge3" class="edge">
<title>http://example.com#Mixer&#45;&gt;Mixes coffee and milk to perfection</title>
<path fill="none" stroke="#000000" d="M68.9573,-336.5603C79.0158,-342.4657 91.1992,-348.7208 103,-352.5 133.5825,-362.2941 167.7266,-368.4388 199.5449,-372.2817"/>
<polygon fill="#000000" stroke="#000000" points="199.454,-375.794 209.7864,-373.4503 200.2476,-368.8391 199.454,-375.794"/>
<text text-anchor="middle" x="151" y="-374.5" font-family="Arial" font-size="10.00" fill="#000000">skos:note</text>
</g>
<!-- http://example.com#Mixer&#45;&gt;http://example.com#CoffeeMachine -->
<g id="edge6" class="edge">
<title>http://example.com#Mixer&#45;&gt;http://example.com#CoffeeMachine</title>
<path fill="none" stroke="#000000" d="M56.1569,-306.2429C66.2337,-292.562 83.0319,-273.3266 103,-264.5 151.8888,-242.8894 213.4167,-242.5173 257.6678,-246.2768"/>
<polygon fill="#000000" stroke="#000000" points="257.3951,-249.7665 267.6799,-247.2224 258.0534,-242.7975 257.3951,-249.7665"/>
<text text-anchor="middle" x="151" y="-267.5" font-family="Arial" font-size="10.00" fill="#000000">imf:hasParent</text>
</g>
<!-- Makes different variants of espresso based coffee possibly with milk -->
<g id="node12" class="node">
<title>Makes different variants of espresso based coffee possibly with milk</title>
<path fill="#fffacd" stroke="#000000" d="M866.6667,-88C866.6667,-88 537.3333,-88 537.3333,-88 534.1667,-88 531,-84.8333 531,-81.6667 531,-81.6667 531,-75.3333 531,-75.3333 531,-72.1667 534.1667,-69 537.3333,-69 537.3333,-69 866.6667,-69 866.6667,-69 869.8333,-69 873,-72.1667 873,-75.3333 873,-75.3333 873,-81.6667 873,-81.6667 873,-84.8333 869.8333,-88 866.6667,-88"/>
<text text-anchor="middle" x="702" y="-76" font-family="Times" font-size="10.00" fill="#000000">Makes different variants of espresso based coffee possibly with milk^^xsd:string</text>
</g>
<!-- http://example.com#CoffeeInput -->
<g id="node20" class="node">
<title>http://example.com#CoffeeInput</title>
<g id="a_node20"><a xlink:href="http://example.com#CoffeeInput" xlink:title="imf:InletTerminal&#10;ex:CoffeeInput">
<polygon fill="#87cefa" stroke="#000000" points="746.5,-429.5 657.5,-429.5 657.5,-399.5 746.5,-399.5 746.5,-429.5"/>
<text text-anchor="middle" x="702" y="-417.5" font-family="Arial" font-size="10.00" fill="#000000">imf:InletTerminal</text>
<text text-anchor="middle" x="702" y="-406.5" font-family="Arial" font-size="10.00" fill="#000000">ex:CoffeeInput</text>
</a>
</g>
</g>
<!-- http://example.com#GrinderInput&#45;&gt;http://example.com#CoffeeInput -->
<g id="edge4" class="edge">
<title>http://example.com#GrinderInput&#45;&gt;http://example.com#CoffeeInput</title>
<path fill="none" stroke="#000000" d="M360.214,-424.2274C431.2875,-422.2046 569.8588,-418.2608 646.936,-416.0671"/>
<polygon fill="#000000" stroke="#000000" points="647.4941,-419.5528 657.3904,-415.7696 647.2949,-412.5556 647.4941,-419.5528"/>
<text text-anchor="middle" x="476" y="-424.5" font-family="Arial" font-size="10.00" fill="#000000">imf:hasParent</text>
</g>
<!-- http://example.com#CupTray&#45;&gt;Landing area for produced coffee -->
<g id="edge9" class="edge">
<title>http://example.com#CupTray&#45;&gt;Landing area for produced coffee</title>
<path fill="none" stroke="#000000" d="M1289.0669,-343.5C1305.4713,-343.5 1324.5546,-343.5 1343.7992,-343.5"/>
<polygon fill="#000000" stroke="#000000" points="1343.8643,-347.0001 1353.8642,-343.5 1343.8642,-340.0001 1343.8643,-347.0001"/>
<text text-anchor="middle" x="1321.5" y="-346.5" font-family="Arial" font-size="10.00" fill="#000000">skos:note</text>
</g>
<!-- http://example.com#CoffeeInput&#45;&gt;http://example.com#CupTray -->
<g id="edge11" class="edge">
<title>http://example.com#CoffeeInput&#45;&gt;http://example.com#CupTray</title>
<path fill="none" stroke="#000000" d="M746.8001,-416.9326C833.0533,-420.3027 1027.3294,-421.4907 1182,-375.5 1191.3508,-372.7196 1200.8956,-368.3354 1209.5073,-363.6938"/>
<polygon fill="#000000" stroke="#000000" points="1211.4689,-366.6047 1218.4325,-358.6198 1208.0093,-360.5194 1211.4689,-366.6047"/>
<text text-anchor="middle" x="1036" y="-412.5" font-family="Arial" font-size="10.00" fill="#000000">imf:directlyPrecedes</text>
</g>
<!-- http://example.com#CoffeeMachine&#45;&gt;http://ns.imfid.org/imf#Function -->
<g id="edge12" class="edge">
<title>http://example.com#CoffeeMachine&#45;&gt;http://ns.imfid.org/imf#Function</title>
<path fill="none" stroke="#000000" d="M355.9659,-239.4509C378.265,-231.3626 406.5158,-221.4481 432,-213.5 475.5386,-199.921 486.2253,-195.1733 531,-186.5 573.0175,-178.3608 621.5286,-173.0696 656.1243,-169.9868"/>
<polygon fill="#000000" stroke="#000000" points="656.7297,-173.4476 666.3915,-169.1003 656.1275,-166.4736 656.7297,-173.4476"/>
<text text-anchor="middle" x="476" y="-216.5" font-family="Arial" font-size="10.00" fill="#000000">imf:hasAspect</text>
</g>
<!-- http://example.com#CoffeeMachine&#45;&gt;http://example.com#MilkInput -->
<g id="edge7" class="edge">
<title>http://example.com#CoffeeMachine&#45;&gt;http://example.com#MilkInput</title>
<path fill="none" stroke="#000000" d="M333.2909,-239.2777C355.1884,-221.2443 394.1394,-191.3976 432,-173.5 473.3396,-153.9578 485.7076,-151.7818 531,-145.5 681.5588,-124.6184 723.4139,-118.5184 873,-145.5 878.048,-146.4105 883.2277,-147.7264 888.3211,-149.2684"/>
<polygon fill="#000000" stroke="#000000" points="887.3589,-152.6367 897.9524,-152.4653 889.5642,-145.9931 887.3589,-152.6367"/>
<text text-anchor="middle" x="476" y="-176.5" font-family="Arial" font-size="10.00" fill="#000000">imf:hasInletTerminal</text>
</g>
<!-- http://example.com#CoffeeMachine&#45;&gt;Coffee machine -->
<g id="edge10" class="edge">
<title>http://example.com#CoffeeMachine&#45;&gt;Coffee machine</title>
<path fill="none" stroke="#000000" d="M363.0811,-247.7224C384.1796,-244.7798 409.3141,-241.3598 432,-238.5 497.6373,-230.2257 572.3703,-221.7157 626.5451,-215.7103"/>
<polygon fill="#000000" stroke="#000000" points="627.2009,-219.1592 636.7556,-214.5811 626.4314,-212.2016 627.2009,-219.1592"/>
<text text-anchor="middle" x="476" y="-241.5" font-family="Arial" font-size="10.00" fill="#000000">skos:prefLabel</text>
</g>
<!-- http://example.com#CoffeeMachine&#45;&gt;Makes different variants of espresso based coffee possibly with milk -->
<g id="edge5" class="edge">
<title>http://example.com#CoffeeMachine&#45;&gt;Makes different variants of espresso based coffee possibly with milk</title>
<path fill="none" stroke="#000000" d="M347.935,-239.297C372.3163,-226.0503 404.2795,-204.4222 421,-175.5 431.1949,-157.8654 416.9079,-98.18 432,-84.5 495.9044,-26.5748 607.383,-48.7986 665.0675,-65.895"/>
<polygon fill="#000000" stroke="#000000" points="664.2673,-69.3106 674.8542,-68.9006 666.3224,-62.619 664.2673,-69.3106"/>
<text text-anchor="middle" x="476" y="-87.5" font-family="Arial" font-size="10.00" fill="#000000">skos:note</text>
</g>
<!-- http://example.com#CoffeeMachine&#45;&gt;http://example.com#CupTray -->
<g id="edge16" class="edge">
<title>http://example.com#CoffeeMachine&#45;&gt;http://example.com#CupTray</title>
<path fill="none" stroke="#000000" d="M354.0822,-269.5917C396.6406,-285.417 467.5204,-309.3662 531,-319.5 770.3487,-357.7092 1060.6279,-351.3981 1182.592,-346.403"/>
<polygon fill="#000000" stroke="#000000" points="1182.9786,-349.8899 1192.8219,-345.9707 1182.683,-342.8961 1182.9786,-349.8899"/>
<text text-anchor="middle" x="932" y="-352.5" font-family="Arial" font-size="10.00" fill="#000000">imf:hasOutletTerminal</text>
</g>
<!-- http://example.com#CoffeeMachine&#45;&gt;http://example.com#CoffeeInput -->
<g id="edge27" class="edge">
<title>http://example.com#CoffeeMachine&#45;&gt;http://example.com#CoffeeInput</title>
<path fill="none" stroke="#000000" d="M331.6755,-269.5725C352.7743,-289.4273 390.5807,-325.6769 421,-358.5 426.1447,-364.0512 425.4065,-367.7838 432,-371.5 467.8897,-391.728 579.2517,-404.2947 647.2313,-410.2893"/>
<polygon fill="#000000" stroke="#000000" points="647.0777,-413.789 657.3414,-411.1607 647.6789,-406.8149 647.0777,-413.789"/>
<text text-anchor="middle" x="476" y="-396.5" font-family="Arial" font-size="10.00" fill="#000000">imf:hasInletTerminal</text>
</g>
<!-- http://example.com#WaterInput -->
<g id="node24" class="node">
<title>http://example.com#WaterInput</title>
<g id="a_node24"><a xlink:href="http://example.com#WaterInput" xlink:title="imf:InletTerminal&#10;ex:WaterInput">
<polygon fill="#87cefa" stroke="#000000" points="1080.5,-324.5 991.5,-324.5 991.5,-294.5 1080.5,-294.5 1080.5,-324.5"/>
<text text-anchor="middle" x="1036" y="-312.5" font-family="Arial" font-size="10.00" fill="#000000">imf:InletTerminal</text>
<text text-anchor="middle" x="1036" y="-301.5" font-family="Arial" font-size="10.00" fill="#000000">ex:WaterInput</text>
</a>
</g>
</g>
<!-- http://example.com#CoffeeMachine&#45;&gt;http://example.com#WaterInput -->
<g id="edge20" class="edge">
<title>http://example.com#CoffeeMachine&#45;&gt;http://example.com#WaterInput</title>
<path fill="none" stroke="#000000" d="M363.0631,-261.4246C384.1582,-264.3944 409.2951,-267.795 432,-270.5 633.4532,-294.5003 874.5915,-304.4822 980.9704,-307.9395"/>
<polygon fill="#000000" stroke="#000000" points="981.0364,-311.4433 991.1428,-308.2634 981.2593,-304.4468 981.0364,-311.4433"/>
<text text-anchor="middle" x="702" y="-306.5" font-family="Arial" font-size="10.00" fill="#000000">imf:hasInletTerminal</text>
</g>
<!-- http://example.com#WaterTankInput -->
<g id="node25" class="node">
<title>http://example.com#WaterTankInput</title>
<g id="a_node25"><a xlink:href="http://example.com#WaterTankInput" xlink:title="imf:InletTerminal&#10;ex:WaterTankInput">
<polygon fill="#87cefa" stroke="#000000" points="751,-269.5 653,-269.5 653,-239.5 751,-239.5 751,-269.5"/>
<text text-anchor="middle" x="702" y="-257.5" font-family="Arial" font-size="10.00" fill="#000000">imf:InletTerminal</text>
<text text-anchor="middle" x="702" y="-246.5" font-family="Arial" font-size="10.00" fill="#000000">ex:WaterTankInput</text>
</a>
</g>
</g>
<!-- http://example.com#CoffeeMachine&#45;&gt;http://example.com#WaterTankInput -->
<g id="edge1" class="edge">
<title>http://example.com#CoffeeMachine&#45;&gt;http://example.com#WaterTankInput</title>
<path fill="none" stroke="#000000" d="M363.2801,-254.5C433.7839,-254.5 565.6027,-254.5 642.3539,-254.5"/>
<polygon fill="#000000" stroke="#000000" points="642.8062,-258.0001 652.8062,-254.5 642.8062,-251.0001 642.8062,-258.0001"/>
<text text-anchor="middle" x="476" y="-257.5" font-family="Arial" font-size="10.00" fill="#000000">imf:hasInletTerminal</text>
</g>
<!-- http://example.com#WaterInput&#45;&gt;http://example.com#CupTray -->
<g id="edge17" class="edge">
<title>http://example.com#WaterInput&#45;&gt;http://example.com#CupTray</title>
<path fill="none" stroke="#000000" d="M1080.5445,-315.037C1109.5324,-318.8544 1148.1128,-324.3383 1182,-330.5 1182.2193,-330.5399 1182.439,-330.58 1182.6591,-330.6203"/>
<polygon fill="#000000" stroke="#000000" points="1182.2798,-334.1115 1192.7613,-332.5663 1183.6039,-327.2379 1182.2798,-334.1115"/>
<text text-anchor="middle" x="1137" y="-333.5" font-family="Arial" font-size="10.00" fill="#000000">imf:directlyPrecedes</text>
</g>
<!-- http://example.com#WaterTankInput&#45;&gt;http://example.com#WaterInput -->
<g id="edge8" class="edge">
<title>http://example.com#WaterTankInput&#45;&gt;http://example.com#WaterInput</title>
<path fill="none" stroke="#000000" d="M751.0051,-255.633C807.1724,-257.9216 901.5834,-264.8097 980,-285.5 985.2416,-286.883 990.6288,-288.6741 995.8934,-290.6546"/>
<polygon fill="#000000" stroke="#000000" points="994.5948,-293.9047 1005.1791,-294.3765 997.1992,-287.4072 994.5948,-293.9047"/>
<text text-anchor="middle" x="932" y="-288.5" font-family="Arial" font-size="10.00" fill="#000000">imf:hasParent</text>
</g>
</g>
</svg>

