<?xml version="1.0" encoding="UTF-8" standalone="no"?>
<!DOCTYPE svg PUBLIC "-//W3C//DTD SVG 1.1//EN"
 "http://www.w3.org/Graphics/SVG/1.1/DTD/svg11.dtd">
<!-- Generated by graphviz version 2.40.1 (20161225.0304)
 -->
<!-- Title: urn:temp#graph Pages: 1 -->
<svg width="439px" height="206px"
 viewBox="0.00 0.00 438.87 206.00" xmlns="http://www.w3.org/2000/svg" xmlns:xlink="http://www.w3.org/1999/xlink">
<g id="graph0" class="graph" transform="scale(1.0 1.0) rotate(0) translate(4 202)">
<title>urn:temp#graph</title>
<polygon fill="#ffffff" stroke="transparent" points="-4,4 -4,-202 434.8744,-202 434.8744,4 -4,4"/>
<!-- http://ns.imfid.org/imf#Aspect -->
<g id="node1" class="node">
<title>http://ns.imfid.org/imf#Aspect</title>
<polygon fill="none" stroke="#000000" points="111.8744,-198 56.8744,-198 56.8744,-162 111.8744,-162 111.8744,-198"/>
<text text-anchor="middle" x="84.3744" y="-178.1" font-family="Arial" font-size="8.00" fill="#000000">imf:Aspect</text>
</g>
<!-- http://ns.imfid.org/imf#AspectObject -->
<g id="node2" class="node">
<title>http://ns.imfid.org/imf#AspectObject</title>
<polygon fill="none" stroke="#000000" points="123.8744,-117 44.8744,-117 44.8744,-81 123.8744,-81 123.8744,-117"/>
<text text-anchor="middle" x="84.3744" y="-97.1" font-family="Arial" font-size="8.00" fill="#000000">imf:AspectObject</text>
</g>
<!-- http://ns.imfid.org/imf#AspectObject&#45;&gt;http://ns.imfid.org/imf#Aspect -->
<g id="edge1" class="edge">
<title>http://ns.imfid.org/imf#AspectObject&#45;&gt;http://ns.imfid.org/imf#Aspect</title>
<path fill="none" stroke="#000000" d="M44.812,-106.7799C29.1469,-112.0068 12.6824,-120.6772 3.3744,-135 -9.6453,-155.0342 19.7076,-166.9689 46.6483,-173.4587"/>
<polygon fill="#000000" stroke="#000000" points="56.8604,-170.5869 54.7106,-180.3531 52.7573,-179.9231 54.9071,-170.1569 56.8604,-170.5869"/>
<polyline fill="none" stroke="#000000" points="56.7621,-175.685 51.879,-174.6101 "/>
<polygon fill="#000000" stroke="#000000" points="51.9773,-169.512 49.8275,-179.2782 47.8742,-178.8482 50.024,-169.082 51.9773,-169.512"/>
<polyline fill="none" stroke="#000000" points="51.879,-174.6101 46.9959,-173.5352 "/>
<text text-anchor="middle" x="32.8744" y="-137.6" font-family="Arial" font-size="8.00" fill="#000000">imf:hasAspect 1</text>
</g>
<!-- http://ns.imfid.org/imf#AspectObject&#45;&gt;http://ns.imfid.org/imf#Aspect -->
<g id="edge4" class="edge">
<title>http://ns.imfid.org/imf#AspectObject&#45;&gt;http://ns.imfid.org/imf#Aspect</title>
<path fill="none" stroke="#000000" d="M84.3744,-117.3802C84.3744,-127.4966 84.3744,-140.2691 84.3744,-151.6363"/>
<polygon fill="#000000" stroke="#000000" points="80.8745,-151.9716 84.3744,-161.9716 87.8745,-151.9716 80.8745,-151.9716"/>
<text text-anchor="middle" x="110.3744" y="-137.6" font-family="Arial" font-size="8.00" fill="#000000">imf:hasAspect</text>
</g>
<!-- http://ns.imfid.org/imf#AspectObject&#45;&gt;http://ns.imfid.org/imf#AspectObject -->
<g id="edge2" class="edge">
<title>http://ns.imfid.org/imf#AspectObject&#45;&gt;http://ns.imfid.org/imf#AspectObject</title>
<path fill="none" stroke="#000000" d="M123.8802,-96.5258C134.1389,-96.6779 141.8744,-97.5026 141.8744,-99 141.8744,-99.9359 138.8527,-100.609 134.0819,-101.0193"/>
<polygon fill="#000000" stroke="#000000" points="133.7143,-97.5322 123.8802,-101.4742 134.0262,-104.5252 133.7143,-97.5322"/>
<text text-anchor="middle" x="184.3744" y="-97.1" font-family="Arial" font-size="8.00" fill="#000000">imf:hierarchicalRelation</text>
</g>
<!-- http://ns.imfid.org/imf#AspectObject&#45;&gt;http://ns.imfid.org/imf#AspectObject -->
<g id="edge3" class="edge">
<title>http://ns.imfid.org/imf#AspectObject&#45;&gt;http://ns.imfid.org/imf#AspectObject</title>
<path fill="none" stroke="#000000" d="M123.8854,-94.9064C167.2441,-92.8829 226.8744,-94.2474 226.8744,-99 226.8744,-103.3906 175.9824,-104.8896 134.0432,-103.497"/>
<polygon fill="#000000" stroke="#000000" points="134.0164,-99.9933 123.8854,-103.0936 133.7386,-106.9877 134.0164,-99.9933"/>
<text text-anchor="middle" x="268.8744" y="-97.1" font-family="Arial" font-size="8.00" fill="#000000">imf:intraAspectRelation</text>
</g>
<!-- http://ns.imfid.org/imf#AspectObject&#45;&gt;http://ns.imfid.org/imf#AspectObject -->
<g id="edge6" class="edge">
<title>http://ns.imfid.org/imf#AspectObject&#45;&gt;http://ns.imfid.org/imf#AspectObject</title>
<path fill="none" stroke="#000000" d="M124.1297,-93.9061C191.0556,-89.47 310.8744,-91.168 310.8744,-99 310.8744,-106.4496 202.471,-108.3495 134.2915,-104.6998"/>
<polygon fill="#000000" stroke="#000000" points="134.3203,-101.1954 124.1297,-104.0939 133.9036,-108.183 134.3203,-101.1954"/>
<text text-anchor="middle" x="352.8744" y="-97.1" font-family="Arial" font-size="8.00" fill="#000000">imf:associativeRelation</text>
</g>
<!-- http://ns.imfid.org/imf#MultiAspectObject -->
<g id="node3" class="node">
<title>http://ns.imfid.org/imf#MultiAspectObject</title>
<polygon fill="none" stroke="#000000" points="131.8744,-36 36.8744,-36 36.8744,0 131.8744,0 131.8744,-36"/>
<text text-anchor="middle" x="84.3744" y="-16.1" font-family="Arial" font-size="8.00" fill="#000000">imf:MultiAspectObject</text>
</g>
<!-- http://ns.imfid.org/imf#MultiAspectObject&#45;&gt;http://ns.imfid.org/imf#AspectObject -->
<g id="edge5" class="edge">
<title>http://ns.imfid.org/imf#MultiAspectObject&#45;&gt;http://ns.imfid.org/imf#AspectObject</title>
<path fill="none" stroke="#000000" d="M84.3744,-36.3802C84.3744,-46.4966 84.3744,-59.2691 84.3744,-70.6363"/>
<polygon fill="#000000" stroke="#000000" points="80.8745,-70.9716 84.3744,-80.9716 87.8745,-70.9716 80.8745,-70.9716"/>
<text text-anchor="middle" x="122.3744" y="-56.6" font-family="Arial" font-size="8.00" fill="#000000">imf:hasAspectObject</text>
</g>
</g>
</svg>

