<?xml version="1.0" encoding="UTF-8" standalone="no"?>
<!DOCTYPE svg PUBLIC "-//W3C//DTD SVG 1.1//EN"
 "http://www.w3.org/Graphics/SVG/1.1/DTD/svg11.dtd">
<!-- Generated by graphviz version 2.40.1 (20161225.0304)
 -->
<!-- Title: urn:temp#graph Pages: 1 -->
<svg width="887px" height="198px"
 viewBox="0.00 0.00 886.50 198.00" xmlns="http://www.w3.org/2000/svg" xmlns:xlink="http://www.w3.org/1999/xlink">
<g id="graph0" class="graph" transform="scale(1.0 1.0) rotate(0) translate(4 194)">
<title>urn:temp#graph</title>
<polygon fill="#ffffff" stroke="transparent" points="-4,4 -4,-194 882.5,-194 882.5,4 -4,4"/>
<!-- http://ns.imfid.org/imf#ActivityAspect -->
<g id="node1" class="node">
<title>http://ns.imfid.org/imf#ActivityAspect</title>
<polygon fill="none" stroke="#000000" points="81,-36 0,-36 0,0 81,0 81,-36"/>
<text text-anchor="middle" x="40.5" y="-16.1" font-family="Arial" font-size="8.00" fill="#000000">imf:ActivityAspect</text>
</g>
<!-- http://ns.imfid.org/imf#Aspect -->
<g id="node7" class="node">
<title>http://ns.imfid.org/imf#Aspect</title>
<polygon fill="none" stroke="#000000" points="222,-117 167,-117 167,-81 222,-81 222,-117"/>
<text text-anchor="middle" x="194.5" y="-97.1" font-family="Arial" font-size="8.00" fill="#000000">imf:Aspect</text>
</g>
<!-- http://ns.imfid.org/imf#ActivityAspect&#45;&gt;http://ns.imfid.org/imf#Aspect -->
<g id="edge9" class="edge">
<title>http://ns.imfid.org/imf#ActivityAspect&#45;&gt;http://ns.imfid.org/imf#Aspect</title>
<path fill="none" stroke="#000000" stroke-dasharray="1,5" d="M75.0606,-36.178C99.7026,-49.1391 132.7779,-66.5358 157.8742,-79.7358"/>
<polygon fill="#000000" stroke="#000000" points="156.2491,-82.8356 166.7288,-84.3931 159.5077,-76.6403 156.2491,-82.8356"/>
</g>
<!-- http://ns.imfid.org/imf#LocationAspectObject -->
<g id="node2" class="node">
<title>http://ns.imfid.org/imf#LocationAspectObject</title>
<polygon fill="none" stroke="#000000" points="350.5,-117 240.5,-117 240.5,-81 350.5,-81 350.5,-117"/>
<text text-anchor="middle" x="295.5" y="-97.1" font-family="Arial" font-size="8.00" fill="#000000">imf:LocationAspectObject</text>
</g>
<!-- http://ns.imfid.org/imf#AspectObject -->
<g id="node9" class="node">
<title>http://ns.imfid.org/imf#AspectObject</title>
<polygon fill="none" stroke="#000000" points="588,-190 509,-190 509,-154 588,-154 588,-190"/>
<text text-anchor="middle" x="548.5" y="-170.1" font-family="Arial" font-size="8.00" fill="#000000">imf:AspectObject</text>
</g>
<!-- http://ns.imfid.org/imf#LocationAspectObject&#45;&gt;http://ns.imfid.org/imf#AspectObject -->
<g id="edge12" class="edge">
<title>http://ns.imfid.org/imf#LocationAspectObject&#45;&gt;http://ns.imfid.org/imf#AspectObject</title>
<path fill="none" stroke="#000000" d="M350.7366,-112.2791C389.9696,-122.0619 444.0214,-136.2469 499.2052,-153.7085"/>
<polygon fill="none" stroke="#000000" points="498.2004,-157.0618 508.7913,-156.7718 500.3312,-150.3939 498.2004,-157.0618"/>
</g>
<!-- b5e1c7ff&#45;61f5&#45;440b&#45;b5f6&#45;41aadb26cf55 -->
<g id="node11" class="node">
<title>b5e1c7ff&#45;61f5&#45;440b&#45;b5f6&#45;41aadb26cf55</title>
<polygon fill="#e5e5e5" stroke="#000000" stroke-dasharray="5,2" points="305.5,-185 141.5,-185 141.5,-159 305.5,-159 305.5,-185"/>
<text text-anchor="middle" x="223.5" y="-174.6" font-family="Arial" font-size="8.00" fill="#000000">owl:Restriction</text>
<text text-anchor="middle" x="223.5" y="-165.6" font-family="Arial" font-size="8.00" fill="#000000">,b5e1c7ff&#45;61f5&#45;440b&#45;b5f6&#45;41aadb26cf55</text>
</g>
<!-- http://ns.imfid.org/imf#LocationAspectObject&#45;&gt;b5e1c7ff&#45;61f5&#45;440b&#45;b5f6&#45;41aadb26cf55 -->
<g id="edge5" class="edge">
<title>http://ns.imfid.org/imf#LocationAspectObject&#45;&gt;b5e1c7ff&#45;61f5&#45;440b&#45;b5f6&#45;41aadb26cf55</title>
<path fill="none" stroke="#000000" d="M277.7022,-117.0449C267.3813,-127.5093 254.3516,-140.7199 243.654,-151.5661"/>
<polygon fill="none" stroke="#000000" points="240.8791,-149.3953 236.3488,-158.9727 245.8629,-154.3108 240.8791,-149.3953"/>
</g>
<!-- http://ns.imfid.org/imf#ActivityAspectObject -->
<g id="node3" class="node">
<title>http://ns.imfid.org/imf#ActivityAspectObject</title>
<polygon fill="none" stroke="#000000" points="520,-117 415,-117 415,-81 520,-81 520,-117"/>
<text text-anchor="middle" x="467.5" y="-97.1" font-family="Arial" font-size="8.00" fill="#000000">imf:ActivityAspectObject</text>
</g>
<!-- http://ns.imfid.org/imf#ActivityAspectObject&#45;&gt;http://ns.imfid.org/imf#AspectObject -->
<g id="edge13" class="edge">
<title>http://ns.imfid.org/imf#ActivityAspectObject&#45;&gt;http://ns.imfid.org/imf#AspectObject</title>
<path fill="none" stroke="#000000" d="M487.5225,-117.0449C497.5502,-126.0823 509.8509,-137.1681 520.7714,-147.0101"/>
<polygon fill="none" stroke="#000000" points="518.6556,-149.8148 528.4271,-153.9096 523.3419,-144.615 518.6556,-149.8148"/>
</g>
<!-- 14f1b008&#45;ada5&#45;4b10&#45;8622&#45;bfc925f658c8 -->
<g id="node13" class="node">
<title>14f1b008&#45;ada5&#45;4b10&#45;8622&#45;bfc925f658c8</title>
<polygon fill="#e5e5e5" stroke="#000000" stroke-dasharray="5,2" points="491.5,-185 323.5,-185 323.5,-159 491.5,-159 491.5,-185"/>
<text text-anchor="middle" x="407.5" y="-174.6" font-family="Arial" font-size="8.00" fill="#000000">owl:Restriction</text>
<text text-anchor="middle" x="407.5" y="-165.6" font-family="Arial" font-size="8.00" fill="#000000">,14f1b008&#45;ada5&#45;4b10&#45;8622&#45;bfc925f658c8</text>
</g>
<!-- http://ns.imfid.org/imf#ActivityAspectObject&#45;&gt;14f1b008&#45;ada5&#45;4b10&#45;8622&#45;bfc925f658c8 -->
<g id="edge6" class="edge">
<title>http://ns.imfid.org/imf#ActivityAspectObject&#45;&gt;14f1b008&#45;ada5&#45;4b10&#45;8622&#45;bfc925f658c8</title>
<path fill="none" stroke="#000000" d="M452.6685,-117.0449C444.2347,-127.3061 433.6305,-140.2079 424.8165,-150.9316"/>
<polygon fill="none" stroke="#000000" points="421.8531,-149.0249 418.2073,-158.9727 427.2609,-153.4697 421.8531,-149.0249"/>
</g>
<!-- 01c8785c&#45;0f48&#45;49b8&#45;9766&#45;3ae5fe32cb5c -->
<g id="node4" class="node">
<title>01c8785c&#45;0f48&#45;49b8&#45;9766&#45;3ae5fe32cb5c</title>
<polygon fill="#e5e5e5" stroke="#000000" stroke-dasharray="5,2" points="878.5,-185 708.5,-185 708.5,-159 878.5,-159 878.5,-185"/>
<text text-anchor="middle" x="793.5" y="-174.6" font-family="Arial" font-size="8.00" fill="#000000">owl:Restriction</text>
<text text-anchor="middle" x="793.5" y="-165.6" font-family="Arial" font-size="8.00" fill="#000000">,01c8785c&#45;0f48&#45;49b8&#45;9766&#45;3ae5fe32cb5c</text>
</g>
<!-- http://ns.imfid.org/imf#FunctionAspectObject -->
<g id="node5" class="node">
<title>http://ns.imfid.org/imf#FunctionAspectObject</title>
<polygon fill="none" stroke="#000000" points="632.5,-36 522.5,-36 522.5,0 632.5,0 632.5,-36"/>
<text text-anchor="middle" x="577.5" y="-16.1" font-family="Arial" font-size="8.00" fill="#000000">imf:FunctionAspectObject</text>
</g>
<!-- http://ns.imfid.org/imf#FunctionAspectObject&#45;&gt;http://ns.imfid.org/imf#ActivityAspectObject -->
<g id="edge14" class="edge">
<title>http://ns.imfid.org/imf#FunctionAspectObject&#45;&gt;http://ns.imfid.org/imf#ActivityAspectObject</title>
<path fill="none" stroke="#000000" d="M522.128,-29.2681C507.2946,-34.6222 492.3774,-42.4825 481.5,-54 477.0023,-58.7624 473.9485,-64.9474 471.8754,-71.1994"/>
<polygon fill="#000000" stroke="#000000" points="468.4864,-70.3252 469.3584,-80.8841 475.2613,-72.0861 468.4864,-70.3252"/>
<text text-anchor="middle" x="508" y="-56.6" font-family="Arial" font-size="8.00" fill="#000000">imf:hasActivity</text>
</g>
<!-- http://ns.imfid.org/imf#FunctionAspectObject&#45;&gt;http://ns.imfid.org/imf#AspectObject -->
<g id="edge8" class="edge">
<title>http://ns.imfid.org/imf#FunctionAspectObject&#45;&gt;http://ns.imfid.org/imf#AspectObject</title>
<path fill="none" stroke="#000000" d="M574.0594,-36.2706C569.045,-62.8991 559.686,-112.5986 553.7911,-143.9023"/>
<polygon fill="none" stroke="#000000" points="550.3472,-143.2782 551.9361,-153.7532 557.2263,-144.5737 550.3472,-143.2782"/>
</g>
<!-- http://ns.imfid.org/imf#ProductAspectObject -->
<g id="node10" class="node">
<title>http://ns.imfid.org/imf#ProductAspectObject</title>
<polygon fill="none" stroke="#000000" points="684,-117 577,-117 577,-81 684,-81 684,-117"/>
<text text-anchor="middle" x="630.5" y="-97.1" font-family="Arial" font-size="8.00" fill="#000000">imf:ProductAspectObject</text>
</g>
<!-- http://ns.imfid.org/imf#FunctionAspectObject&#45;&gt;http://ns.imfid.org/imf#ProductAspectObject -->
<g id="edge2" class="edge">
<title>http://ns.imfid.org/imf#FunctionAspectObject&#45;&gt;http://ns.imfid.org/imf#ProductAspectObject</title>
<path fill="none" stroke="#000000" d="M589.5265,-36.3802C596.4871,-47.018 605.3695,-60.593 613.0835,-72.3824"/>
<polygon fill="#000000" stroke="#000000" points="610.2996,-74.5201 618.7036,-80.9716 616.1571,-70.6874 610.2996,-74.5201"/>
<text text-anchor="middle" x="633.5" y="-56.6" font-family="Arial" font-size="8.00" fill="#000000">imf:isFulfilledBy</text>
</g>
<!-- 907a60b4&#45;84a6&#45;4d22&#45;aec0&#45;9f3d907e9275 -->
<g id="node12" class="node">
<title>907a60b4&#45;84a6&#45;4d22&#45;aec0&#45;9f3d907e9275</title>
<polygon fill="#e5e5e5" stroke="#000000" stroke-dasharray="5,2" points="875,-112 702,-112 702,-86 875,-86 875,-112"/>
<text text-anchor="middle" x="788.5" y="-101.6" font-family="Arial" font-size="8.00" fill="#000000">owl:Restriction</text>
<text text-anchor="middle" x="788.5" y="-92.6" font-family="Arial" font-size="8.00" fill="#000000">,907a60b4&#45;84a6&#45;4d22&#45;aec0&#45;9f3d907e9275</text>
</g>
<!-- http://ns.imfid.org/imf#FunctionAspectObject&#45;&gt;907a60b4&#45;84a6&#45;4d22&#45;aec0&#45;9f3d907e9275 -->
<g id="edge15" class="edge">
<title>http://ns.imfid.org/imf#FunctionAspectObject&#45;&gt;907a60b4&#45;84a6&#45;4d22&#45;aec0&#45;9f3d907e9275</title>
<path fill="none" stroke="#000000" d="M624.5899,-36.0772C660.5604,-49.8858 709.7594,-68.7726 744.8482,-82.2427"/>
<polygon fill="none" stroke="#000000" points="743.7581,-85.5732 754.3482,-85.8896 746.2668,-79.0382 743.7581,-85.5732"/>
</g>
<!-- http://ns.imfid.org/imf#FunctionAspect -->
<g id="node6" class="node">
<title>http://ns.imfid.org/imf#FunctionAspect</title>
<polygon fill="none" stroke="#000000" points="185.5,-36 99.5,-36 99.5,0 185.5,0 185.5,-36"/>
<text text-anchor="middle" x="142.5" y="-16.1" font-family="Arial" font-size="8.00" fill="#000000">imf:FunctionAspect</text>
</g>
<!-- http://ns.imfid.org/imf#FunctionAspect&#45;&gt;http://ns.imfid.org/imf#Aspect -->
<g id="edge4" class="edge">
<title>http://ns.imfid.org/imf#FunctionAspect&#45;&gt;http://ns.imfid.org/imf#Aspect</title>
<path fill="none" stroke="#000000" stroke-dasharray="1,5" d="M154.2996,-36.3802C161.1289,-47.018 169.8436,-60.593 177.4122,-72.3824"/>
<polygon fill="#000000" stroke="#000000" points="174.5785,-74.4473 182.9262,-80.9716 180.4692,-70.6656 174.5785,-74.4473"/>
</g>
<!-- http://ns.imfid.org/imf#LocationAspect -->
<g id="node8" class="node">
<title>http://ns.imfid.org/imf#LocationAspect</title>
<polygon fill="none" stroke="#000000" points="289.5,-36 203.5,-36 203.5,0 289.5,0 289.5,-36"/>
<text text-anchor="middle" x="246.5" y="-16.1" font-family="Arial" font-size="8.00" fill="#000000">imf:LocationAspect</text>
</g>
<!-- http://ns.imfid.org/imf#LocationAspect&#45;&gt;http://ns.imfid.org/imf#Aspect -->
<g id="edge1" class="edge">
<title>http://ns.imfid.org/imf#LocationAspect&#45;&gt;http://ns.imfid.org/imf#Aspect</title>
<path fill="none" stroke="#000000" stroke-dasharray="1,5" d="M234.7004,-36.3802C227.8711,-47.018 219.1564,-60.593 211.5878,-72.3824"/>
<polygon fill="#000000" stroke="#000000" points="208.5308,-70.6656 206.0738,-80.9716 214.4215,-74.4473 208.5308,-70.6656"/>
</g>
<!-- http://ns.imfid.org/imf#AspectObject&#45;&gt;http://ns.imfid.org/imf#AspectObject -->
<g id="edge10" class="edge">
<title>http://ns.imfid.org/imf#AspectObject&#45;&gt;http://ns.imfid.org/imf#AspectObject</title>
<path fill="none" stroke="#000000" d="M588.0057,-165.3196C598.2644,-165.7302 606,-167.957 606,-172 606,-174.5269 602.9783,-176.3443 598.2074,-177.4522"/>
<polygon fill="#000000" stroke="#000000" points="597.5157,-174.0102 588.0057,-178.6804 598.3524,-180.96 597.5157,-174.0102"/>
<text text-anchor="middle" x="648" y="-170.1" font-family="Arial" font-size="8.00" fill="#000000">imf:interAspectRelation</text>
</g>
<!-- http://ns.imfid.org/imf#ProductAspectObject&#45;&gt;01c8785c&#45;0f48&#45;49b8&#45;9766&#45;3ae5fe32cb5c -->
<g id="edge7" class="edge">
<title>http://ns.imfid.org/imf#ProductAspectObject&#45;&gt;01c8785c&#45;0f48&#45;49b8&#45;9766&#45;3ae5fe32cb5c</title>
<path fill="none" stroke="#000000" d="M670.7921,-117.0449C696.5396,-128.576 729.7333,-143.4419 755.1033,-154.8039"/>
<polygon fill="none" stroke="#000000" points="753.8546,-158.0796 764.4117,-158.9727 756.7158,-151.691 753.8546,-158.0796"/>
</g>
<!-- http://ns.imfid.org/imf#ProductAspectObject&#45;&gt;http://ns.imfid.org/imf#AspectObject -->
<g id="edge3" class="edge">
<title>http://ns.imfid.org/imf#ProductAspectObject&#45;&gt;http://ns.imfid.org/imf#AspectObject</title>
<path fill="none" stroke="#000000" d="M610.2303,-117.0449C600.0788,-126.0823 587.6262,-137.1681 576.5709,-147.0101"/>
<polygon fill="none" stroke="#000000" points="573.9625,-144.6461 568.8207,-153.9096 578.617,-149.8745 573.9625,-144.6461"/>
</g>
<!-- http://ns.imfid.org/imf#ProductAspect -->
<g id="node14" class="node">
<title>http://ns.imfid.org/imf#ProductAspect</title>
<polygon fill="none" stroke="#000000" points="391,-36 308,-36 308,0 391,0 391,-36"/>
<text text-anchor="middle" x="349.5" y="-16.1" font-family="Arial" font-size="8.00" fill="#000000">imf:ProductAspect</text>
</g>
<!-- http://ns.imfid.org/imf#ProductAspect&#45;&gt;http://ns.imfid.org/imf#Aspect -->
<g id="edge11" class="edge">
<title>http://ns.imfid.org/imf#ProductAspect&#45;&gt;http://ns.imfid.org/imf#Aspect</title>
<path fill="none" stroke="#000000" stroke-dasharray="1,5" d="M314.715,-36.178C289.9129,-49.1391 256.6229,-66.5358 231.3636,-79.7358"/>
<polygon fill="#000000" stroke="#000000" points="229.6933,-76.6595 222.4515,-84.3931 232.9354,-82.8635 229.6933,-76.6595"/>
</g>
</g>
</svg>

