<?xml version="1.0" encoding="UTF-8" standalone="no"?>
<!DOCTYPE svg PUBLIC "-//W3C//DTD SVG 1.1//EN"
 "http://www.w3.org/Graphics/SVG/1.1/DTD/svg11.dtd">
<!-- Generated by graphviz version 2.40.1 (20161225.0304)
 -->
<!-- Title: urn:temp#graph Pages: 1 -->
<svg width="438px" height="125px"
 viewBox="0.00 0.00 437.50 125.00" xmlns="http://www.w3.org/2000/svg" xmlns:xlink="http://www.w3.org/1999/xlink">
<g id="graph0" class="graph" transform="scale(1.0 1.0) rotate(0) translate(4 121)">
<title>urn:temp#graph</title>
<polygon fill="#ffffff" stroke="transparent" points="-4,4 -4,-121 433.5,-121 433.5,4 -4,4"/>
<!-- http://ns.imfid.org/imf#IntegratedObject -->
<g id="node1" class="node">
<title>http://ns.imfid.org/imf#IntegratedObject</title>
<polygon fill="none" stroke="#000000" points="90,-117 0,-117 0,-81 90,-81 90,-117"/>
<text text-anchor="middle" x="45" y="-97.1" font-family="Arial" font-size="8.00" fill="#000000">imf:IntegratedObject</text>
</g>
<!-- http://ns.imfid.org/imf#Aspect -->
<g id="node2" class="node">
<title>http://ns.imfid.org/imf#Aspect</title>
<polygon fill="none" stroke="#000000" points="315.5,-117 260.5,-117 260.5,-81 315.5,-81 315.5,-117"/>
<text text-anchor="middle" x="288" y="-97.1" font-family="Arial" font-size="8.00" fill="#000000">imf:Aspect</text>
</g>
<!-- http://ns.imfid.org/imf#AspectObject -->
<g id="node3" class="node">
<title>http://ns.imfid.org/imf#AspectObject</title>
<polygon fill="none" stroke="#000000" points="122.5,-36 43.5,-36 43.5,0 122.5,0 122.5,-36"/>
<text text-anchor="middle" x="83" y="-16.1" font-family="Arial" font-size="8.00" fill="#000000">imf:AspectObject</text>
</g>
<!-- http://ns.imfid.org/imf#AspectObject&#45;&gt;http://ns.imfid.org/imf#IntegratedObject -->
<g id="edge1" class="edge">
<title>http://ns.imfid.org/imf#AspectObject&#45;&gt;http://ns.imfid.org/imf#IntegratedObject</title>
<path fill="none" stroke="#000000" d="M58.6402,-36.3289C53.549,-41.4454 48.8623,-47.4262 46,-54 43.7383,-59.1944 42.6774,-65.0559 42.3186,-70.7899"/>
<polygon fill="#000000" stroke="#000000" points="38.8185,-70.8037 42.3233,-80.8021 45.8185,-70.8004 38.8185,-70.8037"/>
<text text-anchor="middle" x="73" y="-56.6" font-family="Arial" font-size="8.00" fill="#000000">imf:isAspectOf</text>
</g>
<!-- http://ns.imfid.org/imf#AspectObject&#45;&gt;http://ns.imfid.org/imf#IntegratedObject -->
<g id="edge5" class="edge">
<title>http://ns.imfid.org/imf#AspectObject&#45;&gt;http://ns.imfid.org/imf#IntegratedObject</title>
<path fill="none" stroke="#000000" d="M96.8254,-36.0087C101.5486,-44.4396 104.6072,-54.478 100,-63 97.7722,-67.1207 94.8449,-70.8455 91.4996,-74.1954"/>
<polygon fill="#000000" stroke="#000000" points="87.628,-84.0876 81.1273,-76.4888 82.647,-75.1887 89.1478,-82.7875 87.628,-84.0876"/>
<polyline fill="none" stroke="#000000" points="83.6178,-80.9383 87.4172,-77.6879 "/>
<polygon fill="#000000" stroke="#000000" points="91.4274,-80.8372 84.9267,-73.2385 86.4464,-71.9383 92.9472,-79.5371 91.4274,-80.8372"/>
<polyline fill="none" stroke="#000000" points="87.4172,-77.6879 91.2165,-74.4376 "/>
<text text-anchor="middle" x="133.5" y="-56.6" font-family="Arial" font-size="8.00" fill="#000000">imf:isAspectOf 1</text>
</g>
<!-- http://ns.imfid.org/imf#AspectObject&#45;&gt;http://ns.imfid.org/imf#Aspect -->
<g id="edge2" class="edge">
<title>http://ns.imfid.org/imf#AspectObject&#45;&gt;http://ns.imfid.org/imf#Aspect</title>
<path fill="none" stroke="#000000" d="M122.5261,-33.6176C159.5359,-48.241 214.4295,-69.9307 250.7,-84.262"/>
<polygon fill="#000000" stroke="#000000" points="261.3134,-83.0794 257.6386,-92.3797 255.7785,-91.6447 259.4533,-82.3444 261.3134,-83.0794"/>
<polyline fill="none" stroke="#000000" points="260.406,-88.097 255.7559,-86.2596 "/>
<polygon fill="#000000" stroke="#000000" points="256.6632,-81.242 252.9884,-90.5423 251.1283,-89.8073 254.8032,-80.507 256.6632,-81.242"/>
<polyline fill="none" stroke="#000000" points="255.7559,-86.2596 251.1057,-84.4222 "/>
<text text-anchor="middle" x="221.5" y="-56.6" font-family="Arial" font-size="8.00" fill="#000000">imf:hasAspect 1</text>
</g>
<!-- http://ns.imfid.org/imf#AspectObject&#45;&gt;http://ns.imfid.org/imf#Aspect -->
<g id="edge6" class="edge">
<title>http://ns.imfid.org/imf#AspectObject&#45;&gt;http://ns.imfid.org/imf#Aspect</title>
<path fill="none" stroke="#000000" d="M122.7535,-22.9722C166.514,-29.0227 233.5191,-40.1651 255,-54 262.1014,-58.5737 268.1934,-65.2516 273.1398,-72.07"/>
<polygon fill="#000000" stroke="#000000" points="270.3578,-74.2092 278.7824,-80.6339 276.2031,-70.3578 270.3578,-74.2092"/>
<text text-anchor="middle" x="292" y="-56.6" font-family="Arial" font-size="8.00" fill="#000000">imf:hasAspect</text>
</g>
<!-- http://ns.imfid.org/imf#AspectObject&#45;&gt;http://ns.imfid.org/imf#AspectObject -->
<g id="edge3" class="edge">
<title>http://ns.imfid.org/imf#AspectObject&#45;&gt;http://ns.imfid.org/imf#AspectObject</title>
<path fill="none" stroke="#000000" d="M122.5057,-15.5258C132.7644,-15.6779 140.5,-16.5026 140.5,-18 140.5,-18.9359 137.4783,-19.609 132.7074,-20.0193"/>
<polygon fill="#000000" stroke="#000000" points="132.3399,-16.5322 122.5057,-20.4742 132.6517,-23.5252 132.3399,-16.5322"/>
<text text-anchor="middle" x="183" y="-16.1" font-family="Arial" font-size="8.00" fill="#000000">imf:hierarchicalRelation</text>
</g>
<!-- http://ns.imfid.org/imf#AspectObject&#45;&gt;http://ns.imfid.org/imf#AspectObject -->
<g id="edge4" class="edge">
<title>http://ns.imfid.org/imf#AspectObject&#45;&gt;http://ns.imfid.org/imf#AspectObject</title>
<path fill="none" stroke="#000000" d="M122.5109,-13.9064C165.8697,-11.8829 225.5,-13.2474 225.5,-18 225.5,-22.3906 174.608,-23.8896 132.6688,-22.497"/>
<polygon fill="#000000" stroke="#000000" points="132.642,-18.9933 122.5109,-22.0936 132.3641,-25.9877 132.642,-18.9933"/>
<text text-anchor="middle" x="267.5" y="-16.1" font-family="Arial" font-size="8.00" fill="#000000">imf:intraAspectRelation</text>
</g>
<!-- http://ns.imfid.org/imf#AspectObject&#45;&gt;http://ns.imfid.org/imf#AspectObject -->
<g id="edge7" class="edge">
<title>http://ns.imfid.org/imf#AspectObject&#45;&gt;http://ns.imfid.org/imf#AspectObject</title>
<path fill="none" stroke="#000000" d="M122.7553,-12.9061C189.6811,-8.47 309.5,-10.168 309.5,-18 309.5,-25.4496 201.0965,-27.3495 132.9171,-23.6998"/>
<polygon fill="#000000" stroke="#000000" points="132.9459,-20.1954 122.7553,-23.0939 132.5292,-27.183 132.9459,-20.1954"/>
<text text-anchor="middle" x="351.5" y="-16.1" font-family="Arial" font-size="8.00" fill="#000000">imf:associativeRelation</text>
</g>
</g>
</svg>

