<?xml version="1.0" encoding="UTF-8" standalone="no"?>
<!DOCTYPE svg PUBLIC "-//W3C//DTD SVG 1.1//EN"
 "http://www.w3.org/Graphics/SVG/1.1/DTD/svg11.dtd">
<!-- Generated by graphviz version 2.40.1 (20161225.0304)
 -->
<!-- Title: urn:temp#graph Pages: 1 -->
<svg width="438px" height="279px"
 viewBox="0.00 0.00 437.50 279.00" xmlns="http://www.w3.org/2000/svg" xmlns:xlink="http://www.w3.org/1999/xlink">
<g id="graph0" class="graph" transform="scale(1.0 1.0) rotate(0) translate(4 275)">
<title>urn:temp#graph</title>
<polygon fill="#ffffff" stroke="transparent" points="-4,4 -4,-275 433.5,-275 433.5,4 -4,4"/>
<!-- http://ns.imfid.org/imf#SystemBlock -->
<g id="node1" class="node">
<title>http://ns.imfid.org/imf#SystemBlock</title>
<polygon fill="none" stroke="#000000" points="77,-117 0,-117 0,-81 77,-81 77,-117"/>
<text text-anchor="middle" x="38.5" y="-97.1" font-family="Arial" font-size="8.00" fill="#000000">imf:SystemBlock</text>
</g>
<!-- http://ns.imfid.org/imf#AspectObject -->
<g id="node4" class="node">
<title>http://ns.imfid.org/imf#AspectObject</title>
<polygon fill="none" stroke="#000000" points="207,-271 128,-271 128,-235 207,-235 207,-271"/>
<text text-anchor="middle" x="167.5" y="-251.1" font-family="Arial" font-size="8.00" fill="#000000">imf:AspectObject</text>
</g>
<!-- http://ns.imfid.org/imf#SystemBlock&#45;&gt;http://ns.imfid.org/imf#AspectObject -->
<g id="edge6" class="edge">
<title>http://ns.imfid.org/imf#SystemBlock&#45;&gt;http://ns.imfid.org/imf#AspectObject</title>
<path fill="none" stroke="#000000" d="M53.8046,-117.2706C76.5952,-144.4779 119.5609,-195.7704 145.6515,-226.9173"/>
<polygon fill="none" stroke="#000000" points="143.1108,-229.3348 152.2153,-234.7532 148.477,-224.8398 143.1108,-229.3348"/>
</g>
<!-- http://ns.imfid.org/imf#Terminal -->
<g id="node5" class="node">
<title>http://ns.imfid.org/imf#Terminal</title>
<polygon fill="none" stroke="#000000" points="197.5,-198 137.5,-198 137.5,-162 197.5,-162 197.5,-198"/>
<text text-anchor="middle" x="167.5" y="-178.1" font-family="Arial" font-size="8.00" fill="#000000">imf:Terminal</text>
</g>
<!-- http://ns.imfid.org/imf#SystemBlock&#45;&gt;http://ns.imfid.org/imf#Terminal -->
<g id="edge9" class="edge">
<title>http://ns.imfid.org/imf#SystemBlock&#45;&gt;http://ns.imfid.org/imf#Terminal</title>
<path fill="none" stroke="#000000" d="M67.4501,-117.178C85.9567,-128.7984 110.1417,-143.9843 130.0973,-156.5146"/>
<polygon fill="#000000" stroke="#000000" points="128.3164,-159.5291 138.6465,-161.8827 132.0388,-153.6008 128.3164,-159.5291"/>
<text text-anchor="middle" x="136.5" y="-137.6" font-family="Arial" font-size="8.00" fill="#000000">imf:hasTerminal</text>
</g>
<!-- http://ns.imfid.org/imf#InterfacePoint -->
<g id="node2" class="node">
<title>http://ns.imfid.org/imf#InterfacePoint</title>
<polygon fill="none" stroke="#000000" points="361.5,-198 281.5,-198 281.5,-162 361.5,-162 361.5,-198"/>
<text text-anchor="middle" x="321.5" y="-178.1" font-family="Arial" font-size="8.00" fill="#000000">imf:InterfacePoint</text>
</g>
<!-- http://ns.imfid.org/imf#InputTerminal -->
<g id="node3" class="node">
<title>http://ns.imfid.org/imf#InputTerminal</title>
<polygon fill="none" stroke="#000000" points="298.5,-36 220.5,-36 220.5,0 298.5,0 298.5,-36"/>
<text text-anchor="middle" x="259.5" y="-16.1" font-family="Arial" font-size="8.00" fill="#000000">imf:InputTerminal</text>
</g>
<!-- http://ns.imfid.org/imf#InterfacePoint&#45;&gt;http://ns.imfid.org/imf#InputTerminal -->
<g id="edge10" class="edge">
<title>http://ns.imfid.org/imf#InterfacePoint&#45;&gt;http://ns.imfid.org/imf#InputTerminal</title>
<path fill="none" stroke="#000000" d="M281.0147,-162.2635C261.3269,-151.7377 238.8708,-136.5918 224.5,-117 190.4637,-70.5982 200.6506,-71.2761 209.5,-54 211.5863,-49.9271 214.3716,-46.2102 217.5641,-42.8439"/>
<polygon fill="#000000" stroke="#000000" points="220.9935,-32.9965 227.7037,-40.4109 226.2208,-41.7529 219.5106,-34.3385 220.9935,-32.9965"/>
<polyline fill="none" stroke="#000000" points="225.09,-36.0327 221.3828,-39.3878 "/>
<polygon fill="#000000" stroke="#000000" points="217.2863,-36.3516 223.9965,-43.766 222.5137,-45.1081 215.8034,-37.6937 217.2863,-36.3516"/>
<polyline fill="none" stroke="#000000" points="221.3828,-39.3878 217.6756,-42.7429 "/>
<text text-anchor="middle" x="265.5" y="-97.1" font-family="Arial" font-size="8.00" fill="#000000">imf:hasInputTerminal 1</text>
</g>
<!-- http://ns.imfid.org/imf#InterfacePoint&#45;&gt;http://ns.imfid.org/imf#AspectObject -->
<g id="edge5" class="edge">
<title>http://ns.imfid.org/imf#InterfacePoint&#45;&gt;http://ns.imfid.org/imf#AspectObject</title>
<path fill="none" stroke="#000000" d="M283.4326,-198.0449C262.7015,-207.872 236.8611,-220.1211 214.8406,-230.5593"/>
<polygon fill="none" stroke="#000000" points="213.2002,-227.4635 205.6632,-234.9096 216.1986,-233.7889 213.2002,-227.4635"/>
</g>
<!-- http://ns.imfid.org/imf#OutputTerminal -->
<g id="node6" class="node">
<title>http://ns.imfid.org/imf#OutputTerminal</title>
<polygon fill="none" stroke="#000000" points="400,-117 315,-117 315,-81 400,-81 400,-117"/>
<text text-anchor="middle" x="357.5" y="-97.1" font-family="Arial" font-size="8.00" fill="#000000">imf:OutputTerminal</text>
</g>
<!-- http://ns.imfid.org/imf#InterfacePoint&#45;&gt;http://ns.imfid.org/imf#OutputTerminal -->
<g id="edge2" class="edge">
<title>http://ns.imfid.org/imf#InterfacePoint&#45;&gt;http://ns.imfid.org/imf#OutputTerminal</title>
<path fill="none" stroke="#000000" d="M329.5126,-161.9716C334.1193,-151.6066 340.003,-138.3683 345.1858,-126.707"/>
<polygon fill="#000000" stroke="#000000" points="344.3558,-116.2632 353.494,-120.3247 352.6817,-122.1523 343.5435,-118.0909 344.3558,-116.2632"/>
<polyline fill="none" stroke="#000000" points="349.331,-117.3802 347.3003,-121.9492 "/>
<polygon fill="#000000" stroke="#000000" points="342.3251,-120.8323 351.4632,-124.8937 350.651,-126.7214 341.5128,-122.6599 342.3251,-120.8323"/>
<polyline fill="none" stroke="#000000" points="347.3003,-121.9492 345.2696,-126.5183 "/>
<text text-anchor="middle" x="385" y="-137.6" font-family="Arial" font-size="8.00" fill="#000000">imf:hasOutputTerminal 1</text>
</g>
<!-- http://ns.imfid.org/imf#InputTerminal&#45;&gt;http://ns.imfid.org/imf#Terminal -->
<g id="edge3" class="edge">
<title>http://ns.imfid.org/imf#InputTerminal&#45;&gt;http://ns.imfid.org/imf#Terminal</title>
<path fill="none" stroke="#000000" d="M251.1039,-36.2305C241.6475,-56.3603 225.5021,-89.5531 209.5,-117 202.3428,-129.2761 193.7409,-142.4183 186.1908,-153.5061"/>
<polygon fill="none" stroke="#000000" points="183.1981,-151.6809 180.4089,-161.902 188.9633,-155.6512 183.1981,-151.6809"/>
</g>
<!-- http://ns.imfid.org/imf#InputTerminal&#45;&gt;http://ns.imfid.org/imf#OutputTerminal -->
<g id="edge1" class="edge">
<title>http://ns.imfid.org/imf#InputTerminal&#45;&gt;http://ns.imfid.org/imf#OutputTerminal</title>
<path fill="none" stroke="#000000" d="M255.4413,-36.1393C254.5008,-44.9965 255.0605,-55.3616 260.5,-63 266.298,-71.1418 285.3864,-79.0081 305.1142,-85.2999"/>
<polygon fill="#000000" stroke="#000000" points="304.2084,-88.6828 314.7947,-88.2564 306.2531,-81.988 304.2084,-88.6828"/>
<text text-anchor="middle" x="298" y="-56.6" font-family="Arial" font-size="8.00" fill="#000000">imf:directlyPrecedes</text>
</g>
<!-- http://ns.imfid.org/imf#AspectObject&#45;&gt;http://ns.imfid.org/imf#AspectObject -->
<g id="edge4" class="edge">
<title>http://ns.imfid.org/imf#AspectObject&#45;&gt;http://ns.imfid.org/imf#AspectObject</title>
<path fill="none" stroke="#000000" d="M207.0057,-246.3196C217.2644,-246.7302 225,-248.957 225,-253 225,-255.5269 221.9783,-257.3443 217.2074,-258.4522"/>
<polygon fill="#000000" stroke="#000000" points="216.5157,-255.0102 207.0057,-259.6804 217.3524,-261.96 216.5157,-255.0102"/>
<text text-anchor="middle" x="246.5" y="-251.1" font-family="Arial" font-size="8.00" fill="#000000">imf:isPartOf</text>
</g>
<!-- http://ns.imfid.org/imf#Terminal&#45;&gt;http://ns.imfid.org/imf#AspectObject -->
<g id="edge12" class="edge">
<title>http://ns.imfid.org/imf#Terminal&#45;&gt;http://ns.imfid.org/imf#AspectObject</title>
<path fill="none" stroke="#000000" d="M167.5,-198.0449C167.5,-206.1172 167.5,-215.8236 167.5,-224.8183"/>
<polygon fill="none" stroke="#000000" points="164.0001,-224.9096 167.5,-234.9096 171.0001,-224.9097 164.0001,-224.9096"/>
</g>
<!-- http://ns.imfid.org/imf#Terminal&#45;&gt;http://ns.imfid.org/imf#Terminal -->
<g id="edge7" class="edge">
<title>http://ns.imfid.org/imf#Terminal&#45;&gt;http://ns.imfid.org/imf#Terminal</title>
<path fill="none" stroke="#000000" d="M197.5,-173.25C207.5,-173.25 215.5,-175.5 215.5,-180 215.5,-182.8125 212.375,-184.7461 207.5898,-185.8008"/>
<polygon fill="#000000" stroke="#000000" points="207.1282,-182.3287 197.5,-186.75 207.7839,-189.2979 207.1282,-182.3287"/>
<text text-anchor="middle" x="239.5" y="-178.1" font-family="Arial" font-size="8.00" fill="#000000">imf:precedes</text>
</g>
<!-- http://ns.imfid.org/imf#OutputTerminal&#45;&gt;http://ns.imfid.org/imf#InputTerminal -->
<g id="edge11" class="edge">
<title>http://ns.imfid.org/imf#OutputTerminal&#45;&gt;http://ns.imfid.org/imf#InputTerminal</title>
<path fill="none" stroke="#000000" d="M351.7561,-80.6023C348.2224,-71.6793 342.9243,-61.3333 335.5,-54 327.6268,-46.2234 317.7534,-39.896 307.7543,-34.8412"/>
<polygon fill="#000000" stroke="#000000" points="309.1308,-31.6211 298.59,-30.5518 306.1633,-37.961 309.1308,-31.6211"/>
<text text-anchor="middle" x="375.5" y="-56.6" font-family="Arial" font-size="8.00" fill="#000000">imf:isConnectedTo</text>
</g>
<!-- http://ns.imfid.org/imf#OutputTerminal&#45;&gt;http://ns.imfid.org/imf#Terminal -->
<g id="edge8" class="edge">
<title>http://ns.imfid.org/imf#OutputTerminal&#45;&gt;http://ns.imfid.org/imf#Terminal</title>
<path fill="none" stroke="#000000" d="M357.4817,-117.047C356.5015,-126.3216 353.6958,-137.0952 346.5,-144 341.4715,-148.8251 258.8597,-164.0131 207.6443,-173.0469"/>
<polygon fill="none" stroke="#000000" points="206.7856,-169.644 197.5417,-174.821 207.9964,-176.5385 206.7856,-169.644"/>
</g>
</g>
</svg>

