<?xml version="1.0" encoding="UTF-8" standalone="no"?>
<!DOCTYPE svg PUBLIC "-//W3C//DTD SVG 1.1//EN"
 "http://www.w3.org/Graphics/SVG/1.1/DTD/svg11.dtd">
<!-- Generated by graphviz version 2.40.1 (20161225.0304)
 -->
<!-- Title: urn:temp#graph Pages: 1 -->
<svg width="1444px" height="117px"
 viewBox="0.00 0.00 1443.50 117.00" xmlns="http://www.w3.org/2000/svg" xmlns:xlink="http://www.w3.org/1999/xlink">
<g id="graph0" class="graph" transform="scale(1.0 1.0) rotate(0) translate(4 113)">
<title>urn:temp#graph</title>
<polygon fill="#ffffff" stroke="transparent" points="-4,4 -4,-113 1439.5,-113 1439.5,4 -4,4"/>
<!-- http://ns.imfid.org/imf#InstalledAspect -->
<g id="node1" class="node">
<title>http://ns.imfid.org/imf#InstalledAspect</title>
<polygon fill="none" stroke="#000000" points="85,-36 0,-36 0,0 85,0 85,-36"/>
<text text-anchor="middle" x="42.5" y="-16.1" font-family="Arial" font-size="8.00" fill="#000000">imf:InstalledAspect</text>
</g>
<!-- http://ns.imfid.org/imf#Aspect -->
<g id="node8" class="node">
<title>http://ns.imfid.org/imf#Aspect</title>
<polygon fill="none" stroke="#000000" points="219,-109 164,-109 164,-73 219,-73 219,-109"/>
<text text-anchor="middle" x="191.5" y="-89.1" font-family="Arial" font-size="8.00" fill="#000000">imf:Aspect</text>
</g>
<!-- http://ns.imfid.org/imf#InstalledAspect&#45;&gt;http://ns.imfid.org/imf#Aspect -->
<g id="edge2" class="edge">
<title>http://ns.imfid.org/imf#InstalledAspect&#45;&gt;http://ns.imfid.org/imf#Aspect</title>
<path fill="none" stroke="#000000" stroke-dasharray="1,5" d="M79.3315,-36.0449C102.3572,-47.326 131.8976,-61.7988 154.8827,-73.06"/>
<polygon fill="#000000" stroke="#000000" points="153.4557,-76.2583 163.9757,-77.515 156.5355,-69.9722 153.4557,-76.2583"/>
</g>
<!-- http://ns.imfid.org/imf#LocationAspectObject -->
<g id="node2" class="node">
<title>http://ns.imfid.org/imf#LocationAspectObject</title>
<polygon fill="none" stroke="#000000" points="795.5,-36 685.5,-36 685.5,0 795.5,0 795.5,-36"/>
<text text-anchor="middle" x="740.5" y="-16.1" font-family="Arial" font-size="8.00" fill="#000000">imf:LocationAspectObject</text>
</g>
<!-- 9e2270f1&#45;4eb2&#45;4b38&#45;b815&#45;d86fca3ae492 -->
<g id="node9" class="node">
<title>9e2270f1&#45;4eb2&#45;4b38&#45;b815&#45;d86fca3ae492</title>
<polygon fill="#e5e5e5" stroke="#000000" stroke-dasharray="5,2" points="747.5,-102 523.5,-102 523.5,-80 747.5,-80 747.5,-102"/>
<text text-anchor="middle" x="635.5" y="-89.1" font-family="Arial" font-size="8.00" fill="#000000">9e2270f1&#45;4eb2&#45;4b38&#45;b815&#45;d86fca3ae492,owl:Restriction</text>
</g>
<!-- http://ns.imfid.org/imf#LocationAspectObject&#45;&gt;9e2270f1&#45;4eb2&#45;4b38&#45;b815&#45;d86fca3ae492 -->
<g id="edge5" class="edge">
<title>http://ns.imfid.org/imf#LocationAspectObject&#45;&gt;9e2270f1&#45;4eb2&#45;4b38&#45;b815&#45;d86fca3ae492</title>
<path fill="none" stroke="#000000" d="M714.5449,-36.0449C697.8405,-47.6585 676.2706,-62.6547 659.8842,-74.0472"/>
<polygon fill="none" stroke="#000000" points="657.5905,-71.3791 651.3777,-79.9612 661.5863,-77.1265 657.5905,-71.3791"/>
</g>
<!-- http://ns.imfid.org/imf#AspectObject -->
<g id="node10" class="node">
<title>http://ns.imfid.org/imf#AspectObject</title>
<polygon fill="none" stroke="#000000" points="845,-109 766,-109 766,-73 845,-73 845,-109"/>
<text text-anchor="middle" x="805.5" y="-89.1" font-family="Arial" font-size="8.00" fill="#000000">imf:AspectObject</text>
</g>
<!-- http://ns.imfid.org/imf#LocationAspectObject&#45;&gt;http://ns.imfid.org/imf#AspectObject -->
<g id="edge11" class="edge">
<title>http://ns.imfid.org/imf#LocationAspectObject&#45;&gt;http://ns.imfid.org/imf#AspectObject</title>
<path fill="none" stroke="#000000" d="M756.5674,-36.0449C764.4581,-44.9068 774.1026,-55.7384 782.737,-65.4354"/>
<polygon fill="none" stroke="#000000" points="780.1282,-67.7687 789.3921,-72.9096 785.3561,-63.1137 780.1282,-67.7687"/>
</g>
<!-- http://ns.imfid.org/imf#InstalledAspectObject -->
<g id="node3" class="node">
<title>http://ns.imfid.org/imf#InstalledAspectObject</title>
<polygon fill="none" stroke="#000000" points="562,-36 453,-36 453,0 562,0 562,-36"/>
<text text-anchor="middle" x="507.5" y="-16.1" font-family="Arial" font-size="8.00" fill="#000000">imf:InstalledAspectObject</text>
</g>
<!-- ea1961da&#45;74ab&#45;4803&#45;978b&#45;e087cefc2fa1 -->
<g id="node5" class="node">
<title>ea1961da&#45;74ab&#45;4803&#45;978b&#45;e087cefc2fa1</title>
<polygon fill="#e5e5e5" stroke="#000000" stroke-dasharray="5,2" points="505.5,-102 281.5,-102 281.5,-80 505.5,-80 505.5,-102"/>
<text text-anchor="middle" x="393.5" y="-89.1" font-family="Arial" font-size="8.00" fill="#000000">ea1961da&#45;74ab&#45;4803&#45;978b&#45;e087cefc2fa1,owl:Restriction</text>
</g>
<!-- http://ns.imfid.org/imf#InstalledAspectObject&#45;&gt;ea1961da&#45;74ab&#45;4803&#45;978b&#45;e087cefc2fa1 -->
<g id="edge13" class="edge">
<title>http://ns.imfid.org/imf#InstalledAspectObject&#45;&gt;ea1961da&#45;74ab&#45;4803&#45;978b&#45;e087cefc2fa1</title>
<path fill="none" stroke="#000000" d="M479.3202,-36.0449C461.0161,-47.766 437.3311,-62.9327 419.4815,-74.3627"/>
<polygon fill="none" stroke="#000000" points="417.2726,-71.621 410.7387,-79.9612 421.0475,-77.516 417.2726,-71.621"/>
</g>
<!-- http://ns.imfid.org/imf#InstalledAspectObject&#45;&gt;http://ns.imfid.org/imf#AspectObject -->
<g id="edge12" class="edge">
<title>http://ns.imfid.org/imf#InstalledAspectObject&#45;&gt;http://ns.imfid.org/imf#AspectObject</title>
<path fill="none" stroke="#000000" d="M562.4384,-27.9273C611.0692,-37.2117 684.0407,-52.3539 756.1047,-73.0835"/>
<polygon fill="none" stroke="#000000" points="755.2237,-76.4722 765.8035,-75.9094 757.1819,-69.7517 755.2237,-76.4722"/>
</g>
<!-- http://ns.imfid.org/imf#FunctionAspectObject -->
<g id="node4" class="node">
<title>http://ns.imfid.org/imf#FunctionAspectObject</title>
<polygon fill="none" stroke="#000000" points="1316.5,-36 1206.5,-36 1206.5,0 1316.5,0 1316.5,-36"/>
<text text-anchor="middle" x="1261.5" y="-16.1" font-family="Arial" font-size="8.00" fill="#000000">imf:FunctionAspectObject</text>
</g>
<!-- http://ns.imfid.org/imf#FunctionAspectObject&#45;&gt;http://ns.imfid.org/imf#AspectObject -->
<g id="edge7" class="edge">
<title>http://ns.imfid.org/imf#FunctionAspectObject&#45;&gt;http://ns.imfid.org/imf#AspectObject</title>
<path fill="none" stroke="#000000" d="M1206.4957,-26.8055C1116.9249,-41.1447 940.9406,-69.3176 855.0359,-83.0699"/>
<polygon fill="none" stroke="#000000" points="854.3391,-79.6368 845.0182,-84.6736 855.4457,-86.5488 854.3391,-79.6368"/>
</g>
<!-- 4b4e3ae7&#45;9193&#45;4f6b&#45;8c04&#45;6ec64aa96713 -->
<g id="node13" class="node">
<title>4b4e3ae7&#45;9193&#45;4f6b&#45;8c04&#45;6ec64aa96713</title>
<polygon fill="#e5e5e5" stroke="#000000" stroke-dasharray="5,2" points="1435.5,-102 1209.5,-102 1209.5,-80 1435.5,-80 1435.5,-102"/>
<text text-anchor="middle" x="1322.5" y="-89.1" font-family="Arial" font-size="8.00" fill="#000000">4b4e3ae7&#45;9193&#45;4f6b&#45;8c04&#45;6ec64aa96713,owl:Restriction</text>
</g>
<!-- http://ns.imfid.org/imf#FunctionAspectObject&#45;&gt;4b4e3ae7&#45;9193&#45;4f6b&#45;8c04&#45;6ec64aa96713 -->
<g id="edge9" class="edge">
<title>http://ns.imfid.org/imf#FunctionAspectObject&#45;&gt;4b4e3ae7&#45;9193&#45;4f6b&#45;8c04&#45;6ec64aa96713</title>
<path fill="none" stroke="#000000" d="M1276.5787,-36.0449C1285.6878,-46.946 1297.2873,-60.8274 1306.5492,-71.9113"/>
<polygon fill="none" stroke="#000000" points="1303.9982,-74.3169 1313.0962,-79.7463 1309.3697,-69.8284 1303.9982,-74.3169"/>
</g>
<!-- http://ns.imfid.org/imf#FunctionAspect -->
<g id="node6" class="node">
<title>http://ns.imfid.org/imf#FunctionAspect</title>
<polygon fill="none" stroke="#000000" points="189.5,-36 103.5,-36 103.5,0 189.5,0 189.5,-36"/>
<text text-anchor="middle" x="146.5" y="-16.1" font-family="Arial" font-size="8.00" fill="#000000">imf:FunctionAspect</text>
</g>
<!-- http://ns.imfid.org/imf#FunctionAspect&#45;&gt;http://ns.imfid.org/imf#Aspect -->
<g id="edge4" class="edge">
<title>http://ns.imfid.org/imf#FunctionAspect&#45;&gt;http://ns.imfid.org/imf#Aspect</title>
<path fill="none" stroke="#000000" stroke-dasharray="1,5" d="M157.6236,-36.0449C162.8701,-44.5559 169.2364,-54.8835 175.0276,-64.2781"/>
<polygon fill="#000000" stroke="#000000" points="172.1215,-66.2337 180.3484,-72.9096 178.0803,-62.5604 172.1215,-66.2337"/>
</g>
<!-- http://ns.imfid.org/imf#LocationAspect -->
<g id="node7" class="node">
<title>http://ns.imfid.org/imf#LocationAspect</title>
<polygon fill="none" stroke="#000000" points="293.5,-36 207.5,-36 207.5,0 293.5,0 293.5,-36"/>
<text text-anchor="middle" x="250.5" y="-16.1" font-family="Arial" font-size="8.00" fill="#000000">imf:LocationAspect</text>
</g>
<!-- http://ns.imfid.org/imf#LocationAspect&#45;&gt;http://ns.imfid.org/imf#Aspect -->
<g id="edge1" class="edge">
<title>http://ns.imfid.org/imf#LocationAspect&#45;&gt;http://ns.imfid.org/imf#Aspect</title>
<path fill="none" stroke="#000000" stroke-dasharray="1,5" d="M235.9157,-36.0449C228.8952,-44.7314 220.3452,-55.3102 212.6285,-64.858"/>
<polygon fill="#000000" stroke="#000000" points="209.6848,-62.9322 206.121,-72.9096 215.129,-67.3323 209.6848,-62.9322"/>
</g>
<!-- http://ns.imfid.org/imf#AspectObject&#45;&gt;http://ns.imfid.org/imf#AspectObject -->
<g id="edge8" class="edge">
<title>http://ns.imfid.org/imf#AspectObject&#45;&gt;http://ns.imfid.org/imf#AspectObject</title>
<path fill="none" stroke="#000000" d="M845.0057,-84.3196C855.2644,-84.7302 863,-86.957 863,-91 863,-93.5269 859.9783,-95.3443 855.2074,-96.4522"/>
<polygon fill="#000000" stroke="#000000" points="854.5157,-93.0102 845.0057,-97.6804 855.3524,-99.96 854.5157,-93.0102"/>
<text text-anchor="middle" x="905" y="-89.1" font-family="Arial" font-size="8.00" fill="#000000">imf:interAspectRelation</text>
</g>
<!-- http://ns.imfid.org/imf#ProductAspectObject -->
<g id="node11" class="node">
<title>http://ns.imfid.org/imf#ProductAspectObject</title>
<polygon fill="none" stroke="#000000" points="1020,-36 913,-36 913,0 1020,0 1020,-36"/>
<text text-anchor="middle" x="966.5" y="-16.1" font-family="Arial" font-size="8.00" fill="#000000">imf:ProductAspectObject</text>
</g>
<!-- http://ns.imfid.org/imf#ProductAspectObject&#45;&gt;http://ns.imfid.org/imf#AspectObject -->
<g id="edge3" class="edge">
<title>http://ns.imfid.org/imf#ProductAspectObject&#45;&gt;http://ns.imfid.org/imf#AspectObject</title>
<path fill="none" stroke="#000000" d="M926.7022,-36.0449C904.8503,-45.953 877.5682,-58.3231 854.4242,-68.817"/>
<polygon fill="none" stroke="#000000" points="852.7808,-65.7191 845.1186,-73.0363 855.6715,-72.0943 852.7808,-65.7191"/>
</g>
<!-- d3d65dbd&#45;44a5&#45;405c&#45;8c99&#45;409f3bd8a6aa -->
<g id="node12" class="node">
<title>d3d65dbd&#45;44a5&#45;405c&#45;8c99&#45;409f3bd8a6aa</title>
<polygon fill="#e5e5e5" stroke="#000000" stroke-dasharray="5,2" points="1191.5,-102 965.5,-102 965.5,-80 1191.5,-80 1191.5,-102"/>
<text text-anchor="middle" x="1078.5" y="-89.1" font-family="Arial" font-size="8.00" fill="#000000">d3d65dbd&#45;44a5&#45;405c&#45;8c99&#45;409f3bd8a6aa,owl:Restriction</text>
</g>
<!-- http://ns.imfid.org/imf#ProductAspectObject&#45;&gt;d3d65dbd&#45;44a5&#45;405c&#45;8c99&#45;409f3bd8a6aa -->
<g id="edge6" class="edge">
<title>http://ns.imfid.org/imf#ProductAspectObject&#45;&gt;d3d65dbd&#45;44a5&#45;405c&#45;8c99&#45;409f3bd8a6aa</title>
<path fill="none" stroke="#000000" d="M994.1854,-36.0449C1012.1684,-47.766 1035.4379,-62.9327 1052.9743,-74.3627"/>
<polygon fill="none" stroke="#000000" points="1051.275,-77.4329 1061.5637,-79.9612 1055.0973,-71.5686 1051.275,-77.4329"/>
</g>
<!-- http://ns.imfid.org/imf#ProductAspect -->
<g id="node14" class="node">
<title>http://ns.imfid.org/imf#ProductAspect</title>
<polygon fill="none" stroke="#000000" points="395,-36 312,-36 312,0 395,0 395,-36"/>
<text text-anchor="middle" x="353.5" y="-16.1" font-family="Arial" font-size="8.00" fill="#000000">imf:ProductAspect</text>
</g>
<!-- http://ns.imfid.org/imf#ProductAspect&#45;&gt;http://ns.imfid.org/imf#Aspect -->
<g id="edge10" class="edge">
<title>http://ns.imfid.org/imf#ProductAspect&#45;&gt;http://ns.imfid.org/imf#Aspect</title>
<path fill="none" stroke="#000000" stroke-dasharray="1,5" d="M313.455,-36.0449C287.5332,-47.7258 254.0173,-62.8286 228.6827,-74.2448"/>
<polygon fill="#000000" stroke="#000000" points="227.0856,-71.1255 219.4064,-78.4249 229.9615,-77.5075 227.0856,-71.1255"/>
</g>
</g>
</svg>

