<?xml version="1.0" encoding="UTF-8" standalone="no"?>
<!DOCTYPE svg PUBLIC "-//W3C//DTD SVG 1.1//EN"
 "http://www.w3.org/Graphics/SVG/1.1/DTD/svg11.dtd">
<!-- Generated by graphviz version 2.40.1 (20161225.0304)
 -->
<!-- Title: urn:temp#graph Pages: 1 -->
<svg width="1043px" height="198px"
 viewBox="0.00 0.00 1042.50 198.00" xmlns="http://www.w3.org/2000/svg" xmlns:xlink="http://www.w3.org/1999/xlink">
<g id="graph0" class="graph" transform="scale(1.0 1.0) rotate(0) translate(4 194)">
<title>urn:temp#graph</title>
<polygon fill="#ffffff" stroke="transparent" points="-4,4 -4,-194 1038.5,-194 1038.5,4 -4,4"/>
<!-- 45fa20ca&#45;781c&#45;4a5a&#45;aeeb&#45;bc16519cf353 -->
<g id="node1" class="node">
<title>45fa20ca&#45;781c&#45;4a5a&#45;aeeb&#45;bc16519cf353</title>
<polygon fill="#e5e5e5" stroke="#000000" stroke-dasharray="5,2" points="170,-185 0,-185 0,-159 170,-159 170,-185"/>
<text text-anchor="middle" x="85" y="-174.6" font-family="Arial" font-size="8.00" fill="#000000">owl:Restriction</text>
<text text-anchor="middle" x="85" y="-165.6" font-family="Arial" font-size="8.00" fill="#000000">,45fa20ca&#45;781c&#45;4a5a&#45;aeeb&#45;bc16519cf353</text>
</g>
<!-- http://ns.imfid.org/imf#ActivityAspect -->
<g id="node2" class="node">
<title>http://ns.imfid.org/imf#ActivityAspect</title>
<polygon fill="none" stroke="#000000" points="724.5,-36 643.5,-36 643.5,0 724.5,0 724.5,-36"/>
<text text-anchor="middle" x="684" y="-16.1" font-family="Arial" font-size="8.00" fill="#000000">imf:ActivityAspect</text>
</g>
<!-- http://ns.imfid.org/imf#Aspect -->
<g id="node9" class="node">
<title>http://ns.imfid.org/imf#Aspect</title>
<polygon fill="none" stroke="#000000" points="867.5,-117 812.5,-117 812.5,-81 867.5,-81 867.5,-117"/>
<text text-anchor="middle" x="840" y="-97.1" font-family="Arial" font-size="8.00" fill="#000000">imf:Aspect</text>
</g>
<!-- http://ns.imfid.org/imf#ActivityAspect&#45;&gt;http://ns.imfid.org/imf#Aspect -->
<g id="edge9" class="edge">
<title>http://ns.imfid.org/imf#ActivityAspect&#45;&gt;http://ns.imfid.org/imf#Aspect</title>
<path fill="none" stroke="#000000" stroke-dasharray="1,5" d="M719.0094,-36.178C744.1315,-49.2221 777.9062,-66.759 803.3864,-79.9891"/>
<polygon fill="#000000" stroke="#000000" points="801.8794,-83.1502 812.3672,-84.6522 805.1051,-76.9378 801.8794,-83.1502"/>
</g>
<!-- b7c55114&#45;852c&#45;48d8&#45;853c&#45;5ed4a22583a3 -->
<g id="node3" class="node">
<title>b7c55114&#45;852c&#45;48d8&#45;853c&#45;5ed4a22583a3</title>
<polygon fill="#e5e5e5" stroke="#000000" stroke-dasharray="5,2" points="362,-185 188,-185 188,-159 362,-159 362,-185"/>
<text text-anchor="middle" x="275" y="-174.6" font-family="Arial" font-size="8.00" fill="#000000">owl:Restriction</text>
<text text-anchor="middle" x="275" y="-165.6" font-family="Arial" font-size="8.00" fill="#000000">,b7c55114&#45;852c&#45;48d8&#45;853c&#45;5ed4a22583a3</text>
</g>
<!-- http://ns.imfid.org/imf#LocationAspectObject -->
<g id="node4" class="node">
<title>http://ns.imfid.org/imf#LocationAspectObject</title>
<polygon fill="none" stroke="#000000" points="204,-117 94,-117 94,-81 204,-81 204,-117"/>
<text text-anchor="middle" x="149" y="-97.1" font-family="Arial" font-size="8.00" fill="#000000">imf:LocationAspectObject</text>
</g>
<!-- http://ns.imfid.org/imf#LocationAspectObject&#45;&gt;45fa20ca&#45;781c&#45;4a5a&#45;aeeb&#45;bc16519cf353 -->
<g id="edge1" class="edge">
<title>http://ns.imfid.org/imf#LocationAspectObject&#45;&gt;45fa20ca&#45;781c&#45;4a5a&#45;aeeb&#45;bc16519cf353</title>
<path fill="none" stroke="#000000" d="M133.1798,-117.0449C124.0946,-127.4077 112.6483,-140.4637 103.1922,-151.2495"/>
<polygon fill="none" stroke="#000000" points="100.3817,-149.146 96.4212,-158.9727 105.6453,-153.7607 100.3817,-149.146"/>
</g>
<!-- http://ns.imfid.org/imf#AspectObject -->
<g id="node11" class="node">
<title>http://ns.imfid.org/imf#AspectObject</title>
<polygon fill="none" stroke="#000000" points="459.5,-190 380.5,-190 380.5,-154 459.5,-154 459.5,-190"/>
<text text-anchor="middle" x="420" y="-170.1" font-family="Arial" font-size="8.00" fill="#000000">imf:AspectObject</text>
</g>
<!-- http://ns.imfid.org/imf#LocationAspectObject&#45;&gt;http://ns.imfid.org/imf#AspectObject -->
<g id="edge13" class="edge">
<title>http://ns.imfid.org/imf#LocationAspectObject&#45;&gt;http://ns.imfid.org/imf#AspectObject</title>
<path fill="none" stroke="#000000" d="M204.1966,-110.9109C247.1878,-120.5884 308.474,-135.2574 370.691,-154.0665"/>
<polygon fill="none" stroke="#000000" points="369.6913,-157.4208 380.2776,-156.9959 371.7369,-150.7263 369.6913,-157.4208"/>
</g>
<!-- http://ns.imfid.org/imf#ActivityAspectObject -->
<g id="node5" class="node">
<title>http://ns.imfid.org/imf#ActivityAspectObject</title>
<polygon fill="none" stroke="#000000" points="391.5,-117 286.5,-117 286.5,-81 391.5,-81 391.5,-117"/>
<text text-anchor="middle" x="339" y="-97.1" font-family="Arial" font-size="8.00" fill="#000000">imf:ActivityAspectObject</text>
</g>
<!-- http://ns.imfid.org/imf#ActivityAspectObject&#45;&gt;b7c55114&#45;852c&#45;48d8&#45;853c&#45;5ed4a22583a3 -->
<g id="edge8" class="edge">
<title>http://ns.imfid.org/imf#ActivityAspectObject&#45;&gt;b7c55114&#45;852c&#45;48d8&#45;853c&#45;5ed4a22583a3</title>
<path fill="none" stroke="#000000" d="M323.1798,-117.0449C314.0946,-127.4077 302.6483,-140.4637 293.1922,-151.2495"/>
<polygon fill="none" stroke="#000000" points="290.3817,-149.146 286.4212,-158.9727 295.6453,-153.7607 290.3817,-149.146"/>
</g>
<!-- http://ns.imfid.org/imf#ActivityAspectObject&#45;&gt;http://ns.imfid.org/imf#AspectObject -->
<g id="edge14" class="edge">
<title>http://ns.imfid.org/imf#ActivityAspectObject&#45;&gt;http://ns.imfid.org/imf#AspectObject</title>
<path fill="none" stroke="#000000" d="M359.0225,-117.0449C369.0502,-126.0823 381.3509,-137.1681 392.2714,-147.0101"/>
<polygon fill="none" stroke="#000000" points="390.1556,-149.8148 399.9271,-153.9096 394.8419,-144.615 390.1556,-149.8148"/>
</g>
<!-- http://ns.imfid.org/imf#FunctionAspectObject -->
<g id="node6" class="node">
<title>http://ns.imfid.org/imf#FunctionAspectObject</title>
<polygon fill="none" stroke="#000000" points="504,-36 394,-36 394,0 504,0 504,-36"/>
<text text-anchor="middle" x="449" y="-16.1" font-family="Arial" font-size="8.00" fill="#000000">imf:FunctionAspectObject</text>
</g>
<!-- http://ns.imfid.org/imf#FunctionAspectObject&#45;&gt;http://ns.imfid.org/imf#ActivityAspectObject -->
<g id="edge15" class="edge">
<title>http://ns.imfid.org/imf#FunctionAspectObject&#45;&gt;http://ns.imfid.org/imf#ActivityAspectObject</title>
<path fill="none" stroke="#000000" d="M393.628,-29.2681C378.7946,-34.6222 363.8774,-42.4825 353,-54 348.5023,-58.7624 345.4485,-64.9474 343.3754,-71.1994"/>
<polygon fill="#000000" stroke="#000000" points="339.9864,-70.3252 340.8584,-80.8841 346.7613,-72.0861 339.9864,-70.3252"/>
<text text-anchor="middle" x="379.5" y="-56.6" font-family="Arial" font-size="8.00" fill="#000000">imf:hasActivity</text>
</g>
<!-- http://ns.imfid.org/imf#FunctionAspectObject&#45;&gt;http://ns.imfid.org/imf#AspectObject -->
<g id="edge7" class="edge">
<title>http://ns.imfid.org/imf#FunctionAspectObject&#45;&gt;http://ns.imfid.org/imf#AspectObject</title>
<path fill="none" stroke="#000000" d="M445.5594,-36.2706C440.545,-62.8991 431.186,-112.5986 425.2911,-143.9023"/>
<polygon fill="none" stroke="#000000" points="421.8472,-143.2782 423.4361,-153.7532 428.7263,-144.5737 421.8472,-143.2782"/>
</g>
<!-- http://ns.imfid.org/imf#ProductAspectObject -->
<g id="node12" class="node">
<title>http://ns.imfid.org/imf#ProductAspectObject</title>
<polygon fill="none" stroke="#000000" points="555.5,-117 448.5,-117 448.5,-81 555.5,-81 555.5,-117"/>
<text text-anchor="middle" x="502" y="-97.1" font-family="Arial" font-size="8.00" fill="#000000">imf:ProductAspectObject</text>
</g>
<!-- http://ns.imfid.org/imf#FunctionAspectObject&#45;&gt;http://ns.imfid.org/imf#ProductAspectObject -->
<g id="edge4" class="edge">
<title>http://ns.imfid.org/imf#FunctionAspectObject&#45;&gt;http://ns.imfid.org/imf#ProductAspectObject</title>
<path fill="none" stroke="#000000" d="M461.0265,-36.3802C467.9871,-47.018 476.8695,-60.593 484.5835,-72.3824"/>
<polygon fill="#000000" stroke="#000000" points="481.7996,-74.5201 490.2036,-80.9716 487.6571,-70.6874 481.7996,-74.5201"/>
<text text-anchor="middle" x="506" y="-56.6" font-family="Arial" font-size="8.00" fill="#000000">imf:isFulfilledBy</text>
</g>
<!-- 07f2ad48&#45;03c1&#45;47be&#45;b836&#45;1b52f6b85893 -->
<g id="node13" class="node">
<title>07f2ad48&#45;03c1&#45;47be&#45;b836&#45;1b52f6b85893</title>
<polygon fill="#e5e5e5" stroke="#000000" stroke-dasharray="5,2" points="744,-112 574,-112 574,-86 744,-86 744,-112"/>
<text text-anchor="middle" x="659" y="-101.6" font-family="Arial" font-size="8.00" fill="#000000">owl:Restriction</text>
<text text-anchor="middle" x="659" y="-92.6" font-family="Arial" font-size="8.00" fill="#000000">,07f2ad48&#45;03c1&#45;47be&#45;b836&#45;1b52f6b85893</text>
</g>
<!-- http://ns.imfid.org/imf#FunctionAspectObject&#45;&gt;07f2ad48&#45;03c1&#45;47be&#45;b836&#45;1b52f6b85893 -->
<g id="edge11" class="edge">
<title>http://ns.imfid.org/imf#FunctionAspectObject&#45;&gt;07f2ad48&#45;03c1&#45;47be&#45;b836&#45;1b52f6b85893</title>
<path fill="none" stroke="#000000" d="M495.8667,-36.0772C531.6668,-49.8858 580.6326,-68.7726 615.5551,-82.2427"/>
<polygon fill="none" stroke="#000000" points="614.4204,-85.5563 625.01,-85.8896 616.9396,-79.0253 614.4204,-85.5563"/>
</g>
<!-- http://ns.imfid.org/imf#LocationAspect -->
<g id="node7" class="node">
<title>http://ns.imfid.org/imf#LocationAspect</title>
<polygon fill="none" stroke="#000000" points="829,-36 743,-36 743,0 829,0 829,-36"/>
<text text-anchor="middle" x="786" y="-16.1" font-family="Arial" font-size="8.00" fill="#000000">imf:LocationAspect</text>
</g>
<!-- http://ns.imfid.org/imf#LocationAspect&#45;&gt;http://ns.imfid.org/imf#Aspect -->
<g id="edge2" class="edge">
<title>http://ns.imfid.org/imf#LocationAspect&#45;&gt;http://ns.imfid.org/imf#Aspect</title>
<path fill="none" stroke="#000000" stroke-dasharray="1,5" d="M798.2534,-36.3802C805.3454,-47.018 814.3953,-60.593 822.2549,-72.3824"/>
<polygon fill="#000000" stroke="#000000" points="819.5218,-74.5926 827.9811,-80.9716 825.3462,-70.7096 819.5218,-74.5926"/>
</g>
<!-- http://ns.imfid.org/imf#FunctionAspect -->
<g id="node8" class="node">
<title>http://ns.imfid.org/imf#FunctionAspect</title>
<polygon fill="none" stroke="#000000" points="933,-36 847,-36 847,0 933,0 933,-36"/>
<text text-anchor="middle" x="890" y="-16.1" font-family="Arial" font-size="8.00" fill="#000000">imf:FunctionAspect</text>
</g>
<!-- http://ns.imfid.org/imf#FunctionAspect&#45;&gt;http://ns.imfid.org/imf#Aspect -->
<g id="edge6" class="edge">
<title>http://ns.imfid.org/imf#FunctionAspect&#45;&gt;http://ns.imfid.org/imf#Aspect</title>
<path fill="none" stroke="#000000" stroke-dasharray="1,5" d="M878.6542,-36.3802C872.0876,-47.018 863.7081,-60.593 856.4306,-72.3824"/>
<polygon fill="#000000" stroke="#000000" points="853.4031,-70.6238 851.1286,-80.9716 859.3597,-74.3007 853.4031,-70.6238"/>
</g>
<!-- 37446910&#45;cad1&#45;4f6d&#45;b685&#45;ec664ad600f3 -->
<g id="node10" class="node">
<title>37446910&#45;cad1&#45;4f6d&#45;b685&#45;ec664ad600f3</title>
<polygon fill="#e5e5e5" stroke="#000000" stroke-dasharray="5,2" points="750,-185 580,-185 580,-159 750,-159 750,-185"/>
<text text-anchor="middle" x="665" y="-174.6" font-family="Arial" font-size="8.00" fill="#000000">owl:Restriction</text>
<text text-anchor="middle" x="665" y="-165.6" font-family="Arial" font-size="8.00" fill="#000000">,37446910&#45;cad1&#45;4f6d&#45;b685&#45;ec664ad600f3</text>
</g>
<!-- http://ns.imfid.org/imf#AspectObject&#45;&gt;http://ns.imfid.org/imf#AspectObject -->
<g id="edge10" class="edge">
<title>http://ns.imfid.org/imf#AspectObject&#45;&gt;http://ns.imfid.org/imf#AspectObject</title>
<path fill="none" stroke="#000000" d="M459.5057,-165.3196C469.7644,-165.7302 477.5,-167.957 477.5,-172 477.5,-174.5269 474.4783,-176.3443 469.7074,-177.4522"/>
<polygon fill="#000000" stroke="#000000" points="469.0157,-174.0102 459.5057,-178.6804 469.8524,-180.96 469.0157,-174.0102"/>
<text text-anchor="middle" x="519.5" y="-170.1" font-family="Arial" font-size="8.00" fill="#000000">imf:interAspectRelation</text>
</g>
<!-- http://ns.imfid.org/imf#ProductAspectObject&#45;&gt;37446910&#45;cad1&#45;4f6d&#45;b685&#45;ec664ad600f3 -->
<g id="edge3" class="edge">
<title>http://ns.imfid.org/imf#ProductAspectObject&#45;&gt;37446910&#45;cad1&#45;4f6d&#45;b685&#45;ec664ad600f3</title>
<path fill="none" stroke="#000000" d="M542.2921,-117.0449C568.0396,-128.576 601.2333,-143.4419 626.6033,-154.8039"/>
<polygon fill="none" stroke="#000000" points="625.3546,-158.0796 635.9117,-158.9727 628.2158,-151.691 625.3546,-158.0796"/>
</g>
<!-- http://ns.imfid.org/imf#ProductAspectObject&#45;&gt;http://ns.imfid.org/imf#AspectObject -->
<g id="edge5" class="edge">
<title>http://ns.imfid.org/imf#ProductAspectObject&#45;&gt;http://ns.imfid.org/imf#AspectObject</title>
<path fill="none" stroke="#000000" d="M481.7303,-117.0449C471.5788,-126.0823 459.1262,-137.1681 448.0709,-147.0101"/>
<polygon fill="none" stroke="#000000" points="445.4625,-144.6461 440.3207,-153.9096 450.117,-149.8745 445.4625,-144.6461"/>
</g>
<!-- http://ns.imfid.org/imf#ProductAspect -->
<g id="node14" class="node">
<title>http://ns.imfid.org/imf#ProductAspect</title>
<polygon fill="none" stroke="#000000" points="1034.5,-36 951.5,-36 951.5,0 1034.5,0 1034.5,-36"/>
<text text-anchor="middle" x="993" y="-16.1" font-family="Arial" font-size="8.00" fill="#000000">imf:ProductAspect</text>
</g>
<!-- http://ns.imfid.org/imf#ProductAspect&#45;&gt;http://ns.imfid.org/imf#Aspect -->
<g id="edge12" class="edge">
<title>http://ns.imfid.org/imf#ProductAspect&#45;&gt;http://ns.imfid.org/imf#Aspect</title>
<path fill="none" stroke="#000000" stroke-dasharray="1,5" d="M958.6638,-36.178C934.2892,-49.0822 901.6094,-66.3833 876.7165,-79.5618"/>
<polygon fill="#000000" stroke="#000000" points="874.7911,-76.6209 867.5909,-84.3931 878.0664,-82.8074 874.7911,-76.6209"/>
</g>
</g>
</svg>

