<?xml version="1.0" encoding="UTF-8" standalone="no"?>
<!DOCTYPE svg PUBLIC "-//W3C//DTD SVG 1.1//EN"
 "http://www.w3.org/Graphics/SVG/1.1/DTD/svg11.dtd">
<!-- Generated by graphviz version 2.40.1 (20161225.0304)
 -->
<!-- Title: urn:temp#graph Pages: 1 -->
<svg width="908px" height="115px"
 viewBox="0.00 0.00 907.85 114.87" xmlns="http://www.w3.org/2000/svg" xmlns:xlink="http://www.w3.org/1999/xlink">
<g id="graph0" class="graph" transform="scale(1.0 1.0) rotate(0) translate(4 110.8651)">
<title>urn:temp#graph</title>
<polygon fill="#ffffff" stroke="transparent" points="-4,4 -4,-110.8651 903.8505,-110.8651 903.8505,4 -4,4"/>
<!-- http://ns.imfid.org/ontology/20220701/imf&#45;aspects -->
<g id="node1" class="node">
<title>http://ns.imfid.org/ontology/20220701/imf&#45;aspects</title>
<ellipse fill="none" stroke="#000000" cx="337.7654" cy="-88.8651" rx="110.7191" ry="18"/>
<text text-anchor="middle" x="337.7654" y="-86.9651" font-family="Arial" font-size="8.00" fill="#000000">http://ns.imfid.org/ontology/20220701/imf&#45;aspects</text>
</g>
<!-- http://ns.imfid.org/ontology/20220701/imf&#45;top -->
<g id="node5" class="node">
<title>http://ns.imfid.org/ontology/20220701/imf&#45;top</title>
<ellipse fill="none" stroke="#000000" cx="591.0138" cy="-34.8651" rx="100.2989" ry="18"/>
<text text-anchor="middle" x="591.0138" y="-32.9651" font-family="Arial" font-size="8.00" fill="#000000">http://ns.imfid.org/ontology/20220701/imf&#45;top</text>
</g>
<!-- http://ns.imfid.org/ontology/20220701/imf&#45;aspects&#45;&gt;http://ns.imfid.org/ontology/20220701/imf&#45;top -->
<g id="edge3" class="edge">
<title>http://ns.imfid.org/ontology/20220701/imf&#45;aspects&#45;&gt;http://ns.imfid.org/ontology/20220701/imf&#45;top</title>
<path fill="none" stroke="#000000" d="M404.9664,-74.5358C439.1091,-67.2556 480.7063,-58.3859 515.9024,-50.881"/>
<polygon fill="#000000" stroke="#000000" points="517.0746,-54.2098 526.1249,-48.7013 515.6148,-47.3637 517.0746,-54.2098"/>
</g>
<!-- http://ns.imfid.org/ontology/20220701/imf&#45;metamodel -->
<g id="node2" class="node">
<title>http://ns.imfid.org/ontology/20220701/imf&#45;metamodel</title>
<ellipse fill="none" stroke="#000000" cx="337.7654" cy="-34.8651" rx="116.6982" ry="18"/>
<text text-anchor="middle" x="337.7654" y="-32.9651" font-family="Arial" font-size="8.00" fill="#000000">http://ns.imfid.org/ontology/20220701/imf&#45;metamodel</text>
</g>
<!-- http://ns.imfid.org/ontology/20220701/imf&#45;metamodel&#45;&gt;http://ns.imfid.org/ontology/20220701/imf&#45;top -->
<g id="edge4" class="edge">
<title>http://ns.imfid.org/ontology/20220701/imf&#45;metamodel&#45;&gt;http://ns.imfid.org/ontology/20220701/imf&#45;top</title>
<path fill="none" stroke="#000000" d="M454.7526,-34.8651C463.2294,-34.8651 471.764,-34.8651 480.2034,-34.8651"/>
<polygon fill="#000000" stroke="#000000" points="480.4402,-38.3652 490.4402,-34.8651 480.4401,-31.3652 480.4402,-38.3652"/>
</g>
<!-- http://www.w3.org/2004/02/skos/core -->
<g id="node3" class="node">
<title>http://www.w3.org/2004/02/skos/core</title>
<ellipse fill="none" stroke="#000000" cx="813.6318" cy="-34.8651" rx="86.4379" ry="18"/>
<text text-anchor="middle" x="813.6318" y="-32.9651" font-family="Arial" font-size="8.00" fill="#000000">http://www.w3.org/2004/02/skos/core</text>
</g>
<!-- http://ns.imfid.org/ontology/20220701/imf -->
<g id="node4" class="node">
<title>http://ns.imfid.org/ontology/20220701/imf</title>
<ellipse fill="none" stroke="#000000" cx="92.4582" cy="-34.8651" rx="92.4164" ry="18"/>
<text text-anchor="middle" x="92.4582" y="-32.9651" font-family="Arial" font-size="8.00" fill="#000000">http://ns.imfid.org/ontology/20220701/imf</text>
</g>
<!-- http://ns.imfid.org/ontology/20220701/imf&#45;&gt;http://ns.imfid.org/ontology/20220701/imf&#45;aspects -->
<g id="edge1" class="edge">
<title>http://ns.imfid.org/ontology/20220701/imf&#45;&gt;http://ns.imfid.org/ontology/20220701/imf&#45;aspects</title>
<path fill="none" stroke="#000000" d="M153.7268,-48.3523C186.4045,-55.5457 226.9145,-64.4632 261.602,-72.0991"/>
<polygon fill="#000000" stroke="#000000" points="261.1723,-75.5882 271.691,-74.32 262.6773,-68.7519 261.1723,-75.5882"/>
</g>
<!-- http://ns.imfid.org/ontology/20220701/imf&#45;&gt;http://ns.imfid.org/ontology/20220701/imf&#45;metamodel -->
<g id="edge2" class="edge">
<title>http://ns.imfid.org/ontology/20220701/imf&#45;&gt;http://ns.imfid.org/ontology/20220701/imf&#45;metamodel</title>
<path fill="none" stroke="#000000" d="M185.1983,-34.8651C193.5849,-34.8651 202.1701,-34.8651 210.7839,-34.8651"/>
<polygon fill="#000000" stroke="#000000" points="210.8986,-38.3652 220.8986,-34.8651 210.8985,-31.3652 210.8986,-38.3652"/>
</g>
<!-- http://ns.imfid.org/ontology/20220701/imf&#45;&gt;http://ns.imfid.org/ontology/20220701/imf&#45;top -->
<g id="edge6" class="edge">
<title>http://ns.imfid.org/ontology/20220701/imf&#45;&gt;http://ns.imfid.org/ontology/20220701/imf&#45;top</title>
<path fill="none" stroke="#000000" d="M148.3363,-20.4915C170.7359,-15.4212 196.8894,-10.3628 220.9164,-7.8651 324.2254,2.8746 351.244,2.2676 454.6144,-7.8651 476.3915,-9.9997 499.8477,-14.0078 521.0637,-18.2949"/>
<polygon fill="#000000" stroke="#000000" points="520.4572,-21.7435 530.9595,-20.3465 521.8783,-14.8893 520.4572,-21.7435"/>
</g>
<!-- http://ns.imfid.org/ontology/20220701/imf&#45;top&#45;&gt;http://www.w3.org/2004/02/skos/core -->
<g id="edge5" class="edge">
<title>http://ns.imfid.org/ontology/20220701/imf&#45;top&#45;&gt;http://www.w3.org/2004/02/skos/core</title>
<path fill="none" stroke="#000000" d="M691.5764,-34.8651C700.0139,-34.8651 708.5346,-34.8651 716.9421,-34.8651"/>
<polygon fill="#000000" stroke="#000000" points="717.1281,-38.3652 727.128,-34.8651 717.128,-31.3652 717.1281,-38.3652"/>
</g>
</g>
</svg>

