<?xml version="1.0" encoding="UTF-8" standalone="no"?>
<!DOCTYPE svg PUBLIC "-//W3C//DTD SVG 1.1//EN"
 "http://www.w3.org/Graphics/SVG/1.1/DTD/svg11.dtd">
<!-- Generated by graphviz version 2.43.0 (0)
 -->
<!-- Title: urn:temp#graph Pages: 1 -->
<svg width="600px" height="115px"
 viewBox="0.00 0.00 599.58 115.48" xmlns="http://www.w3.org/2000/svg" xmlns:xlink="http://www.w3.org/1999/xlink">
<g id="graph0" class="graph" transform="scale(1.0 1.0) rotate(0) translate(4 111.48)">
<title>urn:temp#graph</title>
<polygon fill="white" stroke="transparent" points="-4,4 -4,-111.48 595.58,-111.48 595.58,4 -4,4"/>
<!-- http://ns.imfid.org/20221118/imf&#45;aspects -->
<g id="node1" class="node">
<title>http://ns.imfid.org/20221118/imf&#45;aspects</title>
<ellipse fill="none" stroke="black" cx="287.85" cy="-89.48" rx="89.74" ry="18"/>
<text text-anchor="middle" x="287.85" y="-87.58" font-family="Arial" font-size="8.00">http://ns.imfid.org/20221118/imf&#45;aspects</text>
</g>
<!-- http://ns.imfid.org/20221118/imf&#45;top -->
<g id="node4" class="node">
<title>http://ns.imfid.org/20221118/imf&#45;top</title>
<ellipse fill="none" stroke="black" cx="511.03" cy="-35.48" rx="80.59" ry="18"/>
<text text-anchor="middle" x="511.03" y="-33.58" font-family="Arial" font-size="8.00">http://ns.imfid.org/20221118/imf&#45;top</text>
</g>
<!-- http://ns.imfid.org/20221118/imf&#45;aspects&#45;&gt;http://ns.imfid.org/20221118/imf&#45;top -->
<g id="edge4" class="edge">
<title>http://ns.imfid.org/20221118/imf&#45;aspects&#45;&gt;http://ns.imfid.org/20221118/imf&#45;top</title>
<path fill="none" stroke="black" d="M345.52,-75.64C376.13,-68.17 414.03,-58.92 445.74,-51.17"/>
<polygon fill="black" stroke="black" points="446.91,-54.49 455.8,-48.72 445.25,-47.69 446.91,-54.49"/>
</g>
<!-- http://ns.imfid.org/20221118/imf -->
<g id="node2" class="node">
<title>http://ns.imfid.org/20221118/imf</title>
<ellipse fill="none" stroke="black" cx="72.61" cy="-35.48" rx="72.71" ry="18"/>
<text text-anchor="middle" x="72.61" y="-33.58" font-family="Arial" font-size="8.00">http://ns.imfid.org/20221118/imf</text>
</g>
<!-- http://ns.imfid.org/20221118/imf&#45;&gt;http://ns.imfid.org/20221118/imf&#45;aspects -->
<g id="edge1" class="edge">
<title>http://ns.imfid.org/20221118/imf&#45;&gt;http://ns.imfid.org/20221118/imf&#45;aspects</title>
<path fill="none" stroke="black" d="M124.14,-48.27C153.26,-55.65 190.18,-65 221.48,-72.92"/>
<polygon fill="black" stroke="black" points="220.88,-76.38 231.44,-75.44 222.6,-69.6 220.88,-76.38"/>
</g>
<!-- http://ns.imfid.org/20221118/imf&#45;systemelements -->
<g id="node3" class="node">
<title>http://ns.imfid.org/20221118/imf&#45;systemelements</title>
<ellipse fill="none" stroke="black" cx="287.85" cy="-35.48" rx="106.78" ry="18"/>
<text text-anchor="middle" x="287.85" y="-33.58" font-family="Arial" font-size="8.00">http://ns.imfid.org/20221118/imf&#45;systemelements</text>
</g>
<!-- http://ns.imfid.org/20221118/imf&#45;&gt;http://ns.imfid.org/20221118/imf&#45;systemelements -->
<g id="edge5" class="edge">
<title>http://ns.imfid.org/20221118/imf&#45;&gt;http://ns.imfid.org/20221118/imf&#45;systemelements</title>
<path fill="none" stroke="black" d="M145.5,-35.48C153.76,-35.48 162.33,-35.48 170.98,-35.48"/>
<polygon fill="black" stroke="black" points="171.15,-38.98 181.15,-35.48 171.15,-31.98 171.15,-38.98"/>
</g>
<!-- http://ns.imfid.org/20221118/imf&#45;&gt;http://ns.imfid.org/20221118/imf&#45;top -->
<g id="edge3" class="edge">
<title>http://ns.imfid.org/20221118/imf&#45;&gt;http://ns.imfid.org/20221118/imf&#45;top</title>
<path fill="none" stroke="black" d="M118.69,-21.54C137.77,-16.33 160.37,-11.05 181.21,-8.48 275.29,3.15 300.32,2.38 394.49,-8.48 413.05,-10.62 432.96,-14.63 450.94,-18.92"/>
<polygon fill="black" stroke="black" points="450.16,-22.33 460.71,-21.32 451.83,-15.54 450.16,-22.33"/>
</g>
<!-- http://ns.imfid.org/20221118/imf&#45;systemelements&#45;&gt;http://ns.imfid.org/20221118/imf&#45;top -->
<g id="edge2" class="edge">
<title>http://ns.imfid.org/20221118/imf&#45;systemelements&#45;&gt;http://ns.imfid.org/20221118/imf&#45;top</title>
<path fill="none" stroke="black" d="M394.58,-35.48C403.11,-35.48 411.68,-35.48 420.08,-35.48"/>
<polygon fill="black" stroke="black" points="420.23,-38.98 430.23,-35.48 420.23,-31.98 420.23,-38.98"/>
</g>
</g>
</svg>

