<?xml version="1.0" encoding="UTF-8" standalone="no"?>
<!DOCTYPE svg PUBLIC "-//W3C//DTD SVG 1.1//EN"
 "http://www.w3.org/Graphics/SVG/1.1/DTD/svg11.dtd">
<!-- Generated by graphviz version 2.43.0 (0)
 -->
<!-- Title: urn:temp#graph Pages: 1 -->
<svg width="3119px" height="206px"
 viewBox="0.00 0.00 3119.00 206.00" xmlns="http://www.w3.org/2000/svg" xmlns:xlink="http://www.w3.org/1999/xlink">
<g id="graph0" class="graph" transform="scale(1.0 1.0) rotate(0) translate(4 202)">
<title>urn:temp#graph</title>
<polygon fill="white" stroke="transparent" points="-4,4 -4,-202 3115,-202 3115,4 -4,4"/>
<!-- 4bb1a5a9&#45;d52b&#45;4d39&#45;a973&#45;3cc439bfb704 -->
<g id="node1" class="node">
<title>4bb1a5a9&#45;d52b&#45;4d39&#45;a973&#45;3cc439bfb704</title>
<polygon fill="#e5e5e5" stroke="black" stroke-dasharray="5,2" points="256.5,-112 85.5,-112 85.5,-86 256.5,-86 256.5,-112"/>
<text text-anchor="middle" x="171" y="-101.6" font-family="Arial" font-size="8.00">owl:Restriction</text>
<text text-anchor="middle" x="171" y="-92.6" font-family="Arial" font-size="8.00">,4bb1a5a9&#45;d52b&#45;4d39&#45;a973&#45;3cc439bfb704</text>
</g>
<!-- http://ns.imfid.org/imf#BreakdownPoint -->
<g id="node2" class="node">
<title>http://ns.imfid.org/imf#BreakdownPoint</title>
<polygon fill="none" stroke="black" points="363,-117 275,-117 275,-81 363,-81 363,-117"/>
<text text-anchor="middle" x="319" y="-97.1" font-family="Arial" font-size="8.00">imf:BreakdownPoint</text>
</g>
<!-- http://ns.imfid.org/imf#Element -->
<g id="node4" class="node">
<title>http://ns.imfid.org/imf#Element</title>
<polygon fill="none" stroke="black" points="432.5,-198 373.5,-198 373.5,-162 432.5,-162 432.5,-198"/>
<text text-anchor="middle" x="403" y="-178.1" font-family="Arial" font-size="8.00">imf:Element</text>
</g>
<!-- http://ns.imfid.org/imf#BreakdownPoint&#45;&gt;http://ns.imfid.org/imf#Element -->
<g id="edge13" class="edge">
<title>http://ns.imfid.org/imf#BreakdownPoint&#45;&gt;http://ns.imfid.org/imf#Element</title>
<path fill="none" stroke="black" d="M322.63,-117.42C325.17,-126.21 329.34,-136.55 336,-144 340.42,-148.95 351.82,-155.46 363.99,-161.52"/>
<polygon fill="black" stroke="black" points="362.81,-164.84 373.34,-166.03 365.85,-158.53 362.81,-164.84"/>
<text text-anchor="middle" x="356" y="-137.6" font-family="Arial" font-size="8.00">imf:thePart</text>
</g>
<!-- http://ns.imfid.org/imf#BreakdownPoint&#45;&gt;http://ns.imfid.org/imf#Element -->
<g id="edge18" class="edge">
<title>http://ns.imfid.org/imf#BreakdownPoint&#45;&gt;http://ns.imfid.org/imf#Element</title>
<path fill="none" stroke="black" d="M352.57,-117.01C360.8,-122.11 369.19,-128.18 376,-135 381.19,-140.2 385.83,-146.57 389.73,-152.85"/>
<polygon fill="black" stroke="black" points="386.88,-154.9 394.91,-161.81 392.94,-151.4 386.88,-154.9"/>
<text text-anchor="middle" x="407.5" y="-137.6" font-family="Arial" font-size="8.00">imf:theWhole</text>
</g>
<!-- http://ns.imfid.org/imf#BreakdownPoint&#45;&gt;http://ns.imfid.org/imf#Element -->
<g id="edge42" class="edge">
<title>http://ns.imfid.org/imf#BreakdownPoint&#45;&gt;http://ns.imfid.org/imf#Element</title>
<path fill="none" stroke="black" d="M318.51,-117.39C319.11,-126.17 321.2,-136.51 327,-144 328.37,-145.77 346.1,-153.98 364.09,-162"/>
<polygon fill="none" stroke="black" points="362.88,-165.29 373.44,-166.14 365.71,-158.89 362.88,-165.29"/>
</g>
<!-- 5b112191&#45;c510&#45;4d47&#45;9deb&#45;eecd610a61fb -->
<g id="node39" class="node">
<title>5b112191&#45;c510&#45;4d47&#45;9deb&#45;eecd610a61fb</title>
<polygon fill="#e5e5e5" stroke="black" stroke-dasharray="5,2" points="170,-193 0,-193 0,-167 170,-167 170,-193"/>
<text text-anchor="middle" x="85" y="-182.6" font-family="Arial" font-size="8.00">owl:Restriction</text>
<text text-anchor="middle" x="85" y="-173.6" font-family="Arial" font-size="8.00">,5b112191&#45;c510&#45;4d47&#45;9deb&#45;eecd610a61fb</text>
</g>
<!-- http://ns.imfid.org/imf#BreakdownPoint&#45;&gt;5b112191&#45;c510&#45;4d47&#45;9deb&#45;eecd610a61fb -->
<g id="edge34" class="edge">
<title>http://ns.imfid.org/imf#BreakdownPoint&#45;&gt;5b112191&#45;c510&#45;4d47&#45;9deb&#45;eecd610a61fb</title>
<path fill="none" stroke="black" d="M274.99,-114.86C233.68,-128.8 172.17,-149.57 130.42,-163.67"/>
<polygon fill="none" stroke="black" points="129.13,-160.41 120.78,-166.92 131.37,-167.04 129.13,-160.41"/>
</g>
<!-- f4181f1e&#45;9953&#45;4990&#45;b6b1&#45;c88e1134fa1d -->
<g id="node41" class="node">
<title>f4181f1e&#45;9953&#45;4990&#45;b6b1&#45;c88e1134fa1d</title>
<polygon fill="#e5e5e5" stroke="black" stroke-dasharray="5,2" points="355.5,-193 188.5,-193 188.5,-167 355.5,-167 355.5,-193"/>
<text text-anchor="middle" x="272" y="-182.6" font-family="Arial" font-size="8.00">owl:Restriction</text>
<text text-anchor="middle" x="272" y="-173.6" font-family="Arial" font-size="8.00">,f4181f1e&#45;9953&#45;4990&#45;b6b1&#45;c88e1134fa1d</text>
</g>
<!-- http://ns.imfid.org/imf#BreakdownPoint&#45;&gt;f4181f1e&#45;9953&#45;4990&#45;b6b1&#45;c88e1134fa1d -->
<g id="edge8" class="edge">
<title>http://ns.imfid.org/imf#BreakdownPoint&#45;&gt;f4181f1e&#45;9953&#45;4990&#45;b6b1&#45;c88e1134fa1d</title>
<path fill="none" stroke="black" d="M301.51,-117.15C296.68,-122.53 291.74,-128.72 288,-135 283.93,-141.84 280.64,-149.88 278.12,-157.2"/>
<polygon fill="none" stroke="black" points="274.73,-156.29 275.07,-166.88 281.41,-158.39 274.73,-156.29"/>
</g>
<!-- http://ns.imfid.org/imf#ScopeQualifier -->
<g id="node3" class="node">
<title>http://ns.imfid.org/imf#ScopeQualifier</title>
<polygon fill="none" stroke="black" points="1716.5,-117 1635.5,-117 1635.5,-81 1716.5,-81 1716.5,-117"/>
<text text-anchor="middle" x="1676" y="-97.1" font-family="Arial" font-size="8.00">imf:ScopeQualifier</text>
</g>
<!-- http://ns.imfid.org/imf#AttributeQualifier -->
<g id="node28" class="node">
<title>http://ns.imfid.org/imf#AttributeQualifier</title>
<polygon fill="none" stroke="black" points="1955.5,-198 1866.5,-198 1866.5,-162 1955.5,-162 1955.5,-198"/>
<text text-anchor="middle" x="1911" y="-178.1" font-family="Arial" font-size="8.00">imf:AttributeQualifier</text>
</g>
<!-- http://ns.imfid.org/imf#ScopeQualifier&#45;&gt;http://ns.imfid.org/imf#AttributeQualifier -->
<g id="edge35" class="edge">
<title>http://ns.imfid.org/imf#ScopeQualifier&#45;&gt;http://ns.imfid.org/imf#AttributeQualifier</title>
<path fill="none" stroke="black" d="M1716.84,-102.03C1754.96,-105.25 1812.62,-113.55 1858,-135 1868.6,-140.01 1878.85,-147.63 1887.46,-155.13"/>
<polygon fill="none" stroke="black" points="1885.14,-157.74 1894.88,-161.9 1889.86,-152.58 1885.14,-157.74"/>
</g>
<!-- http://ns.imfid.org/imf#Element&#45;&gt;http://ns.imfid.org/imf#Element -->
<g id="edge31" class="edge">
<title>http://ns.imfid.org/imf#Element&#45;&gt;http://ns.imfid.org/imf#Element</title>
<path fill="none" stroke="black" d="M432.69,-172.5C442.58,-172.5 450.5,-175 450.5,-180 450.5,-183.12 447.41,-185.27 442.67,-186.45"/>
<polygon fill="black" stroke="black" points="442.26,-182.97 432.69,-187.5 443,-189.93 442.26,-182.97"/>
<text text-anchor="middle" x="468.5" y="-178.1" font-family="Arial" font-size="8.00">imf:partOf</text>
</g>
<!-- http://ns.imfid.org/imf#TerminalFlow -->
<g id="node5" class="node">
<title>http://ns.imfid.org/imf#TerminalFlow</title>
<polygon fill="none" stroke="black" points="959.5,-198 882.5,-198 882.5,-162 959.5,-162 959.5,-198"/>
<text text-anchor="middle" x="921" y="-178.1" font-family="Arial" font-size="8.00">imf:TerminalFlow</text>
</g>
<!-- http://ns.imfid.org/imf#designQualifier -->
<g id="node6" class="node">
<title>http://ns.imfid.org/imf#designQualifier</title>
<polygon fill="none" stroke="black" points="1612,-36 1530,-36 1530,0 1612,0 1612,-36"/>
<text text-anchor="middle" x="1571" y="-16.1" font-family="Arial" font-size="8.00">imf:designQualifier</text>
</g>
<!-- http://ns.imfid.org/imf#designQualifier&#45;&gt;http://ns.imfid.org/imf#ScopeQualifier -->
<g id="edge21" class="edge">
<title>http://ns.imfid.org/imf#designQualifier&#45;&gt;http://ns.imfid.org/imf#ScopeQualifier</title>
<path fill="none" stroke="black" stroke-dasharray="1,5" d="M1593.78,-36.14C1608.78,-47.43 1628.6,-62.34 1645.03,-74.7"/>
<polygon fill="black" stroke="black" points="1643.17,-77.68 1653.26,-80.89 1647.37,-72.08 1643.17,-77.68"/>
</g>
<!-- http://ns.imfid.org/imf#Aspect -->
<g id="node7" class="node">
<title>http://ns.imfid.org/imf#Aspect</title>
<polygon fill="none" stroke="black" points="2799,-117 2745,-117 2745,-81 2799,-81 2799,-117"/>
<text text-anchor="middle" x="2772" y="-97.1" font-family="Arial" font-size="8.00">imf:Aspect</text>
</g>
<!-- http://www.w3.org/2001/XMLSchema#string -->
<g id="node43" class="node">
<title>http://www.w3.org/2001/XMLSchema#string</title>
<polygon fill="none" stroke="black" points="2799,-198 2745,-198 2745,-162 2799,-162 2799,-198"/>
<text text-anchor="middle" x="2772" y="-178.1" font-family="Arial" font-size="8.00">xsd:string</text>
</g>
<!-- http://ns.imfid.org/imf#Aspect&#45;&gt;http://www.w3.org/2001/XMLSchema#string -->
<g id="edge25" class="edge">
<title>http://ns.imfid.org/imf#Aspect&#45;&gt;http://www.w3.org/2001/XMLSchema#string</title>
<path fill="none" stroke="black" d="M2772,-117.14C2772,-127.29 2772,-140.37 2772,-151.88"/>
<polygon fill="black" stroke="black" points="2768.5,-151.89 2772,-161.89 2775.5,-151.89 2768.5,-151.89"/>
<text text-anchor="middle" x="2788.5" y="-137.6" font-family="Arial" font-size="8.00">imf:prefix</text>
</g>
<!-- 214c5969&#45;90a9&#45;4a4c&#45;9464&#45;67481f1da2d5 -->
<g id="node8" class="node">
<title>214c5969&#45;90a9&#45;4a4c&#45;9464&#45;67481f1da2d5</title>
<polygon fill="#e5e5e5" stroke="black" stroke-dasharray="5,2" points="1277.5,-193 1106.5,-193 1106.5,-167 1277.5,-167 1277.5,-193"/>
<text text-anchor="middle" x="1192" y="-182.6" font-family="Arial" font-size="8.00">owl:Restriction</text>
<text text-anchor="middle" x="1192" y="-173.6" font-family="Arial" font-size="8.00">,214c5969&#45;90a9&#45;4a4c&#45;9464&#45;67481f1da2d5</text>
</g>
<!-- 874bbb58&#45;b37c&#45;4147&#45;a78f&#45;b24cdaa3797b -->
<g id="node9" class="node">
<title>874bbb58&#45;b37c&#45;4147&#45;a78f&#45;b24cdaa3797b</title>
<polygon fill="#e5e5e5" stroke="black" stroke-dasharray="5,2" points="1142.5,-112 971.5,-112 971.5,-86 1142.5,-86 1142.5,-112"/>
<text text-anchor="middle" x="1057" y="-101.6" font-family="Arial" font-size="8.00">owl:Restriction</text>
<text text-anchor="middle" x="1057" y="-92.6" font-family="Arial" font-size="8.00">,874bbb58&#45;b37c&#45;4147&#45;a78f&#45;b24cdaa3797b</text>
</g>
<!-- http://ns.imfid.org/imf#outputFlow -->
<g id="node10" class="node">
<title>http://ns.imfid.org/imf#outputFlow</title>
<polygon fill="none" stroke="black" points="870.5,-117 801.5,-117 801.5,-81 870.5,-81 870.5,-117"/>
<text text-anchor="middle" x="836" y="-97.1" font-family="Arial" font-size="8.00">imf:outputFlow</text>
</g>
<!-- http://ns.imfid.org/imf#outputFlow&#45;&gt;http://ns.imfid.org/imf#TerminalFlow -->
<g id="edge3" class="edge">
<title>http://ns.imfid.org/imf#outputFlow&#45;&gt;http://ns.imfid.org/imf#TerminalFlow</title>
<path fill="none" stroke="black" stroke-dasharray="1,5" d="M856.71,-117.14C863.3,-122.72 870.54,-129.03 877,-135 883.73,-141.22 890.83,-148.15 897.31,-154.63"/>
<polygon fill="black" stroke="black" points="895.06,-157.33 904.59,-161.97 900.04,-152.4 895.06,-157.33"/>
</g>
<!-- aeb75018&#45;669a&#45;4e77&#45;b86b&#45;617819fe5e23 -->
<g id="node11" class="node">
<title>aeb75018&#45;669a&#45;4e77&#45;b86b&#45;617819fe5e23</title>
<polygon fill="#e5e5e5" stroke="black" stroke-dasharray="5,2" points="1333.5,-112 1160.5,-112 1160.5,-86 1333.5,-86 1333.5,-112"/>
<text text-anchor="middle" x="1247" y="-101.6" font-family="Arial" font-size="8.00">owl:Restriction</text>
<text text-anchor="middle" x="1247" y="-92.6" font-family="Arial" font-size="8.00">,aeb75018&#45;669a&#45;4e77&#45;b86b&#45;617819fe5e23</text>
</g>
<!-- 07ea7e43&#45;8108&#45;4b45&#45;b063&#45;7c6c43356d96 -->
<g id="node12" class="node">
<title>07ea7e43&#45;8108&#45;4b45&#45;b063&#45;7c6c43356d96</title>
<polygon fill="#e5e5e5" stroke="black" stroke-dasharray="5,2" points="1524.5,-112 1351.5,-112 1351.5,-86 1524.5,-86 1524.5,-112"/>
<text text-anchor="middle" x="1438" y="-101.6" font-family="Arial" font-size="8.00">owl:Restriction</text>
<text text-anchor="middle" x="1438" y="-92.6" font-family="Arial" font-size="8.00">,07ea7e43&#45;8108&#45;4b45&#45;b063&#45;7c6c43356d96</text>
</g>
<!-- http://ns.imfid.org/imf#Terminal -->
<g id="node13" class="node">
<title>http://ns.imfid.org/imf#Terminal</title>
<polygon fill="none" stroke="black" points="635.5,-117 576.5,-117 576.5,-81 635.5,-81 635.5,-117"/>
<text text-anchor="middle" x="606" y="-97.1" font-family="Arial" font-size="8.00">imf:Terminal</text>
</g>
<!-- http://ns.imfid.org/imf#Terminal&#45;&gt;http://ns.imfid.org/imf#Element -->
<g id="edge28" class="edge">
<title>http://ns.imfid.org/imf#Terminal&#45;&gt;http://ns.imfid.org/imf#Element</title>
<path fill="none" stroke="black" d="M576.48,-111.49C541,-125.29 481.34,-148.51 442.07,-163.79"/>
<polygon fill="none" stroke="black" points="440.6,-160.61 432.55,-167.5 443.14,-167.13 440.6,-160.61"/>
</g>
<!-- http://ns.imfid.org/imf#Terminal&#45;&gt;http://ns.imfid.org/imf#TerminalFlow -->
<g id="edge2" class="edge">
<title>http://ns.imfid.org/imf#Terminal&#45;&gt;http://ns.imfid.org/imf#TerminalFlow</title>
<path fill="none" stroke="black" d="M635.59,-106.78C696.13,-120.66 831.35,-151.71 872.51,-162.24"/>
<polygon fill="black" stroke="black" points="871.78,-165.67 882.35,-164.89 873.6,-158.91 871.78,-165.67"/>
<text text-anchor="middle" x="832.5" y="-137.6" font-family="Arial" font-size="8.00">imf:hasFlowDirection</text>
</g>
<!-- http://ns.imfid.org/imf#Terminal&#45;&gt;http://ns.imfid.org/imf#Terminal -->
<g id="edge37" class="edge">
<title>http://ns.imfid.org/imf#Terminal&#45;&gt;http://ns.imfid.org/imf#Terminal</title>
<path fill="none" stroke="black" d="M635.69,-91.5C645.58,-91.5 653.5,-94 653.5,-99 653.5,-102.12 650.41,-104.27 645.67,-105.45"/>
<polygon fill="black" stroke="black" points="645.26,-101.97 635.69,-106.5 646,-108.93 645.26,-101.97"/>
<text text-anchor="middle" x="682.5" y="-97.1" font-family="Arial" font-size="8.00">imf:connectedTo</text>
</g>
<!-- c89a2913&#45;6d4c&#45;417d&#45;bb36&#45;513ef71b5f0b -->
<g id="node31" class="node">
<title>c89a2913&#45;6d4c&#45;417d&#45;bb36&#45;513ef71b5f0b</title>
<polygon fill="#e5e5e5" stroke="black" stroke-dasharray="5,2" points="673.5,-193 504.5,-193 504.5,-167 673.5,-167 673.5,-193"/>
<text text-anchor="middle" x="589" y="-182.6" font-family="Arial" font-size="8.00">owl:Restriction</text>
<text text-anchor="middle" x="589" y="-173.6" font-family="Arial" font-size="8.00">,c89a2913&#45;6d4c&#45;417d&#45;bb36&#45;513ef71b5f0b</text>
</g>
<!-- http://ns.imfid.org/imf#Terminal&#45;&gt;c89a2913&#45;6d4c&#45;417d&#45;bb36&#45;513ef71b5f0b -->
<g id="edge1" class="edge">
<title>http://ns.imfid.org/imf#Terminal&#45;&gt;c89a2913&#45;6d4c&#45;417d&#45;bb36&#45;513ef71b5f0b</title>
<path fill="none" stroke="black" d="M602.31,-117.14C599.83,-128.65 596.54,-143.94 593.85,-156.44"/>
<polygon fill="none" stroke="black" points="590.36,-156.03 591.68,-166.54 597.21,-157.5 590.36,-156.03"/>
</g>
<!-- 4b9f2a7a&#45;390a&#45;4885&#45;b764&#45;80750c42572b -->
<g id="node32" class="node">
<title>4b9f2a7a&#45;390a&#45;4885&#45;b764&#45;80750c42572b</title>
<polygon fill="#e5e5e5" stroke="black" stroke-dasharray="5,2" points="864,-193 692,-193 692,-167 864,-167 864,-193"/>
<text text-anchor="middle" x="778" y="-182.6" font-family="Arial" font-size="8.00">owl:Restriction</text>
<text text-anchor="middle" x="778" y="-173.6" font-family="Arial" font-size="8.00">,4b9f2a7a&#45;390a&#45;4885&#45;b764&#45;80750c42572b</text>
</g>
<!-- http://ns.imfid.org/imf#Terminal&#45;&gt;4b9f2a7a&#45;390a&#45;4885&#45;b764&#45;80750c42572b -->
<g id="edge12" class="edge">
<title>http://ns.imfid.org/imf#Terminal&#45;&gt;4b9f2a7a&#45;390a&#45;4885&#45;b764&#45;80750c42572b</title>
<path fill="none" stroke="black" d="M635.57,-113.58C665.16,-127.17 710.72,-148.1 742.31,-162.61"/>
<polygon fill="none" stroke="black" points="741.09,-165.9 751.63,-166.89 744.01,-159.54 741.09,-165.9"/>
</g>
<!-- http://ns.imfid.org/imf#normalQualifier -->
<g id="node14" class="node">
<title>http://ns.imfid.org/imf#normalQualifier</title>
<polygon fill="none" stroke="black" points="2700.5,-36 2617.5,-36 2617.5,0 2700.5,0 2700.5,-36"/>
<text text-anchor="middle" x="2659" y="-16.1" font-family="Arial" font-size="8.00">imf:normalQualifier</text>
</g>
<!-- http://ns.imfid.org/imf#RangeQualifier -->
<g id="node35" class="node">
<title>http://ns.imfid.org/imf#RangeQualifier</title>
<polygon fill="none" stroke="black" points="2543.5,-117 2460.5,-117 2460.5,-81 2543.5,-81 2543.5,-117"/>
<text text-anchor="middle" x="2502" y="-97.1" font-family="Arial" font-size="8.00">imf:RangeQualifier</text>
</g>
<!-- http://ns.imfid.org/imf#normalQualifier&#45;&gt;http://ns.imfid.org/imf#RangeQualifier -->
<g id="edge6" class="edge">
<title>http://ns.imfid.org/imf#normalQualifier&#45;&gt;http://ns.imfid.org/imf#RangeQualifier</title>
<path fill="none" stroke="black" stroke-dasharray="1,5" d="M2624.93,-36.14C2601.48,-47.94 2570.14,-63.72 2544.97,-76.38"/>
<polygon fill="black" stroke="black" points="2543.36,-73.27 2536,-80.89 2546.51,-79.52 2543.36,-73.27"/>
</g>
<!-- http://ns.imfid.org/imf#specifiedQualifier -->
<g id="node15" class="node">
<title>http://ns.imfid.org/imf#specifiedQualifier</title>
<polygon fill="none" stroke="black" points="1829.5,-36 1740.5,-36 1740.5,0 1829.5,0 1829.5,-36"/>
<text text-anchor="middle" x="1785" y="-16.1" font-family="Arial" font-size="8.00">imf:specifiedQualifier</text>
</g>
<!-- http://ns.imfid.org/imf#ProvenanceQualifier -->
<g id="node22" class="node">
<title>http://ns.imfid.org/imf#ProvenanceQualifier</title>
<polygon fill="none" stroke="black" points="1952.5,-117 1851.5,-117 1851.5,-81 1952.5,-81 1952.5,-117"/>
<text text-anchor="middle" x="1902" y="-97.1" font-family="Arial" font-size="8.00">imf:ProvenanceQualifier</text>
</g>
<!-- http://ns.imfid.org/imf#specifiedQualifier&#45;&gt;http://ns.imfid.org/imf#ProvenanceQualifier -->
<g id="edge22" class="edge">
<title>http://ns.imfid.org/imf#specifiedQualifier&#45;&gt;http://ns.imfid.org/imf#ProvenanceQualifier</title>
<path fill="none" stroke="black" stroke-dasharray="1,5" d="M1810.39,-36.14C1827.33,-47.58 1849.8,-62.75 1868.24,-75.2"/>
<polygon fill="black" stroke="black" points="1866.42,-78.2 1876.66,-80.89 1870.33,-72.39 1866.42,-78.2"/>
</g>
<!-- http://ns.imfid.org/imf#operatingQualifier -->
<g id="node16" class="node">
<title>http://ns.imfid.org/imf#operatingQualifier</title>
<polygon fill="none" stroke="black" points="1722,-36 1630,-36 1630,0 1722,0 1722,-36"/>
<text text-anchor="middle" x="1676" y="-16.1" font-family="Arial" font-size="8.00">imf:operatingQualifier</text>
</g>
<!-- http://ns.imfid.org/imf#operatingQualifier&#45;&gt;http://ns.imfid.org/imf#ScopeQualifier -->
<g id="edge24" class="edge">
<title>http://ns.imfid.org/imf#operatingQualifier&#45;&gt;http://ns.imfid.org/imf#ScopeQualifier</title>
<path fill="none" stroke="black" stroke-dasharray="1,5" d="M1676,-36.14C1676,-46.29 1676,-59.37 1676,-70.88"/>
<polygon fill="black" stroke="black" points="1672.5,-70.89 1676,-80.89 1679.5,-70.89 1672.5,-70.89"/>
</g>
<!-- http://ns.imfid.org/imf#AttributeGroup -->
<g id="node17" class="node">
<title>http://ns.imfid.org/imf#AttributeGroup</title>
<polygon fill="none" stroke="black" points="3111,-36 3029,-36 3029,0 3111,0 3111,-36"/>
<text text-anchor="middle" x="3070" y="-16.1" font-family="Arial" font-size="8.00">imf:AttributeGroup</text>
</g>
<!-- http://ns.imfid.org/imf#continuousQualifier -->
<g id="node18" class="node">
<title>http://ns.imfid.org/imf#continuousQualifier</title>
<polygon fill="none" stroke="black" points="2170.5,-36 2073.5,-36 2073.5,0 2170.5,0 2170.5,-36"/>
<text text-anchor="middle" x="2122" y="-16.1" font-family="Arial" font-size="8.00">imf:continuousQualifier</text>
</g>
<!-- http://ns.imfid.org/imf#RegularityQualifier -->
<g id="node25" class="node">
<title>http://ns.imfid.org/imf#RegularityQualifier</title>
<polygon fill="none" stroke="black" points="2169.5,-117 2074.5,-117 2074.5,-81 2169.5,-81 2169.5,-117"/>
<text text-anchor="middle" x="2122" y="-97.1" font-family="Arial" font-size="8.00">imf:RegularityQualifier</text>
</g>
<!-- http://ns.imfid.org/imf#continuousQualifier&#45;&gt;http://ns.imfid.org/imf#RegularityQualifier -->
<g id="edge47" class="edge">
<title>http://ns.imfid.org/imf#continuousQualifier&#45;&gt;http://ns.imfid.org/imf#RegularityQualifier</title>
<path fill="none" stroke="black" stroke-dasharray="1,5" d="M2122,-36.14C2122,-46.29 2122,-59.37 2122,-70.88"/>
<polygon fill="black" stroke="black" points="2118.5,-70.89 2122,-80.89 2125.5,-70.89 2118.5,-70.89"/>
</g>
<!-- 70ee20c2&#45;8337&#45;4eae&#45;b2f5&#45;d214276d6baa -->
<g id="node19" class="node">
<title>70ee20c2&#45;8337&#45;4eae&#45;b2f5&#45;d214276d6baa</title>
<polygon fill="#e5e5e5" stroke="black" stroke-dasharray="5,2" points="2989,-112 2817,-112 2817,-86 2989,-86 2989,-112"/>
<text text-anchor="middle" x="2903" y="-101.6" font-family="Arial" font-size="8.00">owl:Restriction</text>
<text text-anchor="middle" x="2903" y="-92.6" font-family="Arial" font-size="8.00">,70ee20c2&#45;8337&#45;4eae&#45;b2f5&#45;d214276d6baa</text>
</g>
<!-- http://ns.imfid.org/imf#calculatedQualifier -->
<g id="node20" class="node">
<title>http://ns.imfid.org/imf#calculatedQualifier</title>
<polygon fill="none" stroke="black" points="1942,-36 1848,-36 1848,0 1942,0 1942,-36"/>
<text text-anchor="middle" x="1895" y="-16.1" font-family="Arial" font-size="8.00">imf:calculatedQualifier</text>
</g>
<!-- http://ns.imfid.org/imf#calculatedQualifier&#45;&gt;http://ns.imfid.org/imf#ProvenanceQualifier -->
<g id="edge48" class="edge">
<title>http://ns.imfid.org/imf#calculatedQualifier&#45;&gt;http://ns.imfid.org/imf#ProvenanceQualifier</title>
<path fill="none" stroke="black" stroke-dasharray="1,5" d="M1896.52,-36.14C1897.42,-46.29 1898.58,-59.37 1899.6,-70.88"/>
<polygon fill="black" stroke="black" points="1896.12,-71.24 1900.48,-80.89 1903.09,-70.62 1896.12,-71.24"/>
</g>
<!-- http://ns.imfid.org/imf#Block -->
<g id="node21" class="node">
<title>http://ns.imfid.org/imf#Block</title>
<polygon fill="none" stroke="black" points="487,-36 433,-36 433,0 487,0 487,-36"/>
<text text-anchor="middle" x="460" y="-16.1" font-family="Arial" font-size="8.00">imf:Block</text>
</g>
<!-- http://ns.imfid.org/imf#Block&#45;&gt;4bb1a5a9&#45;d52b&#45;4d39&#45;a973&#45;3cc439bfb704 -->
<g id="edge45" class="edge">
<title>http://ns.imfid.org/imf#Block&#45;&gt;4bb1a5a9&#45;d52b&#45;4d39&#45;a973&#45;3cc439bfb704</title>
<path fill="none" stroke="black" d="M432.81,-26.43C385.36,-39.4 286.61,-66.4 224.87,-83.27"/>
<polygon fill="none" stroke="black" points="223.64,-79.98 214.92,-85.99 225.49,-86.73 223.64,-79.98"/>
</g>
<!-- http://ns.imfid.org/imf#Block&#45;&gt;http://ns.imfid.org/imf#Element -->
<g id="edge44" class="edge">
<title>http://ns.imfid.org/imf#Block&#45;&gt;http://ns.imfid.org/imf#Element</title>
<path fill="none" stroke="black" d="M459.46,-36.11C458.05,-61.1 453.01,-108.47 435,-144 433.21,-147.53 430.96,-150.98 428.49,-154.24"/>
<polygon fill="none" stroke="black" points="425.79,-152.01 422.02,-161.91 431.14,-156.52 425.79,-152.01"/>
</g>
<!-- http://ns.imfid.org/imf#Block&#45;&gt;http://ns.imfid.org/imf#Terminal -->
<g id="edge29" class="edge">
<title>http://ns.imfid.org/imf#Block&#45;&gt;http://ns.imfid.org/imf#Terminal</title>
<path fill="none" stroke="black" d="M480.53,-36.01C491.74,-44.79 506.13,-55.25 520,-63 534.66,-71.19 551.63,-78.51 566.6,-84.32"/>
<polygon fill="black" stroke="black" points="565.52,-87.65 576.11,-87.9 567.99,-81.1 565.52,-87.65"/>
<text text-anchor="middle" x="548" y="-56.6" font-family="Arial" font-size="8.00">imf:hasTerminal</text>
</g>
<!-- http://ns.imfid.org/imf#ProvenanceQualifier&#45;&gt;http://ns.imfid.org/imf#AttributeQualifier -->
<g id="edge41" class="edge">
<title>http://ns.imfid.org/imf#ProvenanceQualifier&#45;&gt;http://ns.imfid.org/imf#AttributeQualifier</title>
<path fill="none" stroke="black" d="M1903.95,-117.14C1905.11,-127.29 1906.6,-140.37 1907.91,-151.88"/>
<polygon fill="none" stroke="black" points="1904.44,-152.35 1909.05,-161.89 1911.4,-151.56 1904.44,-152.35"/>
</g>
<!-- http://ns.imfid.org/imf#Attribute -->
<g id="node23" class="node">
<title>http://ns.imfid.org/imf#Attribute</title>
<polygon fill="none" stroke="black" points="1601.5,-117 1542.5,-117 1542.5,-81 1601.5,-81 1601.5,-117"/>
<text text-anchor="middle" x="1572" y="-97.1" font-family="Arial" font-size="8.00">imf:Attribute</text>
</g>
<!-- http://ns.imfid.org/imf#Attribute&#45;&gt;214c5969&#45;90a9&#45;4a4c&#45;9464&#45;67481f1da2d5 -->
<g id="edge26" class="edge">
<title>http://ns.imfid.org/imf#Attribute&#45;&gt;214c5969&#45;90a9&#45;4a4c&#45;9464&#45;67481f1da2d5</title>
<path fill="none" stroke="black" d="M1542.46,-113.72C1539.3,-114.93 1536.11,-116.05 1533,-117 1526.67,-118.93 1367.94,-147.5 1269.31,-165.17"/>
<polygon fill="none" stroke="black" points="1268.59,-161.74 1259.37,-166.95 1269.83,-168.63 1268.59,-161.74"/>
</g>
<!-- http://ns.imfid.org/imf#Attribute&#45;&gt;http://ns.imfid.org/imf#AttributeQualifier -->
<g id="edge4" class="edge">
<title>http://ns.imfid.org/imf#Attribute&#45;&gt;http://ns.imfid.org/imf#AttributeQualifier</title>
<path fill="none" stroke="black" d="M1601.54,-109.96C1609.43,-112.44 1618,-114.97 1626,-117 1724.31,-141.97 1753.84,-136.62 1856.49,-162.04"/>
<polygon fill="black" stroke="black" points="1855.77,-165.46 1866.32,-164.51 1857.48,-158.68 1855.77,-165.46"/>
<text text-anchor="middle" x="1797.5" y="-137.6" font-family="Arial" font-size="8.00">imf:hasQualifier</text>
</g>
<!-- 34665127&#45;5af6&#45;4b5c&#45;8463&#45;e779caba821c -->
<g id="node29" class="node">
<title>34665127&#45;5af6&#45;4b5c&#45;8463&#45;e779caba821c</title>
<polygon fill="#e5e5e5" stroke="black" stroke-dasharray="5,2" points="1466,-193 1296,-193 1296,-167 1466,-167 1466,-193"/>
<text text-anchor="middle" x="1381" y="-182.6" font-family="Arial" font-size="8.00">owl:Restriction</text>
<text text-anchor="middle" x="1381" y="-173.6" font-family="Arial" font-size="8.00">,34665127&#45;5af6&#45;4b5c&#45;8463&#45;e779caba821c</text>
</g>
<!-- http://ns.imfid.org/imf#Attribute&#45;&gt;34665127&#45;5af6&#45;4b5c&#45;8463&#45;e779caba821c -->
<g id="edge38" class="edge">
<title>http://ns.imfid.org/imf#Attribute&#45;&gt;34665127&#45;5af6&#45;4b5c&#45;8463&#45;e779caba821c</title>
<path fill="none" stroke="black" d="M1542.22,-113.07C1539.11,-114.41 1535.99,-115.74 1533,-117 1494.97,-133.04 1451.32,-150.78 1420.58,-163.15"/>
<polygon fill="none" stroke="black" points="1419.05,-160 1411.08,-166.98 1421.66,-166.49 1419.05,-160"/>
</g>
<!-- 75a57842&#45;d71e&#45;4289&#45;9794&#45;382d901282b4 -->
<g id="node42" class="node">
<title>75a57842&#45;d71e&#45;4289&#45;9794&#45;382d901282b4</title>
<polygon fill="#e5e5e5" stroke="black" stroke-dasharray="5,2" points="1659.5,-193 1484.5,-193 1484.5,-167 1659.5,-167 1659.5,-193"/>
<text text-anchor="middle" x="1572" y="-182.6" font-family="Arial" font-size="8.00">owl:Restriction</text>
<text text-anchor="middle" x="1572" y="-173.6" font-family="Arial" font-size="8.00">,75a57842&#45;d71e&#45;4289&#45;9794&#45;382d901282b4</text>
</g>
<!-- http://ns.imfid.org/imf#Attribute&#45;&gt;75a57842&#45;d71e&#45;4289&#45;9794&#45;382d901282b4 -->
<g id="edge15" class="edge">
<title>http://ns.imfid.org/imf#Attribute&#45;&gt;75a57842&#45;d71e&#45;4289&#45;9794&#45;382d901282b4</title>
<path fill="none" stroke="black" d="M1572,-117.14C1572,-128.65 1572,-143.94 1572,-156.44"/>
<polygon fill="none" stroke="black" points="1568.5,-156.54 1572,-166.54 1575.5,-156.54 1568.5,-156.54"/>
</g>
<!-- a6a3cc28&#45;9e7c&#45;42ad&#45;9a84&#45;5a7396f07818 -->
<g id="node45" class="node">
<title>a6a3cc28&#45;9e7c&#45;42ad&#45;9a84&#45;5a7396f07818</title>
<polygon fill="#e5e5e5" stroke="black" stroke-dasharray="5,2" points="1848,-193 1678,-193 1678,-167 1848,-167 1848,-193"/>
<text text-anchor="middle" x="1763" y="-182.6" font-family="Arial" font-size="8.00">owl:Restriction</text>
<text text-anchor="middle" x="1763" y="-173.6" font-family="Arial" font-size="8.00">,a6a3cc28&#45;9e7c&#45;42ad&#45;9a84&#45;5a7396f07818</text>
</g>
<!-- http://ns.imfid.org/imf#Attribute&#45;&gt;a6a3cc28&#45;9e7c&#45;42ad&#45;9a84&#45;5a7396f07818 -->
<g id="edge40" class="edge">
<title>http://ns.imfid.org/imf#Attribute&#45;&gt;a6a3cc28&#45;9e7c&#45;42ad&#45;9a84&#45;5a7396f07818</title>
<path fill="none" stroke="black" d="M1601.84,-112.34C1634.88,-126.01 1688.23,-148.07 1724.42,-163.04"/>
<polygon fill="none" stroke="black" points="1723.1,-166.28 1733.68,-166.87 1725.78,-159.82 1723.1,-166.28"/>
</g>
<!-- http://ns.imfid.org/imf#ConnectionPoint -->
<g id="node24" class="node">
<title>http://ns.imfid.org/imf#ConnectionPoint</title>
<polygon fill="none" stroke="black" points="1101,-36 1013,-36 1013,0 1101,0 1101,-36"/>
<text text-anchor="middle" x="1057" y="-16.1" font-family="Arial" font-size="8.00">imf:ConnectionPoint</text>
</g>
<!-- http://ns.imfid.org/imf#ConnectionPoint&#45;&gt;http://ns.imfid.org/imf#Element -->
<g id="edge43" class="edge">
<title>http://ns.imfid.org/imf#ConnectionPoint&#45;&gt;http://ns.imfid.org/imf#Element</title>
<path fill="none" stroke="black" d="M1012.95,-26.05C959.62,-35.32 867.54,-53.7 792,-81 758.35,-93.16 753.87,-105.46 720,-117 706.88,-121.47 524.8,-156.04 442.68,-171.53"/>
<polygon fill="none" stroke="black" points="441.89,-168.12 432.71,-173.41 443.19,-175 441.89,-168.12"/>
</g>
<!-- http://ns.imfid.org/imf#ConnectionPoint&#45;&gt;874bbb58&#45;b37c&#45;4147&#45;a78f&#45;b24cdaa3797b -->
<g id="edge10" class="edge">
<title>http://ns.imfid.org/imf#ConnectionPoint&#45;&gt;874bbb58&#45;b37c&#45;4147&#45;a78f&#45;b24cdaa3797b</title>
<path fill="none" stroke="black" d="M1057,-36.14C1057,-47.65 1057,-62.94 1057,-75.44"/>
<polygon fill="none" stroke="black" points="1053.5,-75.54 1057,-85.54 1060.5,-75.54 1053.5,-75.54"/>
</g>
<!-- http://ns.imfid.org/imf#ConnectionPoint&#45;&gt;aeb75018&#45;669a&#45;4e77&#45;b86b&#45;617819fe5e23 -->
<g id="edge30" class="edge">
<title>http://ns.imfid.org/imf#ConnectionPoint&#45;&gt;aeb75018&#45;669a&#45;4e77&#45;b86b&#45;617819fe5e23</title>
<path fill="none" stroke="black" d="M1098.23,-36.14C1130.97,-49.75 1176.41,-68.65 1208.43,-81.96"/>
<polygon fill="none" stroke="black" points="1207.33,-85.3 1217.91,-85.91 1210.02,-78.83 1207.33,-85.3"/>
</g>
<!-- http://ns.imfid.org/imf#ConnectionPoint&#45;&gt;07ea7e43&#45;8108&#45;4b45&#45;b063&#45;7c6c43356d96 -->
<g id="edge32" class="edge">
<title>http://ns.imfid.org/imf#ConnectionPoint&#45;&gt;07ea7e43&#45;8108&#45;4b45&#45;b063&#45;7c6c43356d96</title>
<path fill="none" stroke="black" d="M1101.08,-28.14C1167.07,-41.82 1292.08,-67.74 1369.87,-83.87"/>
<polygon fill="none" stroke="black" points="1369.55,-87.38 1380.06,-85.99 1370.98,-80.53 1369.55,-87.38"/>
</g>
<!-- http://ns.imfid.org/imf#ConnectionPoint&#45;&gt;http://ns.imfid.org/imf#Terminal -->
<g id="edge33" class="edge">
<title>http://ns.imfid.org/imf#ConnectionPoint&#45;&gt;http://ns.imfid.org/imf#Terminal</title>
<path fill="none" stroke="black" d="M1012.76,-19.76C923.45,-21.82 724.81,-29.12 662,-54 650.44,-58.58 639.32,-66.35 630.08,-74.1"/>
<polygon fill="black" stroke="black" points="627.66,-71.57 622.48,-80.82 632.29,-76.81 627.66,-71.57"/>
<text text-anchor="middle" x="694" y="-56.6" font-family="Arial" font-size="8.00">imf:theConnected</text>
</g>
<!-- http://ns.imfid.org/imf#RegularityQualifier&#45;&gt;http://ns.imfid.org/imf#AttributeQualifier -->
<g id="edge11" class="edge">
<title>http://ns.imfid.org/imf#RegularityQualifier&#45;&gt;http://ns.imfid.org/imf#AttributeQualifier</title>
<path fill="none" stroke="black" d="M2076.48,-117.04C2043.81,-129.28 1999.65,-145.81 1965.17,-158.72"/>
<polygon fill="none" stroke="black" points="1963.86,-155.47 1955.72,-162.26 1966.31,-162.03 1963.86,-155.47"/>
</g>
<!-- http://ns.imfid.org/imf#measuredQualifier -->
<g id="node26" class="node">
<title>http://ns.imfid.org/imf#measuredQualifier</title>
<polygon fill="none" stroke="black" points="2055.5,-36 1960.5,-36 1960.5,0 2055.5,0 2055.5,-36"/>
<text text-anchor="middle" x="2008" y="-16.1" font-family="Arial" font-size="8.00">imf:measuredQualifier</text>
</g>
<!-- http://ns.imfid.org/imf#measuredQualifier&#45;&gt;http://ns.imfid.org/imf#ProvenanceQualifier -->
<g id="edge39" class="edge">
<title>http://ns.imfid.org/imf#measuredQualifier&#45;&gt;http://ns.imfid.org/imf#ProvenanceQualifier</title>
<path fill="none" stroke="black" stroke-dasharray="1,5" d="M1985,-36.14C1969.86,-47.43 1949.85,-62.34 1933.27,-74.7"/>
<polygon fill="black" stroke="black" points="1930.88,-72.11 1924.96,-80.89 1935.07,-77.72 1930.88,-72.11"/>
</g>
<!-- http://ns.imfid.org/imf#inputFlow -->
<g id="node27" class="node">
<title>http://ns.imfid.org/imf#inputFlow</title>
<polygon fill="none" stroke="black" points="953,-117 889,-117 889,-81 953,-81 953,-117"/>
<text text-anchor="middle" x="921" y="-97.1" font-family="Arial" font-size="8.00">imf:inputFlow</text>
</g>
<!-- http://ns.imfid.org/imf#inputFlow&#45;&gt;http://ns.imfid.org/imf#TerminalFlow -->
<g id="edge36" class="edge">
<title>http://ns.imfid.org/imf#inputFlow&#45;&gt;http://ns.imfid.org/imf#TerminalFlow</title>
<path fill="none" stroke="black" stroke-dasharray="1,5" d="M921,-117.14C921,-127.29 921,-140.37 921,-151.88"/>
<polygon fill="black" stroke="black" points="917.5,-151.89 921,-161.89 924.5,-151.89 917.5,-151.89"/>
</g>
<!-- http://ns.imfid.org/imf#minimumQualifier -->
<g id="node30" class="node">
<title>http://ns.imfid.org/imf#minimumQualifier</title>
<polygon fill="none" stroke="black" points="2809.5,-36 2718.5,-36 2718.5,0 2809.5,0 2809.5,-36"/>
<text text-anchor="middle" x="2764" y="-16.1" font-family="Arial" font-size="8.00">imf:minimumQualifier</text>
</g>
<!-- http://ns.imfid.org/imf#minimumQualifier&#45;&gt;http://ns.imfid.org/imf#RangeQualifier -->
<g id="edge46" class="edge">
<title>http://ns.imfid.org/imf#minimumQualifier&#45;&gt;http://ns.imfid.org/imf#RangeQualifier</title>
<path fill="none" stroke="black" stroke-dasharray="1,5" d="M2718.39,-33.13C2715.21,-34.11 2712.06,-35.07 2709,-36 2656,-52.13 2595.28,-70.28 2553.37,-82.75"/>
<polygon fill="black" stroke="black" points="2552.25,-79.43 2543.66,-85.64 2554.25,-86.14 2552.25,-79.43"/>
</g>
<!-- http://ns.imfid.org/imf#maximumQualifier -->
<g id="node33" class="node">
<title>http://ns.imfid.org/imf#maximumQualifier</title>
<polygon fill="none" stroke="black" points="2388.5,-36 2295.5,-36 2295.5,0 2388.5,0 2388.5,-36"/>
<text text-anchor="middle" x="2342" y="-16.1" font-family="Arial" font-size="8.00">imf:maximumQualifier</text>
</g>
<!-- http://ns.imfid.org/imf#maximumQualifier&#45;&gt;http://ns.imfid.org/imf#RangeQualifier -->
<g id="edge23" class="edge">
<title>http://ns.imfid.org/imf#maximumQualifier&#45;&gt;http://ns.imfid.org/imf#RangeQualifier</title>
<path fill="none" stroke="black" stroke-dasharray="1,5" d="M2376.72,-36.14C2400.62,-47.94 2432.56,-63.72 2458.21,-76.38"/>
<polygon fill="black" stroke="black" points="2456.83,-79.6 2467.35,-80.89 2459.93,-73.33 2456.83,-79.6"/>
</g>
<!-- http://ns.imfid.org/imf#InputTerminal -->
<g id="node34" class="node">
<title>http://ns.imfid.org/imf#InputTerminal</title>
<polygon fill="none" stroke="black" points="692.5,-36 615.5,-36 615.5,0 692.5,0 692.5,-36"/>
<text text-anchor="middle" x="654" y="-16.1" font-family="Arial" font-size="8.00">imf:InputTerminal</text>
</g>
<!-- http://ns.imfid.org/imf#InputTerminal&#45;&gt;http://ns.imfid.org/imf#Terminal -->
<g id="edge19" class="edge">
<title>http://ns.imfid.org/imf#InputTerminal&#45;&gt;http://ns.imfid.org/imf#Terminal</title>
<path fill="none" stroke="black" d="M643.58,-36.14C637.17,-46.7 628.82,-60.44 621.62,-72.29"/>
<polygon fill="none" stroke="black" points="618.6,-70.53 616.39,-80.89 624.58,-74.16 618.6,-70.53"/>
</g>
<!-- http://ns.imfid.org/imf#RangeQualifier&#45;&gt;http://ns.imfid.org/imf#AttributeQualifier -->
<g id="edge17" class="edge">
<title>http://ns.imfid.org/imf#RangeQualifier&#45;&gt;http://ns.imfid.org/imf#AttributeQualifier</title>
<path fill="none" stroke="black" d="M2460.44,-105.56C2356.13,-119.5 2083.22,-155.98 1965.9,-171.66"/>
<polygon fill="none" stroke="black" points="1965.16,-168.23 1955.71,-173.02 1966.09,-175.17 1965.16,-168.23"/>
</g>
<!-- http://ns.imfid.org/imf#OutputTerminal -->
<g id="node36" class="node">
<title>http://ns.imfid.org/imf#OutputTerminal</title>
<polygon fill="none" stroke="black" points="597.5,-36 514.5,-36 514.5,0 597.5,0 597.5,-36"/>
<text text-anchor="middle" x="556" y="-16.1" font-family="Arial" font-size="8.00">imf:OutputTerminal</text>
</g>
<!-- http://ns.imfid.org/imf#OutputTerminal&#45;&gt;http://ns.imfid.org/imf#Terminal -->
<g id="edge7" class="edge">
<title>http://ns.imfid.org/imf#OutputTerminal&#45;&gt;http://ns.imfid.org/imf#Terminal</title>
<path fill="none" stroke="black" d="M566.85,-36.14C573.53,-46.7 582.23,-60.44 589.72,-72.29"/>
<polygon fill="none" stroke="black" points="586.87,-74.31 595.17,-80.89 592.78,-70.57 586.87,-74.31"/>
</g>
<!-- http://ns.imfid.org/imf#absoluteQualifier -->
<g id="node37" class="node">
<title>http://ns.imfid.org/imf#absoluteQualifier</title>
<polygon fill="none" stroke="black" points="2277.5,-36 2188.5,-36 2188.5,0 2277.5,0 2277.5,-36"/>
<text text-anchor="middle" x="2233" y="-16.1" font-family="Arial" font-size="8.00">imf:absoluteQualifier</text>
</g>
<!-- http://ns.imfid.org/imf#absoluteQualifier&#45;&gt;http://ns.imfid.org/imf#RegularityQualifier -->
<g id="edge9" class="edge">
<title>http://ns.imfid.org/imf#absoluteQualifier&#45;&gt;http://ns.imfid.org/imf#RegularityQualifier</title>
<path fill="none" stroke="black" stroke-dasharray="1,5" d="M2208.91,-36.14C2192.91,-47.53 2171.72,-62.61 2154.27,-75.04"/>
<polygon fill="black" stroke="black" points="2152.16,-72.24 2146.04,-80.89 2156.22,-77.94 2152.16,-72.24"/>
</g>
<!-- http://ns.imfid.org/imf#AspectElement -->
<g id="node38" class="node">
<title>http://ns.imfid.org/imf#AspectElement</title>
<polygon fill="none" stroke="black" points="2910.5,-36 2827.5,-36 2827.5,0 2910.5,0 2910.5,-36"/>
<text text-anchor="middle" x="2869" y="-16.1" font-family="Arial" font-size="8.00">imf:AspectElement</text>
</g>
<!-- http://ns.imfid.org/imf#AspectElement&#45;&gt;http://ns.imfid.org/imf#Aspect -->
<g id="edge27" class="edge">
<title>http://ns.imfid.org/imf#AspectElement&#45;&gt;http://ns.imfid.org/imf#Aspect</title>
<path fill="none" stroke="black" d="M2847.95,-36.14C2834.22,-47.32 2816.12,-62.07 2801.03,-74.36"/>
<polygon fill="black" stroke="black" points="2798.55,-71.86 2793.01,-80.89 2802.97,-77.29 2798.55,-71.86"/>
<text text-anchor="middle" x="2849" y="-56.6" font-family="Arial" font-size="8.00">imf:hasAspect</text>
</g>
<!-- http://ns.imfid.org/imf#AspectElement&#45;&gt;70ee20c2&#45;8337&#45;4eae&#45;b2f5&#45;d214276d6baa -->
<g id="edge5" class="edge">
<title>http://ns.imfid.org/imf#AspectElement&#45;&gt;70ee20c2&#45;8337&#45;4eae&#45;b2f5&#45;d214276d6baa</title>
<path fill="none" stroke="black" d="M2879.71,-36.07C2882.96,-41.66 2886.36,-47.98 2889,-54 2892.07,-61 2894.8,-68.9 2897.01,-76.05"/>
<polygon fill="none" stroke="black" points="2893.7,-77.18 2899.87,-85.8 2900.42,-75.22 2893.7,-77.18"/>
</g>
<!-- http://ns.imfid.org/imf#AspectElement&#45;&gt;http://ns.imfid.org/imf#AspectElement -->
<g id="edge14" class="edge">
<title>http://ns.imfid.org/imf#AspectElement&#45;&gt;http://ns.imfid.org/imf#AspectElement</title>
<path fill="none" stroke="black" d="M2910.71,-10.62C2920.91,-11.16 2928.5,-13.62 2928.5,-18 2928.5,-20.73 2925.53,-22.72 2920.82,-23.96"/>
<polygon fill="black" stroke="black" points="2920.12,-20.52 2910.71,-25.38 2921.1,-27.46 2920.12,-20.52"/>
<text text-anchor="middle" x="2969.5" y="-16.1" font-family="Arial" font-size="8.00">imf:interAspectRelation</text>
</g>
<!-- http://ns.imfid.org/imf#nominalQualifier -->
<g id="node40" class="node">
<title>http://ns.imfid.org/imf#nominalQualifier</title>
<polygon fill="none" stroke="black" points="2493,-36 2407,-36 2407,0 2493,0 2493,-36"/>
<text text-anchor="middle" x="2450" y="-16.1" font-family="Arial" font-size="8.00">imf:nominalQualifier</text>
</g>
<!-- http://ns.imfid.org/imf#nominalQualifier&#45;&gt;http://ns.imfid.org/imf#RangeQualifier -->
<g id="edge20" class="edge">
<title>http://ns.imfid.org/imf#nominalQualifier&#45;&gt;http://ns.imfid.org/imf#RangeQualifier</title>
<path fill="none" stroke="black" stroke-dasharray="1,5" d="M2461.28,-36.14C2468.23,-46.7 2477.28,-60.44 2485.07,-72.29"/>
<polygon fill="black" stroke="black" points="2482.32,-74.46 2490.74,-80.89 2488.16,-70.61 2482.32,-74.46"/>
</g>
<!-- http://ns.imfid.org/imf#averageQualifier -->
<g id="node44" class="node">
<title>http://ns.imfid.org/imf#averageQualifier</title>
<polygon fill="none" stroke="black" points="2599,-36 2511,-36 2511,0 2599,0 2599,-36"/>
<text text-anchor="middle" x="2555" y="-16.1" font-family="Arial" font-size="8.00">imf:averageQualifier</text>
</g>
<!-- http://ns.imfid.org/imf#averageQualifier&#45;&gt;http://ns.imfid.org/imf#RangeQualifier -->
<g id="edge16" class="edge">
<title>http://ns.imfid.org/imf#averageQualifier&#45;&gt;http://ns.imfid.org/imf#RangeQualifier</title>
<path fill="none" stroke="black" stroke-dasharray="1,5" d="M2543.5,-36.14C2536.42,-46.7 2527.2,-60.44 2519.25,-72.29"/>
<polygon fill="black" stroke="black" points="2516.14,-70.64 2513.48,-80.89 2521.96,-74.54 2516.14,-70.64"/>
</g>
</g>
</svg>

