<?xml version="1.0" encoding="UTF-8" standalone="no"?>
<!DOCTYPE svg PUBLIC "-//W3C//DTD SVG 1.1//EN"
 "http://www.w3.org/Graphics/SVG/1.1/DTD/svg11.dtd">
<!-- Generated by graphviz version 2.43.0 (0)
 -->
<!-- Title: urn:temp#graph Pages: 1 -->
<svg width="2195px" height="595px"
 viewBox="0.00 0.00 2194.50 595.00" xmlns="http://www.w3.org/2000/svg" xmlns:xlink="http://www.w3.org/1999/xlink">
<g id="graph0" class="graph" transform="scale(1.0 1.0) rotate(0) translate(4 591)">
<title>urn:temp#graph</title>
<polygon fill="white" stroke="transparent" points="-4,4 -4,-591 2190.5,-591 2190.5,4 -4,4"/>
<!-- http://ns.imfid.org/imf#InterfacePoint -->
<g id="node1" class="node">
<title>http://ns.imfid.org/imf#InterfacePoint</title>
<polygon fill="none" stroke="black" points="615.5,-109 470.5,-109 470.5,-73 615.5,-73 615.5,-109"/>
<text text-anchor="middle" x="543" y="-89.1" font-family="Arial" font-size="8.00">http://ns.imfid.org/imf#InterfacePoint</text>
</g>
<!-- http://ns.imfid.org/imf#InputTerminal -->
<g id="node23" class="node">
<title>http://ns.imfid.org/imf#InputTerminal</title>
<polygon fill="none" stroke="black" points="587.5,-271 444.5,-271 444.5,-235 587.5,-235 587.5,-271"/>
<text text-anchor="middle" x="516" y="-251.1" font-family="Arial" font-size="8.00">http://ns.imfid.org/imf#InputTerminal</text>
</g>
<!-- http://ns.imfid.org/imf#InterfacePoint&#45;&gt;http://ns.imfid.org/imf#InputTerminal -->
<g id="edge28" class="edge">
<title>http://ns.imfid.org/imf#InterfacePoint&#45;&gt;http://ns.imfid.org/imf#InputTerminal</title>
<path fill="none" stroke="black" d="M535.35,-109.26C530.31,-121.49 524.09,-138.43 521,-154 516.33,-177.55 515.28,-204.86 515.29,-224.66"/>
<polygon fill="black" stroke="black" points="511.79,-224.85 515.38,-234.82 518.79,-224.79 511.79,-224.85"/>
<text text-anchor="middle" x="575.5" y="-170.1" font-family="Arial" font-size="8.00">http://ns.imfid.org/imf#theInput</text>
</g>
<!-- http://ns.imfid.org/imf#OutputTerminal -->
<g id="node24" class="node">
<title>http://ns.imfid.org/imf#OutputTerminal</title>
<polygon fill="none" stroke="black" points="451.5,-190 302.5,-190 302.5,-154 451.5,-154 451.5,-190"/>
<text text-anchor="middle" x="377" y="-170.1" font-family="Arial" font-size="8.00">http://ns.imfid.org/imf#OutputTerminal</text>
</g>
<!-- http://ns.imfid.org/imf#InterfacePoint&#45;&gt;http://ns.imfid.org/imf#OutputTerminal -->
<g id="edge27" class="edge">
<title>http://ns.imfid.org/imf#InterfacePoint&#45;&gt;http://ns.imfid.org/imf#OutputTerminal</title>
<path fill="none" stroke="black" d="M470.37,-98.56C431.86,-103.69 390.06,-112.46 378,-127 374.13,-131.67 372.56,-137.68 372.24,-143.75"/>
<polygon fill="black" stroke="black" points="368.75,-143.96 372.7,-153.79 375.74,-143.64 368.75,-143.96"/>
<text text-anchor="middle" x="435.5" y="-129.6" font-family="Arial" font-size="8.00">http://ns.imfid.org/imf#theOutput</text>
</g>
<!-- http://ns.imfid.org/imf#SystemElement -->
<g id="node29" class="node">
<title>http://ns.imfid.org/imf#SystemElement</title>
<polygon fill="none" stroke="black" points="893.5,-425 742.5,-425 742.5,-389 893.5,-389 893.5,-425"/>
<text text-anchor="middle" x="818" y="-405.1" font-family="Arial" font-size="8.00">http://ns.imfid.org/imf#SystemElement</text>
</g>
<!-- http://ns.imfid.org/imf#InterfacePoint&#45;&gt;http://ns.imfid.org/imf#SystemElement -->
<g id="edge52" class="edge">
<title>http://ns.imfid.org/imf#InterfacePoint&#45;&gt;http://ns.imfid.org/imf#SystemElement</title>
<path fill="none" stroke="black" d="M470.48,-99.06C391.11,-108.84 275,-130.13 275,-171 275,-171 275,-171 275,-335 275,-380.54 579.16,-397.68 732.19,-403.43"/>
<polygon fill="none" stroke="black" points="732.38,-406.94 742.5,-403.8 732.63,-399.94 732.38,-406.94"/>
</g>
<!-- 9aeb70da&#45;4a28&#45;4bf6&#45;b33f&#45;82d4d59fa86d -->
<g id="node2" class="node">
<title>9aeb70da&#45;4a28&#45;4bf6&#45;b33f&#45;82d4d59fa86d</title>
<polygon fill="#e5e5e5" stroke="black" stroke-dasharray="5,2" points="975,-501 807,-501 807,-475 975,-475 975,-501"/>
<text text-anchor="middle" x="891" y="-490.6" font-family="Arial" font-size="8.00">owl:Restriction</text>
<text text-anchor="middle" x="891" y="-481.6" font-family="Arial" font-size="8.00">,9aeb70da&#45;4a28&#45;4bf6&#45;b33f&#45;82d4d59fa86d</text>
</g>
<!-- http://ns.imfid.org/imf#FunctionAspect -->
<g id="node3" class="node">
<title>http://ns.imfid.org/imf#FunctionAspect</title>
<polygon fill="none" stroke="black" points="150,-506 0,-506 0,-470 150,-470 150,-506"/>
<text text-anchor="middle" x="75" y="-486.1" font-family="Arial" font-size="8.00">http://ns.imfid.org/imf#FunctionAspect</text>
</g>
<!-- http://ns.imfid.org/imf#Aspect -->
<g id="node6" class="node">
<title>http://ns.imfid.org/imf#Aspect</title>
<polygon fill="none" stroke="black" points="468.5,-587 349.5,-587 349.5,-551 468.5,-551 468.5,-587"/>
<text text-anchor="middle" x="409" y="-567.1" font-family="Arial" font-size="8.00">http://ns.imfid.org/imf#Aspect</text>
</g>
<!-- http://ns.imfid.org/imf#FunctionAspect&#45;&gt;http://ns.imfid.org/imf#Aspect -->
<g id="edge44" class="edge">
<title>http://ns.imfid.org/imf#FunctionAspect&#45;&gt;http://ns.imfid.org/imf#Aspect</title>
<path fill="none" stroke="black" stroke-dasharray="1,5" d="M147.06,-506.04C204.05,-519.52 283.12,-538.23 339.45,-551.55"/>
<polygon fill="black" stroke="black" points="338.8,-554.99 349.33,-553.89 340.41,-548.18 338.8,-554.99"/>
</g>
<!-- http://ns.imfid.org/imf#InstalledAspect -->
<g id="node4" class="node">
<title>http://ns.imfid.org/imf#InstalledAspect</title>
<polygon fill="none" stroke="black" points="316.5,-506 167.5,-506 167.5,-470 316.5,-470 316.5,-506"/>
<text text-anchor="middle" x="242" y="-486.1" font-family="Arial" font-size="8.00">http://ns.imfid.org/imf#InstalledAspect</text>
</g>
<!-- http://ns.imfid.org/imf#InstalledAspect&#45;&gt;http://ns.imfid.org/imf#Aspect -->
<g id="edge9" class="edge">
<title>http://ns.imfid.org/imf#InstalledAspect&#45;&gt;http://ns.imfid.org/imf#Aspect</title>
<path fill="none" stroke="black" stroke-dasharray="1,5" d="M278.24,-506.14C303.29,-518 336.82,-533.85 363.65,-546.55"/>
<polygon fill="black" stroke="black" points="362.3,-549.78 372.83,-550.89 365.29,-543.45 362.3,-549.78"/>
</g>
<!-- http://ns.imfid.org/imf#FunctionTerminal -->
<g id="node5" class="node">
<title>http://ns.imfid.org/imf#FunctionTerminal</title>
<polygon fill="none" stroke="black" points="828,-190 672,-190 672,-154 828,-154 828,-190"/>
<text text-anchor="middle" x="750" y="-170.1" font-family="Arial" font-size="8.00">http://ns.imfid.org/imf#FunctionTerminal</text>
</g>
<!-- http://ns.imfid.org/imf#Terminal -->
<g id="node8" class="node">
<title>http://ns.imfid.org/imf#Terminal</title>
<polygon fill="none" stroke="black" points="1066.5,-352 941.5,-352 941.5,-316 1066.5,-316 1066.5,-352"/>
<text text-anchor="middle" x="1004" y="-332.1" font-family="Arial" font-size="8.00">http://ns.imfid.org/imf#Terminal</text>
</g>
<!-- http://ns.imfid.org/imf#FunctionTerminal&#45;&gt;http://ns.imfid.org/imf#Terminal -->
<g id="edge17" class="edge">
<title>http://ns.imfid.org/imf#FunctionTerminal&#45;&gt;http://ns.imfid.org/imf#Terminal</title>
<path fill="none" stroke="black" d="M753.32,-190.15C758.44,-212.05 770.39,-249.66 795,-271 832.8,-303.78 887.3,-319.24 931.17,-326.52"/>
<polygon fill="none" stroke="black" points="930.79,-330.01 941.21,-328.08 931.86,-323.09 930.79,-330.01"/>
</g>
<!-- http://ns.imfid.org/imf#FunctionAspectElement -->
<g id="node18" class="node">
<title>http://ns.imfid.org/imf#FunctionAspectElement</title>
<polygon fill="none" stroke="black" points="982.5,-271 803.5,-271 803.5,-235 982.5,-235 982.5,-271"/>
<text text-anchor="middle" x="893" y="-251.1" font-family="Arial" font-size="8.00">http://ns.imfid.org/imf#FunctionAspectElement</text>
</g>
<!-- http://ns.imfid.org/imf#FunctionTerminal&#45;&gt;http://ns.imfid.org/imf#FunctionAspectElement -->
<g id="edge49" class="edge">
<title>http://ns.imfid.org/imf#FunctionTerminal&#45;&gt;http://ns.imfid.org/imf#FunctionAspectElement</title>
<path fill="none" stroke="black" d="M781.03,-190.14C802.2,-201.84 830.44,-217.44 853.26,-230.05"/>
<polygon fill="none" stroke="black" points="851.59,-233.12 862.03,-234.89 854.97,-226.99 851.59,-233.12"/>
</g>
<!-- http://ns.imfid.org/imf#InstalledAspectElement -->
<g id="node7" class="node">
<title>http://ns.imfid.org/imf#InstalledAspectElement</title>
<polygon fill="none" stroke="black" points="1835,-271 1657,-271 1657,-235 1835,-235 1835,-271"/>
<text text-anchor="middle" x="1746" y="-251.1" font-family="Arial" font-size="8.00">http://ns.imfid.org/imf#InstalledAspectElement</text>
</g>
<!-- http://ns.imfid.org/imf#AspectElement -->
<g id="node25" class="node">
<title>http://ns.imfid.org/imf#AspectElement</title>
<polygon fill="none" stroke="black" points="1170.5,-506 1021.5,-506 1021.5,-470 1170.5,-470 1170.5,-506"/>
<text text-anchor="middle" x="1096" y="-486.1" font-family="Arial" font-size="8.00">http://ns.imfid.org/imf#AspectElement</text>
</g>
<!-- http://ns.imfid.org/imf#InstalledAspectElement&#45;&gt;http://ns.imfid.org/imf#AspectElement -->
<g id="edge34" class="edge">
<title>http://ns.imfid.org/imf#InstalledAspectElement&#45;&gt;http://ns.imfid.org/imf#AspectElement</title>
<path fill="none" stroke="black" d="M1698.47,-271.04C1581.38,-313.01 1279.42,-421.25 1153,-466.57"/>
<polygon fill="none" stroke="black" points="1151.71,-463.31 1143.48,-469.98 1154.07,-469.9 1151.71,-463.31"/>
</g>
<!-- http://ns.imfid.org/imf#Terminal&#45;&gt;http://ns.imfid.org/imf#SystemElement -->
<g id="edge2" class="edge">
<title>http://ns.imfid.org/imf#Terminal&#45;&gt;http://ns.imfid.org/imf#SystemElement</title>
<path fill="none" stroke="black" d="M959.45,-352.01C933.3,-361.99 900.06,-374.68 872.37,-385.24"/>
<polygon fill="none" stroke="black" points="870.93,-382.05 862.83,-388.89 873.42,-388.59 870.93,-382.05"/>
</g>
<!-- http://ns.imfid.org/imf#ProductBlock -->
<g id="node9" class="node">
<title>http://ns.imfid.org/imf#ProductBlock</title>
<polygon fill="none" stroke="black" points="1361,-190 1219,-190 1219,-154 1361,-154 1361,-190"/>
<text text-anchor="middle" x="1290" y="-170.1" font-family="Arial" font-size="8.00">http://ns.imfid.org/imf#ProductBlock</text>
</g>
<!-- http://ns.imfid.org/imf#Block -->
<g id="node17" class="node">
<title>http://ns.imfid.org/imf#Block</title>
<polygon fill="none" stroke="black" points="1347,-271 1233,-271 1233,-235 1347,-235 1347,-271"/>
<text text-anchor="middle" x="1290" y="-251.1" font-family="Arial" font-size="8.00">http://ns.imfid.org/imf#Block</text>
</g>
<!-- http://ns.imfid.org/imf#ProductBlock&#45;&gt;http://ns.imfid.org/imf#Block -->
<g id="edge4" class="edge">
<title>http://ns.imfid.org/imf#ProductBlock&#45;&gt;http://ns.imfid.org/imf#Block</title>
<path fill="none" stroke="black" d="M1290,-190.14C1290,-200.29 1290,-213.37 1290,-224.88"/>
<polygon fill="none" stroke="black" points="1286.5,-224.89 1290,-234.89 1293.5,-224.89 1286.5,-224.89"/>
</g>
<!-- http://ns.imfid.org/imf#ProductAspectElement -->
<g id="node21" class="node">
<title>http://ns.imfid.org/imf#ProductAspectElement</title>
<polygon fill="none" stroke="black" points="1215,-271 1039,-271 1039,-235 1215,-235 1215,-271"/>
<text text-anchor="middle" x="1127" y="-251.1" font-family="Arial" font-size="8.00">http://ns.imfid.org/imf#ProductAspectElement</text>
</g>
<!-- http://ns.imfid.org/imf#ProductBlock&#45;&gt;http://ns.imfid.org/imf#ProductAspectElement -->
<g id="edge29" class="edge">
<title>http://ns.imfid.org/imf#ProductBlock&#45;&gt;http://ns.imfid.org/imf#ProductAspectElement</title>
<path fill="none" stroke="black" d="M1257.92,-190.14C1242.1,-198.46 1222.66,-208.48 1205,-217 1195.48,-221.6 1185.22,-226.34 1175.36,-230.8"/>
<polygon fill="none" stroke="black" points="1173.76,-227.69 1166.08,-234.98 1176.63,-234.07 1173.76,-227.69"/>
</g>
<!-- http://ns.imfid.org/imf#InstalledInterfacePoint -->
<g id="node10" class="node">
<title>http://ns.imfid.org/imf#InstalledInterfacePoint</title>
<polygon fill="none" stroke="black" points="1634,-36 1460,-36 1460,0 1634,0 1634,-36"/>
<text text-anchor="middle" x="1547" y="-16.1" font-family="Arial" font-size="8.00">http://ns.imfid.org/imf#InstalledInterfacePoint</text>
</g>
<!-- http://ns.imfid.org/imf#InstalledInterfacePoint&#45;&gt;http://ns.imfid.org/imf#InterfacePoint -->
<g id="edge3" class="edge">
<title>http://ns.imfid.org/imf#InstalledInterfacePoint&#45;&gt;http://ns.imfid.org/imf#InterfacePoint</title>
<path fill="none" stroke="black" d="M1459.94,-22.46C1371.75,-25.96 1231.4,-31.46 1110,-36 1054.23,-38.08 661.78,-39.07 608,-54 597.06,-57.04 585.95,-62.25 576.09,-67.77"/>
<polygon fill="none" stroke="black" points="574.26,-64.78 567.43,-72.88 577.82,-70.81 574.26,-64.78"/>
</g>
<!-- http://ns.imfid.org/imf#InstalledInterfacePoint&#45;&gt;http://ns.imfid.org/imf#InstalledAspectElement -->
<g id="edge13" class="edge">
<title>http://ns.imfid.org/imf#InstalledInterfacePoint&#45;&gt;http://ns.imfid.org/imf#InstalledAspectElement</title>
<path fill="none" stroke="black" d="M1634.37,-29.21C1710.44,-43.24 1816.4,-76.32 1868,-154 1876.85,-167.33 1876.37,-176.36 1868,-190 1856.74,-208.36 1838.16,-221.49 1818.85,-230.79"/>
<polygon fill="none" stroke="black" points="1817.33,-227.63 1809.65,-234.93 1820.2,-234.02 1817.33,-227.63"/>
</g>
<!-- http://ns.imfid.org/imf#FunctionBlock -->
<g id="node11" class="node">
<title>http://ns.imfid.org/imf#FunctionBlock</title>
<polygon fill="none" stroke="black" points="1162.5,-190 1017.5,-190 1017.5,-154 1162.5,-154 1162.5,-190"/>
<text text-anchor="middle" x="1090" y="-170.1" font-family="Arial" font-size="8.00">http://ns.imfid.org/imf#FunctionBlock</text>
</g>
<!-- http://ns.imfid.org/imf#FunctionBlock&#45;&gt;http://ns.imfid.org/imf#Block -->
<g id="edge1" class="edge">
<title>http://ns.imfid.org/imf#FunctionBlock&#45;&gt;http://ns.imfid.org/imf#Block</title>
<path fill="none" stroke="black" d="M1133.4,-190.14C1163.93,-202.2 1204.96,-218.41 1237.36,-231.21"/>
<polygon fill="none" stroke="black" points="1236.1,-234.47 1246.69,-234.89 1238.67,-227.96 1236.1,-234.47"/>
</g>
<!-- http://ns.imfid.org/imf#FunctionBlock&#45;&gt;http://ns.imfid.org/imf#FunctionAspectElement -->
<g id="edge19" class="edge">
<title>http://ns.imfid.org/imf#FunctionBlock&#45;&gt;http://ns.imfid.org/imf#FunctionAspectElement</title>
<path fill="none" stroke="black" d="M1047.25,-190.14C1017.31,-202.15 977.11,-218.27 945.26,-231.04"/>
<polygon fill="none" stroke="black" points="943.64,-227.92 935.66,-234.89 946.25,-234.42 943.64,-227.92"/>
</g>
<!-- http://ns.imfid.org/imf#LocationInterfacePoint -->
<g id="node12" class="node">
<title>http://ns.imfid.org/imf#LocationInterfacePoint</title>
<polygon fill="none" stroke="black" points="2186.5,-36 2011.5,-36 2011.5,0 2186.5,0 2186.5,-36"/>
<text text-anchor="middle" x="2099" y="-16.1" font-family="Arial" font-size="8.00">http://ns.imfid.org/imf#LocationInterfacePoint</text>
</g>
<!-- http://ns.imfid.org/imf#LocationInterfacePoint&#45;&gt;http://ns.imfid.org/imf#InterfacePoint -->
<g id="edge15" class="edge">
<title>http://ns.imfid.org/imf#LocationInterfacePoint&#45;&gt;http://ns.imfid.org/imf#InterfacePoint</title>
<path fill="none" stroke="black" d="M2011.45,-23C1736.75,-35.53 894.27,-73.97 625.98,-86.21"/>
<polygon fill="none" stroke="black" points="625.75,-82.72 615.92,-86.67 626.07,-89.71 625.75,-82.72"/>
</g>
<!-- http://www.w3.org/2002/07/owl#Nothing -->
<g id="node15" class="node">
<title>http://www.w3.org/2002/07/owl#Nothing</title>
<polygon fill="none" stroke="black" points="2178.5,-271 2119.5,-271 2119.5,-235 2178.5,-235 2178.5,-271"/>
<text text-anchor="middle" x="2149" y="-251.1" font-family="Arial" font-size="8.00">owl:Nothing</text>
</g>
<!-- http://ns.imfid.org/imf#LocationInterfacePoint&#45;&gt;http://www.w3.org/2002/07/owl#Nothing -->
<g id="edge40" class="edge">
<title>http://ns.imfid.org/imf#LocationInterfacePoint&#45;&gt;http://www.w3.org/2002/07/owl#Nothing</title>
<path fill="none" stroke="black" d="M2106.68,-36.21C2108.96,-41.8 2111.3,-48.09 2113,-54 2130.22,-113.85 2140.91,-186.34 2145.82,-224.86"/>
<polygon fill="none" stroke="black" points="2142.35,-225.29 2147.05,-234.78 2149.29,-224.43 2142.35,-225.29"/>
</g>
<!-- http://ns.imfid.org/imf#LocationAspectElement -->
<g id="node31" class="node">
<title>http://ns.imfid.org/imf#LocationAspectElement</title>
<polygon fill="none" stroke="black" points="2101.5,-271 1922.5,-271 1922.5,-235 2101.5,-235 2101.5,-271"/>
<text text-anchor="middle" x="2012" y="-251.1" font-family="Arial" font-size="8.00">http://ns.imfid.org/imf#LocationAspectElement</text>
</g>
<!-- http://ns.imfid.org/imf#LocationInterfacePoint&#45;&gt;http://ns.imfid.org/imf#LocationAspectElement -->
<g id="edge8" class="edge">
<title>http://ns.imfid.org/imf#LocationInterfacePoint&#45;&gt;http://ns.imfid.org/imf#LocationAspectElement</title>
<path fill="none" stroke="black" d="M2100.91,-36.14C2103.7,-68.26 2106.03,-138.9 2080,-190 2072.33,-205.06 2059.38,-218.27 2046.83,-228.58"/>
<polygon fill="none" stroke="black" points="2044.43,-226.01 2038.7,-234.92 2048.73,-231.53 2044.43,-226.01"/>
</g>
<!-- http://ns.imfid.org/imf#LocationAspect -->
<g id="node13" class="node">
<title>http://ns.imfid.org/imf#LocationAspect</title>
<polygon fill="none" stroke="black" points="483.5,-506 334.5,-506 334.5,-470 483.5,-470 483.5,-506"/>
<text text-anchor="middle" x="409" y="-486.1" font-family="Arial" font-size="8.00">http://ns.imfid.org/imf#LocationAspect</text>
</g>
<!-- http://ns.imfid.org/imf#LocationAspect&#45;&gt;http://ns.imfid.org/imf#Aspect -->
<g id="edge38" class="edge">
<title>http://ns.imfid.org/imf#LocationAspect&#45;&gt;http://ns.imfid.org/imf#Aspect</title>
<path fill="none" stroke="black" stroke-dasharray="1,5" d="M409,-506.14C409,-516.29 409,-529.37 409,-540.88"/>
<polygon fill="black" stroke="black" points="405.5,-540.89 409,-550.89 412.5,-540.89 405.5,-540.89"/>
</g>
<!-- http://ns.imfid.org/imf#LocationTerminal -->
<g id="node14" class="node">
<title>http://ns.imfid.org/imf#LocationTerminal</title>
<polygon fill="none" stroke="black" points="2070.5,-190 1915.5,-190 1915.5,-154 2070.5,-154 2070.5,-190"/>
<text text-anchor="middle" x="1993" y="-170.1" font-family="Arial" font-size="8.00">http://ns.imfid.org/imf#LocationTerminal</text>
</g>
<!-- http://ns.imfid.org/imf#LocationTerminal&#45;&gt;http://ns.imfid.org/imf#Terminal -->
<g id="edge39" class="edge">
<title>http://ns.imfid.org/imf#LocationTerminal&#45;&gt;http://ns.imfid.org/imf#Terminal</title>
<path fill="none" stroke="black" d="M1970.11,-190.14C1935.44,-215.72 1870.82,-261.88 1844,-271 1702.91,-318.97 1254.04,-329.86 1076.9,-332.3"/>
<polygon fill="none" stroke="black" points="1076.59,-328.8 1066.64,-332.44 1076.68,-335.8 1076.59,-328.8"/>
</g>
<!-- http://ns.imfid.org/imf#LocationTerminal&#45;&gt;http://www.w3.org/2002/07/owl#Nothing -->
<g id="edge21" class="edge">
<title>http://ns.imfid.org/imf#LocationTerminal&#45;&gt;http://www.w3.org/2002/07/owl#Nothing</title>
<path fill="none" stroke="black" d="M2026.85,-190.14C2051.43,-202.59 2084.74,-219.46 2110.36,-232.43"/>
<polygon fill="none" stroke="black" points="2108.92,-235.63 2119.42,-237.02 2112.08,-229.38 2108.92,-235.63"/>
</g>
<!-- http://ns.imfid.org/imf#LocationTerminal&#45;&gt;http://ns.imfid.org/imf#LocationAspectElement -->
<g id="edge50" class="edge">
<title>http://ns.imfid.org/imf#LocationTerminal&#45;&gt;http://ns.imfid.org/imf#LocationAspectElement</title>
<path fill="none" stroke="black" d="M1997.12,-190.14C1999.56,-200.29 2002.71,-213.37 2005.48,-224.88"/>
<polygon fill="none" stroke="black" points="2002.14,-225.99 2007.89,-234.89 2008.95,-224.35 2002.14,-225.99"/>
</g>
<!-- http://ns.imfid.org/imf#System -->
<g id="node16" class="node">
<title>http://ns.imfid.org/imf#System</title>
<polygon fill="none" stroke="black" points="789,-506 667,-506 667,-470 789,-470 789,-506"/>
<text text-anchor="middle" x="728" y="-486.1" font-family="Arial" font-size="8.00">http://ns.imfid.org/imf#System</text>
</g>
<!-- http://ns.imfid.org/imf#Block&#45;&gt;http://ns.imfid.org/imf#Terminal -->
<g id="edge33" class="edge">
<title>http://ns.imfid.org/imf#Block&#45;&gt;http://ns.imfid.org/imf#Terminal</title>
<path fill="none" stroke="black" d="M1232.79,-268.84C1229.82,-269.58 1226.87,-270.3 1224,-271 1189,-279.49 1179.77,-279.63 1145,-289 1118.55,-296.13 1089.63,-304.97 1064.89,-312.85"/>
<polygon fill="black" stroke="black" points="1063.74,-309.55 1055.28,-315.93 1065.87,-316.21 1063.74,-309.55"/>
<text text-anchor="middle" x="1206" y="-291.6" font-family="Arial" font-size="8.00">http://ns.imfid.org/imf#hasTerminal</text>
</g>
<!-- http://ns.imfid.org/imf#Block&#45;&gt;http://ns.imfid.org/imf#Block -->
<g id="edge26" class="edge">
<title>http://ns.imfid.org/imf#Block&#45;&gt;http://ns.imfid.org/imf#Block</title>
<path fill="none" stroke="black" d="M1347.23,-245.91C1357.67,-246.81 1365,-249.17 1365,-253 1365,-255.39 1362.14,-257.21 1357.44,-258.46"/>
<polygon fill="black" stroke="black" points="1356.55,-255.06 1347.23,-260.09 1357.65,-261.97 1356.55,-255.06"/>
<text text-anchor="middle" x="1419" y="-251.1" font-family="Arial" font-size="8.00">http://ns.imfid.org/imf#isPartOf</text>
</g>
<!-- http://ns.imfid.org/imf#Block&#45;&gt;http://ns.imfid.org/imf#SystemElement -->
<g id="edge31" class="edge">
<title>http://ns.imfid.org/imf#Block&#45;&gt;http://ns.imfid.org/imf#SystemElement</title>
<path fill="none" stroke="black" d="M1284.75,-271.22C1281.13,-280.39 1275.43,-291.15 1267,-298 1211.88,-342.78 1018.04,-377.3 903.86,-394.32"/>
<polygon fill="none" stroke="black" points="903.12,-390.89 893.74,-395.81 904.15,-397.82 903.12,-390.89"/>
</g>
<!-- http://ns.imfid.org/imf#FunctionAspectElement&#45;&gt;http://ns.imfid.org/imf#AspectElement -->
<g id="edge48" class="edge">
<title>http://ns.imfid.org/imf#FunctionAspectElement&#45;&gt;http://ns.imfid.org/imf#AspectElement</title>
<path fill="none" stroke="black" d="M897.25,-271.22C902.94,-291.86 914.51,-326.82 933,-352 967.78,-399.37 1022.73,-440.25 1059.07,-464.25"/>
<polygon fill="none" stroke="black" points="1057.59,-467.47 1067.88,-469.99 1061.41,-461.6 1057.59,-467.47"/>
</g>
<!-- http://ns.imfid.org/imf#ProductInterfacePoint -->
<g id="node19" class="node">
<title>http://ns.imfid.org/imf#ProductInterfacePoint</title>
<polygon fill="none" stroke="black" points="1100.5,-36 927.5,-36 927.5,0 1100.5,0 1100.5,-36"/>
<text text-anchor="middle" x="1014" y="-16.1" font-family="Arial" font-size="8.00">http://ns.imfid.org/imf#ProductInterfacePoint</text>
</g>
<!-- http://ns.imfid.org/imf#ProductInterfacePoint&#45;&gt;http://ns.imfid.org/imf#InterfacePoint -->
<g id="edge51" class="edge">
<title>http://ns.imfid.org/imf#ProductInterfacePoint&#45;&gt;http://ns.imfid.org/imf#InterfacePoint</title>
<path fill="none" stroke="black" d="M927.38,-23.06C810.62,-28.99 613.72,-40.76 583,-54 576.43,-56.83 570.21,-61.19 564.72,-65.91"/>
<polygon fill="none" stroke="black" points="562.12,-63.55 557.24,-72.95 566.92,-68.65 562.12,-63.55"/>
</g>
<!-- http://ns.imfid.org/imf#ProductInterfacePoint&#45;&gt;http://ns.imfid.org/imf#ProductAspectElement -->
<g id="edge7" class="edge">
<title>http://ns.imfid.org/imf#ProductInterfacePoint&#45;&gt;http://ns.imfid.org/imf#ProductAspectElement</title>
<path fill="none" stroke="black" d="M1047.84,-36.18C1086.15,-57.77 1146.55,-98.79 1172,-154 1183.5,-178.96 1167.02,-207.51 1150.87,-227.33"/>
<polygon fill="none" stroke="black" points="1148.14,-225.13 1144.28,-235 1153.45,-229.69 1148.14,-225.13"/>
</g>
<!-- http://ns.imfid.org/imf#LocationBlock -->
<g id="node20" class="node">
<title>http://ns.imfid.org/imf#LocationBlock</title>
<polygon fill="none" stroke="black" points="1685,-190 1541,-190 1541,-154 1685,-154 1685,-190"/>
<text text-anchor="middle" x="1613" y="-170.1" font-family="Arial" font-size="8.00">http://ns.imfid.org/imf#LocationBlock</text>
</g>
<!-- http://ns.imfid.org/imf#LocationBlock&#45;&gt;http://ns.imfid.org/imf#Block -->
<g id="edge14" class="edge">
<title>http://ns.imfid.org/imf#LocationBlock&#45;&gt;http://ns.imfid.org/imf#Block</title>
<path fill="none" stroke="black" d="M1543.31,-190.04C1488.14,-203.54 1411.57,-222.27 1357.08,-235.59"/>
<polygon fill="none" stroke="black" points="1356.06,-232.24 1347.18,-238.01 1357.72,-239.04 1356.06,-232.24"/>
</g>
<!-- http://ns.imfid.org/imf#LocationBlock&#45;&gt;http://ns.imfid.org/imf#LocationAspectElement -->
<g id="edge35" class="edge">
<title>http://ns.imfid.org/imf#LocationBlock&#45;&gt;http://ns.imfid.org/imf#LocationAspectElement</title>
<path fill="none" stroke="black" d="M1685.43,-188.06C1688.66,-188.72 1691.86,-189.37 1695,-190 1768.18,-204.74 1850.98,-220.92 1913.6,-233.05"/>
<polygon fill="none" stroke="black" points="1912.99,-236.5 1923.47,-234.96 1914.32,-229.62 1912.99,-236.5"/>
</g>
<!-- http://ns.imfid.org/imf#ProductAspectElement&#45;&gt;http://ns.imfid.org/imf#AspectElement -->
<g id="edge37" class="edge">
<title>http://ns.imfid.org/imf#ProductAspectElement&#45;&gt;http://ns.imfid.org/imf#AspectElement</title>
<path fill="none" stroke="black" d="M1124.72,-271.13C1119.39,-311.19 1106.08,-411.25 1099.62,-459.77"/>
<polygon fill="none" stroke="black" points="1096.13,-459.47 1098.28,-469.84 1103.07,-460.39 1096.13,-459.47"/>
</g>
<!-- http://ns.imfid.org/imf#ProductAspect -->
<g id="node22" class="node">
<title>http://ns.imfid.org/imf#ProductAspect</title>
<polygon fill="none" stroke="black" points="648.5,-506 501.5,-506 501.5,-470 648.5,-470 648.5,-506"/>
<text text-anchor="middle" x="575" y="-486.1" font-family="Arial" font-size="8.00">http://ns.imfid.org/imf#ProductAspect</text>
</g>
<!-- http://ns.imfid.org/imf#ProductAspect&#45;&gt;http://ns.imfid.org/imf#Aspect -->
<g id="edge5" class="edge">
<title>http://ns.imfid.org/imf#ProductAspect&#45;&gt;http://ns.imfid.org/imf#Aspect</title>
<path fill="none" stroke="black" stroke-dasharray="1,5" d="M538.98,-506.14C514.07,-518 480.75,-533.85 454.08,-546.55"/>
<polygon fill="black" stroke="black" points="452.47,-543.43 444.95,-550.89 455.48,-549.75 452.47,-543.43"/>
</g>
<!-- http://ns.imfid.org/imf#InputTerminal&#45;&gt;http://ns.imfid.org/imf#Terminal -->
<g id="edge18" class="edge">
<title>http://ns.imfid.org/imf#InputTerminal&#45;&gt;http://ns.imfid.org/imf#Terminal</title>
<path fill="none" stroke="black" d="M587.74,-265.61C679.8,-280.52 838.63,-306.23 931.19,-321.21"/>
<polygon fill="none" stroke="black" points="930.89,-324.71 941.32,-322.85 932.01,-317.8 930.89,-324.71"/>
</g>
<!-- http://ns.imfid.org/imf#OutputTerminal&#45;&gt;http://ns.imfid.org/imf#Terminal -->
<g id="edge6" class="edge">
<title>http://ns.imfid.org/imf#OutputTerminal&#45;&gt;http://ns.imfid.org/imf#Terminal</title>
<path fill="none" stroke="black" d="M365.47,-190.21C361.38,-198.55 358.74,-208.55 363,-217 381.17,-253.04 398.42,-256.3 436,-271 524.57,-305.64 799.14,-323.17 931.37,-329.79"/>
<polygon fill="none" stroke="black" points="931.25,-333.29 941.41,-330.29 931.6,-326.3 931.25,-333.29"/>
</g>
<!-- http://ns.imfid.org/imf#OutputTerminal&#45;&gt;http://ns.imfid.org/imf#InputTerminal -->
<g id="edge30" class="edge">
<title>http://ns.imfid.org/imf#OutputTerminal&#45;&gt;http://ns.imfid.org/imf#InputTerminal</title>
<path fill="none" stroke="black" d="M368.6,-190.02C365.52,-198.91 364.06,-209.47 370,-217 378.66,-227.98 405.73,-235.91 434.25,-241.41"/>
<polygon fill="black" stroke="black" points="433.9,-244.91 444.36,-243.26 435.16,-238.02 433.9,-244.91"/>
<text text-anchor="middle" x="436" y="-210.6" font-family="Arial" font-size="8.00">http://ns.imfid.org/imf#isConnectedTo</text>
</g>
<!-- http://ns.imfid.org/imf#AspectElement&#45;&gt;http://ns.imfid.org/imf#Aspect -->
<g id="edge32" class="edge">
<title>http://ns.imfid.org/imf#AspectElement&#45;&gt;http://ns.imfid.org/imf#Aspect</title>
<path fill="none" stroke="black" d="M1021.36,-500.79C1008.9,-502.62 996.09,-504.43 984,-506 802.18,-529.59 587.18,-551.07 478.85,-561.45"/>
<polygon fill="black" stroke="black" points="478.32,-557.99 468.7,-562.42 478.99,-564.95 478.32,-557.99"/>
<text text-anchor="middle" x="884" y="-526.6" font-family="Arial" font-size="8.00">http://ns.imfid.org/imf#hasAspect</text>
</g>
<!-- http://ns.imfid.org/imf#AspectElement&#45;&gt;http://ns.imfid.org/imf#AspectElement -->
<g id="edge12" class="edge">
<title>http://ns.imfid.org/imf#AspectElement&#45;&gt;http://ns.imfid.org/imf#AspectElement</title>
<path fill="none" stroke="black" d="M1170.76,-486.65C1181.38,-486.87 1188.5,-487.32 1188.5,-488 1188.5,-488.42 1185.72,-488.76 1181.04,-489"/>
<polygon fill="black" stroke="black" points="1180.64,-485.51 1170.76,-489.35 1180.88,-492.51 1180.64,-485.51"/>
<text text-anchor="middle" x="1262.5" y="-486.1" font-family="Arial" font-size="8.00">http://ns.imfid.org/imf#interAspectRelation</text>
</g>
<!-- http://ns.imfid.org/imf#AspectElement&#45;&gt;http://ns.imfid.org/imf#AspectElement -->
<g id="edge36" class="edge">
<title>http://ns.imfid.org/imf#AspectElement&#45;&gt;http://ns.imfid.org/imf#AspectElement</title>
<path fill="none" stroke="black" d="M1170.57,-485.39C1242.41,-484.41 1336.5,-485.28 1336.5,-488 1336.5,-490.59 1251.03,-491.5 1180.81,-490.74"/>
<polygon fill="black" stroke="black" points="1180.61,-487.24 1170.57,-490.61 1180.53,-494.23 1180.61,-487.24"/>
<text text-anchor="middle" x="1410.5" y="-486.1" font-family="Arial" font-size="8.00">http://ns.imfid.org/imf#intraAspectRelation</text>
</g>
<!-- http://ns.imfid.org/imf#AspectElement&#45;&gt;http://ns.imfid.org/imf#AspectElement -->
<g id="edge42" class="edge">
<title>http://ns.imfid.org/imf#AspectElement&#45;&gt;http://ns.imfid.org/imf#AspectElement</title>
<path fill="none" stroke="black" d="M1170.75,-484.71C1285.48,-482.35 1484.5,-483.45 1484.5,-488 1484.5,-492.42 1296.97,-493.58 1181.05,-491.49"/>
<polygon fill="black" stroke="black" points="1180.82,-487.99 1170.75,-491.29 1180.68,-494.99 1180.82,-487.99"/>
<text text-anchor="middle" x="1540.5" y="-486.1" font-family="Arial" font-size="8.00">http://ns.imfid.org/imf#fulfilledBy</text>
</g>
<!-- http://ns.imfid.org/imf#AspectElement&#45;&gt;http://ns.imfid.org/imf#AspectElement -->
<g id="edge43" class="edge">
<title>http://ns.imfid.org/imf#AspectElement&#45;&gt;http://ns.imfid.org/imf#AspectElement</title>
<path fill="none" stroke="black" d="M1170.55,-484.06C1312.49,-480.34 1596.5,-481.66 1596.5,-488 1596.5,-494.2 1325.65,-495.59 1180.76,-492.19"/>
<polygon fill="black" stroke="black" points="1180.63,-488.69 1170.55,-491.94 1180.46,-495.69 1180.63,-488.69"/>
<text text-anchor="middle" x="1670" y="-486.1" font-family="Arial" font-size="8.00">http://ns.imfid.org/imf#associativeRelation</text>
</g>
<!-- http://ns.imfid.org/imf#AspectElement&#45;&gt;http://ns.imfid.org/imf#AspectElement -->
<g id="edge46" class="edge">
<title>http://ns.imfid.org/imf#AspectElement&#45;&gt;http://ns.imfid.org/imf#AspectElement</title>
<path fill="none" stroke="black" d="M1170.79,-483.59C1344.21,-478.32 1743.5,-479.79 1743.5,-488 1743.5,-496.05 1359.27,-497.62 1180.94,-492.71"/>
<polygon fill="black" stroke="black" points="1180.88,-489.2 1170.79,-492.41 1180.68,-496.2 1180.88,-489.2"/>
<text text-anchor="middle" x="1818" y="-486.1" font-family="Arial" font-size="8.00">http://ns.imfid.org/imf#hierarchicalRelation</text>
</g>
<!-- http://ns.imfid.org/imf#InstalledBlock -->
<g id="node26" class="node">
<title>http://ns.imfid.org/imf#InstalledBlock</title>
<polygon fill="none" stroke="black" points="1522.5,-190 1379.5,-190 1379.5,-154 1522.5,-154 1522.5,-190"/>
<text text-anchor="middle" x="1451" y="-170.1" font-family="Arial" font-size="8.00">http://ns.imfid.org/imf#InstalledBlock</text>
</g>
<!-- http://ns.imfid.org/imf#InstalledBlock&#45;&gt;http://ns.imfid.org/imf#InstalledAspectElement -->
<g id="edge22" class="edge">
<title>http://ns.imfid.org/imf#InstalledBlock&#45;&gt;http://ns.imfid.org/imf#InstalledAspectElement</title>
<path fill="none" stroke="black" d="M1514.65,-190.04C1561.08,-202.48 1624.1,-219.36 1672.65,-232.36"/>
<polygon fill="none" stroke="black" points="1671.9,-235.78 1682.47,-234.99 1673.71,-229.02 1671.9,-235.78"/>
</g>
<!-- http://ns.imfid.org/imf#InstalledBlock&#45;&gt;http://ns.imfid.org/imf#Block -->
<g id="edge10" class="edge">
<title>http://ns.imfid.org/imf#InstalledBlock&#45;&gt;http://ns.imfid.org/imf#Block</title>
<path fill="none" stroke="black" d="M1416.07,-190.14C1392.01,-201.94 1359.87,-217.72 1334.06,-230.38"/>
<polygon fill="none" stroke="black" points="1332.3,-227.34 1324.87,-234.89 1335.39,-233.63 1332.3,-227.34"/>
</g>
<!-- http://ns.imfid.org/imf#FunctionInterfacePoint -->
<g id="node27" class="node">
<title>http://ns.imfid.org/imf#FunctionInterfacePoint</title>
<polygon fill="none" stroke="black" points="682,-36 506,-36 506,0 682,0 682,-36"/>
<text text-anchor="middle" x="594" y="-16.1" font-family="Arial" font-size="8.00">http://ns.imfid.org/imf#FunctionInterfacePoint</text>
</g>
<!-- http://ns.imfid.org/imf#FunctionInterfacePoint&#45;&gt;http://ns.imfid.org/imf#InterfacePoint -->
<g id="edge25" class="edge">
<title>http://ns.imfid.org/imf#FunctionInterfacePoint&#45;&gt;http://ns.imfid.org/imf#InterfacePoint</title>
<path fill="none" stroke="black" d="M572.72,-36.09C567.07,-41.39 561.34,-47.54 557,-54 555.03,-56.93 553.28,-60.17 551.74,-63.48"/>
<polygon fill="none" stroke="black" points="548.49,-62.17 547.96,-72.75 554.98,-64.82 548.49,-62.17"/>
</g>
<!-- http://ns.imfid.org/imf#FunctionInterfacePoint&#45;&gt;http://ns.imfid.org/imf#FunctionAspectElement -->
<g id="edge16" class="edge">
<title>http://ns.imfid.org/imf#FunctionInterfacePoint&#45;&gt;http://ns.imfid.org/imf#FunctionAspectElement</title>
<path fill="none" stroke="black" d="M604.99,-36.03C611.4,-46.43 619.3,-60.15 625,-73 647.17,-122.98 623.37,-152.33 663,-190 697.83,-223.11 748.44,-238.94 793.32,-246.35"/>
<polygon fill="none" stroke="black" points="792.98,-249.84 803.39,-247.89 794.04,-242.92 792.98,-249.84"/>
</g>
<!-- http://ns.imfid.org/imf#ProductTerminal -->
<g id="node28" class="node">
<title>http://ns.imfid.org/imf#ProductTerminal</title>
<polygon fill="none" stroke="black" points="999.5,-190 846.5,-190 846.5,-154 999.5,-154 999.5,-190"/>
<text text-anchor="middle" x="923" y="-170.1" font-family="Arial" font-size="8.00">http://ns.imfid.org/imf#ProductTerminal</text>
</g>
<!-- http://ns.imfid.org/imf#ProductTerminal&#45;&gt;http://ns.imfid.org/imf#Terminal -->
<g id="edge20" class="edge">
<title>http://ns.imfid.org/imf#ProductTerminal&#45;&gt;http://ns.imfid.org/imf#Terminal</title>
<path fill="none" stroke="black" d="M950.01,-190.03C964.96,-200.98 982.4,-216.58 992,-235 1003.35,-256.78 1005.75,-284.87 1005.67,-305.39"/>
<polygon fill="none" stroke="black" points="1002.16,-305.56 1005.42,-315.64 1009.16,-305.73 1002.16,-305.56"/>
</g>
<!-- http://ns.imfid.org/imf#ProductTerminal&#45;&gt;http://ns.imfid.org/imf#ProductAspectElement -->
<g id="edge23" class="edge">
<title>http://ns.imfid.org/imf#ProductTerminal&#45;&gt;http://ns.imfid.org/imf#ProductAspectElement</title>
<path fill="none" stroke="black" d="M975.17,-190.04C991.24,-195.52 1008.93,-201.79 1025,-208 1043.06,-214.98 1062.65,-223.26 1079.78,-230.73"/>
<polygon fill="none" stroke="black" points="1078.46,-233.98 1089.02,-234.79 1081.27,-227.57 1078.46,-233.98"/>
</g>
<!-- http://ns.imfid.org/imf#SystemElement&#45;&gt;9aeb70da&#45;4a28&#45;4bf6&#45;b33f&#45;82d4d59fa86d -->
<g id="edge41" class="edge">
<title>http://ns.imfid.org/imf#SystemElement&#45;&gt;9aeb70da&#45;4a28&#45;4bf6&#45;b33f&#45;82d4d59fa86d</title>
<path fill="none" stroke="black" d="M833.84,-425.14C845.23,-437.47 860.62,-454.13 872.56,-467.05"/>
<polygon fill="none" stroke="black" points="870.13,-469.57 879.49,-474.54 875.27,-464.82 870.13,-469.57"/>
</g>
<!-- http://ns.imfid.org/imf#SystemElement&#45;&gt;http://ns.imfid.org/imf#System -->
<g id="edge11" class="edge">
<title>http://ns.imfid.org/imf#SystemElement&#45;&gt;http://ns.imfid.org/imf#System</title>
<path fill="none" stroke="black" d="M750.14,-425.22C742.3,-429.82 735.25,-435.63 730,-443 726.62,-447.75 725.07,-453.57 724.57,-459.41"/>
<polygon fill="black" stroke="black" points="721.07,-459.72 724.62,-469.7 728.07,-459.68 721.07,-459.72"/>
<text text-anchor="middle" x="789" y="-445.6" font-family="Arial" font-size="8.00">http://ns.imfid.org/imf#memberOf</text>
</g>
<!-- http://ns.imfid.org/imf#SystemElement&#45;&gt;http://ns.imfid.org/imf#AspectElement -->
<g id="edge53" class="edge">
<title>http://ns.imfid.org/imf#SystemElement&#45;&gt;http://ns.imfid.org/imf#AspectElement</title>
<path fill="none" stroke="black" d="M849.03,-425.13C866.73,-434.27 889.6,-445.04 911,-452 929.77,-458.1 972,-466.24 1011.38,-473.13"/>
<polygon fill="none" stroke="black" points="1010.86,-476.59 1021.31,-474.85 1012.06,-469.69 1010.86,-476.59"/>
</g>
<!-- http://ns.imfid.org/imf#InstalledTerminal -->
<g id="node30" class="node">
<title>http://ns.imfid.org/imf#InstalledTerminal</title>
<polygon fill="none" stroke="black" points="1858.5,-190 1703.5,-190 1703.5,-154 1858.5,-154 1858.5,-190"/>
<text text-anchor="middle" x="1781" y="-170.1" font-family="Arial" font-size="8.00">http://ns.imfid.org/imf#InstalledTerminal</text>
</g>
<!-- http://ns.imfid.org/imf#InstalledTerminal&#45;&gt;http://ns.imfid.org/imf#InstalledAspectElement -->
<g id="edge45" class="edge">
<title>http://ns.imfid.org/imf#InstalledTerminal&#45;&gt;http://ns.imfid.org/imf#InstalledAspectElement</title>
<path fill="none" stroke="black" d="M1773.41,-190.14C1768.82,-200.49 1762.88,-213.9 1757.7,-225.59"/>
<polygon fill="none" stroke="black" points="1754.43,-224.33 1753.58,-234.89 1760.83,-227.17 1754.43,-224.33"/>
</g>
<!-- http://ns.imfid.org/imf#InstalledTerminal&#45;&gt;http://ns.imfid.org/imf#Terminal -->
<g id="edge47" class="edge">
<title>http://ns.imfid.org/imf#InstalledTerminal&#45;&gt;http://ns.imfid.org/imf#Terminal</title>
<path fill="none" stroke="black" d="M1737.65,-190.07C1680.12,-212.05 1574.97,-249.93 1482,-271 1340.26,-303.12 1170.84,-320.19 1076.54,-327.85"/>
<polygon fill="none" stroke="black" points="1076.22,-324.37 1066.53,-328.65 1076.78,-331.35 1076.22,-324.37"/>
</g>
<!-- http://ns.imfid.org/imf#LocationAspectElement&#45;&gt;http://ns.imfid.org/imf#AspectElement -->
<g id="edge24" class="edge">
<title>http://ns.imfid.org/imf#LocationAspectElement&#45;&gt;http://ns.imfid.org/imf#AspectElement</title>
<path fill="none" stroke="black" d="M1945.02,-271.04C1778.85,-313.3 1348.5,-422.77 1172.61,-467.51"/>
<polygon fill="none" stroke="black" points="1171.74,-464.12 1162.91,-469.98 1173.46,-470.91 1171.74,-464.12"/>
</g>
</g>
</svg>

