<?xml version="1.0" encoding="UTF-8" standalone="no"?>
<!DOCTYPE svg PUBLIC "-//W3C//DTD SVG 1.1//EN"
 "http://www.w3.org/Graphics/SVG/1.1/DTD/svg11.dtd">
<!-- Generated by graphviz version 2.43.0 (0)
 -->
<!-- Title: urn:temp#graph Pages: 1 -->
<svg width="376px" height="206px"
 viewBox="0.00 0.00 375.50 206.00" xmlns="http://www.w3.org/2000/svg" xmlns:xlink="http://www.w3.org/1999/xlink">
<g id="graph0" class="graph" transform="scale(1.0 1.0) rotate(0) translate(4 202)">
<title>urn:temp#graph</title>
<polygon fill="white" stroke="transparent" points="-4,4 -4,-202 371.5,-202 371.5,4 -4,4"/>
<!-- http://ns.imfid.org/imf#BreakdownPoint -->
<g id="node1" class="node">
<title>http://ns.imfid.org/imf#BreakdownPoint</title>
<polygon fill="none" stroke="black" points="135.5,-117 47.5,-117 47.5,-81 135.5,-81 135.5,-117"/>
<text text-anchor="middle" x="91.5" y="-97.1" font-family="Arial" font-size="8.00">imf:BreakdownPoint</text>
</g>
<!-- http://ns.imfid.org/imf#Element -->
<g id="node5" class="node">
<title>http://ns.imfid.org/imf#Element</title>
<polygon fill="none" stroke="black" points="167,-198 108,-198 108,-162 167,-162 167,-198"/>
<text text-anchor="middle" x="137.5" y="-178.1" font-family="Arial" font-size="8.00">imf:Element</text>
</g>
<!-- http://ns.imfid.org/imf#BreakdownPoint&#45;&gt;http://ns.imfid.org/imf#Element -->
<g id="edge2" class="edge">
<title>http://ns.imfid.org/imf#BreakdownPoint&#45;&gt;http://ns.imfid.org/imf#Element</title>
<path fill="none" stroke="black" d="M78.35,-117.35C73.69,-125.72 70.66,-135.72 75.5,-144 80.88,-153.22 89.69,-160.21 99.01,-165.41"/>
<polygon fill="black" stroke="black" points="97.48,-168.56 107.99,-169.87 100.59,-162.29 97.48,-168.56"/>
<text text-anchor="middle" x="95.5" y="-137.6" font-family="Arial" font-size="8.00">imf:thePart</text>
</g>
<!-- http://ns.imfid.org/imf#BreakdownPoint&#45;&gt;http://ns.imfid.org/imf#Element -->
<g id="edge9" class="edge">
<title>http://ns.imfid.org/imf#BreakdownPoint&#45;&gt;http://ns.imfid.org/imf#Element</title>
<path fill="none" stroke="black" d="M103.95,-117.14C107.82,-122.73 111.98,-129.03 115.5,-135 118.86,-140.7 122.2,-146.98 125.22,-152.96"/>
<polygon fill="black" stroke="black" points="122.11,-154.57 129.67,-162 128.39,-151.48 122.11,-154.57"/>
<text text-anchor="middle" x="143" y="-137.6" font-family="Arial" font-size="8.00">imf:theWhole</text>
</g>
<!-- http://ns.imfid.org/imf#ConnectionPoint -->
<g id="node2" class="node">
<title>http://ns.imfid.org/imf#ConnectionPoint</title>
<polygon fill="none" stroke="black" points="189.5,-36 101.5,-36 101.5,0 189.5,0 189.5,-36"/>
<text text-anchor="middle" x="145.5" y="-16.1" font-family="Arial" font-size="8.00">imf:ConnectionPoint</text>
</g>
<!-- http://ns.imfid.org/imf#Terminal -->
<g id="node4" class="node">
<title>http://ns.imfid.org/imf#Terminal</title>
<polygon fill="none" stroke="black" points="229,-117 170,-117 170,-81 229,-81 229,-117"/>
<text text-anchor="middle" x="199.5" y="-97.1" font-family="Arial" font-size="8.00">imf:Terminal</text>
</g>
<!-- http://ns.imfid.org/imf#ConnectionPoint&#45;&gt;http://ns.imfid.org/imf#Terminal -->
<g id="edge7" class="edge">
<title>http://ns.imfid.org/imf#ConnectionPoint&#45;&gt;http://ns.imfid.org/imf#Terminal</title>
<path fill="none" stroke="black" d="M124.34,-36.22C116.92,-44.38 111.71,-54.24 117.5,-63 122.73,-70.92 141.76,-79.28 160.18,-85.85"/>
<polygon fill="black" stroke="black" points="159.08,-89.17 169.67,-89.1 161.35,-82.55 159.08,-89.17"/>
<text text-anchor="middle" x="139" y="-56.6" font-family="Arial" font-size="8.00">imf:theInput</text>
</g>
<!-- http://ns.imfid.org/imf#ConnectionPoint&#45;&gt;http://ns.imfid.org/imf#Terminal -->
<g id="edge12" class="edge">
<title>http://ns.imfid.org/imf#ConnectionPoint&#45;&gt;http://ns.imfid.org/imf#Terminal</title>
<path fill="none" stroke="black" d="M157.22,-36.14C164.51,-46.8 174.01,-60.71 182.16,-72.63"/>
<polygon fill="black" stroke="black" points="179.27,-74.61 187.81,-80.89 185.05,-70.66 179.27,-74.61"/>
<text text-anchor="middle" x="198" y="-56.6" font-family="Arial" font-size="8.00">imf:theOutput</text>
</g>
<!-- http://ns.imfid.org/imf#InputTerminal -->
<g id="node3" class="node">
<title>http://ns.imfid.org/imf#InputTerminal</title>
<polygon fill="none" stroke="black" points="285,-36 208,-36 208,0 285,0 285,-36"/>
<text text-anchor="middle" x="246.5" y="-16.1" font-family="Arial" font-size="8.00">imf:InputTerminal</text>
</g>
<!-- http://ns.imfid.org/imf#InputTerminal&#45;&gt;http://ns.imfid.org/imf#Terminal -->
<g id="edge1" class="edge">
<title>http://ns.imfid.org/imf#InputTerminal&#45;&gt;http://ns.imfid.org/imf#Terminal</title>
<path fill="none" stroke="black" d="M242.98,-36.04C240.76,-44.52 237.38,-54.71 232.5,-63 230.46,-66.46 228.02,-69.86 225.41,-73.1"/>
<polygon fill="none" stroke="black" points="222.65,-70.93 218.67,-80.75 227.9,-75.56 222.65,-70.93"/>
</g>
<!-- http://ns.imfid.org/imf#Terminal&#45;&gt;http://ns.imfid.org/imf#Terminal -->
<g id="edge11" class="edge">
<title>http://ns.imfid.org/imf#Terminal&#45;&gt;http://ns.imfid.org/imf#Terminal</title>
<path fill="none" stroke="black" d="M229.19,-91.5C239.08,-91.5 247,-94 247,-99 247,-102.12 243.91,-104.27 239.17,-105.45"/>
<polygon fill="black" stroke="black" points="238.76,-101.97 229.19,-106.5 239.5,-108.93 238.76,-101.97"/>
<text text-anchor="middle" x="276" y="-97.1" font-family="Arial" font-size="8.00">imf:connectedTo</text>
</g>
<!-- http://ns.imfid.org/imf#Terminal&#45;&gt;http://ns.imfid.org/imf#Element -->
<g id="edge5" class="edge">
<title>http://ns.imfid.org/imf#Terminal&#45;&gt;http://ns.imfid.org/imf#Element</title>
<path fill="none" stroke="black" d="M189.14,-117.19C183.88,-125.52 177.2,-135.53 170.5,-144 167.82,-147.39 164.87,-150.84 161.88,-154.18"/>
<polygon fill="none" stroke="black" points="159.12,-152.01 154.91,-161.73 164.26,-156.76 159.12,-152.01"/>
</g>
<!-- http://ns.imfid.org/imf#Direction -->
<g id="node6" class="node">
<title>http://ns.imfid.org/imf#Direction</title>
<polygon fill="none" stroke="black" points="300,-198 239,-198 239,-162 300,-162 300,-198"/>
<text text-anchor="middle" x="269.5" y="-178.1" font-family="Arial" font-size="8.00">imf:Direction</text>
</g>
<!-- http://ns.imfid.org/imf#Terminal&#45;&gt;http://ns.imfid.org/imf#Direction -->
<g id="edge10" class="edge">
<title>http://ns.imfid.org/imf#Terminal&#45;&gt;http://ns.imfid.org/imf#Direction</title>
<path fill="none" stroke="black" d="M214.69,-117.14C224.32,-128.01 236.94,-142.25 247.64,-154.33"/>
<polygon fill="black" stroke="black" points="245.09,-156.73 254.34,-161.89 250.33,-152.09 245.09,-156.73"/>
<text text-anchor="middle" x="258" y="-137.6" font-family="Arial" font-size="8.00">imf:direction</text>
</g>
<!-- http://ns.imfid.org/imf#Element&#45;&gt;http://ns.imfid.org/imf#Element -->
<g id="edge3" class="edge">
<title>http://ns.imfid.org/imf#Element&#45;&gt;http://ns.imfid.org/imf#Element</title>
<path fill="none" stroke="black" d="M167.19,-172.5C177.08,-172.5 185,-175 185,-180 185,-183.12 181.91,-185.27 177.17,-186.45"/>
<polygon fill="black" stroke="black" points="176.76,-182.97 167.19,-187.5 177.5,-189.93 176.76,-182.97"/>
<text text-anchor="middle" x="203" y="-178.1" font-family="Arial" font-size="8.00">imf:partOf</text>
</g>
<!-- http://ns.imfid.org/imf#Block -->
<g id="node7" class="node">
<title>http://ns.imfid.org/imf#Block</title>
<polygon fill="none" stroke="black" points="367.5,-36 313.5,-36 313.5,0 367.5,0 367.5,-36"/>
<text text-anchor="middle" x="340.5" y="-16.1" font-family="Arial" font-size="8.00">imf:Block</text>
</g>
<!-- http://ns.imfid.org/imf#Block&#45;&gt;http://ns.imfid.org/imf#Terminal -->
<g id="edge6" class="edge">
<title>http://ns.imfid.org/imf#Block&#45;&gt;http://ns.imfid.org/imf#Terminal</title>
<path fill="none" stroke="black" d="M313.31,-34.23C291.88,-46.24 261.74,-63.13 237.85,-76.51"/>
<polygon fill="black" stroke="black" points="236.05,-73.51 229.04,-81.45 239.47,-79.62 236.05,-73.51"/>
<text text-anchor="middle" x="301.5" y="-56.6" font-family="Arial" font-size="8.00">imf:hasTerminal</text>
</g>
<!-- http://ns.imfid.org/imf#Block&#45;&gt;http://ns.imfid.org/imf#Element -->
<g id="edge4" class="edge">
<title>http://ns.imfid.org/imf#Block&#45;&gt;http://ns.imfid.org/imf#Element</title>
<path fill="none" stroke="black" d="M338.49,-36.28C337.35,-44.45 335.7,-54.3 333.5,-63 323.11,-104.01 321.11,-124.62 283.5,-144 265.18,-153.44 213.79,-164.57 177.17,-171.71"/>
<polygon fill="none" stroke="black" points="176.43,-168.28 167.27,-173.61 177.75,-175.16 176.43,-168.28"/>
</g>
<!-- http://ns.imfid.org/imf#OutputTerminal -->
<g id="node8" class="node">
<title>http://ns.imfid.org/imf#OutputTerminal</title>
<polygon fill="none" stroke="black" points="83,-36 0,-36 0,0 83,0 83,-36"/>
<text text-anchor="middle" x="41.5" y="-16.1" font-family="Arial" font-size="8.00">imf:OutputTerminal</text>
</g>
<!-- http://ns.imfid.org/imf#OutputTerminal&#45;&gt;http://ns.imfid.org/imf#Terminal -->
<g id="edge8" class="edge">
<title>http://ns.imfid.org/imf#OutputTerminal&#45;&gt;http://ns.imfid.org/imf#Terminal</title>
<path fill="none" stroke="black" d="M65.73,-36.08C78.66,-44.77 95.06,-55.13 110.5,-63 126.3,-71.05 144.42,-78.48 160.16,-84.4"/>
<polygon fill="none" stroke="black" points="159.02,-87.71 169.61,-87.88 161.44,-81.14 159.02,-87.71"/>
</g>
</g>
</svg>

