<?xml version="1.0" encoding="UTF-8" standalone="no"?>
<!DOCTYPE svg PUBLIC "-//W3C//DTD SVG 1.1//EN"
 "http://www.w3.org/Graphics/SVG/1.1/DTD/svg11.dtd">
<!-- Generated by graphviz version 2.43.0 (0)
 -->
<!-- Title: urn:temp#graph Pages: 1 -->
<svg width="1750px" height="271px"
 viewBox="0.00 0.00 1750.00 271.00" xmlns="http://www.w3.org/2000/svg" xmlns:xlink="http://www.w3.org/1999/xlink">
<g id="graph0" class="graph" transform="scale(1.0 1.0) rotate(0) translate(4 267)">
<title>urn:temp#graph</title>
<polygon fill="white" stroke="transparent" points="-4,4 -4,-267 1746,-267 1746,4 -4,4"/>
<!-- e378757d&#45;c867&#45;4343&#45;9ef9&#45;1259f9e65c83 -->
<g id="node1" class="node">
<title>e378757d&#45;c867&#45;4343&#45;9ef9&#45;1259f9e65c83</title>
<polygon fill="#e5e5e5" stroke="black" stroke-dasharray="5,2" points="909.5,-185 740.5,-185 740.5,-159 909.5,-159 909.5,-185"/>
<text text-anchor="middle" x="825" y="-174.6" font-family="Arial" font-size="8.00">owl:Restriction</text>
<text text-anchor="middle" x="825" y="-165.6" font-family="Arial" font-size="8.00">,e378757d&#45;c867&#45;4343&#45;9ef9&#45;1259f9e65c83</text>
</g>
<!-- http://ns.imfid.org/imf#Element -->
<g id="node2" class="node">
<title>http://ns.imfid.org/imf#Element</title>
<polygon fill="none" stroke="black" points="574.5,-36 515.5,-36 515.5,0 574.5,0 574.5,-36"/>
<text text-anchor="middle" x="545" y="-16.1" font-family="Arial" font-size="8.00">imf:Element</text>
</g>
<!-- 9a54cabd&#45;f41b&#45;4f6f&#45;8ee7&#45;1cef04d48f84 -->
<g id="node10" class="node">
<title>9a54cabd&#45;f41b&#45;4f6f&#45;8ee7&#45;1cef04d48f84</title>
<polygon fill="#e5e5e5" stroke="black" stroke-dasharray="5,2" points="626,-112 464,-112 464,-86 626,-86 626,-112"/>
<text text-anchor="middle" x="545" y="-101.6" font-family="Arial" font-size="8.00">owl:Restriction</text>
<text text-anchor="middle" x="545" y="-92.6" font-family="Arial" font-size="8.00">,9a54cabd&#45;f41b&#45;4f6f&#45;8ee7&#45;1cef04d48f84</text>
</g>
<!-- http://ns.imfid.org/imf#Element&#45;&gt;9a54cabd&#45;f41b&#45;4f6f&#45;8ee7&#45;1cef04d48f84 -->
<g id="edge2" class="edge">
<title>http://ns.imfid.org/imf#Element&#45;&gt;9a54cabd&#45;f41b&#45;4f6f&#45;8ee7&#45;1cef04d48f84</title>
<path fill="none" stroke="black" d="M545,-36.14C545,-47.65 545,-62.94 545,-75.44"/>
<polygon fill="none" stroke="black" points="541.5,-75.54 545,-85.54 548.5,-75.54 541.5,-75.54"/>
</g>
<!-- http://ns.imfid.org/imf#Aspect -->
<g id="node3" class="node">
<title>http://ns.imfid.org/imf#Aspect</title>
<polygon fill="none" stroke="black" points="664,-36 610,-36 610,0 664,0 664,-36"/>
<text text-anchor="middle" x="637" y="-16.1" font-family="Arial" font-size="8.00">imf:Aspect</text>
</g>
<!-- f834d19d&#45;6ffb&#45;4d12&#45;b394&#45;b18d90506c04 -->
<g id="node4" class="node">
<title>f834d19d&#45;6ffb&#45;4d12&#45;b394&#45;b18d90506c04</title>
<polygon fill="#e5e5e5" stroke="black" stroke-dasharray="5,2" points="811.5,-112 644.5,-112 644.5,-86 811.5,-86 811.5,-112"/>
<text text-anchor="middle" x="728" y="-101.6" font-family="Arial" font-size="8.00">owl:Restriction</text>
<text text-anchor="middle" x="728" y="-92.6" font-family="Arial" font-size="8.00">,f834d19d&#45;6ffb&#45;4d12&#45;b394&#45;b18d90506c04</text>
</g>
<!-- http://ns.imfid.org/imf#Terminal -->
<g id="node5" class="node">
<title>http://ns.imfid.org/imf#Terminal</title>
<polygon fill="none" stroke="black" points="939.5,-36 880.5,-36 880.5,0 939.5,0 939.5,-36"/>
<text text-anchor="middle" x="910" y="-16.1" font-family="Arial" font-size="8.00">imf:Terminal</text>
</g>
<!-- af2cc4fe&#45;3d43&#45;40b8&#45;8e24&#45;df0cd3f4f922 -->
<g id="node17" class="node">
<title>af2cc4fe&#45;3d43&#45;40b8&#45;8e24&#45;df0cd3f4f922</title>
<polygon fill="#e5e5e5" stroke="black" stroke-dasharray="5,2" points="990.5,-112 829.5,-112 829.5,-86 990.5,-86 990.5,-112"/>
<text text-anchor="middle" x="910" y="-101.6" font-family="Arial" font-size="8.00">owl:Restriction</text>
<text text-anchor="middle" x="910" y="-92.6" font-family="Arial" font-size="8.00">,af2cc4fe&#45;3d43&#45;40b8&#45;8e24&#45;df0cd3f4f922</text>
</g>
<!-- http://ns.imfid.org/imf#Terminal&#45;&gt;af2cc4fe&#45;3d43&#45;40b8&#45;8e24&#45;df0cd3f4f922 -->
<g id="edge11" class="edge">
<title>http://ns.imfid.org/imf#Terminal&#45;&gt;af2cc4fe&#45;3d43&#45;40b8&#45;8e24&#45;df0cd3f4f922</title>
<path fill="none" stroke="black" d="M910,-36.14C910,-47.65 910,-62.94 910,-75.44"/>
<polygon fill="none" stroke="black" points="906.5,-75.54 910,-85.54 913.5,-75.54 906.5,-75.54"/>
</g>
<!-- http://ns.imfid.org/imf#TerminalType -->
<g id="node6" class="node">
<title>http://ns.imfid.org/imf#TerminalType</title>
<polygon fill="none" stroke="black" points="445.5,-117 368.5,-117 368.5,-81 445.5,-81 445.5,-117"/>
<text text-anchor="middle" x="407" y="-97.1" font-family="Arial" font-size="8.00">imf:TerminalType</text>
</g>
<!-- http://ns.imfid.org/imf#TerminalType&#45;&gt;e378757d&#45;c867&#45;4343&#45;9ef9&#45;1259f9e65c83 -->
<g id="edge6" class="edge">
<title>http://ns.imfid.org/imf#TerminalType&#45;&gt;e378757d&#45;c867&#45;4343&#45;9ef9&#45;1259f9e65c83</title>
<path fill="none" stroke="black" d="M445.56,-114.43C448.73,-115.38 451.91,-116.25 455,-117 575.31,-146.04 608.74,-134.76 731,-154 737.49,-155.02 744.23,-156.14 750.98,-157.29"/>
<polygon fill="none" stroke="black" points="750.4,-160.74 760.85,-158.99 751.59,-153.84 750.4,-160.74"/>
</g>
<!-- http://ns.imfid.org/imf#ElementType -->
<g id="node9" class="node">
<title>http://ns.imfid.org/imf#ElementType</title>
<polygon fill="none" stroke="black" points="318,-190 242,-190 242,-154 318,-154 318,-190"/>
<text text-anchor="middle" x="280" y="-170.1" font-family="Arial" font-size="8.00">imf:ElementType</text>
</g>
<!-- http://ns.imfid.org/imf#TerminalType&#45;&gt;http://ns.imfid.org/imf#ElementType -->
<g id="edge8" class="edge">
<title>http://ns.imfid.org/imf#TerminalType&#45;&gt;http://ns.imfid.org/imf#ElementType</title>
<path fill="none" stroke="black" d="M376.58,-117.01C359.43,-126.6 337.81,-138.68 319.37,-148.99"/>
<polygon fill="none" stroke="black" points="317.63,-145.95 310.61,-153.89 321.05,-152.06 317.63,-145.95"/>
</g>
<!-- 1d93896a&#45;a0b4&#45;4741&#45;9372&#45;1c50943a8847 -->
<g id="node16" class="node">
<title>1d93896a&#45;a0b4&#45;4741&#45;9372&#45;1c50943a8847</title>
<polygon fill="#e5e5e5" stroke="black" stroke-dasharray="5,2" points="510,-185 336,-185 336,-159 510,-159 510,-185"/>
<text text-anchor="middle" x="423" y="-174.6" font-family="Arial" font-size="8.00">owl:Restriction</text>
<text text-anchor="middle" x="423" y="-165.6" font-family="Arial" font-size="8.00">,1d93896a&#45;a0b4&#45;4741&#45;9372&#45;1c50943a8847</text>
</g>
<!-- http://ns.imfid.org/imf#TerminalType&#45;&gt;1d93896a&#45;a0b4&#45;4741&#45;9372&#45;1c50943a8847 -->
<g id="edge7" class="edge">
<title>http://ns.imfid.org/imf#TerminalType&#45;&gt;1d93896a&#45;a0b4&#45;4741&#45;9372&#45;1c50943a8847</title>
<path fill="none" stroke="black" d="M410.87,-117.19C413.01,-126.69 415.7,-138.61 418,-148.81"/>
<polygon fill="none" stroke="black" points="414.6,-149.66 420.22,-158.64 421.43,-148.12 414.6,-149.66"/>
</g>
<!-- f7ae600b&#45;3a0e&#45;49eb&#45;ad59&#45;5cb95b6eb2e9 -->
<g id="node7" class="node">
<title>f7ae600b&#45;3a0e&#45;49eb&#45;ad59&#45;5cb95b6eb2e9</title>
<polygon fill="#e5e5e5" stroke="black" stroke-dasharray="5,2" points="358,-258 186,-258 186,-232 358,-232 358,-258"/>
<text text-anchor="middle" x="272" y="-247.6" font-family="Arial" font-size="8.00">owl:Restriction</text>
<text text-anchor="middle" x="272" y="-238.6" font-family="Arial" font-size="8.00">,f7ae600b&#45;3a0e&#45;49eb&#45;ad59&#45;5cb95b6eb2e9</text>
</g>
<!-- http://ns.imfid.org/imf#AttributeGroup -->
<g id="node8" class="node">
<title>http://ns.imfid.org/imf#AttributeGroup</title>
<polygon fill="none" stroke="black" points="1133,-36 1051,-36 1051,0 1133,0 1133,-36"/>
<text text-anchor="middle" x="1092" y="-16.1" font-family="Arial" font-size="8.00">imf:AttributeGroup</text>
</g>
<!-- f51ac38c&#45;1016&#45;4d3c&#45;9bc9&#45;a58466870f13 -->
<g id="node21" class="node">
<title>f51ac38c&#45;1016&#45;4d3c&#45;9bc9&#45;a58466870f13</title>
<polygon fill="#e5e5e5" stroke="black" stroke-dasharray="5,2" points="1175.5,-112 1008.5,-112 1008.5,-86 1175.5,-86 1175.5,-112"/>
<text text-anchor="middle" x="1092" y="-101.6" font-family="Arial" font-size="8.00">owl:Restriction</text>
<text text-anchor="middle" x="1092" y="-92.6" font-family="Arial" font-size="8.00">,f51ac38c&#45;1016&#45;4d3c&#45;9bc9&#45;a58466870f13</text>
</g>
<!-- http://ns.imfid.org/imf#AttributeGroup&#45;&gt;f51ac38c&#45;1016&#45;4d3c&#45;9bc9&#45;a58466870f13 -->
<g id="edge15" class="edge">
<title>http://ns.imfid.org/imf#AttributeGroup&#45;&gt;f51ac38c&#45;1016&#45;4d3c&#45;9bc9&#45;a58466870f13</title>
<path fill="none" stroke="black" d="M1092,-36.14C1092,-47.65 1092,-62.94 1092,-75.44"/>
<polygon fill="none" stroke="black" points="1088.5,-75.54 1092,-85.54 1095.5,-75.54 1088.5,-75.54"/>
</g>
<!-- http://ns.imfid.org/imf#ElementType&#45;&gt;f7ae600b&#45;3a0e&#45;49eb&#45;ad59&#45;5cb95b6eb2e9 -->
<g id="edge18" class="edge">
<title>http://ns.imfid.org/imf#ElementType&#45;&gt;f7ae600b&#45;3a0e&#45;49eb&#45;ad59&#45;5cb95b6eb2e9</title>
<path fill="none" stroke="black" d="M278.06,-190.19C277,-199.59 275.68,-211.35 274.54,-221.48"/>
<polygon fill="none" stroke="black" points="271.03,-221.31 273.39,-231.64 277.99,-222.1 271.03,-221.31"/>
</g>
<!-- http://ns.imfid.org/imf#Type -->
<g id="node18" class="node">
<title>http://ns.imfid.org/imf#Type</title>
<polygon fill="none" stroke="black" points="614,-263 560,-263 560,-227 614,-227 614,-263"/>
<text text-anchor="middle" x="587" y="-243.1" font-family="Arial" font-size="8.00">imf:Type</text>
</g>
<!-- http://ns.imfid.org/imf#ElementType&#45;&gt;http://ns.imfid.org/imf#Type -->
<g id="edge17" class="edge">
<title>http://ns.imfid.org/imf#ElementType&#45;&gt;http://ns.imfid.org/imf#Type</title>
<path fill="none" stroke="black" d="M318.04,-187.42C321.05,-188.36 324.06,-189.23 327,-190 424.2,-215.41 453.95,-197.54 550,-227 550.1,-227.03 550.2,-227.06 550.3,-227.09"/>
<polygon fill="none" stroke="black" points="549.25,-230.43 559.84,-230.54 551.62,-223.85 549.25,-230.43"/>
</g>
<!-- 6ff3eed5&#45;f4e7&#45;43c7&#45;bf9a&#45;a0b427329132 -->
<g id="node20" class="node">
<title>6ff3eed5&#45;f4e7&#45;43c7&#45;bf9a&#45;a0b427329132</title>
<polygon fill="#e5e5e5" stroke="black" stroke-dasharray="5,2" points="541.5,-258 376.5,-258 376.5,-232 541.5,-232 541.5,-258"/>
<text text-anchor="middle" x="459" y="-247.6" font-family="Arial" font-size="8.00">owl:Restriction</text>
<text text-anchor="middle" x="459" y="-238.6" font-family="Arial" font-size="8.00">,6ff3eed5&#45;f4e7&#45;43c7&#45;bf9a&#45;a0b427329132</text>
</g>
<!-- http://ns.imfid.org/imf#ElementType&#45;&gt;6ff3eed5&#45;f4e7&#45;43c7&#45;bf9a&#45;a0b427329132 -->
<g id="edge12" class="edge">
<title>http://ns.imfid.org/imf#ElementType&#45;&gt;6ff3eed5&#45;f4e7&#45;43c7&#45;bf9a&#45;a0b427329132</title>
<path fill="none" stroke="black" d="M318.4,-188.23C348.16,-200.03 389.24,-216.33 419.32,-228.26"/>
<polygon fill="none" stroke="black" points="418.08,-231.53 428.67,-231.97 420.66,-225.03 418.08,-231.53"/>
</g>
<!-- c3953ae5&#45;6c03&#45;4d41&#45;8f05&#45;7cf1d9bd77ed -->
<g id="node25" class="node">
<title>c3953ae5&#45;6c03&#45;4d41&#45;8f05&#45;7cf1d9bd77ed</title>
<polygon fill="#e5e5e5" stroke="black" stroke-dasharray="5,2" points="168,-258 0,-258 0,-232 168,-232 168,-258"/>
<text text-anchor="middle" x="84" y="-247.6" font-family="Arial" font-size="8.00">owl:Restriction</text>
<text text-anchor="middle" x="84" y="-238.6" font-family="Arial" font-size="8.00">,c3953ae5&#45;6c03&#45;4d41&#45;8f05&#45;7cf1d9bd77ed</text>
</g>
<!-- http://ns.imfid.org/imf#ElementType&#45;&gt;c3953ae5&#45;6c03&#45;4d41&#45;8f05&#45;7cf1d9bd77ed -->
<g id="edge1" class="edge">
<title>http://ns.imfid.org/imf#ElementType&#45;&gt;c3953ae5&#45;6c03&#45;4d41&#45;8f05&#45;7cf1d9bd77ed</title>
<path fill="none" stroke="black" d="M241.74,-186.86C208.79,-198.8 161.26,-216.01 127,-228.42"/>
<polygon fill="none" stroke="black" points="125.48,-225.25 117.27,-231.95 127.86,-231.83 125.48,-225.25"/>
</g>
<!-- http://ns.imfid.org/imf#Block -->
<g id="node11" class="node">
<title>http://ns.imfid.org/imf#Block</title>
<polygon fill="none" stroke="black" points="1307,-36 1253,-36 1253,0 1307,0 1307,-36"/>
<text text-anchor="middle" x="1280" y="-16.1" font-family="Arial" font-size="8.00">imf:Block</text>
</g>
<!-- e74b8842&#45;8d64&#45;41a7&#45;8b31&#45;cefdeeb49120 -->
<g id="node19" class="node">
<title>e74b8842&#45;8d64&#45;41a7&#45;8b31&#45;cefdeeb49120</title>
<polygon fill="#e5e5e5" stroke="black" stroke-dasharray="5,2" points="1366,-112 1194,-112 1194,-86 1366,-86 1366,-112"/>
<text text-anchor="middle" x="1280" y="-101.6" font-family="Arial" font-size="8.00">owl:Restriction</text>
<text text-anchor="middle" x="1280" y="-92.6" font-family="Arial" font-size="8.00">,e74b8842&#45;8d64&#45;41a7&#45;8b31&#45;cefdeeb49120</text>
</g>
<!-- http://ns.imfid.org/imf#Block&#45;&gt;e74b8842&#45;8d64&#45;41a7&#45;8b31&#45;cefdeeb49120 -->
<g id="edge4" class="edge">
<title>http://ns.imfid.org/imf#Block&#45;&gt;e74b8842&#45;8d64&#45;41a7&#45;8b31&#45;cefdeeb49120</title>
<path fill="none" stroke="black" d="M1280,-36.14C1280,-47.65 1280,-62.94 1280,-75.44"/>
<polygon fill="none" stroke="black" points="1276.5,-75.54 1280,-85.54 1283.5,-75.54 1276.5,-75.54"/>
</g>
<!-- http://ns.imfid.org/imf#AttributeGroupType -->
<g id="node12" class="node">
<title>http://ns.imfid.org/imf#AttributeGroupType</title>
<polygon fill="none" stroke="black" points="627.5,-190 528.5,-190 528.5,-154 627.5,-154 627.5,-190"/>
<text text-anchor="middle" x="578" y="-170.1" font-family="Arial" font-size="8.00">imf:AttributeGroupType</text>
</g>
<!-- http://ns.imfid.org/imf#AttributeGroupType&#45;&gt;http://ns.imfid.org/imf#Type -->
<g id="edge5" class="edge">
<title>http://ns.imfid.org/imf#AttributeGroupType&#45;&gt;http://ns.imfid.org/imf#Type</title>
<path fill="none" stroke="black" d="M580.18,-190.19C581.2,-198.21 582.43,-207.95 583.57,-216.93"/>
<polygon fill="none" stroke="black" points="580.11,-217.49 584.84,-226.97 587.06,-216.61 580.11,-217.49"/>
</g>
<!-- http://ns.imfid.org/imf#BlockType -->
<g id="node13" class="node">
<title>http://ns.imfid.org/imf#BlockType</title>
<polygon fill="none" stroke="black" points="369.5,-36 304.5,-36 304.5,0 369.5,0 369.5,-36"/>
<text text-anchor="middle" x="337" y="-16.1" font-family="Arial" font-size="8.00">imf:BlockType</text>
</g>
<!-- http://ns.imfid.org/imf#BlockType&#45;&gt;http://ns.imfid.org/imf#TerminalType -->
<g id="edge13" class="edge">
<title>http://ns.imfid.org/imf#BlockType&#45;&gt;http://ns.imfid.org/imf#TerminalType</title>
<path fill="none" stroke="black" d="M352.19,-36.14C361.82,-47.01 374.44,-61.25 385.14,-73.33"/>
<polygon fill="black" stroke="black" points="382.59,-75.73 391.84,-80.89 387.83,-71.09 382.59,-75.73"/>
<text text-anchor="middle" x="411.5" y="-56.6" font-family="Arial" font-size="8.00">imf:hasTerminalType</text>
</g>
<!-- http://ns.imfid.org/imf#BlockType&#45;&gt;http://ns.imfid.org/imf#ElementType -->
<g id="edge14" class="edge">
<title>http://ns.imfid.org/imf#BlockType&#45;&gt;http://ns.imfid.org/imf#ElementType</title>
<path fill="none" stroke="black" d="M330.57,-36.14C320.69,-62.48 301.7,-113.13 290.01,-144.31"/>
<polygon fill="none" stroke="black" points="286.73,-143.1 286.49,-153.69 293.28,-145.55 286.73,-143.1"/>
</g>
<!-- http://ns.imfid.org/imf#Attribute -->
<g id="node14" class="node">
<title>http://ns.imfid.org/imf#Attribute</title>
<polygon fill="none" stroke="black" points="757.5,-36 698.5,-36 698.5,0 757.5,0 757.5,-36"/>
<text text-anchor="middle" x="728" y="-16.1" font-family="Arial" font-size="8.00">imf:Attribute</text>
</g>
<!-- http://ns.imfid.org/imf#Attribute&#45;&gt;f834d19d&#45;6ffb&#45;4d12&#45;b394&#45;b18d90506c04 -->
<g id="edge10" class="edge">
<title>http://ns.imfid.org/imf#Attribute&#45;&gt;f834d19d&#45;6ffb&#45;4d12&#45;b394&#45;b18d90506c04</title>
<path fill="none" stroke="black" d="M728,-36.14C728,-47.65 728,-62.94 728,-75.44"/>
<polygon fill="none" stroke="black" points="724.5,-75.54 728,-85.54 731.5,-75.54 724.5,-75.54"/>
</g>
<!-- http://ns.imfid.org/imf#Direction -->
<g id="node15" class="node">
<title>http://ns.imfid.org/imf#Direction</title>
<polygon fill="none" stroke="black" points="1439.5,-36 1378.5,-36 1378.5,0 1439.5,0 1439.5,-36"/>
<text text-anchor="middle" x="1409" y="-16.1" font-family="Arial" font-size="8.00">imf:Direction</text>
</g>
<!-- http://ns.imfid.org/imf#TypeConstraint -->
<g id="node22" class="node">
<title>http://ns.imfid.org/imf#TypeConstraint</title>
<polygon fill="none" stroke="black" points="1645.5,-36 1562.5,-36 1562.5,0 1645.5,0 1645.5,-36"/>
<text text-anchor="middle" x="1604" y="-16.1" font-family="Arial" font-size="8.00">imf:TypeConstraint</text>
</g>
<!-- e0e839e7&#45;1d32&#45;4acc&#45;9f8e&#45;986409fe6e56 -->
<g id="node24" class="node">
<title>e0e839e7&#45;1d32&#45;4acc&#45;9f8e&#45;986409fe6e56</title>
<polygon fill="#e5e5e5" stroke="black" stroke-dasharray="5,2" points="1553.5,-112 1384.5,-112 1384.5,-86 1553.5,-86 1553.5,-112"/>
<text text-anchor="middle" x="1469" y="-101.6" font-family="Arial" font-size="8.00">owl:Restriction</text>
<text text-anchor="middle" x="1469" y="-92.6" font-family="Arial" font-size="8.00">,e0e839e7&#45;1d32&#45;4acc&#45;9f8e&#45;986409fe6e56</text>
</g>
<!-- http://ns.imfid.org/imf#TypeConstraint&#45;&gt;e0e839e7&#45;1d32&#45;4acc&#45;9f8e&#45;986409fe6e56 -->
<g id="edge3" class="edge">
<title>http://ns.imfid.org/imf#TypeConstraint&#45;&gt;e0e839e7&#45;1d32&#45;4acc&#45;9f8e&#45;986409fe6e56</title>
<path fill="none" stroke="black" d="M1574.71,-36.14C1552.22,-49.3 1521.28,-67.4 1498.69,-80.62"/>
<polygon fill="none" stroke="black" points="1496.74,-77.71 1489.87,-85.78 1500.27,-83.75 1496.74,-77.71"/>
</g>
<!-- 7240f528&#45;8863&#45;406f&#45;8ee9&#45;480629d7e142 -->
<g id="node27" class="node">
<title>7240f528&#45;8863&#45;406f&#45;8ee9&#45;480629d7e142</title>
<polygon fill="#e5e5e5" stroke="black" stroke-dasharray="5,2" points="1742,-112 1572,-112 1572,-86 1742,-86 1742,-112"/>
<text text-anchor="middle" x="1657" y="-101.6" font-family="Arial" font-size="8.00">owl:Restriction</text>
<text text-anchor="middle" x="1657" y="-92.6" font-family="Arial" font-size="8.00">,7240f528&#45;8863&#45;406f&#45;8ee9&#45;480629d7e142</text>
</g>
<!-- http://ns.imfid.org/imf#TypeConstraint&#45;&gt;7240f528&#45;8863&#45;406f&#45;8ee9&#45;480629d7e142 -->
<g id="edge9" class="edge">
<title>http://ns.imfid.org/imf#TypeConstraint&#45;&gt;7240f528&#45;8863&#45;406f&#45;8ee9&#45;480629d7e142</title>
<path fill="none" stroke="black" d="M1615.5,-36.14C1623.54,-48.12 1634.31,-64.19 1642.87,-76.94"/>
<polygon fill="none" stroke="black" points="1640.16,-79.19 1648.64,-85.54 1645.98,-75.29 1640.16,-79.19"/>
</g>
<!-- http://www.w3.org/2002/07/owl#Thing -->
<g id="node23" class="node">
<title>http://www.w3.org/2002/07/owl#Thing</title>
<polygon fill="none" stroke="black" points="1718,-36 1664,-36 1664,0 1718,0 1718,-36"/>
<text text-anchor="middle" x="1691" y="-16.1" font-family="Arial" font-size="8.00">owl:Thing</text>
</g>
<!-- http://ns.imfid.org/imf#AttributeType -->
<g id="node26" class="node">
<title>http://ns.imfid.org/imf#AttributeType</title>
<polygon fill="none" stroke="black" points="722.5,-190 645.5,-190 645.5,-154 722.5,-154 722.5,-190"/>
<text text-anchor="middle" x="684" y="-170.1" font-family="Arial" font-size="8.00">imf:AttributeType</text>
</g>
<!-- http://ns.imfid.org/imf#AttributeType&#45;&gt;http://ns.imfid.org/imf#Type -->
<g id="edge16" class="edge">
<title>http://ns.imfid.org/imf#AttributeType&#45;&gt;http://ns.imfid.org/imf#Type</title>
<path fill="none" stroke="black" d="M660.52,-190.19C647.89,-199.43 632.14,-210.96 618.47,-220.97"/>
<polygon fill="none" stroke="black" points="616.27,-218.24 610.26,-226.97 620.4,-223.89 616.27,-218.24"/>
</g>
</g>
</svg>

