<?xml version="1.0" encoding="UTF-8" standalone="no"?>
<!DOCTYPE svg PUBLIC "-//W3C//DTD SVG 1.1//EN"
 "http://www.w3.org/Graphics/SVG/1.1/DTD/svg11.dtd">
<!-- Generated by graphviz version 2.43.0 (0)
 -->
<!-- Title: urn:temp#graph Pages: 1 -->
<svg width="1942px" height="271px"
 viewBox="0.00 0.00 1942.00 271.00" xmlns="http://www.w3.org/2000/svg" xmlns:xlink="http://www.w3.org/1999/xlink">
<g id="graph0" class="graph" transform="scale(1.0 1.0) rotate(0) translate(4 267)">
<title>urn:temp#graph</title>
<polygon fill="white" stroke="transparent" points="-4,4 -4,-267 1938,-267 1938,4 -4,4"/>
<!-- 4f4776c2&#45;4609&#45;43a6&#45;b88b&#45;d5ebcc507704 -->
<g id="node1" class="node">
<title>4f4776c2&#45;4609&#45;43a6&#45;b88b&#45;d5ebcc507704</title>
<polygon fill="#e5e5e5" stroke="black" stroke-dasharray="5,2" points="222,-110 0,-110 0,-88 222,-88 222,-110"/>
<text text-anchor="middle" x="111" y="-97.1" font-family="Arial" font-size="8.00">4f4776c2&#45;4609&#45;43a6&#45;b88b&#45;d5ebcc507704,owl:Restriction</text>
</g>
<!-- e9dd0a5d&#45;24c4&#45;42ce&#45;a2ea&#45;b660c7208a8a -->
<g id="node2" class="node">
<title>e9dd0a5d&#45;24c4&#45;42ce&#45;a2ea&#45;b660c7208a8a</title>
<polygon fill="#e5e5e5" stroke="black" stroke-dasharray="5,2" points="704,-110 480,-110 480,-88 704,-88 704,-110"/>
<text text-anchor="middle" x="592" y="-97.1" font-family="Arial" font-size="8.00">e9dd0a5d&#45;24c4&#45;42ce&#45;a2ea&#45;b660c7208a8a,owl:Restriction</text>
</g>
<!-- http://ns.imfid.org/imf#Element -->
<g id="node3" class="node">
<title>http://ns.imfid.org/imf#Element</title>
<polygon fill="none" stroke="black" points="862.5,-36 803.5,-36 803.5,0 862.5,0 862.5,-36"/>
<text text-anchor="middle" x="833" y="-16.1" font-family="Arial" font-size="8.00">imf:Element</text>
</g>
<!-- 2626d285&#45;fc43&#45;44b4&#45;9a00&#45;12f29675a920 -->
<g id="node5" class="node">
<title>2626d285&#45;fc43&#45;44b4&#45;9a00&#45;12f29675a920</title>
<polygon fill="#e5e5e5" stroke="black" stroke-dasharray="5,2" points="943.5,-110 722.5,-110 722.5,-88 943.5,-88 943.5,-110"/>
<text text-anchor="middle" x="833" y="-97.1" font-family="Arial" font-size="8.00">2626d285&#45;fc43&#45;44b4&#45;9a00&#45;12f29675a920,owl:Restriction</text>
</g>
<!-- http://ns.imfid.org/imf#Element&#45;&gt;2626d285&#45;fc43&#45;44b4&#45;9a00&#45;12f29675a920 -->
<g id="edge5" class="edge">
<title>http://ns.imfid.org/imf#Element&#45;&gt;2626d285&#45;fc43&#45;44b4&#45;9a00&#45;12f29675a920</title>
<path fill="none" stroke="black" d="M833,-36.14C833,-48.36 833,-64.82 833,-77.7"/>
<polygon fill="none" stroke="black" points="829.5,-77.89 833,-87.89 836.5,-77.89 829.5,-77.89"/>
</g>
<!-- 4bbd6476&#45;764e&#45;4203&#45;8efe&#45;2beb86868a20 -->
<g id="node4" class="node">
<title>4bbd6476&#45;764e&#45;4203&#45;8efe&#45;2beb86868a20</title>
<polygon fill="#e5e5e5" stroke="black" stroke-dasharray="5,2" points="1186,-110 962,-110 962,-88 1186,-88 1186,-110"/>
<text text-anchor="middle" x="1074" y="-97.1" font-family="Arial" font-size="8.00">4bbd6476&#45;764e&#45;4203&#45;8efe&#45;2beb86868a20,owl:Restriction</text>
</g>
<!-- http://ns.imfid.org/imf#Aspect -->
<g id="node6" class="node">
<title>http://ns.imfid.org/imf#Aspect</title>
<polygon fill="none" stroke="black" points="1230,-36 1176,-36 1176,0 1230,0 1230,-36"/>
<text text-anchor="middle" x="1203" y="-16.1" font-family="Arial" font-size="8.00">imf:Aspect</text>
</g>
<!-- 7901f4ae&#45;7f16&#45;4656&#45;acba&#45;d7289f6b1a6f -->
<g id="node7" class="node">
<title>7901f4ae&#45;7f16&#45;4656&#45;acba&#45;d7289f6b1a6f</title>
<polygon fill="#e5e5e5" stroke="black" stroke-dasharray="5,2" points="1088.5,-183 871.5,-183 871.5,-161 1088.5,-161 1088.5,-183"/>
<text text-anchor="middle" x="980" y="-170.1" font-family="Arial" font-size="8.00">7901f4ae&#45;7f16&#45;4656&#45;acba&#45;d7289f6b1a6f,owl:Restriction</text>
</g>
<!-- bc11f167&#45;34df&#45;42db&#45;81aa&#45;0d45284168e6 -->
<g id="node8" class="node">
<title>bc11f167&#45;34df&#45;42db&#45;81aa&#45;0d45284168e6</title>
<polygon fill="#e5e5e5" stroke="black" stroke-dasharray="5,2" points="1260.5,-256 1039.5,-256 1039.5,-234 1260.5,-234 1260.5,-256"/>
<text text-anchor="middle" x="1150" y="-243.1" font-family="Arial" font-size="8.00">bc11f167&#45;34df&#45;42db&#45;81aa&#45;0d45284168e6,owl:Restriction</text>
</g>
<!-- http://ns.imfid.org/imf#Terminal -->
<g id="node9" class="node">
<title>http://ns.imfid.org/imf#Terminal</title>
<polygon fill="none" stroke="black" points="1532.5,-36 1473.5,-36 1473.5,0 1532.5,0 1532.5,-36"/>
<text text-anchor="middle" x="1503" y="-16.1" font-family="Arial" font-size="8.00">imf:Terminal</text>
</g>
<!-- 2e65f17e&#45;bd62&#45;4ca4&#45;b23e&#45;4c5bb009ec40 -->
<g id="node11" class="node">
<title>2e65f17e&#45;bd62&#45;4ca4&#45;b23e&#45;4c5bb009ec40</title>
<polygon fill="#e5e5e5" stroke="black" stroke-dasharray="5,2" points="1614,-110 1392,-110 1392,-88 1614,-88 1614,-110"/>
<text text-anchor="middle" x="1503" y="-97.1" font-family="Arial" font-size="8.00">2e65f17e&#45;bd62&#45;4ca4&#45;b23e&#45;4c5bb009ec40,owl:Restriction</text>
</g>
<!-- http://ns.imfid.org/imf#Terminal&#45;&gt;2e65f17e&#45;bd62&#45;4ca4&#45;b23e&#45;4c5bb009ec40 -->
<g id="edge17" class="edge">
<title>http://ns.imfid.org/imf#Terminal&#45;&gt;2e65f17e&#45;bd62&#45;4ca4&#45;b23e&#45;4c5bb009ec40</title>
<path fill="none" stroke="black" d="M1503,-36.14C1503,-48.36 1503,-64.82 1503,-77.7"/>
<polygon fill="none" stroke="black" points="1499.5,-77.89 1503,-87.89 1506.5,-77.89 1499.5,-77.89"/>
</g>
<!-- 58379857&#45;3bd2&#45;421a&#45;b2a1&#45;eff249dc6897 -->
<g id="node10" class="node">
<title>58379857&#45;3bd2&#45;421a&#45;b2a1&#45;eff249dc6897</title>
<polygon fill="#e5e5e5" stroke="black" stroke-dasharray="5,2" points="1327.5,-183 1106.5,-183 1106.5,-161 1327.5,-161 1327.5,-183"/>
<text text-anchor="middle" x="1217" y="-170.1" font-family="Arial" font-size="8.00">58379857&#45;3bd2&#45;421a&#45;b2a1&#45;eff249dc6897,owl:Restriction</text>
</g>
<!-- http://ns.imfid.org/imf#TerminalType -->
<g id="node12" class="node">
<title>http://ns.imfid.org/imf#TerminalType</title>
<polygon fill="none" stroke="black" points="1281.5,-117 1204.5,-117 1204.5,-81 1281.5,-81 1281.5,-117"/>
<text text-anchor="middle" x="1243" y="-97.1" font-family="Arial" font-size="8.00">imf:TerminalType</text>
</g>
<!-- http://ns.imfid.org/imf#TerminalType&#45;&gt;7901f4ae&#45;7f16&#45;4656&#45;acba&#45;d7289f6b1a6f -->
<g id="edge1" class="edge">
<title>http://ns.imfid.org/imf#TerminalType&#45;&gt;7901f4ae&#45;7f16&#45;4656&#45;acba&#45;d7289f6b1a6f</title>
<path fill="none" stroke="black" d="M1204.33,-114.05C1201.19,-115.08 1198.05,-116.08 1195,-117 1141.17,-133.25 1078.74,-148.55 1035.07,-158.68"/>
<polygon fill="none" stroke="black" points="1034.18,-155.29 1025.22,-160.95 1035.75,-162.11 1034.18,-155.29"/>
</g>
<!-- http://ns.imfid.org/imf#TerminalType&#45;&gt;58379857&#45;3bd2&#45;421a&#45;b2a1&#45;eff249dc6897 -->
<g id="edge11" class="edge">
<title>http://ns.imfid.org/imf#TerminalType&#45;&gt;58379857&#45;3bd2&#45;421a&#45;b2a1&#45;eff249dc6897</title>
<path fill="none" stroke="black" d="M1236.71,-117.19C1232.96,-127.41 1228.2,-140.41 1224.29,-151.08"/>
<polygon fill="none" stroke="black" points="1220.9,-150.18 1220.74,-160.78 1227.47,-152.59 1220.9,-150.18"/>
</g>
<!-- http://ns.imfid.org/imf#ElementType -->
<g id="node13" class="node">
<title>http://ns.imfid.org/imf#ElementType</title>
<polygon fill="none" stroke="black" points="1422,-190 1346,-190 1346,-154 1422,-154 1422,-190"/>
<text text-anchor="middle" x="1384" y="-170.1" font-family="Arial" font-size="8.00">imf:ElementType</text>
</g>
<!-- http://ns.imfid.org/imf#TerminalType&#45;&gt;http://ns.imfid.org/imf#ElementType -->
<g id="edge4" class="edge">
<title>http://ns.imfid.org/imf#TerminalType&#45;&gt;http://ns.imfid.org/imf#ElementType</title>
<path fill="none" stroke="black" d="M1276.77,-117.01C1295.99,-126.68 1320.26,-138.9 1340.85,-149.27"/>
<polygon fill="none" stroke="black" points="1339.51,-152.51 1350.01,-153.89 1342.66,-146.26 1339.51,-152.51"/>
</g>
<!-- http://ns.imfid.org/imf#ElementType&#45;&gt;bc11f167&#45;34df&#45;42db&#45;81aa&#45;0d45284168e6 -->
<g id="edge2" class="edge">
<title>http://ns.imfid.org/imf#ElementType&#45;&gt;bc11f167&#45;34df&#45;42db&#45;81aa&#45;0d45284168e6</title>
<path fill="none" stroke="black" d="M1345.82,-186.75C1342.5,-187.87 1339.2,-188.97 1336,-190 1288.84,-205.18 1234.36,-220.78 1196.6,-231.28"/>
<polygon fill="none" stroke="black" points="1195.6,-227.92 1186.89,-233.97 1197.47,-234.67 1195.6,-227.92"/>
</g>
<!-- c1fe3f67&#45;4f5c&#45;4f98&#45;9c0d&#45;c5e90f0a1bdf -->
<g id="node16" class="node">
<title>c1fe3f67&#45;4f5c&#45;4f98&#45;9c0d&#45;c5e90f0a1bdf</title>
<polygon fill="#e5e5e5" stroke="black" stroke-dasharray="5,2" points="1489,-256 1279,-256 1279,-234 1489,-234 1489,-256"/>
<text text-anchor="middle" x="1384" y="-243.1" font-family="Arial" font-size="8.00">c1fe3f67&#45;4f5c&#45;4f98&#45;9c0d&#45;c5e90f0a1bdf,owl:Restriction</text>
</g>
<!-- http://ns.imfid.org/imf#ElementType&#45;&gt;c1fe3f67&#45;4f5c&#45;4f98&#45;9c0d&#45;c5e90f0a1bdf -->
<g id="edge8" class="edge">
<title>http://ns.imfid.org/imf#ElementType&#45;&gt;c1fe3f67&#45;4f5c&#45;4f98&#45;9c0d&#45;c5e90f0a1bdf</title>
<path fill="none" stroke="black" d="M1384,-190.19C1384,-200.3 1384,-213.14 1384,-223.75"/>
<polygon fill="none" stroke="black" points="1380.5,-223.78 1384,-233.78 1387.5,-223.78 1380.5,-223.78"/>
</g>
<!-- 90c637a0&#45;5b97&#45;4107&#45;bdb6&#45;44ca4106b8bc -->
<g id="node23" class="node">
<title>90c637a0&#45;5b97&#45;4107&#45;bdb6&#45;44ca4106b8bc</title>
<polygon fill="#e5e5e5" stroke="black" stroke-dasharray="5,2" points="1731,-256 1507,-256 1507,-234 1731,-234 1731,-256"/>
<text text-anchor="middle" x="1619" y="-243.1" font-family="Arial" font-size="8.00">90c637a0&#45;5b97&#45;4107&#45;bdb6&#45;44ca4106b8bc,owl:Restriction</text>
</g>
<!-- http://ns.imfid.org/imf#ElementType&#45;&gt;90c637a0&#45;5b97&#45;4107&#45;bdb6&#45;44ca4106b8bc -->
<g id="edge15" class="edge">
<title>http://ns.imfid.org/imf#ElementType&#45;&gt;90c637a0&#45;5b97&#45;4107&#45;bdb6&#45;44ca4106b8bc</title>
<path fill="none" stroke="black" d="M1422.02,-184.49C1464.08,-197.19 1531.72,-217.63 1575.76,-230.94"/>
<polygon fill="none" stroke="black" points="1575.02,-234.37 1585.6,-233.91 1577.04,-227.67 1575.02,-234.37"/>
</g>
<!-- http://ns.imfid.org/imf#Type -->
<g id="node24" class="node">
<title>http://ns.imfid.org/imf#Type</title>
<polygon fill="none" stroke="black" points="842,-263 788,-263 788,-227 842,-227 842,-263"/>
<text text-anchor="middle" x="815" y="-243.1" font-family="Arial" font-size="8.00">imf:Type</text>
</g>
<!-- http://ns.imfid.org/imf#ElementType&#45;&gt;http://ns.imfid.org/imf#Type -->
<g id="edge16" class="edge">
<title>http://ns.imfid.org/imf#ElementType&#45;&gt;http://ns.imfid.org/imf#Type</title>
<path fill="none" stroke="black" d="M1345.99,-187.38C1342.64,-188.37 1339.28,-189.26 1336,-190 1243.47,-210.87 955.76,-233.59 852.43,-241.28"/>
<polygon fill="none" stroke="black" points="851.88,-237.81 842.17,-242.04 852.4,-244.79 851.88,-237.81"/>
</g>
<!-- http://ns.imfid.org/imf#AttributeGroup -->
<g id="node14" class="node">
<title>http://ns.imfid.org/imf#AttributeGroup</title>
<polygon fill="none" stroke="black" points="1782,-36 1700,-36 1700,0 1782,0 1782,-36"/>
<text text-anchor="middle" x="1741" y="-16.1" font-family="Arial" font-size="8.00">imf:AttributeGroup</text>
</g>
<!-- f50770a8&#45;6c04&#45;439b&#45;9536&#45;971c6f0a841f -->
<g id="node15" class="node">
<title>f50770a8&#45;6c04&#45;439b&#45;9536&#45;971c6f0a841f</title>
<polygon fill="#e5e5e5" stroke="black" stroke-dasharray="5,2" points="1850,-110 1632,-110 1632,-88 1850,-88 1850,-110"/>
<text text-anchor="middle" x="1741" y="-97.1" font-family="Arial" font-size="8.00">f50770a8&#45;6c04&#45;439b&#45;9536&#45;971c6f0a841f,owl:Restriction</text>
</g>
<!-- http://ns.imfid.org/imf#AttributeGroup&#45;&gt;f50770a8&#45;6c04&#45;439b&#45;9536&#45;971c6f0a841f -->
<g id="edge6" class="edge">
<title>http://ns.imfid.org/imf#AttributeGroup&#45;&gt;f50770a8&#45;6c04&#45;439b&#45;9536&#45;971c6f0a841f</title>
<path fill="none" stroke="black" d="M1741,-36.14C1741,-48.36 1741,-64.82 1741,-77.7"/>
<polygon fill="none" stroke="black" points="1737.5,-77.89 1741,-87.89 1744.5,-77.89 1737.5,-77.89"/>
</g>
<!-- http://ns.imfid.org/imf#Block -->
<g id="node17" class="node">
<title>http://ns.imfid.org/imf#Block</title>
<polygon fill="none" stroke="black" points="619,-36 565,-36 565,0 619,0 619,-36"/>
<text text-anchor="middle" x="592" y="-16.1" font-family="Arial" font-size="8.00">imf:Block</text>
</g>
<!-- http://ns.imfid.org/imf#Block&#45;&gt;e9dd0a5d&#45;24c4&#45;42ce&#45;a2ea&#45;b660c7208a8a -->
<g id="edge18" class="edge">
<title>http://ns.imfid.org/imf#Block&#45;&gt;e9dd0a5d&#45;24c4&#45;42ce&#45;a2ea&#45;b660c7208a8a</title>
<path fill="none" stroke="black" d="M592,-36.14C592,-48.36 592,-64.82 592,-77.7"/>
<polygon fill="none" stroke="black" points="588.5,-77.89 592,-87.89 595.5,-77.89 588.5,-77.89"/>
</g>
<!-- http://ns.imfid.org/imf#AttributeGroupType -->
<g id="node18" class="node">
<title>http://ns.imfid.org/imf#AttributeGroupType</title>
<polygon fill="none" stroke="black" points="758.5,-190 659.5,-190 659.5,-154 758.5,-154 758.5,-190"/>
<text text-anchor="middle" x="709" y="-170.1" font-family="Arial" font-size="8.00">imf:AttributeGroupType</text>
</g>
<!-- http://ns.imfid.org/imf#AttributeGroupType&#45;&gt;http://ns.imfid.org/imf#Type -->
<g id="edge3" class="edge">
<title>http://ns.imfid.org/imf#AttributeGroupType&#45;&gt;http://ns.imfid.org/imf#Type</title>
<path fill="none" stroke="black" d="M734.39,-190.01C748.32,-199.33 765.77,-211.03 780.87,-221.14"/>
<polygon fill="none" stroke="black" points="779.19,-224.23 789.45,-226.89 783.09,-218.41 779.19,-224.23"/>
</g>
<!-- http://ns.imfid.org/imf#BlockType -->
<g id="node19" class="node">
<title>http://ns.imfid.org/imf#BlockType</title>
<polygon fill="none" stroke="black" points="1346.5,-36 1281.5,-36 1281.5,0 1346.5,0 1346.5,-36"/>
<text text-anchor="middle" x="1314" y="-16.1" font-family="Arial" font-size="8.00">imf:BlockType</text>
</g>
<!-- http://ns.imfid.org/imf#BlockType&#45;&gt;http://ns.imfid.org/imf#TerminalType -->
<g id="edge9" class="edge">
<title>http://ns.imfid.org/imf#BlockType&#45;&gt;http://ns.imfid.org/imf#TerminalType</title>
<path fill="none" stroke="black" d="M1294.62,-36.26C1288.77,-41.75 1282.46,-47.97 1277,-54 1271.75,-59.81 1266.41,-66.35 1261.56,-72.58"/>
<polygon fill="black" stroke="black" points="1258.59,-70.71 1255.32,-80.79 1264.16,-74.95 1258.59,-70.71"/>
<text text-anchor="middle" x="1313.5" y="-56.6" font-family="Arial" font-size="8.00">imf:hasTerminalType</text>
</g>
<!-- http://ns.imfid.org/imf#BlockType&#45;&gt;http://ns.imfid.org/imf#ElementType -->
<g id="edge12" class="edge">
<title>http://ns.imfid.org/imf#BlockType&#45;&gt;http://ns.imfid.org/imf#ElementType</title>
<path fill="none" stroke="black" d="M1335.43,-36.3C1340.81,-41.52 1346.14,-47.57 1350,-54 1366.8,-81.95 1375.7,-118.68 1380.12,-143.47"/>
<polygon fill="none" stroke="black" points="1376.71,-144.32 1381.79,-153.62 1383.62,-143.18 1376.71,-144.32"/>
</g>
<!-- http://ns.imfid.org/imf#Attribute -->
<g id="node20" class="node">
<title>http://ns.imfid.org/imf#Attribute</title>
<polygon fill="none" stroke="black" points="1103.5,-36 1044.5,-36 1044.5,0 1103.5,0 1103.5,-36"/>
<text text-anchor="middle" x="1074" y="-16.1" font-family="Arial" font-size="8.00">imf:Attribute</text>
</g>
<!-- http://ns.imfid.org/imf#Attribute&#45;&gt;4bbd6476&#45;764e&#45;4203&#45;8efe&#45;2beb86868a20 -->
<g id="edge10" class="edge">
<title>http://ns.imfid.org/imf#Attribute&#45;&gt;4bbd6476&#45;764e&#45;4203&#45;8efe&#45;2beb86868a20</title>
<path fill="none" stroke="black" d="M1074,-36.14C1074,-48.36 1074,-64.82 1074,-77.7"/>
<polygon fill="none" stroke="black" points="1070.5,-77.89 1074,-87.89 1077.5,-77.89 1070.5,-77.89"/>
</g>
<!-- http://ns.imfid.org/imf#Direction -->
<g id="node21" class="node">
<title>http://ns.imfid.org/imf#Direction</title>
<polygon fill="none" stroke="black" points="1861.5,-36 1800.5,-36 1800.5,0 1861.5,0 1861.5,-36"/>
<text text-anchor="middle" x="1831" y="-16.1" font-family="Arial" font-size="8.00">imf:Direction</text>
</g>
<!-- 35686119&#45;260e&#45;4cf5&#45;8a43&#45;19c8d2cb33c3 -->
<g id="node22" class="node">
<title>35686119&#45;260e&#45;4cf5&#45;8a43&#45;19c8d2cb33c3</title>
<polygon fill="#e5e5e5" stroke="black" stroke-dasharray="5,2" points="461.5,-110 240.5,-110 240.5,-88 461.5,-88 461.5,-110"/>
<text text-anchor="middle" x="351" y="-97.1" font-family="Arial" font-size="8.00">35686119&#45;260e&#45;4cf5&#45;8a43&#45;19c8d2cb33c3,owl:Restriction</text>
</g>
<!-- http://ns.imfid.org/imf#TypeConstraint -->
<g id="node25" class="node">
<title>http://ns.imfid.org/imf#TypeConstraint</title>
<polygon fill="none" stroke="black" points="272.5,-36 189.5,-36 189.5,0 272.5,0 272.5,-36"/>
<text text-anchor="middle" x="231" y="-16.1" font-family="Arial" font-size="8.00">imf:TypeConstraint</text>
</g>
<!-- http://ns.imfid.org/imf#TypeConstraint&#45;&gt;4f4776c2&#45;4609&#45;43a6&#45;b88b&#45;d5ebcc507704 -->
<g id="edge7" class="edge">
<title>http://ns.imfid.org/imf#TypeConstraint&#45;&gt;4f4776c2&#45;4609&#45;43a6&#45;b88b&#45;d5ebcc507704</title>
<path fill="none" stroke="black" d="M204.96,-36.14C184.07,-49.9 154.98,-69.05 134.72,-82.38"/>
<polygon fill="none" stroke="black" points="132.79,-79.46 126.36,-87.89 136.64,-85.31 132.79,-79.46"/>
</g>
<!-- http://ns.imfid.org/imf#TypeConstraint&#45;&gt;35686119&#45;260e&#45;4cf5&#45;8a43&#45;19c8d2cb33c3 -->
<g id="edge13" class="edge">
<title>http://ns.imfid.org/imf#TypeConstraint&#45;&gt;35686119&#45;260e&#45;4cf5&#45;8a43&#45;19c8d2cb33c3</title>
<path fill="none" stroke="black" d="M257.04,-36.14C277.93,-49.9 307.02,-69.05 327.28,-82.38"/>
<polygon fill="none" stroke="black" points="325.36,-85.31 335.64,-87.89 329.21,-79.46 325.36,-85.31"/>
</g>
<!-- http://www.w3.org/2002/07/owl#Thing -->
<g id="node26" class="node">
<title>http://www.w3.org/2002/07/owl#Thing</title>
<polygon fill="none" stroke="black" points="1934,-36 1880,-36 1880,0 1934,0 1934,-36"/>
<text text-anchor="middle" x="1907" y="-16.1" font-family="Arial" font-size="8.00">owl:Thing</text>
</g>
<!-- http://ns.imfid.org/imf#AttributeType -->
<g id="node27" class="node">
<title>http://ns.imfid.org/imf#AttributeType</title>
<polygon fill="none" stroke="black" points="853.5,-190 776.5,-190 776.5,-154 853.5,-154 853.5,-190"/>
<text text-anchor="middle" x="815" y="-170.1" font-family="Arial" font-size="8.00">imf:AttributeType</text>
</g>
<!-- http://ns.imfid.org/imf#AttributeType&#45;&gt;http://ns.imfid.org/imf#Type -->
<g id="edge14" class="edge">
<title>http://ns.imfid.org/imf#AttributeType&#45;&gt;http://ns.imfid.org/imf#Type</title>
<path fill="none" stroke="black" d="M815,-190.19C815,-198.21 815,-207.95 815,-216.93"/>
<polygon fill="none" stroke="black" points="811.5,-216.97 815,-226.97 818.5,-216.97 811.5,-216.97"/>
</g>
</g>
</svg>

