<?xml version="1.0" encoding="UTF-8" standalone="no"?>
<!DOCTYPE svg PUBLIC "-//W3C//DTD SVG 1.1//EN"
 "http://www.w3.org/Graphics/SVG/1.1/DTD/svg11.dtd">
<!-- Generated by graphviz version 2.43.0 (0)
 -->
<!-- Title: urn:temp#graph Pages: 1 -->
<svg width="2474px" height="271px"
 viewBox="0.00 0.00 2473.50 271.00" xmlns="http://www.w3.org/2000/svg" xmlns:xlink="http://www.w3.org/1999/xlink">
<g id="graph0" class="graph" transform="scale(1.0 1.0) rotate(0) translate(4 267)">
<title>urn:temp#graph</title>
<polygon fill="white" stroke="transparent" points="-4,4 -4,-267 2469.5,-267 2469.5,4 -4,4"/>
<!-- 7d4e6f09&#45;a053&#45;4a42&#45;8fc6&#45;00a7c3e4dced -->
<g id="node1" class="node">
<title>7d4e6f09&#45;a053&#45;4a42&#45;8fc6&#45;00a7c3e4dced</title>
<polygon fill="#e5e5e5" stroke="black" stroke-dasharray="5,2" points="1072.5,-256 852.5,-256 852.5,-234 1072.5,-234 1072.5,-256"/>
<text text-anchor="middle" x="962.5" y="-243.1" font-family="Arial" font-size="8.00">7d4e6f09&#45;a053&#45;4a42&#45;8fc6&#45;00a7c3e4dced,owl:Restriction</text>
</g>
<!-- http://ns.imfid.org/imf#Element -->
<g id="node2" class="node">
<title>http://ns.imfid.org/imf#Element</title>
<polygon fill="none" stroke="black" points="882,-36 823,-36 823,0 882,0 882,-36"/>
<text text-anchor="middle" x="852.5" y="-16.1" font-family="Arial" font-size="8.00">imf:Element</text>
</g>
<!-- e3c5e1ae&#45;4ce8&#45;4aa7&#45;b995&#45;ddb21c4de4be -->
<g id="node8" class="node">
<title>e3c5e1ae&#45;4ce8&#45;4aa7&#45;b995&#45;ddb21c4de4be</title>
<polygon fill="#e5e5e5" stroke="black" stroke-dasharray="5,2" points="964.5,-110 740.5,-110 740.5,-88 964.5,-88 964.5,-110"/>
<text text-anchor="middle" x="852.5" y="-97.1" font-family="Arial" font-size="8.00">e3c5e1ae&#45;4ce8&#45;4aa7&#45;b995&#45;ddb21c4de4be,owl:Restriction</text>
</g>
<!-- http://ns.imfid.org/imf#Element&#45;&gt;e3c5e1ae&#45;4ce8&#45;4aa7&#45;b995&#45;ddb21c4de4be -->
<g id="edge10" class="edge">
<title>http://ns.imfid.org/imf#Element&#45;&gt;e3c5e1ae&#45;4ce8&#45;4aa7&#45;b995&#45;ddb21c4de4be</title>
<path fill="none" stroke="black" d="M852.5,-36.14C852.5,-48.36 852.5,-64.82 852.5,-77.7"/>
<polygon fill="none" stroke="black" points="849,-77.89 852.5,-87.89 856,-77.89 849,-77.89"/>
</g>
<!-- 9929bff2&#45;7abb&#45;4236&#45;8a91&#45;edb486a0f890 -->
<g id="node3" class="node">
<title>9929bff2&#45;7abb&#45;4236&#45;8a91&#45;edb486a0f890</title>
<polygon fill="#e5e5e5" stroke="black" stroke-dasharray="5,2" points="592.5,-256 372.5,-256 372.5,-234 592.5,-234 592.5,-256"/>
<text text-anchor="middle" x="482.5" y="-243.1" font-family="Arial" font-size="8.00">9929bff2&#45;7abb&#45;4236&#45;8a91&#45;edb486a0f890,owl:Restriction</text>
</g>
<!-- http://ns.imfid.org/imf#Aspect -->
<g id="node4" class="node">
<title>http://ns.imfid.org/imf#Aspect</title>
<polygon fill="none" stroke="black" points="1053.5,-36 999.5,-36 999.5,0 1053.5,0 1053.5,-36"/>
<text text-anchor="middle" x="1026.5" y="-16.1" font-family="Arial" font-size="8.00">imf:Aspect</text>
</g>
<!-- 1ec1a7cc&#45;f995&#45;4738&#45;b530&#45;73c63a7570b5 -->
<g id="node5" class="node">
<title>1ec1a7cc&#45;f995&#45;4738&#45;b530&#45;73c63a7570b5</title>
<polygon fill="#e5e5e5" stroke="black" stroke-dasharray="5,2" points="1204,-110 983,-110 983,-88 1204,-88 1204,-110"/>
<text text-anchor="middle" x="1093.5" y="-97.1" font-family="Arial" font-size="8.00">1ec1a7cc&#45;f995&#45;4738&#45;b530&#45;73c63a7570b5,owl:Restriction</text>
</g>
<!-- http://ns.imfid.org/imf#Terminal -->
<g id="node6" class="node">
<title>http://ns.imfid.org/imf#Terminal</title>
<polygon fill="none" stroke="black" points="1597,-36 1538,-36 1538,0 1597,0 1597,-36"/>
<text text-anchor="middle" x="1567.5" y="-16.1" font-family="Arial" font-size="8.00">imf:Terminal</text>
</g>
<!-- d7e7e547&#45;9743&#45;4b60&#45;90fd&#45;454f1dc511c4 -->
<g id="node27" class="node">
<title>d7e7e547&#45;9743&#45;4b60&#45;90fd&#45;454f1dc511c4</title>
<polygon fill="#e5e5e5" stroke="black" stroke-dasharray="5,2" points="1677.5,-110 1457.5,-110 1457.5,-88 1677.5,-88 1677.5,-110"/>
<text text-anchor="middle" x="1567.5" y="-97.1" font-family="Arial" font-size="8.00">d7e7e547&#45;9743&#45;4b60&#45;90fd&#45;454f1dc511c4,owl:Restriction</text>
</g>
<!-- http://ns.imfid.org/imf#Terminal&#45;&gt;d7e7e547&#45;9743&#45;4b60&#45;90fd&#45;454f1dc511c4 -->
<g id="edge11" class="edge">
<title>http://ns.imfid.org/imf#Terminal&#45;&gt;d7e7e547&#45;9743&#45;4b60&#45;90fd&#45;454f1dc511c4</title>
<path fill="none" stroke="black" d="M1567.5,-36.14C1567.5,-48.36 1567.5,-64.82 1567.5,-77.7"/>
<polygon fill="none" stroke="black" points="1564,-77.89 1567.5,-87.89 1571,-77.89 1564,-77.89"/>
</g>
<!-- 695626b0&#45;d422&#45;4551&#45;bb16&#45;c9aeb80cf294 -->
<g id="node7" class="node">
<title>695626b0&#45;d422&#45;4551&#45;bb16&#45;c9aeb80cf294</title>
<polygon fill="#e5e5e5" stroke="black" stroke-dasharray="5,2" points="1919,-110 1696,-110 1696,-88 1919,-88 1919,-110"/>
<text text-anchor="middle" x="1807.5" y="-97.1" font-family="Arial" font-size="8.00">695626b0&#45;d422&#45;4551&#45;bb16&#45;c9aeb80cf294,owl:Restriction</text>
</g>
<!-- http://ns.imfid.org/imf#TerminalType -->
<g id="node9" class="node">
<title>http://ns.imfid.org/imf#TerminalType</title>
<polygon fill="none" stroke="black" points="616,-117 539,-117 539,-81 616,-81 616,-117"/>
<text text-anchor="middle" x="577.5" y="-97.1" font-family="Arial" font-size="8.00">imf:TerminalType</text>
</g>
<!-- http://ns.imfid.org/imf#ElementType -->
<g id="node11" class="node">
<title>http://ns.imfid.org/imf#ElementType</title>
<polygon fill="none" stroke="black" points="760.5,-190 684.5,-190 684.5,-154 760.5,-154 760.5,-190"/>
<text text-anchor="middle" x="722.5" y="-170.1" font-family="Arial" font-size="8.00">imf:ElementType</text>
</g>
<!-- http://ns.imfid.org/imf#TerminalType&#45;&gt;http://ns.imfid.org/imf#ElementType -->
<g id="edge8" class="edge">
<title>http://ns.imfid.org/imf#TerminalType&#45;&gt;http://ns.imfid.org/imf#ElementType</title>
<path fill="none" stroke="black" d="M612.23,-117.01C632.08,-126.73 657.18,-139.01 678.41,-149.41"/>
<polygon fill="none" stroke="black" points="677.03,-152.63 687.55,-153.89 680.11,-146.35 677.03,-152.63"/>
</g>
<!-- 3686b95b&#45;bae6&#45;4eae&#45;9844&#45;97bdd9cff99a -->
<g id="node21" class="node">
<title>3686b95b&#45;bae6&#45;4eae&#45;9844&#45;97bdd9cff99a</title>
<polygon fill="#e5e5e5" stroke="black" stroke-dasharray="5,2" points="433,-183 212,-183 212,-161 433,-161 433,-183"/>
<text text-anchor="middle" x="322.5" y="-170.1" font-family="Arial" font-size="8.00">3686b95b&#45;bae6&#45;4eae&#45;9844&#45;97bdd9cff99a,owl:Restriction</text>
</g>
<!-- http://ns.imfid.org/imf#TerminalType&#45;&gt;3686b95b&#45;bae6&#45;4eae&#45;9844&#45;97bdd9cff99a -->
<g id="edge3" class="edge">
<title>http://ns.imfid.org/imf#TerminalType&#45;&gt;3686b95b&#45;bae6&#45;4eae&#45;9844&#45;97bdd9cff99a</title>
<path fill="none" stroke="black" d="M538.77,-110.78C493.02,-123.52 416.99,-144.69 368.34,-158.24"/>
<polygon fill="none" stroke="black" points="367.39,-154.87 358.7,-160.92 369.27,-161.61 367.39,-154.87"/>
</g>
<!-- 5f0fdd41&#45;bdcc&#45;4cbe&#45;8a3a&#45;d4afc00f9595 -->
<g id="node25" class="node">
<title>5f0fdd41&#45;bdcc&#45;4cbe&#45;8a3a&#45;d4afc00f9595</title>
<polygon fill="#e5e5e5" stroke="black" stroke-dasharray="5,2" points="666,-183 451,-183 451,-161 666,-161 666,-183"/>
<text text-anchor="middle" x="558.5" y="-170.1" font-family="Arial" font-size="8.00">5f0fdd41&#45;bdcc&#45;4cbe&#45;8a3a&#45;d4afc00f9595,owl:Restriction</text>
</g>
<!-- http://ns.imfid.org/imf#TerminalType&#45;&gt;5f0fdd41&#45;bdcc&#45;4cbe&#45;8a3a&#45;d4afc00f9595 -->
<g id="edge4" class="edge">
<title>http://ns.imfid.org/imf#TerminalType&#45;&gt;5f0fdd41&#45;bdcc&#45;4cbe&#45;8a3a&#45;d4afc00f9595</title>
<path fill="none" stroke="black" d="M572.9,-117.19C570.17,-127.41 566.69,-140.41 563.83,-151.08"/>
<polygon fill="none" stroke="black" points="560.44,-150.21 561.24,-160.78 567.2,-152.02 560.44,-150.21"/>
</g>
<!-- 41ba3af2&#45;3185&#45;4f84&#45;bca9&#45;bf371f219a63 -->
<g id="node10" class="node">
<title>41ba3af2&#45;3185&#45;4f84&#45;bca9&#45;bf371f219a63</title>
<polygon fill="#e5e5e5" stroke="black" stroke-dasharray="5,2" points="1439,-110 1222,-110 1222,-88 1439,-88 1439,-110"/>
<text text-anchor="middle" x="1330.5" y="-97.1" font-family="Arial" font-size="8.00">41ba3af2&#45;3185&#45;4f84&#45;bca9&#45;bf371f219a63,owl:Restriction</text>
</g>
<!-- http://ns.imfid.org/imf#ElementType&#45;&gt;7d4e6f09&#45;a053&#45;4a42&#45;8fc6&#45;00a7c3e4dced -->
<g id="edge6" class="edge">
<title>http://ns.imfid.org/imf#ElementType&#45;&gt;7d4e6f09&#45;a053&#45;4a42&#45;8fc6&#45;00a7c3e4dced</title>
<path fill="none" stroke="black" d="M760.53,-184.25C803.54,-196.97 873.45,-217.66 918.71,-231.04"/>
<polygon fill="none" stroke="black" points="917.95,-234.47 928.53,-233.95 919.93,-227.76 917.95,-234.47"/>
</g>
<!-- http://ns.imfid.org/imf#ElementType&#45;&gt;9929bff2&#45;7abb&#45;4236&#45;8a91&#45;edb486a0f890 -->
<g id="edge1" class="edge">
<title>http://ns.imfid.org/imf#ElementType&#45;&gt;9929bff2&#45;7abb&#45;4236&#45;8a91&#45;edb486a0f890</title>
<path fill="none" stroke="black" d="M684.32,-186.78C681.01,-187.89 677.7,-188.98 674.5,-190 626.02,-205.38 569.97,-220.89 530.99,-231.31"/>
<polygon fill="none" stroke="black" points="529.73,-228.03 520.97,-233.98 531.54,-234.79 529.73,-228.03"/>
</g>
<!-- http://ns.imfid.org/imf#Type -->
<g id="node19" class="node">
<title>http://ns.imfid.org/imf#Type</title>
<polygon fill="none" stroke="black" points="182.5,-263 128.5,-263 128.5,-227 182.5,-227 182.5,-263"/>
<text text-anchor="middle" x="155.5" y="-243.1" font-family="Arial" font-size="8.00">imf:Type</text>
</g>
<!-- http://ns.imfid.org/imf#ElementType&#45;&gt;http://ns.imfid.org/imf#Type -->
<g id="edge16" class="edge">
<title>http://ns.imfid.org/imf#ElementType&#45;&gt;http://ns.imfid.org/imf#Type</title>
<path fill="none" stroke="black" d="M684.49,-187.38C681.14,-188.37 677.78,-189.26 674.5,-190 627.74,-200.56 303.48,-230.57 192.59,-240.65"/>
<polygon fill="none" stroke="black" points="192.18,-237.18 182.54,-241.56 192.82,-244.15 192.18,-237.18"/>
</g>
<!-- 3eaeb6a5&#45;e603&#45;467b&#45;bdfd&#45;b375886485b2 -->
<g id="node22" class="node">
<title>3eaeb6a5&#45;e603&#45;467b&#45;bdfd&#45;b375886485b2</title>
<polygon fill="#e5e5e5" stroke="black" stroke-dasharray="5,2" points="834.5,-256 610.5,-256 610.5,-234 834.5,-234 834.5,-256"/>
<text text-anchor="middle" x="722.5" y="-243.1" font-family="Arial" font-size="8.00">3eaeb6a5&#45;e603&#45;467b&#45;bdfd&#45;b375886485b2,owl:Restriction</text>
</g>
<!-- http://ns.imfid.org/imf#ElementType&#45;&gt;3eaeb6a5&#45;e603&#45;467b&#45;bdfd&#45;b375886485b2 -->
<g id="edge12" class="edge">
<title>http://ns.imfid.org/imf#ElementType&#45;&gt;3eaeb6a5&#45;e603&#45;467b&#45;bdfd&#45;b375886485b2</title>
<path fill="none" stroke="black" d="M722.5,-190.19C722.5,-200.3 722.5,-213.14 722.5,-223.75"/>
<polygon fill="none" stroke="black" points="719,-223.78 722.5,-233.78 726,-223.78 719,-223.78"/>
</g>
<!-- http://ns.imfid.org/imf#AttributeGroup -->
<g id="node12" class="node">
<title>http://ns.imfid.org/imf#AttributeGroup</title>
<polygon fill="none" stroke="black" points="1848.5,-36 1766.5,-36 1766.5,0 1848.5,0 1848.5,-36"/>
<text text-anchor="middle" x="1807.5" y="-16.1" font-family="Arial" font-size="8.00">imf:AttributeGroup</text>
</g>
<!-- http://ns.imfid.org/imf#AttributeGroup&#45;&gt;695626b0&#45;d422&#45;4551&#45;bb16&#45;c9aeb80cf294 -->
<g id="edge17" class="edge">
<title>http://ns.imfid.org/imf#AttributeGroup&#45;&gt;695626b0&#45;d422&#45;4551&#45;bb16&#45;c9aeb80cf294</title>
<path fill="none" stroke="black" d="M1807.5,-36.14C1807.5,-48.36 1807.5,-64.82 1807.5,-77.7"/>
<polygon fill="none" stroke="black" points="1804,-77.89 1807.5,-87.89 1811,-77.89 1804,-77.89"/>
</g>
<!-- http://ns.imfid.org/imf#Block -->
<g id="node13" class="node">
<title>http://ns.imfid.org/imf#Block</title>
<polygon fill="none" stroke="black" points="2073.5,-36 2019.5,-36 2019.5,0 2073.5,0 2073.5,-36"/>
<text text-anchor="middle" x="2046.5" y="-16.1" font-family="Arial" font-size="8.00">imf:Block</text>
</g>
<!-- 5079744f&#45;41d1&#45;4dda&#45;80dc&#45;4fa110c9fa99 -->
<g id="node18" class="node">
<title>5079744f&#45;41d1&#45;4dda&#45;80dc&#45;4fa110c9fa99</title>
<polygon fill="#e5e5e5" stroke="black" stroke-dasharray="5,2" points="2155.5,-110 1937.5,-110 1937.5,-88 2155.5,-88 2155.5,-110"/>
<text text-anchor="middle" x="2046.5" y="-97.1" font-family="Arial" font-size="8.00">5079744f&#45;41d1&#45;4dda&#45;80dc&#45;4fa110c9fa99,owl:Restriction</text>
</g>
<!-- http://ns.imfid.org/imf#Block&#45;&gt;5079744f&#45;41d1&#45;4dda&#45;80dc&#45;4fa110c9fa99 -->
<g id="edge7" class="edge">
<title>http://ns.imfid.org/imf#Block&#45;&gt;5079744f&#45;41d1&#45;4dda&#45;80dc&#45;4fa110c9fa99</title>
<path fill="none" stroke="black" d="M2046.5,-36.14C2046.5,-48.36 2046.5,-64.82 2046.5,-77.7"/>
<polygon fill="none" stroke="black" points="2043,-77.89 2046.5,-87.89 2050,-77.89 2043,-77.89"/>
</g>
<!-- http://ns.imfid.org/imf#AttributeGroupType -->
<g id="node14" class="node">
<title>http://ns.imfid.org/imf#AttributeGroupType</title>
<polygon fill="none" stroke="black" points="99,-190 0,-190 0,-154 99,-154 99,-190"/>
<text text-anchor="middle" x="49.5" y="-170.1" font-family="Arial" font-size="8.00">imf:AttributeGroupType</text>
</g>
<!-- http://ns.imfid.org/imf#AttributeGroupType&#45;&gt;http://ns.imfid.org/imf#Type -->
<g id="edge5" class="edge">
<title>http://ns.imfid.org/imf#AttributeGroupType&#45;&gt;http://ns.imfid.org/imf#Type</title>
<path fill="none" stroke="black" d="M74.89,-190.01C88.82,-199.33 106.27,-211.03 121.37,-221.14"/>
<polygon fill="none" stroke="black" points="119.69,-224.23 129.95,-226.89 123.59,-218.41 119.69,-224.23"/>
</g>
<!-- http://ns.imfid.org/imf#BlockType -->
<g id="node15" class="node">
<title>http://ns.imfid.org/imf#BlockType</title>
<polygon fill="none" stroke="black" points="701,-36 636,-36 636,0 701,0 701,-36"/>
<text text-anchor="middle" x="668.5" y="-16.1" font-family="Arial" font-size="8.00">imf:BlockType</text>
</g>
<!-- http://ns.imfid.org/imf#BlockType&#45;&gt;http://ns.imfid.org/imf#TerminalType -->
<g id="edge9" class="edge">
<title>http://ns.imfid.org/imf#BlockType&#45;&gt;http://ns.imfid.org/imf#TerminalType</title>
<path fill="none" stroke="black" d="M646.86,-36.2C639.96,-41.79 632.35,-48.08 625.5,-54 618.21,-60.3 610.46,-67.27 603.36,-73.78"/>
<polygon fill="black" stroke="black" points="600.94,-71.25 595.96,-80.61 605.69,-76.4 600.94,-71.25"/>
<text text-anchor="middle" x="662" y="-56.6" font-family="Arial" font-size="8.00">imf:hasTerminalType</text>
</g>
<!-- http://ns.imfid.org/imf#BlockType&#45;&gt;http://ns.imfid.org/imf#ElementType -->
<g id="edge13" class="edge">
<title>http://ns.imfid.org/imf#BlockType&#45;&gt;http://ns.imfid.org/imf#ElementType</title>
<path fill="none" stroke="black" d="M686.3,-36.26C690.89,-41.56 695.4,-47.68 698.5,-54 712.56,-82.71 718.39,-119.28 720.8,-143.82"/>
<polygon fill="none" stroke="black" points="717.32,-144.2 721.67,-153.87 724.3,-143.6 717.32,-144.2"/>
</g>
<!-- http://ns.imfid.org/imf#Attribute -->
<g id="node16" class="node">
<title>http://ns.imfid.org/imf#Attribute</title>
<polygon fill="none" stroke="black" points="2314,-36 2255,-36 2255,0 2314,0 2314,-36"/>
<text text-anchor="middle" x="2284.5" y="-16.1" font-family="Arial" font-size="8.00">imf:Attribute</text>
</g>
<!-- bc5e2353&#45;ca4d&#45;4d30&#45;83fd&#45;7b9b6c0866d5 -->
<g id="node20" class="node">
<title>bc5e2353&#45;ca4d&#45;4d30&#45;83fd&#45;7b9b6c0866d5</title>
<polygon fill="#e5e5e5" stroke="black" stroke-dasharray="5,2" points="2395.5,-110 2173.5,-110 2173.5,-88 2395.5,-88 2395.5,-110"/>
<text text-anchor="middle" x="2284.5" y="-97.1" font-family="Arial" font-size="8.00">bc5e2353&#45;ca4d&#45;4d30&#45;83fd&#45;7b9b6c0866d5,owl:Restriction</text>
</g>
<!-- http://ns.imfid.org/imf#Attribute&#45;&gt;bc5e2353&#45;ca4d&#45;4d30&#45;83fd&#45;7b9b6c0866d5 -->
<g id="edge18" class="edge">
<title>http://ns.imfid.org/imf#Attribute&#45;&gt;bc5e2353&#45;ca4d&#45;4d30&#45;83fd&#45;7b9b6c0866d5</title>
<path fill="none" stroke="black" d="M2284.5,-36.14C2284.5,-48.36 2284.5,-64.82 2284.5,-77.7"/>
<polygon fill="none" stroke="black" points="2281,-77.89 2284.5,-87.89 2288,-77.89 2281,-77.89"/>
</g>
<!-- http://ns.imfid.org/imf#Direction -->
<g id="node17" class="node">
<title>http://ns.imfid.org/imf#Direction</title>
<polygon fill="none" stroke="black" points="2393,-36 2332,-36 2332,0 2393,0 2393,-36"/>
<text text-anchor="middle" x="2362.5" y="-16.1" font-family="Arial" font-size="8.00">imf:Direction</text>
</g>
<!-- http://ns.imfid.org/imf#TypeConstraint -->
<g id="node23" class="node">
<title>http://ns.imfid.org/imf#TypeConstraint</title>
<polygon fill="none" stroke="black" points="1254,-36 1171,-36 1171,0 1254,0 1254,-36"/>
<text text-anchor="middle" x="1212.5" y="-16.1" font-family="Arial" font-size="8.00">imf:TypeConstraint</text>
</g>
<!-- http://ns.imfid.org/imf#TypeConstraint&#45;&gt;1ec1a7cc&#45;f995&#45;4738&#45;b530&#45;73c63a7570b5 -->
<g id="edge2" class="edge">
<title>http://ns.imfid.org/imf#TypeConstraint&#45;&gt;1ec1a7cc&#45;f995&#45;4738&#45;b530&#45;73c63a7570b5</title>
<path fill="none" stroke="black" d="M1186.68,-36.14C1166.05,-49.84 1137.37,-68.88 1117.29,-82.21"/>
<polygon fill="none" stroke="black" points="1115.13,-79.44 1108.73,-87.89 1119,-85.27 1115.13,-79.44"/>
</g>
<!-- http://ns.imfid.org/imf#TypeConstraint&#45;&gt;41ba3af2&#45;3185&#45;4f84&#45;bca9&#45;bf371f219a63 -->
<g id="edge14" class="edge">
<title>http://ns.imfid.org/imf#TypeConstraint&#45;&gt;41ba3af2&#45;3185&#45;4f84&#45;bca9&#45;bf371f219a63</title>
<path fill="none" stroke="black" d="M1238.1,-36.14C1258.56,-49.84 1287,-68.88 1306.91,-82.21"/>
<polygon fill="none" stroke="black" points="1305.14,-85.23 1315.39,-87.89 1309.03,-79.42 1305.14,-85.23"/>
</g>
<!-- http://www.w3.org/2002/07/owl#Thing -->
<g id="node24" class="node">
<title>http://www.w3.org/2002/07/owl#Thing</title>
<polygon fill="none" stroke="black" points="2465.5,-36 2411.5,-36 2411.5,0 2465.5,0 2465.5,-36"/>
<text text-anchor="middle" x="2438.5" y="-16.1" font-family="Arial" font-size="8.00">owl:Thing</text>
</g>
<!-- http://ns.imfid.org/imf#AttributeType -->
<g id="node26" class="node">
<title>http://ns.imfid.org/imf#AttributeType</title>
<polygon fill="none" stroke="black" points="194,-190 117,-190 117,-154 194,-154 194,-190"/>
<text text-anchor="middle" x="155.5" y="-170.1" font-family="Arial" font-size="8.00">imf:AttributeType</text>
</g>
<!-- http://ns.imfid.org/imf#AttributeType&#45;&gt;http://ns.imfid.org/imf#Type -->
<g id="edge15" class="edge">
<title>http://ns.imfid.org/imf#AttributeType&#45;&gt;http://ns.imfid.org/imf#Type</title>
<path fill="none" stroke="black" d="M155.5,-190.19C155.5,-198.21 155.5,-207.95 155.5,-216.93"/>
<polygon fill="none" stroke="black" points="152,-216.97 155.5,-226.97 159,-216.97 152,-216.97"/>
</g>
</g>
</svg>

