<?xml version="1.0" encoding="UTF-8" standalone="no"?>
<!DOCTYPE svg PUBLIC "-//W3C//DTD SVG 1.1//EN"
 "http://www.w3.org/Graphics/SVG/1.1/DTD/svg11.dtd">
<!-- Generated by graphviz version 2.43.0 (0)
 -->
<!-- Title: urn:temp#graph Pages: 1 -->
<svg width="1858px" height="271px"
 viewBox="0.00 0.00 1858.00 271.00" xmlns="http://www.w3.org/2000/svg" xmlns:xlink="http://www.w3.org/1999/xlink">
<g id="graph0" class="graph" transform="scale(1.0 1.0) rotate(0) translate(4 267)">
<title>urn:temp#graph</title>
<polygon fill="white" stroke="transparent" points="-4,4 -4,-267 1854,-267 1854,4 -4,4"/>
<!-- http://ns.imfid.org/imf#Element -->
<g id="node1" class="node">
<title>http://ns.imfid.org/imf#Element</title>
<polygon fill="none" stroke="black" points="300.5,-36 241.5,-36 241.5,0 300.5,0 300.5,-36"/>
<text text-anchor="middle" x="271" y="-16.1" font-family="Arial" font-size="8.00">imf:Element</text>
</g>
<!-- e5c9749c&#45;59ae&#45;4b5a&#45;bd14&#45;5c8dbb8425a2 -->
<g id="node13" class="node">
<title>e5c9749c&#45;59ae&#45;4b5a&#45;bd14&#45;5c8dbb8425a2</title>
<polygon fill="#e5e5e5" stroke="black" stroke-dasharray="5,2" points="357.5,-112 184.5,-112 184.5,-86 357.5,-86 357.5,-112"/>
<text text-anchor="middle" x="271" y="-101.6" font-family="Arial" font-size="8.00">owl:Restriction</text>
<text text-anchor="middle" x="271" y="-92.6" font-family="Arial" font-size="8.00">,e5c9749c&#45;59ae&#45;4b5a&#45;bd14&#45;5c8dbb8425a2</text>
</g>
<!-- http://ns.imfid.org/imf#Element&#45;&gt;e5c9749c&#45;59ae&#45;4b5a&#45;bd14&#45;5c8dbb8425a2 -->
<g id="edge1" class="edge">
<title>http://ns.imfid.org/imf#Element&#45;&gt;e5c9749c&#45;59ae&#45;4b5a&#45;bd14&#45;5c8dbb8425a2</title>
<path fill="none" stroke="black" d="M271,-36.14C271,-47.65 271,-62.94 271,-75.44"/>
<polygon fill="none" stroke="black" points="267.5,-75.54 271,-85.54 274.5,-75.54 267.5,-75.54"/>
</g>
<!-- http://ns.imfid.org/imf#Aspect -->
<g id="node2" class="node">
<title>http://ns.imfid.org/imf#Aspect</title>
<polygon fill="none" stroke="black" points="387,-36 333,-36 333,0 387,0 387,-36"/>
<text text-anchor="middle" x="360" y="-16.1" font-family="Arial" font-size="8.00">imf:Aspect</text>
</g>
<!-- f073a91c&#45;c489&#45;46a6&#45;8536&#45;26547de5f7aa -->
<g id="node3" class="node">
<title>f073a91c&#45;c489&#45;46a6&#45;8536&#45;26547de5f7aa</title>
<polygon fill="#e5e5e5" stroke="black" stroke-dasharray="5,2" points="544.5,-112 375.5,-112 375.5,-86 544.5,-86 544.5,-112"/>
<text text-anchor="middle" x="460" y="-101.6" font-family="Arial" font-size="8.00">owl:Restriction</text>
<text text-anchor="middle" x="460" y="-92.6" font-family="Arial" font-size="8.00">,f073a91c&#45;c489&#45;46a6&#45;8536&#45;26547de5f7aa</text>
</g>
<!-- 94fa0531&#45;f937&#45;49ee&#45;9914&#45;a1f1c1e3ba62 -->
<g id="node4" class="node">
<title>94fa0531&#45;f937&#45;49ee&#45;9914&#45;a1f1c1e3ba62</title>
<polygon fill="#e5e5e5" stroke="black" stroke-dasharray="5,2" points="355.5,-258 188.5,-258 188.5,-232 355.5,-232 355.5,-258"/>
<text text-anchor="middle" x="272" y="-247.6" font-family="Arial" font-size="8.00">owl:Restriction</text>
<text text-anchor="middle" x="272" y="-238.6" font-family="Arial" font-size="8.00">,94fa0531&#45;f937&#45;49ee&#45;9914&#45;a1f1c1e3ba62</text>
</g>
<!-- http://ns.imfid.org/imf#Terminal -->
<g id="node5" class="node">
<title>http://ns.imfid.org/imf#Terminal</title>
<polygon fill="none" stroke="black" points="951.5,-36 892.5,-36 892.5,0 951.5,0 951.5,-36"/>
<text text-anchor="middle" x="922" y="-16.1" font-family="Arial" font-size="8.00">imf:Terminal</text>
</g>
<!-- 939ebc9e&#45;f017&#45;4115&#45;9509&#45;a872c10b0afa -->
<g id="node23" class="node">
<title>939ebc9e&#45;f017&#45;4115&#45;9509&#45;a872c10b0afa</title>
<polygon fill="#e5e5e5" stroke="black" stroke-dasharray="5,2" points="1006,-112 838,-112 838,-86 1006,-86 1006,-112"/>
<text text-anchor="middle" x="922" y="-101.6" font-family="Arial" font-size="8.00">owl:Restriction</text>
<text text-anchor="middle" x="922" y="-92.6" font-family="Arial" font-size="8.00">,939ebc9e&#45;f017&#45;4115&#45;9509&#45;a872c10b0afa</text>
</g>
<!-- http://ns.imfid.org/imf#Terminal&#45;&gt;939ebc9e&#45;f017&#45;4115&#45;9509&#45;a872c10b0afa -->
<g id="edge12" class="edge">
<title>http://ns.imfid.org/imf#Terminal&#45;&gt;939ebc9e&#45;f017&#45;4115&#45;9509&#45;a872c10b0afa</title>
<path fill="none" stroke="black" d="M922,-36.14C922,-47.65 922,-62.94 922,-75.44"/>
<polygon fill="none" stroke="black" points="918.5,-75.54 922,-85.54 925.5,-75.54 918.5,-75.54"/>
</g>
<!-- aba81fe1&#45;41b2&#45;4fae&#45;95a9&#45;cc8353b369e7 -->
<g id="node6" class="node">
<title>aba81fe1&#45;41b2&#45;4fae&#45;95a9&#45;cc8353b369e7</title>
<polygon fill="#e5e5e5" stroke="black" stroke-dasharray="5,2" points="1192.5,-112 1023.5,-112 1023.5,-86 1192.5,-86 1192.5,-112"/>
<text text-anchor="middle" x="1108" y="-101.6" font-family="Arial" font-size="8.00">owl:Restriction</text>
<text text-anchor="middle" x="1108" y="-92.6" font-family="Arial" font-size="8.00">,aba81fe1&#45;41b2&#45;4fae&#45;95a9&#45;cc8353b369e7</text>
</g>
<!-- f4247451&#45;b68d&#45;4dd9&#45;b500&#45;1ab6d3d96fa1 -->
<g id="node7" class="node">
<title>f4247451&#45;b68d&#45;4dd9&#45;b500&#45;1ab6d3d96fa1</title>
<polygon fill="#e5e5e5" stroke="black" stroke-dasharray="5,2" points="1069,-185 899,-185 899,-159 1069,-159 1069,-185"/>
<text text-anchor="middle" x="984" y="-174.6" font-family="Arial" font-size="8.00">owl:Restriction</text>
<text text-anchor="middle" x="984" y="-165.6" font-family="Arial" font-size="8.00">,f4247451&#45;b68d&#45;4dd9&#45;b500&#45;1ab6d3d96fa1</text>
</g>
<!-- http://ns.imfid.org/imf#TerminalType -->
<g id="node8" class="node">
<title>http://ns.imfid.org/imf#TerminalType</title>
<polygon fill="none" stroke="black" points="819.5,-117 742.5,-117 742.5,-81 819.5,-81 819.5,-117"/>
<text text-anchor="middle" x="781" y="-97.1" font-family="Arial" font-size="8.00">imf:TerminalType</text>
</g>
<!-- http://ns.imfid.org/imf#TerminalType&#45;&gt;f4247451&#45;b68d&#45;4dd9&#45;b500&#45;1ab6d3d96fa1 -->
<g id="edge6" class="edge">
<title>http://ns.imfid.org/imf#TerminalType&#45;&gt;f4247451&#45;b68d&#45;4dd9&#45;b500&#45;1ab6d3d96fa1</title>
<path fill="none" stroke="black" d="M819.51,-113.66C822.72,-114.79 825.91,-115.92 829,-117 866.24,-130.08 908.56,-144.81 939.55,-155.58"/>
<polygon fill="none" stroke="black" points="938.61,-158.96 949.2,-158.93 940.9,-152.35 938.61,-158.96"/>
</g>
<!-- http://ns.imfid.org/imf#ElementType -->
<g id="node9" class="node">
<title>http://ns.imfid.org/imf#ElementType</title>
<polygon fill="none" stroke="black" points="483,-190 407,-190 407,-154 483,-154 483,-190"/>
<text text-anchor="middle" x="445" y="-170.1" font-family="Arial" font-size="8.00">imf:ElementType</text>
</g>
<!-- http://ns.imfid.org/imf#TerminalType&#45;&gt;http://ns.imfid.org/imf#ElementType -->
<g id="edge8" class="edge">
<title>http://ns.imfid.org/imf#TerminalType&#45;&gt;http://ns.imfid.org/imf#ElementType</title>
<path fill="none" stroke="black" d="M742.4,-107.13C673.39,-119.88 532.9,-145.9 492.85,-154.4"/>
<polygon fill="none" stroke="black" points="492.01,-151 483.05,-156.65 493.58,-157.82 492.01,-151"/>
</g>
<!-- e735c77c&#45;54aa&#45;4c7c&#45;8fc0&#45;fd70e321a362 -->
<g id="node16" class="node">
<title>e735c77c&#45;54aa&#45;4c7c&#45;8fc0&#45;fd70e321a362</title>
<polygon fill="#e5e5e5" stroke="black" stroke-dasharray="5,2" points="880.5,-185 713.5,-185 713.5,-159 880.5,-159 880.5,-185"/>
<text text-anchor="middle" x="797" y="-174.6" font-family="Arial" font-size="8.00">owl:Restriction</text>
<text text-anchor="middle" x="797" y="-165.6" font-family="Arial" font-size="8.00">,e735c77c&#45;54aa&#45;4c7c&#45;8fc0&#45;fd70e321a362</text>
</g>
<!-- http://ns.imfid.org/imf#TerminalType&#45;&gt;e735c77c&#45;54aa&#45;4c7c&#45;8fc0&#45;fd70e321a362 -->
<g id="edge7" class="edge">
<title>http://ns.imfid.org/imf#TerminalType&#45;&gt;e735c77c&#45;54aa&#45;4c7c&#45;8fc0&#45;fd70e321a362</title>
<path fill="none" stroke="black" d="M784.87,-117.19C787.01,-126.69 789.7,-138.61 792,-148.81"/>
<polygon fill="none" stroke="black" points="788.6,-149.66 794.22,-158.64 795.43,-148.12 788.6,-149.66"/>
</g>
<!-- http://ns.imfid.org/imf#ElementType&#45;&gt;94fa0531&#45;f937&#45;49ee&#45;9914&#45;a1f1c1e3ba62 -->
<g id="edge9" class="edge">
<title>http://ns.imfid.org/imf#ElementType&#45;&gt;94fa0531&#45;f937&#45;49ee&#45;9914&#45;a1f1c1e3ba62</title>
<path fill="none" stroke="black" d="M406.61,-188.76C378.08,-200.47 339.31,-216.38 310.7,-228.12"/>
<polygon fill="none" stroke="black" points="309.35,-224.89 301.42,-231.92 312,-231.37 309.35,-224.89"/>
</g>
<!-- 2d2f71ac&#45;1e5b&#45;4bfa&#45;b8e0&#45;833086b3b23d -->
<g id="node12" class="node">
<title>2d2f71ac&#45;1e5b&#45;4bfa&#45;b8e0&#45;833086b3b23d</title>
<polygon fill="#e5e5e5" stroke="black" stroke-dasharray="5,2" points="544,-258 374,-258 374,-232 544,-232 544,-258"/>
<text text-anchor="middle" x="459" y="-247.6" font-family="Arial" font-size="8.00">owl:Restriction</text>
<text text-anchor="middle" x="459" y="-238.6" font-family="Arial" font-size="8.00">,2d2f71ac&#45;1e5b&#45;4bfa&#45;b8e0&#45;833086b3b23d</text>
</g>
<!-- http://ns.imfid.org/imf#ElementType&#45;&gt;2d2f71ac&#45;1e5b&#45;4bfa&#45;b8e0&#45;833086b3b23d -->
<g id="edge11" class="edge">
<title>http://ns.imfid.org/imf#ElementType&#45;&gt;2d2f71ac&#45;1e5b&#45;4bfa&#45;b8e0&#45;833086b3b23d</title>
<path fill="none" stroke="black" d="M448.39,-190.19C450.26,-199.69 452.61,-211.61 454.62,-221.81"/>
<polygon fill="none" stroke="black" points="451.19,-222.51 456.56,-231.64 458.06,-221.15 451.19,-222.51"/>
</g>
<!-- 16cd5205&#45;1ac8&#45;489c&#45;b321&#45;98b8e479f00a -->
<g id="node20" class="node">
<title>16cd5205&#45;1ac8&#45;489c&#45;b321&#45;98b8e479f00a</title>
<polygon fill="#e5e5e5" stroke="black" stroke-dasharray="5,2" points="170,-258 0,-258 0,-232 170,-232 170,-258"/>
<text text-anchor="middle" x="85" y="-247.6" font-family="Arial" font-size="8.00">owl:Restriction</text>
<text text-anchor="middle" x="85" y="-238.6" font-family="Arial" font-size="8.00">,16cd5205&#45;1ac8&#45;489c&#45;b321&#45;98b8e479f00a</text>
</g>
<!-- http://ns.imfid.org/imf#ElementType&#45;&gt;16cd5205&#45;1ac8&#45;489c&#45;b321&#45;98b8e479f00a -->
<g id="edge15" class="edge">
<title>http://ns.imfid.org/imf#ElementType&#45;&gt;16cd5205&#45;1ac8&#45;489c&#45;b321&#45;98b8e479f00a</title>
<path fill="none" stroke="black" d="M406.81,-180.53C347.24,-192.28 231.22,-215.16 155.98,-230"/>
<polygon fill="none" stroke="black" points="155.23,-226.58 146.1,-231.95 156.59,-233.45 155.23,-226.58"/>
</g>
<!-- http://ns.imfid.org/imf#Type -->
<g id="node21" class="node">
<title>http://ns.imfid.org/imf#Type</title>
<polygon fill="none" stroke="black" points="616,-263 562,-263 562,-227 616,-227 616,-263"/>
<text text-anchor="middle" x="589" y="-243.1" font-family="Arial" font-size="8.00">imf:Type</text>
</g>
<!-- http://ns.imfid.org/imf#ElementType&#45;&gt;http://ns.imfid.org/imf#Type -->
<g id="edge18" class="edge">
<title>http://ns.imfid.org/imf#ElementType&#45;&gt;http://ns.imfid.org/imf#Type</title>
<path fill="none" stroke="black" d="M479.49,-190.01C501.62,-200.92 530.32,-215.07 552.78,-226.14"/>
<polygon fill="none" stroke="black" points="551.47,-229.4 561.99,-230.68 554.57,-223.12 551.47,-229.4"/>
</g>
<!-- http://ns.imfid.org/imf#AttributeGroup -->
<g id="node10" class="node">
<title>http://ns.imfid.org/imf#AttributeGroup</title>
<polygon fill="none" stroke="black" points="501,-36 419,-36 419,0 501,0 501,-36"/>
<text text-anchor="middle" x="460" y="-16.1" font-family="Arial" font-size="8.00">imf:AttributeGroup</text>
</g>
<!-- http://ns.imfid.org/imf#AttributeGroup&#45;&gt;f073a91c&#45;c489&#45;46a6&#45;8536&#45;26547de5f7aa -->
<g id="edge2" class="edge">
<title>http://ns.imfid.org/imf#AttributeGroup&#45;&gt;f073a91c&#45;c489&#45;46a6&#45;8536&#45;26547de5f7aa</title>
<path fill="none" stroke="black" d="M460,-36.14C460,-47.65 460,-62.94 460,-75.44"/>
<polygon fill="none" stroke="black" points="456.5,-75.54 460,-85.54 463.5,-75.54 456.5,-75.54"/>
</g>
<!-- 42824bf5&#45;fd3a&#45;4efc&#45;86d4&#45;0535ba1f90c8 -->
<g id="node11" class="node">
<title>42824bf5&#45;fd3a&#45;4efc&#45;86d4&#45;0535ba1f90c8</title>
<polygon fill="#e5e5e5" stroke="black" stroke-dasharray="5,2" points="1375,-112 1211,-112 1211,-86 1375,-86 1375,-112"/>
<text text-anchor="middle" x="1293" y="-101.6" font-family="Arial" font-size="8.00">owl:Restriction</text>
<text text-anchor="middle" x="1293" y="-92.6" font-family="Arial" font-size="8.00">,42824bf5&#45;fd3a&#45;4efc&#45;86d4&#45;0535ba1f90c8</text>
</g>
<!-- http://ns.imfid.org/imf#Block -->
<g id="node14" class="node">
<title>http://ns.imfid.org/imf#Block</title>
<polygon fill="none" stroke="black" points="1135,-36 1081,-36 1081,0 1135,0 1135,-36"/>
<text text-anchor="middle" x="1108" y="-16.1" font-family="Arial" font-size="8.00">imf:Block</text>
</g>
<!-- http://ns.imfid.org/imf#Block&#45;&gt;aba81fe1&#45;41b2&#45;4fae&#45;95a9&#45;cc8353b369e7 -->
<g id="edge14" class="edge">
<title>http://ns.imfid.org/imf#Block&#45;&gt;aba81fe1&#45;41b2&#45;4fae&#45;95a9&#45;cc8353b369e7</title>
<path fill="none" stroke="black" d="M1108,-36.14C1108,-47.65 1108,-62.94 1108,-75.44"/>
<polygon fill="none" stroke="black" points="1104.5,-75.54 1108,-85.54 1111.5,-75.54 1104.5,-75.54"/>
</g>
<!-- http://ns.imfid.org/imf#AttributeGroupType -->
<g id="node15" class="node">
<title>http://ns.imfid.org/imf#AttributeGroupType</title>
<polygon fill="none" stroke="black" points="600.5,-190 501.5,-190 501.5,-154 600.5,-154 600.5,-190"/>
<text text-anchor="middle" x="551" y="-170.1" font-family="Arial" font-size="8.00">imf:AttributeGroupType</text>
</g>
<!-- http://ns.imfid.org/imf#AttributeGroupType&#45;&gt;http://ns.imfid.org/imf#Type -->
<g id="edge3" class="edge">
<title>http://ns.imfid.org/imf#AttributeGroupType&#45;&gt;http://ns.imfid.org/imf#Type</title>
<path fill="none" stroke="black" d="M560.2,-190.19C564.68,-198.56 570.16,-208.8 575.14,-218.1"/>
<polygon fill="none" stroke="black" points="572.08,-219.81 579.89,-226.97 578.25,-216.5 572.08,-219.81"/>
</g>
<!-- http://ns.imfid.org/imf#BlockType -->
<g id="node17" class="node">
<title>http://ns.imfid.org/imf#BlockType</title>
<polygon fill="none" stroke="black" points="700.5,-36 635.5,-36 635.5,0 700.5,0 700.5,-36"/>
<text text-anchor="middle" x="668" y="-16.1" font-family="Arial" font-size="8.00">imf:BlockType</text>
</g>
<!-- http://ns.imfid.org/imf#BlockType&#45;&gt;http://ns.imfid.org/imf#TerminalType -->
<g id="edge13" class="edge">
<title>http://ns.imfid.org/imf#BlockType&#45;&gt;http://ns.imfid.org/imf#TerminalType</title>
<path fill="none" stroke="black" d="M692.52,-36.14C708.81,-47.53 730.38,-62.61 748.15,-75.04"/>
<polygon fill="black" stroke="black" points="746.33,-78.03 756.53,-80.89 750.34,-72.29 746.33,-78.03"/>
<text text-anchor="middle" x="764.5" y="-56.6" font-family="Arial" font-size="8.00">imf:hasTerminalType</text>
</g>
<!-- http://ns.imfid.org/imf#BlockType&#45;&gt;http://ns.imfid.org/imf#ElementType -->
<g id="edge16" class="edge">
<title>http://ns.imfid.org/imf#BlockType&#45;&gt;http://ns.imfid.org/imf#ElementType</title>
<path fill="none" stroke="black" d="M650.76,-36.05C629.15,-56.83 590.4,-92.24 553,-117 534.07,-129.53 511.83,-141.12 492.47,-150.32"/>
<polygon fill="none" stroke="black" points="490.8,-147.24 483.23,-154.65 493.77,-153.58 490.8,-147.24"/>
</g>
<!-- http://ns.imfid.org/imf#Attribute -->
<g id="node18" class="node">
<title>http://ns.imfid.org/imf#Attribute</title>
<polygon fill="none" stroke="black" points="1698.5,-36 1639.5,-36 1639.5,0 1698.5,0 1698.5,-36"/>
<text text-anchor="middle" x="1669" y="-16.1" font-family="Arial" font-size="8.00">imf:Attribute</text>
</g>
<!-- b254a1df&#45;9da7&#45;470f&#45;8e4d&#45;eb3f48879159 -->
<g id="node27" class="node">
<title>b254a1df&#45;9da7&#45;470f&#45;8e4d&#45;eb3f48879159</title>
<polygon fill="#e5e5e5" stroke="black" stroke-dasharray="5,2" points="1753,-112 1585,-112 1585,-86 1753,-86 1753,-112"/>
<text text-anchor="middle" x="1669" y="-101.6" font-family="Arial" font-size="8.00">owl:Restriction</text>
<text text-anchor="middle" x="1669" y="-92.6" font-family="Arial" font-size="8.00">,b254a1df&#45;9da7&#45;470f&#45;8e4d&#45;eb3f48879159</text>
</g>
<!-- http://ns.imfid.org/imf#Attribute&#45;&gt;b254a1df&#45;9da7&#45;470f&#45;8e4d&#45;eb3f48879159 -->
<g id="edge10" class="edge">
<title>http://ns.imfid.org/imf#Attribute&#45;&gt;b254a1df&#45;9da7&#45;470f&#45;8e4d&#45;eb3f48879159</title>
<path fill="none" stroke="black" d="M1669,-36.14C1669,-47.65 1669,-62.94 1669,-75.44"/>
<polygon fill="none" stroke="black" points="1665.5,-75.54 1669,-85.54 1672.5,-75.54 1665.5,-75.54"/>
</g>
<!-- http://ns.imfid.org/imf#Direction -->
<g id="node19" class="node">
<title>http://ns.imfid.org/imf#Direction</title>
<polygon fill="none" stroke="black" points="1777.5,-36 1716.5,-36 1716.5,0 1777.5,0 1777.5,-36"/>
<text text-anchor="middle" x="1747" y="-16.1" font-family="Arial" font-size="8.00">imf:Direction</text>
</g>
<!-- http://ns.imfid.org/imf#TypeConstraint -->
<g id="node22" class="node">
<title>http://ns.imfid.org/imf#TypeConstraint</title>
<polygon fill="none" stroke="black" points="1427.5,-36 1344.5,-36 1344.5,0 1427.5,0 1427.5,-36"/>
<text text-anchor="middle" x="1386" y="-16.1" font-family="Arial" font-size="8.00">imf:TypeConstraint</text>
</g>
<!-- http://ns.imfid.org/imf#TypeConstraint&#45;&gt;42824bf5&#45;fd3a&#45;4efc&#45;86d4&#45;0535ba1f90c8 -->
<g id="edge5" class="edge">
<title>http://ns.imfid.org/imf#TypeConstraint&#45;&gt;42824bf5&#45;fd3a&#45;4efc&#45;86d4&#45;0535ba1f90c8</title>
<path fill="none" stroke="black" d="M1365.82,-36.14C1350.95,-48.78 1330.71,-65.96 1315.35,-79.01"/>
<polygon fill="none" stroke="black" points="1312.74,-76.64 1307.38,-85.78 1317.27,-81.98 1312.74,-76.64"/>
</g>
<!-- baa0ad28&#45;417e&#45;4dcc&#45;baba&#45;bb01838ee6a3 -->
<g id="node25" class="node">
<title>baa0ad28&#45;417e&#45;4dcc&#45;baba&#45;bb01838ee6a3</title>
<polygon fill="#e5e5e5" stroke="black" stroke-dasharray="5,2" points="1566.5,-112 1393.5,-112 1393.5,-86 1566.5,-86 1566.5,-112"/>
<text text-anchor="middle" x="1480" y="-101.6" font-family="Arial" font-size="8.00">owl:Restriction</text>
<text text-anchor="middle" x="1480" y="-92.6" font-family="Arial" font-size="8.00">,baa0ad28&#45;417e&#45;4dcc&#45;baba&#45;bb01838ee6a3</text>
</g>
<!-- http://ns.imfid.org/imf#TypeConstraint&#45;&gt;baa0ad28&#45;417e&#45;4dcc&#45;baba&#45;bb01838ee6a3 -->
<g id="edge4" class="edge">
<title>http://ns.imfid.org/imf#TypeConstraint&#45;&gt;baa0ad28&#45;417e&#45;4dcc&#45;baba&#45;bb01838ee6a3</title>
<path fill="none" stroke="black" d="M1406.4,-36.14C1421.43,-48.78 1441.88,-65.96 1457.41,-79.01"/>
<polygon fill="none" stroke="black" points="1455.56,-82.03 1465.47,-85.78 1460.06,-76.67 1455.56,-82.03"/>
</g>
<!-- http://www.w3.org/2002/07/owl#Thing -->
<g id="node24" class="node">
<title>http://www.w3.org/2002/07/owl#Thing</title>
<polygon fill="none" stroke="black" points="1850,-36 1796,-36 1796,0 1850,0 1850,-36"/>
<text text-anchor="middle" x="1823" y="-16.1" font-family="Arial" font-size="8.00">owl:Thing</text>
</g>
<!-- http://ns.imfid.org/imf#AttributeType -->
<g id="node26" class="node">
<title>http://ns.imfid.org/imf#AttributeType</title>
<polygon fill="none" stroke="black" points="695.5,-190 618.5,-190 618.5,-154 695.5,-154 695.5,-190"/>
<text text-anchor="middle" x="657" y="-170.1" font-family="Arial" font-size="8.00">imf:AttributeType</text>
</g>
<!-- http://ns.imfid.org/imf#AttributeType&#45;&gt;http://ns.imfid.org/imf#Type -->
<g id="edge17" class="edge">
<title>http://ns.imfid.org/imf#AttributeType&#45;&gt;http://ns.imfid.org/imf#Type</title>
<path fill="none" stroke="black" d="M640.54,-190.19C632.1,-199 621.68,-209.87 612.42,-219.54"/>
<polygon fill="none" stroke="black" points="609.7,-217.33 605.31,-226.97 614.75,-222.17 609.7,-217.33"/>
</g>
</g>
</svg>

