<?xml version="1.0" encoding="UTF-8" standalone="no"?>
<!DOCTYPE svg PUBLIC "-//W3C//DTD SVG 1.1//EN"
 "http://www.w3.org/Graphics/SVG/1.1/DTD/svg11.dtd">
<!-- Generated by graphviz version 2.43.0 (0)
 -->
<!-- Title: urn:temp#graph Pages: 1 -->
<svg width="566px" height="206px"
 viewBox="0.00 0.00 565.50 206.00" xmlns="http://www.w3.org/2000/svg" xmlns:xlink="http://www.w3.org/1999/xlink">
<g id="graph0" class="graph" transform="scale(1.0 1.0) rotate(0) translate(4 202)">
<title>urn:temp#graph</title>
<polygon fill="white" stroke="transparent" points="-4,4 -4,-202 561.5,-202 561.5,4 -4,4"/>
<!-- http://ns.imfid.org/imf#SystemElement -->
<g id="node1" class="node">
<title>http://ns.imfid.org/imf#SystemElement</title>
<polygon fill="none" stroke="black" points="328,-36 243,-36 243,0 328,0 328,-36"/>
<text text-anchor="middle" x="285.5" y="-16.1" font-family="Arial" font-size="8.00">imf:SystemElement</text>
</g>
<!-- http://ns.imfid.org/imf#AspectElement -->
<g id="node3" class="node">
<title>http://ns.imfid.org/imf#AspectElement</title>
<polygon fill="none" stroke="black" points="83,-117 0,-117 0,-81 83,-81 83,-117"/>
<text text-anchor="middle" x="41.5" y="-97.1" font-family="Arial" font-size="8.00">imf:AspectElement</text>
</g>
<!-- http://ns.imfid.org/imf#SystemElement&#45;&gt;http://ns.imfid.org/imf#AspectElement -->
<g id="edge4" class="edge">
<title>http://ns.imfid.org/imf#SystemElement&#45;&gt;http://ns.imfid.org/imf#AspectElement</title>
<path fill="none" stroke="black" d="M243,-32.76C201.24,-46.28 137.46,-66.93 92.88,-81.37"/>
<polygon fill="none" stroke="black" points="91.54,-78.12 83.11,-84.53 93.7,-84.78 91.54,-78.12"/>
</g>
<!-- http://ns.imfid.org/imf#System -->
<g id="node4" class="node">
<title>http://ns.imfid.org/imf#System</title>
<polygon fill="none" stroke="black" points="557.5,-117 501.5,-117 501.5,-81 557.5,-81 557.5,-117"/>
<text text-anchor="middle" x="529.5" y="-97.1" font-family="Arial" font-size="8.00">imf:System</text>
</g>
<!-- http://ns.imfid.org/imf#SystemElement&#45;&gt;http://ns.imfid.org/imf#System -->
<g id="edge2" class="edge">
<title>http://ns.imfid.org/imf#SystemElement&#45;&gt;http://ns.imfid.org/imf#System</title>
<path fill="none" stroke="black" d="M328.24,-30.14C370.28,-41.5 436.02,-60.34 491.5,-81 491.7,-81.08 491.91,-81.15 492.11,-81.23"/>
<polygon fill="black" stroke="black" points="490.86,-84.5 501.45,-84.97 493.46,-78 490.86,-84.5"/>
<text text-anchor="middle" x="462.5" y="-56.6" font-family="Arial" font-size="8.00">imf:memberOf</text>
</g>
<!-- http://ns.imfid.org/imf#Aspect -->
<g id="node2" class="node">
<title>http://ns.imfid.org/imf#Aspect</title>
<polygon fill="none" stroke="black" points="68.5,-198 14.5,-198 14.5,-162 68.5,-162 68.5,-198"/>
<text text-anchor="middle" x="41.5" y="-178.1" font-family="Arial" font-size="8.00">imf:Aspect</text>
</g>
<!-- http://ns.imfid.org/imf#AspectElement&#45;&gt;http://ns.imfid.org/imf#Aspect -->
<g id="edge6" class="edge">
<title>http://ns.imfid.org/imf#AspectElement&#45;&gt;http://ns.imfid.org/imf#Aspect</title>
<path fill="none" stroke="black" d="M41.5,-117.14C41.5,-127.29 41.5,-140.37 41.5,-151.88"/>
<polygon fill="black" stroke="black" points="38,-151.89 41.5,-161.89 45,-151.89 38,-151.89"/>
<text text-anchor="middle" x="66.5" y="-137.6" font-family="Arial" font-size="8.00">imf:hasAspect</text>
</g>
<!-- http://ns.imfid.org/imf#AspectElement&#45;&gt;http://ns.imfid.org/imf#AspectElement -->
<g id="edge1" class="edge">
<title>http://ns.imfid.org/imf#AspectElement&#45;&gt;http://ns.imfid.org/imf#AspectElement</title>
<path fill="none" stroke="black" d="M83.21,-97.15C93.41,-97.29 101,-97.91 101,-99 101,-99.68 98.03,-100.18 93.32,-100.49"/>
<polygon fill="black" stroke="black" points="93.08,-97 83.21,-100.85 93.32,-103.99 93.08,-97"/>
<text text-anchor="middle" x="142" y="-97.1" font-family="Arial" font-size="8.00">imf:interAspectRelation</text>
</g>
<!-- http://ns.imfid.org/imf#AspectElement&#45;&gt;http://ns.imfid.org/imf#AspectElement -->
<g id="edge3" class="edge">
<title>http://ns.imfid.org/imf#AspectElement&#45;&gt;http://ns.imfid.org/imf#AspectElement</title>
<path fill="none" stroke="black" d="M83.24,-95.86C126.13,-94.45 183,-95.49 183,-99 183,-102.24 134.47,-103.38 93.25,-102.42"/>
<polygon fill="black" stroke="black" points="93.34,-98.92 83.24,-102.14 93.14,-105.92 93.34,-98.92"/>
<text text-anchor="middle" x="224" y="-97.1" font-family="Arial" font-size="8.00">imf:intraAspectRelation</text>
</g>
<!-- http://ns.imfid.org/imf#AspectElement&#45;&gt;http://ns.imfid.org/imf#AspectElement -->
<g id="edge5" class="edge">
<title>http://ns.imfid.org/imf#AspectElement&#45;&gt;http://ns.imfid.org/imf#AspectElement</title>
<path fill="none" stroke="black" d="M83.16,-95.08C149.76,-91.88 265,-93.18 265,-99 265,-104.53 160.74,-105.98 93.24,-103.36"/>
<polygon fill="black" stroke="black" points="93.3,-99.85 83.16,-102.92 93,-106.85 93.3,-99.85"/>
<text text-anchor="middle" x="306.5" y="-97.1" font-family="Arial" font-size="8.00">imf:hierarchicalRelation</text>
</g>
<!-- http://ns.imfid.org/imf#AspectElement&#45;&gt;http://ns.imfid.org/imf#AspectElement -->
<g id="edge7" class="edge">
<title>http://ns.imfid.org/imf#AspectElement&#45;&gt;http://ns.imfid.org/imf#AspectElement</title>
<path fill="none" stroke="black" d="M83.21,-94.47C169.78,-89.34 348,-90.86 348,-99 348,-106.84 182.77,-108.53 93.21,-104.08"/>
<polygon fill="black" stroke="black" points="93.38,-100.58 83.21,-103.53 93.01,-107.57 93.38,-100.58"/>
<text text-anchor="middle" x="388.5" y="-97.1" font-family="Arial" font-size="8.00">imf:associativeRelation</text>
</g>
</g>
</svg>

