<?xml version="1.0" encoding="UTF-8" standalone="no"?>
<!DOCTYPE svg PUBLIC "-//W3C//DTD SVG 1.1//EN"
 "http://www.w3.org/Graphics/SVG/1.1/DTD/svg11.dtd">
<!-- Generated by graphviz version 2.43.0 (0)
 -->
<!-- Title: urn:temp#graph Pages: 1 -->
<svg width="375px" height="206px"
 viewBox="0.00 0.00 374.50 206.00" xmlns="http://www.w3.org/2000/svg" xmlns:xlink="http://www.w3.org/1999/xlink">
<g id="graph0" class="graph" transform="scale(1.0 1.0) rotate(0) translate(4 202)">
<title>urn:temp#graph</title>
<polygon fill="white" stroke="transparent" points="-4,4 -4,-202 370.5,-202 370.5,4 -4,4"/>
<!-- http://ns.imfid.org/imf#BreakdownPoint -->
<g id="node1" class="node">
<title>http://ns.imfid.org/imf#BreakdownPoint</title>
<polygon fill="none" stroke="black" points="143.5,-117 55.5,-117 55.5,-81 143.5,-81 143.5,-117"/>
<text text-anchor="middle" x="99.5" y="-97.1" font-family="Arial" font-size="8.00">imf:BreakdownPoint</text>
</g>
<!-- http://ns.imfid.org/imf#Element -->
<g id="node5" class="node">
<title>http://ns.imfid.org/imf#Element</title>
<polygon fill="none" stroke="black" points="207,-198 148,-198 148,-162 207,-162 207,-198"/>
<text text-anchor="middle" x="177.5" y="-178.1" font-family="Arial" font-size="8.00">imf:Element</text>
</g>
<!-- http://ns.imfid.org/imf#BreakdownPoint&#45;&gt;http://ns.imfid.org/imf#Element -->
<g id="edge2" class="edge">
<title>http://ns.imfid.org/imf#BreakdownPoint&#45;&gt;http://ns.imfid.org/imf#Element</title>
<path fill="none" stroke="black" d="M86.63,-117.32C81.94,-125.87 78.99,-136.04 84.5,-144 96.54,-161.39 118.38,-170.16 137.88,-174.56"/>
<polygon fill="black" stroke="black" points="137.31,-178.02 147.79,-176.49 138.64,-171.15 137.31,-178.02"/>
<text text-anchor="middle" x="104.5" y="-137.6" font-family="Arial" font-size="8.00">imf:thePart</text>
</g>
<!-- http://ns.imfid.org/imf#BreakdownPoint&#45;&gt;http://ns.imfid.org/imf#Element -->
<g id="edge9" class="edge">
<title>http://ns.imfid.org/imf#BreakdownPoint&#45;&gt;http://ns.imfid.org/imf#Element</title>
<path fill="none" stroke="black" d="M116.42,-117.14C127.26,-128.12 141.48,-142.52 153.48,-154.67"/>
<polygon fill="black" stroke="black" points="151.09,-157.23 160.61,-161.89 156.07,-152.32 151.09,-157.23"/>
<text text-anchor="middle" x="165" y="-137.6" font-family="Arial" font-size="8.00">imf:theWhole</text>
</g>
<!-- http://ns.imfid.org/imf#ConnectionPoint -->
<g id="node2" class="node">
<title>http://ns.imfid.org/imf#ConnectionPoint</title>
<polygon fill="none" stroke="black" points="183.5,-36 95.5,-36 95.5,0 183.5,0 183.5,-36"/>
<text text-anchor="middle" x="139.5" y="-16.1" font-family="Arial" font-size="8.00">imf:ConnectionPoint</text>
</g>
<!-- http://ns.imfid.org/imf#Terminal -->
<g id="node4" class="node">
<title>http://ns.imfid.org/imf#Terminal</title>
<polygon fill="none" stroke="black" points="229,-117 170,-117 170,-81 229,-81 229,-117"/>
<text text-anchor="middle" x="199.5" y="-97.1" font-family="Arial" font-size="8.00">imf:Terminal</text>
</g>
<!-- http://ns.imfid.org/imf#ConnectionPoint&#45;&gt;http://ns.imfid.org/imf#Terminal -->
<g id="edge7" class="edge">
<title>http://ns.imfid.org/imf#ConnectionPoint&#45;&gt;http://ns.imfid.org/imf#Terminal</title>
<path fill="none" stroke="black" d="M152.52,-36.14C160.62,-46.8 171.18,-60.71 180.23,-72.63"/>
<polygon fill="black" stroke="black" points="177.67,-75.04 186.51,-80.89 183.25,-70.81 177.67,-75.04"/>
<text text-anchor="middle" x="193" y="-56.6" font-family="Arial" font-size="8.00">imf:theInput</text>
</g>
<!-- http://ns.imfid.org/imf#ConnectionPoint&#45;&gt;http://ns.imfid.org/imf#Terminal -->
<g id="edge11" class="edge">
<title>http://ns.imfid.org/imf#ConnectionPoint&#45;&gt;http://ns.imfid.org/imf#Terminal</title>
<path fill="none" stroke="black" d="M121.13,-36.13C114.46,-44.44 109.8,-54.46 115.5,-63 118.34,-67.26 139.8,-76.16 160.31,-83.92"/>
<polygon fill="black" stroke="black" points="159.32,-87.29 169.91,-87.5 161.76,-80.73 159.32,-87.29"/>
<text text-anchor="middle" x="140" y="-56.6" font-family="Arial" font-size="8.00">imf:theOutput</text>
</g>
<!-- http://ns.imfid.org/imf#InputTerminal -->
<g id="node3" class="node">
<title>http://ns.imfid.org/imf#InputTerminal</title>
<polygon fill="none" stroke="black" points="77,-36 0,-36 0,0 77,0 77,-36"/>
<text text-anchor="middle" x="38.5" y="-16.1" font-family="Arial" font-size="8.00">imf:InputTerminal</text>
</g>
<!-- http://ns.imfid.org/imf#InputTerminal&#45;&gt;http://ns.imfid.org/imf#Terminal -->
<g id="edge1" class="edge">
<title>http://ns.imfid.org/imf#InputTerminal&#45;&gt;http://ns.imfid.org/imf#Terminal</title>
<path fill="none" stroke="black" d="M63.48,-36.05C76.8,-44.74 93.67,-55.1 109.5,-63 118.91,-67.7 140.72,-76.2 160.51,-83.64"/>
<polygon fill="none" stroke="black" points="159.4,-86.97 170,-87.19 161.86,-80.41 159.4,-86.97"/>
</g>
<!-- http://ns.imfid.org/imf#Terminal&#45;&gt;http://ns.imfid.org/imf#Terminal -->
<g id="edge10" class="edge">
<title>http://ns.imfid.org/imf#Terminal&#45;&gt;http://ns.imfid.org/imf#Terminal</title>
<path fill="none" stroke="black" d="M229.19,-91.5C239.08,-91.5 247,-94 247,-99 247,-102.12 243.91,-104.27 239.17,-105.45"/>
<polygon fill="black" stroke="black" points="238.76,-101.97 229.19,-106.5 239.5,-108.93 238.76,-101.97"/>
<text text-anchor="middle" x="276" y="-97.1" font-family="Arial" font-size="8.00">imf:connectedTo</text>
</g>
<!-- http://ns.imfid.org/imf#Terminal&#45;&gt;http://ns.imfid.org/imf#Element -->
<g id="edge5" class="edge">
<title>http://ns.imfid.org/imf#Terminal&#45;&gt;http://ns.imfid.org/imf#Element</title>
<path fill="none" stroke="black" d="M198.88,-117.4C198.25,-125.6 196.99,-135.44 194.5,-144 193.69,-146.8 192.67,-149.65 191.53,-152.45"/>
<polygon fill="none" stroke="black" points="188.3,-151.11 187.36,-161.66 194.67,-153.99 188.3,-151.11"/>
</g>
<!-- http://ns.imfid.org/imf#Element&#45;&gt;http://ns.imfid.org/imf#Element -->
<g id="edge3" class="edge">
<title>http://ns.imfid.org/imf#Element&#45;&gt;http://ns.imfid.org/imf#Element</title>
<path fill="none" stroke="black" d="M207.19,-172.5C217.08,-172.5 225,-175 225,-180 225,-183.12 221.91,-185.27 217.17,-186.45"/>
<polygon fill="black" stroke="black" points="216.76,-182.97 207.19,-187.5 217.5,-189.93 216.76,-182.97"/>
<text text-anchor="middle" x="243" y="-178.1" font-family="Arial" font-size="8.00">imf:partOf</text>
</g>
<!-- http://ns.imfid.org/imf#Block -->
<g id="node6" class="node">
<title>http://ns.imfid.org/imf#Block</title>
<polygon fill="none" stroke="black" points="366.5,-36 312.5,-36 312.5,0 366.5,0 366.5,-36"/>
<text text-anchor="middle" x="339.5" y="-16.1" font-family="Arial" font-size="8.00">imf:Block</text>
</g>
<!-- http://ns.imfid.org/imf#Block&#45;&gt;http://ns.imfid.org/imf#Terminal -->
<g id="edge6" class="edge">
<title>http://ns.imfid.org/imf#Block&#45;&gt;http://ns.imfid.org/imf#Terminal</title>
<path fill="none" stroke="black" d="M312.17,-34.42C291.1,-46.31 261.68,-62.91 238.19,-76.17"/>
<polygon fill="black" stroke="black" points="236.17,-73.29 229.18,-81.25 239.61,-79.39 236.17,-73.29"/>
<text text-anchor="middle" x="301.5" y="-56.6" font-family="Arial" font-size="8.00">imf:hasTerminal</text>
</g>
<!-- http://ns.imfid.org/imf#Block&#45;&gt;http://ns.imfid.org/imf#Element -->
<g id="edge4" class="edge">
<title>http://ns.imfid.org/imf#Block&#45;&gt;http://ns.imfid.org/imf#Element</title>
<path fill="none" stroke="black" d="M339.79,-36.16C339.23,-57.73 335.03,-94.61 314.5,-117 288.66,-145.18 247.55,-161.41 217.1,-170.14"/>
<polygon fill="none" stroke="black" points="215.95,-166.82 207.22,-172.82 217.79,-173.58 215.95,-166.82"/>
</g>
<!-- http://ns.imfid.org/imf#OutputTerminal -->
<g id="node7" class="node">
<title>http://ns.imfid.org/imf#OutputTerminal</title>
<polygon fill="none" stroke="black" points="285,-36 202,-36 202,0 285,0 285,-36"/>
<text text-anchor="middle" x="243.5" y="-16.1" font-family="Arial" font-size="8.00">imf:OutputTerminal</text>
</g>
<!-- http://ns.imfid.org/imf#OutputTerminal&#45;&gt;http://ns.imfid.org/imf#Terminal -->
<g id="edge8" class="edge">
<title>http://ns.imfid.org/imf#OutputTerminal&#45;&gt;http://ns.imfid.org/imf#Terminal</title>
<path fill="none" stroke="black" d="M239.69,-36.37C237.44,-44.74 234.1,-54.74 229.5,-63 227.64,-66.34 225.42,-69.66 223.06,-72.84"/>
<polygon fill="none" stroke="black" points="220.13,-70.9 216.56,-80.87 225.57,-75.3 220.13,-70.9"/>
</g>
</g>
</svg>

