<?xml version="1.0" encoding="UTF-8" standalone="no"?>
<!DOCTYPE svg PUBLIC "-//W3C//DTD SVG 1.1//EN"
 "http://www.w3.org/Graphics/SVG/1.1/DTD/svg11.dtd">
<!-- Generated by graphviz version 2.43.0 (0)
 -->
<!-- Title: urn:temp#graph Pages: 1 -->
<svg width="1492px" height="198px"
 viewBox="0.00 0.00 1492.00 198.00" xmlns="http://www.w3.org/2000/svg" xmlns:xlink="http://www.w3.org/1999/xlink">
<g id="graph0" class="graph" transform="scale(1.0 1.0) rotate(0) translate(4 194)">
<title>urn:temp#graph</title>
<polygon fill="white" stroke="transparent" points="-4,4 -4,-194 1488,-194 1488,4 -4,4"/>
<!-- http://ns.imfid.org/imf#operating -->
<g id="node1" class="node">
<title>http://ns.imfid.org/imf#operating</title>
<polygon fill="none" stroke="black" points="515.5,-36 452.5,-36 452.5,0 515.5,0 515.5,-36"/>
<text text-anchor="middle" x="484" y="-16.1" font-family="Arial" font-size="8.00">imf:operating</text>
</g>
<!-- http://ns.imfid.org/imf#Scope -->
<g id="node10" class="node">
<title>http://ns.imfid.org/imf#Scope</title>
<polygon fill="none" stroke="black" points="588,-109 534,-109 534,-73 588,-73 588,-109"/>
<text text-anchor="middle" x="561" y="-89.1" font-family="Arial" font-size="8.00">imf:Scope</text>
</g>
<!-- http://ns.imfid.org/imf#operating&#45;&gt;http://ns.imfid.org/imf#Scope -->
<g id="edge18" class="edge">
<title>http://ns.imfid.org/imf#operating&#45;&gt;http://ns.imfid.org/imf#Scope</title>
<path fill="none" stroke="black" stroke-dasharray="1,5" d="M502.64,-36.19C512.38,-45.17 524.46,-56.31 535.1,-66.11"/>
<polygon fill="black" stroke="black" points="532.81,-68.77 542.53,-72.97 537.55,-63.62 532.81,-68.77"/>
</g>
<!-- http://ns.imfid.org/imf#calculated -->
<g id="node2" class="node">
<title>http://ns.imfid.org/imf#calculated</title>
<polygon fill="none" stroke="black" points="1221.5,-36 1156.5,-36 1156.5,0 1221.5,0 1221.5,-36"/>
<text text-anchor="middle" x="1189" y="-16.1" font-family="Arial" font-size="8.00">imf:calculated</text>
</g>
<!-- http://ns.imfid.org/imf#Provenance -->
<g id="node15" class="node">
<title>http://ns.imfid.org/imf#Provenance</title>
<polygon fill="none" stroke="black" points="1266,-109 1194,-109 1194,-73 1266,-73 1266,-109"/>
<text text-anchor="middle" x="1230" y="-89.1" font-family="Arial" font-size="8.00">imf:Provenance</text>
</g>
<!-- http://ns.imfid.org/imf#calculated&#45;&gt;http://ns.imfid.org/imf#Provenance -->
<g id="edge11" class="edge">
<title>http://ns.imfid.org/imf#calculated&#45;&gt;http://ns.imfid.org/imf#Provenance</title>
<path fill="none" stroke="black" stroke-dasharray="1,5" d="M1198.92,-36.19C1203.76,-44.56 1209.67,-54.8 1215.04,-64.1"/>
<polygon fill="black" stroke="black" points="1212.13,-66.06 1220.17,-72.97 1218.2,-62.56 1212.13,-66.06"/>
</g>
<!-- http://ns.imfid.org/imf#nominal -->
<g id="node3" class="node">
<title>http://ns.imfid.org/imf#nominal</title>
<polygon fill="none" stroke="black" points="892.5,-36 835.5,-36 835.5,0 892.5,0 892.5,-36"/>
<text text-anchor="middle" x="864" y="-16.1" font-family="Arial" font-size="8.00">imf:nominal</text>
</g>
<!-- http://ns.imfid.org/imf#Range -->
<g id="node23" class="node">
<title>http://ns.imfid.org/imf#Range</title>
<polygon fill="none" stroke="black" points="820,-109 766,-109 766,-73 820,-73 820,-109"/>
<text text-anchor="middle" x="793" y="-89.1" font-family="Arial" font-size="8.00">imf:Range</text>
</g>
<!-- http://ns.imfid.org/imf#nominal&#45;&gt;http://ns.imfid.org/imf#Range -->
<g id="edge12" class="edge">
<title>http://ns.imfid.org/imf#nominal&#45;&gt;http://ns.imfid.org/imf#Range</title>
<path fill="none" stroke="black" stroke-dasharray="1,5" d="M846.81,-36.19C837.92,-45.08 826.91,-56.09 817.17,-65.83"/>
<polygon fill="black" stroke="black" points="814.63,-63.43 810.03,-72.97 819.57,-68.37 814.63,-63.43"/>
</g>
<!-- 8b3aa4d3&#45;4201&#45;4972&#45;a372&#45;a329260279d6 -->
<g id="node4" class="node">
<title>8b3aa4d3&#45;4201&#45;4972&#45;a372&#45;a329260279d6</title>
<polygon fill="#e5e5e5" stroke="black" stroke-dasharray="5,2" points="547.5,-185 372.5,-185 372.5,-159 547.5,-159 547.5,-185"/>
<text text-anchor="middle" x="460" y="-174.6" font-family="Arial" font-size="8.00">owl:Restriction</text>
<text text-anchor="middle" x="460" y="-165.6" font-family="Arial" font-size="8.00">,8b3aa4d3&#45;4201&#45;4972&#45;a372&#45;a329260279d6</text>
</g>
<!-- a55fb5d8&#45;6d82&#45;48ba&#45;957e&#45;a0964e92dd57 -->
<g id="node5" class="node">
<title>a55fb5d8&#45;6d82&#45;48ba&#45;957e&#45;a0964e92dd57</title>
<polygon fill="#e5e5e5" stroke="black" stroke-dasharray="5,2" points="738.5,-185 565.5,-185 565.5,-159 738.5,-159 738.5,-185"/>
<text text-anchor="middle" x="652" y="-174.6" font-family="Arial" font-size="8.00">owl:Restriction</text>
<text text-anchor="middle" x="652" y="-165.6" font-family="Arial" font-size="8.00">,a55fb5d8&#45;6d82&#45;48ba&#45;957e&#45;a0964e92dd57</text>
</g>
<!-- http://ns.imfid.org/imf#design -->
<g id="node6" class="node">
<title>http://ns.imfid.org/imf#design</title>
<polygon fill="none" stroke="black" points="588,-36 534,-36 534,0 588,0 588,-36"/>
<text text-anchor="middle" x="561" y="-16.1" font-family="Arial" font-size="8.00">imf:design</text>
</g>
<!-- http://ns.imfid.org/imf#design&#45;&gt;http://ns.imfid.org/imf#Scope -->
<g id="edge5" class="edge">
<title>http://ns.imfid.org/imf#design&#45;&gt;http://ns.imfid.org/imf#Scope</title>
<path fill="none" stroke="black" stroke-dasharray="1,5" d="M561,-36.19C561,-44.21 561,-53.95 561,-62.93"/>
<polygon fill="black" stroke="black" points="557.5,-62.97 561,-72.97 564.5,-62.97 557.5,-62.97"/>
</g>
<!-- http://ns.imfid.org/imf#specified -->
<g id="node7" class="node">
<title>http://ns.imfid.org/imf#specified</title>
<polygon fill="none" stroke="black" points="1300,-36 1240,-36 1240,0 1300,0 1300,-36"/>
<text text-anchor="middle" x="1270" y="-16.1" font-family="Arial" font-size="8.00">imf:specified</text>
</g>
<!-- http://ns.imfid.org/imf#specified&#45;&gt;http://ns.imfid.org/imf#Provenance -->
<g id="edge14" class="edge">
<title>http://ns.imfid.org/imf#specified&#45;&gt;http://ns.imfid.org/imf#Provenance</title>
<path fill="none" stroke="black" stroke-dasharray="1,5" d="M1260.32,-36.19C1255.6,-44.56 1249.83,-54.8 1244.59,-64.1"/>
<polygon fill="black" stroke="black" points="1241.45,-62.54 1239.59,-72.97 1247.55,-65.98 1241.45,-62.54"/>
</g>
<!-- http://ns.imfid.org/imf#DatumQualifier -->
<g id="node8" class="node">
<title>http://ns.imfid.org/imf#DatumQualifier</title>
<polygon fill="none" stroke="black" points="842.5,-190 759.5,-190 759.5,-154 842.5,-154 842.5,-190"/>
<text text-anchor="middle" x="801" y="-170.1" font-family="Arial" font-size="8.00">imf:DatumQualifier</text>
</g>
<!-- http://ns.imfid.org/imf#AttributeGroup -->
<g id="node9" class="node">
<title>http://ns.imfid.org/imf#AttributeGroup</title>
<polygon fill="none" stroke="black" points="1484,-36 1402,-36 1402,0 1484,0 1484,-36"/>
<text text-anchor="middle" x="1443" y="-16.1" font-family="Arial" font-size="8.00">imf:AttributeGroup</text>
</g>
<!-- http://ns.imfid.org/imf#Scope&#45;&gt;http://ns.imfid.org/imf#DatumQualifier -->
<g id="edge19" class="edge">
<title>http://ns.imfid.org/imf#Scope&#45;&gt;http://ns.imfid.org/imf#DatumQualifier</title>
<path fill="none" stroke="black" d="M588.23,-91.21C628.72,-91.2 706.01,-95.76 762,-127 770.2,-131.58 777.54,-138.55 783.59,-145.6"/>
<polygon fill="none" stroke="black" points="781.11,-148.1 790.06,-153.78 786.6,-143.76 781.11,-148.1"/>
</g>
<!-- http://ns.imfid.org/imf#maximum -->
<g id="node11" class="node">
<title>http://ns.imfid.org/imf#maximum</title>
<polygon fill="none" stroke="black" points="975,-36 911,-36 911,0 975,0 975,-36"/>
<text text-anchor="middle" x="943" y="-16.1" font-family="Arial" font-size="8.00">imf:maximum</text>
</g>
<!-- http://ns.imfid.org/imf#maximum&#45;&gt;http://ns.imfid.org/imf#Range -->
<g id="edge8" class="edge">
<title>http://ns.imfid.org/imf#maximum&#45;&gt;http://ns.imfid.org/imf#Range</title>
<path fill="none" stroke="black" stroke-dasharray="1,5" d="M910.82,-34.23C886.85,-45.58 854.11,-61.07 829.22,-72.85"/>
<polygon fill="black" stroke="black" points="827.65,-69.73 820.11,-77.17 830.64,-76.06 827.65,-69.73"/>
</g>
<!-- http://ns.imfid.org/imf#minimum -->
<g id="node12" class="node">
<title>http://ns.imfid.org/imf#minimum</title>
<polygon fill="none" stroke="black" points="668,-36 606,-36 606,0 668,0 668,-36"/>
<text text-anchor="middle" x="637" y="-16.1" font-family="Arial" font-size="8.00">imf:minimum</text>
</g>
<!-- http://ns.imfid.org/imf#minimum&#45;&gt;http://ns.imfid.org/imf#Range -->
<g id="edge6" class="edge">
<title>http://ns.imfid.org/imf#minimum&#45;&gt;http://ns.imfid.org/imf#Range</title>
<path fill="none" stroke="black" stroke-dasharray="1,5" d="M668.19,-33.2C693.61,-44.77 729.56,-61.13 756.35,-73.32"/>
<polygon fill="black" stroke="black" points="755.22,-76.65 765.77,-77.61 758.12,-70.28 755.22,-76.65"/>
</g>
<!-- 57ddddea&#45;7f9c&#45;4f46&#45;959f&#45;d75113706bc1 -->
<g id="node13" class="node">
<title>57ddddea&#45;7f9c&#45;4f46&#45;959f&#45;d75113706bc1</title>
<polygon fill="#e5e5e5" stroke="black" stroke-dasharray="5,2" points="166,-185 0,-185 0,-159 166,-159 166,-185"/>
<text text-anchor="middle" x="83" y="-174.6" font-family="Arial" font-size="8.00">owl:Restriction</text>
<text text-anchor="middle" x="83" y="-165.6" font-family="Arial" font-size="8.00">,57ddddea&#45;7f9c&#45;4f46&#45;959f&#45;d75113706bc1</text>
</g>
<!-- http://ns.imfid.org/imf#absolute -->
<g id="node14" class="node">
<title>http://ns.imfid.org/imf#absolute</title>
<polygon fill="none" stroke="black" points="1138.5,-36 1079.5,-36 1079.5,0 1138.5,0 1138.5,-36"/>
<text text-anchor="middle" x="1109" y="-16.1" font-family="Arial" font-size="8.00">imf:absolute</text>
</g>
<!-- http://ns.imfid.org/imf#Regularity -->
<g id="node19" class="node">
<title>http://ns.imfid.org/imf#Regularity</title>
<polygon fill="none" stroke="black" points="1059.5,-109 994.5,-109 994.5,-73 1059.5,-73 1059.5,-109"/>
<text text-anchor="middle" x="1027" y="-89.1" font-family="Arial" font-size="8.00">imf:Regularity</text>
</g>
<!-- http://ns.imfid.org/imf#absolute&#45;&gt;http://ns.imfid.org/imf#Regularity -->
<g id="edge9" class="edge">
<title>http://ns.imfid.org/imf#absolute&#45;&gt;http://ns.imfid.org/imf#Regularity</title>
<path fill="none" stroke="black" stroke-dasharray="1,5" d="M1089.15,-36.19C1078.67,-45.26 1065.66,-56.52 1054.26,-66.4"/>
<polygon fill="black" stroke="black" points="1051.94,-63.78 1046.67,-72.97 1056.52,-69.07 1051.94,-63.78"/>
</g>
<!-- http://ns.imfid.org/imf#Provenance&#45;&gt;http://ns.imfid.org/imf#DatumQualifier -->
<g id="edge10" class="edge">
<title>http://ns.imfid.org/imf#Provenance&#45;&gt;http://ns.imfid.org/imf#DatumQualifier</title>
<path fill="none" stroke="black" d="M1193.79,-98.67C1117.62,-112.69 940.6,-145.29 852.59,-161.5"/>
<polygon fill="none" stroke="black" points="851.77,-158.09 842.57,-163.35 853.04,-164.98 851.77,-158.09"/>
</g>
<!-- adcc7a10&#45;26f6&#45;4391&#45;8783&#45;c25b67643237 -->
<g id="node16" class="node">
<title>adcc7a10&#45;26f6&#45;4391&#45;8783&#45;c25b67643237</title>
<polygon fill="#e5e5e5" stroke="black" stroke-dasharray="5,2" points="354,-185 184,-185 184,-159 354,-159 354,-185"/>
<text text-anchor="middle" x="269" y="-174.6" font-family="Arial" font-size="8.00">owl:Restriction</text>
<text text-anchor="middle" x="269" y="-165.6" font-family="Arial" font-size="8.00">,adcc7a10&#45;26f6&#45;4391&#45;8783&#45;c25b67643237</text>
</g>
<!-- http://ns.imfid.org/imf#measured -->
<g id="node17" class="node">
<title>http://ns.imfid.org/imf#measured</title>
<polygon fill="none" stroke="black" points="1383.5,-36 1318.5,-36 1318.5,0 1383.5,0 1383.5,-36"/>
<text text-anchor="middle" x="1351" y="-16.1" font-family="Arial" font-size="8.00">imf:measured</text>
</g>
<!-- http://ns.imfid.org/imf#measured&#45;&gt;http://ns.imfid.org/imf#Provenance -->
<g id="edge13" class="edge">
<title>http://ns.imfid.org/imf#measured&#45;&gt;http://ns.imfid.org/imf#Provenance</title>
<path fill="none" stroke="black" stroke-dasharray="1,5" d="M1322.02,-36.01C1305.82,-45.51 1285.45,-57.46 1267.99,-67.71"/>
<polygon fill="black" stroke="black" points="1266.02,-64.81 1259.17,-72.89 1269.56,-70.84 1266.02,-64.81"/>
</g>
<!-- http://ns.imfid.org/imf#AttributeValue -->
<g id="node18" class="node">
<title>http://ns.imfid.org/imf#AttributeValue</title>
<polygon fill="none" stroke="black" points="499.5,-109 420.5,-109 420.5,-73 499.5,-73 499.5,-109"/>
<text text-anchor="middle" x="460" y="-89.1" font-family="Arial" font-size="8.00">imf:AttributeValue</text>
</g>
<!-- http://ns.imfid.org/imf#AttributeValue&#45;&gt;8b3aa4d3&#45;4201&#45;4972&#45;a372&#45;a329260279d6 -->
<g id="edge7" class="edge">
<title>http://ns.imfid.org/imf#AttributeValue&#45;&gt;8b3aa4d3&#45;4201&#45;4972&#45;a372&#45;a329260279d6</title>
<path fill="none" stroke="black" d="M460,-109.14C460,-120.65 460,-135.94 460,-148.44"/>
<polygon fill="none" stroke="black" points="456.5,-148.54 460,-158.54 463.5,-148.54 456.5,-148.54"/>
</g>
<!-- http://ns.imfid.org/imf#AttributeValue&#45;&gt;a55fb5d8&#45;6d82&#45;48ba&#45;957e&#45;a0964e92dd57 -->
<g id="edge4" class="edge">
<title>http://ns.imfid.org/imf#AttributeValue&#45;&gt;a55fb5d8&#45;6d82&#45;48ba&#45;957e&#45;a0964e92dd57</title>
<path fill="none" stroke="black" d="M499.78,-108.37C533.07,-122.07 580.29,-141.49 613.28,-155.07"/>
<polygon fill="none" stroke="black" points="612.03,-158.34 622.61,-158.91 614.69,-151.86 612.03,-158.34"/>
</g>
<!-- http://ns.imfid.org/imf#AttributeValue&#45;&gt;http://ns.imfid.org/imf#DatumQualifier -->
<g id="edge16" class="edge">
<title>http://ns.imfid.org/imf#AttributeValue&#45;&gt;http://ns.imfid.org/imf#DatumQualifier</title>
<path fill="none" stroke="black" d="M499.79,-102.79C508.1,-104.93 516.82,-107.11 525,-109 623.5,-131.8 650.15,-128.52 748,-154 748.58,-154.15 749.17,-154.31 749.76,-154.46"/>
<polygon fill="black" stroke="black" points="748.89,-157.86 759.47,-157.2 750.79,-151.12 748.89,-157.86"/>
<text text-anchor="middle" x="706.5" y="-129.6" font-family="Arial" font-size="8.00">imf:hasDatumQualifier</text>
</g>
<!-- http://ns.imfid.org/imf#AttributeValue&#45;&gt;57ddddea&#45;7f9c&#45;4f46&#45;959f&#45;d75113706bc1 -->
<g id="edge15" class="edge">
<title>http://ns.imfid.org/imf#AttributeValue&#45;&gt;57ddddea&#45;7f9c&#45;4f46&#45;959f&#45;d75113706bc1</title>
<path fill="none" stroke="black" d="M420.37,-100.31C356.19,-113.75 228.8,-140.45 150.24,-156.91"/>
<polygon fill="none" stroke="black" points="149.5,-153.49 140.43,-158.96 150.94,-160.34 149.5,-153.49"/>
</g>
<!-- http://ns.imfid.org/imf#AttributeValue&#45;&gt;adcc7a10&#45;26f6&#45;4391&#45;8783&#45;c25b67643237 -->
<g id="edge17" class="edge">
<title>http://ns.imfid.org/imf#AttributeValue&#45;&gt;adcc7a10&#45;26f6&#45;4391&#45;8783&#45;c25b67643237</title>
<path fill="none" stroke="black" d="M420.42,-108.37C387.31,-122.07 340.34,-141.49 307.52,-155.07"/>
<polygon fill="none" stroke="black" points="306.14,-151.85 298.24,-158.91 308.82,-158.32 306.14,-151.85"/>
</g>
<!-- http://ns.imfid.org/imf#Regularity&#45;&gt;http://ns.imfid.org/imf#DatumQualifier -->
<g id="edge21" class="edge">
<title>http://ns.imfid.org/imf#Regularity&#45;&gt;http://ns.imfid.org/imf#DatumQualifier</title>
<path fill="none" stroke="black" d="M994.14,-103.49C956.92,-116.5 895.81,-137.86 852.3,-153.07"/>
<polygon fill="none" stroke="black" points="851.03,-149.8 842.75,-156.41 853.34,-156.41 851.03,-149.8"/>
</g>
<!-- http://ns.imfid.org/imf#normal -->
<g id="node20" class="node">
<title>http://ns.imfid.org/imf#normal</title>
<polygon fill="none" stroke="black" points="740,-36 686,-36 686,0 740,0 740,-36"/>
<text text-anchor="middle" x="713" y="-16.1" font-family="Arial" font-size="8.00">imf:normal</text>
</g>
<!-- http://ns.imfid.org/imf#normal&#45;&gt;http://ns.imfid.org/imf#Range -->
<g id="edge2" class="edge">
<title>http://ns.imfid.org/imf#normal&#45;&gt;http://ns.imfid.org/imf#Range</title>
<path fill="none" stroke="black" stroke-dasharray="1,5" d="M732.37,-36.19C742.49,-45.17 755.04,-56.31 766.09,-66.11"/>
<polygon fill="black" stroke="black" points="764.01,-68.95 773.81,-72.97 768.66,-63.72 764.01,-68.95"/>
</g>
<!-- http://ns.imfid.org/imf#continuous -->
<g id="node21" class="node">
<title>http://ns.imfid.org/imf#continuous</title>
<polygon fill="none" stroke="black" points="1061,-36 993,-36 993,0 1061,0 1061,-36"/>
<text text-anchor="middle" x="1027" y="-16.1" font-family="Arial" font-size="8.00">imf:continuous</text>
</g>
<!-- http://ns.imfid.org/imf#continuous&#45;&gt;http://ns.imfid.org/imf#Regularity -->
<g id="edge3" class="edge">
<title>http://ns.imfid.org/imf#continuous&#45;&gt;http://ns.imfid.org/imf#Regularity</title>
<path fill="none" stroke="black" stroke-dasharray="1,5" d="M1027,-36.19C1027,-44.21 1027,-53.95 1027,-62.93"/>
<polygon fill="black" stroke="black" points="1023.5,-62.97 1027,-72.97 1030.5,-62.97 1023.5,-62.97"/>
</g>
<!-- http://ns.imfid.org/imf#average -->
<g id="node22" class="node">
<title>http://ns.imfid.org/imf#average</title>
<polygon fill="none" stroke="black" points="817.5,-36 758.5,-36 758.5,0 817.5,0 817.5,-36"/>
<text text-anchor="middle" x="788" y="-16.1" font-family="Arial" font-size="8.00">imf:average</text>
</g>
<!-- http://ns.imfid.org/imf#average&#45;&gt;http://ns.imfid.org/imf#Range -->
<g id="edge20" class="edge">
<title>http://ns.imfid.org/imf#average&#45;&gt;http://ns.imfid.org/imf#Range</title>
<path fill="none" stroke="black" stroke-dasharray="1,5" d="M789.21,-36.19C789.78,-44.21 790.46,-53.95 791.09,-62.93"/>
<polygon fill="black" stroke="black" points="787.61,-63.24 791.8,-72.97 794.59,-62.75 787.61,-63.24"/>
</g>
<!-- http://ns.imfid.org/imf#Range&#45;&gt;http://ns.imfid.org/imf#DatumQualifier -->
<g id="edge1" class="edge">
<title>http://ns.imfid.org/imf#Range&#45;&gt;http://ns.imfid.org/imf#DatumQualifier</title>
<path fill="none" stroke="black" d="M794.74,-109.14C795.76,-119.29 797.09,-132.37 798.25,-143.88"/>
<polygon fill="none" stroke="black" points="794.78,-144.3 799.27,-153.89 801.74,-143.59 794.78,-144.3"/>
</g>
</g>
</svg>

