<?xml version="1.0" encoding="UTF-8" standalone="no"?>
<!DOCTYPE svg PUBLIC "-//W3C//DTD SVG 1.1//EN"
 "http://www.w3.org/Graphics/SVG/1.1/DTD/svg11.dtd">
<!-- Generated by graphviz version 2.43.0 (0)
 -->
<!-- Title: urn:temp#graph Pages: 1 -->
<svg width="1013px" height="368px"
 viewBox="0.00 0.00 1012.50 368.00" xmlns="http://www.w3.org/2000/svg" xmlns:xlink="http://www.w3.org/1999/xlink">
<g id="graph0" class="graph" transform="scale(1.0 1.0) rotate(0) translate(4 364)">
<title>urn:temp#graph</title>
<polygon fill="white" stroke="transparent" points="-4,4 -4,-364 1008.5,-364 1008.5,4 -4,4"/>
<!-- http://ns.imfid.org/imf#BreakdownPoint -->
<g id="node1" class="node">
<title>http://ns.imfid.org/imf#BreakdownPoint</title>
<polygon fill="none" stroke="black" points="227,-117 139,-117 139,-81 227,-81 227,-117"/>
<text text-anchor="middle" x="183" y="-97.1" font-family="Arial" font-size="8.00">imf:BreakdownPoint</text>
</g>
<!-- http://ns.imfid.org/imf#Element -->
<g id="node3" class="node">
<title>http://ns.imfid.org/imf#Element</title>
<polygon fill="none" stroke="black" points="198.5,-198 139.5,-198 139.5,-162 198.5,-162 198.5,-198"/>
<text text-anchor="middle" x="169" y="-178.1" font-family="Arial" font-size="8.00">imf:Element</text>
</g>
<!-- http://ns.imfid.org/imf#BreakdownPoint&#45;&gt;http://ns.imfid.org/imf#Element -->
<g id="edge2" class="edge">
<title>http://ns.imfid.org/imf#BreakdownPoint&#45;&gt;http://ns.imfid.org/imf#Element</title>
<path fill="none" stroke="black" d="M208.26,-117.37C216.21,-125.08 221.81,-134.53 217,-144 214.43,-149.06 210.75,-153.56 206.55,-157.5"/>
<polygon fill="black" stroke="black" points="204.1,-154.98 198.57,-164.02 208.53,-160.41 204.1,-154.98"/>
<text text-anchor="middle" x="239" y="-137.6" font-family="Arial" font-size="8.00">imf:thePart</text>
</g>
<!-- http://ns.imfid.org/imf#BreakdownPoint&#45;&gt;http://ns.imfid.org/imf#Element -->
<g id="edge5" class="edge">
<title>http://ns.imfid.org/imf#BreakdownPoint&#45;&gt;http://ns.imfid.org/imf#Element</title>
<path fill="none" stroke="black" d="M158.29,-117.19C152.91,-122.25 147.95,-128.26 145,-135 142.39,-140.96 143.35,-147.2 146.02,-153.04"/>
<polygon fill="black" stroke="black" points="143.17,-155.08 151.36,-161.79 149.14,-151.43 143.17,-155.08"/>
<text text-anchor="middle" x="168.5" y="-137.6" font-family="Arial" font-size="8.00">imf:theWhole</text>
</g>
<!-- http://ns.imfid.org/imf#BreakdownPoint&#45;&gt;http://ns.imfid.org/imf#Element -->
<g id="edge18" class="edge">
<title>http://ns.imfid.org/imf#BreakdownPoint&#45;&gt;http://ns.imfid.org/imf#Element</title>
<path fill="none" stroke="black" d="M190.46,-117.31C192.99,-125.49 194.59,-135.33 192,-144 191.09,-147.04 189.83,-150.05 188.35,-152.97"/>
<polygon fill="none" stroke="black" points="185.18,-151.45 183.1,-161.84 191.21,-155.02 185.18,-151.45"/>
</g>
<!-- http://ns.imfid.org/imf#ScopeQualifier -->
<g id="node2" class="node">
<title>http://ns.imfid.org/imf#ScopeQualifier</title>
<polygon fill="none" stroke="black" points="570.5,-36 489.5,-36 489.5,0 570.5,0 570.5,-36"/>
<text text-anchor="middle" x="530" y="-16.1" font-family="Arial" font-size="8.00">imf:ScopeQualifier</text>
</g>
<!-- http://ns.imfid.org/imf#Element&#45;&gt;http://ns.imfid.org/imf#Element -->
<g id="edge7" class="edge">
<title>http://ns.imfid.org/imf#Element&#45;&gt;http://ns.imfid.org/imf#Element</title>
<path fill="none" stroke="black" d="M198.69,-177.5C208.58,-177.5 216.5,-178.33 216.5,-180 216.5,-181.02 213.56,-181.72 209.02,-182.12"/>
<polygon fill="black" stroke="black" points="208.55,-178.63 198.69,-182.5 208.81,-185.63 208.55,-178.63"/>
<text text-anchor="middle" x="257.5" y="-178.1" font-family="Arial" font-size="8.00">imf:intraAspectRelation</text>
</g>
<!-- http://ns.imfid.org/imf#Element&#45;&gt;http://ns.imfid.org/imf#Element -->
<g id="edge13" class="edge">
<title>http://ns.imfid.org/imf#Element&#45;&gt;http://ns.imfid.org/imf#Element</title>
<path fill="none" stroke="black" d="M198.75,-176.23C238.25,-173.76 298.5,-175.01 298.5,-180 298.5,-184.58 247.73,-186.01 208.85,-184.3"/>
<polygon fill="black" stroke="black" points="208.93,-180.8 198.75,-183.77 208.56,-187.79 208.93,-180.8"/>
<text text-anchor="middle" x="316.5" y="-178.1" font-family="Arial" font-size="8.00">imf:partOf</text>
</g>
<!-- http://ns.imfid.org/imf#Element&#45;&gt;http://ns.imfid.org/imf#Element -->
<g id="edge20" class="edge">
<title>http://ns.imfid.org/imf#Element&#45;&gt;http://ns.imfid.org/imf#Element</title>
<path fill="none" stroke="black" d="M198.58,-175.04C248.36,-170.44 334.5,-172.09 334.5,-180 334.5,-187.4 259.11,-189.32 208.63,-185.77"/>
<polygon fill="black" stroke="black" points="208.83,-182.28 198.58,-184.96 208.27,-189.25 208.83,-182.28"/>
<text text-anchor="middle" x="375.5" y="-178.1" font-family="Arial" font-size="8.00">imf:interAspectRelation</text>
</g>
<!-- http://ns.imfid.org/imf#Aspect -->
<g id="node5" class="node">
<title>http://ns.imfid.org/imf#Aspect</title>
<polygon fill="none" stroke="black" points="159,-279 105,-279 105,-243 159,-243 159,-279"/>
<text text-anchor="middle" x="132" y="-259.1" font-family="Arial" font-size="8.00">imf:Aspect</text>
</g>
<!-- http://ns.imfid.org/imf#Element&#45;&gt;http://ns.imfid.org/imf#Aspect -->
<g id="edge22" class="edge">
<title>http://ns.imfid.org/imf#Element&#45;&gt;http://ns.imfid.org/imf#Aspect</title>
<path fill="none" stroke="black" d="M150.32,-198.05C145.57,-203.34 140.98,-209.51 138,-216 135.69,-221.04 134.2,-226.72 133.26,-232.28"/>
<polygon fill="black" stroke="black" points="129.73,-232.3 132.04,-242.64 136.69,-233.11 129.73,-232.3"/>
<text text-anchor="middle" x="163" y="-218.6" font-family="Arial" font-size="8.00">imf:hasAspect</text>
</g>
<!-- http://ns.imfid.org/imf#Attribute -->
<g id="node10" class="node">
<title>http://ns.imfid.org/imf#Attribute</title>
<polygon fill="none" stroke="black" points="243.5,-279 184.5,-279 184.5,-243 243.5,-243 243.5,-279"/>
<text text-anchor="middle" x="214" y="-259.1" font-family="Arial" font-size="8.00">imf:Attribute</text>
</g>
<!-- http://ns.imfid.org/imf#Element&#45;&gt;http://ns.imfid.org/imf#Attribute -->
<g id="edge8" class="edge">
<title>http://ns.imfid.org/imf#Element&#45;&gt;http://ns.imfid.org/imf#Attribute</title>
<path fill="none" stroke="black" d="M178.76,-198.14C184.72,-208.6 192.45,-222.17 199.15,-233.94"/>
<polygon fill="black" stroke="black" points="196.26,-235.93 204.25,-242.89 202.35,-232.47 196.26,-235.93"/>
<text text-anchor="middle" x="221" y="-218.6" font-family="Arial" font-size="8.00">imf:hasAttribute</text>
</g>
<!-- http://ns.imfid.org/imf#TerminalQualifier -->
<g id="node4" class="node">
<title>http://ns.imfid.org/imf#TerminalQualifier</title>
<polygon fill="none" stroke="black" points="583.5,-198 494.5,-198 494.5,-162 583.5,-162 583.5,-198"/>
<text text-anchor="middle" x="539" y="-178.1" font-family="Arial" font-size="8.00">imf:TerminalQualifier</text>
</g>
<!-- http://www.w3.org/2001/XMLSchema#string -->
<g id="node19" class="node">
<title>http://www.w3.org/2001/XMLSchema#string</title>
<polygon fill="none" stroke="black" points="155,-360 101,-360 101,-324 155,-324 155,-360"/>
<text text-anchor="middle" x="128" y="-340.1" font-family="Arial" font-size="8.00">xsd:string</text>
</g>
<!-- http://ns.imfid.org/imf#Aspect&#45;&gt;http://www.w3.org/2001/XMLSchema#string -->
<g id="edge9" class="edge">
<title>http://ns.imfid.org/imf#Aspect&#45;&gt;http://www.w3.org/2001/XMLSchema#string</title>
<path fill="none" stroke="black" d="M131.13,-279.14C130.62,-289.29 129.96,-302.37 129.37,-313.88"/>
<polygon fill="black" stroke="black" points="125.88,-313.73 128.87,-323.89 132.87,-314.08 125.88,-313.73"/>
<text text-anchor="middle" x="147.5" y="-299.6" font-family="Arial" font-size="8.00">imf:prefix</text>
</g>
<!-- http://ns.imfid.org/imf#outputFlow -->
<g id="node6" class="node">
<title>http://ns.imfid.org/imf#outputFlow</title>
<polygon fill="none" stroke="black" points="573.5,-117 504.5,-117 504.5,-81 573.5,-81 573.5,-117"/>
<text text-anchor="middle" x="539" y="-97.1" font-family="Arial" font-size="8.00">imf:outputFlow</text>
</g>
<!-- http://ns.imfid.org/imf#outputFlow&#45;&gt;http://ns.imfid.org/imf#TerminalQualifier -->
<g id="edge14" class="edge">
<title>http://ns.imfid.org/imf#outputFlow&#45;&gt;http://ns.imfid.org/imf#TerminalQualifier</title>
<path fill="none" stroke="black" stroke-dasharray="1,5" d="M539,-117.14C539,-127.29 539,-140.37 539,-151.88"/>
<polygon fill="black" stroke="black" points="535.5,-151.89 539,-161.89 542.5,-151.89 535.5,-151.89"/>
</g>
<!-- http://ns.imfid.org/imf#Terminal -->
<g id="node7" class="node">
<title>http://ns.imfid.org/imf#Terminal</title>
<polygon fill="none" stroke="black" points="410.5,-117 351.5,-117 351.5,-81 410.5,-81 410.5,-117"/>
<text text-anchor="middle" x="381" y="-97.1" font-family="Arial" font-size="8.00">imf:Terminal</text>
</g>
<!-- http://ns.imfid.org/imf#Terminal&#45;&gt;http://ns.imfid.org/imf#Element -->
<g id="edge10" class="edge">
<title>http://ns.imfid.org/imf#Terminal&#45;&gt;http://ns.imfid.org/imf#Element</title>
<path fill="none" stroke="black" d="M367.75,-117.06C359.59,-126.41 348.34,-137.41 336,-144 296.1,-165.3 244.38,-173.65 209.14,-176.91"/>
<polygon fill="none" stroke="black" points="208.44,-173.45 198.76,-177.77 209.01,-180.43 208.44,-173.45"/>
</g>
<!-- http://ns.imfid.org/imf#Terminal&#45;&gt;http://ns.imfid.org/imf#TerminalQualifier -->
<g id="edge4" class="edge">
<title>http://ns.imfid.org/imf#Terminal&#45;&gt;http://ns.imfid.org/imf#TerminalQualifier</title>
<path fill="none" stroke="black" d="M405.23,-117.08C418.16,-125.77 434.56,-136.13 450,-144 460.98,-149.59 473.07,-154.89 484.71,-159.58"/>
<polygon fill="black" stroke="black" points="483.76,-162.97 494.35,-163.38 486.33,-156.46 483.76,-162.97"/>
<text text-anchor="middle" x="492.5" y="-137.6" font-family="Arial" font-size="8.00">imf:hasTerminalQualifier</text>
</g>
<!-- http://ns.imfid.org/imf#Terminal&#45;&gt;http://ns.imfid.org/imf#Terminal -->
<g id="edge16" class="edge">
<title>http://ns.imfid.org/imf#Terminal&#45;&gt;http://ns.imfid.org/imf#Terminal</title>
<path fill="none" stroke="black" d="M410.69,-91.5C420.58,-91.5 428.5,-94 428.5,-99 428.5,-102.12 425.41,-104.27 420.67,-105.45"/>
<polygon fill="black" stroke="black" points="420.26,-101.97 410.69,-106.5 421,-108.93 420.26,-101.97"/>
<text text-anchor="middle" x="457.5" y="-97.1" font-family="Arial" font-size="8.00">imf:connectedTo</text>
</g>
<!-- http://ns.imfid.org/imf#Block -->
<g id="node8" class="node">
<title>http://ns.imfid.org/imf#Block</title>
<polygon fill="none" stroke="black" points="54,-36 0,-36 0,0 54,0 54,-36"/>
<text text-anchor="middle" x="27" y="-16.1" font-family="Arial" font-size="8.00">imf:Block</text>
</g>
<!-- http://ns.imfid.org/imf#Block&#45;&gt;http://ns.imfid.org/imf#Element -->
<g id="edge21" class="edge">
<title>http://ns.imfid.org/imf#Block&#45;&gt;http://ns.imfid.org/imf#Element</title>
<path fill="none" stroke="black" d="M40.34,-36.1C59.73,-60.68 97.2,-107.09 132,-144 135.39,-147.59 139.05,-151.28 142.72,-154.85"/>
<polygon fill="none" stroke="black" points="140.5,-157.58 150.15,-161.96 145.34,-152.52 140.5,-157.58"/>
</g>
<!-- http://ns.imfid.org/imf#Block&#45;&gt;http://ns.imfid.org/imf#Terminal -->
<g id="edge11" class="edge">
<title>http://ns.imfid.org/imf#Block&#45;&gt;http://ns.imfid.org/imf#Terminal</title>
<path fill="none" stroke="black" d="M54.06,-30.48C59.29,-32.48 64.78,-34.42 70,-36 124.82,-52.58 139.54,-53.37 196,-63 258.27,-73.63 275.76,-65.5 337,-81 338.64,-81.41 340.3,-81.87 341.96,-82.36"/>
<polygon fill="black" stroke="black" points="340.9,-85.7 351.49,-85.48 343.08,-79.05 340.9,-85.7"/>
<text text-anchor="middle" x="224" y="-56.6" font-family="Arial" font-size="8.00">imf:hasTerminal</text>
</g>
<!-- http://ns.imfid.org/imf#ProvenanceQualifier -->
<g id="node9" class="node">
<title>http://ns.imfid.org/imf#ProvenanceQualifier</title>
<polygon fill="none" stroke="black" points="689.5,-36 588.5,-36 588.5,0 689.5,0 689.5,-36"/>
<text text-anchor="middle" x="639" y="-16.1" font-family="Arial" font-size="8.00">imf:ProvenanceQualifier</text>
</g>
<!-- http://ns.imfid.org/imf#AttributeQualifier -->
<g id="node14" class="node">
<title>http://ns.imfid.org/imf#AttributeQualifier</title>
<polygon fill="none" stroke="black" points="262.5,-360 173.5,-360 173.5,-324 262.5,-324 262.5,-360"/>
<text text-anchor="middle" x="218" y="-340.1" font-family="Arial" font-size="8.00">imf:AttributeQualifier</text>
</g>
<!-- http://ns.imfid.org/imf#Attribute&#45;&gt;http://ns.imfid.org/imf#AttributeQualifier -->
<g id="edge3" class="edge">
<title>http://ns.imfid.org/imf#Attribute&#45;&gt;http://ns.imfid.org/imf#AttributeQualifier</title>
<path fill="none" stroke="black" d="M214.87,-279.14C215.38,-289.29 216.04,-302.37 216.63,-313.88"/>
<polygon fill="black" stroke="black" points="213.13,-314.08 217.13,-323.89 220.12,-313.73 213.13,-314.08"/>
<text text-anchor="middle" x="259.5" y="-299.6" font-family="Arial" font-size="8.00">imf:hasAttributeQualifier</text>
</g>
<!-- http://ns.imfid.org/imf#ConnectionPoint -->
<g id="node11" class="node">
<title>http://ns.imfid.org/imf#ConnectionPoint</title>
<polygon fill="none" stroke="black" points="167,-36 79,-36 79,0 167,0 167,-36"/>
<text text-anchor="middle" x="123" y="-16.1" font-family="Arial" font-size="8.00">imf:ConnectionPoint</text>
</g>
<!-- http://ns.imfid.org/imf#ConnectionPoint&#45;&gt;http://ns.imfid.org/imf#Element -->
<g id="edge17" class="edge">
<title>http://ns.imfid.org/imf#ConnectionPoint&#45;&gt;http://ns.imfid.org/imf#Element</title>
<path fill="none" stroke="black" d="M167.2,-22.84C229.12,-28.67 335.47,-40.52 347,-54 349.6,-57.04 349.48,-59.86 347,-63 325.78,-89.92 295.08,-55.65 272,-81 252.96,-101.91 280.74,-121.97 263,-144 249.7,-160.51 227.78,-169.24 208.46,-173.84"/>
<polygon fill="black" stroke="black" points="200.65,-180.59 198.6,-170.8 200.56,-170.39 202.61,-180.18 200.65,-180.59"/>
<polyline fill="none" stroke="black" points="198.64,-175.9 203.54,-174.87 "/>
<polygon fill="black" stroke="black" points="205.54,-179.56 203.49,-169.77 205.45,-169.36 207.5,-179.15 205.54,-179.56"/>
<polyline fill="none" stroke="black" points="203.54,-174.87 208.43,-173.85 "/>
<text text-anchor="middle" x="307" y="-97.1" font-family="Arial" font-size="8.00">imf:theConnected 2</text>
</g>
<!-- http://ns.imfid.org/imf#ConnectionPoint&#45;&gt;http://ns.imfid.org/imf#Element -->
<g id="edge19" class="edge">
<title>http://ns.imfid.org/imf#ConnectionPoint&#45;&gt;http://ns.imfid.org/imf#Element</title>
<path fill="none" stroke="black" d="M121.42,-36.06C119.89,-61.39 120.19,-109.66 140,-144 141.89,-147.27 144.08,-150.54 146.4,-153.69"/>
<polygon fill="none" stroke="black" points="143.77,-156.01 152.71,-161.7 149.27,-151.68 143.77,-156.01"/>
</g>
<!-- http://ns.imfid.org/imf#ConnectionPoint&#45;&gt;http://ns.imfid.org/imf#Terminal -->
<g id="edge15" class="edge">
<title>http://ns.imfid.org/imf#ConnectionPoint&#45;&gt;http://ns.imfid.org/imf#Terminal</title>
<path fill="none" stroke="black" d="M167.2,-30.6C210.72,-42.31 278.91,-61.4 337,-81 338.6,-81.54 340.23,-82.1 341.87,-82.68"/>
<polygon fill="black" stroke="black" points="340.71,-85.99 351.31,-86.13 343.11,-79.41 340.71,-85.99"/>
<text text-anchor="middle" x="311" y="-56.6" font-family="Arial" font-size="8.00">imf:theConnected</text>
</g>
<!-- http://ns.imfid.org/imf#RegularityQualifier -->
<g id="node12" class="node">
<title>http://ns.imfid.org/imf#RegularityQualifier</title>
<polygon fill="none" stroke="black" points="802.5,-36 707.5,-36 707.5,0 802.5,0 802.5,-36"/>
<text text-anchor="middle" x="755" y="-16.1" font-family="Arial" font-size="8.00">imf:RegularityQualifier</text>
</g>
<!-- http://ns.imfid.org/imf#inputFlow -->
<g id="node13" class="node">
<title>http://ns.imfid.org/imf#inputFlow</title>
<polygon fill="none" stroke="black" points="656,-117 592,-117 592,-81 656,-81 656,-117"/>
<text text-anchor="middle" x="624" y="-97.1" font-family="Arial" font-size="8.00">imf:inputFlow</text>
</g>
<!-- http://ns.imfid.org/imf#inputFlow&#45;&gt;http://ns.imfid.org/imf#TerminalQualifier -->
<g id="edge12" class="edge">
<title>http://ns.imfid.org/imf#inputFlow&#45;&gt;http://ns.imfid.org/imf#TerminalQualifier</title>
<path fill="none" stroke="black" stroke-dasharray="1,5" d="M605.56,-117.14C593.64,-128.22 577.96,-142.79 564.81,-155.01"/>
<polygon fill="black" stroke="black" points="562.35,-152.52 557.41,-161.89 567.12,-157.65 562.35,-152.52"/>
</g>
<!-- http://ns.imfid.org/imf#InputTerminal -->
<g id="node15" class="node">
<title>http://ns.imfid.org/imf#InputTerminal</title>
<polygon fill="none" stroke="black" points="370.5,-36 293.5,-36 293.5,0 370.5,0 370.5,-36"/>
<text text-anchor="middle" x="332" y="-16.1" font-family="Arial" font-size="8.00">imf:InputTerminal</text>
</g>
<!-- http://ns.imfid.org/imf#InputTerminal&#45;&gt;http://ns.imfid.org/imf#Terminal -->
<g id="edge6" class="edge">
<title>http://ns.imfid.org/imf#InputTerminal&#45;&gt;http://ns.imfid.org/imf#Terminal</title>
<path fill="none" stroke="black" d="M342.63,-36.14C349.18,-46.7 357.7,-60.44 365.05,-72.29"/>
<polygon fill="none" stroke="black" points="362.14,-74.24 370.39,-80.89 368.09,-70.55 362.14,-74.24"/>
</g>
<!-- http://ns.imfid.org/imf#RangeQualifier -->
<g id="node16" class="node">
<title>http://ns.imfid.org/imf#RangeQualifier</title>
<polygon fill="none" stroke="black" points="903.5,-36 820.5,-36 820.5,0 903.5,0 903.5,-36"/>
<text text-anchor="middle" x="862" y="-16.1" font-family="Arial" font-size="8.00">imf:RangeQualifier</text>
</g>
<!-- http://ns.imfid.org/imf#OutputTerminal -->
<g id="node17" class="node">
<title>http://ns.imfid.org/imf#OutputTerminal</title>
<polygon fill="none" stroke="black" points="471.5,-36 388.5,-36 388.5,0 471.5,0 471.5,-36"/>
<text text-anchor="middle" x="430" y="-16.1" font-family="Arial" font-size="8.00">imf:OutputTerminal</text>
</g>
<!-- http://ns.imfid.org/imf#OutputTerminal&#45;&gt;http://ns.imfid.org/imf#Terminal -->
<g id="edge1" class="edge">
<title>http://ns.imfid.org/imf#OutputTerminal&#45;&gt;http://ns.imfid.org/imf#Terminal</title>
<path fill="none" stroke="black" d="M419.37,-36.14C412.82,-46.7 404.3,-60.44 396.95,-72.29"/>
<polygon fill="none" stroke="black" points="393.91,-70.55 391.61,-80.89 399.86,-74.24 393.91,-70.55"/>
</g>
<!-- http://ns.imfid.org/imf#AspectElement -->
<g id="node18" class="node">
<title>http://ns.imfid.org/imf#AspectElement</title>
<polygon fill="none" stroke="black" points="1004.5,-36 921.5,-36 921.5,0 1004.5,0 1004.5,-36"/>
<text text-anchor="middle" x="963" y="-16.1" font-family="Arial" font-size="8.00">imf:AspectElement</text>
</g>
</g>
</svg>

