<?xml version="1.0" encoding="UTF-8" standalone="no"?>
<!DOCTYPE svg PUBLIC "-//W3C//DTD SVG 1.1//EN"
 "http://www.w3.org/Graphics/SVG/1.1/DTD/svg11.dtd">
<!-- Generated by graphviz version 2.43.0 (0)
 -->
<!-- Title: urn:temp#graph Pages: 1 -->
<svg width="2072px" height="271px"
 viewBox="0.00 0.00 2071.50 271.00" xmlns="http://www.w3.org/2000/svg" xmlns:xlink="http://www.w3.org/1999/xlink">
<g id="graph0" class="graph" transform="scale(1.0 1.0) rotate(0) translate(4 267)">
<title>urn:temp#graph</title>
<polygon fill="white" stroke="transparent" points="-4,4 -4,-267 2067.5,-267 2067.5,4 -4,4"/>
<!-- http://ns.imfid.org/imf#Element -->
<g id="node1" class="node">
<title>http://ns.imfid.org/imf#Element</title>
<polygon fill="none" stroke="black" points="297,-36 238,-36 238,0 297,0 297,-36"/>
<text text-anchor="middle" x="267.5" y="-16.1" font-family="Arial" font-size="8.00">imf:Element</text>
</g>
<!-- 42b9c3e3&#45;fac0&#45;4f5a&#45;9c4e&#45;b3c3af4d6b28 -->
<g id="node8" class="node">
<title>42b9c3e3&#45;fac0&#45;4f5a&#45;9c4e&#45;b3c3af4d6b28</title>
<polygon fill="#e5e5e5" stroke="black" stroke-dasharray="5,2" points="376,-110 159,-110 159,-88 376,-88 376,-110"/>
<text text-anchor="middle" x="267.5" y="-97.1" font-family="Arial" font-size="8.00">42b9c3e3&#45;fac0&#45;4f5a&#45;9c4e&#45;b3c3af4d6b28,owl:Restriction</text>
</g>
<!-- http://ns.imfid.org/imf#Element&#45;&gt;42b9c3e3&#45;fac0&#45;4f5a&#45;9c4e&#45;b3c3af4d6b28 -->
<g id="edge9" class="edge">
<title>http://ns.imfid.org/imf#Element&#45;&gt;42b9c3e3&#45;fac0&#45;4f5a&#45;9c4e&#45;b3c3af4d6b28</title>
<path fill="none" stroke="black" d="M267.5,-36.14C267.5,-48.36 267.5,-64.82 267.5,-77.7"/>
<polygon fill="none" stroke="black" points="264,-77.89 267.5,-87.89 271,-77.89 264,-77.89"/>
</g>
<!-- 683c6c1a&#45;a923&#45;47d2&#45;8ae8&#45;b4e0c4ddd5bc -->
<g id="node2" class="node">
<title>683c6c1a&#45;a923&#45;47d2&#45;8ae8&#45;b4e0c4ddd5bc</title>
<polygon fill="#e5e5e5" stroke="black" stroke-dasharray="5,2" points="1103.5,-183 879.5,-183 879.5,-161 1103.5,-161 1103.5,-183"/>
<text text-anchor="middle" x="991.5" y="-170.1" font-family="Arial" font-size="8.00">683c6c1a&#45;a923&#45;47d2&#45;8ae8&#45;b4e0c4ddd5bc,owl:Restriction</text>
</g>
<!-- http://ns.imfid.org/imf#Aspect -->
<g id="node3" class="node">
<title>http://ns.imfid.org/imf#Aspect</title>
<polygon fill="none" stroke="black" points="714.5,-36 660.5,-36 660.5,0 714.5,0 714.5,-36"/>
<text text-anchor="middle" x="687.5" y="-16.1" font-family="Arial" font-size="8.00">imf:Aspect</text>
</g>
<!-- b4b03a83&#45;fa7c&#45;4d4a&#45;8fba&#45;abbd7a72a345 -->
<g id="node4" class="node">
<title>b4b03a83&#45;fa7c&#45;4d4a&#45;8fba&#45;abbd7a72a345</title>
<polygon fill="#e5e5e5" stroke="black" stroke-dasharray="5,2" points="799,-110 578,-110 578,-88 799,-88 799,-110"/>
<text text-anchor="middle" x="688.5" y="-97.1" font-family="Arial" font-size="8.00">b4b03a83&#45;fa7c&#45;4d4a&#45;8fba&#45;abbd7a72a345,owl:Restriction</text>
</g>
<!-- a9522824&#45;1cfc&#45;4c84&#45;91cb&#45;3fe5ebeb4021 -->
<g id="node5" class="node">
<title>a9522824&#45;1cfc&#45;4c84&#45;91cb&#45;3fe5ebeb4021</title>
<polygon fill="#e5e5e5" stroke="black" stroke-dasharray="5,2" points="458,-256 239,-256 239,-234 458,-234 458,-256"/>
<text text-anchor="middle" x="348.5" y="-243.1" font-family="Arial" font-size="8.00">a9522824&#45;1cfc&#45;4c84&#45;91cb&#45;3fe5ebeb4021,owl:Restriction</text>
</g>
<!-- http://ns.imfid.org/imf#Terminal -->
<g id="node6" class="node">
<title>http://ns.imfid.org/imf#Terminal</title>
<polygon fill="none" stroke="black" points="1203,-36 1144,-36 1144,0 1203,0 1203,-36"/>
<text text-anchor="middle" x="1173.5" y="-16.1" font-family="Arial" font-size="8.00">imf:Terminal</text>
</g>
<!-- 94636e10&#45;4235&#45;4213&#45;8d98&#45;57aae6741e30 -->
<g id="node23" class="node">
<title>94636e10&#45;4235&#45;4213&#45;8d98&#45;57aae6741e30</title>
<polygon fill="#e5e5e5" stroke="black" stroke-dasharray="5,2" points="1287,-110 1060,-110 1060,-88 1287,-88 1287,-110"/>
<text text-anchor="middle" x="1173.5" y="-97.1" font-family="Arial" font-size="8.00">94636e10&#45;4235&#45;4213&#45;8d98&#45;57aae6741e30,owl:Restriction</text>
</g>
<!-- http://ns.imfid.org/imf#Terminal&#45;&gt;94636e10&#45;4235&#45;4213&#45;8d98&#45;57aae6741e30 -->
<g id="edge4" class="edge">
<title>http://ns.imfid.org/imf#Terminal&#45;&gt;94636e10&#45;4235&#45;4213&#45;8d98&#45;57aae6741e30</title>
<path fill="none" stroke="black" d="M1173.5,-36.14C1173.5,-48.36 1173.5,-64.82 1173.5,-77.7"/>
<polygon fill="none" stroke="black" points="1170,-77.89 1173.5,-87.89 1177,-77.89 1170,-77.89"/>
</g>
<!-- http://ns.imfid.org/imf#TerminalType -->
<g id="node7" class="node">
<title>http://ns.imfid.org/imf#TerminalType</title>
<polygon fill="none" stroke="black" points="560,-117 483,-117 483,-81 560,-81 560,-117"/>
<text text-anchor="middle" x="521.5" y="-97.1" font-family="Arial" font-size="8.00">imf:TerminalType</text>
</g>
<!-- http://ns.imfid.org/imf#TerminalType&#45;&gt;683c6c1a&#45;a923&#45;47d2&#45;8ae8&#45;b4e0c4ddd5bc -->
<g id="edge6" class="edge">
<title>http://ns.imfid.org/imf#TerminalType&#45;&gt;683c6c1a&#45;a923&#45;47d2&#45;8ae8&#45;b4e0c4ddd5bc</title>
<path fill="none" stroke="black" d="M560.02,-114.71C562.87,-115.56 565.72,-116.33 568.5,-117 699.59,-148.34 735.86,-136.48 869.5,-154 882.89,-155.76 897.11,-157.68 910.92,-159.58"/>
<polygon fill="none" stroke="black" points="910.5,-163.06 920.89,-160.96 911.46,-156.13 910.5,-163.06"/>
</g>
<!-- http://ns.imfid.org/imf#ElementType -->
<g id="node9" class="node">
<title>http://ns.imfid.org/imf#ElementType</title>
<polygon fill="none" stroke="black" points="408.5,-190 332.5,-190 332.5,-154 408.5,-154 408.5,-190"/>
<text text-anchor="middle" x="370.5" y="-170.1" font-family="Arial" font-size="8.00">imf:ElementType</text>
</g>
<!-- http://ns.imfid.org/imf#TerminalType&#45;&gt;http://ns.imfid.org/imf#ElementType -->
<g id="edge8" class="edge">
<title>http://ns.imfid.org/imf#TerminalType&#45;&gt;http://ns.imfid.org/imf#ElementType</title>
<path fill="none" stroke="black" d="M485.33,-117.01C464.57,-126.77 438.29,-139.12 416.12,-149.55"/>
<polygon fill="none" stroke="black" points="414.46,-146.46 406.9,-153.89 417.44,-152.8 414.46,-146.46"/>
</g>
<!-- d1bc0760&#45;b306&#45;43a7&#45;ac86&#45;adfc60d7ddb3 -->
<g id="node11" class="node">
<title>d1bc0760&#45;b306&#45;43a7&#45;ac86&#45;adfc60d7ddb3</title>
<polygon fill="#e5e5e5" stroke="black" stroke-dasharray="5,2" points="648.5,-183 426.5,-183 426.5,-161 648.5,-161 648.5,-183"/>
<text text-anchor="middle" x="537.5" y="-170.1" font-family="Arial" font-size="8.00">d1bc0760&#45;b306&#45;43a7&#45;ac86&#45;adfc60d7ddb3,owl:Restriction</text>
</g>
<!-- http://ns.imfid.org/imf#TerminalType&#45;&gt;d1bc0760&#45;b306&#45;43a7&#45;ac86&#45;adfc60d7ddb3 -->
<g id="edge13" class="edge">
<title>http://ns.imfid.org/imf#TerminalType&#45;&gt;d1bc0760&#45;b306&#45;43a7&#45;ac86&#45;adfc60d7ddb3</title>
<path fill="none" stroke="black" d="M525.37,-117.19C527.65,-127.3 530.55,-140.14 532.94,-150.75"/>
<polygon fill="none" stroke="black" points="529.58,-151.79 535.2,-160.78 536.41,-150.25 529.58,-151.79"/>
</g>
<!-- http://ns.imfid.org/imf#ElementType&#45;&gt;a9522824&#45;1cfc&#45;4c84&#45;91cb&#45;3fe5ebeb4021 -->
<g id="edge14" class="edge">
<title>http://ns.imfid.org/imf#ElementType&#45;&gt;a9522824&#45;1cfc&#45;4c84&#45;91cb&#45;3fe5ebeb4021</title>
<path fill="none" stroke="black" d="M365.17,-190.19C362.01,-200.41 357.98,-213.41 354.67,-224.08"/>
<polygon fill="none" stroke="black" points="351.28,-223.19 351.67,-233.78 357.97,-225.26 351.28,-223.19"/>
</g>
<!-- 37fc0961&#45;7c62&#45;40fa&#45;ac6f&#45;39798b5e6b5e -->
<g id="node18" class="node">
<title>37fc0961&#45;7c62&#45;40fa&#45;ac6f&#45;39798b5e6b5e</title>
<polygon fill="#e5e5e5" stroke="black" stroke-dasharray="5,2" points="694.5,-256 476.5,-256 476.5,-234 694.5,-234 694.5,-256"/>
<text text-anchor="middle" x="585.5" y="-243.1" font-family="Arial" font-size="8.00">37fc0961&#45;7c62&#45;40fa&#45;ac6f&#45;39798b5e6b5e,owl:Restriction</text>
</g>
<!-- http://ns.imfid.org/imf#ElementType&#45;&gt;37fc0961&#45;7c62&#45;40fa&#45;ac6f&#45;39798b5e6b5e -->
<g id="edge15" class="edge">
<title>http://ns.imfid.org/imf#ElementType&#45;&gt;37fc0961&#45;7c62&#45;40fa&#45;ac6f&#45;39798b5e6b5e</title>
<path fill="none" stroke="black" d="M408.68,-186.94C411.66,-187.99 414.63,-189.02 417.5,-190 460.25,-204.6 509.48,-220.29 543.55,-230.98"/>
<polygon fill="none" stroke="black" points="542.59,-234.34 553.18,-233.99 544.68,-227.66 542.59,-234.34"/>
</g>
<!-- http://ns.imfid.org/imf#Type -->
<g id="node22" class="node">
<title>http://ns.imfid.org/imf#Type</title>
<polygon fill="none" stroke="black" points="766.5,-263 712.5,-263 712.5,-227 766.5,-227 766.5,-263"/>
<text text-anchor="middle" x="739.5" y="-243.1" font-family="Arial" font-size="8.00">imf:Type</text>
</g>
<!-- http://ns.imfid.org/imf#ElementType&#45;&gt;http://ns.imfid.org/imf#Type -->
<g id="edge18" class="edge">
<title>http://ns.imfid.org/imf#ElementType&#45;&gt;http://ns.imfid.org/imf#Type</title>
<path fill="none" stroke="black" d="M408.51,-187.53C411.53,-188.45 414.55,-189.28 417.5,-190 538.9,-219.43 578.49,-192.42 702.47,-227.24"/>
<polygon fill="none" stroke="black" points="701.75,-230.68 712.33,-230.09 703.69,-223.95 701.75,-230.68"/>
</g>
<!-- af4726ad&#45;2756&#45;4c49&#45;bc88&#45;e8c970ea046c -->
<g id="node26" class="node">
<title>af4726ad&#45;2756&#45;4c49&#45;bc88&#45;e8c970ea046c</title>
<polygon fill="#e5e5e5" stroke="black" stroke-dasharray="5,2" points="221,-256 0,-256 0,-234 221,-234 221,-256"/>
<text text-anchor="middle" x="110.5" y="-243.1" font-family="Arial" font-size="8.00">af4726ad&#45;2756&#45;4c49&#45;bc88&#45;e8c970ea046c,owl:Restriction</text>
</g>
<!-- http://ns.imfid.org/imf#ElementType&#45;&gt;af4726ad&#45;2756&#45;4c49&#45;bc88&#45;e8c970ea046c -->
<g id="edge10" class="edge">
<title>http://ns.imfid.org/imf#ElementType&#45;&gt;af4726ad&#45;2756&#45;4c49&#45;bc88&#45;e8c970ea046c</title>
<path fill="none" stroke="black" d="M332.42,-183.4C285.97,-196.08 207.46,-217.52 157.36,-231.2"/>
<polygon fill="none" stroke="black" points="156.15,-227.91 147.42,-233.92 157.99,-234.66 156.15,-227.91"/>
</g>
<!-- http://ns.imfid.org/imf#AttributeGroup -->
<g id="node10" class="node">
<title>http://ns.imfid.org/imf#AttributeGroup</title>
<polygon fill="none" stroke="black" points="1453.5,-36 1371.5,-36 1371.5,0 1453.5,0 1453.5,-36"/>
<text text-anchor="middle" x="1412.5" y="-16.1" font-family="Arial" font-size="8.00">imf:AttributeGroup</text>
</g>
<!-- 2006fb81&#45;d29f&#45;4edc&#45;979f&#45;9f4f20a3a647 -->
<g id="node13" class="node">
<title>2006fb81&#45;d29f&#45;4edc&#45;979f&#45;9f4f20a3a647</title>
<polygon fill="#e5e5e5" stroke="black" stroke-dasharray="5,2" points="1520,-110 1305,-110 1305,-88 1520,-88 1520,-110"/>
<text text-anchor="middle" x="1412.5" y="-97.1" font-family="Arial" font-size="8.00">2006fb81&#45;d29f&#45;4edc&#45;979f&#45;9f4f20a3a647,owl:Restriction</text>
</g>
<!-- http://ns.imfid.org/imf#AttributeGroup&#45;&gt;2006fb81&#45;d29f&#45;4edc&#45;979f&#45;9f4f20a3a647 -->
<g id="edge3" class="edge">
<title>http://ns.imfid.org/imf#AttributeGroup&#45;&gt;2006fb81&#45;d29f&#45;4edc&#45;979f&#45;9f4f20a3a647</title>
<path fill="none" stroke="black" d="M1412.5,-36.14C1412.5,-48.36 1412.5,-64.82 1412.5,-77.7"/>
<polygon fill="none" stroke="black" points="1409,-77.89 1412.5,-87.89 1416,-77.89 1409,-77.89"/>
</g>
<!-- 328285b3&#45;241f&#45;43d9&#45;8b74&#45;cf6b36f5c9e2 -->
<g id="node12" class="node">
<title>328285b3&#45;241f&#45;43d9&#45;8b74&#45;cf6b36f5c9e2</title>
<polygon fill="#e5e5e5" stroke="black" stroke-dasharray="5,2" points="1756.5,-110 1538.5,-110 1538.5,-88 1756.5,-88 1756.5,-110"/>
<text text-anchor="middle" x="1647.5" y="-97.1" font-family="Arial" font-size="8.00">328285b3&#45;241f&#45;43d9&#45;8b74&#45;cf6b36f5c9e2,owl:Restriction</text>
</g>
<!-- http://ns.imfid.org/imf#Block -->
<g id="node14" class="node">
<title>http://ns.imfid.org/imf#Block</title>
<polygon fill="none" stroke="black" points="1911.5,-36 1857.5,-36 1857.5,0 1911.5,0 1911.5,-36"/>
<text text-anchor="middle" x="1884.5" y="-16.1" font-family="Arial" font-size="8.00">imf:Block</text>
</g>
<!-- 18caf413&#45;ed7d&#45;4b16&#45;8508&#45;0fabe4bf63a8 -->
<g id="node20" class="node">
<title>18caf413&#45;ed7d&#45;4b16&#45;8508&#45;0fabe4bf63a8</title>
<polygon fill="#e5e5e5" stroke="black" stroke-dasharray="5,2" points="1994,-110 1775,-110 1775,-88 1994,-88 1994,-110"/>
<text text-anchor="middle" x="1884.5" y="-97.1" font-family="Arial" font-size="8.00">18caf413&#45;ed7d&#45;4b16&#45;8508&#45;0fabe4bf63a8,owl:Restriction</text>
</g>
<!-- http://ns.imfid.org/imf#Block&#45;&gt;18caf413&#45;ed7d&#45;4b16&#45;8508&#45;0fabe4bf63a8 -->
<g id="edge11" class="edge">
<title>http://ns.imfid.org/imf#Block&#45;&gt;18caf413&#45;ed7d&#45;4b16&#45;8508&#45;0fabe4bf63a8</title>
<path fill="none" stroke="black" d="M1884.5,-36.14C1884.5,-48.36 1884.5,-64.82 1884.5,-77.7"/>
<polygon fill="none" stroke="black" points="1881,-77.89 1884.5,-87.89 1888,-77.89 1881,-77.89"/>
</g>
<!-- http://ns.imfid.org/imf#AttributeGroupType -->
<g id="node15" class="node">
<title>http://ns.imfid.org/imf#AttributeGroupType</title>
<polygon fill="none" stroke="black" points="766,-190 667,-190 667,-154 766,-154 766,-190"/>
<text text-anchor="middle" x="716.5" y="-170.1" font-family="Arial" font-size="8.00">imf:AttributeGroupType</text>
</g>
<!-- http://ns.imfid.org/imf#AttributeGroupType&#45;&gt;http://ns.imfid.org/imf#Type -->
<g id="edge7" class="edge">
<title>http://ns.imfid.org/imf#AttributeGroupType&#45;&gt;http://ns.imfid.org/imf#Type</title>
<path fill="none" stroke="black" d="M722.07,-190.19C724.7,-198.3 727.89,-208.16 730.83,-217.22"/>
<polygon fill="none" stroke="black" points="727.57,-218.54 733.98,-226.97 734.23,-216.38 727.57,-218.54"/>
</g>
<!-- http://ns.imfid.org/imf#BlockType -->
<g id="node16" class="node">
<title>http://ns.imfid.org/imf#BlockType</title>
<polygon fill="none" stroke="black" points="479,-36 414,-36 414,0 479,0 479,-36"/>
<text text-anchor="middle" x="446.5" y="-16.1" font-family="Arial" font-size="8.00">imf:BlockType</text>
</g>
<!-- http://ns.imfid.org/imf#BlockType&#45;&gt;http://ns.imfid.org/imf#TerminalType -->
<g id="edge12" class="edge">
<title>http://ns.imfid.org/imf#BlockType&#45;&gt;http://ns.imfid.org/imf#TerminalType</title>
<path fill="none" stroke="black" d="M462.77,-36.14C473.09,-47.01 486.61,-61.25 498.07,-73.33"/>
<polygon fill="black" stroke="black" points="495.83,-76.05 505.26,-80.89 500.91,-71.23 495.83,-76.05"/>
<text text-anchor="middle" x="523" y="-56.6" font-family="Arial" font-size="8.00">imf:hasTerminalType</text>
</g>
<!-- http://ns.imfid.org/imf#BlockType&#45;&gt;http://ns.imfid.org/imf#ElementType -->
<g id="edge16" class="edge">
<title>http://ns.imfid.org/imf#BlockType&#45;&gt;http://ns.imfid.org/imf#ElementType</title>
<path fill="none" stroke="black" d="M437.93,-36.14C424.7,-62.6 399.21,-113.57 383.64,-144.71"/>
<polygon fill="none" stroke="black" points="380.5,-143.18 379.16,-153.69 386.76,-146.31 380.5,-143.18"/>
</g>
<!-- http://ns.imfid.org/imf#Attribute -->
<g id="node17" class="node">
<title>http://ns.imfid.org/imf#Attribute</title>
<polygon fill="none" stroke="black" points="1677,-36 1618,-36 1618,0 1677,0 1677,-36"/>
<text text-anchor="middle" x="1647.5" y="-16.1" font-family="Arial" font-size="8.00">imf:Attribute</text>
</g>
<!-- http://ns.imfid.org/imf#Attribute&#45;&gt;328285b3&#45;241f&#45;43d9&#45;8b74&#45;cf6b36f5c9e2 -->
<g id="edge5" class="edge">
<title>http://ns.imfid.org/imf#Attribute&#45;&gt;328285b3&#45;241f&#45;43d9&#45;8b74&#45;cf6b36f5c9e2</title>
<path fill="none" stroke="black" d="M1647.5,-36.14C1647.5,-48.36 1647.5,-64.82 1647.5,-77.7"/>
<polygon fill="none" stroke="black" points="1644,-77.89 1647.5,-87.89 1651,-77.89 1644,-77.89"/>
</g>
<!-- http://ns.imfid.org/imf#Direction -->
<g id="node19" class="node">
<title>http://ns.imfid.org/imf#Direction</title>
<polygon fill="none" stroke="black" points="1991,-36 1930,-36 1930,0 1991,0 1991,-36"/>
<text text-anchor="middle" x="1960.5" y="-16.1" font-family="Arial" font-size="8.00">imf:Direction</text>
</g>
<!-- 321e5def&#45;7b63&#45;4dde&#45;b965&#45;1e327eeca054 -->
<g id="node21" class="node">
<title>321e5def&#45;7b63&#45;4dde&#45;b965&#45;1e327eeca054</title>
<polygon fill="#e5e5e5" stroke="black" stroke-dasharray="5,2" points="1041.5,-110 817.5,-110 817.5,-88 1041.5,-88 1041.5,-110"/>
<text text-anchor="middle" x="929.5" y="-97.1" font-family="Arial" font-size="8.00">321e5def&#45;7b63&#45;4dde&#45;b965&#45;1e327eeca054,owl:Restriction</text>
</g>
<!-- http://ns.imfid.org/imf#TypeConstraint -->
<g id="node24" class="node">
<title>http://ns.imfid.org/imf#TypeConstraint</title>
<polygon fill="none" stroke="black" points="850,-36 767,-36 767,0 850,0 850,-36"/>
<text text-anchor="middle" x="808.5" y="-16.1" font-family="Arial" font-size="8.00">imf:TypeConstraint</text>
</g>
<!-- http://ns.imfid.org/imf#TypeConstraint&#45;&gt;b4b03a83&#45;fa7c&#45;4d4a&#45;8fba&#45;abbd7a72a345 -->
<g id="edge2" class="edge">
<title>http://ns.imfid.org/imf#TypeConstraint&#45;&gt;b4b03a83&#45;fa7c&#45;4d4a&#45;8fba&#45;abbd7a72a345</title>
<path fill="none" stroke="black" d="M782.46,-36.14C761.57,-49.9 732.48,-69.05 712.22,-82.38"/>
<polygon fill="none" stroke="black" points="710.29,-79.46 703.86,-87.89 714.14,-85.31 710.29,-79.46"/>
</g>
<!-- http://ns.imfid.org/imf#TypeConstraint&#45;&gt;321e5def&#45;7b63&#45;4dde&#45;b965&#45;1e327eeca054 -->
<g id="edge1" class="edge">
<title>http://ns.imfid.org/imf#TypeConstraint&#45;&gt;321e5def&#45;7b63&#45;4dde&#45;b965&#45;1e327eeca054</title>
<path fill="none" stroke="black" d="M834.76,-36.14C855.83,-49.9 885.16,-69.05 905.58,-82.38"/>
<polygon fill="none" stroke="black" points="903.72,-85.35 914.01,-87.89 907.55,-79.49 903.72,-85.35"/>
</g>
<!-- http://www.w3.org/2002/07/owl#Thing -->
<g id="node25" class="node">
<title>http://www.w3.org/2002/07/owl#Thing</title>
<polygon fill="none" stroke="black" points="2063.5,-36 2009.5,-36 2009.5,0 2063.5,0 2063.5,-36"/>
<text text-anchor="middle" x="2036.5" y="-16.1" font-family="Arial" font-size="8.00">owl:Thing</text>
</g>
<!-- http://ns.imfid.org/imf#AttributeType -->
<g id="node27" class="node">
<title>http://ns.imfid.org/imf#AttributeType</title>
<polygon fill="none" stroke="black" points="861,-190 784,-190 784,-154 861,-154 861,-190"/>
<text text-anchor="middle" x="822.5" y="-170.1" font-family="Arial" font-size="8.00">imf:AttributeType</text>
</g>
<!-- http://ns.imfid.org/imf#AttributeType&#45;&gt;http://ns.imfid.org/imf#Type -->
<g id="edge17" class="edge">
<title>http://ns.imfid.org/imf#AttributeType&#45;&gt;http://ns.imfid.org/imf#Type</title>
<path fill="none" stroke="black" d="M802.41,-190.19C791.81,-199.26 778.63,-210.52 767.09,-220.4"/>
<polygon fill="none" stroke="black" points="764.73,-217.81 759.41,-226.97 769.28,-223.13 764.73,-217.81"/>
</g>
</g>
</svg>

