<?xml version="1.0" encoding="UTF-8" standalone="no"?>
<!DOCTYPE svg PUBLIC "-//W3C//DTD SVG 1.1//EN"
 "http://www.w3.org/Graphics/SVG/1.1/DTD/svg11.dtd">
<!-- Generated by graphviz version 2.43.0 (0)
 -->
<!-- Title: urn:temp#graph Pages: 1 -->
<svg width="1341px" height="271px"
 viewBox="0.00 0.00 1340.50 271.00" xmlns="http://www.w3.org/2000/svg" xmlns:xlink="http://www.w3.org/1999/xlink">
<g id="graph0" class="graph" transform="scale(1.0 1.0) rotate(0) translate(4 267)">
<title>urn:temp#graph</title>
<polygon fill="white" stroke="transparent" points="-4,4 -4,-267 1336.5,-267 1336.5,4 -4,4"/>
<!-- http://ns.imfid.org/imf#FunctionAspect -->
<g id="node1" class="node">
<title>http://ns.imfid.org/imf#FunctionAspect</title>
<polygon fill="none" stroke="black" points="183.5,-182 99.5,-182 99.5,-146 183.5,-146 183.5,-182"/>
<text text-anchor="middle" x="141.5" y="-162.1" font-family="Arial" font-size="8.00">imf:FunctionAspect</text>
</g>
<!-- http://ns.imfid.org/imf#Aspect -->
<g id="node4" class="node">
<title>http://ns.imfid.org/imf#Aspect</title>
<polygon fill="none" stroke="black" points="270.5,-263 216.5,-263 216.5,-227 270.5,-227 270.5,-263"/>
<text text-anchor="middle" x="243.5" y="-243.1" font-family="Arial" font-size="8.00">imf:Aspect</text>
</g>
<!-- http://ns.imfid.org/imf#FunctionAspect&#45;&gt;http://ns.imfid.org/imf#Aspect -->
<g id="edge27" class="edge">
<title>http://ns.imfid.org/imf#FunctionAspect&#45;&gt;http://ns.imfid.org/imf#Aspect</title>
<path fill="none" stroke="black" stroke-dasharray="1,5" d="M163.63,-182.14C178.2,-193.43 197.46,-208.34 213.41,-220.7"/>
<polygon fill="black" stroke="black" points="211.36,-223.54 221.41,-226.89 215.65,-218 211.36,-223.54"/>
</g>
<!-- http://ns.imfid.org/imf#InstalledAspect -->
<g id="node2" class="node">
<title>http://ns.imfid.org/imf#InstalledAspect</title>
<polygon fill="none" stroke="black" points="285,-182 202,-182 202,-146 285,-146 285,-182"/>
<text text-anchor="middle" x="243.5" y="-162.1" font-family="Arial" font-size="8.00">imf:InstalledAspect</text>
</g>
<!-- http://ns.imfid.org/imf#InstalledAspect&#45;&gt;http://ns.imfid.org/imf#Aspect -->
<g id="edge6" class="edge">
<title>http://ns.imfid.org/imf#InstalledAspect&#45;&gt;http://ns.imfid.org/imf#Aspect</title>
<path fill="none" stroke="black" stroke-dasharray="1,5" d="M243.5,-182.14C243.5,-192.29 243.5,-205.37 243.5,-216.88"/>
<polygon fill="black" stroke="black" points="240,-216.89 243.5,-226.89 247,-216.89 240,-216.89"/>
</g>
<!-- http://ns.imfid.org/imf#FunctionTerminal -->
<g id="node3" class="node">
<title>http://ns.imfid.org/imf#FunctionTerminal</title>
<polygon fill="none" stroke="black" points="1018.5,-36 928.5,-36 928.5,0 1018.5,0 1018.5,-36"/>
<text text-anchor="middle" x="973.5" y="-16.1" font-family="Arial" font-size="8.00">imf:FunctionTerminal</text>
</g>
<!-- http://ns.imfid.org/imf#Terminal -->
<g id="node5" class="node">
<title>http://ns.imfid.org/imf#Terminal</title>
<polygon fill="none" stroke="black" points="1111,-109 1052,-109 1052,-73 1111,-73 1111,-109"/>
<text text-anchor="middle" x="1081.5" y="-89.1" font-family="Arial" font-size="8.00">imf:Terminal</text>
</g>
<!-- http://ns.imfid.org/imf#FunctionTerminal&#45;&gt;http://ns.imfid.org/imf#Terminal -->
<g id="edge13" class="edge">
<title>http://ns.imfid.org/imf#FunctionTerminal&#45;&gt;http://ns.imfid.org/imf#Terminal</title>
<path fill="none" stroke="black" d="M999.37,-36.01C1013.56,-45.33 1031.34,-57.03 1046.73,-67.14"/>
<polygon fill="none" stroke="black" points="1045.19,-70.32 1055.47,-72.89 1049.03,-64.47 1045.19,-70.32"/>
</g>
<!-- http://ns.imfid.org/imf#FunctionElement -->
<g id="node15" class="node">
<title>http://ns.imfid.org/imf#FunctionElement</title>
<polygon fill="none" stroke="black" points="815,-109 726,-109 726,-73 815,-73 815,-109"/>
<text text-anchor="middle" x="770.5" y="-89.1" font-family="Arial" font-size="8.00">imf:FunctionElement</text>
</g>
<!-- http://ns.imfid.org/imf#FunctionTerminal&#45;&gt;http://ns.imfid.org/imf#FunctionElement -->
<g id="edge17" class="edge">
<title>http://ns.imfid.org/imf#FunctionTerminal&#45;&gt;http://ns.imfid.org/imf#FunctionElement</title>
<path fill="none" stroke="black" d="M928.45,-34.76C897.86,-45.46 857.23,-59.67 824.84,-70.99"/>
<polygon fill="none" stroke="black" points="823.36,-67.8 815.08,-74.41 825.67,-74.41 823.36,-67.8"/>
</g>
<!-- fa4ca0a3&#45;894b&#45;445e&#45;9b42&#45;2332ff422cc6 -->
<g id="node6" class="node">
<title>fa4ca0a3&#45;894b&#45;445e&#45;9b42&#45;2332ff422cc6</title>
<polygon fill="#e5e5e5" stroke="black" stroke-dasharray="5,2" points="469.5,-177 303.5,-177 303.5,-151 469.5,-151 469.5,-177"/>
<text text-anchor="middle" x="386.5" y="-166.6" font-family="Arial" font-size="8.00">owl:Restriction</text>
<text text-anchor="middle" x="386.5" y="-157.6" font-family="Arial" font-size="8.00">,fa4ca0a3&#45;894b&#45;445e&#45;9b42&#45;2332ff422cc6</text>
</g>
<!-- http://ns.imfid.org/imf#ProductBlock -->
<g id="node7" class="node">
<title>http://ns.imfid.org/imf#ProductBlock</title>
<polygon fill="none" stroke="black" points="515.5,-36 439.5,-36 439.5,0 515.5,0 515.5,-36"/>
<text text-anchor="middle" x="477.5" y="-16.1" font-family="Arial" font-size="8.00">imf:ProductBlock</text>
</g>
<!-- http://ns.imfid.org/imf#Block -->
<g id="node14" class="node">
<title>http://ns.imfid.org/imf#Block</title>
<polygon fill="none" stroke="black" points="600.5,-109 546.5,-109 546.5,-73 600.5,-73 600.5,-109"/>
<text text-anchor="middle" x="573.5" y="-89.1" font-family="Arial" font-size="8.00">imf:Block</text>
</g>
<!-- http://ns.imfid.org/imf#ProductBlock&#45;&gt;http://ns.imfid.org/imf#Block -->
<g id="edge4" class="edge">
<title>http://ns.imfid.org/imf#ProductBlock&#45;&gt;http://ns.imfid.org/imf#Block</title>
<path fill="none" stroke="black" d="M498.85,-36.09C506.55,-42.15 515.35,-48.97 523.5,-55 528.81,-58.93 534.5,-63.02 540.07,-66.97"/>
<polygon fill="none" stroke="black" points="538.45,-70.11 548.65,-72.99 542.47,-64.38 538.45,-70.11"/>
</g>
<!-- http://ns.imfid.org/imf#ProductElement -->
<g id="node22" class="node">
<title>http://ns.imfid.org/imf#ProductElement</title>
<polygon fill="none" stroke="black" points="704.5,-109 618.5,-109 618.5,-73 704.5,-73 704.5,-109"/>
<text text-anchor="middle" x="661.5" y="-89.1" font-family="Arial" font-size="8.00">imf:ProductElement</text>
</g>
<!-- http://ns.imfid.org/imf#ProductBlock&#45;&gt;http://ns.imfid.org/imf#ProductElement -->
<g id="edge8" class="edge">
<title>http://ns.imfid.org/imf#ProductBlock&#45;&gt;http://ns.imfid.org/imf#ProductElement</title>
<path fill="none" stroke="black" d="M515.62,-33.71C542.6,-44.12 579.12,-58.21 608.87,-69.69"/>
<polygon fill="none" stroke="black" points="607.68,-72.98 618.27,-73.32 610.2,-66.45 607.68,-72.98"/>
</g>
<!-- http://ns.imfid.org/imf#InstalledElement -->
<g id="node8" class="node">
<title>http://ns.imfid.org/imf#InstalledElement</title>
<polygon fill="none" stroke="black" points="925.5,-109 837.5,-109 837.5,-73 925.5,-73 925.5,-109"/>
<text text-anchor="middle" x="881.5" y="-89.1" font-family="Arial" font-size="8.00">imf:InstalledElement</text>
</g>
<!-- http://ns.imfid.org/imf#AspectElement -->
<g id="node19" class="node">
<title>http://ns.imfid.org/imf#AspectElement</title>
<polygon fill="none" stroke="black" points="859,-182 776,-182 776,-146 859,-146 859,-182"/>
<text text-anchor="middle" x="817.5" y="-162.1" font-family="Arial" font-size="8.00">imf:AspectElement</text>
</g>
<!-- http://ns.imfid.org/imf#InstalledElement&#45;&gt;http://ns.imfid.org/imf#AspectElement -->
<g id="edge23" class="edge">
<title>http://ns.imfid.org/imf#InstalledElement&#45;&gt;http://ns.imfid.org/imf#AspectElement</title>
<path fill="none" stroke="black" d="M866.01,-109.19C858.07,-118 848.26,-128.87 839.55,-138.54"/>
<polygon fill="none" stroke="black" points="836.95,-136.2 832.85,-145.97 842.15,-140.89 836.95,-136.2"/>
</g>
<!-- 9b5b4fe3&#45;c400&#45;4d69&#45;a4a3&#45;8b2f47d31a3f -->
<g id="node25" class="node">
<title>9b5b4fe3&#45;c400&#45;4d69&#45;a4a3&#45;8b2f47d31a3f</title>
<polygon fill="#e5e5e5" stroke="black" stroke-dasharray="5,2" points="1144,-177 977,-177 977,-151 1144,-151 1144,-177"/>
<text text-anchor="middle" x="1060.5" y="-166.6" font-family="Arial" font-size="8.00">owl:Restriction</text>
<text text-anchor="middle" x="1060.5" y="-157.6" font-family="Arial" font-size="8.00">,9b5b4fe3&#45;c400&#45;4d69&#45;a4a3&#45;8b2f47d31a3f</text>
</g>
<!-- http://ns.imfid.org/imf#InstalledElement&#45;&gt;9b5b4fe3&#45;c400&#45;4d69&#45;a4a3&#45;8b2f47d31a3f -->
<g id="edge12" class="edge">
<title>http://ns.imfid.org/imf#InstalledElement&#45;&gt;9b5b4fe3&#45;c400&#45;4d69&#45;a4a3&#45;8b2f47d31a3f</title>
<path fill="none" stroke="black" d="M924.37,-109.01C953.52,-120.57 991.81,-135.76 1020.36,-147.08"/>
<polygon fill="none" stroke="black" points="1019.43,-150.48 1030.02,-150.91 1022.02,-143.97 1019.43,-150.48"/>
</g>
<!-- http://ns.imfid.org/imf#FunctionBlock -->
<g id="node9" class="node">
<title>http://ns.imfid.org/imf#FunctionBlock</title>
<polygon fill="none" stroke="black" points="613,-36 534,-36 534,0 613,0 613,-36"/>
<text text-anchor="middle" x="573.5" y="-16.1" font-family="Arial" font-size="8.00">imf:FunctionBlock</text>
</g>
<!-- http://ns.imfid.org/imf#FunctionBlock&#45;&gt;http://ns.imfid.org/imf#Block -->
<g id="edge2" class="edge">
<title>http://ns.imfid.org/imf#FunctionBlock&#45;&gt;http://ns.imfid.org/imf#Block</title>
<path fill="none" stroke="black" d="M573.5,-36.19C573.5,-44.21 573.5,-53.95 573.5,-62.93"/>
<polygon fill="none" stroke="black" points="570,-62.97 573.5,-72.97 577,-62.97 570,-62.97"/>
</g>
<!-- http://ns.imfid.org/imf#FunctionBlock&#45;&gt;http://ns.imfid.org/imf#FunctionElement -->
<g id="edge20" class="edge">
<title>http://ns.imfid.org/imf#FunctionBlock&#45;&gt;http://ns.imfid.org/imf#FunctionElement</title>
<path fill="none" stroke="black" d="M613.37,-33.37C642.91,-44.02 683.53,-58.66 716.07,-70.38"/>
<polygon fill="none" stroke="black" points="715.29,-73.82 725.88,-73.92 717.66,-67.24 715.29,-73.82"/>
</g>
<!-- http://ns.imfid.org/imf#LocationTerminal -->
<g id="node10" class="node">
<title>http://ns.imfid.org/imf#LocationTerminal</title>
<polygon fill="none" stroke="black" points="1233,-36 1144,-36 1144,0 1233,0 1233,-36"/>
<text text-anchor="middle" x="1188.5" y="-16.1" font-family="Arial" font-size="8.00">imf:LocationTerminal</text>
</g>
<!-- http://ns.imfid.org/imf#LocationTerminal&#45;&gt;http://ns.imfid.org/imf#Terminal -->
<g id="edge26" class="edge">
<title>http://ns.imfid.org/imf#LocationTerminal&#45;&gt;http://ns.imfid.org/imf#Terminal</title>
<path fill="none" stroke="black" d="M1171.38,-36.14C1164.58,-42.48 1156.48,-49.46 1148.5,-55 1139.68,-61.13 1129.65,-66.91 1120.09,-71.95"/>
<polygon fill="none" stroke="black" points="1118.43,-68.87 1111.12,-76.54 1121.61,-75.1 1118.43,-68.87"/>
</g>
<!-- http://ns.imfid.org/imf#LocationElement -->
<g id="node23" class="node">
<title>http://ns.imfid.org/imf#LocationElement</title>
<polygon fill="none" stroke="black" points="1034,-109 945,-109 945,-73 1034,-73 1034,-109"/>
<text text-anchor="middle" x="989.5" y="-89.1" font-family="Arial" font-size="8.00">imf:LocationElement</text>
</g>
<!-- http://ns.imfid.org/imf#LocationTerminal&#45;&gt;http://ns.imfid.org/imf#LocationElement -->
<g id="edge15" class="edge">
<title>http://ns.imfid.org/imf#LocationTerminal&#45;&gt;http://ns.imfid.org/imf#LocationElement</title>
<path fill="none" stroke="black" d="M1143.84,-34.93C1114.14,-45.53 1074.96,-59.51 1043.5,-70.73"/>
<polygon fill="none" stroke="black" points="1042.25,-67.46 1034.01,-74.12 1044.61,-74.06 1042.25,-67.46"/>
</g>
<!-- 67e90dfc&#45;a684&#45;4e5a&#45;87af&#45;bb413168b546 -->
<g id="node11" class="node">
<title>67e90dfc&#45;a684&#45;4e5a&#45;87af&#45;bb413168b546</title>
<polygon fill="#e5e5e5" stroke="black" stroke-dasharray="5,2" points="1332.5,-177 1162.5,-177 1162.5,-151 1332.5,-151 1332.5,-177"/>
<text text-anchor="middle" x="1247.5" y="-166.6" font-family="Arial" font-size="8.00">owl:Restriction</text>
<text text-anchor="middle" x="1247.5" y="-157.6" font-family="Arial" font-size="8.00">,67e90dfc&#45;a684&#45;4e5a&#45;87af&#45;bb413168b546</text>
</g>
<!-- http://ns.imfid.org/imf#LocationAspect -->
<g id="node12" class="node">
<title>http://ns.imfid.org/imf#LocationAspect</title>
<polygon fill="none" stroke="black" points="758,-182 675,-182 675,-146 758,-146 758,-182"/>
<text text-anchor="middle" x="716.5" y="-162.1" font-family="Arial" font-size="8.00">imf:LocationAspect</text>
</g>
<!-- http://ns.imfid.org/imf#LocationAspect&#45;&gt;http://ns.imfid.org/imf#Aspect -->
<g id="edge24" class="edge">
<title>http://ns.imfid.org/imf#LocationAspect&#45;&gt;http://ns.imfid.org/imf#Aspect</title>
<path fill="none" stroke="black" stroke-dasharray="1,5" d="M674.92,-179.52C671.75,-180.43 668.59,-181.26 665.5,-182 525.61,-215.32 355.11,-233.77 280.95,-240.73"/>
<polygon fill="black" stroke="black" points="280.36,-237.27 270.72,-241.67 281,-244.24 280.36,-237.27"/>
</g>
<!-- 81dd21b1&#45;73ca&#45;40c3&#45;b195&#45;689f56f98984 -->
<g id="node13" class="node">
<title>81dd21b1&#45;73ca&#45;40c3&#45;b195&#45;689f56f98984</title>
<polygon fill="#e5e5e5" stroke="black" stroke-dasharray="5,2" points="657,-177 488,-177 488,-151 657,-151 657,-177"/>
<text text-anchor="middle" x="572.5" y="-166.6" font-family="Arial" font-size="8.00">owl:Restriction</text>
<text text-anchor="middle" x="572.5" y="-157.6" font-family="Arial" font-size="8.00">,81dd21b1&#45;73ca&#45;40c3&#45;b195&#45;689f56f98984</text>
</g>
<!-- http://ns.imfid.org/imf#FunctionElement&#45;&gt;81dd21b1&#45;73ca&#45;40c3&#45;b195&#45;689f56f98984 -->
<g id="edge18" class="edge">
<title>http://ns.imfid.org/imf#FunctionElement&#45;&gt;81dd21b1&#45;73ca&#45;40c3&#45;b195&#45;689f56f98984</title>
<path fill="none" stroke="black" d="M725.57,-108.11C692.69,-119.9 648.33,-135.81 615.83,-147.46"/>
<polygon fill="none" stroke="black" points="614.38,-144.26 606.15,-150.93 616.74,-150.85 614.38,-144.26"/>
</g>
<!-- http://ns.imfid.org/imf#FunctionElement&#45;&gt;http://ns.imfid.org/imf#AspectElement -->
<g id="edge25" class="edge">
<title>http://ns.imfid.org/imf#FunctionElement&#45;&gt;http://ns.imfid.org/imf#AspectElement</title>
<path fill="none" stroke="black" d="M781.88,-109.19C787.48,-117.65 794.34,-128.02 800.55,-137.39"/>
<polygon fill="none" stroke="black" points="797.79,-139.56 806.23,-145.97 803.63,-135.7 797.79,-139.56"/>
</g>
<!-- 4fca5255&#45;f7c8&#45;4444&#45;9666&#45;e0ae61e5fecf -->
<g id="node16" class="node">
<title>4fca5255&#45;f7c8&#45;4444&#45;9666&#45;e0ae61e5fecf</title>
<polygon fill="#e5e5e5" stroke="black" stroke-dasharray="5,2" points="899.5,-258 735.5,-258 735.5,-232 899.5,-232 899.5,-258"/>
<text text-anchor="middle" x="817.5" y="-247.6" font-family="Arial" font-size="8.00">owl:Restriction</text>
<text text-anchor="middle" x="817.5" y="-238.6" font-family="Arial" font-size="8.00">,4fca5255&#45;f7c8&#45;4444&#45;9666&#45;e0ae61e5fecf</text>
</g>
<!-- http://ns.imfid.org/imf#LocationBlock -->
<g id="node17" class="node">
<title>http://ns.imfid.org/imf#LocationBlock</title>
<polygon fill="none" stroke="black" points="804.5,-36 726.5,-36 726.5,0 804.5,0 804.5,-36"/>
<text text-anchor="middle" x="765.5" y="-16.1" font-family="Arial" font-size="8.00">imf:LocationBlock</text>
</g>
<!-- http://ns.imfid.org/imf#LocationBlock&#45;&gt;http://ns.imfid.org/imf#Block -->
<g id="edge10" class="edge">
<title>http://ns.imfid.org/imf#LocationBlock&#45;&gt;http://ns.imfid.org/imf#Block</title>
<path fill="none" stroke="black" d="M726.45,-32.55C723.09,-33.72 719.73,-34.88 716.5,-36 671.74,-51.5 657.72,-53.78 610.17,-72.92"/>
<polygon fill="none" stroke="black" points="608.82,-69.69 600.88,-76.7 611.46,-76.17 608.82,-69.69"/>
</g>
<!-- http://ns.imfid.org/imf#LocationBlock&#45;&gt;http://ns.imfid.org/imf#LocationElement -->
<g id="edge29" class="edge">
<title>http://ns.imfid.org/imf#LocationBlock&#45;&gt;http://ns.imfid.org/imf#LocationElement</title>
<path fill="none" stroke="black" d="M804.74,-33.06C807.7,-34.07 810.65,-35.06 813.5,-36 866.91,-53.61 880.75,-56.47 934.5,-73 934.71,-73.06 934.92,-73.13 935.13,-73.19"/>
<polygon fill="none" stroke="black" points="934.19,-76.57 944.78,-76.16 936.25,-69.88 934.19,-76.57"/>
</g>
<!-- http://ns.imfid.org/imf#ProductAspect -->
<g id="node18" class="node">
<title>http://ns.imfid.org/imf#ProductAspect</title>
<polygon fill="none" stroke="black" points="81,-182 0,-182 0,-146 81,-146 81,-182"/>
<text text-anchor="middle" x="40.5" y="-162.1" font-family="Arial" font-size="8.00">imf:ProductAspect</text>
</g>
<!-- http://ns.imfid.org/imf#ProductAspect&#45;&gt;http://ns.imfid.org/imf#Aspect -->
<g id="edge5" class="edge">
<title>http://ns.imfid.org/imf#ProductAspect&#45;&gt;http://ns.imfid.org/imf#Aspect</title>
<path fill="none" stroke="black" stroke-dasharray="1,5" d="M81.09,-180.8C117.79,-195.08 171.35,-215.92 206.79,-229.71"/>
<polygon fill="black" stroke="black" points="205.69,-233.04 216.28,-233.41 208.23,-226.52 205.69,-233.04"/>
</g>
<!-- http://ns.imfid.org/imf#AspectElement&#45;&gt;http://ns.imfid.org/imf#Aspect -->
<g id="edge19" class="edge">
<title>http://ns.imfid.org/imf#AspectElement&#45;&gt;http://ns.imfid.org/imf#Aspect</title>
<path fill="none" stroke="black" d="M775.93,-179.55C772.76,-180.45 769.59,-181.28 766.5,-182 587.44,-223.86 366.95,-238.21 280.62,-242.44"/>
<polygon fill="black" stroke="black" points="280.36,-238.95 270.54,-242.92 280.69,-245.95 280.36,-238.95"/>
<text text-anchor="middle" x="693.5" y="-202.6" font-family="Arial" font-size="8.00">imf:hasAspect</text>
</g>
<!-- http://ns.imfid.org/imf#AspectElement&#45;&gt;4fca5255&#45;f7c8&#45;4444&#45;9666&#45;e0ae61e5fecf -->
<g id="edge28" class="edge">
<title>http://ns.imfid.org/imf#AspectElement&#45;&gt;4fca5255&#45;f7c8&#45;4444&#45;9666&#45;e0ae61e5fecf</title>
<path fill="none" stroke="black" d="M817.5,-182.14C817.5,-193.65 817.5,-208.94 817.5,-221.44"/>
<polygon fill="none" stroke="black" points="814,-221.54 817.5,-231.54 821,-221.54 814,-221.54"/>
</g>
<!-- http://ns.imfid.org/imf#AspectElement&#45;&gt;http://ns.imfid.org/imf#AspectElement -->
<g id="edge9" class="edge">
<title>http://ns.imfid.org/imf#AspectElement&#45;&gt;http://ns.imfid.org/imf#AspectElement</title>
<path fill="none" stroke="black" d="M859.21,-157.36C869.41,-157.85 877,-160.06 877,-164 877,-166.46 874.03,-168.25 869.32,-169.36"/>
<polygon fill="black" stroke="black" points="868.69,-165.92 859.21,-170.64 869.57,-172.86 868.69,-165.92"/>
<text text-anchor="middle" x="918" y="-162.1" font-family="Arial" font-size="8.00">imf:interAspectRelation</text>
</g>
<!-- http://ns.imfid.org/imf#InstalledBlock -->
<g id="node20" class="node">
<title>http://ns.imfid.org/imf#InstalledBlock</title>
<polygon fill="none" stroke="black" points="708,-36 631,-36 631,0 708,0 708,-36"/>
<text text-anchor="middle" x="669.5" y="-16.1" font-family="Arial" font-size="8.00">imf:InstalledBlock</text>
</g>
<!-- http://ns.imfid.org/imf#InstalledBlock&#45;&gt;http://ns.imfid.org/imf#InstalledElement -->
<g id="edge11" class="edge">
<title>http://ns.imfid.org/imf#InstalledBlock&#45;&gt;http://ns.imfid.org/imf#InstalledElement</title>
<path fill="none" stroke="black" d="M708.25,-32.81C711.37,-33.9 714.49,-34.97 717.5,-36 754.13,-48.52 795.54,-62.15 827.58,-72.58"/>
<polygon fill="none" stroke="black" points="826.62,-75.95 837.21,-75.71 828.78,-69.29 826.62,-75.95"/>
</g>
<!-- http://ns.imfid.org/imf#InstalledBlock&#45;&gt;http://ns.imfid.org/imf#Block -->
<g id="edge7" class="edge">
<title>http://ns.imfid.org/imf#InstalledBlock&#45;&gt;http://ns.imfid.org/imf#Block</title>
<path fill="none" stroke="black" d="M646.26,-36.19C633.76,-45.43 618.18,-56.96 604.64,-66.97"/>
<polygon fill="none" stroke="black" points="602.48,-64.21 596.52,-72.97 606.65,-69.84 602.48,-64.21"/>
</g>
<!-- http://ns.imfid.org/imf#ProductTerminal -->
<g id="node21" class="node">
<title>http://ns.imfid.org/imf#ProductTerminal</title>
<polygon fill="none" stroke="black" points="910,-36 823,-36 823,0 910,0 910,-36"/>
<text text-anchor="middle" x="866.5" y="-16.1" font-family="Arial" font-size="8.00">imf:ProductTerminal</text>
</g>
<!-- http://ns.imfid.org/imf#ProductTerminal&#45;&gt;http://ns.imfid.org/imf#Terminal -->
<g id="edge14" class="edge">
<title>http://ns.imfid.org/imf#ProductTerminal&#45;&gt;http://ns.imfid.org/imf#Terminal</title>
<path fill="none" stroke="black" d="M910.15,-33.08C913.31,-34.07 916.45,-35.06 919.5,-36 971.54,-52.11 987.87,-52.95 1042.32,-72.77"/>
<polygon fill="none" stroke="black" points="1041.19,-76.08 1051.78,-76.26 1043.61,-69.52 1041.19,-76.08"/>
</g>
<!-- http://ns.imfid.org/imf#ProductTerminal&#45;&gt;http://ns.imfid.org/imf#ProductElement -->
<g id="edge1" class="edge">
<title>http://ns.imfid.org/imf#ProductTerminal&#45;&gt;http://ns.imfid.org/imf#ProductElement</title>
<path fill="none" stroke="black" d="M822.77,-34.14C791.09,-45.12 748.1,-60.01 714.47,-71.65"/>
<polygon fill="none" stroke="black" points="713.11,-68.42 704.81,-75 715.4,-75.04 713.11,-68.42"/>
</g>
<!-- http://ns.imfid.org/imf#ProductElement&#45;&gt;fa4ca0a3&#45;894b&#45;445e&#45;9b42&#45;2332ff422cc6 -->
<g id="edge21" class="edge">
<title>http://ns.imfid.org/imf#ProductElement&#45;&gt;fa4ca0a3&#45;894b&#45;445e&#45;9b42&#45;2332ff422cc6</title>
<path fill="none" stroke="black" d="M618.45,-106.36C615.43,-107.28 612.42,-108.17 609.5,-109 556.6,-124.03 495.9,-138.55 451.2,-148.74"/>
<polygon fill="none" stroke="black" points="450.32,-145.36 441.34,-150.98 451.87,-152.18 450.32,-145.36"/>
</g>
<!-- http://ns.imfid.org/imf#ProductElement&#45;&gt;http://ns.imfid.org/imf#AspectElement -->
<g id="edge31" class="edge">
<title>http://ns.imfid.org/imf#ProductElement&#45;&gt;http://ns.imfid.org/imf#AspectElement</title>
<path fill="none" stroke="black" d="M698.87,-109.01C720.41,-118.81 747.7,-131.23 770.68,-141.69"/>
<polygon fill="none" stroke="black" points="769.35,-144.93 779.9,-145.89 772.25,-138.56 769.35,-144.93"/>
</g>
<!-- http://ns.imfid.org/imf#LocationElement&#45;&gt;67e90dfc&#45;a684&#45;4e5a&#45;87af&#45;bb413168b546 -->
<g id="edge16" class="edge">
<title>http://ns.imfid.org/imf#LocationElement&#45;&gt;67e90dfc&#45;a684&#45;4e5a&#45;87af&#45;bb413168b546</title>
<path fill="none" stroke="black" d="M1034.24,-106.26C1037.37,-107.2 1040.48,-108.13 1043.5,-109 1092.59,-123.22 1148.75,-137.97 1189.71,-148.46"/>
<polygon fill="none" stroke="black" points="1188.96,-151.88 1199.51,-150.97 1190.69,-145.1 1188.96,-151.88"/>
</g>
<!-- http://ns.imfid.org/imf#LocationElement&#45;&gt;http://ns.imfid.org/imf#AspectElement -->
<g id="edge22" class="edge">
<title>http://ns.imfid.org/imf#LocationElement&#45;&gt;http://ns.imfid.org/imf#AspectElement</title>
<path fill="none" stroke="black" d="M948.3,-109.01C924.33,-118.9 893.92,-131.46 868.45,-141.97"/>
<polygon fill="none" stroke="black" points="866.87,-138.84 858.96,-145.89 869.54,-145.31 866.87,-138.84"/>
</g>
<!-- http://ns.imfid.org/imf#InstalledTerminal -->
<g id="node24" class="node">
<title>http://ns.imfid.org/imf#InstalledTerminal</title>
<polygon fill="none" stroke="black" points="1126,-36 1037,-36 1037,0 1126,0 1126,-36"/>
<text text-anchor="middle" x="1081.5" y="-16.1" font-family="Arial" font-size="8.00">imf:InstalledTerminal</text>
</g>
<!-- http://ns.imfid.org/imf#InstalledTerminal&#45;&gt;http://ns.imfid.org/imf#Terminal -->
<g id="edge30" class="edge">
<title>http://ns.imfid.org/imf#InstalledTerminal&#45;&gt;http://ns.imfid.org/imf#Terminal</title>
<path fill="none" stroke="black" d="M1081.5,-36.19C1081.5,-44.21 1081.5,-53.95 1081.5,-62.93"/>
<polygon fill="none" stroke="black" points="1078,-62.97 1081.5,-72.97 1085,-62.97 1078,-62.97"/>
</g>
<!-- http://ns.imfid.org/imf#InstalledTerminal&#45;&gt;http://ns.imfid.org/imf#InstalledElement -->
<g id="edge3" class="edge">
<title>http://ns.imfid.org/imf#InstalledTerminal&#45;&gt;http://ns.imfid.org/imf#InstalledElement</title>
<path fill="none" stroke="black" d="M1036.62,-34.93C1006.56,-45.6 966.84,-59.71 935.11,-70.97"/>
<polygon fill="none" stroke="black" points="933.8,-67.72 925.55,-74.36 936.14,-74.32 933.8,-67.72"/>
</g>
</g>
</svg>

