<?xml version="1.0" encoding="UTF-8" standalone="no"?>
<!DOCTYPE svg PUBLIC "-//W3C//DTD SVG 1.1//EN"
 "http://www.w3.org/Graphics/SVG/1.1/DTD/svg11.dtd">
<!-- Generated by graphviz version 2.43.0 (0)
 -->
<!-- Title: urn:temp#graph Pages: 1 -->
<svg width="809px" height="368px"
 viewBox="0.00 0.00 809.00 368.00" xmlns="http://www.w3.org/2000/svg" xmlns:xlink="http://www.w3.org/1999/xlink">
<g id="graph0" class="graph" transform="scale(1.0 1.0) rotate(0) translate(4 364)">
<title>urn:temp#graph</title>
<polygon fill="white" stroke="transparent" points="-4,4 -4,-364 805,-364 805,4 -4,4"/>
<!-- http://ns.imfid.org/imf#ScopeQualifier -->
<g id="node1" class="node">
<title>http://ns.imfid.org/imf#ScopeQualifier</title>
<polygon fill="none" stroke="black" points="81,-36 0,-36 0,0 81,0 81,-36"/>
<text text-anchor="middle" x="40.5" y="-16.1" font-family="Arial" font-size="8.00">imf:ScopeQualifier</text>
</g>
<!-- http://ns.imfid.org/imf#Element -->
<g id="node2" class="node">
<title>http://ns.imfid.org/imf#Element</title>
<polygon fill="none" stroke="black" points="371,-198 312,-198 312,-162 371,-162 371,-198"/>
<text text-anchor="middle" x="341.5" y="-178.1" font-family="Arial" font-size="8.00">imf:Element</text>
</g>
<!-- http://ns.imfid.org/imf#Element&#45;&gt;http://ns.imfid.org/imf#Element -->
<g id="edge5" class="edge">
<title>http://ns.imfid.org/imf#Element&#45;&gt;http://ns.imfid.org/imf#Element</title>
<path fill="none" stroke="black" d="M371.19,-177.5C381.08,-177.5 389,-178.33 389,-180 389,-181.02 386.06,-181.72 381.52,-182.12"/>
<polygon fill="black" stroke="black" points="381.05,-178.63 371.19,-182.5 381.31,-185.63 381.05,-178.63"/>
<text text-anchor="middle" x="430" y="-178.1" font-family="Arial" font-size="8.00">imf:intraAspectRelation</text>
</g>
<!-- http://ns.imfid.org/imf#Element&#45;&gt;http://ns.imfid.org/imf#Element -->
<g id="edge11" class="edge">
<title>http://ns.imfid.org/imf#Element&#45;&gt;http://ns.imfid.org/imf#Element</title>
<path fill="none" stroke="black" d="M371.25,-176.23C410.75,-173.76 471,-175.01 471,-180 471,-184.58 420.23,-186.01 381.35,-184.3"/>
<polygon fill="black" stroke="black" points="381.43,-180.8 371.25,-183.77 381.06,-187.79 381.43,-180.8"/>
<text text-anchor="middle" x="489" y="-178.1" font-family="Arial" font-size="8.00">imf:partOf</text>
</g>
<!-- http://ns.imfid.org/imf#Element&#45;&gt;http://ns.imfid.org/imf#Element -->
<g id="edge14" class="edge">
<title>http://ns.imfid.org/imf#Element&#45;&gt;http://ns.imfid.org/imf#Element</title>
<path fill="none" stroke="black" d="M371.08,-175.04C420.86,-170.44 507,-172.09 507,-180 507,-187.4 431.61,-189.32 381.13,-185.77"/>
<polygon fill="black" stroke="black" points="381.33,-182.28 371.08,-184.96 380.77,-189.25 381.33,-182.28"/>
<text text-anchor="middle" x="548" y="-178.1" font-family="Arial" font-size="8.00">imf:interAspectRelation</text>
</g>
<!-- http://ns.imfid.org/imf#Aspect -->
<g id="node4" class="node">
<title>http://ns.imfid.org/imf#Aspect</title>
<polygon fill="none" stroke="black" points="330.5,-279 276.5,-279 276.5,-243 330.5,-243 330.5,-279"/>
<text text-anchor="middle" x="303.5" y="-259.1" font-family="Arial" font-size="8.00">imf:Aspect</text>
</g>
<!-- http://ns.imfid.org/imf#Element&#45;&gt;http://ns.imfid.org/imf#Aspect -->
<g id="edge16" class="edge">
<title>http://ns.imfid.org/imf#Element&#45;&gt;http://ns.imfid.org/imf#Aspect</title>
<path fill="none" stroke="black" d="M318.65,-198.12C313.41,-203.26 308.5,-209.32 305.5,-216 303.25,-221.02 302.1,-226.68 301.62,-232.24"/>
<polygon fill="black" stroke="black" points="298.11,-232.53 301.39,-242.6 305.11,-232.68 298.11,-232.53"/>
<text text-anchor="middle" x="330.5" y="-218.6" font-family="Arial" font-size="8.00">imf:hasAspect</text>
</g>
<!-- http://ns.imfid.org/imf#Attribute -->
<g id="node9" class="node">
<title>http://ns.imfid.org/imf#Attribute</title>
<polygon fill="none" stroke="black" points="415,-279 356,-279 356,-243 415,-243 415,-279"/>
<text text-anchor="middle" x="385.5" y="-259.1" font-family="Arial" font-size="8.00">imf:Attribute</text>
</g>
<!-- http://ns.imfid.org/imf#Element&#45;&gt;http://ns.imfid.org/imf#Attribute -->
<g id="edge6" class="edge">
<title>http://ns.imfid.org/imf#Element&#45;&gt;http://ns.imfid.org/imf#Attribute</title>
<path fill="none" stroke="black" d="M351.05,-198.14C356.87,-208.6 364.43,-222.17 370.98,-233.94"/>
<polygon fill="black" stroke="black" points="368.05,-235.86 375.97,-242.89 374.16,-232.45 368.05,-235.86"/>
<text text-anchor="middle" x="392.5" y="-218.6" font-family="Arial" font-size="8.00">imf:hasAttribute</text>
</g>
<!-- http://ns.imfid.org/imf#TerminalQualifier -->
<g id="node3" class="node">
<title>http://ns.imfid.org/imf#TerminalQualifier</title>
<polygon fill="none" stroke="black" points="193,-198 104,-198 104,-162 193,-162 193,-198"/>
<text text-anchor="middle" x="148.5" y="-178.1" font-family="Arial" font-size="8.00">imf:TerminalQualifier</text>
</g>
<!-- http://www.w3.org/2001/XMLSchema#string -->
<g id="node17" class="node">
<title>http://www.w3.org/2001/XMLSchema#string</title>
<polygon fill="none" stroke="black" points="326.5,-360 272.5,-360 272.5,-324 326.5,-324 326.5,-360"/>
<text text-anchor="middle" x="299.5" y="-340.1" font-family="Arial" font-size="8.00">xsd:string</text>
</g>
<!-- http://ns.imfid.org/imf#Aspect&#45;&gt;http://www.w3.org/2001/XMLSchema#string -->
<g id="edge7" class="edge">
<title>http://ns.imfid.org/imf#Aspect&#45;&gt;http://www.w3.org/2001/XMLSchema#string</title>
<path fill="none" stroke="black" d="M302.63,-279.14C302.12,-289.29 301.46,-302.37 300.87,-313.88"/>
<polygon fill="black" stroke="black" points="297.38,-313.73 300.37,-323.89 304.37,-314.08 297.38,-313.73"/>
<text text-anchor="middle" x="318" y="-299.6" font-family="Arial" font-size="8.00">imf:prefix</text>
</g>
<!-- http://ns.imfid.org/imf#outputFlow -->
<g id="node5" class="node">
<title>http://ns.imfid.org/imf#outputFlow</title>
<polygon fill="none" stroke="black" points="98,-117 29,-117 29,-81 98,-81 98,-117"/>
<text text-anchor="middle" x="63.5" y="-97.1" font-family="Arial" font-size="8.00">imf:outputFlow</text>
</g>
<!-- http://ns.imfid.org/imf#outputFlow&#45;&gt;http://ns.imfid.org/imf#TerminalQualifier -->
<g id="edge12" class="edge">
<title>http://ns.imfid.org/imf#outputFlow&#45;&gt;http://ns.imfid.org/imf#TerminalQualifier</title>
<path fill="none" stroke="black" stroke-dasharray="1,5" d="M81.94,-117.14C93.86,-128.22 109.54,-142.79 122.69,-155.01"/>
<polygon fill="black" stroke="black" points="120.38,-157.65 130.09,-161.89 125.15,-152.52 120.38,-157.65"/>
</g>
<!-- http://ns.imfid.org/imf#Terminal -->
<g id="node6" class="node">
<title>http://ns.imfid.org/imf#Terminal</title>
<polygon fill="none" stroke="black" points="258,-117 199,-117 199,-81 258,-81 258,-117"/>
<text text-anchor="middle" x="228.5" y="-97.1" font-family="Arial" font-size="8.00">imf:Terminal</text>
</g>
<!-- http://ns.imfid.org/imf#Terminal&#45;&gt;http://ns.imfid.org/imf#Element -->
<g id="edge8" class="edge">
<title>http://ns.imfid.org/imf#Terminal&#45;&gt;http://ns.imfid.org/imf#Element</title>
<path fill="none" stroke="black" d="M254.27,-117.1C262.67,-122.75 272.02,-129.09 280.5,-135 290.1,-141.69 300.45,-149.08 309.85,-155.87"/>
<polygon fill="none" stroke="black" points="308.01,-158.86 318.16,-161.9 312.12,-153.2 308.01,-158.86"/>
</g>
<!-- http://ns.imfid.org/imf#Terminal&#45;&gt;http://ns.imfid.org/imf#TerminalQualifier -->
<g id="edge3" class="edge">
<title>http://ns.imfid.org/imf#Terminal&#45;&gt;http://ns.imfid.org/imf#TerminalQualifier</title>
<path fill="none" stroke="black" d="M211.14,-117.14C200.03,-128.12 185.44,-142.52 173.14,-154.67"/>
<polygon fill="black" stroke="black" points="170.48,-152.37 165.82,-161.89 175.4,-157.36 170.48,-152.37"/>
<text text-anchor="middle" x="234" y="-137.6" font-family="Arial" font-size="8.00">imf:hasTerminalQualifier</text>
</g>
<!-- http://ns.imfid.org/imf#Terminal&#45;&gt;http://ns.imfid.org/imf#Terminal -->
<g id="edge13" class="edge">
<title>http://ns.imfid.org/imf#Terminal&#45;&gt;http://ns.imfid.org/imf#Terminal</title>
<path fill="none" stroke="black" d="M258.19,-91.5C268.08,-91.5 276,-94 276,-99 276,-102.12 272.91,-104.27 268.17,-105.45"/>
<polygon fill="black" stroke="black" points="267.76,-101.97 258.19,-106.5 268.5,-108.93 267.76,-101.97"/>
<text text-anchor="middle" x="305" y="-97.1" font-family="Arial" font-size="8.00">imf:connectedTo</text>
</g>
<!-- http://ns.imfid.org/imf#Block -->
<g id="node7" class="node">
<title>http://ns.imfid.org/imf#Block</title>
<polygon fill="none" stroke="black" points="366.5,-36 312.5,-36 312.5,0 366.5,0 366.5,-36"/>
<text text-anchor="middle" x="339.5" y="-16.1" font-family="Arial" font-size="8.00">imf:Block</text>
</g>
<!-- http://ns.imfid.org/imf#Block&#45;&gt;http://ns.imfid.org/imf#Element -->
<g id="edge15" class="edge">
<title>http://ns.imfid.org/imf#Block&#45;&gt;http://ns.imfid.org/imf#Element</title>
<path fill="none" stroke="black" d="M343.67,-36.34C344.83,-41.94 345.93,-48.2 346.5,-54 349.83,-87.66 347.26,-126.63 344.73,-151.99"/>
<polygon fill="none" stroke="black" points="341.25,-151.66 343.67,-161.97 348.21,-152.4 341.25,-151.66"/>
</g>
<!-- http://ns.imfid.org/imf#Block&#45;&gt;http://ns.imfid.org/imf#Terminal -->
<g id="edge9" class="edge">
<title>http://ns.imfid.org/imf#Block&#45;&gt;http://ns.imfid.org/imf#Terminal</title>
<path fill="none" stroke="black" d="M315.41,-36.14C299.41,-47.53 278.22,-62.61 260.77,-75.04"/>
<polygon fill="black" stroke="black" points="258.66,-72.24 252.54,-80.89 262.72,-77.94 258.66,-72.24"/>
<text text-anchor="middle" x="314.5" y="-56.6" font-family="Arial" font-size="8.00">imf:hasTerminal</text>
</g>
<!-- http://ns.imfid.org/imf#ProvenanceQualifier -->
<g id="node8" class="node">
<title>http://ns.imfid.org/imf#ProvenanceQualifier</title>
<polygon fill="none" stroke="black" points="486,-36 385,-36 385,0 486,0 486,-36"/>
<text text-anchor="middle" x="435.5" y="-16.1" font-family="Arial" font-size="8.00">imf:ProvenanceQualifier</text>
</g>
<!-- http://ns.imfid.org/imf#AttributeQualifier -->
<g id="node12" class="node">
<title>http://ns.imfid.org/imf#AttributeQualifier</title>
<polygon fill="none" stroke="black" points="434,-360 345,-360 345,-324 434,-324 434,-360"/>
<text text-anchor="middle" x="389.5" y="-340.1" font-family="Arial" font-size="8.00">imf:AttributeQualifier</text>
</g>
<!-- http://ns.imfid.org/imf#Attribute&#45;&gt;http://ns.imfid.org/imf#AttributeQualifier -->
<g id="edge2" class="edge">
<title>http://ns.imfid.org/imf#Attribute&#45;&gt;http://ns.imfid.org/imf#AttributeQualifier</title>
<path fill="none" stroke="black" d="M386.37,-279.14C386.88,-289.29 387.54,-302.37 388.13,-313.88"/>
<polygon fill="black" stroke="black" points="384.63,-314.08 388.63,-323.89 391.62,-313.73 384.63,-314.08"/>
<text text-anchor="middle" x="430" y="-299.6" font-family="Arial" font-size="8.00">imf:hasAttributeQualifier</text>
</g>
<!-- http://ns.imfid.org/imf#RegularityQualifier -->
<g id="node10" class="node">
<title>http://ns.imfid.org/imf#RegularityQualifier</title>
<polygon fill="none" stroke="black" points="599,-36 504,-36 504,0 599,0 599,-36"/>
<text text-anchor="middle" x="551.5" y="-16.1" font-family="Arial" font-size="8.00">imf:RegularityQualifier</text>
</g>
<!-- http://ns.imfid.org/imf#inputFlow -->
<g id="node11" class="node">
<title>http://ns.imfid.org/imf#inputFlow</title>
<polygon fill="none" stroke="black" points="180.5,-117 116.5,-117 116.5,-81 180.5,-81 180.5,-117"/>
<text text-anchor="middle" x="148.5" y="-97.1" font-family="Arial" font-size="8.00">imf:inputFlow</text>
</g>
<!-- http://ns.imfid.org/imf#inputFlow&#45;&gt;http://ns.imfid.org/imf#TerminalQualifier -->
<g id="edge10" class="edge">
<title>http://ns.imfid.org/imf#inputFlow&#45;&gt;http://ns.imfid.org/imf#TerminalQualifier</title>
<path fill="none" stroke="black" stroke-dasharray="1,5" d="M148.5,-117.14C148.5,-127.29 148.5,-140.37 148.5,-151.88"/>
<polygon fill="black" stroke="black" points="145,-151.89 148.5,-161.89 152,-151.89 145,-151.89"/>
</g>
<!-- http://ns.imfid.org/imf#InputTerminal -->
<g id="node13" class="node">
<title>http://ns.imfid.org/imf#InputTerminal</title>
<polygon fill="none" stroke="black" points="176,-36 99,-36 99,0 176,0 176,-36"/>
<text text-anchor="middle" x="137.5" y="-16.1" font-family="Arial" font-size="8.00">imf:InputTerminal</text>
</g>
<!-- http://ns.imfid.org/imf#InputTerminal&#45;&gt;http://ns.imfid.org/imf#Terminal -->
<g id="edge4" class="edge">
<title>http://ns.imfid.org/imf#InputTerminal&#45;&gt;http://ns.imfid.org/imf#Terminal</title>
<path fill="none" stroke="black" d="M157.25,-36.14C170.01,-47.22 186.79,-61.79 200.87,-74.01"/>
<polygon fill="none" stroke="black" points="198.95,-76.98 208.79,-80.89 203.54,-71.69 198.95,-76.98"/>
</g>
<!-- http://ns.imfid.org/imf#RangeQualifier -->
<g id="node14" class="node">
<title>http://ns.imfid.org/imf#RangeQualifier</title>
<polygon fill="none" stroke="black" points="700,-36 617,-36 617,0 700,0 700,-36"/>
<text text-anchor="middle" x="658.5" y="-16.1" font-family="Arial" font-size="8.00">imf:RangeQualifier</text>
</g>
<!-- http://ns.imfid.org/imf#OutputTerminal -->
<g id="node15" class="node">
<title>http://ns.imfid.org/imf#OutputTerminal</title>
<polygon fill="none" stroke="black" points="277,-36 194,-36 194,0 277,0 277,-36"/>
<text text-anchor="middle" x="235.5" y="-16.1" font-family="Arial" font-size="8.00">imf:OutputTerminal</text>
</g>
<!-- http://ns.imfid.org/imf#OutputTerminal&#45;&gt;http://ns.imfid.org/imf#Terminal -->
<g id="edge1" class="edge">
<title>http://ns.imfid.org/imf#OutputTerminal&#45;&gt;http://ns.imfid.org/imf#Terminal</title>
<path fill="none" stroke="black" d="M233.98,-36.14C233.08,-46.29 231.92,-59.37 230.9,-70.88"/>
<polygon fill="none" stroke="black" points="227.41,-70.62 230.02,-80.89 234.38,-71.24 227.41,-70.62"/>
</g>
<!-- http://ns.imfid.org/imf#AspectElement -->
<g id="node16" class="node">
<title>http://ns.imfid.org/imf#AspectElement</title>
<polygon fill="none" stroke="black" points="801,-36 718,-36 718,0 801,0 801,-36"/>
<text text-anchor="middle" x="759.5" y="-16.1" font-family="Arial" font-size="8.00">imf:AspectElement</text>
</g>
</g>
</svg>

