<?xml version="1.0" encoding="UTF-8" standalone="no"?>
<!DOCTYPE svg PUBLIC "-//W3C//DTD SVG 1.1//EN"
 "http://www.w3.org/Graphics/SVG/1.1/DTD/svg11.dtd">
<!-- Generated by graphviz version 2.43.0 (0)
 -->
<!-- Title: urn:temp#graph Pages: 1 -->
<svg width="2489px" height="271px"
 viewBox="0.00 0.00 2488.50 271.00" xmlns="http://www.w3.org/2000/svg" xmlns:xlink="http://www.w3.org/1999/xlink">
<g id="graph0" class="graph" transform="scale(1.0 1.0) rotate(0) translate(4 267)">
<title>urn:temp#graph</title>
<polygon fill="white" stroke="transparent" points="-4,4 -4,-267 2484.5,-267 2484.5,4 -4,4"/>
<!-- 80be326d&#45;f460&#45;4bb7&#45;a9c2&#45;5446279309e0 -->
<g id="node1" class="node">
<title>80be326d&#45;f460&#45;4bb7&#45;a9c2&#45;5446279309e0</title>
<polygon fill="#e5e5e5" stroke="black" stroke-dasharray="5,2" points="600.5,-256 376.5,-256 376.5,-234 600.5,-234 600.5,-256"/>
<text text-anchor="middle" x="488.5" y="-243.1" font-family="Arial" font-size="8.00">80be326d&#45;f460&#45;4bb7&#45;a9c2&#45;5446279309e0,owl:Restriction</text>
</g>
<!-- 30a979ab&#45;93b3&#45;4c27&#45;99ce&#45;0bcfd12fa483 -->
<g id="node2" class="node">
<title>30a979ab&#45;93b3&#45;4c27&#45;99ce&#45;0bcfd12fa483</title>
<polygon fill="#e5e5e5" stroke="black" stroke-dasharray="5,2" points="838.5,-256 618.5,-256 618.5,-234 838.5,-234 838.5,-256"/>
<text text-anchor="middle" x="728.5" y="-243.1" font-family="Arial" font-size="8.00">30a979ab&#45;93b3&#45;4c27&#45;99ce&#45;0bcfd12fa483,owl:Restriction</text>
</g>
<!-- http://ns.imfid.org/imf#Element -->
<g id="node3" class="node">
<title>http://ns.imfid.org/imf#Element</title>
<polygon fill="none" stroke="black" points="888,-36 829,-36 829,0 888,0 888,-36"/>
<text text-anchor="middle" x="858.5" y="-16.1" font-family="Arial" font-size="8.00">imf:Element</text>
</g>
<!-- 68a1db0c&#45;a1b6&#45;417d&#45;8956&#45;5391c4ee216c -->
<g id="node10" class="node">
<title>68a1db0c&#45;a1b6&#45;417d&#45;8956&#45;5391c4ee216c</title>
<polygon fill="#e5e5e5" stroke="black" stroke-dasharray="5,2" points="970.5,-110 746.5,-110 746.5,-88 970.5,-88 970.5,-110"/>
<text text-anchor="middle" x="858.5" y="-97.1" font-family="Arial" font-size="8.00">68a1db0c&#45;a1b6&#45;417d&#45;8956&#45;5391c4ee216c,owl:Restriction</text>
</g>
<!-- http://ns.imfid.org/imf#Element&#45;&gt;68a1db0c&#45;a1b6&#45;417d&#45;8956&#45;5391c4ee216c -->
<g id="edge13" class="edge">
<title>http://ns.imfid.org/imf#Element&#45;&gt;68a1db0c&#45;a1b6&#45;417d&#45;8956&#45;5391c4ee216c</title>
<path fill="none" stroke="black" d="M858.5,-36.14C858.5,-48.36 858.5,-64.82 858.5,-77.7"/>
<polygon fill="none" stroke="black" points="855,-77.89 858.5,-87.89 862,-77.89 855,-77.89"/>
</g>
<!-- 095d7dfa&#45;c708&#45;4e5d&#45;a4fe&#45;fca9c6fcfb51 -->
<g id="node4" class="node">
<title>095d7dfa&#45;c708&#45;4e5d&#45;a4fe&#45;fca9c6fcfb51</title>
<polygon fill="#e5e5e5" stroke="black" stroke-dasharray="5,2" points="1200.5,-110 988.5,-110 988.5,-88 1200.5,-88 1200.5,-110"/>
<text text-anchor="middle" x="1094.5" y="-97.1" font-family="Arial" font-size="8.00">095d7dfa&#45;c708&#45;4e5d&#45;a4fe&#45;fca9c6fcfb51,owl:Restriction</text>
</g>
<!-- 4b0ca468&#45;35e1&#45;45d8&#45;8088&#45;0ae3a8da7b15 -->
<g id="node5" class="node">
<title>4b0ca468&#45;35e1&#45;45d8&#45;8088&#45;0ae3a8da7b15</title>
<polygon fill="#e5e5e5" stroke="black" stroke-dasharray="5,2" points="1686.5,-110 1460.5,-110 1460.5,-88 1686.5,-88 1686.5,-110"/>
<text text-anchor="middle" x="1573.5" y="-97.1" font-family="Arial" font-size="8.00">4b0ca468&#45;35e1&#45;45d8&#45;8088&#45;0ae3a8da7b15,owl:Restriction</text>
</g>
<!-- http://ns.imfid.org/imf#Aspect -->
<g id="node6" class="node">
<title>http://ns.imfid.org/imf#Aspect</title>
<polygon fill="none" stroke="black" points="1716.5,-36 1662.5,-36 1662.5,0 1716.5,0 1716.5,-36"/>
<text text-anchor="middle" x="1689.5" y="-16.1" font-family="Arial" font-size="8.00">imf:Aspect</text>
</g>
<!-- 259c3173&#45;a7f7&#45;4d39&#45;85cc&#45;7a0825710040 -->
<g id="node7" class="node">
<title>259c3173&#45;a7f7&#45;4d39&#45;85cc&#45;7a0825710040</title>
<polygon fill="#e5e5e5" stroke="black" stroke-dasharray="5,2" points="434.5,-183 212.5,-183 212.5,-161 434.5,-161 434.5,-183"/>
<text text-anchor="middle" x="323.5" y="-170.1" font-family="Arial" font-size="8.00">259c3173&#45;a7f7&#45;4d39&#45;85cc&#45;7a0825710040,owl:Restriction</text>
</g>
<!-- 59449ec0&#45;5c62&#45;473f&#45;8b58&#45;c3aee1052eef -->
<g id="node8" class="node">
<title>59449ec0&#45;5c62&#45;473f&#45;8b58&#45;c3aee1052eef</title>
<polygon fill="#e5e5e5" stroke="black" stroke-dasharray="5,2" points="672.5,-183 452.5,-183 452.5,-161 672.5,-161 672.5,-183"/>
<text text-anchor="middle" x="562.5" y="-170.1" font-family="Arial" font-size="8.00">59449ec0&#45;5c62&#45;473f&#45;8b58&#45;c3aee1052eef,owl:Restriction</text>
</g>
<!-- http://ns.imfid.org/imf#Terminal -->
<g id="node9" class="node">
<title>http://ns.imfid.org/imf#Terminal</title>
<polygon fill="none" stroke="black" points="1603,-36 1544,-36 1544,0 1603,0 1603,-36"/>
<text text-anchor="middle" x="1573.5" y="-16.1" font-family="Arial" font-size="8.00">imf:Terminal</text>
</g>
<!-- http://ns.imfid.org/imf#Terminal&#45;&gt;4b0ca468&#45;35e1&#45;45d8&#45;8088&#45;0ae3a8da7b15 -->
<g id="edge17" class="edge">
<title>http://ns.imfid.org/imf#Terminal&#45;&gt;4b0ca468&#45;35e1&#45;45d8&#45;8088&#45;0ae3a8da7b15</title>
<path fill="none" stroke="black" d="M1573.5,-36.14C1573.5,-48.36 1573.5,-64.82 1573.5,-77.7"/>
<polygon fill="none" stroke="black" points="1570,-77.89 1573.5,-87.89 1577,-77.89 1570,-77.89"/>
</g>
<!-- http://ns.imfid.org/imf#TerminalType -->
<g id="node11" class="node">
<title>http://ns.imfid.org/imf#TerminalType</title>
<polygon fill="none" stroke="black" points="620,-117 543,-117 543,-81 620,-81 620,-117"/>
<text text-anchor="middle" x="581.5" y="-97.1" font-family="Arial" font-size="8.00">imf:TerminalType</text>
</g>
<!-- http://ns.imfid.org/imf#TerminalType&#45;&gt;259c3173&#45;a7f7&#45;4d39&#45;85cc&#45;7a0825710040 -->
<g id="edge14" class="edge">
<title>http://ns.imfid.org/imf#TerminalType&#45;&gt;259c3173&#45;a7f7&#45;4d39&#45;85cc&#45;7a0825710040</title>
<path fill="none" stroke="black" d="M542.87,-110.63C496.58,-123.37 419.09,-144.7 369.68,-158.29"/>
<polygon fill="none" stroke="black" points="368.6,-154.96 359.88,-160.99 370.45,-161.71 368.6,-154.96"/>
</g>
<!-- http://ns.imfid.org/imf#TerminalType&#45;&gt;59449ec0&#45;5c62&#45;473f&#45;8b58&#45;c3aee1052eef -->
<g id="edge8" class="edge">
<title>http://ns.imfid.org/imf#TerminalType&#45;&gt;59449ec0&#45;5c62&#45;473f&#45;8b58&#45;c3aee1052eef</title>
<path fill="none" stroke="black" d="M576.9,-117.19C574.17,-127.41 570.69,-140.41 567.83,-151.08"/>
<polygon fill="none" stroke="black" points="564.44,-150.21 565.24,-160.78 571.2,-152.02 564.44,-150.21"/>
</g>
<!-- http://ns.imfid.org/imf#ElementType -->
<g id="node13" class="node">
<title>http://ns.imfid.org/imf#ElementType</title>
<polygon fill="none" stroke="black" points="766.5,-190 690.5,-190 690.5,-154 766.5,-154 766.5,-190"/>
<text text-anchor="middle" x="728.5" y="-170.1" font-family="Arial" font-size="8.00">imf:ElementType</text>
</g>
<!-- http://ns.imfid.org/imf#TerminalType&#45;&gt;http://ns.imfid.org/imf#ElementType -->
<g id="edge7" class="edge">
<title>http://ns.imfid.org/imf#TerminalType&#45;&gt;http://ns.imfid.org/imf#ElementType</title>
<path fill="none" stroke="black" d="M616.71,-117.01C636.84,-126.73 662.27,-139.01 683.8,-149.41"/>
<polygon fill="none" stroke="black" points="682.54,-152.69 693.07,-153.89 685.59,-146.39 682.54,-152.69"/>
</g>
<!-- d0918049&#45;c7a7&#45;4200&#45;adcb&#45;c29efba7abf4 -->
<g id="node12" class="node">
<title>d0918049&#45;c7a7&#45;4200&#45;adcb&#45;c29efba7abf4</title>
<polygon fill="#e5e5e5" stroke="black" stroke-dasharray="5,2" points="1076.5,-256 856.5,-256 856.5,-234 1076.5,-234 1076.5,-256"/>
<text text-anchor="middle" x="966.5" y="-243.1" font-family="Arial" font-size="8.00">d0918049&#45;c7a7&#45;4200&#45;adcb&#45;c29efba7abf4,owl:Restriction</text>
</g>
<!-- http://ns.imfid.org/imf#ElementType&#45;&gt;80be326d&#45;f460&#45;4bb7&#45;a9c2&#45;5446279309e0 -->
<g id="edge3" class="edge">
<title>http://ns.imfid.org/imf#ElementType&#45;&gt;80be326d&#45;f460&#45;4bb7&#45;a9c2&#45;5446279309e0</title>
<path fill="none" stroke="black" d="M690.36,-187.06C687.37,-188.08 684.39,-189.07 681.5,-190 632.88,-205.57 576.59,-221.03 537.4,-231.39"/>
<polygon fill="none" stroke="black" points="536.35,-228.05 527.57,-233.98 538.13,-234.82 536.35,-228.05"/>
</g>
<!-- http://ns.imfid.org/imf#ElementType&#45;&gt;30a979ab&#45;93b3&#45;4c27&#45;99ce&#45;0bcfd12fa483 -->
<g id="edge5" class="edge">
<title>http://ns.imfid.org/imf#ElementType&#45;&gt;30a979ab&#45;93b3&#45;4c27&#45;99ce&#45;0bcfd12fa483</title>
<path fill="none" stroke="black" d="M728.5,-190.19C728.5,-200.3 728.5,-213.14 728.5,-223.75"/>
<polygon fill="none" stroke="black" points="725,-223.78 728.5,-233.78 732,-223.78 725,-223.78"/>
</g>
<!-- http://ns.imfid.org/imf#ElementType&#45;&gt;d0918049&#45;c7a7&#45;4200&#45;adcb&#45;c29efba7abf4 -->
<g id="edge11" class="edge">
<title>http://ns.imfid.org/imf#ElementType&#45;&gt;d0918049&#45;c7a7&#45;4200&#45;adcb&#45;c29efba7abf4</title>
<path fill="none" stroke="black" d="M766.74,-184.41C809.5,-197.16 878.59,-217.77 923.27,-231.1"/>
<polygon fill="none" stroke="black" points="922.39,-234.49 932.97,-234 924.39,-227.79 922.39,-234.49"/>
</g>
<!-- http://ns.imfid.org/imf#Type -->
<g id="node21" class="node">
<title>http://ns.imfid.org/imf#Type</title>
<polygon fill="none" stroke="black" points="182.5,-263 128.5,-263 128.5,-227 182.5,-227 182.5,-263"/>
<text text-anchor="middle" x="155.5" y="-243.1" font-family="Arial" font-size="8.00">imf:Type</text>
</g>
<!-- http://ns.imfid.org/imf#ElementType&#45;&gt;http://ns.imfid.org/imf#Type -->
<g id="edge18" class="edge">
<title>http://ns.imfid.org/imf#ElementType&#45;&gt;http://ns.imfid.org/imf#Type</title>
<path fill="none" stroke="black" d="M690.26,-187.7C687.32,-188.56 684.38,-189.34 681.5,-190 634.09,-200.84 304.74,-230.73 192.71,-240.71"/>
<polygon fill="none" stroke="black" points="192.21,-237.24 182.56,-241.61 192.83,-244.21 192.21,-237.24"/>
</g>
<!-- http://ns.imfid.org/imf#AttributeGroup -->
<g id="node14" class="node">
<title>http://ns.imfid.org/imf#AttributeGroup</title>
<polygon fill="none" stroke="black" points="1857.5,-36 1775.5,-36 1775.5,0 1857.5,0 1857.5,-36"/>
<text text-anchor="middle" x="1816.5" y="-16.1" font-family="Arial" font-size="8.00">imf:AttributeGroup</text>
</g>
<!-- c9147585&#45;7bbe&#45;4191&#45;a15b&#45;b65aa19235fd -->
<g id="node23" class="node">
<title>c9147585&#45;7bbe&#45;4191&#45;a15b&#45;b65aa19235fd</title>
<polygon fill="#e5e5e5" stroke="black" stroke-dasharray="5,2" points="1928.5,-110 1704.5,-110 1704.5,-88 1928.5,-88 1928.5,-110"/>
<text text-anchor="middle" x="1816.5" y="-97.1" font-family="Arial" font-size="8.00">c9147585&#45;7bbe&#45;4191&#45;a15b&#45;b65aa19235fd,owl:Restriction</text>
</g>
<!-- http://ns.imfid.org/imf#AttributeGroup&#45;&gt;c9147585&#45;7bbe&#45;4191&#45;a15b&#45;b65aa19235fd -->
<g id="edge10" class="edge">
<title>http://ns.imfid.org/imf#AttributeGroup&#45;&gt;c9147585&#45;7bbe&#45;4191&#45;a15b&#45;b65aa19235fd</title>
<path fill="none" stroke="black" d="M1816.5,-36.14C1816.5,-48.36 1816.5,-64.82 1816.5,-77.7"/>
<polygon fill="none" stroke="black" points="1813,-77.89 1816.5,-87.89 1820,-77.89 1813,-77.89"/>
</g>
<!-- 5a7b558e&#45;0dcc&#45;49c8&#45;a41d&#45;bbdd0a21245b -->
<g id="node15" class="node">
<title>5a7b558e&#45;0dcc&#45;49c8&#45;a41d&#45;bbdd0a21245b</title>
<polygon fill="#e5e5e5" stroke="black" stroke-dasharray="5,2" points="2170.5,-110 1946.5,-110 1946.5,-88 2170.5,-88 2170.5,-110"/>
<text text-anchor="middle" x="2058.5" y="-97.1" font-family="Arial" font-size="8.00">5a7b558e&#45;0dcc&#45;49c8&#45;a41d&#45;bbdd0a21245b,owl:Restriction</text>
</g>
<!-- http://ns.imfid.org/imf#Block -->
<g id="node16" class="node">
<title>http://ns.imfid.org/imf#Block</title>
<polygon fill="none" stroke="black" points="2085.5,-36 2031.5,-36 2031.5,0 2085.5,0 2085.5,-36"/>
<text text-anchor="middle" x="2058.5" y="-16.1" font-family="Arial" font-size="8.00">imf:Block</text>
</g>
<!-- http://ns.imfid.org/imf#Block&#45;&gt;5a7b558e&#45;0dcc&#45;49c8&#45;a41d&#45;bbdd0a21245b -->
<g id="edge4" class="edge">
<title>http://ns.imfid.org/imf#Block&#45;&gt;5a7b558e&#45;0dcc&#45;49c8&#45;a41d&#45;bbdd0a21245b</title>
<path fill="none" stroke="black" d="M2058.5,-36.14C2058.5,-48.36 2058.5,-64.82 2058.5,-77.7"/>
<polygon fill="none" stroke="black" points="2055,-77.89 2058.5,-87.89 2062,-77.89 2055,-77.89"/>
</g>
<!-- http://ns.imfid.org/imf#AttributeGroupType -->
<g id="node17" class="node">
<title>http://ns.imfid.org/imf#AttributeGroupType</title>
<polygon fill="none" stroke="black" points="99,-190 0,-190 0,-154 99,-154 99,-190"/>
<text text-anchor="middle" x="49.5" y="-170.1" font-family="Arial" font-size="8.00">imf:AttributeGroupType</text>
</g>
<!-- http://ns.imfid.org/imf#AttributeGroupType&#45;&gt;http://ns.imfid.org/imf#Type -->
<g id="edge2" class="edge">
<title>http://ns.imfid.org/imf#AttributeGroupType&#45;&gt;http://ns.imfid.org/imf#Type</title>
<path fill="none" stroke="black" d="M74.89,-190.01C88.82,-199.33 106.27,-211.03 121.37,-221.14"/>
<polygon fill="none" stroke="black" points="119.69,-224.23 129.95,-226.89 123.59,-218.41 119.69,-224.23"/>
</g>
<!-- http://ns.imfid.org/imf#BlockType -->
<g id="node18" class="node">
<title>http://ns.imfid.org/imf#BlockType</title>
<polygon fill="none" stroke="black" points="702,-36 637,-36 637,0 702,0 702,-36"/>
<text text-anchor="middle" x="669.5" y="-16.1" font-family="Arial" font-size="8.00">imf:BlockType</text>
</g>
<!-- http://ns.imfid.org/imf#BlockType&#45;&gt;http://ns.imfid.org/imf#TerminalType -->
<g id="edge12" class="edge">
<title>http://ns.imfid.org/imf#BlockType&#45;&gt;http://ns.imfid.org/imf#TerminalType</title>
<path fill="none" stroke="black" d="M650.41,-36.14C638.07,-47.22 621.83,-61.79 608.22,-74.01"/>
<polygon fill="black" stroke="black" points="605.66,-71.61 600.56,-80.89 610.34,-76.82 605.66,-71.61"/>
<text text-anchor="middle" x="665" y="-56.6" font-family="Arial" font-size="8.00">imf:hasTerminalType</text>
</g>
<!-- http://ns.imfid.org/imf#BlockType&#45;&gt;http://ns.imfid.org/imf#ElementType -->
<g id="edge15" class="edge">
<title>http://ns.imfid.org/imf#BlockType&#45;&gt;http://ns.imfid.org/imf#ElementType</title>
<path fill="none" stroke="black" d="M690.67,-36.2C695.9,-41.41 701,-47.49 704.5,-54 719.65,-82.15 725.26,-118.83 727.32,-143.56"/>
<polygon fill="none" stroke="black" points="723.84,-143.95 728.02,-153.68 730.82,-143.47 723.84,-143.95"/>
</g>
<!-- http://ns.imfid.org/imf#Attribute -->
<g id="node19" class="node">
<title>http://ns.imfid.org/imf#Attribute</title>
<polygon fill="none" stroke="black" points="2329,-36 2270,-36 2270,0 2329,0 2329,-36"/>
<text text-anchor="middle" x="2299.5" y="-16.1" font-family="Arial" font-size="8.00">imf:Attribute</text>
</g>
<!-- dbf10f23&#45;07cb&#45;4cd8&#45;9783&#45;726ee9a3aab5 -->
<g id="node22" class="node">
<title>dbf10f23&#45;07cb&#45;4cd8&#45;9783&#45;726ee9a3aab5</title>
<polygon fill="#e5e5e5" stroke="black" stroke-dasharray="5,2" points="2410,-110 2189,-110 2189,-88 2410,-88 2410,-110"/>
<text text-anchor="middle" x="2299.5" y="-97.1" font-family="Arial" font-size="8.00">dbf10f23&#45;07cb&#45;4cd8&#45;9783&#45;726ee9a3aab5,owl:Restriction</text>
</g>
<!-- http://ns.imfid.org/imf#Attribute&#45;&gt;dbf10f23&#45;07cb&#45;4cd8&#45;9783&#45;726ee9a3aab5 -->
<g id="edge1" class="edge">
<title>http://ns.imfid.org/imf#Attribute&#45;&gt;dbf10f23&#45;07cb&#45;4cd8&#45;9783&#45;726ee9a3aab5</title>
<path fill="none" stroke="black" d="M2299.5,-36.14C2299.5,-48.36 2299.5,-64.82 2299.5,-77.7"/>
<polygon fill="none" stroke="black" points="2296,-77.89 2299.5,-87.89 2303,-77.89 2296,-77.89"/>
</g>
<!-- http://ns.imfid.org/imf#Direction -->
<g id="node20" class="node">
<title>http://ns.imfid.org/imf#Direction</title>
<polygon fill="none" stroke="black" points="2408,-36 2347,-36 2347,0 2408,0 2408,-36"/>
<text text-anchor="middle" x="2377.5" y="-16.1" font-family="Arial" font-size="8.00">imf:Direction</text>
</g>
<!-- http://ns.imfid.org/imf#TypeConstraint -->
<g id="node24" class="node">
<title>http://ns.imfid.org/imf#TypeConstraint</title>
<polygon fill="none" stroke="black" points="1254,-36 1171,-36 1171,0 1254,0 1254,-36"/>
<text text-anchor="middle" x="1212.5" y="-16.1" font-family="Arial" font-size="8.00">imf:TypeConstraint</text>
</g>
<!-- http://ns.imfid.org/imf#TypeConstraint&#45;&gt;095d7dfa&#45;c708&#45;4e5d&#45;a4fe&#45;fca9c6fcfb51 -->
<g id="edge6" class="edge">
<title>http://ns.imfid.org/imf#TypeConstraint&#45;&gt;095d7dfa&#45;c708&#45;4e5d&#45;a4fe&#45;fca9c6fcfb51</title>
<path fill="none" stroke="black" d="M1186.9,-36.14C1166.44,-49.84 1138,-68.88 1118.09,-82.21"/>
<polygon fill="none" stroke="black" points="1115.97,-79.42 1109.61,-87.89 1119.86,-85.23 1115.97,-79.42"/>
</g>
<!-- 4683bea2&#45;144f&#45;4768&#45;8b31&#45;94232161db7d -->
<g id="node26" class="node">
<title>4683bea2&#45;144f&#45;4768&#45;8b31&#45;94232161db7d</title>
<polygon fill="#e5e5e5" stroke="black" stroke-dasharray="5,2" points="1442.5,-110 1218.5,-110 1218.5,-88 1442.5,-88 1442.5,-110"/>
<text text-anchor="middle" x="1330.5" y="-97.1" font-family="Arial" font-size="8.00">4683bea2&#45;144f&#45;4768&#45;8b31&#45;94232161db7d,owl:Restriction</text>
</g>
<!-- http://ns.imfid.org/imf#TypeConstraint&#45;&gt;4683bea2&#45;144f&#45;4768&#45;8b31&#45;94232161db7d -->
<g id="edge9" class="edge">
<title>http://ns.imfid.org/imf#TypeConstraint&#45;&gt;4683bea2&#45;144f&#45;4768&#45;8b31&#45;94232161db7d</title>
<path fill="none" stroke="black" d="M1238.1,-36.14C1258.56,-49.84 1287,-68.88 1306.91,-82.21"/>
<polygon fill="none" stroke="black" points="1305.14,-85.23 1315.39,-87.89 1309.03,-79.42 1305.14,-85.23"/>
</g>
<!-- http://www.w3.org/2002/07/owl#Thing -->
<g id="node25" class="node">
<title>http://www.w3.org/2002/07/owl#Thing</title>
<polygon fill="none" stroke="black" points="2480.5,-36 2426.5,-36 2426.5,0 2480.5,0 2480.5,-36"/>
<text text-anchor="middle" x="2453.5" y="-16.1" font-family="Arial" font-size="8.00">owl:Thing</text>
</g>
<!-- http://ns.imfid.org/imf#AttributeType -->
<g id="node27" class="node">
<title>http://ns.imfid.org/imf#AttributeType</title>
<polygon fill="none" stroke="black" points="194,-190 117,-190 117,-154 194,-154 194,-190"/>
<text text-anchor="middle" x="155.5" y="-170.1" font-family="Arial" font-size="8.00">imf:AttributeType</text>
</g>
<!-- http://ns.imfid.org/imf#AttributeType&#45;&gt;http://ns.imfid.org/imf#Type -->
<g id="edge16" class="edge">
<title>http://ns.imfid.org/imf#AttributeType&#45;&gt;http://ns.imfid.org/imf#Type</title>
<path fill="none" stroke="black" d="M155.5,-190.19C155.5,-198.21 155.5,-207.95 155.5,-216.93"/>
<polygon fill="none" stroke="black" points="152,-216.97 155.5,-226.97 159,-216.97 152,-216.97"/>
</g>
</g>
</svg>

