<?xml version="1.0" encoding="UTF-8" standalone="no"?>
<!DOCTYPE svg PUBLIC "-//W3C//DTD SVG 1.1//EN"
 "http://www.w3.org/Graphics/SVG/1.1/DTD/svg11.dtd">
<!-- Generated by graphviz version 2.43.0 (0)
 -->
<!-- Title: urn:temp#graph Pages: 1 -->
<svg width="1711px" height="190px"
 viewBox="0.00 0.00 1711.00 190.00" xmlns="http://www.w3.org/2000/svg" xmlns:xlink="http://www.w3.org/1999/xlink">
<g id="graph0" class="graph" transform="scale(1.0 1.0) rotate(0) translate(4 186)">
<title>urn:temp#graph</title>
<polygon fill="white" stroke="transparent" points="-4,4 -4,-186 1707,-186 1707,4 -4,4"/>
<!-- http://ns.imfid.org/imf#InterfacePoint -->
<g id="node1" class="node">
<title>http://ns.imfid.org/imf#InterfacePoint</title>
<polygon fill="none" stroke="black" points="764,-109 685,-109 685,-73 764,-73 764,-109"/>
<text text-anchor="middle" x="724.5" y="-89.1" font-family="Arial" font-size="8.00">imf:InterfacePoint</text>
</g>
<!-- http://ns.imfid.org/imf#FunctionAspect -->
<g id="node2" class="node">
<title>http://ns.imfid.org/imf#FunctionAspect</title>
<polygon fill="none" stroke="black" points="1401.5,-36 1317.5,-36 1317.5,0 1401.5,0 1401.5,-36"/>
<text text-anchor="middle" x="1359.5" y="-16.1" font-family="Arial" font-size="8.00">imf:FunctionAspect</text>
</g>
<!-- http://ns.imfid.org/imf#Aspect -->
<g id="node5" class="node">
<title>http://ns.imfid.org/imf#Aspect</title>
<polygon fill="none" stroke="black" points="1539.5,-109 1485.5,-109 1485.5,-73 1539.5,-73 1539.5,-109"/>
<text text-anchor="middle" x="1512.5" y="-89.1" font-family="Arial" font-size="8.00">imf:Aspect</text>
</g>
<!-- http://ns.imfid.org/imf#FunctionAspect&#45;&gt;http://ns.imfid.org/imf#Aspect -->
<g id="edge29" class="edge">
<title>http://ns.imfid.org/imf#FunctionAspect&#45;&gt;http://ns.imfid.org/imf#Aspect</title>
<path fill="none" stroke="black" stroke-dasharray="1,5" d="M1396.15,-36.01C1420.34,-47.23 1451.91,-61.88 1476.06,-73.09"/>
<polygon fill="black" stroke="black" points="1474.71,-76.32 1485.26,-77.36 1477.66,-69.97 1474.71,-76.32"/>
</g>
<!-- http://ns.imfid.org/imf#InstalledAspect -->
<g id="node3" class="node">
<title>http://ns.imfid.org/imf#InstalledAspect</title>
<polygon fill="none" stroke="black" points="1503,-36 1420,-36 1420,0 1503,0 1503,-36"/>
<text text-anchor="middle" x="1461.5" y="-16.1" font-family="Arial" font-size="8.00">imf:InstalledAspect</text>
</g>
<!-- http://ns.imfid.org/imf#InstalledAspect&#45;&gt;http://ns.imfid.org/imf#Aspect -->
<g id="edge7" class="edge">
<title>http://ns.imfid.org/imf#InstalledAspect&#45;&gt;http://ns.imfid.org/imf#Aspect</title>
<path fill="none" stroke="black" stroke-dasharray="1,5" d="M1473.85,-36.19C1479.98,-44.73 1487.52,-55.23 1494.31,-64.68"/>
<polygon fill="black" stroke="black" points="1491.59,-66.89 1500.27,-72.97 1497.28,-62.81 1491.59,-66.89"/>
</g>
<!-- http://ns.imfid.org/imf#FunctionTerminal -->
<g id="node4" class="node">
<title>http://ns.imfid.org/imf#FunctionTerminal</title>
<polygon fill="none" stroke="black" points="429.5,-36 339.5,-36 339.5,0 429.5,0 429.5,-36"/>
<text text-anchor="middle" x="384.5" y="-16.1" font-family="Arial" font-size="8.00">imf:FunctionTerminal</text>
</g>
<!-- http://ns.imfid.org/imf#Terminal -->
<g id="node7" class="node">
<title>http://ns.imfid.org/imf#Terminal</title>
<polygon fill="none" stroke="black" points="386,-109 327,-109 327,-73 386,-73 386,-109"/>
<text text-anchor="middle" x="356.5" y="-89.1" font-family="Arial" font-size="8.00">imf:Terminal</text>
</g>
<!-- http://ns.imfid.org/imf#FunctionTerminal&#45;&gt;http://ns.imfid.org/imf#Terminal -->
<g id="edge13" class="edge">
<title>http://ns.imfid.org/imf#FunctionTerminal&#45;&gt;http://ns.imfid.org/imf#Terminal</title>
<path fill="none" stroke="black" d="M377.72,-36.19C374.49,-44.38 370.55,-54.38 366.94,-63.52"/>
<polygon fill="none" stroke="black" points="363.63,-62.38 363.22,-72.97 370.14,-64.95 363.63,-62.38"/>
</g>
<!-- http://ns.imfid.org/imf#FunctionAspectElement -->
<g id="node16" class="node">
<title>http://ns.imfid.org/imf#FunctionAspectElement</title>
<polygon fill="none" stroke="black" points="895,-109 782,-109 782,-73 895,-73 895,-109"/>
<text text-anchor="middle" x="838.5" y="-89.1" font-family="Arial" font-size="8.00">imf:FunctionAspectElement</text>
</g>
<!-- http://ns.imfid.org/imf#FunctionTerminal&#45;&gt;http://ns.imfid.org/imf#FunctionAspectElement -->
<g id="edge33" class="edge">
<title>http://ns.imfid.org/imf#FunctionTerminal&#45;&gt;http://ns.imfid.org/imf#FunctionAspectElement</title>
<path fill="none" stroke="black" d="M429.68,-34.06C432.64,-34.79 435.6,-35.45 438.5,-36 548.8,-57 579.47,-37.28 690.5,-54 724.6,-59.14 734.63,-63.4 771.9,-72.83"/>
<polygon fill="none" stroke="black" points="771.45,-76.33 782,-75.35 773.14,-69.54 771.45,-76.33"/>
</g>
<!-- http://ns.imfid.org/imf#InstalledAspectElement -->
<g id="node6" class="node">
<title>http://ns.imfid.org/imf#InstalledAspectElement</title>
<polygon fill="none" stroke="black" points="1106.5,-109 994.5,-109 994.5,-73 1106.5,-73 1106.5,-109"/>
<text text-anchor="middle" x="1050.5" y="-89.1" font-family="Arial" font-size="8.00">imf:InstalledAspectElement</text>
</g>
<!-- http://ns.imfid.org/imf#AspectElement -->
<g id="node21" class="node">
<title>http://ns.imfid.org/imf#AspectElement</title>
<polygon fill="none" stroke="black" points="715,-182 632,-182 632,-146 715,-146 715,-182"/>
<text text-anchor="middle" x="673.5" y="-162.1" font-family="Arial" font-size="8.00">imf:AspectElement</text>
</g>
<!-- http://ns.imfid.org/imf#InstalledAspectElement&#45;&gt;http://ns.imfid.org/imf#AspectElement -->
<g id="edge23" class="edge">
<title>http://ns.imfid.org/imf#InstalledAspectElement&#45;&gt;http://ns.imfid.org/imf#AspectElement</title>
<path fill="none" stroke="black" d="M994.46,-106.14C990.09,-107.15 985.73,-108.11 981.5,-109 891.86,-127.88 786.58,-145.33 725.22,-155.03"/>
<polygon fill="none" stroke="black" points="724.35,-151.63 715.02,-156.64 725.44,-158.54 724.35,-151.63"/>
</g>
<!-- http://ns.imfid.org/imf#ProductBlock -->
<g id="node8" class="node">
<title>http://ns.imfid.org/imf#ProductBlock</title>
<polygon fill="none" stroke="black" points="980.5,-36 904.5,-36 904.5,0 980.5,0 980.5,-36"/>
<text text-anchor="middle" x="942.5" y="-16.1" font-family="Arial" font-size="8.00">imf:ProductBlock</text>
</g>
<!-- http://ns.imfid.org/imf#Block -->
<g id="node15" class="node">
<title>http://ns.imfid.org/imf#Block</title>
<polygon fill="none" stroke="black" points="972.5,-109 918.5,-109 918.5,-73 972.5,-73 972.5,-109"/>
<text text-anchor="middle" x="945.5" y="-89.1" font-family="Arial" font-size="8.00">imf:Block</text>
</g>
<!-- http://ns.imfid.org/imf#ProductBlock&#45;&gt;http://ns.imfid.org/imf#Block -->
<g id="edge3" class="edge">
<title>http://ns.imfid.org/imf#ProductBlock&#45;&gt;http://ns.imfid.org/imf#Block</title>
<path fill="none" stroke="black" d="M943.23,-36.19C943.57,-44.21 943.98,-53.95 944.36,-62.93"/>
<polygon fill="none" stroke="black" points="940.86,-63.13 944.78,-72.97 947.86,-62.83 940.86,-63.13"/>
</g>
<!-- http://ns.imfid.org/imf#ProductAspectElement -->
<g id="node19" class="node">
<title>http://ns.imfid.org/imf#ProductAspectElement</title>
<polygon fill="none" stroke="black" points="666.5,-109 556.5,-109 556.5,-73 666.5,-73 666.5,-109"/>
<text text-anchor="middle" x="611.5" y="-89.1" font-family="Arial" font-size="8.00">imf:ProductAspectElement</text>
</g>
<!-- http://ns.imfid.org/imf#ProductBlock&#45;&gt;http://ns.imfid.org/imf#ProductAspectElement -->
<g id="edge21" class="edge">
<title>http://ns.imfid.org/imf#ProductBlock&#45;&gt;http://ns.imfid.org/imf#ProductAspectElement</title>
<path fill="none" stroke="black" d="M904.46,-33.41C901.45,-34.35 898.44,-35.23 895.5,-36 802.69,-60.38 774.23,-52.58 676.57,-72.9"/>
<polygon fill="none" stroke="black" points="675.63,-69.52 666.58,-75.02 677.09,-76.36 675.63,-69.52"/>
</g>
<!-- http://ns.imfid.org/imf#InstalledInterfacePoint -->
<g id="node9" class="node">
<title>http://ns.imfid.org/imf#InstalledInterfacePoint</title>
<polygon fill="none" stroke="black" points="1106.5,-36 998.5,-36 998.5,0 1106.5,0 1106.5,-36"/>
<text text-anchor="middle" x="1052.5" y="-16.1" font-family="Arial" font-size="8.00">imf:InstalledInterfacePoint</text>
</g>
<!-- http://ns.imfid.org/imf#InstalledInterfacePoint&#45;&gt;http://ns.imfid.org/imf#InterfacePoint -->
<g id="edge2" class="edge">
<title>http://ns.imfid.org/imf#InstalledInterfacePoint&#45;&gt;http://ns.imfid.org/imf#InterfacePoint</title>
<path fill="none" stroke="black" d="M998.28,-33.98C995.32,-34.69 992.38,-35.37 989.5,-36 897.02,-56.31 868.98,-48.88 773.88,-72.86"/>
<polygon fill="none" stroke="black" points="772.96,-69.49 764.15,-75.37 774.71,-76.27 772.96,-69.49"/>
</g>
<!-- http://ns.imfid.org/imf#InstalledInterfacePoint&#45;&gt;http://ns.imfid.org/imf#InstalledAspectElement -->
<g id="edge9" class="edge">
<title>http://ns.imfid.org/imf#InstalledInterfacePoint&#45;&gt;http://ns.imfid.org/imf#InstalledAspectElement</title>
<path fill="none" stroke="black" d="M1052.02,-36.19C1051.79,-44.21 1051.52,-53.95 1051.26,-62.93"/>
<polygon fill="none" stroke="black" points="1047.76,-62.88 1050.98,-72.97 1054.76,-63.07 1047.76,-62.88"/>
</g>
<!-- http://ns.imfid.org/imf#FunctionBlock -->
<g id="node10" class="node">
<title>http://ns.imfid.org/imf#FunctionBlock</title>
<polygon fill="none" stroke="black" points="1204,-36 1125,-36 1125,0 1204,0 1204,-36"/>
<text text-anchor="middle" x="1164.5" y="-16.1" font-family="Arial" font-size="8.00">imf:FunctionBlock</text>
</g>
<!-- http://ns.imfid.org/imf#FunctionBlock&#45;&gt;http://ns.imfid.org/imf#Block -->
<g id="edge1" class="edge">
<title>http://ns.imfid.org/imf#FunctionBlock&#45;&gt;http://ns.imfid.org/imf#Block</title>
<path fill="none" stroke="black" d="M1124.98,-32.93C1121.78,-33.99 1118.59,-35.02 1115.5,-36 1058.21,-54.07 1042.14,-52.99 985.5,-73 984.47,-73.36 983.43,-73.74 982.38,-74.13"/>
<polygon fill="none" stroke="black" points="980.91,-70.94 972.87,-77.84 983.45,-77.47 980.91,-70.94"/>
</g>
<!-- http://ns.imfid.org/imf#FunctionBlock&#45;&gt;http://ns.imfid.org/imf#FunctionAspectElement -->
<g id="edge14" class="edge">
<title>http://ns.imfid.org/imf#FunctionBlock&#45;&gt;http://ns.imfid.org/imf#FunctionAspectElement</title>
<path fill="none" stroke="black" d="M1124.81,-33.35C1121.68,-34.31 1118.55,-35.2 1115.5,-36 1025.51,-59.54 1000.55,-53.94 909.5,-73 908.03,-73.31 906.54,-73.62 905.04,-73.95"/>
<polygon fill="none" stroke="black" points="904.03,-70.59 895.02,-76.16 905.53,-77.42 904.03,-70.59"/>
</g>
<!-- http://ns.imfid.org/imf#LocationInterfacePoint -->
<g id="node11" class="node">
<title>http://ns.imfid.org/imf#LocationInterfacePoint</title>
<polygon fill="none" stroke="black" points="216,-36 107,-36 107,0 216,0 216,-36"/>
<text text-anchor="middle" x="161.5" y="-16.1" font-family="Arial" font-size="8.00">imf:LocationInterfacePoint</text>
</g>
<!-- http://ns.imfid.org/imf#LocationInterfacePoint&#45;&gt;http://ns.imfid.org/imf#InterfacePoint -->
<g id="edge11" class="edge">
<title>http://ns.imfid.org/imf#LocationInterfacePoint&#45;&gt;http://ns.imfid.org/imf#InterfacePoint</title>
<path fill="none" stroke="black" d="M216.34,-34.43C219.09,-35 221.82,-35.53 224.5,-36 419.43,-70.01 476.87,-32.73 675.04,-73.27"/>
<polygon fill="none" stroke="black" points="674.39,-76.7 684.89,-75.32 675.82,-69.85 674.39,-76.7"/>
</g>
<!-- http://www.w3.org/2002/07/owl#Nothing -->
<g id="node14" class="node">
<title>http://www.w3.org/2002/07/owl#Nothing</title>
<polygon fill="none" stroke="black" points="161,-109 102,-109 102,-73 161,-73 161,-109"/>
<text text-anchor="middle" x="131.5" y="-89.1" font-family="Arial" font-size="8.00">owl:Nothing</text>
</g>
<!-- http://ns.imfid.org/imf#LocationInterfacePoint&#45;&gt;http://www.w3.org/2002/07/owl#Nothing -->
<g id="edge26" class="edge">
<title>http://ns.imfid.org/imf#LocationInterfacePoint&#45;&gt;http://www.w3.org/2002/07/owl#Nothing</title>
<path fill="none" stroke="black" d="M154.24,-36.19C150.77,-44.38 146.55,-54.38 142.69,-63.52"/>
<polygon fill="none" stroke="black" points="139.36,-62.4 138.7,-72.97 145.81,-65.12 139.36,-62.4"/>
</g>
<!-- http://ns.imfid.org/imf#LocationAspectElement -->
<g id="node26" class="node">
<title>http://ns.imfid.org/imf#LocationAspectElement</title>
<polygon fill="none" stroke="black" points="298,-109 185,-109 185,-73 298,-73 298,-109"/>
<text text-anchor="middle" x="241.5" y="-89.1" font-family="Arial" font-size="8.00">imf:LocationAspectElement</text>
</g>
<!-- http://ns.imfid.org/imf#LocationInterfacePoint&#45;&gt;http://ns.imfid.org/imf#LocationAspectElement -->
<g id="edge6" class="edge">
<title>http://ns.imfid.org/imf#LocationInterfacePoint&#45;&gt;http://ns.imfid.org/imf#LocationAspectElement</title>
<path fill="none" stroke="black" d="M180.87,-36.19C190.99,-45.17 203.54,-56.31 214.59,-66.11"/>
<polygon fill="none" stroke="black" points="212.51,-68.95 222.31,-72.97 217.16,-63.72 212.51,-68.95"/>
</g>
<!-- http://ns.imfid.org/imf#LocationAspect -->
<g id="node12" class="node">
<title>http://ns.imfid.org/imf#LocationAspect</title>
<polygon fill="none" stroke="black" points="1604,-36 1521,-36 1521,0 1604,0 1604,-36"/>
<text text-anchor="middle" x="1562.5" y="-16.1" font-family="Arial" font-size="8.00">imf:LocationAspect</text>
</g>
<!-- http://ns.imfid.org/imf#LocationAspect&#45;&gt;http://ns.imfid.org/imf#Aspect -->
<g id="edge25" class="edge">
<title>http://ns.imfid.org/imf#LocationAspect&#45;&gt;http://ns.imfid.org/imf#Aspect</title>
<path fill="none" stroke="black" stroke-dasharray="1,5" d="M1550.4,-36.19C1544.38,-44.73 1536.99,-55.23 1530.33,-64.68"/>
<polygon fill="black" stroke="black" points="1527.39,-62.78 1524.49,-72.97 1533.11,-66.81 1527.39,-62.78"/>
</g>
<!-- http://ns.imfid.org/imf#LocationTerminal -->
<g id="node13" class="node">
<title>http://ns.imfid.org/imf#LocationTerminal</title>
<polygon fill="none" stroke="black" points="89,-36 0,-36 0,0 89,0 89,-36"/>
<text text-anchor="middle" x="44.5" y="-16.1" font-family="Arial" font-size="8.00">imf:LocationTerminal</text>
</g>
<!-- http://ns.imfid.org/imf#LocationTerminal&#45;&gt;http://ns.imfid.org/imf#Terminal -->
<g id="edge27" class="edge">
<title>http://ns.imfid.org/imf#LocationTerminal&#45;&gt;http://ns.imfid.org/imf#Terminal</title>
<path fill="none" stroke="black" d="M89.2,-33.81C92,-34.59 94.78,-35.33 97.5,-36 189.07,-58.68 215.13,-49.53 306.5,-73 309.93,-73.88 313.47,-74.89 317,-75.95"/>
<polygon fill="none" stroke="black" points="316.26,-79.39 326.85,-79.09 318.38,-72.72 316.26,-79.39"/>
</g>
<!-- http://ns.imfid.org/imf#LocationTerminal&#45;&gt;http://www.w3.org/2002/07/owl#Nothing -->
<g id="edge16" class="edge">
<title>http://ns.imfid.org/imf#LocationTerminal&#45;&gt;http://www.w3.org/2002/07/owl#Nothing</title>
<path fill="none" stroke="black" d="M65.56,-36.19C76.67,-45.26 90.48,-56.52 102.58,-66.4"/>
<polygon fill="none" stroke="black" points="100.67,-69.36 110.63,-72.97 105.1,-63.94 100.67,-69.36"/>
</g>
<!-- http://ns.imfid.org/imf#LocationTerminal&#45;&gt;http://ns.imfid.org/imf#LocationAspectElement -->
<g id="edge34" class="edge">
<title>http://ns.imfid.org/imf#LocationTerminal&#45;&gt;http://ns.imfid.org/imf#LocationAspectElement</title>
<path fill="none" stroke="black" d="M89.2,-35.11C117.47,-45.3 154.28,-58.56 184.62,-69.5"/>
<polygon fill="none" stroke="black" points="183.63,-72.86 194.23,-72.96 186.01,-66.28 183.63,-72.86"/>
</g>
<!-- http://ns.imfid.org/imf#FunctionAspectElement&#45;&gt;http://ns.imfid.org/imf#AspectElement -->
<g id="edge32" class="edge">
<title>http://ns.imfid.org/imf#FunctionAspectElement&#45;&gt;http://ns.imfid.org/imf#AspectElement</title>
<path fill="none" stroke="black" d="M798.98,-109.01C776.09,-118.86 747.07,-131.34 722.7,-141.83"/>
<polygon fill="none" stroke="black" points="721.07,-138.72 713.27,-145.89 723.84,-145.15 721.07,-138.72"/>
</g>
<!-- http://ns.imfid.org/imf#ProductInterfacePoint -->
<g id="node17" class="node">
<title>http://ns.imfid.org/imf#ProductInterfacePoint</title>
<polygon fill="none" stroke="black" points="758,-36 651,-36 651,0 758,0 758,-36"/>
<text text-anchor="middle" x="704.5" y="-16.1" font-family="Arial" font-size="8.00">imf:ProductInterfacePoint</text>
</g>
<!-- http://ns.imfid.org/imf#ProductInterfacePoint&#45;&gt;http://ns.imfid.org/imf#InterfacePoint -->
<g id="edge35" class="edge">
<title>http://ns.imfid.org/imf#ProductInterfacePoint&#45;&gt;http://ns.imfid.org/imf#InterfacePoint</title>
<path fill="none" stroke="black" d="M709.34,-36.19C711.63,-44.3 714.41,-54.16 716.96,-63.22"/>
<polygon fill="none" stroke="black" points="713.62,-64.29 719.7,-72.97 720.36,-62.4 713.62,-64.29"/>
</g>
<!-- http://ns.imfid.org/imf#ProductInterfacePoint&#45;&gt;http://ns.imfid.org/imf#ProductAspectElement -->
<g id="edge5" class="edge">
<title>http://ns.imfid.org/imf#ProductInterfacePoint&#45;&gt;http://ns.imfid.org/imf#ProductAspectElement</title>
<path fill="none" stroke="black" d="M681.99,-36.19C669.99,-45.34 655.07,-56.74 642.04,-66.68"/>
<polygon fill="none" stroke="black" points="639.63,-64.12 633.81,-72.97 643.88,-69.68 639.63,-64.12"/>
</g>
<!-- http://ns.imfid.org/imf#LocationBlock -->
<g id="node18" class="node">
<title>http://ns.imfid.org/imf#LocationBlock</title>
<polygon fill="none" stroke="black" points="525.5,-36 447.5,-36 447.5,0 525.5,0 525.5,-36"/>
<text text-anchor="middle" x="486.5" y="-16.1" font-family="Arial" font-size="8.00">imf:LocationBlock</text>
</g>
<!-- http://ns.imfid.org/imf#LocationBlock&#45;&gt;http://ns.imfid.org/imf#Block -->
<g id="edge10" class="edge">
<title>http://ns.imfid.org/imf#LocationBlock&#45;&gt;http://ns.imfid.org/imf#Block</title>
<path fill="none" stroke="black" d="M525.57,-33.7C528.57,-34.56 531.57,-35.34 534.5,-36 695.34,-71.99 743.49,-33.46 903.5,-73 905.18,-73.42 906.88,-73.88 908.59,-74.4"/>
<polygon fill="none" stroke="black" points="907.72,-77.8 918.31,-77.69 909.96,-71.17 907.72,-77.8"/>
</g>
<!-- http://ns.imfid.org/imf#LocationBlock&#45;&gt;http://ns.imfid.org/imf#LocationAspectElement -->
<g id="edge22" class="edge">
<title>http://ns.imfid.org/imf#LocationBlock&#45;&gt;http://ns.imfid.org/imf#LocationAspectElement</title>
<path fill="none" stroke="black" d="M447.29,-33.15C444.32,-34.14 441.37,-35.1 438.5,-36 395.48,-49.49 346.6,-62.9 308.29,-72.99"/>
<polygon fill="none" stroke="black" points="307.08,-69.69 298.29,-75.61 308.85,-76.46 307.08,-69.69"/>
</g>
<!-- http://ns.imfid.org/imf#ProductAspectElement&#45;&gt;http://ns.imfid.org/imf#AspectElement -->
<g id="edge24" class="edge">
<title>http://ns.imfid.org/imf#ProductAspectElement&#45;&gt;http://ns.imfid.org/imf#AspectElement</title>
<path fill="none" stroke="black" d="M626.51,-109.19C634.12,-117.91 643.51,-128.66 651.89,-138.25"/>
<polygon fill="none" stroke="black" points="649.42,-140.74 658.63,-145.97 654.69,-136.14 649.42,-140.74"/>
</g>
<!-- http://ns.imfid.org/imf#ProductAspect -->
<g id="node20" class="node">
<title>http://ns.imfid.org/imf#ProductAspect</title>
<polygon fill="none" stroke="black" points="1703,-36 1622,-36 1622,0 1703,0 1703,-36"/>
<text text-anchor="middle" x="1662.5" y="-16.1" font-family="Arial" font-size="8.00">imf:ProductAspect</text>
</g>
<!-- http://ns.imfid.org/imf#ProductAspect&#45;&gt;http://ns.imfid.org/imf#Aspect -->
<g id="edge4" class="edge">
<title>http://ns.imfid.org/imf#ProductAspect&#45;&gt;http://ns.imfid.org/imf#Aspect</title>
<path fill="none" stroke="black" stroke-dasharray="1,5" d="M1626.57,-36.01C1603.11,-47.11 1572.57,-61.57 1548.99,-72.73"/>
<polygon fill="black" stroke="black" points="1547.22,-69.69 1539.68,-77.13 1550.22,-76.02 1547.22,-69.69"/>
</g>
<!-- http://ns.imfid.org/imf#AspectElement&#45;&gt;http://ns.imfid.org/imf#AspectElement -->
<g id="edge28" class="edge">
<title>http://ns.imfid.org/imf#AspectElement&#45;&gt;http://ns.imfid.org/imf#AspectElement</title>
<path fill="none" stroke="black" d="M715.21,-157.36C725.41,-157.85 733,-160.06 733,-164 733,-166.46 730.03,-168.25 725.32,-169.36"/>
<polygon fill="black" stroke="black" points="724.69,-165.92 715.21,-170.64 725.57,-172.86 724.69,-165.92"/>
<text text-anchor="middle" x="756" y="-162.1" font-family="Arial" font-size="8.00">imf:fulfilledBy</text>
</g>
<!-- http://ns.imfid.org/imf#InstalledBlock -->
<g id="node22" class="node">
<title>http://ns.imfid.org/imf#InstalledBlock</title>
<polygon fill="none" stroke="black" points="1299,-36 1222,-36 1222,0 1299,0 1299,-36"/>
<text text-anchor="middle" x="1260.5" y="-16.1" font-family="Arial" font-size="8.00">imf:InstalledBlock</text>
</g>
<!-- http://ns.imfid.org/imf#InstalledBlock&#45;&gt;http://ns.imfid.org/imf#InstalledAspectElement -->
<g id="edge17" class="edge">
<title>http://ns.imfid.org/imf#InstalledBlock&#45;&gt;http://ns.imfid.org/imf#InstalledAspectElement</title>
<path fill="none" stroke="black" d="M1221.75,-32.79C1218.62,-33.89 1215.51,-34.97 1212.5,-36 1179.36,-47.39 1142.28,-59.78 1111.97,-69.81"/>
<polygon fill="none" stroke="black" points="1110.78,-66.52 1102.38,-72.98 1112.98,-73.16 1110.78,-66.52"/>
</g>
<!-- http://ns.imfid.org/imf#InstalledBlock&#45;&gt;http://ns.imfid.org/imf#Block -->
<g id="edge8" class="edge">
<title>http://ns.imfid.org/imf#InstalledBlock&#45;&gt;http://ns.imfid.org/imf#Block</title>
<path fill="none" stroke="black" d="M1221.91,-33.33C1218.75,-34.31 1215.58,-35.21 1212.5,-36 1113.48,-61.39 1083.69,-44.58 985.5,-73 984.45,-73.3 983.39,-73.63 982.32,-73.97"/>
<polygon fill="none" stroke="black" points="980.96,-70.74 972.73,-77.41 983.32,-77.33 980.96,-70.74"/>
</g>
<!-- http://ns.imfid.org/imf#FunctionInterfacePoint -->
<g id="node23" class="node">
<title>http://ns.imfid.org/imf#FunctionInterfacePoint</title>
<polygon fill="none" stroke="black" points="886.5,-36 776.5,-36 776.5,0 886.5,0 886.5,-36"/>
<text text-anchor="middle" x="831.5" y="-16.1" font-family="Arial" font-size="8.00">imf:FunctionInterfacePoint</text>
</g>
<!-- http://ns.imfid.org/imf#FunctionInterfacePoint&#45;&gt;http://ns.imfid.org/imf#InterfacePoint -->
<g id="edge20" class="edge">
<title>http://ns.imfid.org/imf#FunctionInterfacePoint&#45;&gt;http://ns.imfid.org/imf#InterfacePoint</title>
<path fill="none" stroke="black" d="M805.87,-36.01C791.81,-45.33 774.19,-57.03 758.95,-67.14"/>
<polygon fill="none" stroke="black" points="756.69,-64.44 750.29,-72.89 760.56,-70.27 756.69,-64.44"/>
</g>
<!-- http://ns.imfid.org/imf#FunctionInterfacePoint&#45;&gt;http://ns.imfid.org/imf#FunctionAspectElement -->
<g id="edge12" class="edge">
<title>http://ns.imfid.org/imf#FunctionInterfacePoint&#45;&gt;http://ns.imfid.org/imf#FunctionAspectElement</title>
<path fill="none" stroke="black" d="M833.19,-36.19C833.99,-44.21 834.95,-53.95 835.83,-62.93"/>
<polygon fill="none" stroke="black" points="832.36,-63.36 836.82,-72.97 839.32,-62.68 832.36,-63.36"/>
</g>
<!-- http://ns.imfid.org/imf#ProductTerminal -->
<g id="node24" class="node">
<title>http://ns.imfid.org/imf#ProductTerminal</title>
<polygon fill="none" stroke="black" points="321,-36 234,-36 234,0 321,0 321,-36"/>
<text text-anchor="middle" x="277.5" y="-16.1" font-family="Arial" font-size="8.00">imf:ProductTerminal</text>
</g>
<!-- http://ns.imfid.org/imf#ProductTerminal&#45;&gt;http://ns.imfid.org/imf#Terminal -->
<g id="edge15" class="edge">
<title>http://ns.imfid.org/imf#ProductTerminal&#45;&gt;http://ns.imfid.org/imf#Terminal</title>
<path fill="none" stroke="black" d="M296.62,-36.19C306.62,-45.17 319.01,-56.31 329.92,-66.11"/>
<polygon fill="none" stroke="black" points="327.78,-68.89 337.55,-72.97 332.45,-63.68 327.78,-68.89"/>
</g>
<!-- http://ns.imfid.org/imf#ProductTerminal&#45;&gt;http://ns.imfid.org/imf#ProductAspectElement -->
<g id="edge18" class="edge">
<title>http://ns.imfid.org/imf#ProductTerminal&#45;&gt;http://ns.imfid.org/imf#ProductAspectElement</title>
<path fill="none" stroke="black" d="M321.05,-33.43C324.24,-34.34 327.41,-35.21 330.5,-36 403.72,-54.7 489.14,-70.25 546.41,-79.78"/>
<polygon fill="none" stroke="black" points="545.97,-83.26 556.41,-81.43 547.11,-76.35 545.97,-83.26"/>
</g>
<!-- http://ns.imfid.org/imf#InstalledTerminal -->
<g id="node25" class="node">
<title>http://ns.imfid.org/imf#InstalledTerminal</title>
<polygon fill="none" stroke="black" points="633,-36 544,-36 544,0 633,0 633,-36"/>
<text text-anchor="middle" x="588.5" y="-16.1" font-family="Arial" font-size="8.00">imf:InstalledTerminal</text>
</g>
<!-- http://ns.imfid.org/imf#InstalledTerminal&#45;&gt;http://ns.imfid.org/imf#InstalledAspectElement -->
<g id="edge30" class="edge">
<title>http://ns.imfid.org/imf#InstalledTerminal&#45;&gt;http://ns.imfid.org/imf#InstalledAspectElement</title>
<path fill="none" stroke="black" d="M633.15,-34.02C635.96,-34.75 638.76,-35.42 641.5,-36 678.67,-43.9 944.08,-66.38 981.5,-73 982.4,-73.16 983.31,-73.32 984.23,-73.49"/>
<polygon fill="none" stroke="black" points="983.66,-76.95 994.15,-75.47 985.02,-70.08 983.66,-76.95"/>
</g>
<!-- http://ns.imfid.org/imf#InstalledTerminal&#45;&gt;http://ns.imfid.org/imf#Terminal -->
<g id="edge31" class="edge">
<title>http://ns.imfid.org/imf#InstalledTerminal&#45;&gt;http://ns.imfid.org/imf#Terminal</title>
<path fill="none" stroke="black" d="M543.72,-33.14C540.6,-34.11 537.5,-35.07 534.5,-36 486.84,-50.73 431.88,-67.35 395.79,-78.21"/>
<polygon fill="none" stroke="black" points="394.7,-74.88 386.13,-81.11 396.72,-81.58 394.7,-74.88"/>
</g>
<!-- http://ns.imfid.org/imf#LocationAspectElement&#45;&gt;http://ns.imfid.org/imf#AspectElement -->
<g id="edge19" class="edge">
<title>http://ns.imfid.org/imf#LocationAspectElement&#45;&gt;http://ns.imfid.org/imf#AspectElement</title>
<path fill="none" stroke="black" d="M298.27,-105.15C304.74,-106.52 311.25,-107.83 317.5,-109 425.18,-129.18 552.27,-147.04 621.73,-156.3"/>
<polygon fill="none" stroke="black" points="621.59,-159.81 631.96,-157.65 622.51,-152.87 621.59,-159.81"/>
</g>
</g>
</svg>

