<?xml version="1.0" encoding="UTF-8" standalone="no"?>
<!DOCTYPE svg PUBLIC "-//W3C//DTD SVG 1.1//EN"
 "http://www.w3.org/Graphics/SVG/1.1/DTD/svg11.dtd">
<!-- Generated by graphviz version 2.43.0 (0)
 -->
<!-- Title: urn:temp#graph Pages: 1 -->
<svg width="335px" height="360px"
 viewBox="0.00 0.00 335.00 360.00" xmlns="http://www.w3.org/2000/svg" xmlns:xlink="http://www.w3.org/1999/xlink">
<g id="graph0" class="graph" transform="scale(1.0 1.0) rotate(0) translate(4 356)">
<title>urn:temp#graph</title>
<polygon fill="white" stroke="transparent" points="-4,4 -4,-356 331,-356 331,4 -4,4"/>
<!-- http://ns.imfid.org/imf#SystemElement -->
<g id="node1" class="node">
<title>http://ns.imfid.org/imf#SystemElement</title>
<polygon fill="none" stroke="black" points="202.5,-352 117.5,-352 117.5,-316 202.5,-316 202.5,-352"/>
<text text-anchor="middle" x="160" y="-332.1" font-family="Arial" font-size="8.00">imf:SystemElement</text>
</g>
<!-- http://ns.imfid.org/imf#InterfacePoint -->
<g id="node2" class="node">
<title>http://ns.imfid.org/imf#InterfacePoint</title>
<polygon fill="none" stroke="black" points="85.5,-36 6.5,-36 6.5,0 85.5,0 85.5,-36"/>
<text text-anchor="middle" x="46" y="-16.1" font-family="Arial" font-size="8.00">imf:InterfacePoint</text>
</g>
<!-- http://ns.imfid.org/imf#InterfacePoint&#45;&gt;http://ns.imfid.org/imf#SystemElement -->
<g id="edge5" class="edge">
<title>http://ns.imfid.org/imf#InterfacePoint&#45;&gt;http://ns.imfid.org/imf#SystemElement</title>
<path fill="none" stroke="black" d="M28.87,-36.17C15.79,-51.16 0,-74.19 0,-98 0,-98 0,-98 0,-262 0,-309.85 60.52,-325.7 107.12,-330.81"/>
<polygon fill="none" stroke="black" points="106.83,-334.3 117.12,-331.77 107.5,-327.33 106.83,-334.3"/>
</g>
<!-- http://ns.imfid.org/imf#InputTerminal -->
<g id="node3" class="node">
<title>http://ns.imfid.org/imf#InputTerminal</title>
<polygon fill="none" stroke="black" points="117.5,-198 40.5,-198 40.5,-162 117.5,-162 117.5,-198"/>
<text text-anchor="middle" x="79" y="-178.1" font-family="Arial" font-size="8.00">imf:InputTerminal</text>
</g>
<!-- http://ns.imfid.org/imf#InterfacePoint&#45;&gt;http://ns.imfid.org/imf#InputTerminal -->
<g id="edge9" class="edge">
<title>http://ns.imfid.org/imf#InterfacePoint&#45;&gt;http://ns.imfid.org/imf#InputTerminal</title>
<path fill="none" stroke="black" d="M46.14,-36.23C46.64,-55.98 48.48,-89.22 55,-117 57.81,-128.96 62.43,-141.69 66.87,-152.48"/>
<polygon fill="black" stroke="black" points="63.69,-153.95 70.84,-161.77 70.13,-151.2 63.69,-153.95"/>
<text text-anchor="middle" x="76.5" y="-97.1" font-family="Arial" font-size="8.00">imf:theInput</text>
</g>
<!-- http://ns.imfid.org/imf#OutputTerminal -->
<g id="node6" class="node">
<title>http://ns.imfid.org/imf#OutputTerminal</title>
<polygon fill="none" stroke="black" points="190.5,-117 107.5,-117 107.5,-81 190.5,-81 190.5,-117"/>
<text text-anchor="middle" x="149" y="-97.1" font-family="Arial" font-size="8.00">imf:OutputTerminal</text>
</g>
<!-- http://ns.imfid.org/imf#InterfacePoint&#45;&gt;http://ns.imfid.org/imf#OutputTerminal -->
<g id="edge8" class="edge">
<title>http://ns.imfid.org/imf#InterfacePoint&#45;&gt;http://ns.imfid.org/imf#OutputTerminal</title>
<path fill="none" stroke="black" d="M68.35,-36.14C83.06,-47.43 102.51,-62.34 118.62,-74.7"/>
<polygon fill="black" stroke="black" points="116.63,-77.58 126.69,-80.89 120.89,-72.03 116.63,-77.58"/>
<text text-anchor="middle" x="125.5" y="-56.6" font-family="Arial" font-size="8.00">imf:theOutput</text>
</g>
<!-- http://ns.imfid.org/imf#Terminal -->
<g id="node4" class="node">
<title>http://ns.imfid.org/imf#Terminal</title>
<polygon fill="none" stroke="black" points="189.5,-279 130.5,-279 130.5,-243 189.5,-243 189.5,-279"/>
<text text-anchor="middle" x="160" y="-259.1" font-family="Arial" font-size="8.00">imf:Terminal</text>
</g>
<!-- http://ns.imfid.org/imf#InputTerminal&#45;&gt;http://ns.imfid.org/imf#Terminal -->
<g id="edge1" class="edge">
<title>http://ns.imfid.org/imf#InputTerminal&#45;&gt;http://ns.imfid.org/imf#Terminal</title>
<path fill="none" stroke="black" d="M96.58,-198.14C107.83,-209.12 122.6,-223.52 135.05,-235.67"/>
<polygon fill="none" stroke="black" points="132.86,-238.42 142.46,-242.89 137.74,-233.4 132.86,-238.42"/>
</g>
<!-- http://ns.imfid.org/imf#Terminal&#45;&gt;http://ns.imfid.org/imf#SystemElement -->
<g id="edge3" class="edge">
<title>http://ns.imfid.org/imf#Terminal&#45;&gt;http://ns.imfid.org/imf#SystemElement</title>
<path fill="none" stroke="black" d="M160,-279.19C160,-287.21 160,-296.95 160,-305.93"/>
<polygon fill="none" stroke="black" points="156.5,-305.97 160,-315.97 163.5,-305.97 156.5,-305.97"/>
</g>
<!-- http://ns.imfid.org/imf#Block -->
<g id="node5" class="node">
<title>http://ns.imfid.org/imf#Block</title>
<polygon fill="none" stroke="black" points="267,-198 213,-198 213,-162 267,-162 267,-198"/>
<text text-anchor="middle" x="240" y="-178.1" font-family="Arial" font-size="8.00">imf:Block</text>
</g>
<!-- http://ns.imfid.org/imf#Block&#45;&gt;http://ns.imfid.org/imf#SystemElement -->
<g id="edge10" class="edge">
<title>http://ns.imfid.org/imf#Block&#45;&gt;http://ns.imfid.org/imf#SystemElement</title>
<path fill="none" stroke="black" d="M248.48,-198.42C251.33,-206.62 253.09,-216.46 250,-225 237.86,-258.52 210.28,-288.95 188.82,-308.9"/>
<polygon fill="none" stroke="black" points="186.3,-306.46 181.24,-315.76 191,-311.65 186.3,-306.46"/>
</g>
<!-- http://ns.imfid.org/imf#Block&#45;&gt;http://ns.imfid.org/imf#Terminal -->
<g id="edge2" class="edge">
<title>http://ns.imfid.org/imf#Block&#45;&gt;http://ns.imfid.org/imf#Terminal</title>
<path fill="none" stroke="black" d="M215.14,-198.04C208,-203.42 200.41,-209.64 194,-216 188.35,-221.61 182.81,-228.17 177.89,-234.49"/>
<polygon fill="black" stroke="black" points="174.83,-232.75 171.63,-242.85 180.43,-236.95 174.83,-232.75"/>
<text text-anchor="middle" x="222" y="-218.6" font-family="Arial" font-size="8.00">imf:hasTerminal</text>
</g>
<!-- http://ns.imfid.org/imf#Block&#45;&gt;http://ns.imfid.org/imf#Block -->
<g id="edge7" class="edge">
<title>http://ns.imfid.org/imf#Block&#45;&gt;http://ns.imfid.org/imf#Block</title>
<path fill="none" stroke="black" d="M267.24,-172.51C277.02,-172.35 285,-174.84 285,-180 285,-183.14 282.04,-185.3 277.51,-186.46"/>
<polygon fill="black" stroke="black" points="276.84,-183.01 267.24,-187.49 277.54,-189.98 276.84,-183.01"/>
<text text-anchor="middle" x="306" y="-178.1" font-family="Arial" font-size="8.00">imf:isPartOf</text>
</g>
<!-- http://ns.imfid.org/imf#OutputTerminal&#45;&gt;http://ns.imfid.org/imf#InputTerminal -->
<g id="edge6" class="edge">
<title>http://ns.imfid.org/imf#OutputTerminal&#45;&gt;http://ns.imfid.org/imf#InputTerminal</title>
<path fill="none" stroke="black" d="M107.35,-112.34C96.65,-117.57 86.37,-124.88 80,-135 76.9,-139.93 75.55,-145.83 75.19,-151.68"/>
<polygon fill="black" stroke="black" points="71.7,-152.03 75.45,-161.94 78.7,-151.85 71.7,-152.03"/>
<text text-anchor="middle" x="113" y="-137.6" font-family="Arial" font-size="8.00">imf:isConnectedTo</text>
</g>
<!-- http://ns.imfid.org/imf#OutputTerminal&#45;&gt;http://ns.imfid.org/imf#Terminal -->
<g id="edge4" class="edge">
<title>http://ns.imfid.org/imf#OutputTerminal&#45;&gt;http://ns.imfid.org/imf#Terminal</title>
<path fill="none" stroke="black" d="M150.18,-117.12C152.07,-144.65 155.81,-198.99 158.09,-232.15"/>
<polygon fill="none" stroke="black" points="154.62,-232.78 158.8,-242.52 161.6,-232.3 154.62,-232.78"/>
</g>
</g>
</svg>

