<?xml version="1.0" encoding="UTF-8" standalone="no"?>
<!DOCTYPE svg PUBLIC "-//W3C//DTD SVG 1.1//EN"
 "http://www.w3.org/Graphics/SVG/1.1/DTD/svg11.dtd">
<!-- Generated by graphviz version 2.43.0 (0)
 -->
<!-- Title: urn:temp#graph Pages: 1 -->
<svg width="1315px" height="198px"
 viewBox="0.00 0.00 1315.00 198.00" xmlns="http://www.w3.org/2000/svg" xmlns:xlink="http://www.w3.org/1999/xlink">
<g id="graph0" class="graph" transform="scale(1.0 1.0) rotate(0) translate(4 194)">
<title>urn:temp#graph</title>
<polygon fill="white" stroke="transparent" points="-4,4 -4,-194 1311,-194 1311,4 -4,4"/>
<!-- http://ns.imfid.org/imf#operating -->
<g id="node1" class="node">
<title>http://ns.imfid.org/imf#operating</title>
<polygon fill="none" stroke="black" points="1134.5,-36 1071.5,-36 1071.5,0 1134.5,0 1134.5,-36"/>
<text text-anchor="middle" x="1103" y="-16.1" font-family="Arial" font-size="8.00">imf:operating</text>
</g>
<!-- http://ns.imfid.org/imf#Scope -->
<g id="node10" class="node">
<title>http://ns.imfid.org/imf#Scope</title>
<polygon fill="none" stroke="black" points="1130,-109 1076,-109 1076,-73 1130,-73 1130,-109"/>
<text text-anchor="middle" x="1103" y="-89.1" font-family="Arial" font-size="8.00">imf:Scope</text>
</g>
<!-- http://ns.imfid.org/imf#operating&#45;&gt;http://ns.imfid.org/imf#Scope -->
<g id="edge16" class="edge">
<title>http://ns.imfid.org/imf#operating&#45;&gt;http://ns.imfid.org/imf#Scope</title>
<path fill="none" stroke="black" stroke-dasharray="1,5" d="M1103,-36.19C1103,-44.21 1103,-53.95 1103,-62.93"/>
<polygon fill="black" stroke="black" points="1099.5,-62.97 1103,-72.97 1106.5,-62.97 1099.5,-62.97"/>
</g>
<!-- http://ns.imfid.org/imf#calculated -->
<g id="node2" class="node">
<title>http://ns.imfid.org/imf#calculated</title>
<polygon fill="none" stroke="black" points="811.5,-36 746.5,-36 746.5,0 811.5,0 811.5,-36"/>
<text text-anchor="middle" x="779" y="-16.1" font-family="Arial" font-size="8.00">imf:calculated</text>
</g>
<!-- http://ns.imfid.org/imf#Provenance -->
<g id="node15" class="node">
<title>http://ns.imfid.org/imf#Provenance</title>
<polygon fill="none" stroke="black" points="817,-109 745,-109 745,-73 817,-73 817,-109"/>
<text text-anchor="middle" x="781" y="-89.1" font-family="Arial" font-size="8.00">imf:Provenance</text>
</g>
<!-- http://ns.imfid.org/imf#calculated&#45;&gt;http://ns.imfid.org/imf#Provenance -->
<g id="edge10" class="edge">
<title>http://ns.imfid.org/imf#calculated&#45;&gt;http://ns.imfid.org/imf#Provenance</title>
<path fill="none" stroke="black" stroke-dasharray="1,5" d="M779.48,-36.19C779.71,-44.21 779.98,-53.95 780.24,-62.93"/>
<polygon fill="black" stroke="black" points="776.74,-63.07 780.52,-72.97 783.74,-62.88 776.74,-63.07"/>
</g>
<!-- http://ns.imfid.org/imf#nominal -->
<g id="node3" class="node">
<title>http://ns.imfid.org/imf#nominal</title>
<polygon fill="none" stroke="black" points="645.5,-36 588.5,-36 588.5,0 645.5,0 645.5,-36"/>
<text text-anchor="middle" x="617" y="-16.1" font-family="Arial" font-size="8.00">imf:nominal</text>
</g>
<!-- http://ns.imfid.org/imf#Range -->
<g id="node23" class="node">
<title>http://ns.imfid.org/imf#Range</title>
<polygon fill="none" stroke="black" points="566,-109 512,-109 512,-73 566,-73 566,-109"/>
<text text-anchor="middle" x="539" y="-89.1" font-family="Arial" font-size="8.00">imf:Range</text>
</g>
<!-- http://ns.imfid.org/imf#nominal&#45;&gt;http://ns.imfid.org/imf#Range -->
<g id="edge11" class="edge">
<title>http://ns.imfid.org/imf#nominal&#45;&gt;http://ns.imfid.org/imf#Range</title>
<path fill="none" stroke="black" stroke-dasharray="1,5" d="M598.12,-36.19C588.25,-45.17 576.02,-56.31 565.24,-66.11"/>
<polygon fill="black" stroke="black" points="562.75,-63.65 557.71,-72.97 567.46,-68.83 562.75,-63.65"/>
</g>
<!-- http://ns.imfid.org/imf#design -->
<g id="node4" class="node">
<title>http://ns.imfid.org/imf#design</title>
<polygon fill="none" stroke="black" points="1207,-36 1153,-36 1153,0 1207,0 1207,-36"/>
<text text-anchor="middle" x="1180" y="-16.1" font-family="Arial" font-size="8.00">imf:design</text>
</g>
<!-- http://ns.imfid.org/imf#design&#45;&gt;http://ns.imfid.org/imf#Scope -->
<g id="edge4" class="edge">
<title>http://ns.imfid.org/imf#design&#45;&gt;http://ns.imfid.org/imf#Scope</title>
<path fill="none" stroke="black" stroke-dasharray="1,5" d="M1161.36,-36.19C1151.62,-45.17 1139.54,-56.31 1128.9,-66.11"/>
<polygon fill="black" stroke="black" points="1126.45,-63.62 1121.47,-72.97 1131.19,-68.77 1126.45,-63.62"/>
</g>
<!-- http://ns.imfid.org/imf#specified -->
<g id="node5" class="node">
<title>http://ns.imfid.org/imf#specified</title>
<polygon fill="none" stroke="black" points="890,-36 830,-36 830,0 890,0 890,-36"/>
<text text-anchor="middle" x="860" y="-16.1" font-family="Arial" font-size="8.00">imf:specified</text>
</g>
<!-- http://ns.imfid.org/imf#specified&#45;&gt;http://ns.imfid.org/imf#Provenance -->
<g id="edge13" class="edge">
<title>http://ns.imfid.org/imf#specified&#45;&gt;http://ns.imfid.org/imf#Provenance</title>
<path fill="none" stroke="black" stroke-dasharray="1,5" d="M840.88,-36.19C830.88,-45.17 818.49,-56.31 807.58,-66.11"/>
<polygon fill="black" stroke="black" points="805.05,-63.68 799.95,-72.97 809.72,-68.89 805.05,-63.68"/>
</g>
<!-- b3bfda0d&#45;62eb&#45;4776&#45;a5db&#45;66a956f2d3c9 -->
<g id="node6" class="node">
<title>b3bfda0d&#45;62eb&#45;4776&#45;a5db&#45;66a956f2d3c9</title>
<polygon fill="#e5e5e5" stroke="black" stroke-dasharray="5,2" points="360,-185 190,-185 190,-159 360,-159 360,-185"/>
<text text-anchor="middle" x="275" y="-174.6" font-family="Arial" font-size="8.00">owl:Restriction</text>
<text text-anchor="middle" x="275" y="-165.6" font-family="Arial" font-size="8.00">,b3bfda0d&#45;62eb&#45;4776&#45;a5db&#45;66a956f2d3c9</text>
</g>
<!-- http://ns.imfid.org/imf#AttributeGroup -->
<g id="node7" class="node">
<title>http://ns.imfid.org/imf#AttributeGroup</title>
<polygon fill="none" stroke="black" points="1307,-36 1225,-36 1225,0 1307,0 1307,-36"/>
<text text-anchor="middle" x="1266" y="-16.1" font-family="Arial" font-size="8.00">imf:AttributeGroup</text>
</g>
<!-- c90f9d77&#45;4ef5&#45;4cf3&#45;86e0&#45;4f7c51a2a9a4 -->
<g id="node8" class="node">
<title>c90f9d77&#45;4ef5&#45;4cf3&#45;86e0&#45;4f7c51a2a9a4</title>
<polygon fill="#e5e5e5" stroke="black" stroke-dasharray="5,2" points="542,-185 378,-185 378,-159 542,-159 542,-185"/>
<text text-anchor="middle" x="460" y="-174.6" font-family="Arial" font-size="8.00">owl:Restriction</text>
<text text-anchor="middle" x="460" y="-165.6" font-family="Arial" font-size="8.00">,c90f9d77&#45;4ef5&#45;4cf3&#45;86e0&#45;4f7c51a2a9a4</text>
</g>
<!-- ff763949&#45;7141&#45;432a&#45;8ac5&#45;e2d5909d0f76 -->
<g id="node9" class="node">
<title>ff763949&#45;7141&#45;432a&#45;8ac5&#45;e2d5909d0f76</title>
<polygon fill="#e5e5e5" stroke="black" stroke-dasharray="5,2" points="727.5,-185 560.5,-185 560.5,-159 727.5,-159 727.5,-185"/>
<text text-anchor="middle" x="644" y="-174.6" font-family="Arial" font-size="8.00">owl:Restriction</text>
<text text-anchor="middle" x="644" y="-165.6" font-family="Arial" font-size="8.00">,ff763949&#45;7141&#45;432a&#45;8ac5&#45;e2d5909d0f76</text>
</g>
<!-- http://ns.imfid.org/imf#AttributeQualifier -->
<g id="node16" class="node">
<title>http://ns.imfid.org/imf#AttributeQualifier</title>
<polygon fill="none" stroke="black" points="834.5,-190 745.5,-190 745.5,-154 834.5,-154 834.5,-190"/>
<text text-anchor="middle" x="790" y="-170.1" font-family="Arial" font-size="8.00">imf:AttributeQualifier</text>
</g>
<!-- http://ns.imfid.org/imf#Scope&#45;&gt;http://ns.imfid.org/imf#AttributeQualifier -->
<g id="edge14" class="edge">
<title>http://ns.imfid.org/imf#Scope&#45;&gt;http://ns.imfid.org/imf#AttributeQualifier</title>
<path fill="none" stroke="black" d="M1075.77,-98.87C1024.35,-111.85 912.06,-140.19 844.56,-157.23"/>
<polygon fill="none" stroke="black" points="843.37,-153.92 834.53,-159.76 845.08,-160.71 843.37,-153.92"/>
</g>
<!-- http://ns.imfid.org/imf#maximum -->
<g id="node11" class="node">
<title>http://ns.imfid.org/imf#maximum</title>
<polygon fill="none" stroke="black" points="341,-36 277,-36 277,0 341,0 341,-36"/>
<text text-anchor="middle" x="309" y="-16.1" font-family="Arial" font-size="8.00">imf:maximum</text>
</g>
<!-- http://ns.imfid.org/imf#maximum&#45;&gt;http://ns.imfid.org/imf#Range -->
<g id="edge7" class="edge">
<title>http://ns.imfid.org/imf#maximum&#45;&gt;http://ns.imfid.org/imf#Range</title>
<path fill="none" stroke="black" stroke-dasharray="1,5" d="M341.06,-32.82C344.06,-33.95 347.07,-35.03 350,-36 414.38,-57.27 433.62,-51.73 498,-73 499.42,-73.47 500.86,-73.96 502.3,-74.48"/>
<polygon fill="black" stroke="black" points="501.27,-77.83 511.87,-78.09 503.75,-71.28 501.27,-77.83"/>
</g>
<!-- http://ns.imfid.org/imf#minimum -->
<g id="node12" class="node">
<title>http://ns.imfid.org/imf#minimum</title>
<polygon fill="none" stroke="black" points="421,-36 359,-36 359,0 421,0 421,-36"/>
<text text-anchor="middle" x="390" y="-16.1" font-family="Arial" font-size="8.00">imf:minimum</text>
</g>
<!-- http://ns.imfid.org/imf#minimum&#45;&gt;http://ns.imfid.org/imf#Range -->
<g id="edge6" class="edge">
<title>http://ns.imfid.org/imf#minimum&#45;&gt;http://ns.imfid.org/imf#Range</title>
<path fill="none" stroke="black" stroke-dasharray="1,5" d="M421.24,-33.88C445,-45.21 477.74,-60.81 502.67,-72.69"/>
<polygon fill="black" stroke="black" points="501.27,-75.9 511.81,-77.04 504.29,-69.58 501.27,-75.9"/>
</g>
<!-- http://ns.imfid.org/imf#Attribute -->
<g id="node13" class="node">
<title>http://ns.imfid.org/imf#Attribute</title>
<polygon fill="none" stroke="black" points="489.5,-109 430.5,-109 430.5,-73 489.5,-73 489.5,-109"/>
<text text-anchor="middle" x="460" y="-89.1" font-family="Arial" font-size="8.00">imf:Attribute</text>
</g>
<!-- http://ns.imfid.org/imf#Attribute&#45;&gt;b3bfda0d&#45;62eb&#45;4776&#45;a5db&#45;66a956f2d3c9 -->
<g id="edge5" class="edge">
<title>http://ns.imfid.org/imf#Attribute&#45;&gt;b3bfda0d&#45;62eb&#45;4776&#45;a5db&#45;66a956f2d3c9</title>
<path fill="none" stroke="black" d="M430.28,-104.69C398.25,-118.37 347.22,-140.16 312.47,-155"/>
<polygon fill="none" stroke="black" points="310.96,-151.84 303.13,-158.99 313.7,-158.28 310.96,-151.84"/>
</g>
<!-- http://ns.imfid.org/imf#Attribute&#45;&gt;c90f9d77&#45;4ef5&#45;4cf3&#45;86e0&#45;4f7c51a2a9a4 -->
<g id="edge18" class="edge">
<title>http://ns.imfid.org/imf#Attribute&#45;&gt;c90f9d77&#45;4ef5&#45;4cf3&#45;86e0&#45;4f7c51a2a9a4</title>
<path fill="none" stroke="black" d="M460,-109.14C460,-120.65 460,-135.94 460,-148.44"/>
<polygon fill="none" stroke="black" points="456.5,-148.54 460,-158.54 463.5,-148.54 456.5,-148.54"/>
</g>
<!-- http://ns.imfid.org/imf#Attribute&#45;&gt;ff763949&#45;7141&#45;432a&#45;8ac5&#45;e2d5909d0f76 -->
<g id="edge19" class="edge">
<title>http://ns.imfid.org/imf#Attribute&#45;&gt;ff763949&#45;7141&#45;432a&#45;8ac5&#45;e2d5909d0f76</title>
<path fill="none" stroke="black" d="M489.56,-104.69C521.41,-118.37 572.17,-140.16 606.73,-155"/>
<polygon fill="none" stroke="black" points="605.45,-158.26 616.02,-158.99 608.21,-151.82 605.45,-158.26"/>
</g>
<!-- http://ns.imfid.org/imf#Attribute&#45;&gt;http://ns.imfid.org/imf#AttributeQualifier -->
<g id="edge9" class="edge">
<title>http://ns.imfid.org/imf#Attribute&#45;&gt;http://ns.imfid.org/imf#AttributeQualifier</title>
<path fill="none" stroke="black" d="M489.82,-104.61C494.2,-106.22 498.68,-107.74 503,-109 601.19,-137.62 631.9,-128.72 735.41,-154.03"/>
<polygon fill="black" stroke="black" points="734.77,-157.48 745.32,-156.5 736.47,-150.69 734.77,-157.48"/>
<text text-anchor="middle" x="659.5" y="-129.6" font-family="Arial" font-size="8.00">imf:qualifier</text>
</g>
<!-- c943147a&#45;dbd0&#45;40d6&#45;8363&#45;19d7380f953d -->
<g id="node18" class="node">
<title>c943147a&#45;dbd0&#45;40d6&#45;8363&#45;19d7380f953d</title>
<polygon fill="#e5e5e5" stroke="black" stroke-dasharray="5,2" points="172,-185 0,-185 0,-159 172,-159 172,-185"/>
<text text-anchor="middle" x="86" y="-174.6" font-family="Arial" font-size="8.00">owl:Restriction</text>
<text text-anchor="middle" x="86" y="-165.6" font-family="Arial" font-size="8.00">,c943147a&#45;dbd0&#45;40d6&#45;8363&#45;19d7380f953d</text>
</g>
<!-- http://ns.imfid.org/imf#Attribute&#45;&gt;c943147a&#45;dbd0&#45;40d6&#45;8363&#45;19d7380f953d -->
<g id="edge3" class="edge">
<title>http://ns.imfid.org/imf#Attribute&#45;&gt;c943147a&#45;dbd0&#45;40d6&#45;8363&#45;19d7380f953d</title>
<path fill="none" stroke="black" d="M430.34,-98.27C370.72,-110.86 235.03,-139.52 152.9,-156.87"/>
<polygon fill="none" stroke="black" points="151.98,-153.49 142.92,-158.98 153.42,-160.34 151.98,-153.49"/>
</g>
<!-- http://ns.imfid.org/imf#absolute -->
<g id="node14" class="node">
<title>http://ns.imfid.org/imf#absolute</title>
<polygon fill="none" stroke="black" points="1053.5,-36 994.5,-36 994.5,0 1053.5,0 1053.5,-36"/>
<text text-anchor="middle" x="1024" y="-16.1" font-family="Arial" font-size="8.00">imf:absolute</text>
</g>
<!-- http://ns.imfid.org/imf#Regularity -->
<g id="node19" class="node">
<title>http://ns.imfid.org/imf#Regularity</title>
<polygon fill="none" stroke="black" points="974.5,-109 909.5,-109 909.5,-73 974.5,-73 974.5,-109"/>
<text text-anchor="middle" x="942" y="-89.1" font-family="Arial" font-size="8.00">imf:Regularity</text>
</g>
<!-- http://ns.imfid.org/imf#absolute&#45;&gt;http://ns.imfid.org/imf#Regularity -->
<g id="edge8" class="edge">
<title>http://ns.imfid.org/imf#absolute&#45;&gt;http://ns.imfid.org/imf#Regularity</title>
<path fill="none" stroke="black" stroke-dasharray="1,5" d="M1004.15,-36.19C993.67,-45.26 980.66,-56.52 969.26,-66.4"/>
<polygon fill="black" stroke="black" points="966.94,-63.78 961.67,-72.97 971.52,-69.07 966.94,-63.78"/>
</g>
<!-- http://ns.imfid.org/imf#Provenance&#45;&gt;http://ns.imfid.org/imf#AttributeQualifier -->
<g id="edge21" class="edge">
<title>http://ns.imfid.org/imf#Provenance&#45;&gt;http://ns.imfid.org/imf#AttributeQualifier</title>
<path fill="none" stroke="black" d="M782.95,-109.14C784.11,-119.29 785.6,-132.37 786.91,-143.88"/>
<polygon fill="none" stroke="black" points="783.44,-144.35 788.05,-153.89 790.4,-143.56 783.44,-144.35"/>
</g>
<!-- http://ns.imfid.org/imf#measured -->
<g id="node17" class="node">
<title>http://ns.imfid.org/imf#measured</title>
<polygon fill="none" stroke="black" points="728.5,-36 663.5,-36 663.5,0 728.5,0 728.5,-36"/>
<text text-anchor="middle" x="696" y="-16.1" font-family="Arial" font-size="8.00">imf:measured</text>
</g>
<!-- http://ns.imfid.org/imf#measured&#45;&gt;http://ns.imfid.org/imf#Provenance -->
<g id="edge12" class="edge">
<title>http://ns.imfid.org/imf#measured&#45;&gt;http://ns.imfid.org/imf#Provenance</title>
<path fill="none" stroke="black" stroke-dasharray="1,5" d="M716.58,-36.19C727.43,-45.26 740.92,-56.52 752.75,-66.4"/>
<polygon fill="black" stroke="black" points="750.69,-69.25 760.61,-72.97 755.18,-63.87 750.69,-69.25"/>
</g>
<!-- http://ns.imfid.org/imf#Regularity&#45;&gt;http://ns.imfid.org/imf#AttributeQualifier -->
<g id="edge15" class="edge">
<title>http://ns.imfid.org/imf#Regularity&#45;&gt;http://ns.imfid.org/imf#AttributeQualifier</title>
<path fill="none" stroke="black" d="M909.39,-108.95C886.73,-120.73 856.32,-136.53 831.87,-149.24"/>
<polygon fill="none" stroke="black" points="830.07,-146.23 822.82,-153.94 833.3,-152.44 830.07,-146.23"/>
</g>
<!-- http://ns.imfid.org/imf#normal -->
<g id="node20" class="node">
<title>http://ns.imfid.org/imf#normal</title>
<polygon fill="none" stroke="black" points="493,-36 439,-36 439,0 493,0 493,-36"/>
<text text-anchor="middle" x="466" y="-16.1" font-family="Arial" font-size="8.00">imf:normal</text>
</g>
<!-- http://ns.imfid.org/imf#normal&#45;&gt;http://ns.imfid.org/imf#Range -->
<g id="edge1" class="edge">
<title>http://ns.imfid.org/imf#normal&#45;&gt;http://ns.imfid.org/imf#Range</title>
<path fill="none" stroke="black" stroke-dasharray="1,5" d="M483.67,-36.19C492.82,-45.08 504.14,-56.09 514.15,-65.83"/>
<polygon fill="black" stroke="black" points="511.88,-68.51 521.49,-72.97 516.76,-63.49 511.88,-68.51"/>
</g>
<!-- http://ns.imfid.org/imf#average -->
<g id="node21" class="node">
<title>http://ns.imfid.org/imf#average</title>
<polygon fill="none" stroke="black" points="570.5,-36 511.5,-36 511.5,0 570.5,0 570.5,-36"/>
<text text-anchor="middle" x="541" y="-16.1" font-family="Arial" font-size="8.00">imf:average</text>
</g>
<!-- http://ns.imfid.org/imf#average&#45;&gt;http://ns.imfid.org/imf#Range -->
<g id="edge17" class="edge">
<title>http://ns.imfid.org/imf#average&#45;&gt;http://ns.imfid.org/imf#Range</title>
<path fill="none" stroke="black" stroke-dasharray="1,5" d="M540.52,-36.19C540.29,-44.21 540.02,-53.95 539.76,-62.93"/>
<polygon fill="black" stroke="black" points="536.26,-62.88 539.48,-72.97 543.26,-63.07 536.26,-62.88"/>
</g>
<!-- http://ns.imfid.org/imf#continuous -->
<g id="node22" class="node">
<title>http://ns.imfid.org/imf#continuous</title>
<polygon fill="none" stroke="black" points="976,-36 908,-36 908,0 976,0 976,-36"/>
<text text-anchor="middle" x="942" y="-16.1" font-family="Arial" font-size="8.00">imf:continuous</text>
</g>
<!-- http://ns.imfid.org/imf#continuous&#45;&gt;http://ns.imfid.org/imf#Regularity -->
<g id="edge2" class="edge">
<title>http://ns.imfid.org/imf#continuous&#45;&gt;http://ns.imfid.org/imf#Regularity</title>
<path fill="none" stroke="black" stroke-dasharray="1,5" d="M942,-36.19C942,-44.21 942,-53.95 942,-62.93"/>
<polygon fill="black" stroke="black" points="938.5,-62.97 942,-72.97 945.5,-62.97 938.5,-62.97"/>
</g>
<!-- http://ns.imfid.org/imf#Range&#45;&gt;http://ns.imfid.org/imf#AttributeQualifier -->
<g id="edge20" class="edge">
<title>http://ns.imfid.org/imf#Range&#45;&gt;http://ns.imfid.org/imf#AttributeQualifier</title>
<path fill="none" stroke="black" d="M566.19,-93.26C604.08,-95.84 674.25,-103.62 729,-127 741.01,-132.13 752.94,-139.96 763.03,-147.61"/>
<polygon fill="none" stroke="black" points="761.01,-150.47 771.03,-153.92 765.35,-144.98 761.01,-150.47"/>
</g>
</g>
</svg>

