<?xml version="1.0" encoding="UTF-8" standalone="no"?>
<!DOCTYPE svg PUBLIC "-//W3C//DTD SVG 1.1//EN"
 "http://www.w3.org/Graphics/SVG/1.1/DTD/svg11.dtd">
<!-- Generated by graphviz version 2.43.0 (0)
 -->
<!-- Title: urn:temp#graph Pages: 1 -->
<svg width="1339px" height="271px"
 viewBox="0.00 0.00 1339.00 271.00" xmlns="http://www.w3.org/2000/svg" xmlns:xlink="http://www.w3.org/1999/xlink">
<g id="graph0" class="graph" transform="scale(1.0 1.0) rotate(0) translate(4 267)">
<title>urn:temp#graph</title>
<polygon fill="white" stroke="transparent" points="-4,4 -4,-267 1335,-267 1335,4 -4,4"/>
<!-- 4c9cc765&#45;b852&#45;4cd6&#45;8581&#45;780e955427e4 -->
<g id="node1" class="node">
<title>4c9cc765&#45;b852&#45;4cd6&#45;8581&#45;780e955427e4</title>
<polygon fill="#e5e5e5" stroke="black" stroke-dasharray="5,2" points="470,-177 298,-177 298,-151 470,-151 470,-177"/>
<text text-anchor="middle" x="384" y="-166.6" font-family="Arial" font-size="8.00">owl:Restriction</text>
<text text-anchor="middle" x="384" y="-157.6" font-family="Arial" font-size="8.00">,4c9cc765&#45;b852&#45;4cd6&#45;8581&#45;780e955427e4</text>
</g>
<!-- http://ns.imfid.org/imf#locationAspect -->
<g id="node2" class="node">
<title>http://ns.imfid.org/imf#locationAspect</title>
<polygon fill="none" stroke="black" points="180,-182 100,-182 100,-146 180,-146 180,-182"/>
<text text-anchor="middle" x="140" y="-162.1" font-family="Arial" font-size="8.00">imf:locationAspect</text>
</g>
<!-- http://ns.imfid.org/imf#Aspect -->
<g id="node5" class="node">
<title>http://ns.imfid.org/imf#Aspect</title>
<polygon fill="none" stroke="black" points="266,-263 212,-263 212,-227 266,-227 266,-263"/>
<text text-anchor="middle" x="239" y="-243.1" font-family="Arial" font-size="8.00">imf:Aspect</text>
</g>
<!-- http://ns.imfid.org/imf#locationAspect&#45;&gt;http://ns.imfid.org/imf#Aspect -->
<g id="edge1" class="edge">
<title>http://ns.imfid.org/imf#locationAspect&#45;&gt;http://ns.imfid.org/imf#Aspect</title>
<path fill="none" stroke="black" stroke-dasharray="1,5" d="M161.48,-182.14C175.49,-193.32 193.97,-208.07 209.37,-220.36"/>
<polygon fill="black" stroke="black" points="207.56,-223.39 217.56,-226.89 211.93,-217.92 207.56,-223.39"/>
</g>
<!-- ad79d3a2&#45;ccaf&#45;4c91&#45;8496&#45;17b1fe31ae23 -->
<g id="node3" class="node">
<title>ad79d3a2&#45;ccaf&#45;4c91&#45;8496&#45;17b1fe31ae23</title>
<polygon fill="#e5e5e5" stroke="black" stroke-dasharray="5,2" points="656,-177 488,-177 488,-151 656,-151 656,-177"/>
<text text-anchor="middle" x="572" y="-166.6" font-family="Arial" font-size="8.00">owl:Restriction</text>
<text text-anchor="middle" x="572" y="-157.6" font-family="Arial" font-size="8.00">,ad79d3a2&#45;ccaf&#45;4c91&#45;8496&#45;17b1fe31ae23</text>
</g>
<!-- http://ns.imfid.org/imf#FunctionTerminal -->
<g id="node4" class="node">
<title>http://ns.imfid.org/imf#FunctionTerminal</title>
<polygon fill="none" stroke="black" points="1033,-36 943,-36 943,0 1033,0 1033,-36"/>
<text text-anchor="middle" x="988" y="-16.1" font-family="Arial" font-size="8.00">imf:FunctionTerminal</text>
</g>
<!-- http://ns.imfid.org/imf#Terminal -->
<g id="node6" class="node">
<title>http://ns.imfid.org/imf#Terminal</title>
<polygon fill="none" stroke="black" points="1125.5,-109 1066.5,-109 1066.5,-73 1125.5,-73 1125.5,-109"/>
<text text-anchor="middle" x="1096" y="-89.1" font-family="Arial" font-size="8.00">imf:Terminal</text>
</g>
<!-- http://ns.imfid.org/imf#FunctionTerminal&#45;&gt;http://ns.imfid.org/imf#Terminal -->
<g id="edge14" class="edge">
<title>http://ns.imfid.org/imf#FunctionTerminal&#45;&gt;http://ns.imfid.org/imf#Terminal</title>
<path fill="none" stroke="black" d="M1013.87,-36.01C1028.06,-45.33 1045.84,-57.03 1061.23,-67.14"/>
<polygon fill="none" stroke="black" points="1059.69,-70.32 1069.97,-72.89 1063.53,-64.47 1059.69,-70.32"/>
</g>
<!-- http://ns.imfid.org/imf#FunctionElement -->
<g id="node12" class="node">
<title>http://ns.imfid.org/imf#FunctionElement</title>
<polygon fill="none" stroke="black" points="829.5,-109 740.5,-109 740.5,-73 829.5,-73 829.5,-109"/>
<text text-anchor="middle" x="785" y="-89.1" font-family="Arial" font-size="8.00">imf:FunctionElement</text>
</g>
<!-- http://ns.imfid.org/imf#FunctionTerminal&#45;&gt;http://ns.imfid.org/imf#FunctionElement -->
<g id="edge19" class="edge">
<title>http://ns.imfid.org/imf#FunctionTerminal&#45;&gt;http://ns.imfid.org/imf#FunctionElement</title>
<path fill="none" stroke="black" d="M942.95,-34.76C912.36,-45.46 871.73,-59.67 839.34,-70.99"/>
<polygon fill="none" stroke="black" points="837.86,-67.8 829.58,-74.41 840.17,-74.41 837.86,-67.8"/>
</g>
<!-- http://ns.imfid.org/imf#ProductBlock -->
<g id="node7" class="node">
<title>http://ns.imfid.org/imf#ProductBlock</title>
<polygon fill="none" stroke="black" points="530,-36 454,-36 454,0 530,0 530,-36"/>
<text text-anchor="middle" x="492" y="-16.1" font-family="Arial" font-size="8.00">imf:ProductBlock</text>
</g>
<!-- http://ns.imfid.org/imf#Block -->
<g id="node11" class="node">
<title>http://ns.imfid.org/imf#Block</title>
<polygon fill="none" stroke="black" points="615,-109 561,-109 561,-73 615,-73 615,-109"/>
<text text-anchor="middle" x="588" y="-89.1" font-family="Arial" font-size="8.00">imf:Block</text>
</g>
<!-- http://ns.imfid.org/imf#ProductBlock&#45;&gt;http://ns.imfid.org/imf#Block -->
<g id="edge6" class="edge">
<title>http://ns.imfid.org/imf#ProductBlock&#45;&gt;http://ns.imfid.org/imf#Block</title>
<path fill="none" stroke="black" d="M513.35,-36.09C521.05,-42.15 529.85,-48.97 538,-55 543.31,-58.93 549,-63.02 554.57,-66.97"/>
<polygon fill="none" stroke="black" points="552.95,-70.11 563.15,-72.99 556.97,-64.38 552.95,-70.11"/>
</g>
<!-- http://ns.imfid.org/imf#ProductElement -->
<g id="node21" class="node">
<title>http://ns.imfid.org/imf#ProductElement</title>
<polygon fill="none" stroke="black" points="719,-109 633,-109 633,-73 719,-73 719,-109"/>
<text text-anchor="middle" x="676" y="-89.1" font-family="Arial" font-size="8.00">imf:ProductElement</text>
</g>
<!-- http://ns.imfid.org/imf#ProductBlock&#45;&gt;http://ns.imfid.org/imf#ProductElement -->
<g id="edge8" class="edge">
<title>http://ns.imfid.org/imf#ProductBlock&#45;&gt;http://ns.imfid.org/imf#ProductElement</title>
<path fill="none" stroke="black" d="M530.12,-33.71C557.1,-44.12 593.62,-58.21 623.37,-69.69"/>
<polygon fill="none" stroke="black" points="622.18,-72.98 632.77,-73.32 624.7,-66.45 622.18,-72.98"/>
</g>
<!-- http://ns.imfid.org/imf#InstalledElement -->
<g id="node8" class="node">
<title>http://ns.imfid.org/imf#InstalledElement</title>
<polygon fill="none" stroke="black" points="940,-109 852,-109 852,-73 940,-73 940,-109"/>
<text text-anchor="middle" x="896" y="-89.1" font-family="Arial" font-size="8.00">imf:InstalledElement</text>
</g>
<!-- fbbc2b62&#45;4164&#45;4f5f&#45;a4d7&#45;27ee01d518c3 -->
<g id="node16" class="node">
<title>fbbc2b62&#45;4164&#45;4f5f&#45;a4d7&#45;27ee01d518c3</title>
<polygon fill="#e5e5e5" stroke="black" stroke-dasharray="5,2" points="1140.5,-177 973.5,-177 973.5,-151 1140.5,-151 1140.5,-177"/>
<text text-anchor="middle" x="1057" y="-166.6" font-family="Arial" font-size="8.00">owl:Restriction</text>
<text text-anchor="middle" x="1057" y="-157.6" font-family="Arial" font-size="8.00">,fbbc2b62&#45;4164&#45;4f5f&#45;a4d7&#45;27ee01d518c3</text>
</g>
<!-- http://ns.imfid.org/imf#InstalledElement&#45;&gt;fbbc2b62&#45;4164&#45;4f5f&#45;a4d7&#45;27ee01d518c3 -->
<g id="edge27" class="edge">
<title>http://ns.imfid.org/imf#InstalledElement&#45;&gt;fbbc2b62&#45;4164&#45;4f5f&#45;a4d7&#45;27ee01d518c3</title>
<path fill="none" stroke="black" d="M934.56,-109.01C960.47,-120.43 994.4,-135.4 1019.98,-146.67"/>
<polygon fill="none" stroke="black" points="1018.77,-149.97 1029.34,-150.8 1021.6,-143.56 1018.77,-149.97"/>
</g>
<!-- http://ns.imfid.org/imf#AspectElement -->
<g id="node17" class="node">
<title>http://ns.imfid.org/imf#AspectElement</title>
<polygon fill="none" stroke="black" points="855.5,-182 772.5,-182 772.5,-146 855.5,-146 855.5,-182"/>
<text text-anchor="middle" x="814" y="-162.1" font-family="Arial" font-size="8.00">imf:AspectElement</text>
</g>
<!-- http://ns.imfid.org/imf#InstalledElement&#45;&gt;http://ns.imfid.org/imf#AspectElement -->
<g id="edge25" class="edge">
<title>http://ns.imfid.org/imf#InstalledElement&#45;&gt;http://ns.imfid.org/imf#AspectElement</title>
<path fill="none" stroke="black" d="M876.15,-109.19C865.67,-118.26 852.66,-129.52 841.26,-139.4"/>
<polygon fill="none" stroke="black" points="838.94,-136.78 833.67,-145.97 843.52,-142.07 838.94,-136.78"/>
</g>
<!-- http://ns.imfid.org/imf#FunctionBlock -->
<g id="node9" class="node">
<title>http://ns.imfid.org/imf#FunctionBlock</title>
<polygon fill="none" stroke="black" points="627.5,-36 548.5,-36 548.5,0 627.5,0 627.5,-36"/>
<text text-anchor="middle" x="588" y="-16.1" font-family="Arial" font-size="8.00">imf:FunctionBlock</text>
</g>
<!-- http://ns.imfid.org/imf#FunctionBlock&#45;&gt;http://ns.imfid.org/imf#Block -->
<g id="edge4" class="edge">
<title>http://ns.imfid.org/imf#FunctionBlock&#45;&gt;http://ns.imfid.org/imf#Block</title>
<path fill="none" stroke="black" d="M588,-36.19C588,-44.21 588,-53.95 588,-62.93"/>
<polygon fill="none" stroke="black" points="584.5,-62.97 588,-72.97 591.5,-62.97 584.5,-62.97"/>
</g>
<!-- http://ns.imfid.org/imf#FunctionBlock&#45;&gt;http://ns.imfid.org/imf#FunctionElement -->
<g id="edge21" class="edge">
<title>http://ns.imfid.org/imf#FunctionBlock&#45;&gt;http://ns.imfid.org/imf#FunctionElement</title>
<path fill="none" stroke="black" d="M627.87,-33.37C657.41,-44.02 698.03,-58.66 730.57,-70.38"/>
<polygon fill="none" stroke="black" points="729.79,-73.82 740.38,-73.92 732.16,-67.24 729.79,-73.82"/>
</g>
<!-- http://ns.imfid.org/imf#LocationTerminal -->
<g id="node10" class="node">
<title>http://ns.imfid.org/imf#LocationTerminal</title>
<polygon fill="none" stroke="black" points="1247.5,-36 1158.5,-36 1158.5,0 1247.5,0 1247.5,-36"/>
<text text-anchor="middle" x="1203" y="-16.1" font-family="Arial" font-size="8.00">imf:LocationTerminal</text>
</g>
<!-- http://ns.imfid.org/imf#LocationTerminal&#45;&gt;http://ns.imfid.org/imf#Terminal -->
<g id="edge28" class="edge">
<title>http://ns.imfid.org/imf#LocationTerminal&#45;&gt;http://ns.imfid.org/imf#Terminal</title>
<path fill="none" stroke="black" d="M1177.37,-36.01C1163.31,-45.33 1145.69,-57.03 1130.45,-67.14"/>
<polygon fill="none" stroke="black" points="1128.19,-64.44 1121.79,-72.89 1132.06,-70.27 1128.19,-64.44"/>
</g>
<!-- http://ns.imfid.org/imf#LocationElement -->
<g id="node22" class="node">
<title>http://ns.imfid.org/imf#LocationElement</title>
<polygon fill="none" stroke="black" points="1048.5,-109 959.5,-109 959.5,-73 1048.5,-73 1048.5,-109"/>
<text text-anchor="middle" x="1004" y="-89.1" font-family="Arial" font-size="8.00">imf:LocationElement</text>
</g>
<!-- http://ns.imfid.org/imf#LocationTerminal&#45;&gt;http://ns.imfid.org/imf#LocationElement -->
<g id="edge17" class="edge">
<title>http://ns.imfid.org/imf#LocationTerminal&#45;&gt;http://ns.imfid.org/imf#LocationElement</title>
<path fill="none" stroke="black" d="M1158.34,-34.93C1128.64,-45.53 1089.46,-59.51 1058,-70.73"/>
<polygon fill="none" stroke="black" points="1056.75,-67.46 1048.51,-74.12 1059.11,-74.06 1056.75,-67.46"/>
</g>
<!-- http://ns.imfid.org/imf#FunctionElement&#45;&gt;ad79d3a2&#45;ccaf&#45;4c91&#45;8496&#45;17b1fe31ae23 -->
<g id="edge22" class="edge">
<title>http://ns.imfid.org/imf#FunctionElement&#45;&gt;ad79d3a2&#45;ccaf&#45;4c91&#45;8496&#45;17b1fe31ae23</title>
<path fill="none" stroke="black" d="M740.35,-106.88C704.44,-118.85 654.19,-135.6 617.94,-147.69"/>
<polygon fill="none" stroke="black" points="616.5,-144.48 608.12,-150.96 618.71,-151.12 616.5,-144.48"/>
</g>
<!-- http://ns.imfid.org/imf#FunctionElement&#45;&gt;http://ns.imfid.org/imf#AspectElement -->
<g id="edge26" class="edge">
<title>http://ns.imfid.org/imf#FunctionElement&#45;&gt;http://ns.imfid.org/imf#AspectElement</title>
<path fill="none" stroke="black" d="M792.02,-109.19C795.37,-117.38 799.45,-127.38 803.18,-136.52"/>
<polygon fill="none" stroke="black" points="800.02,-138.04 807.04,-145.97 806.5,-135.39 800.02,-138.04"/>
</g>
<!-- http://ns.imfid.org/imf#LocationBlock -->
<g id="node13" class="node">
<title>http://ns.imfid.org/imf#LocationBlock</title>
<polygon fill="none" stroke="black" points="819,-36 741,-36 741,0 819,0 819,-36"/>
<text text-anchor="middle" x="780" y="-16.1" font-family="Arial" font-size="8.00">imf:LocationBlock</text>
</g>
<!-- http://ns.imfid.org/imf#LocationBlock&#45;&gt;http://ns.imfid.org/imf#Block -->
<g id="edge12" class="edge">
<title>http://ns.imfid.org/imf#LocationBlock&#45;&gt;http://ns.imfid.org/imf#Block</title>
<path fill="none" stroke="black" d="M740.95,-32.55C737.59,-33.72 734.23,-34.88 731,-36 686.24,-51.5 672.22,-53.78 624.67,-72.92"/>
<polygon fill="none" stroke="black" points="623.32,-69.69 615.38,-76.7 625.96,-76.17 623.32,-69.69"/>
</g>
<!-- http://ns.imfid.org/imf#LocationBlock&#45;&gt;http://ns.imfid.org/imf#LocationElement -->
<g id="edge29" class="edge">
<title>http://ns.imfid.org/imf#LocationBlock&#45;&gt;http://ns.imfid.org/imf#LocationElement</title>
<path fill="none" stroke="black" d="M819.24,-33.06C822.2,-34.07 825.15,-35.06 828,-36 881.41,-53.61 895.25,-56.47 949,-73 949.21,-73.06 949.42,-73.13 949.63,-73.19"/>
<polygon fill="none" stroke="black" points="948.69,-76.57 959.28,-76.16 950.75,-69.88 948.69,-76.57"/>
</g>
<!-- http://ns.imfid.org/imf#functionAspect -->
<g id="node14" class="node">
<title>http://ns.imfid.org/imf#functionAspect</title>
<polygon fill="none" stroke="black" points="279.5,-182 198.5,-182 198.5,-146 279.5,-146 279.5,-182"/>
<text text-anchor="middle" x="239" y="-162.1" font-family="Arial" font-size="8.00">imf:functionAspect</text>
</g>
<!-- http://ns.imfid.org/imf#functionAspect&#45;&gt;http://ns.imfid.org/imf#Aspect -->
<g id="edge23" class="edge">
<title>http://ns.imfid.org/imf#functionAspect&#45;&gt;http://ns.imfid.org/imf#Aspect</title>
<path fill="none" stroke="black" stroke-dasharray="1,5" d="M239,-182.14C239,-192.29 239,-205.37 239,-216.88"/>
<polygon fill="black" stroke="black" points="235.5,-216.89 239,-226.89 242.5,-216.89 235.5,-216.89"/>
</g>
<!-- 9a2a10d4&#45;6c8a&#45;457f&#45;95d4&#45;4e7e26e44e86 -->
<g id="node15" class="node">
<title>9a2a10d4&#45;6c8a&#45;457f&#45;95d4&#45;4e7e26e44e86</title>
<polygon fill="#e5e5e5" stroke="black" stroke-dasharray="5,2" points="1331,-177 1159,-177 1159,-151 1331,-151 1331,-177"/>
<text text-anchor="middle" x="1245" y="-166.6" font-family="Arial" font-size="8.00">owl:Restriction</text>
<text text-anchor="middle" x="1245" y="-157.6" font-family="Arial" font-size="8.00">,9a2a10d4&#45;6c8a&#45;457f&#45;95d4&#45;4e7e26e44e86</text>
</g>
<!-- http://ns.imfid.org/imf#AspectElement&#45;&gt;http://ns.imfid.org/imf#Aspect -->
<g id="edge2" class="edge">
<title>http://ns.imfid.org/imf#AspectElement&#45;&gt;http://ns.imfid.org/imf#Aspect</title>
<path fill="none" stroke="black" d="M772.43,-179.55C769.26,-180.44 766.09,-181.28 763,-182 583.64,-224.07 362.7,-238.3 276.2,-242.47"/>
<polygon fill="black" stroke="black" points="275.92,-238.98 266.09,-242.94 276.24,-245.97 275.92,-238.98"/>
<text text-anchor="middle" x="683.5" y="-202.6" font-family="Arial" font-size="8.00">imf:aspect</text>
</g>
<!-- http://ns.imfid.org/imf#AspectElement&#45;&gt;http://ns.imfid.org/imf#AspectElement -->
<g id="edge10" class="edge">
<title>http://ns.imfid.org/imf#AspectElement&#45;&gt;http://ns.imfid.org/imf#AspectElement</title>
<path fill="none" stroke="black" d="M855.71,-157.36C865.91,-157.85 873.5,-160.06 873.5,-164 873.5,-166.46 870.53,-168.25 865.82,-169.36"/>
<polygon fill="black" stroke="black" points="865.19,-165.92 855.71,-170.64 866.07,-172.86 865.19,-165.92"/>
<text text-anchor="middle" x="914.5" y="-162.1" font-family="Arial" font-size="8.00">imf:interAspectRelation</text>
</g>
<!-- 3ce2d0f6&#45;7429&#45;4fef&#45;84f6&#45;5ec291456851 -->
<g id="node23" class="node">
<title>3ce2d0f6&#45;7429&#45;4fef&#45;84f6&#45;5ec291456851</title>
<polygon fill="#e5e5e5" stroke="black" stroke-dasharray="5,2" points="896,-258 732,-258 732,-232 896,-232 896,-258"/>
<text text-anchor="middle" x="814" y="-247.6" font-family="Arial" font-size="8.00">owl:Restriction</text>
<text text-anchor="middle" x="814" y="-238.6" font-family="Arial" font-size="8.00">,3ce2d0f6&#45;7429&#45;4fef&#45;84f6&#45;5ec291456851</text>
</g>
<!-- http://ns.imfid.org/imf#AspectElement&#45;&gt;3ce2d0f6&#45;7429&#45;4fef&#45;84f6&#45;5ec291456851 -->
<g id="edge9" class="edge">
<title>http://ns.imfid.org/imf#AspectElement&#45;&gt;3ce2d0f6&#45;7429&#45;4fef&#45;84f6&#45;5ec291456851</title>
<path fill="none" stroke="black" d="M814,-182.14C814,-193.65 814,-208.94 814,-221.44"/>
<polygon fill="none" stroke="black" points="810.5,-221.54 814,-231.54 817.5,-221.54 810.5,-221.54"/>
</g>
<!-- http://ns.imfid.org/imf#InstalledBlock -->
<g id="node18" class="node">
<title>http://ns.imfid.org/imf#InstalledBlock</title>
<polygon fill="none" stroke="black" points="722.5,-36 645.5,-36 645.5,0 722.5,0 722.5,-36"/>
<text text-anchor="middle" x="684" y="-16.1" font-family="Arial" font-size="8.00">imf:InstalledBlock</text>
</g>
<!-- http://ns.imfid.org/imf#InstalledBlock&#45;&gt;http://ns.imfid.org/imf#InstalledElement -->
<g id="edge13" class="edge">
<title>http://ns.imfid.org/imf#InstalledBlock&#45;&gt;http://ns.imfid.org/imf#InstalledElement</title>
<path fill="none" stroke="black" d="M722.75,-32.81C725.87,-33.9 728.99,-34.97 732,-36 768.63,-48.52 810.04,-62.15 842.08,-72.58"/>
<polygon fill="none" stroke="black" points="841.12,-75.95 851.71,-75.71 843.28,-69.29 841.12,-75.95"/>
</g>
<!-- http://ns.imfid.org/imf#InstalledBlock&#45;&gt;http://ns.imfid.org/imf#Block -->
<g id="edge7" class="edge">
<title>http://ns.imfid.org/imf#InstalledBlock&#45;&gt;http://ns.imfid.org/imf#Block</title>
<path fill="none" stroke="black" d="M660.76,-36.19C648.26,-45.43 632.68,-56.96 619.14,-66.97"/>
<polygon fill="none" stroke="black" points="616.98,-64.21 611.02,-72.97 621.15,-69.84 616.98,-64.21"/>
</g>
<!-- http://ns.imfid.org/imf#productAspect -->
<g id="node19" class="node">
<title>http://ns.imfid.org/imf#productAspect</title>
<polygon fill="none" stroke="black" points="754,-182 674,-182 674,-146 754,-146 754,-182"/>
<text text-anchor="middle" x="714" y="-162.1" font-family="Arial" font-size="8.00">imf:productAspect</text>
</g>
<!-- http://ns.imfid.org/imf#productAspect&#45;&gt;http://ns.imfid.org/imf#Aspect -->
<g id="edge11" class="edge">
<title>http://ns.imfid.org/imf#productAspect&#45;&gt;http://ns.imfid.org/imf#Aspect</title>
<path fill="none" stroke="black" stroke-dasharray="1,5" d="M673.8,-179.62C670.84,-180.49 667.89,-181.3 665,-182 523.82,-216.43 351.35,-234.33 276.56,-240.94"/>
<polygon fill="black" stroke="black" points="275.91,-237.49 266.25,-241.84 276.52,-244.46 275.91,-237.49"/>
</g>
<!-- http://ns.imfid.org/imf#ProductTerminal -->
<g id="node20" class="node">
<title>http://ns.imfid.org/imf#ProductTerminal</title>
<polygon fill="none" stroke="black" points="924.5,-36 837.5,-36 837.5,0 924.5,0 924.5,-36"/>
<text text-anchor="middle" x="881" y="-16.1" font-family="Arial" font-size="8.00">imf:ProductTerminal</text>
</g>
<!-- http://ns.imfid.org/imf#ProductTerminal&#45;&gt;http://ns.imfid.org/imf#Terminal -->
<g id="edge15" class="edge">
<title>http://ns.imfid.org/imf#ProductTerminal&#45;&gt;http://ns.imfid.org/imf#Terminal</title>
<path fill="none" stroke="black" d="M924.65,-33.08C927.81,-34.07 930.95,-35.06 934,-36 986.04,-52.11 1002.37,-52.95 1056.82,-72.77"/>
<polygon fill="none" stroke="black" points="1055.69,-76.08 1066.28,-76.26 1058.11,-69.52 1055.69,-76.08"/>
</g>
<!-- http://ns.imfid.org/imf#ProductTerminal&#45;&gt;http://ns.imfid.org/imf#ProductElement -->
<g id="edge3" class="edge">
<title>http://ns.imfid.org/imf#ProductTerminal&#45;&gt;http://ns.imfid.org/imf#ProductElement</title>
<path fill="none" stroke="black" d="M837.27,-34.14C805.59,-45.12 762.6,-60.01 728.97,-71.65"/>
<polygon fill="none" stroke="black" points="727.61,-68.42 719.31,-75 729.9,-75.04 727.61,-68.42"/>
</g>
<!-- http://ns.imfid.org/imf#ProductElement&#45;&gt;4c9cc765&#45;b852&#45;4cd6&#45;8581&#45;780e955427e4 -->
<g id="edge18" class="edge">
<title>http://ns.imfid.org/imf#ProductElement&#45;&gt;4c9cc765&#45;b852&#45;4cd6&#45;8581&#45;780e955427e4</title>
<path fill="none" stroke="black" d="M632.96,-106.42C629.94,-107.32 626.93,-108.19 624,-109 567.68,-124.5 503.04,-138.86 455.04,-148.86"/>
<polygon fill="none" stroke="black" points="454.14,-145.47 445.06,-150.93 455.56,-152.33 454.14,-145.47"/>
</g>
<!-- http://ns.imfid.org/imf#ProductElement&#45;&gt;http://ns.imfid.org/imf#AspectElement -->
<g id="edge31" class="edge">
<title>http://ns.imfid.org/imf#ProductElement&#45;&gt;http://ns.imfid.org/imf#AspectElement</title>
<path fill="none" stroke="black" d="M709.05,-109.01C727.86,-118.68 751.61,-130.9 771.76,-141.27"/>
<polygon fill="none" stroke="black" points="770.24,-144.42 780.74,-145.89 773.45,-138.2 770.24,-144.42"/>
</g>
<!-- http://ns.imfid.org/imf#LocationElement&#45;&gt;9a2a10d4&#45;6c8a&#45;457f&#45;95d4&#45;4e7e26e44e86 -->
<g id="edge16" class="edge">
<title>http://ns.imfid.org/imf#LocationElement&#45;&gt;9a2a10d4&#45;6c8a&#45;457f&#45;95d4&#45;4e7e26e44e86</title>
<path fill="none" stroke="black" d="M1048.76,-106.18C1051.89,-107.14 1054.99,-108.09 1058,-109 1103.29,-122.67 1154.96,-137.53 1192.5,-148.2"/>
<polygon fill="none" stroke="black" points="1191.63,-151.59 1202.21,-150.96 1193.54,-144.86 1191.63,-151.59"/>
</g>
<!-- http://ns.imfid.org/imf#LocationElement&#45;&gt;http://ns.imfid.org/imf#AspectElement -->
<g id="edge24" class="edge">
<title>http://ns.imfid.org/imf#LocationElement&#45;&gt;http://ns.imfid.org/imf#AspectElement</title>
<path fill="none" stroke="black" d="M959.45,-108.65C931.27,-119.18 894.74,-132.83 865.34,-143.82"/>
<polygon fill="none" stroke="black" points="863.81,-140.65 855.67,-147.43 866.26,-147.21 863.81,-140.65"/>
</g>
<!-- http://ns.imfid.org/imf#InstalledTerminal -->
<g id="node24" class="node">
<title>http://ns.imfid.org/imf#InstalledTerminal</title>
<polygon fill="none" stroke="black" points="1140.5,-36 1051.5,-36 1051.5,0 1140.5,0 1140.5,-36"/>
<text text-anchor="middle" x="1096" y="-16.1" font-family="Arial" font-size="8.00">imf:InstalledTerminal</text>
</g>
<!-- http://ns.imfid.org/imf#InstalledTerminal&#45;&gt;http://ns.imfid.org/imf#Terminal -->
<g id="edge30" class="edge">
<title>http://ns.imfid.org/imf#InstalledTerminal&#45;&gt;http://ns.imfid.org/imf#Terminal</title>
<path fill="none" stroke="black" d="M1096,-36.19C1096,-44.21 1096,-53.95 1096,-62.93"/>
<polygon fill="none" stroke="black" points="1092.5,-62.97 1096,-72.97 1099.5,-62.97 1092.5,-62.97"/>
</g>
<!-- http://ns.imfid.org/imf#InstalledTerminal&#45;&gt;http://ns.imfid.org/imf#InstalledElement -->
<g id="edge5" class="edge">
<title>http://ns.imfid.org/imf#InstalledTerminal&#45;&gt;http://ns.imfid.org/imf#InstalledElement</title>
<path fill="none" stroke="black" d="M1051.12,-34.93C1021.06,-45.6 981.34,-59.71 949.61,-70.97"/>
<polygon fill="none" stroke="black" points="948.3,-67.72 940.05,-74.36 950.64,-74.32 948.3,-67.72"/>
</g>
<!-- http://ns.imfid.org/imf#installedAspect -->
<g id="node25" class="node">
<title>http://ns.imfid.org/imf#installedAspect</title>
<polygon fill="none" stroke="black" points="82,-182 0,-182 0,-146 82,-146 82,-182"/>
<text text-anchor="middle" x="41" y="-162.1" font-family="Arial" font-size="8.00">imf:installedAspect</text>
</g>
<!-- http://ns.imfid.org/imf#installedAspect&#45;&gt;http://ns.imfid.org/imf#Aspect -->
<g id="edge20" class="edge">
<title>http://ns.imfid.org/imf#installedAspect&#45;&gt;http://ns.imfid.org/imf#Aspect</title>
<path fill="none" stroke="black" stroke-dasharray="1,5" d="M82.03,-181.37C117.49,-195.52 168.28,-215.78 202.39,-229.39"/>
<polygon fill="black" stroke="black" points="201.39,-232.76 211.97,-233.22 203.98,-226.26 201.39,-232.76"/>
</g>
</g>
</svg>

