<?xml version="1.0" encoding="UTF-8" standalone="no"?>
<!DOCTYPE svg PUBLIC "-//W3C//DTD SVG 1.1//EN"
 "http://www.w3.org/Graphics/SVG/1.1/DTD/svg11.dtd">
<!-- Generated by graphviz version 2.43.0 (0)
 -->
<!-- Title: urn:temp#graph Pages: 1 -->
<svg width="1570px" height="271px"
 viewBox="0.00 0.00 1569.50 271.00" xmlns="http://www.w3.org/2000/svg" xmlns:xlink="http://www.w3.org/1999/xlink">
<g id="graph0" class="graph" transform="scale(1.0 1.0) rotate(0) translate(4 267)">
<title>urn:temp#graph</title>
<polygon fill="white" stroke="transparent" points="-4,4 -4,-267 1565.5,-267 1565.5,4 -4,4"/>
<!-- e49f5375&#45;3b14&#45;44f9&#45;afa3&#45;a268e58f0c79 -->
<g id="node1" class="node">
<title>e49f5375&#45;3b14&#45;44f9&#45;afa3&#45;a268e58f0c79</title>
<polygon fill="#e5e5e5" stroke="black" stroke-dasharray="5,2" points="165,-112 0,-112 0,-86 165,-86 165,-112"/>
<text text-anchor="middle" x="82.5" y="-101.6" font-family="Arial" font-size="8.00">owl:Restriction</text>
<text text-anchor="middle" x="82.5" y="-92.6" font-family="Arial" font-size="8.00">,e49f5375&#45;3b14&#45;44f9&#45;afa3&#45;a268e58f0c79</text>
</g>
<!-- 336d3393&#45;ebbb&#45;4eb9&#45;a5fb&#45;dcaaba243889 -->
<g id="node2" class="node">
<title>336d3393&#45;ebbb&#45;4eb9&#45;a5fb&#45;dcaaba243889</title>
<polygon fill="#e5e5e5" stroke="black" stroke-dasharray="5,2" points="355.5,-112 183.5,-112 183.5,-86 355.5,-86 355.5,-112"/>
<text text-anchor="middle" x="269.5" y="-101.6" font-family="Arial" font-size="8.00">owl:Restriction</text>
<text text-anchor="middle" x="269.5" y="-92.6" font-family="Arial" font-size="8.00">,336d3393&#45;ebbb&#45;4eb9&#45;a5fb&#45;dcaaba243889</text>
</g>
<!-- http://ns.imfid.org/imf#Element -->
<g id="node3" class="node">
<title>http://ns.imfid.org/imf#Element</title>
<polygon fill="none" stroke="black" points="672,-36 613,-36 613,0 672,0 672,-36"/>
<text text-anchor="middle" x="642.5" y="-16.1" font-family="Arial" font-size="8.00">imf:Element</text>
</g>
<!-- cf301139&#45;1d38&#45;4030&#45;9e60&#45;82cb3a7dd814 -->
<g id="node4" class="node">
<title>cf301139&#45;1d38&#45;4030&#45;9e60&#45;82cb3a7dd814</title>
<polygon fill="#e5e5e5" stroke="black" stroke-dasharray="5,2" points="727.5,-112 557.5,-112 557.5,-86 727.5,-86 727.5,-112"/>
<text text-anchor="middle" x="642.5" y="-101.6" font-family="Arial" font-size="8.00">owl:Restriction</text>
<text text-anchor="middle" x="642.5" y="-92.6" font-family="Arial" font-size="8.00">,cf301139&#45;1d38&#45;4030&#45;9e60&#45;82cb3a7dd814</text>
</g>
<!-- http://ns.imfid.org/imf#Element&#45;&gt;cf301139&#45;1d38&#45;4030&#45;9e60&#45;82cb3a7dd814 -->
<g id="edge6" class="edge">
<title>http://ns.imfid.org/imf#Element&#45;&gt;cf301139&#45;1d38&#45;4030&#45;9e60&#45;82cb3a7dd814</title>
<path fill="none" stroke="black" d="M642.5,-36.14C642.5,-47.65 642.5,-62.94 642.5,-75.44"/>
<polygon fill="none" stroke="black" points="639,-75.54 642.5,-85.54 646,-75.54 639,-75.54"/>
</g>
<!-- http://ns.imfid.org/imf#Aspect -->
<g id="node5" class="node">
<title>http://ns.imfid.org/imf#Aspect</title>
<polygon fill="none" stroke="black" points="771.5,-36 717.5,-36 717.5,0 771.5,0 771.5,-36"/>
<text text-anchor="middle" x="744.5" y="-16.1" font-family="Arial" font-size="8.00">imf:Aspect</text>
</g>
<!-- 945f4b48&#45;2575&#45;4698&#45;b7ad&#45;88c789e11446 -->
<g id="node6" class="node">
<title>945f4b48&#45;2575&#45;4698&#45;b7ad&#45;88c789e11446</title>
<polygon fill="#e5e5e5" stroke="black" stroke-dasharray="5,2" points="1181,-258 1010,-258 1010,-232 1181,-232 1181,-258"/>
<text text-anchor="middle" x="1095.5" y="-247.6" font-family="Arial" font-size="8.00">owl:Restriction</text>
<text text-anchor="middle" x="1095.5" y="-238.6" font-family="Arial" font-size="8.00">,945f4b48&#45;2575&#45;4698&#45;b7ad&#45;88c789e11446</text>
</g>
<!-- http://ns.imfid.org/imf#Terminal -->
<g id="node7" class="node">
<title>http://ns.imfid.org/imf#Terminal</title>
<polygon fill="none" stroke="black" points="1024,-36 965,-36 965,0 1024,0 1024,-36"/>
<text text-anchor="middle" x="994.5" y="-16.1" font-family="Arial" font-size="8.00">imf:Terminal</text>
</g>
<!-- 4f2f3eb6&#45;6da7&#45;4344&#45;8cab&#45;fe154c2aad26 -->
<g id="node8" class="node">
<title>4f2f3eb6&#45;6da7&#45;4344&#45;8cab&#45;fe154c2aad26</title>
<polygon fill="#e5e5e5" stroke="black" stroke-dasharray="5,2" points="1078,-112 911,-112 911,-86 1078,-86 1078,-112"/>
<text text-anchor="middle" x="994.5" y="-101.6" font-family="Arial" font-size="8.00">owl:Restriction</text>
<text text-anchor="middle" x="994.5" y="-92.6" font-family="Arial" font-size="8.00">,4f2f3eb6&#45;6da7&#45;4344&#45;8cab&#45;fe154c2aad26</text>
</g>
<!-- http://ns.imfid.org/imf#Terminal&#45;&gt;4f2f3eb6&#45;6da7&#45;4344&#45;8cab&#45;fe154c2aad26 -->
<g id="edge3" class="edge">
<title>http://ns.imfid.org/imf#Terminal&#45;&gt;4f2f3eb6&#45;6da7&#45;4344&#45;8cab&#45;fe154c2aad26</title>
<path fill="none" stroke="black" d="M994.5,-36.14C994.5,-47.65 994.5,-62.94 994.5,-75.44"/>
<polygon fill="none" stroke="black" points="991,-75.54 994.5,-85.54 998,-75.54 991,-75.54"/>
</g>
<!-- 02f6f6c8&#45;d8d5&#45;4eab&#45;85fe&#45;89603dd31d76 -->
<g id="node9" class="node">
<title>02f6f6c8&#45;d8d5&#45;4eab&#45;85fe&#45;89603dd31d76</title>
<polygon fill="#e5e5e5" stroke="black" stroke-dasharray="5,2" points="803,-258 636,-258 636,-232 803,-232 803,-258"/>
<text text-anchor="middle" x="719.5" y="-247.6" font-family="Arial" font-size="8.00">owl:Restriction</text>
<text text-anchor="middle" x="719.5" y="-238.6" font-family="Arial" font-size="8.00">,02f6f6c8&#45;d8d5&#45;4eab&#45;85fe&#45;89603dd31d76</text>
</g>
<!-- http://ns.imfid.org/imf#TerminalType -->
<g id="node10" class="node">
<title>http://ns.imfid.org/imf#TerminalType</title>
<polygon fill="none" stroke="black" points="823,-117 746,-117 746,-81 823,-81 823,-117"/>
<text text-anchor="middle" x="784.5" y="-97.1" font-family="Arial" font-size="8.00">imf:TerminalType</text>
</g>
<!-- http://ns.imfid.org/imf#ElementType -->
<g id="node11" class="node">
<title>http://ns.imfid.org/imf#ElementType</title>
<polygon fill="none" stroke="black" points="944.5,-190 868.5,-190 868.5,-154 944.5,-154 944.5,-190"/>
<text text-anchor="middle" x="906.5" y="-170.1" font-family="Arial" font-size="8.00">imf:ElementType</text>
</g>
<!-- http://ns.imfid.org/imf#TerminalType&#45;&gt;http://ns.imfid.org/imf#ElementType -->
<g id="edge10" class="edge">
<title>http://ns.imfid.org/imf#TerminalType&#45;&gt;http://ns.imfid.org/imf#ElementType</title>
<path fill="none" stroke="black" d="M813.72,-117.01C830.05,-126.51 850.59,-138.46 868.19,-148.71"/>
<polygon fill="none" stroke="black" points="866.69,-151.88 877.09,-153.89 870.21,-145.83 866.69,-151.88"/>
</g>
<!-- 4bee383d&#45;bbd7&#45;4d5e&#45;a527&#45;b03a3da917bc -->
<g id="node23" class="node">
<title>4bee383d&#45;bbd7&#45;4d5e&#45;a527&#45;b03a3da917bc</title>
<polygon fill="#e5e5e5" stroke="black" stroke-dasharray="5,2" points="660.5,-185 486.5,-185 486.5,-159 660.5,-159 660.5,-185"/>
<text text-anchor="middle" x="573.5" y="-174.6" font-family="Arial" font-size="8.00">owl:Restriction</text>
<text text-anchor="middle" x="573.5" y="-165.6" font-family="Arial" font-size="8.00">,4bee383d&#45;bbd7&#45;4d5e&#45;a527&#45;b03a3da917bc</text>
</g>
<!-- http://ns.imfid.org/imf#TerminalType&#45;&gt;4bee383d&#45;bbd7&#45;4d5e&#45;a527&#45;b03a3da917bc -->
<g id="edge2" class="edge">
<title>http://ns.imfid.org/imf#TerminalType&#45;&gt;4bee383d&#45;bbd7&#45;4d5e&#45;a527&#45;b03a3da917bc</title>
<path fill="none" stroke="black" d="M745.75,-113.8C742.62,-114.89 739.51,-115.97 736.5,-117 697.4,-130.4 652.84,-145.13 620.2,-155.81"/>
<polygon fill="none" stroke="black" points="618.89,-152.56 610.47,-158.99 621.06,-159.21 618.89,-152.56"/>
</g>
<!-- 37000e80&#45;ef07&#45;434a&#45;b33e&#45;25e9000ced11 -->
<g id="node26" class="node">
<title>37000e80&#45;ef07&#45;434a&#45;b33e&#45;25e9000ced11</title>
<polygon fill="#e5e5e5" stroke="black" stroke-dasharray="5,2" points="850,-185 679,-185 679,-159 850,-159 850,-185"/>
<text text-anchor="middle" x="764.5" y="-174.6" font-family="Arial" font-size="8.00">owl:Restriction</text>
<text text-anchor="middle" x="764.5" y="-165.6" font-family="Arial" font-size="8.00">,37000e80&#45;ef07&#45;434a&#45;b33e&#45;25e9000ced11</text>
</g>
<!-- http://ns.imfid.org/imf#TerminalType&#45;&gt;37000e80&#45;ef07&#45;434a&#45;b33e&#45;25e9000ced11 -->
<g id="edge9" class="edge">
<title>http://ns.imfid.org/imf#TerminalType&#45;&gt;37000e80&#45;ef07&#45;434a&#45;b33e&#45;25e9000ced11</title>
<path fill="none" stroke="black" d="M779.66,-117.19C776.98,-126.69 773.63,-138.61 770.75,-148.81"/>
<polygon fill="none" stroke="black" points="767.32,-148.07 767.98,-158.64 774.06,-149.97 767.32,-148.07"/>
</g>
<!-- http://ns.imfid.org/imf#ElementType&#45;&gt;945f4b48&#45;2575&#45;4698&#45;b7ad&#45;88c789e11446 -->
<g id="edge17" class="edge">
<title>http://ns.imfid.org/imf#ElementType&#45;&gt;945f4b48&#45;2575&#45;4698&#45;b7ad&#45;88c789e11446</title>
<path fill="none" stroke="black" d="M944.75,-187.37C976.32,-199.23 1021.07,-216.04 1053.6,-228.26"/>
<polygon fill="none" stroke="black" points="1052.69,-231.66 1063.28,-231.9 1055.15,-225.1 1052.69,-231.66"/>
</g>
<!-- http://ns.imfid.org/imf#ElementType&#45;&gt;02f6f6c8&#45;d8d5&#45;4eab&#45;85fe&#45;89603dd31d76 -->
<g id="edge5" class="edge">
<title>http://ns.imfid.org/imf#ElementType&#45;&gt;02f6f6c8&#45;d8d5&#45;4eab&#45;85fe&#45;89603dd31d76</title>
<path fill="none" stroke="black" d="M868.21,-187.54C836.93,-199.41 792.81,-216.17 760.75,-228.34"/>
<polygon fill="none" stroke="black" points="759.33,-225.13 751.22,-231.96 761.81,-231.68 759.33,-225.13"/>
</g>
<!-- 72ef06f0&#45;3dd0&#45;4aaa&#45;a68b&#45;b891aa4e3a42 -->
<g id="node18" class="node">
<title>72ef06f0&#45;3dd0&#45;4aaa&#45;a68b&#45;b891aa4e3a42</title>
<polygon fill="#e5e5e5" stroke="black" stroke-dasharray="5,2" points="991.5,-258 821.5,-258 821.5,-232 991.5,-232 991.5,-258"/>
<text text-anchor="middle" x="906.5" y="-247.6" font-family="Arial" font-size="8.00">owl:Restriction</text>
<text text-anchor="middle" x="906.5" y="-238.6" font-family="Arial" font-size="8.00">,72ef06f0&#45;3dd0&#45;4aaa&#45;a68b&#45;b891aa4e3a42</text>
</g>
<!-- http://ns.imfid.org/imf#ElementType&#45;&gt;72ef06f0&#45;3dd0&#45;4aaa&#45;a68b&#45;b891aa4e3a42 -->
<g id="edge18" class="edge">
<title>http://ns.imfid.org/imf#ElementType&#45;&gt;72ef06f0&#45;3dd0&#45;4aaa&#45;a68b&#45;b891aa4e3a42</title>
<path fill="none" stroke="black" d="M906.5,-190.19C906.5,-199.59 906.5,-211.35 906.5,-221.48"/>
<polygon fill="none" stroke="black" points="903,-221.64 906.5,-231.64 910,-221.64 903,-221.64"/>
</g>
<!-- http://ns.imfid.org/imf#Type -->
<g id="node21" class="node">
<title>http://ns.imfid.org/imf#Type</title>
<polygon fill="none" stroke="black" points="456.5,-263 402.5,-263 402.5,-227 456.5,-227 456.5,-263"/>
<text text-anchor="middle" x="429.5" y="-243.1" font-family="Arial" font-size="8.00">imf:Type</text>
</g>
<!-- http://ns.imfid.org/imf#ElementType&#45;&gt;http://ns.imfid.org/imf#Type -->
<g id="edge16" class="edge">
<title>http://ns.imfid.org/imf#ElementType&#45;&gt;http://ns.imfid.org/imf#Type</title>
<path fill="none" stroke="black" d="M868.47,-187.3C865.12,-188.31 861.77,-189.22 858.5,-190 784.11,-207.64 556.52,-231.39 466.6,-240.37"/>
<polygon fill="none" stroke="black" points="466.19,-236.89 456.59,-241.36 466.89,-243.86 466.19,-236.89"/>
</g>
<!-- http://ns.imfid.org/imf#AttributeGroup -->
<g id="node12" class="node">
<title>http://ns.imfid.org/imf#AttributeGroup</title>
<polygon fill="none" stroke="black" points="1222.5,-36 1140.5,-36 1140.5,0 1222.5,0 1222.5,-36"/>
<text text-anchor="middle" x="1181.5" y="-16.1" font-family="Arial" font-size="8.00">imf:AttributeGroup</text>
</g>
<!-- fb28a030&#45;c1ec&#45;4449&#45;bb56&#45;ad981a345b0a -->
<g id="node19" class="node">
<title>fb28a030&#45;c1ec&#45;4449&#45;bb56&#45;ad981a345b0a</title>
<polygon fill="#e5e5e5" stroke="black" stroke-dasharray="5,2" points="1267,-112 1096,-112 1096,-86 1267,-86 1267,-112"/>
<text text-anchor="middle" x="1181.5" y="-101.6" font-family="Arial" font-size="8.00">owl:Restriction</text>
<text text-anchor="middle" x="1181.5" y="-92.6" font-family="Arial" font-size="8.00">,fb28a030&#45;c1ec&#45;4449&#45;bb56&#45;ad981a345b0a</text>
</g>
<!-- http://ns.imfid.org/imf#AttributeGroup&#45;&gt;fb28a030&#45;c1ec&#45;4449&#45;bb56&#45;ad981a345b0a -->
<g id="edge11" class="edge">
<title>http://ns.imfid.org/imf#AttributeGroup&#45;&gt;fb28a030&#45;c1ec&#45;4449&#45;bb56&#45;ad981a345b0a</title>
<path fill="none" stroke="black" d="M1181.5,-36.14C1181.5,-47.65 1181.5,-62.94 1181.5,-75.44"/>
<polygon fill="none" stroke="black" points="1178,-75.54 1181.5,-85.54 1185,-75.54 1178,-75.54"/>
</g>
<!-- 21fb253b&#45;2631&#45;4dc5&#45;8f6e&#45;780fb838233f -->
<g id="node13" class="node">
<title>21fb253b&#45;2631&#45;4dc5&#45;8f6e&#45;780fb838233f</title>
<polygon fill="#e5e5e5" stroke="black" stroke-dasharray="5,2" points="539,-112 374,-112 374,-86 539,-86 539,-112"/>
<text text-anchor="middle" x="456.5" y="-101.6" font-family="Arial" font-size="8.00">owl:Restriction</text>
<text text-anchor="middle" x="456.5" y="-92.6" font-family="Arial" font-size="8.00">,21fb253b&#45;2631&#45;4dc5&#45;8f6e&#45;780fb838233f</text>
</g>
<!-- http://ns.imfid.org/imf#Block -->
<g id="node14" class="node">
<title>http://ns.imfid.org/imf#Block</title>
<polygon fill="none" stroke="black" points="109.5,-36 55.5,-36 55.5,0 109.5,0 109.5,-36"/>
<text text-anchor="middle" x="82.5" y="-16.1" font-family="Arial" font-size="8.00">imf:Block</text>
</g>
<!-- http://ns.imfid.org/imf#Block&#45;&gt;e49f5375&#45;3b14&#45;44f9&#45;afa3&#45;a268e58f0c79 -->
<g id="edge8" class="edge">
<title>http://ns.imfid.org/imf#Block&#45;&gt;e49f5375&#45;3b14&#45;44f9&#45;afa3&#45;a268e58f0c79</title>
<path fill="none" stroke="black" d="M82.5,-36.14C82.5,-47.65 82.5,-62.94 82.5,-75.44"/>
<polygon fill="none" stroke="black" points="79,-75.54 82.5,-85.54 86,-75.54 79,-75.54"/>
</g>
<!-- http://ns.imfid.org/imf#AttributeGroupType -->
<g id="node15" class="node">
<title>http://ns.imfid.org/imf#AttributeGroupType</title>
<polygon fill="none" stroke="black" points="373,-190 274,-190 274,-154 373,-154 373,-190"/>
<text text-anchor="middle" x="323.5" y="-170.1" font-family="Arial" font-size="8.00">imf:AttributeGroupType</text>
</g>
<!-- http://ns.imfid.org/imf#AttributeGroupType&#45;&gt;http://ns.imfid.org/imf#Type -->
<g id="edge4" class="edge">
<title>http://ns.imfid.org/imf#AttributeGroupType&#45;&gt;http://ns.imfid.org/imf#Type</title>
<path fill="none" stroke="black" d="M348.89,-190.01C362.82,-199.33 380.27,-211.03 395.37,-221.14"/>
<polygon fill="none" stroke="black" points="393.69,-224.23 403.95,-226.89 397.59,-218.41 393.69,-224.23"/>
</g>
<!-- dd598a93&#45;52eb&#45;42f7&#45;b9be&#45;f4386cb5e203 -->
<g id="node16" class="node">
<title>dd598a93&#45;52eb&#45;42f7&#45;b9be&#45;f4386cb5e203</title>
<polygon fill="#e5e5e5" stroke="black" stroke-dasharray="5,2" points="1455.5,-112 1285.5,-112 1285.5,-86 1455.5,-86 1455.5,-112"/>
<text text-anchor="middle" x="1370.5" y="-101.6" font-family="Arial" font-size="8.00">owl:Restriction</text>
<text text-anchor="middle" x="1370.5" y="-92.6" font-family="Arial" font-size="8.00">,dd598a93&#45;52eb&#45;42f7&#45;b9be&#45;f4386cb5e203</text>
</g>
<!-- http://ns.imfid.org/imf#BlockType -->
<g id="node17" class="node">
<title>http://ns.imfid.org/imf#BlockType</title>
<polygon fill="none" stroke="black" points="893,-36 828,-36 828,0 893,0 893,-36"/>
<text text-anchor="middle" x="860.5" y="-16.1" font-family="Arial" font-size="8.00">imf:BlockType</text>
</g>
<!-- http://ns.imfid.org/imf#BlockType&#45;&gt;http://ns.imfid.org/imf#TerminalType -->
<g id="edge12" class="edge">
<title>http://ns.imfid.org/imf#BlockType&#45;&gt;http://ns.imfid.org/imf#TerminalType</title>
<path fill="none" stroke="black" d="M827.91,-30.59C816.52,-36.1 804.58,-43.76 796.5,-54 792.67,-58.86 790.05,-64.85 788.28,-70.83"/>
<polygon fill="black" stroke="black" points="784.84,-70.16 786,-80.69 791.66,-71.73 784.84,-70.16"/>
<text text-anchor="middle" x="833" y="-56.6" font-family="Arial" font-size="8.00">imf:hasTerminalType</text>
</g>
<!-- http://ns.imfid.org/imf#BlockType&#45;&gt;http://ns.imfid.org/imf#ElementType -->
<g id="edge14" class="edge">
<title>http://ns.imfid.org/imf#BlockType&#45;&gt;http://ns.imfid.org/imf#ElementType</title>
<path fill="none" stroke="black" d="M865.69,-36.14C873.62,-62.37 888.85,-112.69 898.3,-143.9"/>
<polygon fill="none" stroke="black" points="895.01,-145.13 901.26,-153.69 901.71,-143.1 895.01,-145.13"/>
</g>
<!-- http://ns.imfid.org/imf#Direction -->
<g id="node20" class="node">
<title>http://ns.imfid.org/imf#Direction</title>
<polygon fill="none" stroke="black" points="1489,-36 1428,-36 1428,0 1489,0 1489,-36"/>
<text text-anchor="middle" x="1458.5" y="-16.1" font-family="Arial" font-size="8.00">imf:Direction</text>
</g>
<!-- http://ns.imfid.org/imf#AttributeValue -->
<g id="node22" class="node">
<title>http://ns.imfid.org/imf#AttributeValue</title>
<polygon fill="none" stroke="black" points="1410,-36 1331,-36 1331,0 1410,0 1410,-36"/>
<text text-anchor="middle" x="1370.5" y="-16.1" font-family="Arial" font-size="8.00">imf:AttributeValue</text>
</g>
<!-- http://ns.imfid.org/imf#AttributeValue&#45;&gt;dd598a93&#45;52eb&#45;42f7&#45;b9be&#45;f4386cb5e203 -->
<g id="edge1" class="edge">
<title>http://ns.imfid.org/imf#AttributeValue&#45;&gt;dd598a93&#45;52eb&#45;42f7&#45;b9be&#45;f4386cb5e203</title>
<path fill="none" stroke="black" d="M1370.5,-36.14C1370.5,-47.65 1370.5,-62.94 1370.5,-75.44"/>
<polygon fill="none" stroke="black" points="1367,-75.54 1370.5,-85.54 1374,-75.54 1367,-75.54"/>
</g>
<!-- http://ns.imfid.org/imf#TypeConstraint -->
<g id="node24" class="node">
<title>http://ns.imfid.org/imf#TypeConstraint</title>
<polygon fill="none" stroke="black" points="404,-36 321,-36 321,0 404,0 404,-36"/>
<text text-anchor="middle" x="362.5" y="-16.1" font-family="Arial" font-size="8.00">imf:TypeConstraint</text>
</g>
<!-- http://ns.imfid.org/imf#TypeConstraint&#45;&gt;336d3393&#45;ebbb&#45;4eb9&#45;a5fb&#45;dcaaba243889 -->
<g id="edge7" class="edge">
<title>http://ns.imfid.org/imf#TypeConstraint&#45;&gt;336d3393&#45;ebbb&#45;4eb9&#45;a5fb&#45;dcaaba243889</title>
<path fill="none" stroke="black" d="M342.32,-36.14C327.45,-48.78 307.21,-65.96 291.85,-79.01"/>
<polygon fill="none" stroke="black" points="289.24,-76.64 283.88,-85.78 293.77,-81.98 289.24,-76.64"/>
</g>
<!-- http://ns.imfid.org/imf#TypeConstraint&#45;&gt;21fb253b&#45;2631&#45;4dc5&#45;8f6e&#45;780fb838233f -->
<g id="edge13" class="edge">
<title>http://ns.imfid.org/imf#TypeConstraint&#45;&gt;21fb253b&#45;2631&#45;4dc5&#45;8f6e&#45;780fb838233f</title>
<path fill="none" stroke="black" d="M382.9,-36.14C397.93,-48.78 418.38,-65.96 433.91,-79.01"/>
<polygon fill="none" stroke="black" points="432.06,-82.03 441.97,-85.78 436.56,-76.67 432.06,-82.03"/>
</g>
<!-- http://www.w3.org/2002/07/owl#Thing -->
<g id="node25" class="node">
<title>http://www.w3.org/2002/07/owl#Thing</title>
<polygon fill="none" stroke="black" points="1561.5,-36 1507.5,-36 1507.5,0 1561.5,0 1561.5,-36"/>
<text text-anchor="middle" x="1534.5" y="-16.1" font-family="Arial" font-size="8.00">owl:Thing</text>
</g>
<!-- http://ns.imfid.org/imf#AttributeType -->
<g id="node27" class="node">
<title>http://ns.imfid.org/imf#AttributeType</title>
<polygon fill="none" stroke="black" points="468,-190 391,-190 391,-154 468,-154 468,-190"/>
<text text-anchor="middle" x="429.5" y="-170.1" font-family="Arial" font-size="8.00">imf:AttributeType</text>
</g>
<!-- http://ns.imfid.org/imf#AttributeType&#45;&gt;http://ns.imfid.org/imf#Type -->
<g id="edge15" class="edge">
<title>http://ns.imfid.org/imf#AttributeType&#45;&gt;http://ns.imfid.org/imf#Type</title>
<path fill="none" stroke="black" d="M429.5,-190.19C429.5,-198.21 429.5,-207.95 429.5,-216.93"/>
<polygon fill="none" stroke="black" points="426,-216.97 429.5,-226.97 433,-216.97 426,-216.97"/>
</g>
</g>
</svg>

