<?xml version="1.0" encoding="UTF-8" standalone="no"?>
<!DOCTYPE svg PUBLIC "-//W3C//DTD SVG 1.1//EN"
 "http://www.w3.org/Graphics/SVG/1.1/DTD/svg11.dtd">
<!-- Generated by graphviz version 2.43.0 (0)
 -->
<!-- Title: urn:temp#graph Pages: 1 -->
<svg width="1330px" height="271px"
 viewBox="0.00 0.00 1330.00 271.00" xmlns="http://www.w3.org/2000/svg" xmlns:xlink="http://www.w3.org/1999/xlink">
<g id="graph0" class="graph" transform="scale(1.0 1.0) rotate(0) translate(4 267)">
<title>urn:temp#graph</title>
<polygon fill="white" stroke="transparent" points="-4,4 -4,-267 1326,-267 1326,4 -4,4"/>
<!-- 663b65ee&#45;df0d&#45;4887&#45;9312&#45;b02173799f3f -->
<g id="node1" class="node">
<title>663b65ee&#45;df0d&#45;4887&#45;9312&#45;b02173799f3f</title>
<polygon fill="#e5e5e5" stroke="black" stroke-dasharray="5,2" points="960,-258 792,-258 792,-232 960,-232 960,-258"/>
<text text-anchor="middle" x="876" y="-247.6" font-family="Arial" font-size="8.00">owl:Restriction</text>
<text text-anchor="middle" x="876" y="-238.6" font-family="Arial" font-size="8.00">,663b65ee&#45;df0d&#45;4887&#45;9312&#45;b02173799f3f</text>
</g>
<!-- http://ns.imfid.org/imf#locationAspect -->
<g id="node2" class="node">
<title>http://ns.imfid.org/imf#locationAspect</title>
<polygon fill="none" stroke="black" points="466,-182 386,-182 386,-146 466,-146 466,-182"/>
<text text-anchor="middle" x="426" y="-162.1" font-family="Arial" font-size="8.00">imf:locationAspect</text>
</g>
<!-- http://ns.imfid.org/imf#Aspect -->
<g id="node6" class="node">
<title>http://ns.imfid.org/imf#Aspect</title>
<polygon fill="none" stroke="black" points="453,-263 399,-263 399,-227 453,-227 453,-263"/>
<text text-anchor="middle" x="426" y="-243.1" font-family="Arial" font-size="8.00">imf:Aspect</text>
</g>
<!-- http://ns.imfid.org/imf#locationAspect&#45;&gt;http://ns.imfid.org/imf#Aspect -->
<g id="edge1" class="edge">
<title>http://ns.imfid.org/imf#locationAspect&#45;&gt;http://ns.imfid.org/imf#Aspect</title>
<path fill="none" stroke="black" stroke-dasharray="1,5" d="M426,-182.14C426,-192.29 426,-205.37 426,-216.88"/>
<polygon fill="black" stroke="black" points="422.5,-216.89 426,-226.89 429.5,-216.89 422.5,-216.89"/>
</g>
<!-- http://ns.imfid.org/imf#Element -->
<g id="node3" class="node">
<title>http://ns.imfid.org/imf#Element</title>
<polygon fill="none" stroke="black" points="773.5,-263 714.5,-263 714.5,-227 773.5,-227 773.5,-263"/>
<text text-anchor="middle" x="744" y="-243.1" font-family="Arial" font-size="8.00">imf:Element</text>
</g>
<!-- e55c4cef&#45;3da8&#45;4d1b&#45;9149&#45;9560cd6871ea -->
<g id="node4" class="node">
<title>e55c4cef&#45;3da8&#45;4d1b&#45;9149&#45;9560cd6871ea</title>
<polygon fill="#e5e5e5" stroke="black" stroke-dasharray="5,2" points="170,-177 0,-177 0,-151 170,-151 170,-177"/>
<text text-anchor="middle" x="85" y="-166.6" font-family="Arial" font-size="8.00">owl:Restriction</text>
<text text-anchor="middle" x="85" y="-157.6" font-family="Arial" font-size="8.00">,e55c4cef&#45;3da8&#45;4d1b&#45;9149&#45;9560cd6871ea</text>
</g>
<!-- http://ns.imfid.org/imf#FunctionTerminal -->
<g id="node5" class="node">
<title>http://ns.imfid.org/imf#FunctionTerminal</title>
<polygon fill="none" stroke="black" points="1014,-36 924,-36 924,0 1014,0 1014,-36"/>
<text text-anchor="middle" x="969" y="-16.1" font-family="Arial" font-size="8.00">imf:FunctionTerminal</text>
</g>
<!-- http://ns.imfid.org/imf#Terminal -->
<g id="node7" class="node">
<title>http://ns.imfid.org/imf#Terminal</title>
<polygon fill="none" stroke="black" points="1105.5,-109 1046.5,-109 1046.5,-73 1105.5,-73 1105.5,-109"/>
<text text-anchor="middle" x="1076" y="-89.1" font-family="Arial" font-size="8.00">imf:Terminal</text>
</g>
<!-- http://ns.imfid.org/imf#FunctionTerminal&#45;&gt;http://ns.imfid.org/imf#Terminal -->
<g id="edge15" class="edge">
<title>http://ns.imfid.org/imf#FunctionTerminal&#45;&gt;http://ns.imfid.org/imf#Terminal</title>
<path fill="none" stroke="black" d="M1005.79,-36.1C1015.88,-41.36 1026.62,-47.49 1036,-54 1041.11,-57.55 1046.27,-61.69 1051.11,-65.88"/>
<polygon fill="none" stroke="black" points="1049.1,-68.78 1058.88,-72.86 1053.78,-63.57 1049.1,-68.78"/>
</g>
<!-- http://ns.imfid.org/imf#FunctionElement -->
<g id="node13" class="node">
<title>http://ns.imfid.org/imf#FunctionElement</title>
<polygon fill="none" stroke="black" points="811.5,-109 722.5,-109 722.5,-73 811.5,-73 811.5,-109"/>
<text text-anchor="middle" x="767" y="-89.1" font-family="Arial" font-size="8.00">imf:FunctionElement</text>
</g>
<!-- http://ns.imfid.org/imf#FunctionTerminal&#45;&gt;http://ns.imfid.org/imf#FunctionElement -->
<g id="edge19" class="edge">
<title>http://ns.imfid.org/imf#FunctionTerminal&#45;&gt;http://ns.imfid.org/imf#FunctionElement</title>
<path fill="none" stroke="black" d="M923.92,-34.85C893.57,-45.51 853.39,-59.64 821.28,-70.92"/>
<polygon fill="none" stroke="black" points="819.87,-67.71 811.6,-74.33 822.19,-74.31 819.87,-67.71"/>
</g>
<!-- http://ns.imfid.org/imf#ProductBlock -->
<g id="node8" class="node">
<title>http://ns.imfid.org/imf#ProductBlock</title>
<polygon fill="none" stroke="black" points="702,-36 626,-36 626,0 702,0 702,-36"/>
<text text-anchor="middle" x="664" y="-16.1" font-family="Arial" font-size="8.00">imf:ProductBlock</text>
</g>
<!-- http://ns.imfid.org/imf#Block -->
<g id="node12" class="node">
<title>http://ns.imfid.org/imf#Block</title>
<polygon fill="none" stroke="black" points="595,-109 541,-109 541,-73 595,-73 595,-109"/>
<text text-anchor="middle" x="568" y="-89.1" font-family="Arial" font-size="8.00">imf:Block</text>
</g>
<!-- http://ns.imfid.org/imf#ProductBlock&#45;&gt;http://ns.imfid.org/imf#Block -->
<g id="edge6" class="edge">
<title>http://ns.imfid.org/imf#ProductBlock&#45;&gt;http://ns.imfid.org/imf#Block</title>
<path fill="none" stroke="black" d="M640.76,-36.19C628.26,-45.43 612.68,-56.96 599.14,-66.97"/>
<polygon fill="none" stroke="black" points="596.98,-64.21 591.02,-72.97 601.15,-69.84 596.98,-64.21"/>
</g>
<!-- http://ns.imfid.org/imf#ProductElement -->
<g id="node21" class="node">
<title>http://ns.imfid.org/imf#ProductElement</title>
<polygon fill="none" stroke="black" points="919,-109 833,-109 833,-73 919,-73 919,-109"/>
<text text-anchor="middle" x="876" y="-89.1" font-family="Arial" font-size="8.00">imf:ProductElement</text>
</g>
<!-- http://ns.imfid.org/imf#ProductBlock&#45;&gt;http://ns.imfid.org/imf#ProductElement -->
<g id="edge10" class="edge">
<title>http://ns.imfid.org/imf#ProductBlock&#45;&gt;http://ns.imfid.org/imf#ProductElement</title>
<path fill="none" stroke="black" d="M702.18,-32.92C705.16,-33.97 708.13,-35.01 711,-36 748.32,-48.85 790.63,-62.69 823.07,-73.13"/>
<polygon fill="none" stroke="black" points="822.21,-76.53 832.8,-76.26 824.35,-69.87 822.21,-76.53"/>
</g>
<!-- http://ns.imfid.org/imf#InstalledElement -->
<g id="node9" class="node">
<title>http://ns.imfid.org/imf#InstalledElement</title>
<polygon fill="none" stroke="black" points="701,-109 613,-109 613,-73 701,-73 701,-109"/>
<text text-anchor="middle" x="657" y="-89.1" font-family="Arial" font-size="8.00">imf:InstalledElement</text>
</g>
<!-- http://ns.imfid.org/imf#InstalledElement&#45;&gt;e55c4cef&#45;3da8&#45;4d1b&#45;9149&#45;9560cd6871ea -->
<g id="edge8" class="edge">
<title>http://ns.imfid.org/imf#InstalledElement&#45;&gt;e55c4cef&#45;3da8&#45;4d1b&#45;9149&#45;9560cd6871ea</title>
<path fill="none" stroke="black" d="M612.95,-106.94C609.94,-107.71 606.94,-108.41 604,-109 418.12,-146.41 366.93,-120.88 179,-146 171.82,-146.96 164.36,-148.09 156.92,-149.29"/>
<polygon fill="none" stroke="black" points="156.1,-145.88 146.81,-150.99 157.25,-152.79 156.1,-145.88"/>
</g>
<!-- http://ns.imfid.org/imf#AspectElement -->
<g id="node17" class="node">
<title>http://ns.imfid.org/imf#AspectElement</title>
<polygon fill="none" stroke="black" points="851.5,-182 768.5,-182 768.5,-146 851.5,-146 851.5,-182"/>
<text text-anchor="middle" x="810" y="-162.1" font-family="Arial" font-size="8.00">imf:AspectElement</text>
</g>
<!-- http://ns.imfid.org/imf#InstalledElement&#45;&gt;http://ns.imfid.org/imf#AspectElement -->
<g id="edge25" class="edge">
<title>http://ns.imfid.org/imf#InstalledElement&#45;&gt;http://ns.imfid.org/imf#AspectElement</title>
<path fill="none" stroke="black" d="M693.65,-109.01C714.69,-118.77 741.31,-131.12 763.78,-141.55"/>
<polygon fill="none" stroke="black" points="762.58,-144.85 773.12,-145.89 765.52,-138.5 762.58,-144.85"/>
</g>
<!-- http://ns.imfid.org/imf#FunctionBlock -->
<g id="node10" class="node">
<title>http://ns.imfid.org/imf#FunctionBlock</title>
<polygon fill="none" stroke="black" points="607.5,-36 528.5,-36 528.5,0 607.5,0 607.5,-36"/>
<text text-anchor="middle" x="568" y="-16.1" font-family="Arial" font-size="8.00">imf:FunctionBlock</text>
</g>
<!-- http://ns.imfid.org/imf#FunctionBlock&#45;&gt;http://ns.imfid.org/imf#Block -->
<g id="edge4" class="edge">
<title>http://ns.imfid.org/imf#FunctionBlock&#45;&gt;http://ns.imfid.org/imf#Block</title>
<path fill="none" stroke="black" d="M568,-36.19C568,-44.21 568,-53.95 568,-62.93"/>
<polygon fill="none" stroke="black" points="564.5,-62.97 568,-72.97 571.5,-62.97 564.5,-62.97"/>
</g>
<!-- http://ns.imfid.org/imf#FunctionBlock&#45;&gt;http://ns.imfid.org/imf#FunctionElement -->
<g id="edge22" class="edge">
<title>http://ns.imfid.org/imf#FunctionBlock&#45;&gt;http://ns.imfid.org/imf#FunctionElement</title>
<path fill="none" stroke="black" d="M607.79,-33.2C637.94,-43.95 679.68,-58.85 712.87,-70.69"/>
<polygon fill="none" stroke="black" points="711.83,-74.03 722.42,-74.1 714.18,-67.44 711.83,-74.03"/>
</g>
<!-- http://ns.imfid.org/imf#LocationTerminal -->
<g id="node11" class="node">
<title>http://ns.imfid.org/imf#LocationTerminal</title>
<polygon fill="none" stroke="black" points="1226.5,-36 1137.5,-36 1137.5,0 1226.5,0 1226.5,-36"/>
<text text-anchor="middle" x="1182" y="-16.1" font-family="Arial" font-size="8.00">imf:LocationTerminal</text>
</g>
<!-- http://ns.imfid.org/imf#LocationTerminal&#45;&gt;http://ns.imfid.org/imf#Terminal -->
<g id="edge27" class="edge">
<title>http://ns.imfid.org/imf#LocationTerminal&#45;&gt;http://ns.imfid.org/imf#Terminal</title>
<path fill="none" stroke="black" d="M1165.37,-36.17C1158.74,-42.51 1150.84,-49.48 1143,-55 1134.22,-61.18 1124.2,-66.99 1114.64,-72.03"/>
<polygon fill="none" stroke="black" points="1112.98,-68.95 1105.67,-76.61 1116.16,-75.18 1112.98,-68.95"/>
</g>
<!-- http://ns.imfid.org/imf#LocationElement -->
<g id="node22" class="node">
<title>http://ns.imfid.org/imf#LocationElement</title>
<polygon fill="none" stroke="black" points="1028.5,-109 939.5,-109 939.5,-73 1028.5,-73 1028.5,-109"/>
<text text-anchor="middle" x="984" y="-89.1" font-family="Arial" font-size="8.00">imf:LocationElement</text>
</g>
<!-- http://ns.imfid.org/imf#LocationTerminal&#45;&gt;http://ns.imfid.org/imf#LocationElement -->
<g id="edge17" class="edge">
<title>http://ns.imfid.org/imf#LocationTerminal&#45;&gt;http://ns.imfid.org/imf#LocationElement</title>
<path fill="none" stroke="black" d="M1137.07,-35.11C1107.83,-45.6 1069.51,-59.34 1038.53,-70.45"/>
<polygon fill="none" stroke="black" points="1036.98,-67.28 1028.75,-73.95 1039.35,-73.87 1036.98,-67.28"/>
</g>
<!-- http://ns.imfid.org/imf#FunctionElement&#45;&gt;http://ns.imfid.org/imf#AspectElement -->
<g id="edge26" class="edge">
<title>http://ns.imfid.org/imf#FunctionElement&#45;&gt;http://ns.imfid.org/imf#AspectElement</title>
<path fill="none" stroke="black" d="M777.41,-109.19C782.53,-117.65 788.81,-128.02 794.49,-137.39"/>
<polygon fill="none" stroke="black" points="791.51,-139.23 799.69,-145.97 797.5,-135.6 791.51,-139.23"/>
</g>
<!-- 76d4f2a7&#45;b998&#45;4c2c&#45;b60b&#45;061b7fd5e8f0 -->
<g id="node25" class="node">
<title>76d4f2a7&#45;b998&#45;4c2c&#45;b60b&#45;061b7fd5e8f0</title>
<polygon fill="#e5e5e5" stroke="black" stroke-dasharray="5,2" points="750.5,-177 583.5,-177 583.5,-151 750.5,-151 750.5,-177"/>
<text text-anchor="middle" x="667" y="-166.6" font-family="Arial" font-size="8.00">owl:Restriction</text>
<text text-anchor="middle" x="667" y="-157.6" font-family="Arial" font-size="8.00">,76d4f2a7&#45;b998&#45;4c2c&#45;b60b&#45;061b7fd5e8f0</text>
</g>
<!-- http://ns.imfid.org/imf#FunctionElement&#45;&gt;76d4f2a7&#45;b998&#45;4c2c&#45;b60b&#45;061b7fd5e8f0 -->
<g id="edge9" class="edge">
<title>http://ns.imfid.org/imf#FunctionElement&#45;&gt;76d4f2a7&#45;b998&#45;4c2c&#45;b60b&#45;061b7fd5e8f0</title>
<path fill="none" stroke="black" d="M743.05,-109.01C727.74,-119.88 707.91,-133.95 692.34,-145.01"/>
<polygon fill="none" stroke="black" points="690.31,-142.16 684.18,-150.8 694.36,-147.86 690.31,-142.16"/>
</g>
<!-- 584878da&#45;76d2&#45;4d92&#45;9cfe&#45;d2578a68f1a8 -->
<g id="node14" class="node">
<title>584878da&#45;76d2&#45;4d92&#45;9cfe&#45;d2578a68f1a8</title>
<polygon fill="#e5e5e5" stroke="black" stroke-dasharray="5,2" points="1322,-177 1152,-177 1152,-151 1322,-151 1322,-177"/>
<text text-anchor="middle" x="1237" y="-166.6" font-family="Arial" font-size="8.00">owl:Restriction</text>
<text text-anchor="middle" x="1237" y="-157.6" font-family="Arial" font-size="8.00">,584878da&#45;76d2&#45;4d92&#45;9cfe&#45;d2578a68f1a8</text>
</g>
<!-- http://ns.imfid.org/imf#LocationBlock -->
<g id="node15" class="node">
<title>http://ns.imfid.org/imf#LocationBlock</title>
<polygon fill="none" stroke="black" points="798,-36 720,-36 720,0 798,0 798,-36"/>
<text text-anchor="middle" x="759" y="-16.1" font-family="Arial" font-size="8.00">imf:LocationBlock</text>
</g>
<!-- http://ns.imfid.org/imf#LocationBlock&#45;&gt;http://ns.imfid.org/imf#Block -->
<g id="edge13" class="edge">
<title>http://ns.imfid.org/imf#LocationBlock&#45;&gt;http://ns.imfid.org/imf#Block</title>
<path fill="none" stroke="black" d="M719.98,-32.85C716.94,-33.92 713.92,-34.98 711,-36 666.29,-51.65 652.23,-53.79 604.67,-72.92"/>
<polygon fill="none" stroke="black" points="603.33,-69.69 595.38,-76.7 605.96,-76.17 603.33,-69.69"/>
</g>
<!-- http://ns.imfid.org/imf#LocationBlock&#45;&gt;http://ns.imfid.org/imf#LocationElement -->
<g id="edge28" class="edge">
<title>http://ns.imfid.org/imf#LocationBlock&#45;&gt;http://ns.imfid.org/imf#LocationElement</title>
<path fill="none" stroke="black" d="M798.01,-32.68C801.38,-33.82 804.75,-34.94 808,-36 819.81,-39.86 882.16,-58.94 929.33,-73.34"/>
<polygon fill="none" stroke="black" points="928.56,-76.76 939.14,-76.33 930.6,-70.06 928.56,-76.76"/>
</g>
<!-- http://ns.imfid.org/imf#functionAspect -->
<g id="node16" class="node">
<title>http://ns.imfid.org/imf#functionAspect</title>
<polygon fill="none" stroke="black" points="565.5,-182 484.5,-182 484.5,-146 565.5,-146 565.5,-182"/>
<text text-anchor="middle" x="525" y="-162.1" font-family="Arial" font-size="8.00">imf:functionAspect</text>
</g>
<!-- http://ns.imfid.org/imf#functionAspect&#45;&gt;http://ns.imfid.org/imf#Aspect -->
<g id="edge23" class="edge">
<title>http://ns.imfid.org/imf#functionAspect&#45;&gt;http://ns.imfid.org/imf#Aspect</title>
<path fill="none" stroke="black" stroke-dasharray="1,5" d="M503.52,-182.14C489.51,-193.32 471.03,-208.07 455.63,-220.36"/>
<polygon fill="black" stroke="black" points="453.07,-217.92 447.44,-226.89 457.44,-223.39 453.07,-217.92"/>
</g>
<!-- http://ns.imfid.org/imf#AspectElement&#45;&gt;663b65ee&#45;df0d&#45;4887&#45;9312&#45;b02173799f3f -->
<g id="edge18" class="edge">
<title>http://ns.imfid.org/imf#AspectElement&#45;&gt;663b65ee&#45;df0d&#45;4887&#45;9312&#45;b02173799f3f</title>
<path fill="none" stroke="black" d="M824.32,-182.14C834.52,-194.35 848.27,-210.81 859.03,-223.68"/>
<polygon fill="none" stroke="black" points="856.49,-226.11 865.59,-231.54 861.87,-221.62 856.49,-226.11"/>
</g>
<!-- http://ns.imfid.org/imf#AspectElement&#45;&gt;http://ns.imfid.org/imf#Element -->
<g id="edge30" class="edge">
<title>http://ns.imfid.org/imf#AspectElement&#45;&gt;http://ns.imfid.org/imf#Element</title>
<path fill="none" stroke="black" d="M795.68,-182.14C786.68,-192.91 774.93,-206.98 764.9,-218.98"/>
<polygon fill="none" stroke="black" points="762.02,-216.97 758.29,-226.89 767.39,-221.46 762.02,-216.97"/>
</g>
<!-- http://ns.imfid.org/imf#AspectElement&#45;&gt;http://ns.imfid.org/imf#Aspect -->
<g id="edge2" class="edge">
<title>http://ns.imfid.org/imf#AspectElement&#45;&gt;http://ns.imfid.org/imf#Aspect</title>
<path fill="none" stroke="black" d="M768.39,-179.39C765.23,-180.32 762.07,-181.21 759,-182 652.97,-209.4 524.99,-229.75 463.1,-238.8"/>
<polygon fill="black" stroke="black" points="462.43,-235.36 453.04,-240.26 463.44,-242.29 462.43,-235.36"/>
<text text-anchor="middle" x="696.5" y="-202.6" font-family="Arial" font-size="8.00">imf:aspect</text>
</g>
<!-- http://ns.imfid.org/imf#AspectElement&#45;&gt;http://ns.imfid.org/imf#AspectElement -->
<g id="edge11" class="edge">
<title>http://ns.imfid.org/imf#AspectElement&#45;&gt;http://ns.imfid.org/imf#AspectElement</title>
<path fill="none" stroke="black" d="M851.71,-157.36C861.91,-157.85 869.5,-160.06 869.5,-164 869.5,-166.46 866.53,-168.25 861.82,-169.36"/>
<polygon fill="black" stroke="black" points="861.19,-165.92 851.71,-170.64 862.07,-172.86 861.19,-165.92"/>
<text text-anchor="middle" x="910.5" y="-162.1" font-family="Arial" font-size="8.00">imf:interAspectRelation</text>
</g>
<!-- http://ns.imfid.org/imf#InstalledBlock -->
<g id="node18" class="node">
<title>http://ns.imfid.org/imf#InstalledBlock</title>
<polygon fill="none" stroke="black" points="510.5,-36 433.5,-36 433.5,0 510.5,0 510.5,-36"/>
<text text-anchor="middle" x="472" y="-16.1" font-family="Arial" font-size="8.00">imf:InstalledBlock</text>
</g>
<!-- http://ns.imfid.org/imf#InstalledBlock&#45;&gt;http://ns.imfid.org/imf#InstalledElement -->
<g id="edge14" class="edge">
<title>http://ns.imfid.org/imf#InstalledBlock&#45;&gt;http://ns.imfid.org/imf#InstalledElement</title>
<path fill="none" stroke="black" d="M510.78,-33.88C537.65,-44.19 573.76,-58.06 603.38,-69.42"/>
<polygon fill="none" stroke="black" points="602.16,-72.7 612.75,-73.02 604.67,-66.17 602.16,-72.7"/>
</g>
<!-- http://ns.imfid.org/imf#InstalledBlock&#45;&gt;http://ns.imfid.org/imf#Block -->
<g id="edge7" class="edge">
<title>http://ns.imfid.org/imf#InstalledBlock&#45;&gt;http://ns.imfid.org/imf#Block</title>
<path fill="none" stroke="black" d="M495.24,-36.19C507.74,-45.43 523.32,-56.96 536.86,-66.97"/>
<polygon fill="none" stroke="black" points="534.85,-69.84 544.98,-72.97 539.02,-64.21 534.85,-69.84"/>
</g>
<!-- http://ns.imfid.org/imf#productAspect -->
<g id="node19" class="node">
<title>http://ns.imfid.org/imf#productAspect</title>
<polygon fill="none" stroke="black" points="268,-182 188,-182 188,-146 268,-146 268,-182"/>
<text text-anchor="middle" x="228" y="-162.1" font-family="Arial" font-size="8.00">imf:productAspect</text>
</g>
<!-- http://ns.imfid.org/imf#productAspect&#45;&gt;http://ns.imfid.org/imf#Aspect -->
<g id="edge12" class="edge">
<title>http://ns.imfid.org/imf#productAspect&#45;&gt;http://ns.imfid.org/imf#Aspect</title>
<path fill="none" stroke="black" stroke-dasharray="1,5" d="M268.07,-180.99C303.55,-195.14 354.91,-215.64 389.33,-229.37"/>
<polygon fill="black" stroke="black" points="388.41,-232.77 399,-233.23 391.01,-226.27 388.41,-232.77"/>
</g>
<!-- http://ns.imfid.org/imf#ProductTerminal -->
<g id="node20" class="node">
<title>http://ns.imfid.org/imf#ProductTerminal</title>
<polygon fill="none" stroke="black" points="1119.5,-36 1032.5,-36 1032.5,0 1119.5,0 1119.5,-36"/>
<text text-anchor="middle" x="1076" y="-16.1" font-family="Arial" font-size="8.00">imf:ProductTerminal</text>
</g>
<!-- http://ns.imfid.org/imf#ProductTerminal&#45;&gt;http://ns.imfid.org/imf#Terminal -->
<g id="edge16" class="edge">
<title>http://ns.imfid.org/imf#ProductTerminal&#45;&gt;http://ns.imfid.org/imf#Terminal</title>
<path fill="none" stroke="black" d="M1076,-36.19C1076,-44.21 1076,-53.95 1076,-62.93"/>
<polygon fill="none" stroke="black" points="1072.5,-62.97 1076,-72.97 1079.5,-62.97 1072.5,-62.97"/>
</g>
<!-- http://ns.imfid.org/imf#ProductTerminal&#45;&gt;http://ns.imfid.org/imf#ProductElement -->
<g id="edge3" class="edge">
<title>http://ns.imfid.org/imf#ProductTerminal&#45;&gt;http://ns.imfid.org/imf#ProductElement</title>
<path fill="none" stroke="black" d="M1032.11,-34.58C1001.68,-45.38 961,-59.82 928.8,-71.26"/>
<polygon fill="none" stroke="black" points="927.35,-68.06 919.1,-74.7 929.7,-74.65 927.35,-68.06"/>
</g>
<!-- http://ns.imfid.org/imf#ProductElement&#45;&gt;http://ns.imfid.org/imf#AspectElement -->
<g id="edge31" class="edge">
<title>http://ns.imfid.org/imf#ProductElement&#45;&gt;http://ns.imfid.org/imf#AspectElement</title>
<path fill="none" stroke="black" d="M860.02,-109.19C851.84,-118 841.72,-128.87 832.74,-138.54"/>
<polygon fill="none" stroke="black" points="830.07,-136.26 825.83,-145.97 835.2,-141.03 830.07,-136.26"/>
</g>
<!-- ee537fe0&#45;61bd&#45;42e3&#45;ac2f&#45;f35dabfd5c24 -->
<g id="node26" class="node">
<title>ee537fe0&#45;61bd&#45;42e3&#45;ac2f&#45;f35dabfd5c24</title>
<polygon fill="#e5e5e5" stroke="black" stroke-dasharray="5,2" points="1134,-177 970,-177 970,-151 1134,-151 1134,-177"/>
<text text-anchor="middle" x="1052" y="-166.6" font-family="Arial" font-size="8.00">owl:Restriction</text>
<text text-anchor="middle" x="1052" y="-157.6" font-family="Arial" font-size="8.00">,ee537fe0&#45;61bd&#45;42e3&#45;ac2f&#45;f35dabfd5c24</text>
</g>
<!-- http://ns.imfid.org/imf#ProductElement&#45;&gt;ee537fe0&#45;61bd&#45;42e3&#45;ac2f&#45;f35dabfd5c24 -->
<g id="edge20" class="edge">
<title>http://ns.imfid.org/imf#ProductElement&#45;&gt;ee537fe0&#45;61bd&#45;42e3&#45;ac2f&#45;f35dabfd5c24</title>
<path fill="none" stroke="black" d="M918.16,-109.01C946.81,-120.57 984.47,-135.76 1012.53,-147.08"/>
<polygon fill="none" stroke="black" points="1011.45,-150.41 1022.03,-150.91 1014.07,-143.92 1011.45,-150.41"/>
</g>
<!-- http://ns.imfid.org/imf#LocationElement&#45;&gt;584878da&#45;76d2&#45;4d92&#45;9cfe&#45;d2578a68f1a8 -->
<g id="edge32" class="edge">
<title>http://ns.imfid.org/imf#LocationElement&#45;&gt;584878da&#45;76d2&#45;4d92&#45;9cfe&#45;d2578a68f1a8</title>
<path fill="none" stroke="black" d="M1028.75,-106.24C1031.87,-107.19 1034.98,-108.12 1038,-109 1085.98,-123.06 1140.84,-137.85 1180.79,-148.39"/>
<polygon fill="none" stroke="black" points="1180.05,-151.81 1190.61,-150.97 1181.83,-145.04 1180.05,-151.81"/>
</g>
<!-- http://ns.imfid.org/imf#LocationElement&#45;&gt;http://ns.imfid.org/imf#AspectElement -->
<g id="edge24" class="edge">
<title>http://ns.imfid.org/imf#LocationElement&#45;&gt;http://ns.imfid.org/imf#AspectElement</title>
<path fill="none" stroke="black" d="M942.32,-109.01C917.88,-118.98 886.81,-131.66 860.92,-142.22"/>
<polygon fill="none" stroke="black" points="859.57,-138.99 851.64,-146.01 862.22,-145.47 859.57,-138.99"/>
</g>
<!-- http://ns.imfid.org/imf#InstalledTerminal -->
<g id="node23" class="node">
<title>http://ns.imfid.org/imf#InstalledTerminal</title>
<polygon fill="none" stroke="black" points="905.5,-36 816.5,-36 816.5,0 905.5,0 905.5,-36"/>
<text text-anchor="middle" x="861" y="-16.1" font-family="Arial" font-size="8.00">imf:InstalledTerminal</text>
</g>
<!-- http://ns.imfid.org/imf#InstalledTerminal&#45;&gt;http://ns.imfid.org/imf#Terminal -->
<g id="edge29" class="edge">
<title>http://ns.imfid.org/imf#InstalledTerminal&#45;&gt;http://ns.imfid.org/imf#Terminal</title>
<path fill="none" stroke="black" d="M905.78,-33.14C908.9,-34.12 911.99,-35.07 915,-36 966.68,-51.91 982.82,-53 1036.88,-72.79"/>
<polygon fill="none" stroke="black" points="1035.69,-76.08 1046.28,-76.27 1038.12,-69.51 1035.69,-76.08"/>
</g>
<!-- http://ns.imfid.org/imf#InstalledTerminal&#45;&gt;http://ns.imfid.org/imf#InstalledElement -->
<g id="edge5" class="edge">
<title>http://ns.imfid.org/imf#InstalledTerminal&#45;&gt;http://ns.imfid.org/imf#InstalledElement</title>
<path fill="none" stroke="black" d="M816.48,-34.49C785.33,-45.34 743.54,-59.88 710.56,-71.36"/>
<polygon fill="none" stroke="black" points="709.36,-68.07 701.07,-74.66 711.67,-74.68 709.36,-68.07"/>
</g>
<!-- http://ns.imfid.org/imf#installedAspect -->
<g id="node24" class="node">
<title>http://ns.imfid.org/imf#installedAspect</title>
<polygon fill="none" stroke="black" points="368,-182 286,-182 286,-146 368,-146 368,-182"/>
<text text-anchor="middle" x="327" y="-162.1" font-family="Arial" font-size="8.00">imf:installedAspect</text>
</g>
<!-- http://ns.imfid.org/imf#installedAspect&#45;&gt;http://ns.imfid.org/imf#Aspect -->
<g id="edge21" class="edge">
<title>http://ns.imfid.org/imf#installedAspect&#45;&gt;http://ns.imfid.org/imf#Aspect</title>
<path fill="none" stroke="black" stroke-dasharray="1,5" d="M348.48,-182.14C362.49,-193.32 380.97,-208.07 396.37,-220.36"/>
<polygon fill="black" stroke="black" points="394.56,-223.39 404.56,-226.89 398.93,-217.92 394.56,-223.39"/>
</g>
</g>
</svg>

