<?xml version="1.0" encoding="UTF-8" standalone="no"?>
<!DOCTYPE svg PUBLIC "-//W3C//DTD SVG 1.1//EN"
 "http://www.w3.org/Graphics/SVG/1.1/DTD/svg11.dtd">
<!-- Generated by graphviz version 2.43.0 (0)
 -->
<!-- Title: urn:temp#graph Pages: 1 -->
<svg width="1362px" height="206px"
 viewBox="0.00 0.00 1361.50 206.00" xmlns="http://www.w3.org/2000/svg" xmlns:xlink="http://www.w3.org/1999/xlink">
<g id="graph0" class="graph" transform="scale(1.0 1.0) rotate(0) translate(4 202)">
<title>urn:temp#graph</title>
<polygon fill="white" stroke="transparent" points="-4,4 -4,-202 1357.5,-202 1357.5,4 -4,4"/>
<!-- http://ns.imfid.org/imf#BreakdownPoint -->
<g id="node1" class="node">
<title>http://ns.imfid.org/imf#BreakdownPoint</title>
<polygon fill="none" stroke="black" points="227,-117 139,-117 139,-81 227,-81 227,-117"/>
<text text-anchor="middle" x="183" y="-97.1" font-family="Arial" font-size="8.00">imf:BreakdownPoint</text>
</g>
<!-- http://ns.imfid.org/imf#Element -->
<g id="node3" class="node">
<title>http://ns.imfid.org/imf#Element</title>
<polygon fill="none" stroke="black" points="204.5,-198 145.5,-198 145.5,-162 204.5,-162 204.5,-198"/>
<text text-anchor="middle" x="175" y="-178.1" font-family="Arial" font-size="8.00">imf:Element</text>
</g>
<!-- http://ns.imfid.org/imf#BreakdownPoint&#45;&gt;http://ns.imfid.org/imf#Element -->
<g id="edge5" class="edge">
<title>http://ns.imfid.org/imf#BreakdownPoint&#45;&gt;http://ns.imfid.org/imf#Element</title>
<path fill="none" stroke="black" d="M207.96,-117.23C215.86,-124.91 221.5,-134.38 217,-144 215.19,-147.87 212.72,-151.46 209.87,-154.75"/>
<polygon fill="black" stroke="black" points="207.33,-152.34 202.69,-161.87 212.26,-157.31 207.33,-152.34"/>
<text text-anchor="middle" x="239" y="-137.6" font-family="Arial" font-size="8.00">imf:thePart</text>
</g>
<!-- http://ns.imfid.org/imf#BreakdownPoint&#45;&gt;http://ns.imfid.org/imf#Element -->
<g id="edge7" class="edge">
<title>http://ns.imfid.org/imf#BreakdownPoint&#45;&gt;http://ns.imfid.org/imf#Element</title>
<path fill="none" stroke="black" d="M158.29,-117.19C152.91,-122.25 147.95,-128.26 145,-135 142.21,-141.37 143.65,-147.8 147.07,-153.7"/>
<polygon fill="black" stroke="black" points="144.44,-156.02 153.26,-161.9 150.03,-151.81 144.44,-156.02"/>
<text text-anchor="middle" x="168.5" y="-137.6" font-family="Arial" font-size="8.00">imf:theWhole</text>
</g>
<!-- http://ns.imfid.org/imf#BreakdownPoint&#45;&gt;http://ns.imfid.org/imf#Element -->
<g id="edge18" class="edge">
<title>http://ns.imfid.org/imf#BreakdownPoint&#45;&gt;http://ns.imfid.org/imf#Element</title>
<path fill="none" stroke="black" d="M189.95,-117.18C192.37,-125.33 194.03,-135.19 192,-144 191.35,-146.84 190.43,-149.71 189.36,-152.53"/>
<polygon fill="none" stroke="black" points="186.12,-151.21 185.28,-161.77 192.52,-154.04 186.12,-151.21"/>
</g>
<!-- http://ns.imfid.org/imf#ScopeQualifier -->
<g id="node2" class="node">
<title>http://ns.imfid.org/imf#ScopeQualifier</title>
<polygon fill="none" stroke="black" points="581.5,-36 500.5,-36 500.5,0 581.5,0 581.5,-36"/>
<text text-anchor="middle" x="541" y="-16.1" font-family="Arial" font-size="8.00">imf:ScopeQualifier</text>
</g>
<!-- http://ns.imfid.org/imf#Element&#45;&gt;http://ns.imfid.org/imf#Element -->
<g id="edge13" class="edge">
<title>http://ns.imfid.org/imf#Element&#45;&gt;http://ns.imfid.org/imf#Element</title>
<path fill="none" stroke="black" d="M204.69,-172.5C214.58,-172.5 222.5,-175 222.5,-180 222.5,-183.12 219.41,-185.27 214.67,-186.45"/>
<polygon fill="black" stroke="black" points="214.26,-182.97 204.69,-187.5 215,-189.93 214.26,-182.97"/>
<text text-anchor="middle" x="240.5" y="-178.1" font-family="Arial" font-size="8.00">imf:partOf</text>
</g>
<!-- http://ns.imfid.org/imf#TerminalFlow -->
<g id="node4" class="node">
<title>http://ns.imfid.org/imf#TerminalFlow</title>
<polygon fill="none" stroke="black" points="577.5,-198 500.5,-198 500.5,-162 577.5,-162 577.5,-198"/>
<text text-anchor="middle" x="539" y="-178.1" font-family="Arial" font-size="8.00">imf:TerminalFlow</text>
</g>
<!-- http://ns.imfid.org/imf#Aspect -->
<g id="node5" class="node">
<title>http://ns.imfid.org/imf#Aspect</title>
<polygon fill="none" stroke="black" points="728,-117 674,-117 674,-81 728,-81 728,-117"/>
<text text-anchor="middle" x="701" y="-97.1" font-family="Arial" font-size="8.00">imf:Aspect</text>
</g>
<!-- http://www.w3.org/2001/XMLSchema#string -->
<g id="node20" class="node">
<title>http://www.w3.org/2001/XMLSchema#string</title>
<polygon fill="none" stroke="black" points="728,-198 674,-198 674,-162 728,-162 728,-198"/>
<text text-anchor="middle" x="701" y="-178.1" font-family="Arial" font-size="8.00">xsd:string</text>
</g>
<!-- http://ns.imfid.org/imf#Aspect&#45;&gt;http://www.w3.org/2001/XMLSchema#string -->
<g id="edge9" class="edge">
<title>http://ns.imfid.org/imf#Aspect&#45;&gt;http://www.w3.org/2001/XMLSchema#string</title>
<path fill="none" stroke="black" d="M701,-117.14C701,-127.29 701,-140.37 701,-151.88"/>
<polygon fill="black" stroke="black" points="697.5,-151.89 701,-161.89 704.5,-151.89 697.5,-151.89"/>
<text text-anchor="middle" x="717.5" y="-137.6" font-family="Arial" font-size="8.00">imf:prefix</text>
</g>
<!-- http://ns.imfid.org/imf#outputFlow -->
<g id="node6" class="node">
<title>http://ns.imfid.org/imf#outputFlow</title>
<polygon fill="none" stroke="black" points="573.5,-117 504.5,-117 504.5,-81 573.5,-81 573.5,-117"/>
<text text-anchor="middle" x="539" y="-97.1" font-family="Arial" font-size="8.00">imf:outputFlow</text>
</g>
<!-- http://ns.imfid.org/imf#outputFlow&#45;&gt;http://ns.imfid.org/imf#TerminalFlow -->
<g id="edge2" class="edge">
<title>http://ns.imfid.org/imf#outputFlow&#45;&gt;http://ns.imfid.org/imf#TerminalFlow</title>
<path fill="none" stroke="black" stroke-dasharray="1,5" d="M539,-117.14C539,-127.29 539,-140.37 539,-151.88"/>
<polygon fill="black" stroke="black" points="535.5,-151.89 539,-161.89 542.5,-151.89 535.5,-151.89"/>
</g>
<!-- http://ns.imfid.org/imf#Terminal -->
<g id="node7" class="node">
<title>http://ns.imfid.org/imf#Terminal</title>
<polygon fill="none" stroke="black" points="410.5,-117 351.5,-117 351.5,-81 410.5,-81 410.5,-117"/>
<text text-anchor="middle" x="381" y="-97.1" font-family="Arial" font-size="8.00">imf:Terminal</text>
</g>
<!-- http://ns.imfid.org/imf#Terminal&#45;&gt;http://ns.imfid.org/imf#Element -->
<g id="edge11" class="edge">
<title>http://ns.imfid.org/imf#Terminal&#45;&gt;http://ns.imfid.org/imf#Element</title>
<path fill="none" stroke="black" d="M363.09,-117.06C352.48,-126.3 338.34,-137.18 324,-144 288.97,-160.67 245.43,-169.71 214.49,-174.4"/>
<polygon fill="none" stroke="black" points="213.91,-170.95 204.51,-175.83 214.9,-177.87 213.91,-170.95"/>
</g>
<!-- http://ns.imfid.org/imf#Terminal&#45;&gt;http://ns.imfid.org/imf#TerminalFlow -->
<g id="edge1" class="edge">
<title>http://ns.imfid.org/imf#Terminal&#45;&gt;http://ns.imfid.org/imf#TerminalFlow</title>
<path fill="none" stroke="black" d="M410.3,-117.15C425.04,-125.57 443.28,-135.66 460,-144 469.87,-148.92 480.58,-153.9 490.84,-158.5"/>
<polygon fill="black" stroke="black" points="489.54,-161.75 500.1,-162.61 492.38,-155.35 489.54,-161.75"/>
<text text-anchor="middle" x="497.5" y="-137.6" font-family="Arial" font-size="8.00">imf:hasFlowDirection</text>
</g>
<!-- http://ns.imfid.org/imf#Terminal&#45;&gt;http://ns.imfid.org/imf#Terminal -->
<g id="edge16" class="edge">
<title>http://ns.imfid.org/imf#Terminal&#45;&gt;http://ns.imfid.org/imf#Terminal</title>
<path fill="none" stroke="black" d="M410.69,-91.5C420.58,-91.5 428.5,-94 428.5,-99 428.5,-102.12 425.41,-104.27 420.67,-105.45"/>
<polygon fill="black" stroke="black" points="420.26,-101.97 410.69,-106.5 421,-108.93 420.26,-101.97"/>
<text text-anchor="middle" x="457.5" y="-97.1" font-family="Arial" font-size="8.00">imf:connectedTo</text>
</g>
<!-- http://ns.imfid.org/imf#AttributeGroup -->
<g id="node8" class="node">
<title>http://ns.imfid.org/imf#AttributeGroup</title>
<polygon fill="none" stroke="black" points="943,-36 861,-36 861,0 943,0 943,-36"/>
<text text-anchor="middle" x="902" y="-16.1" font-family="Arial" font-size="8.00">imf:AttributeGroup</text>
</g>
<!-- http://ns.imfid.org/imf#Block -->
<g id="node9" class="node">
<title>http://ns.imfid.org/imf#Block</title>
<polygon fill="none" stroke="black" points="54,-36 0,-36 0,0 54,0 54,-36"/>
<text text-anchor="middle" x="27" y="-16.1" font-family="Arial" font-size="8.00">imf:Block</text>
</g>
<!-- http://ns.imfid.org/imf#Block&#45;&gt;http://ns.imfid.org/imf#Element -->
<g id="edge20" class="edge">
<title>http://ns.imfid.org/imf#Block&#45;&gt;http://ns.imfid.org/imf#Element</title>
<path fill="none" stroke="black" d="M39.66,-36.05C58.51,-60.95 95.65,-108.21 132,-144 135.94,-147.88 140.29,-151.79 144.65,-155.51"/>
<polygon fill="none" stroke="black" points="142.5,-158.28 152.44,-161.96 146.97,-152.89 142.5,-158.28"/>
</g>
<!-- http://ns.imfid.org/imf#Block&#45;&gt;http://ns.imfid.org/imf#Terminal -->
<g id="edge12" class="edge">
<title>http://ns.imfid.org/imf#Block&#45;&gt;http://ns.imfid.org/imf#Terminal</title>
<path fill="none" stroke="black" d="M54.08,-30.41C59.31,-32.41 64.79,-34.37 70,-36 120.53,-51.77 133.86,-53.85 186,-63 252.57,-74.68 271.41,-64.69 337,-81 338.44,-81.36 339.9,-81.75 341.36,-82.17"/>
<polygon fill="black" stroke="black" points="340.43,-85.55 351.02,-85.28 342.58,-78.89 340.43,-85.55"/>
<text text-anchor="middle" x="214" y="-56.6" font-family="Arial" font-size="8.00">imf:hasTerminal</text>
</g>
<!-- http://ns.imfid.org/imf#ProvenanceQualifier -->
<g id="node10" class="node">
<title>http://ns.imfid.org/imf#ProvenanceQualifier</title>
<polygon fill="none" stroke="black" points="1062.5,-36 961.5,-36 961.5,0 1062.5,0 1062.5,-36"/>
<text text-anchor="middle" x="1012" y="-16.1" font-family="Arial" font-size="8.00">imf:ProvenanceQualifier</text>
</g>
<!-- http://ns.imfid.org/imf#Attribute -->
<g id="node11" class="node">
<title>http://ns.imfid.org/imf#Attribute</title>
<polygon fill="none" stroke="black" points="1139.5,-36 1080.5,-36 1080.5,0 1139.5,0 1139.5,-36"/>
<text text-anchor="middle" x="1110" y="-16.1" font-family="Arial" font-size="8.00">imf:Attribute</text>
</g>
<!-- http://ns.imfid.org/imf#AttributeQualifier -->
<g id="node15" class="node">
<title>http://ns.imfid.org/imf#AttributeQualifier</title>
<polygon fill="none" stroke="black" points="1154.5,-117 1065.5,-117 1065.5,-81 1154.5,-81 1154.5,-117"/>
<text text-anchor="middle" x="1110" y="-97.1" font-family="Arial" font-size="8.00">imf:AttributeQualifier</text>
</g>
<!-- http://ns.imfid.org/imf#Attribute&#45;&gt;http://ns.imfid.org/imf#AttributeQualifier -->
<g id="edge3" class="edge">
<title>http://ns.imfid.org/imf#Attribute&#45;&gt;http://ns.imfid.org/imf#AttributeQualifier</title>
<path fill="none" stroke="black" d="M1110,-36.14C1110,-46.29 1110,-59.37 1110,-70.88"/>
<polygon fill="black" stroke="black" points="1106.5,-70.89 1110,-80.89 1113.5,-70.89 1106.5,-70.89"/>
<text text-anchor="middle" x="1137.5" y="-56.6" font-family="Arial" font-size="8.00">imf:hasQualifier</text>
</g>
<!-- http://ns.imfid.org/imf#ConnectionPoint -->
<g id="node12" class="node">
<title>http://ns.imfid.org/imf#ConnectionPoint</title>
<polygon fill="none" stroke="black" points="167,-36 79,-36 79,0 167,0 167,-36"/>
<text text-anchor="middle" x="123" y="-16.1" font-family="Arial" font-size="8.00">imf:ConnectionPoint</text>
</g>
<!-- http://ns.imfid.org/imf#ConnectionPoint&#45;&gt;http://ns.imfid.org/imf#Element -->
<g id="edge17" class="edge">
<title>http://ns.imfid.org/imf#ConnectionPoint&#45;&gt;http://ns.imfid.org/imf#Element</title>
<path fill="none" stroke="black" d="M167.12,-24.54C229.7,-32.6 337.32,-47.34 343,-54 345.6,-57.04 345.46,-59.84 343,-63 323.01,-88.69 293.76,-56.79 272,-81 253.09,-102.04 280.5,-121.78 263,-144 251.27,-158.9 232.24,-167.48 214.87,-172.41"/>
<polygon fill="black" stroke="black" points="207.09,-179.51 204.66,-169.82 206.6,-169.33 209.03,-179.03 207.09,-179.51"/>
<polyline fill="none" stroke="black" points="204.91,-174.91 209.76,-173.69 "/>
<polygon fill="black" stroke="black" points="211.94,-178.3 209.51,-168.6 211.45,-168.11 213.88,-177.81 211.94,-178.3"/>
<polyline fill="none" stroke="black" points="209.76,-173.69 214.61,-172.47 "/>
<text text-anchor="middle" x="307" y="-97.1" font-family="Arial" font-size="8.00">imf:theConnected 2</text>
</g>
<!-- http://ns.imfid.org/imf#ConnectionPoint&#45;&gt;http://ns.imfid.org/imf#Element -->
<g id="edge19" class="edge">
<title>http://ns.imfid.org/imf#ConnectionPoint&#45;&gt;http://ns.imfid.org/imf#Element</title>
<path fill="none" stroke="black" d="M121.01,-36.31C118.97,-61.96 118.61,-110.63 140,-144 142.3,-147.58 145.01,-151.09 147.9,-154.41"/>
<polygon fill="none" stroke="black" points="145.44,-156.9 154.84,-161.79 150.54,-152.11 145.44,-156.9"/>
</g>
<!-- http://ns.imfid.org/imf#ConnectionPoint&#45;&gt;http://ns.imfid.org/imf#Terminal -->
<g id="edge14" class="edge">
<title>http://ns.imfid.org/imf#ConnectionPoint&#45;&gt;http://ns.imfid.org/imf#Terminal</title>
<path fill="none" stroke="black" d="M167.42,-31.65C225.23,-48.14 320.83,-75.54 337,-81 338.6,-81.54 340.23,-82.1 341.87,-82.68"/>
<polygon fill="black" stroke="black" points="340.71,-85.99 351.31,-86.13 343.11,-79.41 340.71,-85.99"/>
<text text-anchor="middle" x="307" y="-56.6" font-family="Arial" font-size="8.00">imf:theConnected</text>
</g>
<!-- http://ns.imfid.org/imf#RegularityQualifier -->
<g id="node13" class="node">
<title>http://ns.imfid.org/imf#RegularityQualifier</title>
<polygon fill="none" stroke="black" points="1252.5,-36 1157.5,-36 1157.5,0 1252.5,0 1252.5,-36"/>
<text text-anchor="middle" x="1205" y="-16.1" font-family="Arial" font-size="8.00">imf:RegularityQualifier</text>
</g>
<!-- http://ns.imfid.org/imf#inputFlow -->
<g id="node14" class="node">
<title>http://ns.imfid.org/imf#inputFlow</title>
<polygon fill="none" stroke="black" points="656,-117 592,-117 592,-81 656,-81 656,-117"/>
<text text-anchor="middle" x="624" y="-97.1" font-family="Arial" font-size="8.00">imf:inputFlow</text>
</g>
<!-- http://ns.imfid.org/imf#inputFlow&#45;&gt;http://ns.imfid.org/imf#TerminalFlow -->
<g id="edge15" class="edge">
<title>http://ns.imfid.org/imf#inputFlow&#45;&gt;http://ns.imfid.org/imf#TerminalFlow</title>
<path fill="none" stroke="black" stroke-dasharray="1,5" d="M605.56,-117.14C593.64,-128.22 577.96,-142.79 564.81,-155.01"/>
<polygon fill="black" stroke="black" points="562.35,-152.52 557.41,-161.89 567.12,-157.65 562.35,-152.52"/>
</g>
<!-- http://ns.imfid.org/imf#InputTerminal -->
<g id="node16" class="node">
<title>http://ns.imfid.org/imf#InputTerminal</title>
<polygon fill="none" stroke="black" points="351.5,-36 274.5,-36 274.5,0 351.5,0 351.5,-36"/>
<text text-anchor="middle" x="313" y="-16.1" font-family="Arial" font-size="8.00">imf:InputTerminal</text>
</g>
<!-- http://ns.imfid.org/imf#InputTerminal&#45;&gt;http://ns.imfid.org/imf#Terminal -->
<g id="edge8" class="edge">
<title>http://ns.imfid.org/imf#InputTerminal&#45;&gt;http://ns.imfid.org/imf#Terminal</title>
<path fill="none" stroke="black" d="M327.75,-36.14C337.02,-46.91 349.13,-60.98 359.46,-72.98"/>
<polygon fill="none" stroke="black" points="357.1,-75.6 366.27,-80.89 362.4,-71.03 357.1,-75.6"/>
</g>
<!-- http://ns.imfid.org/imf#RangeQualifier -->
<g id="node17" class="node">
<title>http://ns.imfid.org/imf#RangeQualifier</title>
<polygon fill="none" stroke="black" points="1353.5,-36 1270.5,-36 1270.5,0 1353.5,0 1353.5,-36"/>
<text text-anchor="middle" x="1312" y="-16.1" font-family="Arial" font-size="8.00">imf:RangeQualifier</text>
</g>
<!-- http://ns.imfid.org/imf#OutputTerminal -->
<g id="node18" class="node">
<title>http://ns.imfid.org/imf#OutputTerminal</title>
<polygon fill="none" stroke="black" points="452.5,-36 369.5,-36 369.5,0 452.5,0 452.5,-36"/>
<text text-anchor="middle" x="411" y="-16.1" font-family="Arial" font-size="8.00">imf:OutputTerminal</text>
</g>
<!-- http://ns.imfid.org/imf#OutputTerminal&#45;&gt;http://ns.imfid.org/imf#Terminal -->
<g id="edge4" class="edge">
<title>http://ns.imfid.org/imf#OutputTerminal&#45;&gt;http://ns.imfid.org/imf#Terminal</title>
<path fill="none" stroke="black" d="M404.49,-36.14C400.6,-46.39 395.57,-59.63 391.16,-71.24"/>
<polygon fill="none" stroke="black" points="387.78,-70.3 387.5,-80.89 394.32,-72.79 387.78,-70.3"/>
</g>
<!-- http://ns.imfid.org/imf#AspectElement -->
<g id="node19" class="node">
<title>http://ns.imfid.org/imf#AspectElement</title>
<polygon fill="none" stroke="black" points="742.5,-36 659.5,-36 659.5,0 742.5,0 742.5,-36"/>
<text text-anchor="middle" x="701" y="-16.1" font-family="Arial" font-size="8.00">imf:AspectElement</text>
</g>
<!-- http://ns.imfid.org/imf#AspectElement&#45;&gt;http://ns.imfid.org/imf#Aspect -->
<g id="edge10" class="edge">
<title>http://ns.imfid.org/imf#AspectElement&#45;&gt;http://ns.imfid.org/imf#Aspect</title>
<path fill="none" stroke="black" d="M701,-36.14C701,-46.29 701,-59.37 701,-70.88"/>
<polygon fill="black" stroke="black" points="697.5,-70.89 701,-80.89 704.5,-70.89 697.5,-70.89"/>
<text text-anchor="middle" x="726" y="-56.6" font-family="Arial" font-size="8.00">imf:hasAspect</text>
</g>
<!-- http://ns.imfid.org/imf#AspectElement&#45;&gt;http://ns.imfid.org/imf#AspectElement -->
<g id="edge6" class="edge">
<title>http://ns.imfid.org/imf#AspectElement&#45;&gt;http://ns.imfid.org/imf#AspectElement</title>
<path fill="none" stroke="black" d="M742.71,-10.62C752.91,-11.16 760.5,-13.62 760.5,-18 760.5,-20.73 757.53,-22.72 752.82,-23.96"/>
<polygon fill="black" stroke="black" points="752.12,-20.52 742.71,-25.38 753.1,-27.46 752.12,-20.52"/>
<text text-anchor="middle" x="801.5" y="-16.1" font-family="Arial" font-size="8.00">imf:interAspectRelation</text>
</g>
</g>
</svg>

