<?xml version="1.0" encoding="UTF-8" standalone="no"?>
<!DOCTYPE svg PUBLIC "-//W3C//DTD SVG 1.1//EN"
 "http://www.w3.org/Graphics/SVG/1.1/DTD/svg11.dtd">
<!-- Generated by graphviz version 2.43.0 (0)
 -->
<!-- Title: urn:temp#graph Pages: 1 -->
<svg width="1980px" height="271px"
 viewBox="0.00 0.00 1979.50 271.00" xmlns="http://www.w3.org/2000/svg" xmlns:xlink="http://www.w3.org/1999/xlink">
<g id="graph0" class="graph" transform="scale(1.0 1.0) rotate(0) translate(4 267)">
<title>urn:temp#graph</title>
<polygon fill="white" stroke="transparent" points="-4,4 -4,-267 1975.5,-267 1975.5,4 -4,4"/>
<!-- d83ff2f7&#45;8ced&#45;4ecf&#45;8d3e&#45;25d555d323ed -->
<g id="node1" class="node">
<title>d83ff2f7&#45;8ced&#45;4ecf&#45;8d3e&#45;25d555d323ed</title>
<polygon fill="#e5e5e5" stroke="black" stroke-dasharray="5,2" points="894.5,-258 730.5,-258 730.5,-232 894.5,-232 894.5,-258"/>
<text text-anchor="middle" x="812.5" y="-247.6" font-family="Arial" font-size="8.00">owl:Restriction</text>
<text text-anchor="middle" x="812.5" y="-238.6" font-family="Arial" font-size="8.00">,d83ff2f7&#45;8ced&#45;4ecf&#45;8d3e&#45;25d555d323ed</text>
</g>
<!-- 396fc9fb&#45;ae37&#45;4a03&#45;8c43&#45;9043905f4a64 -->
<g id="node2" class="node">
<title>396fc9fb&#45;ae37&#45;4a03&#45;8c43&#45;9043905f4a64</title>
<polygon fill="#e5e5e5" stroke="black" stroke-dasharray="5,2" points="525,-258 358,-258 358,-232 525,-232 525,-258"/>
<text text-anchor="middle" x="441.5" y="-247.6" font-family="Arial" font-size="8.00">owl:Restriction</text>
<text text-anchor="middle" x="441.5" y="-238.6" font-family="Arial" font-size="8.00">,396fc9fb&#45;ae37&#45;4a03&#45;8c43&#45;9043905f4a64</text>
</g>
<!-- http://ns.imfid.org/imf#Element -->
<g id="node3" class="node">
<title>http://ns.imfid.org/imf#Element</title>
<polygon fill="none" stroke="black" points="762,-36 703,-36 703,0 762,0 762,-36"/>
<text text-anchor="middle" x="732.5" y="-16.1" font-family="Arial" font-size="8.00">imf:Element</text>
</g>
<!-- 79d19418&#45;bb61&#45;4fb6&#45;9739&#45;a001f09c28ca -->
<g id="node5" class="node">
<title>79d19418&#45;bb61&#45;4fb6&#45;9739&#45;a001f09c28ca</title>
<polygon fill="#e5e5e5" stroke="black" stroke-dasharray="5,2" points="817,-112 648,-112 648,-86 817,-86 817,-112"/>
<text text-anchor="middle" x="732.5" y="-101.6" font-family="Arial" font-size="8.00">owl:Restriction</text>
<text text-anchor="middle" x="732.5" y="-92.6" font-family="Arial" font-size="8.00">,79d19418&#45;bb61&#45;4fb6&#45;9739&#45;a001f09c28ca</text>
</g>
<!-- http://ns.imfid.org/imf#Element&#45;&gt;79d19418&#45;bb61&#45;4fb6&#45;9739&#45;a001f09c28ca -->
<g id="edge16" class="edge">
<title>http://ns.imfid.org/imf#Element&#45;&gt;79d19418&#45;bb61&#45;4fb6&#45;9739&#45;a001f09c28ca</title>
<path fill="none" stroke="black" d="M732.5,-36.14C732.5,-47.65 732.5,-62.94 732.5,-75.44"/>
<polygon fill="none" stroke="black" points="729,-75.54 732.5,-85.54 736,-75.54 729,-75.54"/>
</g>
<!-- http://ns.imfid.org/imf#Aspect -->
<g id="node4" class="node">
<title>http://ns.imfid.org/imf#Aspect</title>
<polygon fill="none" stroke="black" points="853.5,-36 799.5,-36 799.5,0 853.5,0 853.5,-36"/>
<text text-anchor="middle" x="826.5" y="-16.1" font-family="Arial" font-size="8.00">imf:Aspect</text>
</g>
<!-- http://ns.imfid.org/imf#Terminal -->
<g id="node6" class="node">
<title>http://ns.imfid.org/imf#Terminal</title>
<polygon fill="none" stroke="black" points="950,-36 891,-36 891,0 950,0 950,-36"/>
<text text-anchor="middle" x="920.5" y="-16.1" font-family="Arial" font-size="8.00">imf:Terminal</text>
</g>
<!-- 8749485e&#45;213f&#45;4513&#45;96bd&#45;6f847d44d792 -->
<g id="node15" class="node">
<title>8749485e&#45;213f&#45;4513&#45;96bd&#45;6f847d44d792</title>
<polygon fill="#e5e5e5" stroke="black" stroke-dasharray="5,2" points="1005.5,-112 835.5,-112 835.5,-86 1005.5,-86 1005.5,-112"/>
<text text-anchor="middle" x="920.5" y="-101.6" font-family="Arial" font-size="8.00">owl:Restriction</text>
<text text-anchor="middle" x="920.5" y="-92.6" font-family="Arial" font-size="8.00">,8749485e&#45;213f&#45;4513&#45;96bd&#45;6f847d44d792</text>
</g>
<!-- http://ns.imfid.org/imf#Terminal&#45;&gt;8749485e&#45;213f&#45;4513&#45;96bd&#45;6f847d44d792 -->
<g id="edge12" class="edge">
<title>http://ns.imfid.org/imf#Terminal&#45;&gt;8749485e&#45;213f&#45;4513&#45;96bd&#45;6f847d44d792</title>
<path fill="none" stroke="black" d="M920.5,-36.14C920.5,-47.65 920.5,-62.94 920.5,-75.44"/>
<polygon fill="none" stroke="black" points="917,-75.54 920.5,-85.54 924,-75.54 917,-75.54"/>
</g>
<!-- http://ns.imfid.org/imf#TerminalType -->
<g id="node7" class="node">
<title>http://ns.imfid.org/imf#TerminalType</title>
<polygon fill="none" stroke="black" points="538,-117 461,-117 461,-81 538,-81 538,-117"/>
<text text-anchor="middle" x="499.5" y="-97.1" font-family="Arial" font-size="8.00">imf:TerminalType</text>
</g>
<!-- http://ns.imfid.org/imf#ElementType -->
<g id="node9" class="node">
<title>http://ns.imfid.org/imf#ElementType</title>
<polygon fill="none" stroke="black" points="665.5,-190 589.5,-190 589.5,-154 665.5,-154 665.5,-190"/>
<text text-anchor="middle" x="627.5" y="-170.1" font-family="Arial" font-size="8.00">imf:ElementType</text>
</g>
<!-- http://ns.imfid.org/imf#TerminalType&#45;&gt;http://ns.imfid.org/imf#ElementType -->
<g id="edge8" class="edge">
<title>http://ns.imfid.org/imf#TerminalType&#45;&gt;http://ns.imfid.org/imf#ElementType</title>
<path fill="none" stroke="black" d="M530.16,-117.01C547.45,-126.6 569.24,-138.68 587.82,-148.99"/>
<polygon fill="none" stroke="black" points="586.2,-152.1 596.65,-153.89 589.6,-145.98 586.2,-152.1"/>
</g>
<!-- c64483ef&#45;ac18&#45;430a&#45;bd86&#45;e6e5634d78d8 -->
<g id="node16" class="node">
<title>c64483ef&#45;ac18&#45;430a&#45;bd86&#45;e6e5634d78d8</title>
<polygon fill="#e5e5e5" stroke="black" stroke-dasharray="5,2" points="383,-185 212,-185 212,-159 383,-159 383,-185"/>
<text text-anchor="middle" x="297.5" y="-174.6" font-family="Arial" font-size="8.00">owl:Restriction</text>
<text text-anchor="middle" x="297.5" y="-165.6" font-family="Arial" font-size="8.00">,c64483ef&#45;ac18&#45;430a&#45;bd86&#45;e6e5634d78d8</text>
</g>
<!-- http://ns.imfid.org/imf#TerminalType&#45;&gt;c64483ef&#45;ac18&#45;430a&#45;bd86&#45;e6e5634d78d8 -->
<g id="edge4" class="edge">
<title>http://ns.imfid.org/imf#TerminalType&#45;&gt;c64483ef&#45;ac18&#45;430a&#45;bd86&#45;e6e5634d78d8</title>
<path fill="none" stroke="black" d="M460.55,-113.69C426.49,-125.66 377.07,-143.03 341.57,-155.51"/>
<polygon fill="none" stroke="black" points="340.23,-152.27 331.95,-158.89 342.55,-158.88 340.23,-152.27"/>
</g>
<!-- 04f8ab62&#45;5dee&#45;4c20&#45;a8d9&#45;f14db9b45b1b -->
<g id="node22" class="node">
<title>04f8ab62&#45;5dee&#45;4c20&#45;a8d9&#45;f14db9b45b1b</title>
<polygon fill="#e5e5e5" stroke="black" stroke-dasharray="5,2" points="571.5,-185 401.5,-185 401.5,-159 571.5,-159 571.5,-185"/>
<text text-anchor="middle" x="486.5" y="-174.6" font-family="Arial" font-size="8.00">owl:Restriction</text>
<text text-anchor="middle" x="486.5" y="-165.6" font-family="Arial" font-size="8.00">,04f8ab62&#45;5dee&#45;4c20&#45;a8d9&#45;f14db9b45b1b</text>
</g>
<!-- http://ns.imfid.org/imf#TerminalType&#45;&gt;04f8ab62&#45;5dee&#45;4c20&#45;a8d9&#45;f14db9b45b1b -->
<g id="edge3" class="edge">
<title>http://ns.imfid.org/imf#TerminalType&#45;&gt;04f8ab62&#45;5dee&#45;4c20&#45;a8d9&#45;f14db9b45b1b</title>
<path fill="none" stroke="black" d="M496.35,-117.19C494.61,-126.69 492.43,-138.61 490.56,-148.81"/>
<polygon fill="none" stroke="black" points="487.12,-148.18 488.76,-158.64 494.01,-149.44 487.12,-148.18"/>
</g>
<!-- 71e07981&#45;c17b&#45;472e&#45;9d1d&#45;809d47e3d326 -->
<g id="node8" class="node">
<title>71e07981&#45;c17b&#45;472e&#45;9d1d&#45;809d47e3d326</title>
<polygon fill="#e5e5e5" stroke="black" stroke-dasharray="5,2" points="1197.5,-112 1023.5,-112 1023.5,-86 1197.5,-86 1197.5,-112"/>
<text text-anchor="middle" x="1110.5" y="-101.6" font-family="Arial" font-size="8.00">owl:Restriction</text>
<text text-anchor="middle" x="1110.5" y="-92.6" font-family="Arial" font-size="8.00">,71e07981&#45;c17b&#45;472e&#45;9d1d&#45;809d47e3d326</text>
</g>
<!-- http://ns.imfid.org/imf#ElementType&#45;&gt;d83ff2f7&#45;8ced&#45;4ecf&#45;8d3e&#45;25d555d323ed -->
<g id="edge9" class="edge">
<title>http://ns.imfid.org/imf#ElementType&#45;&gt;d83ff2f7&#45;8ced&#45;4ecf&#45;8d3e&#45;25d555d323ed</title>
<path fill="none" stroke="black" d="M665.83,-187.71C696.72,-199.56 740.04,-216.19 771.59,-228.3"/>
<polygon fill="none" stroke="black" points="770.39,-231.59 780.98,-231.9 772.89,-225.05 770.39,-231.59"/>
</g>
<!-- http://ns.imfid.org/imf#ElementType&#45;&gt;396fc9fb&#45;ae37&#45;4a03&#45;8c43&#45;9043905f4a64 -->
<g id="edge11" class="edge">
<title>http://ns.imfid.org/imf#ElementType&#45;&gt;396fc9fb&#45;ae37&#45;4a03&#45;8c43&#45;9043905f4a64</title>
<path fill="none" stroke="black" d="M589.41,-187.54C558.3,-199.41 514.42,-216.17 482.53,-228.34"/>
<polygon fill="none" stroke="black" points="481.15,-225.12 473.05,-231.96 483.64,-231.66 481.15,-225.12"/>
</g>
<!-- 57d84f13&#45;abc7&#45;476b&#45;94ad&#45;c748f4453875 -->
<g id="node19" class="node">
<title>57d84f13&#45;abc7&#45;476b&#45;94ad&#45;c748f4453875</title>
<polygon fill="#e5e5e5" stroke="black" stroke-dasharray="5,2" points="712,-258 543,-258 543,-232 712,-232 712,-258"/>
<text text-anchor="middle" x="627.5" y="-247.6" font-family="Arial" font-size="8.00">owl:Restriction</text>
<text text-anchor="middle" x="627.5" y="-238.6" font-family="Arial" font-size="8.00">,57d84f13&#45;abc7&#45;476b&#45;94ad&#45;c748f4453875</text>
</g>
<!-- http://ns.imfid.org/imf#ElementType&#45;&gt;57d84f13&#45;abc7&#45;476b&#45;94ad&#45;c748f4453875 -->
<g id="edge17" class="edge">
<title>http://ns.imfid.org/imf#ElementType&#45;&gt;57d84f13&#45;abc7&#45;476b&#45;94ad&#45;c748f4453875</title>
<path fill="none" stroke="black" d="M627.5,-190.19C627.5,-199.59 627.5,-211.35 627.5,-221.48"/>
<polygon fill="none" stroke="black" points="624,-221.64 627.5,-231.64 631,-221.64 624,-221.64"/>
</g>
<!-- http://ns.imfid.org/imf#Type -->
<g id="node20" class="node">
<title>http://ns.imfid.org/imf#Type</title>
<polygon fill="none" stroke="black" points="182.5,-263 128.5,-263 128.5,-227 182.5,-227 182.5,-263"/>
<text text-anchor="middle" x="155.5" y="-243.1" font-family="Arial" font-size="8.00">imf:Type</text>
</g>
<!-- http://ns.imfid.org/imf#ElementType&#45;&gt;http://ns.imfid.org/imf#Type -->
<g id="edge18" class="edge">
<title>http://ns.imfid.org/imf#ElementType&#45;&gt;http://ns.imfid.org/imf#Type</title>
<path fill="none" stroke="black" d="M589.5,-187.54C586.48,-188.45 583.45,-189.29 580.5,-190 506.95,-207.74 281.89,-231.39 192.58,-240.35"/>
<polygon fill="none" stroke="black" points="192.23,-236.87 182.63,-241.34 192.93,-243.83 192.23,-236.87"/>
</g>
<!-- http://ns.imfid.org/imf#AttributeGroup -->
<g id="node10" class="node">
<title>http://ns.imfid.org/imf#AttributeGroup</title>
<polygon fill="none" stroke="black" points="1527.5,-36 1445.5,-36 1445.5,0 1527.5,0 1527.5,-36"/>
<text text-anchor="middle" x="1486.5" y="-16.1" font-family="Arial" font-size="8.00">imf:AttributeGroup</text>
</g>
<!-- ce9440a9&#45;9b4d&#45;44f7&#45;9fea&#45;fced8866adc1 -->
<g id="node18" class="node">
<title>ce9440a9&#45;9b4d&#45;44f7&#45;9fea&#45;fced8866adc1</title>
<polygon fill="#e5e5e5" stroke="black" stroke-dasharray="5,2" points="1569.5,-112 1403.5,-112 1403.5,-86 1569.5,-86 1569.5,-112"/>
<text text-anchor="middle" x="1486.5" y="-101.6" font-family="Arial" font-size="8.00">owl:Restriction</text>
<text text-anchor="middle" x="1486.5" y="-92.6" font-family="Arial" font-size="8.00">,ce9440a9&#45;9b4d&#45;44f7&#45;9fea&#45;fced8866adc1</text>
</g>
<!-- http://ns.imfid.org/imf#AttributeGroup&#45;&gt;ce9440a9&#45;9b4d&#45;44f7&#45;9fea&#45;fced8866adc1 -->
<g id="edge5" class="edge">
<title>http://ns.imfid.org/imf#AttributeGroup&#45;&gt;ce9440a9&#45;9b4d&#45;44f7&#45;9fea&#45;fced8866adc1</title>
<path fill="none" stroke="black" d="M1486.5,-36.14C1486.5,-47.65 1486.5,-62.94 1486.5,-75.44"/>
<polygon fill="none" stroke="black" points="1483,-75.54 1486.5,-85.54 1490,-75.54 1483,-75.54"/>
</g>
<!-- http://ns.imfid.org/imf#Block -->
<g id="node11" class="node">
<title>http://ns.imfid.org/imf#Block</title>
<polygon fill="none" stroke="black" points="1698.5,-36 1644.5,-36 1644.5,0 1698.5,0 1698.5,-36"/>
<text text-anchor="middle" x="1671.5" y="-16.1" font-family="Arial" font-size="8.00">imf:Block</text>
</g>
<!-- a7bb9e90&#45;4cdf&#45;4fd7&#45;b8b1&#45;24d71adfa4de -->
<g id="node25" class="node">
<title>a7bb9e90&#45;4cdf&#45;4fd7&#45;b8b1&#45;24d71adfa4de</title>
<polygon fill="#e5e5e5" stroke="black" stroke-dasharray="5,2" points="1755,-112 1588,-112 1588,-86 1755,-86 1755,-112"/>
<text text-anchor="middle" x="1671.5" y="-101.6" font-family="Arial" font-size="8.00">owl:Restriction</text>
<text text-anchor="middle" x="1671.5" y="-92.6" font-family="Arial" font-size="8.00">,a7bb9e90&#45;4cdf&#45;4fd7&#45;b8b1&#45;24d71adfa4de</text>
</g>
<!-- http://ns.imfid.org/imf#Block&#45;&gt;a7bb9e90&#45;4cdf&#45;4fd7&#45;b8b1&#45;24d71adfa4de -->
<g id="edge2" class="edge">
<title>http://ns.imfid.org/imf#Block&#45;&gt;a7bb9e90&#45;4cdf&#45;4fd7&#45;b8b1&#45;24d71adfa4de</title>
<path fill="none" stroke="black" d="M1671.5,-36.14C1671.5,-47.65 1671.5,-62.94 1671.5,-75.44"/>
<polygon fill="none" stroke="black" points="1668,-75.54 1671.5,-85.54 1675,-75.54 1668,-75.54"/>
</g>
<!-- http://ns.imfid.org/imf#AttributeGroupType -->
<g id="node12" class="node">
<title>http://ns.imfid.org/imf#AttributeGroupType</title>
<polygon fill="none" stroke="black" points="99,-190 0,-190 0,-154 99,-154 99,-190"/>
<text text-anchor="middle" x="49.5" y="-170.1" font-family="Arial" font-size="8.00">imf:AttributeGroupType</text>
</g>
<!-- http://ns.imfid.org/imf#AttributeGroupType&#45;&gt;http://ns.imfid.org/imf#Type -->
<g id="edge6" class="edge">
<title>http://ns.imfid.org/imf#AttributeGroupType&#45;&gt;http://ns.imfid.org/imf#Type</title>
<path fill="none" stroke="black" d="M74.89,-190.01C88.82,-199.33 106.27,-211.03 121.37,-221.14"/>
<polygon fill="none" stroke="black" points="119.69,-224.23 129.95,-226.89 123.59,-218.41 119.69,-224.23"/>
</g>
<!-- http://ns.imfid.org/imf#BlockType -->
<g id="node13" class="node">
<title>http://ns.imfid.org/imf#BlockType</title>
<polygon fill="none" stroke="black" points="609,-36 544,-36 544,0 609,0 609,-36"/>
<text text-anchor="middle" x="576.5" y="-16.1" font-family="Arial" font-size="8.00">imf:BlockType</text>
</g>
<!-- http://ns.imfid.org/imf#BlockType&#45;&gt;http://ns.imfid.org/imf#TerminalType -->
<g id="edge10" class="edge">
<title>http://ns.imfid.org/imf#BlockType&#45;&gt;http://ns.imfid.org/imf#TerminalType</title>
<path fill="none" stroke="black" d="M553.34,-36.24C546.66,-41.63 539.55,-47.8 533.5,-54 527.94,-59.7 522.43,-66.3 517.52,-72.62"/>
<polygon fill="black" stroke="black" points="514.46,-70.87 511.24,-80.96 520.05,-75.08 514.46,-70.87"/>
<text text-anchor="middle" x="570" y="-56.6" font-family="Arial" font-size="8.00">imf:hasTerminalType</text>
</g>
<!-- http://ns.imfid.org/imf#BlockType&#45;&gt;http://ns.imfid.org/imf#ElementType -->
<g id="edge13" class="edge">
<title>http://ns.imfid.org/imf#BlockType&#45;&gt;http://ns.imfid.org/imf#ElementType</title>
<path fill="none" stroke="black" d="M594.4,-36.22C598.99,-41.51 603.48,-47.64 606.5,-54 620.14,-82.75 624.97,-119.31 626.65,-143.84"/>
<polygon fill="none" stroke="black" points="623.16,-144.09 627.21,-153.88 630.15,-143.7 623.16,-144.09"/>
</g>
<!-- 42463350&#45;efbc&#45;4f2b&#45;87aa&#45;c42b06e09e45 -->
<g id="node14" class="node">
<title>42463350&#45;efbc&#45;4f2b&#45;87aa&#45;c42b06e09e45</title>
<polygon fill="#e5e5e5" stroke="black" stroke-dasharray="5,2" points="1385,-112 1216,-112 1216,-86 1385,-86 1385,-112"/>
<text text-anchor="middle" x="1300.5" y="-101.6" font-family="Arial" font-size="8.00">owl:Restriction</text>
<text text-anchor="middle" x="1300.5" y="-92.6" font-family="Arial" font-size="8.00">,42463350&#45;efbc&#45;4f2b&#45;87aa&#45;c42b06e09e45</text>
</g>
<!-- http://ns.imfid.org/imf#Direction -->
<g id="node17" class="node">
<title>http://ns.imfid.org/imf#Direction</title>
<polygon fill="none" stroke="black" points="1790,-36 1729,-36 1729,0 1790,0 1790,-36"/>
<text text-anchor="middle" x="1759.5" y="-16.1" font-family="Arial" font-size="8.00">imf:Direction</text>
</g>
<!-- http://ns.imfid.org/imf#AttributeValue -->
<g id="node21" class="node">
<title>http://ns.imfid.org/imf#AttributeValue</title>
<polygon fill="none" stroke="black" points="1899,-36 1820,-36 1820,0 1899,0 1899,-36"/>
<text text-anchor="middle" x="1859.5" y="-16.1" font-family="Arial" font-size="8.00">imf:AttributeValue</text>
</g>
<!-- e125c1bb&#45;5a34&#45;4611&#45;b554&#45;530e4329d12a -->
<g id="node27" class="node">
<title>e125c1bb&#45;5a34&#45;4611&#45;b554&#45;530e4329d12a</title>
<polygon fill="#e5e5e5" stroke="black" stroke-dasharray="5,2" points="1946,-112 1773,-112 1773,-86 1946,-86 1946,-112"/>
<text text-anchor="middle" x="1859.5" y="-101.6" font-family="Arial" font-size="8.00">owl:Restriction</text>
<text text-anchor="middle" x="1859.5" y="-92.6" font-family="Arial" font-size="8.00">,e125c1bb&#45;5a34&#45;4611&#45;b554&#45;530e4329d12a</text>
</g>
<!-- http://ns.imfid.org/imf#AttributeValue&#45;&gt;e125c1bb&#45;5a34&#45;4611&#45;b554&#45;530e4329d12a -->
<g id="edge7" class="edge">
<title>http://ns.imfid.org/imf#AttributeValue&#45;&gt;e125c1bb&#45;5a34&#45;4611&#45;b554&#45;530e4329d12a</title>
<path fill="none" stroke="black" d="M1859.5,-36.14C1859.5,-47.65 1859.5,-62.94 1859.5,-75.44"/>
<polygon fill="none" stroke="black" points="1856,-75.54 1859.5,-85.54 1863,-75.54 1856,-75.54"/>
</g>
<!-- http://ns.imfid.org/imf#TypeConstraint -->
<g id="node23" class="node">
<title>http://ns.imfid.org/imf#TypeConstraint</title>
<polygon fill="none" stroke="black" points="1247,-36 1164,-36 1164,0 1247,0 1247,-36"/>
<text text-anchor="middle" x="1205.5" y="-16.1" font-family="Arial" font-size="8.00">imf:TypeConstraint</text>
</g>
<!-- http://ns.imfid.org/imf#TypeConstraint&#45;&gt;71e07981&#45;c17b&#45;472e&#45;9d1d&#45;809d47e3d326 -->
<g id="edge15" class="edge">
<title>http://ns.imfid.org/imf#TypeConstraint&#45;&gt;71e07981&#45;c17b&#45;472e&#45;9d1d&#45;809d47e3d326</title>
<path fill="none" stroke="black" d="M1184.89,-36.14C1169.55,-48.89 1148.64,-66.28 1132.9,-79.38"/>
<polygon fill="none" stroke="black" points="1130.64,-76.7 1125.19,-85.78 1135.12,-82.08 1130.64,-76.7"/>
</g>
<!-- http://ns.imfid.org/imf#TypeConstraint&#45;&gt;42463350&#45;efbc&#45;4f2b&#45;87aa&#45;c42b06e09e45 -->
<g id="edge1" class="edge">
<title>http://ns.imfid.org/imf#TypeConstraint&#45;&gt;42463350&#45;efbc&#45;4f2b&#45;87aa&#45;c42b06e09e45</title>
<path fill="none" stroke="black" d="M1226.11,-36.14C1241.45,-48.89 1262.36,-66.28 1278.1,-79.38"/>
<polygon fill="none" stroke="black" points="1275.88,-82.08 1285.81,-85.78 1280.36,-76.7 1275.88,-82.08"/>
</g>
<!-- http://www.w3.org/2002/07/owl#Thing -->
<g id="node24" class="node">
<title>http://www.w3.org/2002/07/owl#Thing</title>
<polygon fill="none" stroke="black" points="1971.5,-36 1917.5,-36 1917.5,0 1971.5,0 1971.5,-36"/>
<text text-anchor="middle" x="1944.5" y="-16.1" font-family="Arial" font-size="8.00">owl:Thing</text>
</g>
<!-- http://ns.imfid.org/imf#AttributeType -->
<g id="node26" class="node">
<title>http://ns.imfid.org/imf#AttributeType</title>
<polygon fill="none" stroke="black" points="194,-190 117,-190 117,-154 194,-154 194,-190"/>
<text text-anchor="middle" x="155.5" y="-170.1" font-family="Arial" font-size="8.00">imf:AttributeType</text>
</g>
<!-- http://ns.imfid.org/imf#AttributeType&#45;&gt;http://ns.imfid.org/imf#Type -->
<g id="edge14" class="edge">
<title>http://ns.imfid.org/imf#AttributeType&#45;&gt;http://ns.imfid.org/imf#Type</title>
<path fill="none" stroke="black" d="M155.5,-190.19C155.5,-198.21 155.5,-207.95 155.5,-216.93"/>
<polygon fill="none" stroke="black" points="152,-216.97 155.5,-226.97 159,-216.97 152,-216.97"/>
</g>
</g>
</svg>

