<?xml version="1.0" encoding="UTF-8" standalone="no"?>
<!DOCTYPE svg PUBLIC "-//W3C//DTD SVG 1.1//EN"
 "http://www.w3.org/Graphics/SVG/1.1/DTD/svg11.dtd">
<!-- Generated by graphviz version 2.43.0 (0)
 -->
<!-- Title: urn:temp#graph Pages: 1 -->
<svg width="1309px" height="198px"
 viewBox="0.00 0.00 1309.00 198.00" xmlns="http://www.w3.org/2000/svg" xmlns:xlink="http://www.w3.org/1999/xlink">
<g id="graph0" class="graph" transform="scale(1.0 1.0) rotate(0) translate(4 194)">
<title>urn:temp#graph</title>
<polygon fill="white" stroke="transparent" points="-4,4 -4,-194 1305,-194 1305,4 -4,4"/>
<!-- http://ns.imfid.org/imf#operating -->
<g id="node1" class="node">
<title>http://ns.imfid.org/imf#operating</title>
<polygon fill="none" stroke="black" points="227,-36 164,-36 164,0 227,0 227,-36"/>
<text text-anchor="middle" x="195.5" y="-16.1" font-family="Arial" font-size="8.00">imf:operating</text>
</g>
<!-- http://ns.imfid.org/imf#Scope -->
<g id="node9" class="node">
<title>http://ns.imfid.org/imf#Scope</title>
<polygon fill="none" stroke="black" points="299.5,-109 245.5,-109 245.5,-73 299.5,-73 299.5,-109"/>
<text text-anchor="middle" x="272.5" y="-89.1" font-family="Arial" font-size="8.00">imf:Scope</text>
</g>
<!-- http://ns.imfid.org/imf#operating&#45;&gt;http://ns.imfid.org/imf#Scope -->
<g id="edge17" class="edge">
<title>http://ns.imfid.org/imf#operating&#45;&gt;http://ns.imfid.org/imf#Scope</title>
<path fill="none" stroke="black" stroke-dasharray="1,5" d="M214.14,-36.19C223.88,-45.17 235.96,-56.31 246.6,-66.11"/>
<polygon fill="black" stroke="black" points="244.31,-68.77 254.03,-72.97 249.05,-63.62 244.31,-68.77"/>
</g>
<!-- http://ns.imfid.org/imf#calculated -->
<g id="node2" class="node">
<title>http://ns.imfid.org/imf#calculated</title>
<polygon fill="none" stroke="black" points="770,-36 705,-36 705,0 770,0 770,-36"/>
<text text-anchor="middle" x="737.5" y="-16.1" font-family="Arial" font-size="8.00">imf:calculated</text>
</g>
<!-- http://ns.imfid.org/imf#Provenance -->
<g id="node13" class="node">
<title>http://ns.imfid.org/imf#Provenance</title>
<polygon fill="none" stroke="black" points="778.5,-109 706.5,-109 706.5,-73 778.5,-73 778.5,-109"/>
<text text-anchor="middle" x="742.5" y="-89.1" font-family="Arial" font-size="8.00">imf:Provenance</text>
</g>
<!-- http://ns.imfid.org/imf#calculated&#45;&gt;http://ns.imfid.org/imf#Provenance -->
<g id="edge11" class="edge">
<title>http://ns.imfid.org/imf#calculated&#45;&gt;http://ns.imfid.org/imf#Provenance</title>
<path fill="none" stroke="black" stroke-dasharray="1,5" d="M738.71,-36.19C739.28,-44.21 739.96,-53.95 740.59,-62.93"/>
<polygon fill="black" stroke="black" points="737.11,-63.24 741.3,-72.97 744.09,-62.75 737.11,-63.24"/>
</g>
<!-- http://ns.imfid.org/imf#nominal -->
<g id="node3" class="node">
<title>http://ns.imfid.org/imf#nominal</title>
<polygon fill="none" stroke="black" points="452,-36 395,-36 395,0 452,0 452,-36"/>
<text text-anchor="middle" x="423.5" y="-16.1" font-family="Arial" font-size="8.00">imf:nominal</text>
</g>
<!-- http://ns.imfid.org/imf#Range -->
<g id="node23" class="node">
<title>http://ns.imfid.org/imf#Range</title>
<polygon fill="none" stroke="black" points="528.5,-109 474.5,-109 474.5,-73 528.5,-73 528.5,-109"/>
<text text-anchor="middle" x="501.5" y="-89.1" font-family="Arial" font-size="8.00">imf:Range</text>
</g>
<!-- http://ns.imfid.org/imf#nominal&#45;&gt;http://ns.imfid.org/imf#Range -->
<g id="edge12" class="edge">
<title>http://ns.imfid.org/imf#nominal&#45;&gt;http://ns.imfid.org/imf#Range</title>
<path fill="none" stroke="black" stroke-dasharray="1,5" d="M442.38,-36.19C452.25,-45.17 464.48,-56.31 475.26,-66.11"/>
<polygon fill="black" stroke="black" points="473.04,-68.83 482.79,-72.97 477.75,-63.65 473.04,-68.83"/>
</g>
<!-- http://ns.imfid.org/imf#design -->
<g id="node4" class="node">
<title>http://ns.imfid.org/imf#design</title>
<polygon fill="none" stroke="black" points="299.5,-36 245.5,-36 245.5,0 299.5,0 299.5,-36"/>
<text text-anchor="middle" x="272.5" y="-16.1" font-family="Arial" font-size="8.00">imf:design</text>
</g>
<!-- http://ns.imfid.org/imf#design&#45;&gt;http://ns.imfid.org/imf#Scope -->
<g id="edge5" class="edge">
<title>http://ns.imfid.org/imf#design&#45;&gt;http://ns.imfid.org/imf#Scope</title>
<path fill="none" stroke="black" stroke-dasharray="1,5" d="M272.5,-36.19C272.5,-44.21 272.5,-53.95 272.5,-62.93"/>
<polygon fill="black" stroke="black" points="269,-62.97 272.5,-72.97 276,-62.97 269,-62.97"/>
</g>
<!-- http://ns.imfid.org/imf#specified -->
<g id="node5" class="node">
<title>http://ns.imfid.org/imf#specified</title>
<polygon fill="none" stroke="black" points="848.5,-36 788.5,-36 788.5,0 848.5,0 848.5,-36"/>
<text text-anchor="middle" x="818.5" y="-16.1" font-family="Arial" font-size="8.00">imf:specified</text>
</g>
<!-- http://ns.imfid.org/imf#specified&#45;&gt;http://ns.imfid.org/imf#Provenance -->
<g id="edge14" class="edge">
<title>http://ns.imfid.org/imf#specified&#45;&gt;http://ns.imfid.org/imf#Provenance</title>
<path fill="none" stroke="black" stroke-dasharray="1,5" d="M800.1,-36.19C790.49,-45.17 778.57,-56.31 768.07,-66.11"/>
<polygon fill="black" stroke="black" points="765.65,-63.59 760.73,-72.97 770.42,-68.7 765.65,-63.59"/>
</g>
<!-- http://ns.imfid.org/imf#DatumQualifier -->
<g id="node6" class="node">
<title>http://ns.imfid.org/imf#DatumQualifier</title>
<polygon fill="none" stroke="black" points="542,-190 459,-190 459,-154 542,-154 542,-190"/>
<text text-anchor="middle" x="500.5" y="-170.1" font-family="Arial" font-size="8.00">imf:DatumQualifier</text>
</g>
<!-- 82a90886&#45;f0ff&#45;4324&#45;9d08&#45;558ab742d64c -->
<g id="node7" class="node">
<title>82a90886&#45;f0ff&#45;4324&#45;9d08&#45;558ab742d64c</title>
<polygon fill="#e5e5e5" stroke="black" stroke-dasharray="5,2" points="1110,-185 943,-185 943,-159 1110,-159 1110,-185"/>
<text text-anchor="middle" x="1026.5" y="-174.6" font-family="Arial" font-size="8.00">owl:Restriction</text>
<text text-anchor="middle" x="1026.5" y="-165.6" font-family="Arial" font-size="8.00">,82a90886&#45;f0ff&#45;4324&#45;9d08&#45;558ab742d64c</text>
</g>
<!-- http://ns.imfid.org/imf#AttributeGroup -->
<g id="node8" class="node">
<title>http://ns.imfid.org/imf#AttributeGroup</title>
<polygon fill="none" stroke="black" points="1032.5,-36 950.5,-36 950.5,0 1032.5,0 1032.5,-36"/>
<text text-anchor="middle" x="991.5" y="-16.1" font-family="Arial" font-size="8.00">imf:AttributeGroup</text>
</g>
<!-- http://ns.imfid.org/imf#Scope&#45;&gt;http://ns.imfid.org/imf#DatumQualifier -->
<g id="edge18" class="edge">
<title>http://ns.imfid.org/imf#Scope&#45;&gt;http://ns.imfid.org/imf#DatumQualifier</title>
<path fill="none" stroke="black" d="M299.55,-101.37C336.33,-114.12 402.85,-137.16 449.23,-153.24"/>
<polygon fill="none" stroke="black" points="448.21,-156.59 458.81,-156.55 450.51,-149.97 448.21,-156.59"/>
</g>
<!-- http://ns.imfid.org/imf#maximum -->
<g id="node10" class="node">
<title>http://ns.imfid.org/imf#maximum</title>
<polygon fill="none" stroke="black" points="534.5,-36 470.5,-36 470.5,0 534.5,0 534.5,-36"/>
<text text-anchor="middle" x="502.5" y="-16.1" font-family="Arial" font-size="8.00">imf:maximum</text>
</g>
<!-- http://ns.imfid.org/imf#maximum&#45;&gt;http://ns.imfid.org/imf#Range -->
<g id="edge7" class="edge">
<title>http://ns.imfid.org/imf#maximum&#45;&gt;http://ns.imfid.org/imf#Range</title>
<path fill="none" stroke="black" stroke-dasharray="1,5" d="M502.26,-36.19C502.14,-44.21 502.01,-53.95 501.88,-62.93"/>
<polygon fill="black" stroke="black" points="498.38,-62.92 501.74,-72.97 505.38,-63.02 498.38,-62.92"/>
</g>
<!-- http://ns.imfid.org/imf#minimum -->
<g id="node11" class="node">
<title>http://ns.imfid.org/imf#minimum</title>
<polygon fill="none" stroke="black" points="614.5,-36 552.5,-36 552.5,0 614.5,0 614.5,-36"/>
<text text-anchor="middle" x="583.5" y="-16.1" font-family="Arial" font-size="8.00">imf:minimum</text>
</g>
<!-- http://ns.imfid.org/imf#minimum&#45;&gt;http://ns.imfid.org/imf#Range -->
<g id="edge6" class="edge">
<title>http://ns.imfid.org/imf#minimum&#45;&gt;http://ns.imfid.org/imf#Range</title>
<path fill="none" stroke="black" stroke-dasharray="1,5" d="M563.65,-36.19C553.17,-45.26 540.16,-56.52 528.76,-66.4"/>
<polygon fill="black" stroke="black" points="526.44,-63.78 521.17,-72.97 531.02,-69.07 526.44,-63.78"/>
</g>
<!-- http://ns.imfid.org/imf#absolute -->
<g id="node12" class="node">
<title>http://ns.imfid.org/imf#absolute</title>
<polygon fill="none" stroke="black" points="59,-36 0,-36 0,0 59,0 59,-36"/>
<text text-anchor="middle" x="29.5" y="-16.1" font-family="Arial" font-size="8.00">imf:absolute</text>
</g>
<!-- http://ns.imfid.org/imf#Regularity -->
<g id="node17" class="node">
<title>http://ns.imfid.org/imf#Regularity</title>
<polygon fill="none" stroke="black" points="144,-109 79,-109 79,-73 144,-73 144,-109"/>
<text text-anchor="middle" x="111.5" y="-89.1" font-family="Arial" font-size="8.00">imf:Regularity</text>
</g>
<!-- http://ns.imfid.org/imf#absolute&#45;&gt;http://ns.imfid.org/imf#Regularity -->
<g id="edge8" class="edge">
<title>http://ns.imfid.org/imf#absolute&#45;&gt;http://ns.imfid.org/imf#Regularity</title>
<path fill="none" stroke="black" stroke-dasharray="1,5" d="M49.35,-36.19C59.83,-45.26 72.84,-56.52 84.24,-66.4"/>
<polygon fill="black" stroke="black" points="81.98,-69.07 91.83,-72.97 86.56,-63.78 81.98,-69.07"/>
</g>
<!-- http://ns.imfid.org/imf#Provenance&#45;&gt;http://ns.imfid.org/imf#DatumQualifier -->
<g id="edge9" class="edge">
<title>http://ns.imfid.org/imf#Provenance&#45;&gt;http://ns.imfid.org/imf#DatumQualifier</title>
<path fill="none" stroke="black" d="M706.39,-91.19C663.86,-91.76 592.3,-97.59 539.5,-127 531.3,-131.57 523.95,-138.54 517.91,-145.59"/>
<polygon fill="none" stroke="black" points="514.9,-143.75 511.44,-153.77 520.39,-148.1 514.9,-143.75"/>
</g>
<!-- http://ns.imfid.org/imf#measured -->
<g id="node14" class="node">
<title>http://ns.imfid.org/imf#measured</title>
<polygon fill="none" stroke="black" points="932,-36 867,-36 867,0 932,0 932,-36"/>
<text text-anchor="middle" x="899.5" y="-16.1" font-family="Arial" font-size="8.00">imf:measured</text>
</g>
<!-- http://ns.imfid.org/imf#measured&#45;&gt;http://ns.imfid.org/imf#Provenance -->
<g id="edge13" class="edge">
<title>http://ns.imfid.org/imf#measured&#45;&gt;http://ns.imfid.org/imf#Provenance</title>
<path fill="none" stroke="black" stroke-dasharray="1,5" d="M866.97,-33.71C844.11,-44.05 813.23,-58.02 787.94,-69.45"/>
<polygon fill="black" stroke="black" points="786.22,-66.39 778.55,-73.7 789.11,-72.77 786.22,-66.39"/>
</g>
<!-- ce7be5e5&#45;ad38&#45;4b2c&#45;9a3e&#45;49617e8bab21 -->
<g id="node15" class="node">
<title>ce7be5e5&#45;ad38&#45;4b2c&#45;9a3e&#45;49617e8bab21</title>
<polygon fill="#e5e5e5" stroke="black" stroke-dasharray="5,2" points="1301,-185 1128,-185 1128,-159 1301,-159 1301,-185"/>
<text text-anchor="middle" x="1214.5" y="-174.6" font-family="Arial" font-size="8.00">owl:Restriction</text>
<text text-anchor="middle" x="1214.5" y="-165.6" font-family="Arial" font-size="8.00">,ce7be5e5&#45;ad38&#45;4b2c&#45;9a3e&#45;49617e8bab21</text>
</g>
<!-- http://ns.imfid.org/imf#AttributeValue -->
<g id="node16" class="node">
<title>http://ns.imfid.org/imf#AttributeValue</title>
<polygon fill="none" stroke="black" points="879,-109 800,-109 800,-73 879,-73 879,-109"/>
<text text-anchor="middle" x="839.5" y="-89.1" font-family="Arial" font-size="8.00">imf:AttributeValue</text>
</g>
<!-- http://ns.imfid.org/imf#AttributeValue&#45;&gt;http://ns.imfid.org/imf#DatumQualifier -->
<g id="edge16" class="edge">
<title>http://ns.imfid.org/imf#AttributeValue&#45;&gt;http://ns.imfid.org/imf#DatumQualifier</title>
<path fill="none" stroke="black" d="M799.96,-105.74C795.78,-106.95 791.57,-108.06 787.5,-109 730.23,-122.18 714.08,-115.24 656.5,-127 611.81,-136.12 601.36,-141.48 557.5,-154 555.64,-154.53 553.74,-155.08 551.83,-155.63"/>
<polygon fill="black" stroke="black" points="550.8,-152.28 542.18,-158.45 552.76,-159 550.8,-152.28"/>
<text text-anchor="middle" x="696" y="-129.6" font-family="Arial" font-size="8.00">imf:hasDatumQualifier</text>
</g>
<!-- http://ns.imfid.org/imf#AttributeValue&#45;&gt;82a90886&#45;f0ff&#45;4324&#45;9d08&#45;558ab742d64c -->
<g id="edge2" class="edge">
<title>http://ns.imfid.org/imf#AttributeValue&#45;&gt;82a90886&#45;f0ff&#45;4324&#45;9d08&#45;558ab742d64c</title>
<path fill="none" stroke="black" d="M879.16,-108.75C911.42,-122.38 956.64,-141.49 988.46,-154.93"/>
<polygon fill="none" stroke="black" points="987.3,-158.24 997.87,-158.9 990.02,-151.79 987.3,-158.24"/>
</g>
<!-- http://ns.imfid.org/imf#AttributeValue&#45;&gt;ce7be5e5&#45;ad38&#45;4b2c&#45;9a3e&#45;49617e8bab21 -->
<g id="edge20" class="edge">
<title>http://ns.imfid.org/imf#AttributeValue&#45;&gt;ce7be5e5&#45;ad38&#45;4b2c&#45;9a3e&#45;49617e8bab21</title>
<path fill="none" stroke="black" d="M879.28,-100.38C943.14,-113.83 1069.26,-140.4 1147.29,-156.84"/>
<polygon fill="none" stroke="black" points="1146.99,-160.35 1157.5,-158.99 1148.43,-153.5 1146.99,-160.35"/>
</g>
<!-- 82cb3292&#45;3c5f&#45;4ce9&#45;840a&#45;835d362a392a -->
<g id="node19" class="node">
<title>82cb3292&#45;3c5f&#45;4ce9&#45;840a&#45;835d362a392a</title>
<polygon fill="#e5e5e5" stroke="black" stroke-dasharray="5,2" points="736.5,-185 566.5,-185 566.5,-159 736.5,-159 736.5,-185"/>
<text text-anchor="middle" x="651.5" y="-174.6" font-family="Arial" font-size="8.00">owl:Restriction</text>
<text text-anchor="middle" x="651.5" y="-165.6" font-family="Arial" font-size="8.00">,82cb3292&#45;3c5f&#45;4ce9&#45;840a&#45;835d362a392a</text>
</g>
<!-- http://ns.imfid.org/imf#AttributeValue&#45;&gt;82cb3292&#45;3c5f&#45;4ce9&#45;840a&#45;835d362a392a -->
<g id="edge10" class="edge">
<title>http://ns.imfid.org/imf#AttributeValue&#45;&gt;82cb3292&#45;3c5f&#45;4ce9&#45;840a&#45;835d362a392a</title>
<path fill="none" stroke="black" d="M799.63,-108.75C767.2,-122.38 721.73,-141.49 689.75,-154.93"/>
<polygon fill="none" stroke="black" points="688.15,-151.8 680.28,-158.9 690.86,-158.26 688.15,-151.8"/>
</g>
<!-- 6b881f07&#45;64cd&#45;4266&#45;ad61&#45;d77e2441d6f2 -->
<g id="node22" class="node">
<title>6b881f07&#45;64cd&#45;4266&#45;ad61&#45;d77e2441d6f2</title>
<polygon fill="#e5e5e5" stroke="black" stroke-dasharray="5,2" points="924.5,-185 754.5,-185 754.5,-159 924.5,-159 924.5,-185"/>
<text text-anchor="middle" x="839.5" y="-174.6" font-family="Arial" font-size="8.00">owl:Restriction</text>
<text text-anchor="middle" x="839.5" y="-165.6" font-family="Arial" font-size="8.00">,6b881f07&#45;64cd&#45;4266&#45;ad61&#45;d77e2441d6f2</text>
</g>
<!-- http://ns.imfid.org/imf#AttributeValue&#45;&gt;6b881f07&#45;64cd&#45;4266&#45;ad61&#45;d77e2441d6f2 -->
<g id="edge15" class="edge">
<title>http://ns.imfid.org/imf#AttributeValue&#45;&gt;6b881f07&#45;64cd&#45;4266&#45;ad61&#45;d77e2441d6f2</title>
<path fill="none" stroke="black" d="M839.5,-109.14C839.5,-120.65 839.5,-135.94 839.5,-148.44"/>
<polygon fill="none" stroke="black" points="836,-148.54 839.5,-158.54 843,-148.54 836,-148.54"/>
</g>
<!-- http://ns.imfid.org/imf#Regularity&#45;&gt;http://ns.imfid.org/imf#DatumQualifier -->
<g id="edge21" class="edge">
<title>http://ns.imfid.org/imf#Regularity&#45;&gt;http://ns.imfid.org/imf#DatumQualifier</title>
<path fill="none" stroke="black" d="M144.33,-98.67C212.05,-112.42 367.66,-144.02 448.94,-160.53"/>
<polygon fill="none" stroke="black" points="448.45,-164 458.95,-162.56 449.85,-157.14 448.45,-164"/>
</g>
<!-- http://ns.imfid.org/imf#normal -->
<g id="node18" class="node">
<title>http://ns.imfid.org/imf#normal</title>
<polygon fill="none" stroke="black" points="686.5,-36 632.5,-36 632.5,0 686.5,0 686.5,-36"/>
<text text-anchor="middle" x="659.5" y="-16.1" font-family="Arial" font-size="8.00">imf:normal</text>
</g>
<!-- http://ns.imfid.org/imf#normal&#45;&gt;http://ns.imfid.org/imf#Range -->
<g id="edge3" class="edge">
<title>http://ns.imfid.org/imf#normal&#45;&gt;http://ns.imfid.org/imf#Range</title>
<path fill="none" stroke="black" stroke-dasharray="1,5" d="M632.41,-31.88C629.41,-33.28 626.39,-34.68 623.5,-36 594.86,-49.1 562.23,-63.51 537.93,-74.15"/>
<polygon fill="black" stroke="black" points="536.48,-70.97 528.72,-78.18 539.29,-77.38 536.48,-70.97"/>
</g>
<!-- http://ns.imfid.org/imf#continuous -->
<g id="node20" class="node">
<title>http://ns.imfid.org/imf#continuous</title>
<polygon fill="none" stroke="black" points="145.5,-36 77.5,-36 77.5,0 145.5,0 145.5,-36"/>
<text text-anchor="middle" x="111.5" y="-16.1" font-family="Arial" font-size="8.00">imf:continuous</text>
</g>
<!-- http://ns.imfid.org/imf#continuous&#45;&gt;http://ns.imfid.org/imf#Regularity -->
<g id="edge4" class="edge">
<title>http://ns.imfid.org/imf#continuous&#45;&gt;http://ns.imfid.org/imf#Regularity</title>
<path fill="none" stroke="black" stroke-dasharray="1,5" d="M111.5,-36.19C111.5,-44.21 111.5,-53.95 111.5,-62.93"/>
<polygon fill="black" stroke="black" points="108,-62.97 111.5,-72.97 115,-62.97 108,-62.97"/>
</g>
<!-- http://ns.imfid.org/imf#average -->
<g id="node21" class="node">
<title>http://ns.imfid.org/imf#average</title>
<polygon fill="none" stroke="black" points="377,-36 318,-36 318,0 377,0 377,-36"/>
<text text-anchor="middle" x="347.5" y="-16.1" font-family="Arial" font-size="8.00">imf:average</text>
</g>
<!-- http://ns.imfid.org/imf#average&#45;&gt;http://ns.imfid.org/imf#Range -->
<g id="edge19" class="edge">
<title>http://ns.imfid.org/imf#average&#45;&gt;http://ns.imfid.org/imf#Range</title>
<path fill="none" stroke="black" stroke-dasharray="1,5" d="M377.19,-32.69C402.26,-44.25 438.24,-60.84 465.05,-73.2"/>
<polygon fill="black" stroke="black" points="463.93,-76.53 474.48,-77.54 466.86,-70.18 463.93,-76.53"/>
</g>
<!-- http://ns.imfid.org/imf#Range&#45;&gt;http://ns.imfid.org/imf#DatumQualifier -->
<g id="edge1" class="edge">
<title>http://ns.imfid.org/imf#Range&#45;&gt;http://ns.imfid.org/imf#DatumQualifier</title>
<path fill="none" stroke="black" d="M501.28,-109.14C501.15,-119.29 500.99,-132.37 500.84,-143.88"/>
<polygon fill="none" stroke="black" points="497.34,-143.85 500.72,-153.89 504.34,-143.94 497.34,-143.85"/>
</g>
</g>
</svg>

