<?xml version="1.0" encoding="UTF-8" standalone="no"?>
<!DOCTYPE svg PUBLIC "-//W3C//DTD SVG 1.1//EN"
 "http://www.w3.org/Graphics/SVG/1.1/DTD/svg11.dtd">
<!-- Generated by graphviz version 2.43.0 (0)
 -->
<!-- Title: urn:temp#graph Pages: 1 -->
<svg width="1316px" height="198px"
 viewBox="0.00 0.00 1315.50 198.00" xmlns="http://www.w3.org/2000/svg" xmlns:xlink="http://www.w3.org/1999/xlink">
<g id="graph0" class="graph" transform="scale(1.0 1.0) rotate(0) translate(4 194)">
<title>urn:temp#graph</title>
<polygon fill="white" stroke="transparent" points="-4,4 -4,-194 1311.5,-194 1311.5,4 -4,4"/>
<!-- http://ns.imfid.org/imf#operating -->
<g id="node1" class="node">
<title>http://ns.imfid.org/imf#operating</title>
<polygon fill="none" stroke="black" points="1135,-36 1072,-36 1072,0 1135,0 1135,-36"/>
<text text-anchor="middle" x="1103.5" y="-16.1" font-family="Arial" font-size="8.00">imf:operating</text>
</g>
<!-- http://ns.imfid.org/imf#Scope -->
<g id="node9" class="node">
<title>http://ns.imfid.org/imf#Scope</title>
<polygon fill="none" stroke="black" points="1130.5,-109 1076.5,-109 1076.5,-73 1130.5,-73 1130.5,-109"/>
<text text-anchor="middle" x="1103.5" y="-89.1" font-family="Arial" font-size="8.00">imf:Scope</text>
</g>
<!-- http://ns.imfid.org/imf#operating&#45;&gt;http://ns.imfid.org/imf#Scope -->
<g id="edge17" class="edge">
<title>http://ns.imfid.org/imf#operating&#45;&gt;http://ns.imfid.org/imf#Scope</title>
<path fill="none" stroke="black" stroke-dasharray="1,5" d="M1103.5,-36.19C1103.5,-44.21 1103.5,-53.95 1103.5,-62.93"/>
<polygon fill="black" stroke="black" points="1100,-62.97 1103.5,-72.97 1107,-62.97 1100,-62.97"/>
</g>
<!-- http://ns.imfid.org/imf#calculated -->
<g id="node2" class="node">
<title>http://ns.imfid.org/imf#calculated</title>
<polygon fill="none" stroke="black" points="812,-36 747,-36 747,0 812,0 812,-36"/>
<text text-anchor="middle" x="779.5" y="-16.1" font-family="Arial" font-size="8.00">imf:calculated</text>
</g>
<!-- http://ns.imfid.org/imf#Provenance -->
<g id="node14" class="node">
<title>http://ns.imfid.org/imf#Provenance</title>
<polygon fill="none" stroke="black" points="817.5,-109 745.5,-109 745.5,-73 817.5,-73 817.5,-109"/>
<text text-anchor="middle" x="781.5" y="-89.1" font-family="Arial" font-size="8.00">imf:Provenance</text>
</g>
<!-- http://ns.imfid.org/imf#calculated&#45;&gt;http://ns.imfid.org/imf#Provenance -->
<g id="edge10" class="edge">
<title>http://ns.imfid.org/imf#calculated&#45;&gt;http://ns.imfid.org/imf#Provenance</title>
<path fill="none" stroke="black" stroke-dasharray="1,5" d="M779.98,-36.19C780.21,-44.21 780.48,-53.95 780.74,-62.93"/>
<polygon fill="black" stroke="black" points="777.24,-63.07 781.02,-72.97 784.24,-62.88 777.24,-63.07"/>
</g>
<!-- http://ns.imfid.org/imf#nominal -->
<g id="node3" class="node">
<title>http://ns.imfid.org/imf#nominal</title>
<polygon fill="none" stroke="black" points="646,-36 589,-36 589,0 646,0 646,-36"/>
<text text-anchor="middle" x="617.5" y="-16.1" font-family="Arial" font-size="8.00">imf:nominal</text>
</g>
<!-- http://ns.imfid.org/imf#Range -->
<g id="node23" class="node">
<title>http://ns.imfid.org/imf#Range</title>
<polygon fill="none" stroke="black" points="566.5,-109 512.5,-109 512.5,-73 566.5,-73 566.5,-109"/>
<text text-anchor="middle" x="539.5" y="-89.1" font-family="Arial" font-size="8.00">imf:Range</text>
</g>
<!-- http://ns.imfid.org/imf#nominal&#45;&gt;http://ns.imfid.org/imf#Range -->
<g id="edge11" class="edge">
<title>http://ns.imfid.org/imf#nominal&#45;&gt;http://ns.imfid.org/imf#Range</title>
<path fill="none" stroke="black" stroke-dasharray="1,5" d="M598.62,-36.19C588.75,-45.17 576.52,-56.31 565.74,-66.11"/>
<polygon fill="black" stroke="black" points="563.25,-63.65 558.21,-72.97 567.96,-68.83 563.25,-63.65"/>
</g>
<!-- a61336eb&#45;910a&#45;4666&#45;a0d9&#45;1331bbb6b9c6 -->
<g id="node4" class="node">
<title>a61336eb&#45;910a&#45;4666&#45;a0d9&#45;1331bbb6b9c6</title>
<polygon fill="#e5e5e5" stroke="black" stroke-dasharray="5,2" points="361.5,-185 187.5,-185 187.5,-159 361.5,-159 361.5,-185"/>
<text text-anchor="middle" x="274.5" y="-174.6" font-family="Arial" font-size="8.00">owl:Restriction</text>
<text text-anchor="middle" x="274.5" y="-165.6" font-family="Arial" font-size="8.00">,a61336eb&#45;910a&#45;4666&#45;a0d9&#45;1331bbb6b9c6</text>
</g>
<!-- http://ns.imfid.org/imf#design -->
<g id="node5" class="node">
<title>http://ns.imfid.org/imf#design</title>
<polygon fill="none" stroke="black" points="1207.5,-36 1153.5,-36 1153.5,0 1207.5,0 1207.5,-36"/>
<text text-anchor="middle" x="1180.5" y="-16.1" font-family="Arial" font-size="8.00">imf:design</text>
</g>
<!-- http://ns.imfid.org/imf#design&#45;&gt;http://ns.imfid.org/imf#Scope -->
<g id="edge4" class="edge">
<title>http://ns.imfid.org/imf#design&#45;&gt;http://ns.imfid.org/imf#Scope</title>
<path fill="none" stroke="black" stroke-dasharray="1,5" d="M1161.86,-36.19C1152.12,-45.17 1140.04,-56.31 1129.4,-66.11"/>
<polygon fill="black" stroke="black" points="1126.95,-63.62 1121.97,-72.97 1131.69,-68.77 1126.95,-63.62"/>
</g>
<!-- ae3dbaf4&#45;cf7f&#45;4db0&#45;a9af&#45;1f477bc04eda -->
<g id="node6" class="node">
<title>ae3dbaf4&#45;cf7f&#45;4db0&#45;a9af&#45;1f477bc04eda</title>
<polygon fill="#e5e5e5" stroke="black" stroke-dasharray="5,2" points="541.5,-185 379.5,-185 379.5,-159 541.5,-159 541.5,-185"/>
<text text-anchor="middle" x="460.5" y="-174.6" font-family="Arial" font-size="8.00">owl:Restriction</text>
<text text-anchor="middle" x="460.5" y="-165.6" font-family="Arial" font-size="8.00">,ae3dbaf4&#45;cf7f&#45;4db0&#45;a9af&#45;1f477bc04eda</text>
</g>
<!-- http://ns.imfid.org/imf#specified -->
<g id="node7" class="node">
<title>http://ns.imfid.org/imf#specified</title>
<polygon fill="none" stroke="black" points="890.5,-36 830.5,-36 830.5,0 890.5,0 890.5,-36"/>
<text text-anchor="middle" x="860.5" y="-16.1" font-family="Arial" font-size="8.00">imf:specified</text>
</g>
<!-- http://ns.imfid.org/imf#specified&#45;&gt;http://ns.imfid.org/imf#Provenance -->
<g id="edge13" class="edge">
<title>http://ns.imfid.org/imf#specified&#45;&gt;http://ns.imfid.org/imf#Provenance</title>
<path fill="none" stroke="black" stroke-dasharray="1,5" d="M841.38,-36.19C831.38,-45.17 818.99,-56.31 808.08,-66.11"/>
<polygon fill="black" stroke="black" points="805.55,-63.68 800.45,-72.97 810.22,-68.89 805.55,-63.68"/>
</g>
<!-- http://ns.imfid.org/imf#AttributeGroup -->
<g id="node8" class="node">
<title>http://ns.imfid.org/imf#AttributeGroup</title>
<polygon fill="none" stroke="black" points="1307.5,-36 1225.5,-36 1225.5,0 1307.5,0 1307.5,-36"/>
<text text-anchor="middle" x="1266.5" y="-16.1" font-family="Arial" font-size="8.00">imf:AttributeGroup</text>
</g>
<!-- http://ns.imfid.org/imf#AttributeQualifier -->
<g id="node15" class="node">
<title>http://ns.imfid.org/imf#AttributeQualifier</title>
<polygon fill="none" stroke="black" points="836,-190 747,-190 747,-154 836,-154 836,-190"/>
<text text-anchor="middle" x="791.5" y="-170.1" font-family="Arial" font-size="8.00">imf:AttributeQualifier</text>
</g>
<!-- http://ns.imfid.org/imf#Scope&#45;&gt;http://ns.imfid.org/imf#AttributeQualifier -->
<g id="edge15" class="edge">
<title>http://ns.imfid.org/imf#Scope&#45;&gt;http://ns.imfid.org/imf#AttributeQualifier</title>
<path fill="none" stroke="black" d="M1076.36,-98.87C1025.17,-111.83 913.48,-140.12 846.16,-157.16"/>
<polygon fill="none" stroke="black" points="844.99,-153.84 836.16,-159.69 846.71,-160.63 844.99,-153.84"/>
</g>
<!-- http://ns.imfid.org/imf#maximum -->
<g id="node10" class="node">
<title>http://ns.imfid.org/imf#maximum</title>
<polygon fill="none" stroke="black" points="341.5,-36 277.5,-36 277.5,0 341.5,0 341.5,-36"/>
<text text-anchor="middle" x="309.5" y="-16.1" font-family="Arial" font-size="8.00">imf:maximum</text>
</g>
<!-- http://ns.imfid.org/imf#maximum&#45;&gt;http://ns.imfid.org/imf#Range -->
<g id="edge7" class="edge">
<title>http://ns.imfid.org/imf#maximum&#45;&gt;http://ns.imfid.org/imf#Range</title>
<path fill="none" stroke="black" stroke-dasharray="1,5" d="M341.56,-32.82C344.56,-33.95 347.57,-35.03 350.5,-36 414.88,-57.27 434.12,-51.73 498.5,-73 499.92,-73.47 501.36,-73.96 502.8,-74.48"/>
<polygon fill="black" stroke="black" points="501.77,-77.83 512.37,-78.09 504.25,-71.28 501.77,-77.83"/>
</g>
<!-- http://ns.imfid.org/imf#minimum -->
<g id="node11" class="node">
<title>http://ns.imfid.org/imf#minimum</title>
<polygon fill="none" stroke="black" points="421.5,-36 359.5,-36 359.5,0 421.5,0 421.5,-36"/>
<text text-anchor="middle" x="390.5" y="-16.1" font-family="Arial" font-size="8.00">imf:minimum</text>
</g>
<!-- http://ns.imfid.org/imf#minimum&#45;&gt;http://ns.imfid.org/imf#Range -->
<g id="edge5" class="edge">
<title>http://ns.imfid.org/imf#minimum&#45;&gt;http://ns.imfid.org/imf#Range</title>
<path fill="none" stroke="black" stroke-dasharray="1,5" d="M421.74,-33.88C445.5,-45.21 478.24,-60.81 503.17,-72.69"/>
<polygon fill="black" stroke="black" points="501.77,-75.9 512.31,-77.04 504.79,-69.58 501.77,-75.9"/>
</g>
<!-- http://ns.imfid.org/imf#Attribute -->
<g id="node12" class="node">
<title>http://ns.imfid.org/imf#Attribute</title>
<polygon fill="none" stroke="black" points="490,-109 431,-109 431,-73 490,-73 490,-109"/>
<text text-anchor="middle" x="460.5" y="-89.1" font-family="Arial" font-size="8.00">imf:Attribute</text>
</g>
<!-- http://ns.imfid.org/imf#Attribute&#45;&gt;a61336eb&#45;910a&#45;4666&#45;a0d9&#45;1331bbb6b9c6 -->
<g id="edge14" class="edge">
<title>http://ns.imfid.org/imf#Attribute&#45;&gt;a61336eb&#45;910a&#45;4666&#45;a0d9&#45;1331bbb6b9c6</title>
<path fill="none" stroke="black" d="M430.62,-104.69C398.42,-118.37 347.12,-140.16 312.18,-155"/>
<polygon fill="none" stroke="black" points="310.62,-151.86 302.79,-158.99 313.36,-158.3 310.62,-151.86"/>
</g>
<!-- http://ns.imfid.org/imf#Attribute&#45;&gt;ae3dbaf4&#45;cf7f&#45;4db0&#45;a9af&#45;1f477bc04eda -->
<g id="edge19" class="edge">
<title>http://ns.imfid.org/imf#Attribute&#45;&gt;ae3dbaf4&#45;cf7f&#45;4db0&#45;a9af&#45;1f477bc04eda</title>
<path fill="none" stroke="black" d="M460.5,-109.14C460.5,-120.65 460.5,-135.94 460.5,-148.44"/>
<polygon fill="none" stroke="black" points="457,-148.54 460.5,-158.54 464,-148.54 457,-148.54"/>
</g>
<!-- http://ns.imfid.org/imf#Attribute&#45;&gt;http://ns.imfid.org/imf#AttributeQualifier -->
<g id="edge9" class="edge">
<title>http://ns.imfid.org/imf#Attribute&#45;&gt;http://ns.imfid.org/imf#AttributeQualifier</title>
<path fill="none" stroke="black" d="M490.32,-104.62C494.7,-106.22 499.18,-107.74 503.5,-109 602.11,-137.7 632.96,-128.66 736.87,-154.02"/>
<polygon fill="black" stroke="black" points="736.27,-157.48 746.82,-156.5 737.97,-150.69 736.27,-157.48"/>
<text text-anchor="middle" x="661" y="-129.6" font-family="Arial" font-size="8.00">imf:qualifier</text>
</g>
<!-- 56822605&#45;16cb&#45;48f0&#45;b44a&#45;4c0af621d474 -->
<g id="node17" class="node">
<title>56822605&#45;16cb&#45;48f0&#45;b44a&#45;4c0af621d474</title>
<polygon fill="#e5e5e5" stroke="black" stroke-dasharray="5,2" points="729,-185 560,-185 560,-159 729,-159 729,-185"/>
<text text-anchor="middle" x="644.5" y="-174.6" font-family="Arial" font-size="8.00">owl:Restriction</text>
<text text-anchor="middle" x="644.5" y="-165.6" font-family="Arial" font-size="8.00">,56822605&#45;16cb&#45;48f0&#45;b44a&#45;4c0af621d474</text>
</g>
<!-- http://ns.imfid.org/imf#Attribute&#45;&gt;56822605&#45;16cb&#45;48f0&#45;b44a&#45;4c0af621d474 -->
<g id="edge3" class="edge">
<title>http://ns.imfid.org/imf#Attribute&#45;&gt;56822605&#45;16cb&#45;48f0&#45;b44a&#45;4c0af621d474</title>
<path fill="none" stroke="black" d="M490.06,-104.69C521.91,-118.37 572.67,-140.16 607.23,-155"/>
<polygon fill="none" stroke="black" points="605.95,-158.26 616.52,-158.99 608.71,-151.82 605.95,-158.26"/>
</g>
<!-- d113e17e&#45;ccdb&#45;4745&#45;9ae8&#45;625cf073eaec -->
<g id="node20" class="node">
<title>d113e17e&#45;ccdb&#45;4745&#45;9ae8&#45;625cf073eaec</title>
<polygon fill="#e5e5e5" stroke="black" stroke-dasharray="5,2" points="169,-185 0,-185 0,-159 169,-159 169,-185"/>
<text text-anchor="middle" x="84.5" y="-174.6" font-family="Arial" font-size="8.00">owl:Restriction</text>
<text text-anchor="middle" x="84.5" y="-165.6" font-family="Arial" font-size="8.00">,d113e17e&#45;ccdb&#45;4745&#45;9ae8&#45;625cf073eaec</text>
</g>
<!-- http://ns.imfid.org/imf#Attribute&#45;&gt;d113e17e&#45;ccdb&#45;4745&#45;9ae8&#45;625cf073eaec -->
<g id="edge6" class="edge">
<title>http://ns.imfid.org/imf#Attribute&#45;&gt;d113e17e&#45;ccdb&#45;4745&#45;9ae8&#45;625cf073eaec</title>
<path fill="none" stroke="black" d="M431,-98.2C371.19,-110.76 234.35,-139.52 151.65,-156.89"/>
<polygon fill="none" stroke="black" points="150.91,-153.47 141.84,-158.95 152.35,-160.32 150.91,-153.47"/>
</g>
<!-- http://ns.imfid.org/imf#absolute -->
<g id="node13" class="node">
<title>http://ns.imfid.org/imf#absolute</title>
<polygon fill="none" stroke="black" points="1054,-36 995,-36 995,0 1054,0 1054,-36"/>
<text text-anchor="middle" x="1024.5" y="-16.1" font-family="Arial" font-size="8.00">imf:absolute</text>
</g>
<!-- http://ns.imfid.org/imf#Regularity -->
<g id="node18" class="node">
<title>http://ns.imfid.org/imf#Regularity</title>
<polygon fill="none" stroke="black" points="975,-109 910,-109 910,-73 975,-73 975,-109"/>
<text text-anchor="middle" x="942.5" y="-89.1" font-family="Arial" font-size="8.00">imf:Regularity</text>
</g>
<!-- http://ns.imfid.org/imf#absolute&#45;&gt;http://ns.imfid.org/imf#Regularity -->
<g id="edge8" class="edge">
<title>http://ns.imfid.org/imf#absolute&#45;&gt;http://ns.imfid.org/imf#Regularity</title>
<path fill="none" stroke="black" stroke-dasharray="1,5" d="M1004.65,-36.19C994.17,-45.26 981.16,-56.52 969.76,-66.4"/>
<polygon fill="black" stroke="black" points="967.44,-63.78 962.17,-72.97 972.02,-69.07 967.44,-63.78"/>
</g>
<!-- http://ns.imfid.org/imf#Provenance&#45;&gt;http://ns.imfid.org/imf#AttributeQualifier -->
<g id="edge21" class="edge">
<title>http://ns.imfid.org/imf#Provenance&#45;&gt;http://ns.imfid.org/imf#AttributeQualifier</title>
<path fill="none" stroke="black" d="M783.67,-109.14C784.95,-119.29 786.61,-132.37 788.07,-143.88"/>
<polygon fill="none" stroke="black" points="784.61,-144.41 789.33,-153.89 791.55,-143.53 784.61,-144.41"/>
</g>
<!-- http://ns.imfid.org/imf#measured -->
<g id="node16" class="node">
<title>http://ns.imfid.org/imf#measured</title>
<polygon fill="none" stroke="black" points="729,-36 664,-36 664,0 729,0 729,-36"/>
<text text-anchor="middle" x="696.5" y="-16.1" font-family="Arial" font-size="8.00">imf:measured</text>
</g>
<!-- http://ns.imfid.org/imf#measured&#45;&gt;http://ns.imfid.org/imf#Provenance -->
<g id="edge12" class="edge">
<title>http://ns.imfid.org/imf#measured&#45;&gt;http://ns.imfid.org/imf#Provenance</title>
<path fill="none" stroke="black" stroke-dasharray="1,5" d="M717.08,-36.19C727.93,-45.26 741.42,-56.52 753.25,-66.4"/>
<polygon fill="black" stroke="black" points="751.19,-69.25 761.11,-72.97 755.68,-63.87 751.19,-69.25"/>
</g>
<!-- http://ns.imfid.org/imf#Regularity&#45;&gt;http://ns.imfid.org/imf#AttributeQualifier -->
<g id="edge16" class="edge">
<title>http://ns.imfid.org/imf#Regularity&#45;&gt;http://ns.imfid.org/imf#AttributeQualifier</title>
<path fill="none" stroke="black" d="M909.74,-109.14C887.28,-120.89 857.3,-136.58 833.14,-149.21"/>
<polygon fill="none" stroke="black" points="831.44,-146.15 824.2,-153.89 834.68,-152.36 831.44,-146.15"/>
</g>
<!-- http://ns.imfid.org/imf#normal -->
<g id="node19" class="node">
<title>http://ns.imfid.org/imf#normal</title>
<polygon fill="none" stroke="black" points="493.5,-36 439.5,-36 439.5,0 493.5,0 493.5,-36"/>
<text text-anchor="middle" x="466.5" y="-16.1" font-family="Arial" font-size="8.00">imf:normal</text>
</g>
<!-- http://ns.imfid.org/imf#normal&#45;&gt;http://ns.imfid.org/imf#Range -->
<g id="edge1" class="edge">
<title>http://ns.imfid.org/imf#normal&#45;&gt;http://ns.imfid.org/imf#Range</title>
<path fill="none" stroke="black" stroke-dasharray="1,5" d="M484.17,-36.19C493.32,-45.08 504.64,-56.09 514.65,-65.83"/>
<polygon fill="black" stroke="black" points="512.38,-68.51 521.99,-72.97 517.26,-63.49 512.38,-68.51"/>
</g>
<!-- http://ns.imfid.org/imf#average -->
<g id="node21" class="node">
<title>http://ns.imfid.org/imf#average</title>
<polygon fill="none" stroke="black" points="571,-36 512,-36 512,0 571,0 571,-36"/>
<text text-anchor="middle" x="541.5" y="-16.1" font-family="Arial" font-size="8.00">imf:average</text>
</g>
<!-- http://ns.imfid.org/imf#average&#45;&gt;http://ns.imfid.org/imf#Range -->
<g id="edge18" class="edge">
<title>http://ns.imfid.org/imf#average&#45;&gt;http://ns.imfid.org/imf#Range</title>
<path fill="none" stroke="black" stroke-dasharray="1,5" d="M541.02,-36.19C540.79,-44.21 540.52,-53.95 540.26,-62.93"/>
<polygon fill="black" stroke="black" points="536.76,-62.88 539.98,-72.97 543.76,-63.07 536.76,-62.88"/>
</g>
<!-- http://ns.imfid.org/imf#continuous -->
<g id="node22" class="node">
<title>http://ns.imfid.org/imf#continuous</title>
<polygon fill="none" stroke="black" points="976.5,-36 908.5,-36 908.5,0 976.5,0 976.5,-36"/>
<text text-anchor="middle" x="942.5" y="-16.1" font-family="Arial" font-size="8.00">imf:continuous</text>
</g>
<!-- http://ns.imfid.org/imf#continuous&#45;&gt;http://ns.imfid.org/imf#Regularity -->
<g id="edge2" class="edge">
<title>http://ns.imfid.org/imf#continuous&#45;&gt;http://ns.imfid.org/imf#Regularity</title>
<path fill="none" stroke="black" stroke-dasharray="1,5" d="M942.5,-36.19C942.5,-44.21 942.5,-53.95 942.5,-62.93"/>
<polygon fill="black" stroke="black" points="939,-62.97 942.5,-72.97 946,-62.97 939,-62.97"/>
</g>
<!-- http://ns.imfid.org/imf#Range&#45;&gt;http://ns.imfid.org/imf#AttributeQualifier -->
<g id="edge20" class="edge">
<title>http://ns.imfid.org/imf#Range&#45;&gt;http://ns.imfid.org/imf#AttributeQualifier</title>
<path fill="none" stroke="black" d="M566.52,-93.21C604.52,-95.74 675.3,-103.46 730.5,-127 742.51,-132.12 754.45,-139.96 764.53,-147.6"/>
<polygon fill="none" stroke="black" points="762.51,-150.47 772.53,-153.92 766.85,-144.97 762.51,-150.47"/>
</g>
</g>
</svg>

