<?xml version="1.0" encoding="UTF-8" standalone="no"?>
<!DOCTYPE svg PUBLIC "-//W3C//DTD SVG 1.1//EN"
 "http://www.w3.org/Graphics/SVG/1.1/DTD/svg11.dtd">
<!-- Generated by graphviz version 2.43.0 (0)
 -->
<!-- Title: urn:temp#graph Pages: 1 -->
<svg width="1331px" height="271px"
 viewBox="0.00 0.00 1331.00 271.00" xmlns="http://www.w3.org/2000/svg" xmlns:xlink="http://www.w3.org/1999/xlink">
<g id="graph0" class="graph" transform="scale(1.0 1.0) rotate(0) translate(4 267)">
<title>urn:temp#graph</title>
<polygon fill="white" stroke="transparent" points="-4,4 -4,-267 1327,-267 1327,4 -4,4"/>
<!-- http://ns.imfid.org/imf#FunctionAspect -->
<g id="node1" class="node">
<title>http://ns.imfid.org/imf#FunctionAspect</title>
<polygon fill="none" stroke="black" points="183.5,-182 99.5,-182 99.5,-146 183.5,-146 183.5,-182"/>
<text text-anchor="middle" x="141.5" y="-162.1" font-family="Arial" font-size="8.00">imf:FunctionAspect</text>
</g>
<!-- http://ns.imfid.org/imf#Aspect -->
<g id="node4" class="node">
<title>http://ns.imfid.org/imf#Aspect</title>
<polygon fill="none" stroke="black" points="270.5,-263 216.5,-263 216.5,-227 270.5,-227 270.5,-263"/>
<text text-anchor="middle" x="243.5" y="-243.1" font-family="Arial" font-size="8.00">imf:Aspect</text>
</g>
<!-- http://ns.imfid.org/imf#FunctionAspect&#45;&gt;http://ns.imfid.org/imf#Aspect -->
<g id="edge28" class="edge">
<title>http://ns.imfid.org/imf#FunctionAspect&#45;&gt;http://ns.imfid.org/imf#Aspect</title>
<path fill="none" stroke="black" stroke-dasharray="1,5" d="M163.63,-182.14C178.2,-193.43 197.46,-208.34 213.41,-220.7"/>
<polygon fill="black" stroke="black" points="211.36,-223.54 221.41,-226.89 215.65,-218 211.36,-223.54"/>
</g>
<!-- http://ns.imfid.org/imf#InstalledAspect -->
<g id="node2" class="node">
<title>http://ns.imfid.org/imf#InstalledAspect</title>
<polygon fill="none" stroke="black" points="285,-182 202,-182 202,-146 285,-146 285,-182"/>
<text text-anchor="middle" x="243.5" y="-162.1" font-family="Arial" font-size="8.00">imf:InstalledAspect</text>
</g>
<!-- http://ns.imfid.org/imf#InstalledAspect&#45;&gt;http://ns.imfid.org/imf#Aspect -->
<g id="edge6" class="edge">
<title>http://ns.imfid.org/imf#InstalledAspect&#45;&gt;http://ns.imfid.org/imf#Aspect</title>
<path fill="none" stroke="black" stroke-dasharray="1,5" d="M243.5,-182.14C243.5,-192.29 243.5,-205.37 243.5,-216.88"/>
<polygon fill="black" stroke="black" points="240,-216.89 243.5,-226.89 247,-216.89 240,-216.89"/>
</g>
<!-- http://ns.imfid.org/imf#FunctionTerminal -->
<g id="node3" class="node">
<title>http://ns.imfid.org/imf#FunctionTerminal</title>
<polygon fill="none" stroke="black" points="1014.5,-36 924.5,-36 924.5,0 1014.5,0 1014.5,-36"/>
<text text-anchor="middle" x="969.5" y="-16.1" font-family="Arial" font-size="8.00">imf:FunctionTerminal</text>
</g>
<!-- http://ns.imfid.org/imf#Terminal -->
<g id="node6" class="node">
<title>http://ns.imfid.org/imf#Terminal</title>
<polygon fill="none" stroke="black" points="1107,-109 1048,-109 1048,-73 1107,-73 1107,-109"/>
<text text-anchor="middle" x="1077.5" y="-89.1" font-family="Arial" font-size="8.00">imf:Terminal</text>
</g>
<!-- http://ns.imfid.org/imf#FunctionTerminal&#45;&gt;http://ns.imfid.org/imf#Terminal -->
<g id="edge15" class="edge">
<title>http://ns.imfid.org/imf#FunctionTerminal&#45;&gt;http://ns.imfid.org/imf#Terminal</title>
<path fill="none" stroke="black" d="M995.37,-36.01C1009.56,-45.33 1027.34,-57.03 1042.73,-67.14"/>
<polygon fill="none" stroke="black" points="1041.19,-70.32 1051.47,-72.89 1045.03,-64.47 1041.19,-70.32"/>
</g>
<!-- http://ns.imfid.org/imf#FunctionElement -->
<g id="node13" class="node">
<title>http://ns.imfid.org/imf#FunctionElement</title>
<polygon fill="none" stroke="black" points="811,-109 722,-109 722,-73 811,-73 811,-109"/>
<text text-anchor="middle" x="766.5" y="-89.1" font-family="Arial" font-size="8.00">imf:FunctionElement</text>
</g>
<!-- http://ns.imfid.org/imf#FunctionTerminal&#45;&gt;http://ns.imfid.org/imf#FunctionElement -->
<g id="edge19" class="edge">
<title>http://ns.imfid.org/imf#FunctionTerminal&#45;&gt;http://ns.imfid.org/imf#FunctionElement</title>
<path fill="none" stroke="black" d="M924.45,-34.76C893.86,-45.46 853.23,-59.67 820.84,-70.99"/>
<polygon fill="none" stroke="black" points="819.36,-67.8 811.08,-74.41 821.67,-74.41 819.36,-67.8"/>
</g>
<!-- 0d29f3f1&#45;acf0&#45;4a0c&#45;a87f&#45;338344580854 -->
<g id="node5" class="node">
<title>0d29f3f1&#45;acf0&#45;4a0c&#45;a87f&#45;338344580854</title>
<polygon fill="#e5e5e5" stroke="black" stroke-dasharray="5,2" points="1137.5,-177 973.5,-177 973.5,-151 1137.5,-151 1137.5,-177"/>
<text text-anchor="middle" x="1055.5" y="-166.6" font-family="Arial" font-size="8.00">owl:Restriction</text>
<text text-anchor="middle" x="1055.5" y="-157.6" font-family="Arial" font-size="8.00">,0d29f3f1&#45;acf0&#45;4a0c&#45;a87f&#45;338344580854</text>
</g>
<!-- http://ns.imfid.org/imf#ProductBlock -->
<g id="node7" class="node">
<title>http://ns.imfid.org/imf#ProductBlock</title>
<polygon fill="none" stroke="black" points="511.5,-36 435.5,-36 435.5,0 511.5,0 511.5,-36"/>
<text text-anchor="middle" x="473.5" y="-16.1" font-family="Arial" font-size="8.00">imf:ProductBlock</text>
</g>
<!-- http://ns.imfid.org/imf#Block -->
<g id="node12" class="node">
<title>http://ns.imfid.org/imf#Block</title>
<polygon fill="none" stroke="black" points="596.5,-109 542.5,-109 542.5,-73 596.5,-73 596.5,-109"/>
<text text-anchor="middle" x="569.5" y="-89.1" font-family="Arial" font-size="8.00">imf:Block</text>
</g>
<!-- http://ns.imfid.org/imf#ProductBlock&#45;&gt;http://ns.imfid.org/imf#Block -->
<g id="edge4" class="edge">
<title>http://ns.imfid.org/imf#ProductBlock&#45;&gt;http://ns.imfid.org/imf#Block</title>
<path fill="none" stroke="black" d="M494.85,-36.09C502.55,-42.15 511.35,-48.97 519.5,-55 524.81,-58.93 530.5,-63.02 536.07,-66.97"/>
<polygon fill="none" stroke="black" points="534.45,-70.11 544.65,-72.99 538.47,-64.38 534.45,-70.11"/>
</g>
<!-- http://ns.imfid.org/imf#ProductElement -->
<g id="node22" class="node">
<title>http://ns.imfid.org/imf#ProductElement</title>
<polygon fill="none" stroke="black" points="700.5,-109 614.5,-109 614.5,-73 700.5,-73 700.5,-109"/>
<text text-anchor="middle" x="657.5" y="-89.1" font-family="Arial" font-size="8.00">imf:ProductElement</text>
</g>
<!-- http://ns.imfid.org/imf#ProductBlock&#45;&gt;http://ns.imfid.org/imf#ProductElement -->
<g id="edge10" class="edge">
<title>http://ns.imfid.org/imf#ProductBlock&#45;&gt;http://ns.imfid.org/imf#ProductElement</title>
<path fill="none" stroke="black" d="M511.62,-33.71C538.6,-44.12 575.12,-58.21 604.87,-69.69"/>
<polygon fill="none" stroke="black" points="603.68,-72.98 614.27,-73.32 606.2,-66.45 603.68,-72.98"/>
</g>
<!-- http://ns.imfid.org/imf#InstalledElement -->
<g id="node8" class="node">
<title>http://ns.imfid.org/imf#InstalledElement</title>
<polygon fill="none" stroke="black" points="921.5,-109 833.5,-109 833.5,-73 921.5,-73 921.5,-109"/>
<text text-anchor="middle" x="877.5" y="-89.1" font-family="Arial" font-size="8.00">imf:InstalledElement</text>
</g>
<!-- http://ns.imfid.org/imf#InstalledElement&#45;&gt;0d29f3f1&#45;acf0&#45;4a0c&#45;a87f&#45;338344580854 -->
<g id="edge8" class="edge">
<title>http://ns.imfid.org/imf#InstalledElement&#45;&gt;0d29f3f1&#45;acf0&#45;4a0c&#45;a87f&#45;338344580854</title>
<path fill="none" stroke="black" d="M920.14,-109.01C949.12,-120.57 987.2,-135.76 1015.58,-147.08"/>
<polygon fill="none" stroke="black" points="1014.61,-150.46 1025.19,-150.91 1017.2,-143.95 1014.61,-150.46"/>
</g>
<!-- http://ns.imfid.org/imf#AspectElement -->
<g id="node18" class="node">
<title>http://ns.imfid.org/imf#AspectElement</title>
<polygon fill="none" stroke="black" points="855,-182 772,-182 772,-146 855,-146 855,-182"/>
<text text-anchor="middle" x="813.5" y="-162.1" font-family="Arial" font-size="8.00">imf:AspectElement</text>
</g>
<!-- http://ns.imfid.org/imf#InstalledElement&#45;&gt;http://ns.imfid.org/imf#AspectElement -->
<g id="edge23" class="edge">
<title>http://ns.imfid.org/imf#InstalledElement&#45;&gt;http://ns.imfid.org/imf#AspectElement</title>
<path fill="none" stroke="black" d="M862.01,-109.19C854.07,-118 844.26,-128.87 835.55,-138.54"/>
<polygon fill="none" stroke="black" points="832.95,-136.2 828.85,-145.97 838.15,-140.89 832.95,-136.2"/>
</g>
<!-- http://ns.imfid.org/imf#FunctionBlock -->
<g id="node9" class="node">
<title>http://ns.imfid.org/imf#FunctionBlock</title>
<polygon fill="none" stroke="black" points="609,-36 530,-36 530,0 609,0 609,-36"/>
<text text-anchor="middle" x="569.5" y="-16.1" font-family="Arial" font-size="8.00">imf:FunctionBlock</text>
</g>
<!-- http://ns.imfid.org/imf#FunctionBlock&#45;&gt;http://ns.imfid.org/imf#Block -->
<g id="edge2" class="edge">
<title>http://ns.imfid.org/imf#FunctionBlock&#45;&gt;http://ns.imfid.org/imf#Block</title>
<path fill="none" stroke="black" d="M569.5,-36.19C569.5,-44.21 569.5,-53.95 569.5,-62.93"/>
<polygon fill="none" stroke="black" points="566,-62.97 569.5,-72.97 573,-62.97 566,-62.97"/>
</g>
<!-- http://ns.imfid.org/imf#FunctionBlock&#45;&gt;http://ns.imfid.org/imf#FunctionElement -->
<g id="edge21" class="edge">
<title>http://ns.imfid.org/imf#FunctionBlock&#45;&gt;http://ns.imfid.org/imf#FunctionElement</title>
<path fill="none" stroke="black" d="M609.37,-33.37C638.91,-44.02 679.53,-58.66 712.07,-70.38"/>
<polygon fill="none" stroke="black" points="711.29,-73.82 721.88,-73.92 713.66,-67.24 711.29,-73.82"/>
</g>
<!-- http://ns.imfid.org/imf#LocationTerminal -->
<g id="node10" class="node">
<title>http://ns.imfid.org/imf#LocationTerminal</title>
<polygon fill="none" stroke="black" points="1229,-36 1140,-36 1140,0 1229,0 1229,-36"/>
<text text-anchor="middle" x="1184.5" y="-16.1" font-family="Arial" font-size="8.00">imf:LocationTerminal</text>
</g>
<!-- http://ns.imfid.org/imf#LocationTerminal&#45;&gt;http://ns.imfid.org/imf#Terminal -->
<g id="edge26" class="edge">
<title>http://ns.imfid.org/imf#LocationTerminal&#45;&gt;http://ns.imfid.org/imf#Terminal</title>
<path fill="none" stroke="black" d="M1167.38,-36.14C1160.58,-42.48 1152.48,-49.46 1144.5,-55 1135.68,-61.13 1125.65,-66.91 1116.09,-71.95"/>
<polygon fill="none" stroke="black" points="1114.43,-68.87 1107.12,-76.54 1117.61,-75.1 1114.43,-68.87"/>
</g>
<!-- http://ns.imfid.org/imf#LocationElement -->
<g id="node23" class="node">
<title>http://ns.imfid.org/imf#LocationElement</title>
<polygon fill="none" stroke="black" points="1030,-109 941,-109 941,-73 1030,-73 1030,-109"/>
<text text-anchor="middle" x="985.5" y="-89.1" font-family="Arial" font-size="8.00">imf:LocationElement</text>
</g>
<!-- http://ns.imfid.org/imf#LocationTerminal&#45;&gt;http://ns.imfid.org/imf#LocationElement -->
<g id="edge18" class="edge">
<title>http://ns.imfid.org/imf#LocationTerminal&#45;&gt;http://ns.imfid.org/imf#LocationElement</title>
<path fill="none" stroke="black" d="M1139.84,-34.93C1110.14,-45.53 1070.96,-59.51 1039.5,-70.73"/>
<polygon fill="none" stroke="black" points="1038.25,-67.46 1030.01,-74.12 1040.61,-74.06 1038.25,-67.46"/>
</g>
<!-- http://ns.imfid.org/imf#LocationAspect -->
<g id="node11" class="node">
<title>http://ns.imfid.org/imf#LocationAspect</title>
<polygon fill="none" stroke="black" points="754,-182 671,-182 671,-146 754,-146 754,-182"/>
<text text-anchor="middle" x="712.5" y="-162.1" font-family="Arial" font-size="8.00">imf:LocationAspect</text>
</g>
<!-- http://ns.imfid.org/imf#LocationAspect&#45;&gt;http://ns.imfid.org/imf#Aspect -->
<g id="edge24" class="edge">
<title>http://ns.imfid.org/imf#LocationAspect&#45;&gt;http://ns.imfid.org/imf#Aspect</title>
<path fill="none" stroke="black" stroke-dasharray="1,5" d="M670.92,-179.52C667.75,-180.42 664.59,-181.26 661.5,-182 523.1,-215.06 354.47,-233.62 280.86,-240.67"/>
<polygon fill="black" stroke="black" points="280.34,-237.2 270.71,-241.62 280.99,-244.17 280.34,-237.2"/>
</g>
<!-- c34a9bc1&#45;c847&#45;4df2&#45;9888&#45;2417f50bd814 -->
<g id="node17" class="node">
<title>c34a9bc1&#45;c847&#45;4df2&#45;9888&#45;2417f50bd814</title>
<polygon fill="#e5e5e5" stroke="black" stroke-dasharray="5,2" points="652.5,-177 484.5,-177 484.5,-151 652.5,-151 652.5,-177"/>
<text text-anchor="middle" x="568.5" y="-166.6" font-family="Arial" font-size="8.00">owl:Restriction</text>
<text text-anchor="middle" x="568.5" y="-157.6" font-family="Arial" font-size="8.00">,c34a9bc1&#45;c847&#45;4df2&#45;9888&#45;2417f50bd814</text>
</g>
<!-- http://ns.imfid.org/imf#FunctionElement&#45;&gt;c34a9bc1&#45;c847&#45;4df2&#45;9888&#45;2417f50bd814 -->
<g id="edge27" class="edge">
<title>http://ns.imfid.org/imf#FunctionElement&#45;&gt;c34a9bc1&#45;c847&#45;4df2&#45;9888&#45;2417f50bd814</title>
<path fill="none" stroke="black" d="M721.57,-108.11C688.69,-119.9 644.33,-135.81 611.83,-147.46"/>
<polygon fill="none" stroke="black" points="610.38,-144.26 602.15,-150.93 612.74,-150.85 610.38,-144.26"/>
</g>
<!-- http://ns.imfid.org/imf#FunctionElement&#45;&gt;http://ns.imfid.org/imf#AspectElement -->
<g id="edge25" class="edge">
<title>http://ns.imfid.org/imf#FunctionElement&#45;&gt;http://ns.imfid.org/imf#AspectElement</title>
<path fill="none" stroke="black" d="M777.88,-109.19C783.48,-117.65 790.34,-128.02 796.55,-137.39"/>
<polygon fill="none" stroke="black" points="793.79,-139.56 802.23,-145.97 799.63,-135.7 793.79,-139.56"/>
</g>
<!-- http://ns.imfid.org/imf#LocationBlock -->
<g id="node14" class="node">
<title>http://ns.imfid.org/imf#LocationBlock</title>
<polygon fill="none" stroke="black" points="800.5,-36 722.5,-36 722.5,0 800.5,0 800.5,-36"/>
<text text-anchor="middle" x="761.5" y="-16.1" font-family="Arial" font-size="8.00">imf:LocationBlock</text>
</g>
<!-- http://ns.imfid.org/imf#LocationBlock&#45;&gt;http://ns.imfid.org/imf#Block -->
<g id="edge13" class="edge">
<title>http://ns.imfid.org/imf#LocationBlock&#45;&gt;http://ns.imfid.org/imf#Block</title>
<path fill="none" stroke="black" d="M722.45,-32.55C719.09,-33.72 715.73,-34.88 712.5,-36 667.74,-51.5 653.72,-53.78 606.17,-72.92"/>
<polygon fill="none" stroke="black" points="604.82,-69.69 596.88,-76.7 607.46,-76.17 604.82,-69.69"/>
</g>
<!-- http://ns.imfid.org/imf#LocationBlock&#45;&gt;http://ns.imfid.org/imf#LocationElement -->
<g id="edge29" class="edge">
<title>http://ns.imfid.org/imf#LocationBlock&#45;&gt;http://ns.imfid.org/imf#LocationElement</title>
<path fill="none" stroke="black" d="M800.74,-33.06C803.7,-34.07 806.65,-35.06 809.5,-36 862.91,-53.61 876.75,-56.47 930.5,-73 930.71,-73.06 930.92,-73.13 931.13,-73.19"/>
<polygon fill="none" stroke="black" points="930.19,-76.57 940.78,-76.16 932.25,-69.88 930.19,-76.57"/>
</g>
<!-- http://ns.imfid.org/imf#ProductAspect -->
<g id="node15" class="node">
<title>http://ns.imfid.org/imf#ProductAspect</title>
<polygon fill="none" stroke="black" points="81,-182 0,-182 0,-146 81,-146 81,-182"/>
<text text-anchor="middle" x="40.5" y="-162.1" font-family="Arial" font-size="8.00">imf:ProductAspect</text>
</g>
<!-- http://ns.imfid.org/imf#ProductAspect&#45;&gt;http://ns.imfid.org/imf#Aspect -->
<g id="edge5" class="edge">
<title>http://ns.imfid.org/imf#ProductAspect&#45;&gt;http://ns.imfid.org/imf#Aspect</title>
<path fill="none" stroke="black" stroke-dasharray="1,5" d="M81.09,-180.8C117.79,-195.08 171.35,-215.92 206.79,-229.71"/>
<polygon fill="black" stroke="black" points="205.69,-233.04 216.28,-233.41 208.23,-226.52 205.69,-233.04"/>
</g>
<!-- 1cf27462&#45;51f4&#45;40b2&#45;96a2&#45;ee2ada2d38f2 -->
<g id="node16" class="node">
<title>1cf27462&#45;51f4&#45;40b2&#45;96a2&#45;ee2ada2d38f2</title>
<polygon fill="#e5e5e5" stroke="black" stroke-dasharray="5,2" points="1323,-177 1156,-177 1156,-151 1323,-151 1323,-177"/>
<text text-anchor="middle" x="1239.5" y="-166.6" font-family="Arial" font-size="8.00">owl:Restriction</text>
<text text-anchor="middle" x="1239.5" y="-157.6" font-family="Arial" font-size="8.00">,1cf27462&#45;51f4&#45;40b2&#45;96a2&#45;ee2ada2d38f2</text>
</g>
<!-- http://ns.imfid.org/imf#AspectElement&#45;&gt;http://ns.imfid.org/imf#Aspect -->
<g id="edge20" class="edge">
<title>http://ns.imfid.org/imf#AspectElement&#45;&gt;http://ns.imfid.org/imf#Aspect</title>
<path fill="none" stroke="black" d="M771.93,-179.55C768.76,-180.45 765.59,-181.28 762.5,-182 585.02,-223.56 366.52,-238.07 280.65,-242.39"/>
<polygon fill="black" stroke="black" points="280.42,-238.9 270.61,-242.88 280.76,-245.89 280.42,-238.9"/>
<text text-anchor="middle" x="690.5" y="-202.6" font-family="Arial" font-size="8.00">imf:hasAspect</text>
</g>
<!-- http://ns.imfid.org/imf#AspectElement&#45;&gt;http://ns.imfid.org/imf#AspectElement -->
<g id="edge12" class="edge">
<title>http://ns.imfid.org/imf#AspectElement&#45;&gt;http://ns.imfid.org/imf#AspectElement</title>
<path fill="none" stroke="black" d="M855.21,-157.36C865.41,-157.85 873,-160.06 873,-164 873,-166.46 870.03,-168.25 865.32,-169.36"/>
<polygon fill="black" stroke="black" points="864.69,-165.92 855.21,-170.64 865.57,-172.86 864.69,-165.92"/>
<text text-anchor="middle" x="914" y="-162.1" font-family="Arial" font-size="8.00">imf:interAspectRelation</text>
</g>
<!-- 4a07c5f1&#45;834b&#45;412d&#45;b0c2&#45;3e263e5b4a96 -->
<g id="node25" class="node">
<title>4a07c5f1&#45;834b&#45;412d&#45;b0c2&#45;3e263e5b4a96</title>
<polygon fill="#e5e5e5" stroke="black" stroke-dasharray="5,2" points="899,-258 728,-258 728,-232 899,-232 899,-258"/>
<text text-anchor="middle" x="813.5" y="-247.6" font-family="Arial" font-size="8.00">owl:Restriction</text>
<text text-anchor="middle" x="813.5" y="-238.6" font-family="Arial" font-size="8.00">,4a07c5f1&#45;834b&#45;412d&#45;b0c2&#45;3e263e5b4a96</text>
</g>
<!-- http://ns.imfid.org/imf#AspectElement&#45;&gt;4a07c5f1&#45;834b&#45;412d&#45;b0c2&#45;3e263e5b4a96 -->
<g id="edge9" class="edge">
<title>http://ns.imfid.org/imf#AspectElement&#45;&gt;4a07c5f1&#45;834b&#45;412d&#45;b0c2&#45;3e263e5b4a96</title>
<path fill="none" stroke="black" d="M813.5,-182.14C813.5,-193.65 813.5,-208.94 813.5,-221.44"/>
<polygon fill="none" stroke="black" points="810,-221.54 813.5,-231.54 817,-221.54 810,-221.54"/>
</g>
<!-- http://ns.imfid.org/imf#InstalledBlock -->
<g id="node19" class="node">
<title>http://ns.imfid.org/imf#InstalledBlock</title>
<polygon fill="none" stroke="black" points="704,-36 627,-36 627,0 704,0 704,-36"/>
<text text-anchor="middle" x="665.5" y="-16.1" font-family="Arial" font-size="8.00">imf:InstalledBlock</text>
</g>
<!-- http://ns.imfid.org/imf#InstalledBlock&#45;&gt;http://ns.imfid.org/imf#InstalledElement -->
<g id="edge14" class="edge">
<title>http://ns.imfid.org/imf#InstalledBlock&#45;&gt;http://ns.imfid.org/imf#InstalledElement</title>
<path fill="none" stroke="black" d="M704.25,-32.81C707.37,-33.9 710.49,-34.97 713.5,-36 750.13,-48.52 791.54,-62.15 823.58,-72.58"/>
<polygon fill="none" stroke="black" points="822.62,-75.95 833.21,-75.71 824.78,-69.29 822.62,-75.95"/>
</g>
<!-- http://ns.imfid.org/imf#InstalledBlock&#45;&gt;http://ns.imfid.org/imf#Block -->
<g id="edge7" class="edge">
<title>http://ns.imfid.org/imf#InstalledBlock&#45;&gt;http://ns.imfid.org/imf#Block</title>
<path fill="none" stroke="black" d="M642.26,-36.19C629.76,-45.43 614.18,-56.96 600.64,-66.97"/>
<polygon fill="none" stroke="black" points="598.48,-64.21 592.52,-72.97 602.65,-69.84 598.48,-64.21"/>
</g>
<!-- 5f5f1b6d&#45;3105&#45;4943&#45;89df&#45;f80c3d5fe328 -->
<g id="node20" class="node">
<title>5f5f1b6d&#45;3105&#45;4943&#45;89df&#45;f80c3d5fe328</title>
<polygon fill="#e5e5e5" stroke="black" stroke-dasharray="5,2" points="466,-177 303,-177 303,-151 466,-151 466,-177"/>
<text text-anchor="middle" x="384.5" y="-166.6" font-family="Arial" font-size="8.00">owl:Restriction</text>
<text text-anchor="middle" x="384.5" y="-157.6" font-family="Arial" font-size="8.00">,5f5f1b6d&#45;3105&#45;4943&#45;89df&#45;f80c3d5fe328</text>
</g>
<!-- http://ns.imfid.org/imf#ProductTerminal -->
<g id="node21" class="node">
<title>http://ns.imfid.org/imf#ProductTerminal</title>
<polygon fill="none" stroke="black" points="906,-36 819,-36 819,0 906,0 906,-36"/>
<text text-anchor="middle" x="862.5" y="-16.1" font-family="Arial" font-size="8.00">imf:ProductTerminal</text>
</g>
<!-- http://ns.imfid.org/imf#ProductTerminal&#45;&gt;http://ns.imfid.org/imf#Terminal -->
<g id="edge17" class="edge">
<title>http://ns.imfid.org/imf#ProductTerminal&#45;&gt;http://ns.imfid.org/imf#Terminal</title>
<path fill="none" stroke="black" d="M906.15,-33.08C909.31,-34.07 912.45,-35.06 915.5,-36 967.54,-52.11 983.87,-52.95 1038.32,-72.77"/>
<polygon fill="none" stroke="black" points="1037.19,-76.08 1047.78,-76.26 1039.61,-69.52 1037.19,-76.08"/>
</g>
<!-- http://ns.imfid.org/imf#ProductTerminal&#45;&gt;http://ns.imfid.org/imf#ProductElement -->
<g id="edge1" class="edge">
<title>http://ns.imfid.org/imf#ProductTerminal&#45;&gt;http://ns.imfid.org/imf#ProductElement</title>
<path fill="none" stroke="black" d="M818.77,-34.14C787.09,-45.12 744.1,-60.01 710.47,-71.65"/>
<polygon fill="none" stroke="black" points="709.11,-68.42 700.81,-75 711.4,-75.04 709.11,-68.42"/>
</g>
<!-- http://ns.imfid.org/imf#ProductElement&#45;&gt;http://ns.imfid.org/imf#AspectElement -->
<g id="edge31" class="edge">
<title>http://ns.imfid.org/imf#ProductElement&#45;&gt;http://ns.imfid.org/imf#AspectElement</title>
<path fill="none" stroke="black" d="M694.87,-109.01C716.41,-118.81 743.7,-131.23 766.68,-141.69"/>
<polygon fill="none" stroke="black" points="765.35,-144.93 775.9,-145.89 768.25,-138.56 765.35,-144.93"/>
</g>
<!-- http://ns.imfid.org/imf#ProductElement&#45;&gt;5f5f1b6d&#45;3105&#45;4943&#45;89df&#45;f80c3d5fe328 -->
<g id="edge11" class="edge">
<title>http://ns.imfid.org/imf#ProductElement&#45;&gt;5f5f1b6d&#45;3105&#45;4943&#45;89df&#45;f80c3d5fe328</title>
<path fill="none" stroke="black" d="M614.45,-106.35C611.43,-107.28 608.42,-108.17 605.5,-109 553.06,-123.95 492.91,-138.48 448.61,-148.7"/>
<polygon fill="none" stroke="black" points="447.81,-145.29 438.84,-150.94 449.37,-152.11 447.81,-145.29"/>
</g>
<!-- http://ns.imfid.org/imf#LocationElement&#45;&gt;1cf27462&#45;51f4&#45;40b2&#45;96a2&#45;ee2ada2d38f2 -->
<g id="edge16" class="edge">
<title>http://ns.imfid.org/imf#LocationElement&#45;&gt;1cf27462&#45;51f4&#45;40b2&#45;96a2&#45;ee2ada2d38f2</title>
<path fill="none" stroke="black" d="M1030.25,-106.24C1033.37,-107.19 1036.48,-108.12 1039.5,-109 1087.71,-123.09 1142.85,-137.88 1183,-148.41"/>
<polygon fill="none" stroke="black" points="1182.31,-151.85 1192.87,-150.99 1184.09,-145.08 1182.31,-151.85"/>
</g>
<!-- http://ns.imfid.org/imf#LocationElement&#45;&gt;http://ns.imfid.org/imf#AspectElement -->
<g id="edge22" class="edge">
<title>http://ns.imfid.org/imf#LocationElement&#45;&gt;http://ns.imfid.org/imf#AspectElement</title>
<path fill="none" stroke="black" d="M944.3,-109.01C920.33,-118.9 889.92,-131.46 864.45,-141.97"/>
<polygon fill="none" stroke="black" points="862.87,-138.84 854.96,-145.89 865.54,-145.31 862.87,-138.84"/>
</g>
<!-- http://ns.imfid.org/imf#InstalledTerminal -->
<g id="node24" class="node">
<title>http://ns.imfid.org/imf#InstalledTerminal</title>
<polygon fill="none" stroke="black" points="1122,-36 1033,-36 1033,0 1122,0 1122,-36"/>
<text text-anchor="middle" x="1077.5" y="-16.1" font-family="Arial" font-size="8.00">imf:InstalledTerminal</text>
</g>
<!-- http://ns.imfid.org/imf#InstalledTerminal&#45;&gt;http://ns.imfid.org/imf#Terminal -->
<g id="edge30" class="edge">
<title>http://ns.imfid.org/imf#InstalledTerminal&#45;&gt;http://ns.imfid.org/imf#Terminal</title>
<path fill="none" stroke="black" d="M1077.5,-36.19C1077.5,-44.21 1077.5,-53.95 1077.5,-62.93"/>
<polygon fill="none" stroke="black" points="1074,-62.97 1077.5,-72.97 1081,-62.97 1074,-62.97"/>
</g>
<!-- http://ns.imfid.org/imf#InstalledTerminal&#45;&gt;http://ns.imfid.org/imf#InstalledElement -->
<g id="edge3" class="edge">
<title>http://ns.imfid.org/imf#InstalledTerminal&#45;&gt;http://ns.imfid.org/imf#InstalledElement</title>
<path fill="none" stroke="black" d="M1032.62,-34.93C1002.56,-45.6 962.84,-59.71 931.11,-70.97"/>
<polygon fill="none" stroke="black" points="929.8,-67.72 921.55,-74.36 932.14,-74.32 929.8,-67.72"/>
</g>
</g>
</svg>

