<?xml version="1.0" encoding="UTF-8" standalone="no"?>
<!DOCTYPE svg PUBLIC "-//W3C//DTD SVG 1.1//EN"
 "http://www.w3.org/Graphics/SVG/1.1/DTD/svg11.dtd">
<!-- Generated by graphviz version 2.43.0 (0)
 -->
<!-- Title: urn:temp#graph Pages: 1 -->
<svg width="1998px" height="271px"
 viewBox="0.00 0.00 1997.50 271.00" xmlns="http://www.w3.org/2000/svg" xmlns:xlink="http://www.w3.org/1999/xlink">
<g id="graph0" class="graph" transform="scale(1.0 1.0) rotate(0) translate(4 267)">
<title>urn:temp#graph</title>
<polygon fill="white" stroke="transparent" points="-4,4 -4,-267 1993.5,-267 1993.5,4 -4,4"/>
<!-- 90445732&#45;7358&#45;4c1a&#45;973e&#45;8cf644defe4c -->
<g id="node1" class="node">
<title>90445732&#45;7358&#45;4c1a&#45;973e&#45;8cf644defe4c</title>
<polygon fill="#e5e5e5" stroke="black" stroke-dasharray="5,2" points="294.5,-110 74.5,-110 74.5,-88 294.5,-88 294.5,-110"/>
<text text-anchor="middle" x="184.5" y="-97.1" font-family="Arial" font-size="8.00">90445732&#45;7358&#45;4c1a&#45;973e&#45;8cf644defe4c,owl:Restriction</text>
</g>
<!-- http://ns.imfid.org/imf#Element -->
<g id="node2" class="node">
<title>http://ns.imfid.org/imf#Element</title>
<polygon fill="none" stroke="black" points="214,-36 155,-36 155,0 214,0 214,-36"/>
<text text-anchor="middle" x="184.5" y="-16.1" font-family="Arial" font-size="8.00">imf:Element</text>
</g>
<!-- http://ns.imfid.org/imf#Element&#45;&gt;90445732&#45;7358&#45;4c1a&#45;973e&#45;8cf644defe4c -->
<g id="edge4" class="edge">
<title>http://ns.imfid.org/imf#Element&#45;&gt;90445732&#45;7358&#45;4c1a&#45;973e&#45;8cf644defe4c</title>
<path fill="none" stroke="black" d="M184.5,-36.14C184.5,-48.36 184.5,-64.82 184.5,-77.7"/>
<polygon fill="none" stroke="black" points="181,-77.89 184.5,-87.89 188,-77.89 181,-77.89"/>
</g>
<!-- eaff0909&#45;9bff&#45;4d14&#45;93a6&#45;d72d77b6cc87 -->
<g id="node3" class="node">
<title>eaff0909&#45;9bff&#45;4d14&#45;93a6&#45;d72d77b6cc87</title>
<polygon fill="#e5e5e5" stroke="black" stroke-dasharray="5,2" points="528.5,-110 312.5,-110 312.5,-88 528.5,-88 528.5,-110"/>
<text text-anchor="middle" x="420.5" y="-97.1" font-family="Arial" font-size="8.00">eaff0909&#45;9bff&#45;4d14&#45;93a6&#45;d72d77b6cc87,owl:Restriction</text>
</g>
<!-- http://ns.imfid.org/imf#Aspect -->
<g id="node4" class="node">
<title>http://ns.imfid.org/imf#Aspect</title>
<polygon fill="none" stroke="black" points="573.5,-36 519.5,-36 519.5,0 573.5,0 573.5,-36"/>
<text text-anchor="middle" x="546.5" y="-16.1" font-family="Arial" font-size="8.00">imf:Aspect</text>
</g>
<!-- http://ns.imfid.org/imf#Terminal -->
<g id="node5" class="node">
<title>http://ns.imfid.org/imf#Terminal</title>
<polygon fill="none" stroke="black" points="450,-36 391,-36 391,0 450,0 450,-36"/>
<text text-anchor="middle" x="420.5" y="-16.1" font-family="Arial" font-size="8.00">imf:Terminal</text>
</g>
<!-- http://ns.imfid.org/imf#Terminal&#45;&gt;eaff0909&#45;9bff&#45;4d14&#45;93a6&#45;d72d77b6cc87 -->
<g id="edge14" class="edge">
<title>http://ns.imfid.org/imf#Terminal&#45;&gt;eaff0909&#45;9bff&#45;4d14&#45;93a6&#45;d72d77b6cc87</title>
<path fill="none" stroke="black" d="M420.5,-36.14C420.5,-48.36 420.5,-64.82 420.5,-77.7"/>
<polygon fill="none" stroke="black" points="417,-77.89 420.5,-87.89 424,-77.89 417,-77.89"/>
</g>
<!-- 1c1ceabf&#45;3924&#45;45e4&#45;9843&#45;4ced51ede8a9 -->
<g id="node6" class="node">
<title>1c1ceabf&#45;3924&#45;45e4&#45;9843&#45;4ced51ede8a9</title>
<polygon fill="#e5e5e5" stroke="black" stroke-dasharray="5,2" points="434.5,-183 212.5,-183 212.5,-161 434.5,-161 434.5,-183"/>
<text text-anchor="middle" x="323.5" y="-170.1" font-family="Arial" font-size="8.00">1c1ceabf&#45;3924&#45;45e4&#45;9843&#45;4ced51ede8a9,owl:Restriction</text>
</g>
<!-- ae522889&#45;4496&#45;430a&#45;b8e5&#45;d020ca72c8bb -->
<g id="node7" class="node">
<title>ae522889&#45;4496&#45;430a&#45;b8e5&#45;d020ca72c8bb</title>
<polygon fill="#e5e5e5" stroke="black" stroke-dasharray="5,2" points="959,-110 734,-110 734,-88 959,-88 959,-110"/>
<text text-anchor="middle" x="846.5" y="-97.1" font-family="Arial" font-size="8.00">ae522889&#45;4496&#45;430a&#45;b8e5&#45;d020ca72c8bb,owl:Restriction</text>
</g>
<!-- http://ns.imfid.org/imf#TerminalType -->
<g id="node8" class="node">
<title>http://ns.imfid.org/imf#TerminalType</title>
<polygon fill="none" stroke="black" points="624,-117 547,-117 547,-81 624,-81 624,-117"/>
<text text-anchor="middle" x="585.5" y="-97.1" font-family="Arial" font-size="8.00">imf:TerminalType</text>
</g>
<!-- http://ns.imfid.org/imf#TerminalType&#45;&gt;1c1ceabf&#45;3924&#45;45e4&#45;9843&#45;4ced51ede8a9 -->
<g id="edge11" class="edge">
<title>http://ns.imfid.org/imf#TerminalType&#45;&gt;1c1ceabf&#45;3924&#45;45e4&#45;9843&#45;4ced51ede8a9</title>
<path fill="none" stroke="black" d="M546.83,-114.04C543.68,-115.08 540.55,-116.08 537.5,-117 483.91,-133.21 421.78,-148.51 378.31,-158.66"/>
<polygon fill="none" stroke="black" points="377.46,-155.26 368.51,-160.93 379.04,-162.08 377.46,-155.26"/>
</g>
<!-- f65ea34b&#45;ddcd&#45;437e&#45;a4fc&#45;5d7229f3cd4f -->
<g id="node9" class="node">
<title>f65ea34b&#45;ddcd&#45;437e&#45;a4fc&#45;5d7229f3cd4f</title>
<polygon fill="#e5e5e5" stroke="black" stroke-dasharray="5,2" points="668,-183 453,-183 453,-161 668,-161 668,-183"/>
<text text-anchor="middle" x="560.5" y="-170.1" font-family="Arial" font-size="8.00">f65ea34b&#45;ddcd&#45;437e&#45;a4fc&#45;5d7229f3cd4f,owl:Restriction</text>
</g>
<!-- http://ns.imfid.org/imf#TerminalType&#45;&gt;f65ea34b&#45;ddcd&#45;437e&#45;a4fc&#45;5d7229f3cd4f -->
<g id="edge16" class="edge">
<title>http://ns.imfid.org/imf#TerminalType&#45;&gt;f65ea34b&#45;ddcd&#45;437e&#45;a4fc&#45;5d7229f3cd4f</title>
<path fill="none" stroke="black" d="M579.45,-117.19C575.85,-127.41 571.27,-140.41 567.51,-151.08"/>
<polygon fill="none" stroke="black" points="564.12,-150.18 564.1,-160.78 570.72,-152.51 564.12,-150.18"/>
</g>
<!-- http://ns.imfid.org/imf#ElementType -->
<g id="node10" class="node">
<title>http://ns.imfid.org/imf#ElementType</title>
<polygon fill="none" stroke="black" points="762.5,-190 686.5,-190 686.5,-154 762.5,-154 762.5,-190"/>
<text text-anchor="middle" x="724.5" y="-170.1" font-family="Arial" font-size="8.00">imf:ElementType</text>
</g>
<!-- http://ns.imfid.org/imf#TerminalType&#45;&gt;http://ns.imfid.org/imf#ElementType -->
<g id="edge7" class="edge">
<title>http://ns.imfid.org/imf#TerminalType&#45;&gt;http://ns.imfid.org/imf#ElementType</title>
<path fill="none" stroke="black" d="M618.79,-117.01C637.74,-126.68 661.66,-138.9 681.96,-149.27"/>
<polygon fill="none" stroke="black" points="680.5,-152.45 691,-153.89 683.68,-146.22 680.5,-152.45"/>
</g>
<!-- a94500b2&#45;cbc8&#45;4756&#45;bf08&#45;052255a2251f -->
<g id="node15" class="node">
<title>a94500b2&#45;cbc8&#45;4756&#45;bf08&#45;052255a2251f</title>
<polygon fill="#e5e5e5" stroke="black" stroke-dasharray="5,2" points="596,-256 375,-256 375,-234 596,-234 596,-256"/>
<text text-anchor="middle" x="485.5" y="-243.1" font-family="Arial" font-size="8.00">a94500b2&#45;cbc8&#45;4756&#45;bf08&#45;052255a2251f,owl:Restriction</text>
</g>
<!-- http://ns.imfid.org/imf#ElementType&#45;&gt;a94500b2&#45;cbc8&#45;4756&#45;bf08&#45;052255a2251f -->
<g id="edge5" class="edge">
<title>http://ns.imfid.org/imf#ElementType&#45;&gt;a94500b2&#45;cbc8&#45;4756&#45;bf08&#45;052255a2251f</title>
<path fill="none" stroke="black" d="M686.32,-186.77C683.01,-187.89 679.7,-188.98 676.5,-190 628.27,-205.34 572.51,-220.85 533.74,-231.29"/>
<polygon fill="none" stroke="black" points="532.52,-227.99 523.77,-233.96 534.33,-234.76 532.52,-227.99"/>
</g>
<!-- 186ddfa1&#45;7ce8&#45;4163&#45;a0d1&#45;ef9106c88cb2 -->
<g id="node18" class="node">
<title>186ddfa1&#45;7ce8&#45;4163&#45;a0d1&#45;ef9106c88cb2</title>
<polygon fill="#e5e5e5" stroke="black" stroke-dasharray="5,2" points="834.5,-256 614.5,-256 614.5,-234 834.5,-234 834.5,-256"/>
<text text-anchor="middle" x="724.5" y="-243.1" font-family="Arial" font-size="8.00">186ddfa1&#45;7ce8&#45;4163&#45;a0d1&#45;ef9106c88cb2,owl:Restriction</text>
</g>
<!-- http://ns.imfid.org/imf#ElementType&#45;&gt;186ddfa1&#45;7ce8&#45;4163&#45;a0d1&#45;ef9106c88cb2 -->
<g id="edge2" class="edge">
<title>http://ns.imfid.org/imf#ElementType&#45;&gt;186ddfa1&#45;7ce8&#45;4163&#45;a0d1&#45;ef9106c88cb2</title>
<path fill="none" stroke="black" d="M724.5,-190.19C724.5,-200.3 724.5,-213.14 724.5,-223.75"/>
<polygon fill="none" stroke="black" points="721,-223.78 724.5,-233.78 728,-223.78 721,-223.78"/>
</g>
<!-- http://ns.imfid.org/imf#Type -->
<g id="node22" class="node">
<title>http://ns.imfid.org/imf#Type</title>
<polygon fill="none" stroke="black" points="182.5,-263 128.5,-263 128.5,-227 182.5,-227 182.5,-263"/>
<text text-anchor="middle" x="155.5" y="-243.1" font-family="Arial" font-size="8.00">imf:Type</text>
</g>
<!-- http://ns.imfid.org/imf#ElementType&#45;&gt;http://ns.imfid.org/imf#Type -->
<g id="edge17" class="edge">
<title>http://ns.imfid.org/imf#ElementType&#45;&gt;http://ns.imfid.org/imf#Type</title>
<path fill="none" stroke="black" d="M686.49,-187.38C683.14,-188.37 679.78,-189.26 676.5,-190 629.56,-200.59 304.05,-230.58 192.73,-240.66"/>
<polygon fill="none" stroke="black" points="192.29,-237.18 182.64,-241.57 192.92,-244.15 192.29,-237.18"/>
</g>
<!-- a2323c9f&#45;d0fe&#45;45b8&#45;a095&#45;efe39586fbf2 -->
<g id="node23" class="node">
<title>a2323c9f&#45;d0fe&#45;45b8&#45;a095&#45;efe39586fbf2</title>
<polygon fill="#e5e5e5" stroke="black" stroke-dasharray="5,2" points="1068,-256 853,-256 853,-234 1068,-234 1068,-256"/>
<text text-anchor="middle" x="960.5" y="-243.1" font-family="Arial" font-size="8.00">a2323c9f&#45;d0fe&#45;45b8&#45;a095&#45;efe39586fbf2,owl:Restriction</text>
</g>
<!-- http://ns.imfid.org/imf#ElementType&#45;&gt;a2323c9f&#45;d0fe&#45;45b8&#45;a095&#45;efe39586fbf2 -->
<g id="edge12" class="edge">
<title>http://ns.imfid.org/imf#ElementType&#45;&gt;a2323c9f&#45;d0fe&#45;45b8&#45;a095&#45;efe39586fbf2</title>
<path fill="none" stroke="black" d="M762.68,-184.49C805.01,-197.22 873.13,-217.72 917.36,-231.02"/>
<polygon fill="none" stroke="black" points="916.38,-234.38 926.96,-233.91 918.39,-227.68 916.38,-234.38"/>
</g>
<!-- http://ns.imfid.org/imf#AttributeGroup -->
<g id="node11" class="node">
<title>http://ns.imfid.org/imf#AttributeGroup</title>
<polygon fill="none" stroke="black" points="1130.5,-36 1048.5,-36 1048.5,0 1130.5,0 1130.5,-36"/>
<text text-anchor="middle" x="1089.5" y="-16.1" font-family="Arial" font-size="8.00">imf:AttributeGroup</text>
</g>
<!-- eba7eb0a&#45;8cc3&#45;46c1&#45;b2c0&#45;503e49e91308 -->
<g id="node21" class="node">
<title>eba7eb0a&#45;8cc3&#45;46c1&#45;b2c0&#45;503e49e91308</title>
<polygon fill="#e5e5e5" stroke="black" stroke-dasharray="5,2" points="1201.5,-110 977.5,-110 977.5,-88 1201.5,-88 1201.5,-110"/>
<text text-anchor="middle" x="1089.5" y="-97.1" font-family="Arial" font-size="8.00">eba7eb0a&#45;8cc3&#45;46c1&#45;b2c0&#45;503e49e91308,owl:Restriction</text>
</g>
<!-- http://ns.imfid.org/imf#AttributeGroup&#45;&gt;eba7eb0a&#45;8cc3&#45;46c1&#45;b2c0&#45;503e49e91308 -->
<g id="edge9" class="edge">
<title>http://ns.imfid.org/imf#AttributeGroup&#45;&gt;eba7eb0a&#45;8cc3&#45;46c1&#45;b2c0&#45;503e49e91308</title>
<path fill="none" stroke="black" d="M1089.5,-36.14C1089.5,-48.36 1089.5,-64.82 1089.5,-77.7"/>
<polygon fill="none" stroke="black" points="1086,-77.89 1089.5,-87.89 1093,-77.89 1086,-77.89"/>
</g>
<!-- 174d8958&#45;a687&#45;40db&#45;81f8&#45;86f60ab72372 -->
<g id="node12" class="node">
<title>174d8958&#45;a687&#45;40db&#45;81f8&#45;86f60ab72372</title>
<polygon fill="#e5e5e5" stroke="black" stroke-dasharray="5,2" points="1441.5,-110 1219.5,-110 1219.5,-88 1441.5,-88 1441.5,-110"/>
<text text-anchor="middle" x="1330.5" y="-97.1" font-family="Arial" font-size="8.00">174d8958&#45;a687&#45;40db&#45;81f8&#45;86f60ab72372,owl:Restriction</text>
</g>
<!-- http://ns.imfid.org/imf#Block -->
<g id="node13" class="node">
<title>http://ns.imfid.org/imf#Block</title>
<polygon fill="none" stroke="black" points="1837.5,-36 1783.5,-36 1783.5,0 1837.5,0 1837.5,-36"/>
<text text-anchor="middle" x="1810.5" y="-16.1" font-family="Arial" font-size="8.00">imf:Block</text>
</g>
<!-- c769a1a3&#45;df08&#45;4d3e&#45;990d&#45;fddb2d71cb12 -->
<g id="node25" class="node">
<title>c769a1a3&#45;df08&#45;4d3e&#45;990d&#45;fddb2d71cb12</title>
<polygon fill="#e5e5e5" stroke="black" stroke-dasharray="5,2" points="1921,-110 1700,-110 1700,-88 1921,-88 1921,-110"/>
<text text-anchor="middle" x="1810.5" y="-97.1" font-family="Arial" font-size="8.00">c769a1a3&#45;df08&#45;4d3e&#45;990d&#45;fddb2d71cb12,owl:Restriction</text>
</g>
<!-- http://ns.imfid.org/imf#Block&#45;&gt;c769a1a3&#45;df08&#45;4d3e&#45;990d&#45;fddb2d71cb12 -->
<g id="edge1" class="edge">
<title>http://ns.imfid.org/imf#Block&#45;&gt;c769a1a3&#45;df08&#45;4d3e&#45;990d&#45;fddb2d71cb12</title>
<path fill="none" stroke="black" d="M1810.5,-36.14C1810.5,-48.36 1810.5,-64.82 1810.5,-77.7"/>
<polygon fill="none" stroke="black" points="1807,-77.89 1810.5,-87.89 1814,-77.89 1807,-77.89"/>
</g>
<!-- http://ns.imfid.org/imf#AttributeGroupType -->
<g id="node14" class="node">
<title>http://ns.imfid.org/imf#AttributeGroupType</title>
<polygon fill="none" stroke="black" points="99,-190 0,-190 0,-154 99,-154 99,-190"/>
<text text-anchor="middle" x="49.5" y="-170.1" font-family="Arial" font-size="8.00">imf:AttributeGroupType</text>
</g>
<!-- http://ns.imfid.org/imf#AttributeGroupType&#45;&gt;http://ns.imfid.org/imf#Type -->
<g id="edge3" class="edge">
<title>http://ns.imfid.org/imf#AttributeGroupType&#45;&gt;http://ns.imfid.org/imf#Type</title>
<path fill="none" stroke="black" d="M74.89,-190.01C88.82,-199.33 106.27,-211.03 121.37,-221.14"/>
<polygon fill="none" stroke="black" points="119.69,-224.23 129.95,-226.89 123.59,-218.41 119.69,-224.23"/>
</g>
<!-- http://ns.imfid.org/imf#BlockType -->
<g id="node16" class="node">
<title>http://ns.imfid.org/imf#BlockType</title>
<polygon fill="none" stroke="black" points="707,-36 642,-36 642,0 707,0 707,-36"/>
<text text-anchor="middle" x="674.5" y="-16.1" font-family="Arial" font-size="8.00">imf:BlockType</text>
</g>
<!-- http://ns.imfid.org/imf#BlockType&#45;&gt;http://ns.imfid.org/imf#TerminalType -->
<g id="edge10" class="edge">
<title>http://ns.imfid.org/imf#BlockType&#45;&gt;http://ns.imfid.org/imf#TerminalType</title>
<path fill="none" stroke="black" d="M642.53,-36.16C634.26,-41.33 625.68,-47.41 618.5,-54 612.6,-59.42 607.03,-66.01 602.19,-72.42"/>
<polygon fill="black" stroke="black" points="599.08,-70.76 596.11,-80.93 604.77,-74.83 599.08,-70.76"/>
<text text-anchor="middle" x="655" y="-56.6" font-family="Arial" font-size="8.00">imf:hasTerminalType</text>
</g>
<!-- http://ns.imfid.org/imf#BlockType&#45;&gt;http://ns.imfid.org/imf#ElementType -->
<g id="edge13" class="edge">
<title>http://ns.imfid.org/imf#BlockType&#45;&gt;http://ns.imfid.org/imf#ElementType</title>
<path fill="none" stroke="black" d="M683.59,-36.18C686.35,-41.77 689.24,-48.07 691.5,-54 702.94,-84.07 712.46,-119.82 718.28,-143.81"/>
<polygon fill="none" stroke="black" points="714.9,-144.72 720.62,-153.64 721.71,-143.1 714.9,-144.72"/>
</g>
<!-- http://ns.imfid.org/imf#Attribute -->
<g id="node17" class="node">
<title>http://ns.imfid.org/imf#Attribute</title>
<polygon fill="none" stroke="black" points="876,-36 817,-36 817,0 876,0 876,-36"/>
<text text-anchor="middle" x="846.5" y="-16.1" font-family="Arial" font-size="8.00">imf:Attribute</text>
</g>
<!-- http://ns.imfid.org/imf#Attribute&#45;&gt;ae522889&#45;4496&#45;430a&#45;b8e5&#45;d020ca72c8bb -->
<g id="edge8" class="edge">
<title>http://ns.imfid.org/imf#Attribute&#45;&gt;ae522889&#45;4496&#45;430a&#45;b8e5&#45;d020ca72c8bb</title>
<path fill="none" stroke="black" d="M846.5,-36.14C846.5,-48.36 846.5,-64.82 846.5,-77.7"/>
<polygon fill="none" stroke="black" points="843,-77.89 846.5,-87.89 850,-77.89 843,-77.89"/>
</g>
<!-- http://ns.imfid.org/imf#Direction -->
<g id="node19" class="node">
<title>http://ns.imfid.org/imf#Direction</title>
<polygon fill="none" stroke="black" points="1917,-36 1856,-36 1856,0 1917,0 1917,-36"/>
<text text-anchor="middle" x="1886.5" y="-16.1" font-family="Arial" font-size="8.00">imf:Direction</text>
</g>
<!-- b730c8e3&#45;0332&#45;4668&#45;8f02&#45;de54c7ec513e -->
<g id="node20" class="node">
<title>b730c8e3&#45;0332&#45;4668&#45;8f02&#45;de54c7ec513e</title>
<polygon fill="#e5e5e5" stroke="black" stroke-dasharray="5,2" points="1681.5,-110 1459.5,-110 1459.5,-88 1681.5,-88 1681.5,-110"/>
<text text-anchor="middle" x="1570.5" y="-97.1" font-family="Arial" font-size="8.00">b730c8e3&#45;0332&#45;4668&#45;8f02&#45;de54c7ec513e,owl:Restriction</text>
</g>
<!-- http://ns.imfid.org/imf#TypeConstraint -->
<g id="node24" class="node">
<title>http://ns.imfid.org/imf#TypeConstraint</title>
<polygon fill="none" stroke="black" points="1492,-36 1409,-36 1409,0 1492,0 1492,-36"/>
<text text-anchor="middle" x="1450.5" y="-16.1" font-family="Arial" font-size="8.00">imf:TypeConstraint</text>
</g>
<!-- http://ns.imfid.org/imf#TypeConstraint&#45;&gt;174d8958&#45;a687&#45;40db&#45;81f8&#45;86f60ab72372 -->
<g id="edge18" class="edge">
<title>http://ns.imfid.org/imf#TypeConstraint&#45;&gt;174d8958&#45;a687&#45;40db&#45;81f8&#45;86f60ab72372</title>
<path fill="none" stroke="black" d="M1424.46,-36.14C1403.57,-49.9 1374.48,-69.05 1354.22,-82.38"/>
<polygon fill="none" stroke="black" points="1352.29,-79.46 1345.86,-87.89 1356.14,-85.31 1352.29,-79.46"/>
</g>
<!-- http://ns.imfid.org/imf#TypeConstraint&#45;&gt;b730c8e3&#45;0332&#45;4668&#45;8f02&#45;de54c7ec513e -->
<g id="edge6" class="edge">
<title>http://ns.imfid.org/imf#TypeConstraint&#45;&gt;b730c8e3&#45;0332&#45;4668&#45;8f02&#45;de54c7ec513e</title>
<path fill="none" stroke="black" d="M1476.54,-36.14C1497.43,-49.9 1526.52,-69.05 1546.78,-82.38"/>
<polygon fill="none" stroke="black" points="1544.86,-85.31 1555.14,-87.89 1548.71,-79.46 1544.86,-85.31"/>
</g>
<!-- http://www.w3.org/2002/07/owl#Thing -->
<g id="node26" class="node">
<title>http://www.w3.org/2002/07/owl#Thing</title>
<polygon fill="none" stroke="black" points="1989.5,-36 1935.5,-36 1935.5,0 1989.5,0 1989.5,-36"/>
<text text-anchor="middle" x="1962.5" y="-16.1" font-family="Arial" font-size="8.00">owl:Thing</text>
</g>
<!-- http://ns.imfid.org/imf#AttributeType -->
<g id="node27" class="node">
<title>http://ns.imfid.org/imf#AttributeType</title>
<polygon fill="none" stroke="black" points="194,-190 117,-190 117,-154 194,-154 194,-190"/>
<text text-anchor="middle" x="155.5" y="-170.1" font-family="Arial" font-size="8.00">imf:AttributeType</text>
</g>
<!-- http://ns.imfid.org/imf#AttributeType&#45;&gt;http://ns.imfid.org/imf#Type -->
<g id="edge15" class="edge">
<title>http://ns.imfid.org/imf#AttributeType&#45;&gt;http://ns.imfid.org/imf#Type</title>
<path fill="none" stroke="black" d="M155.5,-190.19C155.5,-198.21 155.5,-207.95 155.5,-216.93"/>
<polygon fill="none" stroke="black" points="152,-216.97 155.5,-226.97 159,-216.97 152,-216.97"/>
</g>
</g>
</svg>

