<?xml version="1.0" encoding="UTF-8" standalone="no"?>
<!DOCTYPE svg PUBLIC "-//W3C//DTD SVG 1.1//EN"
 "http://www.w3.org/Graphics/SVG/1.1/DTD/svg11.dtd">
<!-- Generated by graphviz version 2.43.0 (0)
 -->
<!-- Title: urn:temp#graph Pages: 1 -->
<svg width="709px" height="368px"
 viewBox="0.00 0.00 709.40 368.00" xmlns="http://www.w3.org/2000/svg" xmlns:xlink="http://www.w3.org/1999/xlink">
<g id="graph0" class="graph" transform="scale(1.0 1.0) rotate(0) translate(4 364)">
<title>urn:temp#graph</title>
<polygon fill="white" stroke="transparent" points="-4,4 -4,-364 705.4,-364 705.4,4 -4,4"/>
<!-- http://ns.imfid.org/imf#BreakdownPoint -->
<g id="node1" class="node">
<title>http://ns.imfid.org/imf#BreakdownPoint</title>
<polygon fill="none" stroke="black" points="109.4,-117 21.4,-117 21.4,-81 109.4,-81 109.4,-117"/>
<text text-anchor="middle" x="65.4" y="-97.1" font-family="Arial" font-size="8.00">imf:BreakdownPoint</text>
</g>
<!-- http://ns.imfid.org/imf#Element -->
<g id="node2" class="node">
<title>http://ns.imfid.org/imf#Element</title>
<polygon fill="none" stroke="black" points="181.9,-198 122.9,-198 122.9,-162 181.9,-162 181.9,-198"/>
<text text-anchor="middle" x="152.4" y="-178.1" font-family="Arial" font-size="8.00">imf:Element</text>
</g>
<!-- http://ns.imfid.org/imf#BreakdownPoint&#45;&gt;http://ns.imfid.org/imf#Element -->
<g id="edge2" class="edge">
<title>http://ns.imfid.org/imf#BreakdownPoint&#45;&gt;http://ns.imfid.org/imf#Element</title>
<path fill="none" stroke="black" d="M21.12,-114.51C5.53,-122.02 -6.02,-132.1 3.4,-144 16.81,-160.92 73.22,-170.46 112.64,-175.17"/>
<polygon fill="black" stroke="black" points="112.43,-178.67 122.76,-176.32 113.22,-171.72 112.43,-178.67"/>
<text text-anchor="middle" x="23.4" y="-137.6" font-family="Arial" font-size="8.00">imf:thePart</text>
</g>
<!-- http://ns.imfid.org/imf#BreakdownPoint&#45;&gt;http://ns.imfid.org/imf#Element -->
<g id="edge5" class="edge">
<title>http://ns.imfid.org/imf#BreakdownPoint&#45;&gt;http://ns.imfid.org/imf#Element</title>
<path fill="none" stroke="black" d="M61.59,-117.24C60.64,-125.97 61.11,-136.32 66.4,-144 77.03,-159.42 95.73,-168.05 112.98,-172.88"/>
<polygon fill="black" stroke="black" points="112.35,-176.33 122.9,-175.31 114.02,-169.53 112.35,-176.33"/>
<text text-anchor="middle" x="89.9" y="-137.6" font-family="Arial" font-size="8.00">imf:theWhole</text>
</g>
<!-- http://ns.imfid.org/imf#BreakdownPoint&#45;&gt;http://ns.imfid.org/imf#Element -->
<g id="edge18" class="edge">
<title>http://ns.imfid.org/imf#BreakdownPoint&#45;&gt;http://ns.imfid.org/imf#Element</title>
<path fill="none" stroke="black" d="M91.11,-117.19C98.56,-122.58 106.53,-128.76 113.4,-135 119.77,-140.79 126.18,-147.55 131.91,-154"/>
<polygon fill="none" stroke="black" points="129.56,-156.64 138.75,-161.92 134.86,-152.06 129.56,-156.64"/>
</g>
<!-- http://ns.imfid.org/imf#Element&#45;&gt;http://ns.imfid.org/imf#Element -->
<g id="edge7" class="edge">
<title>http://ns.imfid.org/imf#Element&#45;&gt;http://ns.imfid.org/imf#Element</title>
<path fill="none" stroke="black" d="M182.09,-177.5C191.99,-177.5 199.9,-178.33 199.9,-180 199.9,-181.02 196.96,-181.72 192.43,-182.12"/>
<polygon fill="black" stroke="black" points="191.95,-178.63 182.09,-182.5 192.21,-185.63 191.95,-178.63"/>
<text text-anchor="middle" x="240.9" y="-178.1" font-family="Arial" font-size="8.00">imf:intraAspectRelation</text>
</g>
<!-- http://ns.imfid.org/imf#Element&#45;&gt;http://ns.imfid.org/imf#Element -->
<g id="edge13" class="edge">
<title>http://ns.imfid.org/imf#Element&#45;&gt;http://ns.imfid.org/imf#Element</title>
<path fill="none" stroke="black" d="M182.16,-176.23C221.65,-173.76 281.9,-175.01 281.9,-180 281.9,-184.58 231.13,-186.01 192.25,-184.3"/>
<polygon fill="black" stroke="black" points="192.33,-180.8 182.16,-183.77 191.96,-187.79 192.33,-180.8"/>
<text text-anchor="middle" x="299.9" y="-178.1" font-family="Arial" font-size="8.00">imf:partOf</text>
</g>
<!-- http://ns.imfid.org/imf#Element&#45;&gt;http://ns.imfid.org/imf#Element -->
<g id="edge20" class="edge">
<title>http://ns.imfid.org/imf#Element&#45;&gt;http://ns.imfid.org/imf#Element</title>
<path fill="none" stroke="black" d="M181.98,-175.04C231.76,-170.44 317.9,-172.09 317.9,-180 317.9,-187.4 242.51,-189.32 192.03,-185.77"/>
<polygon fill="black" stroke="black" points="192.23,-182.28 181.98,-184.96 191.67,-189.25 192.23,-182.28"/>
<text text-anchor="middle" x="358.9" y="-178.1" font-family="Arial" font-size="8.00">imf:interAspectRelation</text>
</g>
<!-- http://ns.imfid.org/imf#Aspect -->
<g id="node4" class="node">
<title>http://ns.imfid.org/imf#Aspect</title>
<polygon fill="none" stroke="black" points="142.4,-279 88.4,-279 88.4,-243 142.4,-243 142.4,-279"/>
<text text-anchor="middle" x="115.4" y="-259.1" font-family="Arial" font-size="8.00">imf:Aspect</text>
</g>
<!-- http://ns.imfid.org/imf#Element&#45;&gt;http://ns.imfid.org/imf#Aspect -->
<g id="edge23" class="edge">
<title>http://ns.imfid.org/imf#Element&#45;&gt;http://ns.imfid.org/imf#Aspect</title>
<path fill="none" stroke="black" d="M133.72,-198.05C128.97,-203.34 124.38,-209.51 121.4,-216 119.09,-221.04 117.6,-226.72 116.66,-232.28"/>
<polygon fill="black" stroke="black" points="113.14,-232.3 115.45,-242.64 120.09,-233.11 113.14,-232.3"/>
<text text-anchor="middle" x="146.4" y="-218.6" font-family="Arial" font-size="8.00">imf:hasAspect</text>
</g>
<!-- http://ns.imfid.org/imf#Attribute -->
<g id="node9" class="node">
<title>http://ns.imfid.org/imf#Attribute</title>
<polygon fill="none" stroke="black" points="226.9,-279 167.9,-279 167.9,-243 226.9,-243 226.9,-279"/>
<text text-anchor="middle" x="197.4" y="-259.1" font-family="Arial" font-size="8.00">imf:Attribute</text>
</g>
<!-- http://ns.imfid.org/imf#Element&#45;&gt;http://ns.imfid.org/imf#Attribute -->
<g id="edge8" class="edge">
<title>http://ns.imfid.org/imf#Element&#45;&gt;http://ns.imfid.org/imf#Attribute</title>
<path fill="none" stroke="black" d="M162.17,-198.14C168.12,-208.6 175.85,-222.17 182.56,-233.94"/>
<polygon fill="black" stroke="black" points="179.67,-235.93 187.66,-242.89 185.75,-232.47 179.67,-235.93"/>
<text text-anchor="middle" x="203.4" y="-218.6" font-family="Arial" font-size="8.00">imf:hasAttribute</text>
</g>
<!-- http://ns.imfid.org/imf#TerminalQualifier -->
<g id="node3" class="node">
<title>http://ns.imfid.org/imf#TerminalQualifier</title>
<polygon fill="none" stroke="black" points="628.9,-198 539.9,-198 539.9,-162 628.9,-162 628.9,-198"/>
<text text-anchor="middle" x="584.4" y="-178.1" font-family="Arial" font-size="8.00">imf:TerminalQualifier</text>
</g>
<!-- http://www.w3.org/2001/XMLSchema#string -->
<g id="node16" class="node">
<title>http://www.w3.org/2001/XMLSchema#string</title>
<polygon fill="none" stroke="black" points="138.4,-360 84.4,-360 84.4,-324 138.4,-324 138.4,-360"/>
<text text-anchor="middle" x="111.4" y="-340.1" font-family="Arial" font-size="8.00">xsd:string</text>
</g>
<!-- http://ns.imfid.org/imf#Aspect&#45;&gt;http://www.w3.org/2001/XMLSchema#string -->
<g id="edge9" class="edge">
<title>http://ns.imfid.org/imf#Aspect&#45;&gt;http://www.w3.org/2001/XMLSchema#string</title>
<path fill="none" stroke="black" d="M114.53,-279.14C114.02,-289.29 113.36,-302.37 112.77,-313.88"/>
<polygon fill="black" stroke="black" points="109.28,-313.73 112.27,-323.89 116.27,-314.08 109.28,-313.73"/>
<text text-anchor="middle" x="129.9" y="-299.6" font-family="Arial" font-size="8.00">imf:prefix</text>
</g>
<!-- http://ns.imfid.org/imf#outputFlow -->
<g id="node5" class="node">
<title>http://ns.imfid.org/imf#outputFlow</title>
<polygon fill="none" stroke="black" points="618.9,-117 549.9,-117 549.9,-81 618.9,-81 618.9,-117"/>
<text text-anchor="middle" x="584.4" y="-97.1" font-family="Arial" font-size="8.00">imf:outputFlow</text>
</g>
<!-- http://ns.imfid.org/imf#outputFlow&#45;&gt;http://ns.imfid.org/imf#TerminalQualifier -->
<g id="edge14" class="edge">
<title>http://ns.imfid.org/imf#outputFlow&#45;&gt;http://ns.imfid.org/imf#TerminalQualifier</title>
<path fill="none" stroke="black" stroke-dasharray="1,5" d="M584.4,-117.14C584.4,-127.29 584.4,-140.37 584.4,-151.88"/>
<polygon fill="black" stroke="black" points="580.9,-151.89 584.4,-161.89 587.9,-151.89 580.9,-151.89"/>
</g>
<!-- http://ns.imfid.org/imf#Terminal -->
<g id="node6" class="node">
<title>http://ns.imfid.org/imf#Terminal</title>
<polygon fill="none" stroke="black" points="455.9,-117 396.9,-117 396.9,-81 455.9,-81 455.9,-117"/>
<text text-anchor="middle" x="426.4" y="-97.1" font-family="Arial" font-size="8.00">imf:Terminal</text>
</g>
<!-- http://ns.imfid.org/imf#Terminal&#45;&gt;http://ns.imfid.org/imf#Element -->
<g id="edge10" class="edge">
<title>http://ns.imfid.org/imf#Terminal&#45;&gt;http://ns.imfid.org/imf#Element</title>
<path fill="none" stroke="black" d="M402.17,-117.22C388,-126.5 369.4,-137.38 351.4,-144 298.25,-163.54 232.99,-172.36 192.04,-176.2"/>
<polygon fill="none" stroke="black" points="191.57,-172.73 181.92,-177.1 192.19,-179.7 191.57,-172.73"/>
</g>
<!-- http://ns.imfid.org/imf#Terminal&#45;&gt;http://ns.imfid.org/imf#TerminalQualifier -->
<g id="edge4" class="edge">
<title>http://ns.imfid.org/imf#Terminal&#45;&gt;http://ns.imfid.org/imf#TerminalQualifier</title>
<path fill="none" stroke="black" d="M450.63,-117.08C463.56,-125.77 479.96,-136.13 495.4,-144 506.38,-149.59 518.48,-154.89 530.12,-159.58"/>
<polygon fill="black" stroke="black" points="529.16,-162.97 539.75,-163.38 531.73,-156.46 529.16,-162.97"/>
<text text-anchor="middle" x="537.9" y="-137.6" font-family="Arial" font-size="8.00">imf:hasTerminalQualifier</text>
</g>
<!-- http://ns.imfid.org/imf#Terminal&#45;&gt;http://ns.imfid.org/imf#Terminal -->
<g id="edge16" class="edge">
<title>http://ns.imfid.org/imf#Terminal&#45;&gt;http://ns.imfid.org/imf#Terminal</title>
<path fill="none" stroke="black" d="M456.09,-91.5C465.99,-91.5 473.9,-94 473.9,-99 473.9,-102.12 470.81,-104.27 466.07,-105.45"/>
<polygon fill="black" stroke="black" points="465.67,-101.97 456.09,-106.5 466.4,-108.93 465.67,-101.97"/>
<text text-anchor="middle" x="502.9" y="-97.1" font-family="Arial" font-size="8.00">imf:connectedTo</text>
</g>
<!-- http://ns.imfid.org/imf#Block -->
<g id="node7" class="node">
<title>http://ns.imfid.org/imf#Block</title>
<polygon fill="none" stroke="black" points="199.4,-36 145.4,-36 145.4,0 199.4,0 199.4,-36"/>
<text text-anchor="middle" x="172.4" y="-16.1" font-family="Arial" font-size="8.00">imf:Block</text>
</g>
<!-- http://ns.imfid.org/imf#Block&#45;&gt;http://ns.imfid.org/imf#Element -->
<g id="edge21" class="edge">
<title>http://ns.imfid.org/imf#Block&#45;&gt;http://ns.imfid.org/imf#Element</title>
<path fill="none" stroke="black" d="M170.26,-36.12C166.81,-63.77 159.97,-118.46 155.83,-151.58"/>
<polygon fill="none" stroke="black" points="152.35,-151.16 154.59,-161.52 159.3,-152.03 152.35,-151.16"/>
</g>
<!-- http://ns.imfid.org/imf#Block&#45;&gt;http://ns.imfid.org/imf#Terminal -->
<g id="edge11" class="edge">
<title>http://ns.imfid.org/imf#Block&#45;&gt;http://ns.imfid.org/imf#Terminal</title>
<path fill="none" stroke="black" d="M199.44,-32.81C219.62,-42.58 248.13,-55.27 274.4,-63 321.08,-76.74 335.46,-68.16 382.4,-81 384.03,-81.45 385.68,-81.93 387.34,-82.44"/>
<polygon fill="black" stroke="black" points="386.26,-85.77 396.85,-85.64 388.49,-79.14 386.26,-85.77"/>
<text text-anchor="middle" x="302.4" y="-56.6" font-family="Arial" font-size="8.00">imf:hasTerminal</text>
</g>
<!-- http://ns.imfid.org/imf#Model -->
<g id="node8" class="node">
<title>http://ns.imfid.org/imf#Model</title>
<polygon fill="none" stroke="black" points="272.4,-117 218.4,-117 218.4,-81 272.4,-81 272.4,-117"/>
<text text-anchor="middle" x="245.4" y="-97.1" font-family="Arial" font-size="8.00">imf:Model</text>
</g>
<!-- http://ns.imfid.org/imf#Model&#45;&gt;http://ns.imfid.org/imf#Element -->
<g id="edge22" class="edge">
<title>http://ns.imfid.org/imf#Model&#45;&gt;http://ns.imfid.org/imf#Element</title>
<path fill="none" stroke="black" d="M231.05,-117.17C223.54,-125.69 213.93,-135.87 204.4,-144 199.51,-148.17 194.11,-152.28 188.7,-156.14"/>
<polygon fill="black" stroke="black" points="186.5,-153.4 180.24,-161.96 190.46,-159.17 186.5,-153.4"/>
<text text-anchor="middle" x="240.9" y="-137.6" font-family="Arial" font-size="8.00">imf:hasElement</text>
</g>
<!-- http://ns.imfid.org/imf#AttributeQualifier -->
<g id="node12" class="node">
<title>http://ns.imfid.org/imf#AttributeQualifier</title>
<polygon fill="none" stroke="black" points="245.9,-360 156.9,-360 156.9,-324 245.9,-324 245.9,-360"/>
<text text-anchor="middle" x="201.4" y="-340.1" font-family="Arial" font-size="8.00">imf:AttributeQualifier</text>
</g>
<!-- http://ns.imfid.org/imf#Attribute&#45;&gt;http://ns.imfid.org/imf#AttributeQualifier -->
<g id="edge3" class="edge">
<title>http://ns.imfid.org/imf#Attribute&#45;&gt;http://ns.imfid.org/imf#AttributeQualifier</title>
<path fill="none" stroke="black" d="M198.27,-279.14C198.78,-289.29 199.45,-302.37 200.03,-313.88"/>
<polygon fill="black" stroke="black" points="196.53,-314.08 200.54,-323.89 203.53,-313.73 196.53,-314.08"/>
<text text-anchor="middle" x="241.9" y="-299.6" font-family="Arial" font-size="8.00">imf:hasAttributeQualifier</text>
</g>
<!-- http://ns.imfid.org/imf#ConnectionPoint -->
<g id="node10" class="node">
<title>http://ns.imfid.org/imf#ConnectionPoint</title>
<polygon fill="none" stroke="black" points="312.4,-36 224.4,-36 224.4,0 312.4,0 312.4,-36"/>
<text text-anchor="middle" x="268.4" y="-16.1" font-family="Arial" font-size="8.00">imf:ConnectionPoint</text>
</g>
<!-- http://ns.imfid.org/imf#ConnectionPoint&#45;&gt;http://ns.imfid.org/imf#Element -->
<g id="edge17" class="edge">
<title>http://ns.imfid.org/imf#ConnectionPoint&#45;&gt;http://ns.imfid.org/imf#Element</title>
<path fill="none" stroke="black" d="M312.67,-26.47C354.47,-33.97 411.73,-45.59 418.4,-54 420.89,-57.13 420.97,-59.93 418.4,-63 389.44,-97.65 356.68,-57.05 318.4,-81 289.01,-99.39 300.78,-124.08 272.4,-144 248.7,-160.64 217.1,-169.44 192.28,-174.05"/>
<polygon fill="black" stroke="black" points="183.93,-180.55 182.25,-170.69 184.22,-170.35 185.9,-180.21 183.93,-180.55"/>
<polyline fill="none" stroke="black" points="182.1,-175.79 187.03,-174.95 "/>
<polygon fill="black" stroke="black" points="188.86,-179.71 187.18,-169.85 189.15,-169.51 190.83,-179.37 188.86,-179.71"/>
<polyline fill="none" stroke="black" points="187.03,-174.95 191.96,-174.11 "/>
<text text-anchor="middle" x="353.4" y="-97.1" font-family="Arial" font-size="8.00">imf:theConnected 2</text>
</g>
<!-- http://ns.imfid.org/imf#ConnectionPoint&#45;&gt;http://ns.imfid.org/imf#Element -->
<g id="edge19" class="edge">
<title>http://ns.imfid.org/imf#ConnectionPoint&#45;&gt;http://ns.imfid.org/imf#Element</title>
<path fill="none" stroke="black" d="M260.89,-36.36C256.46,-45.13 250.19,-55.48 242.4,-63 230.39,-74.61 221.38,-69.35 209.4,-81 203.6,-86.65 181.69,-125.54 166.79,-152.6"/>
<polygon fill="none" stroke="black" points="163.6,-151.15 161.85,-161.6 169.73,-154.52 163.6,-151.15"/>
</g>
<!-- http://ns.imfid.org/imf#ConnectionPoint&#45;&gt;http://ns.imfid.org/imf#Terminal -->
<g id="edge15" class="edge">
<title>http://ns.imfid.org/imf#ConnectionPoint&#45;&gt;http://ns.imfid.org/imf#Terminal</title>
<path fill="none" stroke="black" d="M299.32,-36.16C314.58,-44.49 333.34,-54.5 350.4,-63 362.3,-68.93 375.41,-75.09 387.34,-80.56"/>
<polygon fill="black" stroke="black" points="386.06,-83.82 396.61,-84.79 388.96,-77.45 386.06,-83.82"/>
<text text-anchor="middle" x="382.4" y="-56.6" font-family="Arial" font-size="8.00">imf:theConnected</text>
</g>
<!-- http://ns.imfid.org/imf#inputFlow -->
<g id="node11" class="node">
<title>http://ns.imfid.org/imf#inputFlow</title>
<polygon fill="none" stroke="black" points="701.4,-117 637.4,-117 637.4,-81 701.4,-81 701.4,-117"/>
<text text-anchor="middle" x="669.4" y="-97.1" font-family="Arial" font-size="8.00">imf:inputFlow</text>
</g>
<!-- http://ns.imfid.org/imf#inputFlow&#45;&gt;http://ns.imfid.org/imf#TerminalQualifier -->
<g id="edge12" class="edge">
<title>http://ns.imfid.org/imf#inputFlow&#45;&gt;http://ns.imfid.org/imf#TerminalQualifier</title>
<path fill="none" stroke="black" stroke-dasharray="1,5" d="M650.96,-117.14C639.04,-128.22 623.36,-142.79 610.21,-155.01"/>
<polygon fill="black" stroke="black" points="607.75,-152.52 602.81,-161.89 612.52,-157.65 607.75,-152.52"/>
</g>
<!-- http://ns.imfid.org/imf#InputTerminal -->
<g id="node13" class="node">
<title>http://ns.imfid.org/imf#InputTerminal</title>
<polygon fill="none" stroke="black" points="449.9,-36 372.9,-36 372.9,0 449.9,0 449.9,-36"/>
<text text-anchor="middle" x="411.4" y="-16.1" font-family="Arial" font-size="8.00">imf:InputTerminal</text>
</g>
<!-- http://ns.imfid.org/imf#InputTerminal&#45;&gt;http://ns.imfid.org/imf#Terminal -->
<g id="edge6" class="edge">
<title>http://ns.imfid.org/imf#InputTerminal&#45;&gt;http://ns.imfid.org/imf#Terminal</title>
<path fill="none" stroke="black" d="M414.66,-36.14C416.58,-46.29 419.07,-59.37 421.25,-70.88"/>
<polygon fill="none" stroke="black" points="417.85,-71.72 423.15,-80.89 424.73,-70.41 417.85,-71.72"/>
</g>
<!-- http://ns.imfid.org/imf#OutputTerminal -->
<g id="node14" class="node">
<title>http://ns.imfid.org/imf#OutputTerminal</title>
<polygon fill="none" stroke="black" points="550.9,-36 467.9,-36 467.9,0 550.9,0 550.9,-36"/>
<text text-anchor="middle" x="509.4" y="-16.1" font-family="Arial" font-size="8.00">imf:OutputTerminal</text>
</g>
<!-- http://ns.imfid.org/imf#OutputTerminal&#45;&gt;http://ns.imfid.org/imf#Terminal -->
<g id="edge1" class="edge">
<title>http://ns.imfid.org/imf#OutputTerminal&#45;&gt;http://ns.imfid.org/imf#Terminal</title>
<path fill="none" stroke="black" d="M497.42,-36.2C491.07,-44.72 482.86,-54.89 474.4,-63 470.31,-66.93 465.76,-70.78 461.14,-74.41"/>
<polygon fill="none" stroke="black" points="458.7,-71.87 452.82,-80.68 462.91,-77.46 458.7,-71.87"/>
</g>
<!-- http://ns.imfid.org/imf#AspectElement -->
<g id="node15" class="node">
<title>http://ns.imfid.org/imf#AspectElement</title>
<polygon fill="none" stroke="black" points="651.9,-36 568.9,-36 568.9,0 651.9,0 651.9,-36"/>
<text text-anchor="middle" x="610.4" y="-16.1" font-family="Arial" font-size="8.00">imf:AspectElement</text>
</g>
</g>
</svg>

