<?xml version="1.0" encoding="UTF-8" standalone="no"?>
<!DOCTYPE svg PUBLIC "-//W3C//DTD SVG 1.1//EN"
 "http://www.w3.org/Graphics/SVG/1.1/DTD/svg11.dtd">
<!-- Generated by graphviz version 2.43.0 (0)
 -->
<!-- Title: urn:temp#graph Pages: 1 -->
<svg width="994px" height="368px"
 viewBox="0.00 0.00 993.90 368.00" xmlns="http://www.w3.org/2000/svg" xmlns:xlink="http://www.w3.org/1999/xlink">
<g id="graph0" class="graph" transform="scale(1.0 1.0) rotate(0) translate(4 364)">
<title>urn:temp#graph</title>
<polygon fill="white" stroke="transparent" points="-4,4 -4,-364 989.9,-364 989.9,4 -4,4"/>
<!-- http://ns.imfid.org/imf#BreakdownPoint -->
<g id="node1" class="node">
<title>http://ns.imfid.org/imf#BreakdownPoint</title>
<polygon fill="none" stroke="black" points="109.4,-117 21.4,-117 21.4,-81 109.4,-81 109.4,-117"/>
<text text-anchor="middle" x="65.4" y="-97.1" font-family="Arial" font-size="8.00">imf:BreakdownPoint</text>
</g>
<!-- http://ns.imfid.org/imf#Element -->
<g id="node2" class="node">
<title>http://ns.imfid.org/imf#Element</title>
<polygon fill="none" stroke="black" points="181.9,-198 122.9,-198 122.9,-162 181.9,-162 181.9,-198"/>
<text text-anchor="middle" x="152.4" y="-178.1" font-family="Arial" font-size="8.00">imf:Element</text>
</g>
<!-- http://ns.imfid.org/imf#BreakdownPoint&#45;&gt;http://ns.imfid.org/imf#Element -->
<g id="edge2" class="edge">
<title>http://ns.imfid.org/imf#BreakdownPoint&#45;&gt;http://ns.imfid.org/imf#Element</title>
<path fill="none" stroke="black" d="M21.12,-114.51C5.53,-122.02 -6.02,-132.1 3.4,-144 16.81,-160.92 73.22,-170.46 112.64,-175.17"/>
<polygon fill="black" stroke="black" points="112.43,-178.67 122.76,-176.32 113.22,-171.72 112.43,-178.67"/>
<text text-anchor="middle" x="23.4" y="-137.6" font-family="Arial" font-size="8.00">imf:thePart</text>
</g>
<!-- http://ns.imfid.org/imf#BreakdownPoint&#45;&gt;http://ns.imfid.org/imf#Element -->
<g id="edge5" class="edge">
<title>http://ns.imfid.org/imf#BreakdownPoint&#45;&gt;http://ns.imfid.org/imf#Element</title>
<path fill="none" stroke="black" d="M61.59,-117.24C60.64,-125.97 61.11,-136.32 66.4,-144 77.03,-159.42 95.73,-168.05 112.98,-172.88"/>
<polygon fill="black" stroke="black" points="112.35,-176.33 122.9,-175.31 114.02,-169.53 112.35,-176.33"/>
<text text-anchor="middle" x="89.9" y="-137.6" font-family="Arial" font-size="8.00">imf:theWhole</text>
</g>
<!-- http://ns.imfid.org/imf#BreakdownPoint&#45;&gt;http://ns.imfid.org/imf#Element -->
<g id="edge21" class="edge">
<title>http://ns.imfid.org/imf#BreakdownPoint&#45;&gt;http://ns.imfid.org/imf#Element</title>
<path fill="none" stroke="black" d="M91.11,-117.19C98.56,-122.58 106.53,-128.76 113.4,-135 119.77,-140.79 126.18,-147.55 131.91,-154"/>
<polygon fill="none" stroke="black" points="129.56,-156.64 138.75,-161.92 134.86,-152.06 129.56,-156.64"/>
</g>
<!-- http://ns.imfid.org/imf#Element&#45;&gt;http://ns.imfid.org/imf#Element -->
<g id="edge7" class="edge">
<title>http://ns.imfid.org/imf#Element&#45;&gt;http://ns.imfid.org/imf#Element</title>
<path fill="none" stroke="black" d="M182.09,-177.5C191.99,-177.5 199.9,-178.33 199.9,-180 199.9,-181.02 196.96,-181.72 192.43,-182.12"/>
<polygon fill="black" stroke="black" points="191.95,-178.63 182.09,-182.5 192.21,-185.63 191.95,-178.63"/>
<text text-anchor="middle" x="240.9" y="-178.1" font-family="Arial" font-size="8.00">imf:intraAspectRelation</text>
</g>
<!-- http://ns.imfid.org/imf#Element&#45;&gt;http://ns.imfid.org/imf#Element -->
<g id="edge15" class="edge">
<title>http://ns.imfid.org/imf#Element&#45;&gt;http://ns.imfid.org/imf#Element</title>
<path fill="none" stroke="black" d="M182.16,-176.23C221.65,-173.76 281.9,-175.01 281.9,-180 281.9,-184.58 231.13,-186.01 192.25,-184.3"/>
<polygon fill="black" stroke="black" points="192.33,-180.8 182.16,-183.77 191.96,-187.79 192.33,-180.8"/>
<text text-anchor="middle" x="299.9" y="-178.1" font-family="Arial" font-size="8.00">imf:partOf</text>
</g>
<!-- http://ns.imfid.org/imf#Element&#45;&gt;http://ns.imfid.org/imf#Element -->
<g id="edge23" class="edge">
<title>http://ns.imfid.org/imf#Element&#45;&gt;http://ns.imfid.org/imf#Element</title>
<path fill="none" stroke="black" d="M181.98,-175.04C231.76,-170.44 317.9,-172.09 317.9,-180 317.9,-187.4 242.51,-189.32 192.03,-185.77"/>
<polygon fill="black" stroke="black" points="192.23,-182.28 181.98,-184.96 191.67,-189.25 192.23,-182.28"/>
<text text-anchor="middle" x="358.9" y="-178.1" font-family="Arial" font-size="8.00">imf:interAspectRelation</text>
</g>
<!-- http://ns.imfid.org/imf#Aspect -->
<g id="node4" class="node">
<title>http://ns.imfid.org/imf#Aspect</title>
<polygon fill="none" stroke="black" points="142.4,-279 88.4,-279 88.4,-243 142.4,-243 142.4,-279"/>
<text text-anchor="middle" x="115.4" y="-259.1" font-family="Arial" font-size="8.00">imf:Aspect</text>
</g>
<!-- http://ns.imfid.org/imf#Element&#45;&gt;http://ns.imfid.org/imf#Aspect -->
<g id="edge27" class="edge">
<title>http://ns.imfid.org/imf#Element&#45;&gt;http://ns.imfid.org/imf#Aspect</title>
<path fill="none" stroke="black" d="M133.72,-198.05C128.97,-203.34 124.38,-209.51 121.4,-216 119.09,-221.04 117.6,-226.72 116.66,-232.28"/>
<polygon fill="black" stroke="black" points="113.14,-232.3 115.45,-242.64 120.09,-233.11 113.14,-232.3"/>
<text text-anchor="middle" x="146.4" y="-218.6" font-family="Arial" font-size="8.00">imf:hasAspect</text>
</g>
<!-- http://ns.imfid.org/imf#Attribute -->
<g id="node12" class="node">
<title>http://ns.imfid.org/imf#Attribute</title>
<polygon fill="none" stroke="black" points="226.9,-279 167.9,-279 167.9,-243 226.9,-243 226.9,-279"/>
<text text-anchor="middle" x="197.4" y="-259.1" font-family="Arial" font-size="8.00">imf:Attribute</text>
</g>
<!-- http://ns.imfid.org/imf#Element&#45;&gt;http://ns.imfid.org/imf#Attribute -->
<g id="edge10" class="edge">
<title>http://ns.imfid.org/imf#Element&#45;&gt;http://ns.imfid.org/imf#Attribute</title>
<path fill="none" stroke="black" d="M162.17,-198.14C168.12,-208.6 175.85,-222.17 182.56,-233.94"/>
<polygon fill="black" stroke="black" points="179.67,-235.93 187.66,-242.89 185.75,-232.47 179.67,-235.93"/>
<text text-anchor="middle" x="204.4" y="-218.6" font-family="Arial" font-size="8.00">imf:hasAttribute</text>
</g>
<!-- http://ns.imfid.org/imf#TerminalQualifier -->
<g id="node3" class="node">
<title>http://ns.imfid.org/imf#TerminalQualifier</title>
<polygon fill="none" stroke="black" points="628.9,-198 539.9,-198 539.9,-162 628.9,-162 628.9,-198"/>
<text text-anchor="middle" x="584.4" y="-178.1" font-family="Arial" font-size="8.00">imf:TerminalQualifier</text>
</g>
<!-- http://www.w3.org/2001/XMLSchema#string -->
<g id="node20" class="node">
<title>http://www.w3.org/2001/XMLSchema#string</title>
<polygon fill="none" stroke="black" points="138.4,-360 84.4,-360 84.4,-324 138.4,-324 138.4,-360"/>
<text text-anchor="middle" x="111.4" y="-340.1" font-family="Arial" font-size="8.00">xsd:string</text>
</g>
<!-- http://ns.imfid.org/imf#Aspect&#45;&gt;http://www.w3.org/2001/XMLSchema#string -->
<g id="edge11" class="edge">
<title>http://ns.imfid.org/imf#Aspect&#45;&gt;http://www.w3.org/2001/XMLSchema#string</title>
<path fill="none" stroke="black" d="M114.53,-279.14C114.02,-289.29 113.36,-302.37 112.77,-313.88"/>
<polygon fill="black" stroke="black" points="109.28,-313.73 112.27,-323.89 116.27,-314.08 109.28,-313.73"/>
<text text-anchor="middle" x="130.9" y="-299.6" font-family="Arial" font-size="8.00">imf:prefix</text>
</g>
<!-- http://ns.imfid.org/imf#outputFlow -->
<g id="node5" class="node">
<title>http://ns.imfid.org/imf#outputFlow</title>
<polygon fill="none" stroke="black" points="618.9,-117 549.9,-117 549.9,-81 618.9,-81 618.9,-117"/>
<text text-anchor="middle" x="584.4" y="-97.1" font-family="Arial" font-size="8.00">imf:outputFlow</text>
</g>
<!-- http://ns.imfid.org/imf#outputFlow&#45;&gt;http://ns.imfid.org/imf#TerminalQualifier -->
<g id="edge16" class="edge">
<title>http://ns.imfid.org/imf#outputFlow&#45;&gt;http://ns.imfid.org/imf#TerminalQualifier</title>
<path fill="none" stroke="black" stroke-dasharray="1,5" d="M584.4,-117.14C584.4,-127.29 584.4,-140.37 584.4,-151.88"/>
<polygon fill="black" stroke="black" points="580.9,-151.89 584.4,-161.89 587.9,-151.89 580.9,-151.89"/>
</g>
<!-- http://ns.imfid.org/imf#Terminal -->
<g id="node6" class="node">
<title>http://ns.imfid.org/imf#Terminal</title>
<polygon fill="none" stroke="black" points="455.9,-117 396.9,-117 396.9,-81 455.9,-81 455.9,-117"/>
<text text-anchor="middle" x="426.4" y="-97.1" font-family="Arial" font-size="8.00">imf:Terminal</text>
</g>
<!-- http://ns.imfid.org/imf#Terminal&#45;&gt;http://ns.imfid.org/imf#Element -->
<g id="edge12" class="edge">
<title>http://ns.imfid.org/imf#Terminal&#45;&gt;http://ns.imfid.org/imf#Element</title>
<path fill="none" stroke="black" d="M407.84,-117.2C396.65,-126.6 381.65,-137.6 366.4,-144 308.88,-168.15 236.16,-175.7 192.02,-178.02"/>
<polygon fill="none" stroke="black" points="191.8,-174.53 181.97,-178.48 192.12,-181.52 191.8,-174.53"/>
</g>
<!-- http://ns.imfid.org/imf#Terminal&#45;&gt;http://ns.imfid.org/imf#TerminalQualifier -->
<g id="edge4" class="edge">
<title>http://ns.imfid.org/imf#Terminal&#45;&gt;http://ns.imfid.org/imf#TerminalQualifier</title>
<path fill="none" stroke="black" d="M450.63,-117.08C463.56,-125.77 479.96,-136.13 495.4,-144 506.38,-149.59 518.48,-154.89 530.12,-159.58"/>
<polygon fill="black" stroke="black" points="529.16,-162.97 539.75,-163.38 531.73,-156.46 529.16,-162.97"/>
<text text-anchor="middle" x="537.9" y="-137.6" font-family="Arial" font-size="8.00">imf:hasTerminalQualifier</text>
</g>
<!-- http://ns.imfid.org/imf#Terminal&#45;&gt;http://ns.imfid.org/imf#Terminal -->
<g id="edge19" class="edge">
<title>http://ns.imfid.org/imf#Terminal&#45;&gt;http://ns.imfid.org/imf#Terminal</title>
<path fill="none" stroke="black" d="M456.09,-91.5C465.99,-91.5 473.9,-94 473.9,-99 473.9,-102.12 470.81,-104.27 466.07,-105.45"/>
<polygon fill="black" stroke="black" points="465.67,-101.97 456.09,-106.5 466.4,-108.93 465.67,-101.97"/>
<text text-anchor="middle" x="502.9" y="-97.1" font-family="Arial" font-size="8.00">imf:connectedTo</text>
</g>
<!-- http://ns.imfid.org/imf#TerminalType -->
<g id="node7" class="node">
<title>http://ns.imfid.org/imf#TerminalType</title>
<polygon fill="none" stroke="black" points="706.9,-36 629.9,-36 629.9,0 706.9,0 706.9,-36"/>
<text text-anchor="middle" x="668.4" y="-16.1" font-family="Arial" font-size="8.00">imf:TerminalType</text>
</g>
<!-- http://ns.imfid.org/imf#ElementType -->
<g id="node8" class="node">
<title>http://ns.imfid.org/imf#ElementType</title>
<polygon fill="none" stroke="black" points="795.4,-117 719.4,-117 719.4,-81 795.4,-81 795.4,-117"/>
<text text-anchor="middle" x="757.4" y="-97.1" font-family="Arial" font-size="8.00">imf:ElementType</text>
</g>
<!-- http://ns.imfid.org/imf#TerminalType&#45;&gt;http://ns.imfid.org/imf#ElementType -->
<g id="edge8" class="edge">
<title>http://ns.imfid.org/imf#TerminalType&#45;&gt;http://ns.imfid.org/imf#ElementType</title>
<path fill="none" stroke="black" d="M687.71,-36.14C700.19,-47.22 716.61,-61.79 730.38,-74.01"/>
<polygon fill="none" stroke="black" points="728.33,-76.87 738.13,-80.89 732.97,-71.64 728.33,-76.87"/>
</g>
<!-- http://ns.imfid.org/imf#Type -->
<g id="node16" class="node">
<title>http://ns.imfid.org/imf#Type</title>
<polygon fill="none" stroke="black" points="784.4,-198 730.4,-198 730.4,-162 784.4,-162 784.4,-198"/>
<text text-anchor="middle" x="757.4" y="-178.1" font-family="Arial" font-size="8.00">imf:Type</text>
</g>
<!-- http://ns.imfid.org/imf#ElementType&#45;&gt;http://ns.imfid.org/imf#Type -->
<g id="edge25" class="edge">
<title>http://ns.imfid.org/imf#ElementType&#45;&gt;http://ns.imfid.org/imf#Type</title>
<path fill="none" stroke="black" d="M757.4,-117.14C757.4,-127.29 757.4,-140.37 757.4,-151.88"/>
<polygon fill="none" stroke="black" points="753.9,-151.89 757.4,-161.89 760.9,-151.89 753.9,-151.89"/>
</g>
<!-- http://ns.imfid.org/imf#Block -->
<g id="node9" class="node">
<title>http://ns.imfid.org/imf#Block</title>
<polygon fill="none" stroke="black" points="199.4,-36 145.4,-36 145.4,0 199.4,0 199.4,-36"/>
<text text-anchor="middle" x="172.4" y="-16.1" font-family="Arial" font-size="8.00">imf:Block</text>
</g>
<!-- http://ns.imfid.org/imf#Block&#45;&gt;http://ns.imfid.org/imf#Element -->
<g id="edge24" class="edge">
<title>http://ns.imfid.org/imf#Block&#45;&gt;http://ns.imfid.org/imf#Element</title>
<path fill="none" stroke="black" d="M170.26,-36.12C166.81,-63.77 159.97,-118.46 155.83,-151.58"/>
<polygon fill="none" stroke="black" points="152.35,-151.16 154.59,-161.52 159.3,-152.03 152.35,-151.16"/>
</g>
<!-- http://ns.imfid.org/imf#Block&#45;&gt;http://ns.imfid.org/imf#Terminal -->
<g id="edge13" class="edge">
<title>http://ns.imfid.org/imf#Block&#45;&gt;http://ns.imfid.org/imf#Terminal</title>
<path fill="none" stroke="black" d="M199.72,-32.78C220.11,-42.54 248.9,-55.23 275.4,-63 321.68,-76.57 335.9,-68.25 382.4,-81 384.03,-81.45 385.68,-81.93 387.34,-82.45"/>
<polygon fill="black" stroke="black" points="386.26,-85.77 396.85,-85.65 388.49,-79.14 386.26,-85.77"/>
<text text-anchor="middle" x="303.4" y="-56.6" font-family="Arial" font-size="8.00">imf:hasTerminal</text>
</g>
<!-- http://ns.imfid.org/imf#Model -->
<g id="node10" class="node">
<title>http://ns.imfid.org/imf#Model</title>
<polygon fill="none" stroke="black" points="272.4,-117 218.4,-117 218.4,-81 272.4,-81 272.4,-117"/>
<text text-anchor="middle" x="245.4" y="-97.1" font-family="Arial" font-size="8.00">imf:Model</text>
</g>
<!-- http://ns.imfid.org/imf#Model&#45;&gt;http://ns.imfid.org/imf#Element -->
<g id="edge26" class="edge">
<title>http://ns.imfid.org/imf#Model&#45;&gt;http://ns.imfid.org/imf#Element</title>
<path fill="none" stroke="black" d="M231.05,-117.17C223.54,-125.69 213.93,-135.87 204.4,-144 199.51,-148.17 194.11,-152.28 188.7,-156.14"/>
<polygon fill="black" stroke="black" points="186.5,-153.4 180.24,-161.96 190.46,-159.17 186.5,-153.4"/>
<text text-anchor="middle" x="241.9" y="-137.6" font-family="Arial" font-size="8.00">imf:hasElement</text>
</g>
<!-- http://ns.imfid.org/imf#BlockType -->
<g id="node11" class="node">
<title>http://ns.imfid.org/imf#BlockType</title>
<polygon fill="none" stroke="black" points="789.9,-36 724.9,-36 724.9,0 789.9,0 789.9,-36"/>
<text text-anchor="middle" x="757.4" y="-16.1" font-family="Arial" font-size="8.00">imf:BlockType</text>
</g>
<!-- http://ns.imfid.org/imf#BlockType&#45;&gt;http://ns.imfid.org/imf#ElementType -->
<g id="edge18" class="edge">
<title>http://ns.imfid.org/imf#BlockType&#45;&gt;http://ns.imfid.org/imf#ElementType</title>
<path fill="none" stroke="black" d="M757.4,-36.14C757.4,-46.29 757.4,-59.37 757.4,-70.88"/>
<polygon fill="none" stroke="black" points="753.9,-70.89 757.4,-80.89 760.9,-70.89 753.9,-70.89"/>
</g>
<!-- http://ns.imfid.org/imf#AttributeQualifier -->
<g id="node15" class="node">
<title>http://ns.imfid.org/imf#AttributeQualifier</title>
<polygon fill="none" stroke="black" points="245.9,-360 156.9,-360 156.9,-324 245.9,-324 245.9,-360"/>
<text text-anchor="middle" x="201.4" y="-340.1" font-family="Arial" font-size="8.00">imf:AttributeQualifier</text>
</g>
<!-- http://ns.imfid.org/imf#Attribute&#45;&gt;http://ns.imfid.org/imf#AttributeQualifier -->
<g id="edge3" class="edge">
<title>http://ns.imfid.org/imf#Attribute&#45;&gt;http://ns.imfid.org/imf#AttributeQualifier</title>
<path fill="none" stroke="black" d="M198.27,-279.14C198.78,-289.29 199.45,-302.37 200.03,-313.88"/>
<polygon fill="black" stroke="black" points="196.53,-314.08 200.54,-323.89 203.53,-313.73 196.53,-314.08"/>
<text text-anchor="middle" x="242.9" y="-299.6" font-family="Arial" font-size="8.00">imf:hasAttributeQualifier</text>
</g>
<!-- http://ns.imfid.org/imf#ConnectionPoint -->
<g id="node13" class="node">
<title>http://ns.imfid.org/imf#ConnectionPoint</title>
<polygon fill="none" stroke="black" points="312.4,-36 224.4,-36 224.4,0 312.4,0 312.4,-36"/>
<text text-anchor="middle" x="268.4" y="-16.1" font-family="Arial" font-size="8.00">imf:ConnectionPoint</text>
</g>
<!-- http://ns.imfid.org/imf#ConnectionPoint&#45;&gt;http://ns.imfid.org/imf#Element -->
<g id="edge20" class="edge">
<title>http://ns.imfid.org/imf#ConnectionPoint&#45;&gt;http://ns.imfid.org/imf#Element</title>
<path fill="none" stroke="black" d="M312.57,-26.38C354.68,-33.86 412.66,-45.52 419.4,-54 421.89,-57.13 421.97,-59.94 419.4,-63 389.81,-98.27 356.21,-56.24 317.4,-81 288.61,-99.37 301.17,-124.12 273.4,-144 249.41,-161.17 217.1,-169.97 191.91,-174.44"/>
<polygon fill="black" stroke="black" points="183.72,-180.83 182.12,-170.96 184.1,-170.64 185.7,-180.51 183.72,-180.83"/>
<polyline fill="none" stroke="black" points="181.94,-176.06 186.87,-175.26 "/>
<polygon fill="black" stroke="black" points="188.66,-180.03 187.06,-170.16 189.03,-169.84 190.63,-179.71 188.66,-180.03"/>
<polyline fill="none" stroke="black" points="186.87,-175.26 191.81,-174.46 "/>
<text text-anchor="middle" x="352.4" y="-97.1" font-family="Arial" font-size="8.00">imf:theConnected 2</text>
</g>
<!-- http://ns.imfid.org/imf#ConnectionPoint&#45;&gt;http://ns.imfid.org/imf#Element -->
<g id="edge22" class="edge">
<title>http://ns.imfid.org/imf#ConnectionPoint&#45;&gt;http://ns.imfid.org/imf#Element</title>
<path fill="none" stroke="black" d="M260.89,-36.36C256.46,-45.13 250.19,-55.48 242.4,-63 230.39,-74.61 221.38,-69.35 209.4,-81 207.91,-82.45 183.62,-124.56 167.24,-153.11"/>
<polygon fill="none" stroke="black" points="164.17,-151.41 162.23,-161.83 170.25,-154.9 164.17,-151.41"/>
</g>
<!-- http://ns.imfid.org/imf#ConnectionPoint&#45;&gt;http://ns.imfid.org/imf#Terminal -->
<g id="edge17" class="edge">
<title>http://ns.imfid.org/imf#ConnectionPoint&#45;&gt;http://ns.imfid.org/imf#Terminal</title>
<path fill="none" stroke="black" d="M299.74,-36.09C315.19,-44.4 334.17,-54.42 351.4,-63 363.07,-68.81 375.89,-74.9 387.58,-80.34"/>
<polygon fill="black" stroke="black" points="386.12,-83.52 396.67,-84.55 389.06,-77.17 386.12,-83.52"/>
<text text-anchor="middle" x="383.4" y="-56.6" font-family="Arial" font-size="8.00">imf:theConnected</text>
</g>
<!-- http://ns.imfid.org/imf#inputFlow -->
<g id="node14" class="node">
<title>http://ns.imfid.org/imf#inputFlow</title>
<polygon fill="none" stroke="black" points="701.4,-117 637.4,-117 637.4,-81 701.4,-81 701.4,-117"/>
<text text-anchor="middle" x="669.4" y="-97.1" font-family="Arial" font-size="8.00">imf:inputFlow</text>
</g>
<!-- http://ns.imfid.org/imf#inputFlow&#45;&gt;http://ns.imfid.org/imf#TerminalQualifier -->
<g id="edge14" class="edge">
<title>http://ns.imfid.org/imf#inputFlow&#45;&gt;http://ns.imfid.org/imf#TerminalQualifier</title>
<path fill="none" stroke="black" stroke-dasharray="1,5" d="M650.96,-117.14C639.04,-128.22 623.36,-142.79 610.21,-155.01"/>
<polygon fill="black" stroke="black" points="607.75,-152.52 602.81,-161.89 612.52,-157.65 607.75,-152.52"/>
</g>
<!-- http://ns.imfid.org/imf#InputTerminal -->
<g id="node17" class="node">
<title>http://ns.imfid.org/imf#InputTerminal</title>
<polygon fill="none" stroke="black" points="449.9,-36 372.9,-36 372.9,0 449.9,0 449.9,-36"/>
<text text-anchor="middle" x="411.4" y="-16.1" font-family="Arial" font-size="8.00">imf:InputTerminal</text>
</g>
<!-- http://ns.imfid.org/imf#InputTerminal&#45;&gt;http://ns.imfid.org/imf#Terminal -->
<g id="edge6" class="edge">
<title>http://ns.imfid.org/imf#InputTerminal&#45;&gt;http://ns.imfid.org/imf#Terminal</title>
<path fill="none" stroke="black" d="M414.66,-36.14C416.58,-46.29 419.07,-59.37 421.25,-70.88"/>
<polygon fill="none" stroke="black" points="417.85,-71.72 423.15,-80.89 424.73,-70.41 417.85,-71.72"/>
</g>
<!-- http://ns.imfid.org/imf#OutputTerminal -->
<g id="node18" class="node">
<title>http://ns.imfid.org/imf#OutputTerminal</title>
<polygon fill="none" stroke="black" points="550.9,-36 467.9,-36 467.9,0 550.9,0 550.9,-36"/>
<text text-anchor="middle" x="509.4" y="-16.1" font-family="Arial" font-size="8.00">imf:OutputTerminal</text>
</g>
<!-- http://ns.imfid.org/imf#OutputTerminal&#45;&gt;http://ns.imfid.org/imf#Terminal -->
<g id="edge1" class="edge">
<title>http://ns.imfid.org/imf#OutputTerminal&#45;&gt;http://ns.imfid.org/imf#Terminal</title>
<path fill="none" stroke="black" d="M497.42,-36.2C491.07,-44.72 482.86,-54.89 474.4,-63 470.31,-66.93 465.76,-70.78 461.14,-74.41"/>
<polygon fill="none" stroke="black" points="458.7,-71.87 452.82,-80.68 462.91,-77.46 458.7,-71.87"/>
</g>
<!-- http://ns.imfid.org/imf#AspectElement -->
<g id="node19" class="node">
<title>http://ns.imfid.org/imf#AspectElement</title>
<polygon fill="none" stroke="black" points="985.9,-36 902.9,-36 902.9,0 985.9,0 985.9,-36"/>
<text text-anchor="middle" x="944.4" y="-16.1" font-family="Arial" font-size="8.00">imf:AspectElement</text>
</g>
<!-- http://ns.imfid.org/imf#AttributeType -->
<g id="node21" class="node">
<title>http://ns.imfid.org/imf#AttributeType</title>
<polygon fill="none" stroke="black" points="884.9,-36 807.9,-36 807.9,0 884.9,0 884.9,-36"/>
<text text-anchor="middle" x="846.4" y="-16.1" font-family="Arial" font-size="8.00">imf:AttributeType</text>
</g>
<!-- http://ns.imfid.org/imf#AttributeType&#45;&gt;http://ns.imfid.org/imf#ElementType -->
<g id="edge9" class="edge">
<title>http://ns.imfid.org/imf#AttributeType&#45;&gt;http://ns.imfid.org/imf#ElementType</title>
<path fill="none" stroke="black" d="M827.09,-36.14C814.61,-47.22 798.19,-61.79 784.42,-74.01"/>
<polygon fill="none" stroke="black" points="781.83,-71.64 776.68,-80.89 786.48,-76.87 781.83,-71.64"/>
</g>
</g>
</svg>

