<?xml version="1.0" encoding="UTF-8" standalone="no"?>
<!DOCTYPE svg PUBLIC "-//W3C//DTD SVG 1.1//EN"
 "http://www.w3.org/Graphics/SVG/1.1/DTD/svg11.dtd">
<!-- Generated by graphviz version 2.43.0 (0)
 -->
<!-- Title: urn:temp#graph Pages: 1 -->
<svg width="378px" height="206px"
 viewBox="0.00 0.00 377.53 206.00" xmlns="http://www.w3.org/2000/svg" xmlns:xlink="http://www.w3.org/1999/xlink">
<g id="graph0" class="graph" transform="scale(1.0 1.0) rotate(0) translate(4 202)">
<title>urn:temp#graph</title>
<polygon fill="white" stroke="transparent" points="-4,4 -4,-202 373.53,-202 373.53,4 -4,4"/>
<!-- http://ns.imfid.org/20230331/imf -->
<g id="node1" class="node">
<title>http://ns.imfid.org/20230331/imf</title>
<ellipse fill="none" stroke="black" cx="73.17" cy="-99" rx="73.35" ry="18"/>
<text text-anchor="middle" x="73.17" y="-97.1" font-family="Arial" font-size="8.00">http://ns.imfid.org/20230331/imf</text>
</g>
<!-- http://ns.imfid.org/20230331/imf&#45;aspects -->
<g id="node2" class="node">
<title>http://ns.imfid.org/20230331/imf&#45;aspects</title>
<ellipse fill="none" stroke="black" cx="275.94" cy="-180" rx="90.38" ry="18"/>
<text text-anchor="middle" x="275.94" y="-178.1" font-family="Arial" font-size="8.00">http://ns.imfid.org/20230331/imf&#45;aspects</text>
</g>
<!-- http://ns.imfid.org/20230331/imf&#45;&gt;http://ns.imfid.org/20230331/imf&#45;aspects -->
<g id="edge4" class="edge">
<title>http://ns.imfid.org/20230331/imf&#45;&gt;http://ns.imfid.org/20230331/imf&#45;aspects</title>
<path fill="none" stroke="black" d="M103.82,-115.61C125.2,-127.14 154.98,-142.28 182.34,-153 191.25,-156.49 200.8,-159.77 210.26,-162.75"/>
<polygon fill="black" stroke="black" points="209.46,-166.17 220.04,-165.76 211.51,-159.48 209.46,-166.17"/>
</g>
<!-- http://ns.imfid.org/20230331/imf&#45;types -->
<g id="node3" class="node">
<title>http://ns.imfid.org/20230331/imf&#45;types</title>
<ellipse fill="none" stroke="black" cx="275.94" cy="-126" rx="85.8" ry="18"/>
<text text-anchor="middle" x="275.94" y="-124.1" font-family="Arial" font-size="8.00">http://ns.imfid.org/20230331/imf&#45;types</text>
</g>
<!-- http://ns.imfid.org/20230331/imf&#45;&gt;http://ns.imfid.org/20230331/imf&#45;types -->
<g id="edge3" class="edge">
<title>http://ns.imfid.org/20230331/imf&#45;&gt;http://ns.imfid.org/20230331/imf&#45;types</title>
<path fill="none" stroke="black" d="M137.7,-107.54C155.42,-109.93 174.92,-112.55 193.52,-115.05"/>
<polygon fill="black" stroke="black" points="193.07,-118.52 203.45,-116.39 194,-111.58 193.07,-118.52"/>
</g>
<!-- http://ns.imfid.org/20230331/imf&#45;attributes -->
<g id="node4" class="node">
<title>http://ns.imfid.org/20230331/imf&#45;attributes</title>
<ellipse fill="none" stroke="black" cx="275.94" cy="-72" rx="93.69" ry="18"/>
<text text-anchor="middle" x="275.94" y="-70.1" font-family="Arial" font-size="8.00">http://ns.imfid.org/20230331/imf&#45;attributes</text>
</g>
<!-- http://ns.imfid.org/20230331/imf&#45;&gt;http://ns.imfid.org/20230331/imf&#45;attributes -->
<g id="edge2" class="edge">
<title>http://ns.imfid.org/20230331/imf&#45;&gt;http://ns.imfid.org/20230331/imf&#45;attributes</title>
<path fill="none" stroke="black" d="M137.7,-90.46C153.93,-88.27 171.65,-85.89 188.8,-83.58"/>
<polygon fill="black" stroke="black" points="189.38,-87.04 198.82,-82.24 188.44,-80.1 189.38,-87.04"/>
</g>
<!-- http://ns.imfid.org/20230331/imf&#45;elements -->
<g id="node5" class="node">
<title>http://ns.imfid.org/20230331/imf&#45;elements</title>
<ellipse fill="none" stroke="black" cx="275.94" cy="-18" rx="93.05" ry="18"/>
<text text-anchor="middle" x="275.94" y="-16.1" font-family="Arial" font-size="8.00">http://ns.imfid.org/20230331/imf&#45;elements</text>
</g>
<!-- http://ns.imfid.org/20230331/imf&#45;&gt;http://ns.imfid.org/20230331/imf&#45;elements -->
<g id="edge1" class="edge">
<title>http://ns.imfid.org/20230331/imf&#45;&gt;http://ns.imfid.org/20230331/imf&#45;elements</title>
<path fill="none" stroke="black" d="M103.82,-82.39C125.2,-70.86 154.98,-55.72 182.34,-45 191.14,-41.55 200.55,-38.32 209.89,-35.36"/>
<polygon fill="black" stroke="black" points="211.03,-38.67 219.56,-32.39 208.97,-31.98 211.03,-38.67"/>
</g>
</g>
</svg>

