<?xml version="1.0" encoding="UTF-8" standalone="no"?>
<!DOCTYPE svg PUBLIC "-//W3C//DTD SVG 1.1//EN"
 "http://www.w3.org/Graphics/SVG/1.1/DTD/svg11.dtd">
<!-- Generated by graphviz version 2.43.0 (0)
 -->
<!-- Title: urn:temp#graph Pages: 1 -->
<svg width="378px" height="152px"
 viewBox="0.00 0.00 377.53 152.00" xmlns="http://www.w3.org/2000/svg" xmlns:xlink="http://www.w3.org/1999/xlink">
<g id="graph0" class="graph" transform="scale(1.0 1.0) rotate(0) translate(4 148)">
<title>urn:temp#graph</title>
<polygon fill="white" stroke="transparent" points="-4,4 -4,-148 373.53,-148 373.53,4 -4,4"/>
<!-- http://ns.imfid.org/20230331/imf -->
<g id="node1" class="node">
<title>http://ns.imfid.org/20230331/imf</title>
<ellipse fill="none" stroke="black" cx="73.17" cy="-72" rx="73.35" ry="18"/>
<text text-anchor="middle" x="73.17" y="-70.1" font-family="Arial" font-size="8.00">http://ns.imfid.org/20230331/imf</text>
</g>
<!-- http://ns.imfid.org/20230331/imf&#45;aspects -->
<g id="node2" class="node">
<title>http://ns.imfid.org/20230331/imf&#45;aspects</title>
<ellipse fill="none" stroke="black" cx="275.94" cy="-126" rx="90.38" ry="18"/>
<text text-anchor="middle" x="275.94" y="-124.1" font-family="Arial" font-size="8.00">http://ns.imfid.org/20230331/imf&#45;aspects</text>
</g>
<!-- http://ns.imfid.org/20230331/imf&#45;&gt;http://ns.imfid.org/20230331/imf&#45;aspects -->
<g id="edge3" class="edge">
<title>http://ns.imfid.org/20230331/imf&#45;&gt;http://ns.imfid.org/20230331/imf&#45;aspects</title>
<path fill="none" stroke="black" d="M123.29,-85.21C149.87,-92.36 183.01,-101.27 211.53,-108.94"/>
<polygon fill="black" stroke="black" points="210.83,-112.38 221.4,-111.6 212.65,-105.62 210.83,-112.38"/>
</g>
<!-- http://ns.imfid.org/20230331/imf&#45;attributes -->
<g id="node3" class="node">
<title>http://ns.imfid.org/20230331/imf&#45;attributes</title>
<ellipse fill="none" stroke="black" cx="275.94" cy="-72" rx="93.69" ry="18"/>
<text text-anchor="middle" x="275.94" y="-70.1" font-family="Arial" font-size="8.00">http://ns.imfid.org/20230331/imf&#45;attributes</text>
</g>
<!-- http://ns.imfid.org/20230331/imf&#45;&gt;http://ns.imfid.org/20230331/imf&#45;attributes -->
<g id="edge2" class="edge">
<title>http://ns.imfid.org/20230331/imf&#45;&gt;http://ns.imfid.org/20230331/imf&#45;attributes</title>
<path fill="none" stroke="black" d="M146.37,-72C154.69,-72 163.3,-72 171.93,-72"/>
<polygon fill="black" stroke="black" points="172.05,-75.5 182.05,-72 172.05,-68.5 172.05,-75.5"/>
</g>
<!-- http://ns.imfid.org/20230331/imf&#45;elements -->
<g id="node4" class="node">
<title>http://ns.imfid.org/20230331/imf&#45;elements</title>
<ellipse fill="none" stroke="black" cx="275.94" cy="-18" rx="93.05" ry="18"/>
<text text-anchor="middle" x="275.94" y="-16.1" font-family="Arial" font-size="8.00">http://ns.imfid.org/20230331/imf&#45;elements</text>
</g>
<!-- http://ns.imfid.org/20230331/imf&#45;&gt;http://ns.imfid.org/20230331/imf&#45;elements -->
<g id="edge1" class="edge">
<title>http://ns.imfid.org/20230331/imf&#45;&gt;http://ns.imfid.org/20230331/imf&#45;elements</title>
<path fill="none" stroke="black" d="M123.29,-58.79C149.66,-51.7 182.49,-42.86 210.86,-35.24"/>
<polygon fill="black" stroke="black" points="211.94,-38.57 220.68,-32.59 210.12,-31.81 211.94,-38.57"/>
</g>
</g>
</svg>

