<?xml version="1.0" encoding="UTF-8" standalone="no"?>
<!DOCTYPE svg PUBLIC "-//W3C//DTD SVG 1.1//EN"
 "http://www.w3.org/Graphics/SVG/1.1/DTD/svg11.dtd">
<!-- Generated by graphviz version 2.43.0 (0)
 -->
<!-- Title: urn:temp#graph Pages: 1 -->
<svg width="708px" height="116px"
 viewBox="0.00 0.00 708.49 115.57" xmlns="http://www.w3.org/2000/svg" xmlns:xlink="http://www.w3.org/1999/xlink">
<g id="graph0" class="graph" transform="scale(1.0 1.0) rotate(0) translate(4 111.57)">
<title>urn:temp#graph</title>
<polygon fill="white" stroke="transparent" points="-4,4 -4,-111.57 704.49,-111.57 704.49,4 -4,4"/>
<!-- http://ns.imfid.org/ontology/20221118/imf&#45;top -->
<g id="node1" class="node">
<title>http://ns.imfid.org/ontology/20221118/imf&#45;top</title>
<ellipse fill="none" stroke="black" cx="601.79" cy="-72" rx="98.9" ry="18"/>
<text text-anchor="middle" x="601.79" y="-70.1" font-family="Arial" font-size="8.00">http://ns.imfid.org/ontology/20221118/imf&#45;top</text>
</g>
<!-- http://ns.imfid.org/ontology/20221118/imf&#45;aspects -->
<g id="node2" class="node">
<title>http://ns.imfid.org/ontology/20221118/imf&#45;aspects</title>
<ellipse fill="none" stroke="black" cx="342.3" cy="-72" rx="107.55" ry="18"/>
<text text-anchor="middle" x="342.3" y="-70.1" font-family="Arial" font-size="8.00">http://ns.imfid.org/ontology/20221118/imf&#45;aspects</text>
</g>
<!-- http://ns.imfid.org/ontology/20221118/imf&#45;aspects&#45;&gt;http://ns.imfid.org/ontology/20221118/imf&#45;top -->
<g id="edge4" class="edge">
<title>http://ns.imfid.org/ontology/20221118/imf&#45;aspects&#45;&gt;http://ns.imfid.org/ontology/20221118/imf&#45;top</title>
<path fill="none" stroke="black" d="M450.26,-72C464.27,-72 478.64,-72 492.67,-72"/>
<polygon fill="black" stroke="black" points="492.81,-75.5 502.81,-72 492.81,-68.5 492.81,-75.5"/>
</g>
<!-- http://ns.imfid.org/ontology/20221118/imf -->
<g id="node3" class="node">
<title>http://ns.imfid.org/ontology/20221118/imf</title>
<ellipse fill="none" stroke="black" cx="90.76" cy="-72" rx="90.51" ry="18"/>
<text text-anchor="middle" x="90.76" y="-70.1" font-family="Arial" font-size="8.00">http://ns.imfid.org/ontology/20221118/imf</text>
</g>
<!-- http://ns.imfid.org/ontology/20221118/imf&#45;&gt;http://ns.imfid.org/ontology/20221118/imf&#45;top -->
<g id="edge1" class="edge">
<title>http://ns.imfid.org/ontology/20221118/imf&#45;&gt;http://ns.imfid.org/ontology/20221118/imf&#45;top</title>
<path fill="none" stroke="black" d="M146.13,-86.3C168.13,-91.4 193.86,-96.49 217.51,-99 327.82,-110.71 356.72,-110.03 467.09,-99 488.46,-96.86 511.46,-92.86 532.26,-88.57"/>
<polygon fill="black" stroke="black" points="533.21,-91.94 542.27,-86.45 531.76,-85.09 533.21,-91.94"/>
</g>
<!-- http://ns.imfid.org/ontology/20221118/imf&#45;&gt;http://ns.imfid.org/ontology/20221118/imf&#45;aspects -->
<g id="edge3" class="edge">
<title>http://ns.imfid.org/ontology/20221118/imf&#45;&gt;http://ns.imfid.org/ontology/20221118/imf&#45;aspects</title>
<path fill="none" stroke="black" d="M181.85,-72C195.55,-72 209.87,-72 224.05,-72"/>
<polygon fill="black" stroke="black" points="224.34,-75.5 234.34,-72 224.34,-68.5 224.34,-75.5"/>
</g>
<!-- http://ns.imfid.org/ontology/20221118/imf&#45;systemelements -->
<g id="node4" class="node">
<title>http://ns.imfid.org/ontology/20221118/imf&#45;systemelements</title>
<ellipse fill="none" stroke="black" cx="342.3" cy="-18" rx="124.58" ry="18"/>
<text text-anchor="middle" x="342.3" y="-16.1" font-family="Arial" font-size="8.00">http://ns.imfid.org/ontology/20221118/imf&#45;systemelements</text>
</g>
<!-- http://ns.imfid.org/ontology/20221118/imf&#45;&gt;http://ns.imfid.org/ontology/20221118/imf&#45;systemelements -->
<g id="edge5" class="edge">
<title>http://ns.imfid.org/ontology/20221118/imf&#45;&gt;http://ns.imfid.org/ontology/20221118/imf&#45;systemelements</title>
<path fill="none" stroke="black" d="M152.8,-58.79C185.78,-51.65 226.87,-42.76 262.26,-35.1"/>
<polygon fill="black" stroke="black" points="263.04,-38.52 272.08,-32.98 261.56,-31.67 263.04,-38.52"/>
</g>
<!-- http://ns.imfid.org/ontology/20221118/imf&#45;systemelements&#45;&gt;http://ns.imfid.org/ontology/20221118/imf&#45;top -->
<g id="edge2" class="edge">
<title>http://ns.imfid.org/ontology/20221118/imf&#45;systemelements&#45;&gt;http://ns.imfid.org/ontology/20221118/imf&#45;top</title>
<path fill="none" stroke="black" d="M414,-32.83C448.98,-40.16 491.18,-49.01 526.61,-56.44"/>
<polygon fill="black" stroke="black" points="525.91,-59.87 536.42,-58.5 527.35,-53.02 525.91,-59.87"/>
</g>
</g>
</svg>

